<?xml version="1.0" encoding="iso-8859-1"?>
<!-- Generator: Adobe Illustrator 19.0.0, SVG Export Plug-In . SVG Version: 6.00 Build 0)  -->
<svg version="1.1" id="Capa_1" xmlns="http://www.w3.org/2000/svg" xmlns:xlink="http://www.w3.org/1999/xlink" x="0px" y="0px"
	 viewBox="0 0 433.014 433.014" style="enable-background:new 0 0 433.014 433.014;" xml:space="preserve">
<g>
	<g>
		<path d="M208.564,34.214l-1.6-27.8c-0.1-2.4-1.5-4.6-3.7-5.7c-2.2-1.1-4.8-0.9-6.8,0.4l-39.5,26c-2.1,1.3-3.2,3.7-3.1,6.1
			c0.1,2.4,1.5,4.6,3.7,5.7l24,12.1c1,0.5,2.1,0.7,3.1,0.7c2.5,0,4.9-1.4,6.1-3.7c1.7-3.4,0.4-7.5-3-9.2l-13.5-6.8l19.8-13l0.9,16
			c0.2,3.7,3.5,6.6,7.2,6.4C205.864,41.214,208.764,38.014,208.564,34.214z"/>
	</g>
</g>
<g>
	<g>
		<path d="M192.464,384.714c-1.5-0.5-3.1-0.3-4.5,0.3c0.2-1,0.2-1.9-0.1-2.9c-1-3.6-4.8-5.8-8.4-4.8l-33.3,8.9
			c-2.3,0.6-4.2,2.4-4.8,4.8c-0.6,2.4,0.1,4.9,1.8,6.6l33.4,33.4c1.3,1.3,3,2,4.8,2c0.6,0,1.2,0,1.7-0.1c2.3-0.6,4.2-2.4,4.8-4.8
			l9.4-35C198.264,389.414,196.064,385.714,192.464,384.714z M177.764,413.014l-16.7-16.7l21.8-5.9c0.4-0.1,0.7-0.2,1-0.3
			L177.764,413.014z"/>
	</g>
</g>
<g>
	<g>
		<path d="M238.964,43.514c-11.9-16.8-35.4-20.7-52.2-8.8c-16.9,11.9-20.9,35.4-9,52.3c3.6,5.1,85.9,125.2-0.8,258.2
			c-5.5,8.4-7.4,18.4-5.3,28.2c2,9.8,7.8,18.2,16.2,23.7c6.1,4,13.2,6.1,20.5,6.1c12.8,0,24.5-6.3,31.5-17
			C354.964,209.714,243.764,50.214,238.964,43.514z M228.264,378.914c-4.4,6.7-11.9,10.8-20,10.8c-4.6,0-9.1-1.4-13-3.9
			c-5.3-3.5-9-8.9-10.3-15.1c-1.3-6.3-0.1-12.7,3.4-18c91.7-140.7,4.3-268.1,0.5-273.5c-7.6-10.8-5-25.7,5.7-33.3
			c4.2-3,9-4.4,13.8-4.4c7.5,0,14.8,3.4,19.3,10.1C232.264,58.014,338.364,210.114,228.264,378.914z"/>
	</g>
</g>
<g>
	<g>
		<path d="M228.764,91.014c-0.9-3.7-4.6-5.9-8.3-5l-27.3,6.8c-3.7,0.9-5.9,4.6-5,8.3c0.8,3.1,3.5,5.2,6.6,5.2c0.5,0,1.1-0.1,1.7-0.2
			l27.3-6.8C227.464,98.414,229.664,94.714,228.764,91.014z"/>
	</g>
</g>
<g>
	<g>
		<path d="M249.264,138.814c-0.9-3.7-4.6-5.9-8.3-5l-27.3,6.8c-3.7,0.9-5.9,4.6-5,8.3c0.8,3.1,3.5,5.2,6.6,5.2
			c0.5,0,1.1-0.1,1.7-0.2l27.3-6.8C247.964,146.214,250.164,142.514,249.264,138.814z"/>
	</g>
</g>
<g>
	<g>
		<path d="M256.164,195.114h-27.3c-3.7,0-6.8,3.1-6.8,6.8c0,3.7,3,6.8,6.8,6.8h27.3c3.8,0,6.8-3.1,6.8-6.8
			C262.964,198.214,259.964,195.114,256.164,195.114z"/>
	</g>
</g>
<g>
	<g>
		<path d="M244.664,256.814l-20.5-6.8c-3.5-1.2-7.4,0.7-8.6,4.3c-1.2,3.5,0.7,7.4,4.3,8.6l20.5,6.8c0.8,0.3,1.5,0.4,2.2,0.4
			c2.8,0,5.5-1.8,6.4-4.7C250.164,261.914,248.264,258.014,244.664,256.814z"/>
	</g>
</g>
<g>
	<g>
		<path d="M230.964,311.414l-20.5-6.8c-3.6-1.2-7.4,0.7-8.6,4.3c-1.2,3.5,0.7,7.4,4.3,8.6l20.5,6.8c0.8,0.3,1.5,0.4,2.2,0.4
			c2.9,0,5.5-1.8,6.4-4.7C236.464,316.514,234.564,312.614,230.964,311.414z"/>
	</g>
</g>
<g>
</g>
<g>
</g>
<g>
</g>
<g>
</g>
<g>
</g>
<g>
</g>
<g>
</g>
<g>
</g>
<g>
</g>
<g>
</g>
<g>
</g>
<g>
</g>
<g>
</g>
<g>
</g>
<g>
</g>
</svg>
