<?xml version="1.0" encoding="iso-8859-1"?>
<!-- Generator: Adobe Illustrator 19.0.0, SVG Export Plug-In . SVG Version: 6.00 Build 0)  -->
<svg version="1.1" id="Capa_1" xmlns="http://www.w3.org/2000/svg" xmlns:xlink="http://www.w3.org/1999/xlink" x="0px" y="0px"
	 viewBox="0 0 398.658 398.658" style="enable-background:new 0 0 398.658 398.658;" xml:space="preserve">
<g>
	<g>
		<path d="M394.885,159.44c-0.73-3.06-3.463-5.226-6.613-5.24l-158.467-0.64c-0.01,0-0.017,0-0.027,0
			c-3.147,0-5.886,2.147-6.634,5.207c-2.611,10.694-3.934,21.847-3.934,33.14c0,62.107,40.25,112.64,89.723,112.64
			c49.473,0,89.723-50.533,89.726-112.642C398.658,180.86,397.389,169.939,394.885,159.44z M308.932,290.894
			c-41.946,0-76.07-44.407-76.07-98.987c0-8.373,0.802-16.647,2.389-24.673l147.473,0.601c1.514,7.839,2.277,15.913,2.277,24.073
			C385.002,246.487,350.879,290.894,308.932,290.894z"/>
	</g>
</g>
<g>
	<g>
		<path d="M394.883,159.44c-0.73-3.06-3.463-5.226-6.613-5.24l-158.467-0.64c-0.01,0-0.017,0-0.027,0
			c-3.147,0-5.886,2.154-6.634,5.207c-2.611,10.701-3.934,21.854-3.934,33.14c0,5.567,0.404,11.433,1.23,17.934
			c0.437,3.406,3.336,5.96,6.774,5.96h163.441c3.437,0,6.337-2.553,6.774-5.961c0.828-6.501,1.231-12.367,1.231-17.934
			C398.657,180.86,397.387,169.939,394.883,159.44z M384.529,202.147H233.335c-0.316-3.606-0.473-6.987-0.473-10.24
			c0-8.366,0.802-16.647,2.389-24.673l147.473,0.601c1.514,7.839,2.277,15.913,2.277,24.073
			C385.002,195.16,384.846,198.541,384.529,202.147z"/>
	</g>
</g>
<g>
	<g>
		<path d="M308.932,290.894c-3.77,0-6.827,3.053-6.827,6.827v88.747c0,3.773,3.057,6.827,6.827,6.827s6.827-3.053,6.827-6.827
			v-88.747C315.759,293.947,312.702,290.894,308.932,290.894z"/>
	</g>
</g>
<g>
	<g>
		<path d="M336.239,379.641h-54.613c-3.77,0-6.827,3.053-6.827,6.827s3.057,6.827,6.827,6.827h54.613
			c3.77,0,6.827-3.053,6.827-6.827S340.009,379.641,336.239,379.641z"/>
	</g>
</g>
<g>
	<g>
		<path d="M203.991,68.249l-37.456-16.573c-1.661-0.739-3.541-0.78-5.224-0.126c-1.69,0.654-3.05,1.946-3.784,3.606l-24.201,54.694
			c-22.61,0.179-43.348,13.6-52.654,34.633L1.858,333.696c-5.081,12.199,0.616,26.479,12.706,31.833l67.543,29.887
			c3.181,1.406,6.54,2.113,9.907,2.113c3.07,0,6.144-0.587,9.088-1.76c6.178-2.459,10.987-7.199,13.547-13.333l78.457-188.373
			c9.25-20.902,5.236-45.261-9.837-62.114l24.201-54.7C208.998,73.803,207.438,69.77,203.991,68.249z M168.921,130.636
			c-1.171,2.64-0.546,5.74,1.556,7.726c13.646,12.885,17.724,33.053,10.083,50.313l-78.513,188.506
			c-1.133,2.72-3.263,4.813-6.001,5.907c-2.741,1.092-5.731,1.026-8.41-0.154l-67.543-29.887c-5.354-2.374-7.88-8.701-5.627-14.1
			l78.752-189.08c7.12-16.094,23.137-26.373,40.567-26.373c1.126,0,2.26,0.046,3.398,0.135c2.893,0.259,5.593-1.393,6.767-4.047
			l23.299-52.659l24.97,11.047L168.921,130.636z"/>
	</g>
</g>
<g>
	<g>
		<path d="M229.691,22.079c-0.652-1.686-1.949-3.053-3.603-3.78L188.633,1.725c-3.463-1.546-7.479,0.027-9.006,3.48l-22.1,49.947
			c-0.732,1.654-0.775,3.534-0.123,5.221c0.652,1.686,1.949,3.053,3.603,3.78l37.456,16.573c0.899,0.401,1.836,0.587,2.76,0.587
			c2.62,0,5.117-1.512,6.246-4.067l22.1-49.947C230.301,25.646,230.343,23.765,229.691,22.079z M197.746,65.481l-24.97-11.047
			l16.573-37.46l24.97,11.047L197.746,65.481z"/>
	</g>
</g>
<g>
	<g>
		<path d="M149.869,203.272l-49.944-22.093c-1.703-0.76-3.642-0.78-5.373-0.067c-1.727,0.713-3.082,2.099-3.756,3.84l-37.123,95.927
			c-1.318,3.401,0.27,7.235,3.603,8.707l49.94,22.1c0.879,0.394,1.819,0.587,2.763,0.587c0.886,0,1.773-0.172,2.609-0.521
			c1.727-0.713,3.082-2.099,3.756-3.84l37.127-95.933C154.789,208.578,153.202,204.745,149.869,203.272z M106.197,296.308
			l-37.441-16.567l32.191-83.18l37.443,16.56L106.197,296.308z"/>
	</g>
</g>
<g>
</g>
<g>
</g>
<g>
</g>
<g>
</g>
<g>
</g>
<g>
</g>
<g>
</g>
<g>
</g>
<g>
</g>
<g>
</g>
<g>
</g>
<g>
</g>
<g>
</g>
<g>
</g>
<g>
</g>
</svg>
