<?xml version="1.0" encoding="iso-8859-1"?>
<!-- Generator: Adobe Illustrator 19.0.0, SVG Export Plug-In . SVG Version: 6.00 Build 0)  -->
<svg version="1.1" id="Capa_1" xmlns="http://www.w3.org/2000/svg" xmlns:xlink="http://www.w3.org/1999/xlink" x="0px" y="0px"
	 viewBox="0 0 409.6 409.6" style="enable-background:new 0 0 409.6 409.6;" xml:space="preserve">
<g>
	<g>
		<g>
			<path d="M136.533,324.267h136.533c11.293,0,20.48-9.187,20.48-20.48s-9.187-20.48-20.48-20.48H136.533
				c-11.293,0-20.48,9.187-20.48,20.48S125.24,324.267,136.533,324.267z M136.533,296.96h136.533c3.767,0,6.827,3.06,6.827,6.827
				c0,3.767-3.06,6.827-6.827,6.827H136.533c-3.767,0-6.827-3.06-6.827-6.827C129.707,300.02,132.767,296.96,136.533,296.96z"/>
			<path d="M402.773,256H6.827C3.053,256,0,259.053,0,262.827v129.707c0,3.773,3.053,6.827,6.827,6.827h395.947
				c3.773,0,6.827-3.053,6.827-6.827V262.827C409.6,259.053,406.547,256,402.773,256z M395.947,385.707H13.653V269.653h382.293
				V385.707z"/>
		</g>
	</g>
</g>
<g>
	<g>
		<path d="M102.4,137.774V58.027c0-3.773-3.053-6.827-6.827-6.827H68.267c-3.773,0-6.827,3.053-6.827,6.827v79.747
			c-16.514,7.839-27.307,24.607-27.307,43.133v81.92c0,3.773,3.053,6.827,6.827,6.827h81.92c3.773,0,6.827-3.053,6.827-6.827v-81.92
			C129.707,162.381,118.914,145.615,102.4,137.774z M116.053,256H47.787v-75.093c0-14.406,9.146-27.32,22.76-32.145
			c2.727-0.968,4.547-3.541,4.547-6.434V64.853h13.653v77.472c0,2.895,1.819,5.468,4.547,6.434
			c13.614,4.826,22.76,17.741,22.76,32.147V256z"/>
	</g>
</g>
<g>
	<g>
		<path d="M95.573,10.24H68.267c-3.773,0-6.827,3.053-6.827,6.827v40.96c0,3.773,3.053,6.827,6.827,6.827h27.307
			c3.773,0,6.827-3.053,6.827-6.827v-40.96C102.4,13.293,99.347,10.24,95.573,10.24z M88.747,51.2H75.093V23.893h13.653V51.2z"/>
	</g>
</g>
<g>
	<g>
		<path d="M95.573,180.907H68.267c-3.773,0-6.827,3.053-6.827,6.827v75.093c0,3.773,3.053,6.827,6.827,6.827h27.307
			c3.773,0,6.827-3.053,6.827-6.827v-75.093C102.4,183.96,99.347,180.907,95.573,180.907z M88.747,256H75.093v-61.44h13.653V256z"/>
	</g>
</g>
<g>
	<g>
		<path d="M225.28,137.774V58.027c0-3.773-3.053-6.827-6.827-6.827h-27.307c-3.773,0-6.827,3.053-6.827,6.827v79.747
			c-16.514,7.839-27.307,24.607-27.307,43.133v81.92c0,3.773,3.053,6.827,6.827,6.827h81.92c3.773,0,6.827-3.053,6.827-6.827v-81.92
			C252.587,162.381,241.794,145.615,225.28,137.774z M238.933,256h-68.267v-75.093c0-14.406,9.146-27.32,22.76-32.145
			c2.727-0.968,4.547-3.541,4.547-6.434V64.853h13.653v77.472c0,2.895,1.819,5.468,4.547,6.434
			c13.614,4.826,22.76,17.741,22.76,32.147V256z"/>
	</g>
</g>
<g>
	<g>
		<path d="M218.453,10.24h-27.307c-3.773,0-6.827,3.053-6.827,6.827v40.96c0,3.773,3.053,6.827,6.827,6.827h27.307
			c3.773,0,6.827-3.053,6.827-6.827v-40.96C225.28,13.293,222.227,10.24,218.453,10.24z M211.627,51.2h-13.653V23.893h13.653V51.2z"
			/>
	</g>
</g>
<g>
	<g>
		<path d="M218.453,180.907h-27.307c-3.773,0-6.827,3.053-6.827,6.827v75.093c0,3.773,3.053,6.827,6.827,6.827h27.307
			c3.773,0,6.827-3.053,6.827-6.827v-75.093C225.28,183.96,222.227,180.907,218.453,180.907z M211.627,256h-13.653v-61.44h13.653
			V256z"/>
	</g>
</g>
<g>
	<g>
		<path d="M348.16,137.774V58.027c0-3.773-3.053-6.827-6.827-6.827h-27.307c-3.773,0-6.827,3.053-6.827,6.827v79.747
			c-16.514,7.839-27.307,24.607-27.307,43.133v81.92c0,3.773,3.053,6.827,6.827,6.827h81.92c3.773,0,6.827-3.053,6.827-6.827v-81.92
			C375.467,162.381,364.674,145.615,348.16,137.774z M361.813,256h-68.267v-75.093c0-14.406,9.146-27.32,22.76-32.145
			c2.727-0.968,4.547-3.541,4.547-6.434V64.853h13.653v77.472c0,2.895,1.819,5.468,4.547,6.434
			c13.614,4.826,22.76,17.741,22.76,32.147V256z"/>
	</g>
</g>
<g>
	<g>
		<path d="M341.333,10.24h-27.307c-3.773,0-6.827,3.053-6.827,6.827v40.96c0,3.773,3.053,6.827,6.827,6.827h27.307
			c3.773,0,6.827-3.053,6.827-6.827v-40.96C348.16,13.293,345.107,10.24,341.333,10.24z M334.507,51.2h-13.653V23.893h13.653V51.2z"
			/>
	</g>
</g>
<g>
	<g>
		<path d="M341.333,180.907h-27.307c-3.773,0-6.827,3.053-6.827,6.827v75.093c0,3.773,3.053,6.827,6.827,6.827h27.307
			c3.773,0,6.827-3.053,6.827-6.827v-75.093C348.16,183.96,345.107,180.907,341.333,180.907z M334.507,256h-13.653v-61.44h13.653
			V256z"/>
	</g>
</g>
<g>
	<g>
		<path d="M245.76,283.307h-81.92c-3.773,0-6.827,3.053-6.827,6.827v27.307c0,3.773,3.053,6.827,6.827,6.827h81.92
			c3.773,0,6.827-3.053,6.827-6.827v-27.307C252.587,286.36,249.533,283.307,245.76,283.307z M238.933,310.613h-68.267V296.96
			h68.267V310.613z"/>
	</g>
</g>
<g>
	<g>
		<path d="M218.453,283.307h-27.307c-3.773,0-6.827,3.053-6.827,6.827v27.307c0,3.773,3.053,6.827,6.827,6.827h27.307
			c3.773,0,6.827-3.053,6.827-6.827v-27.307C225.28,286.36,222.227,283.307,218.453,283.307z M211.627,310.613h-13.653V296.96
			h13.653V310.613z"/>
	</g>
</g>
<g>
</g>
<g>
</g>
<g>
</g>
<g>
</g>
<g>
</g>
<g>
</g>
<g>
</g>
<g>
</g>
<g>
</g>
<g>
</g>
<g>
</g>
<g>
</g>
<g>
</g>
<g>
</g>
<g>
</g>
</svg>
