<?xml version="1.0" encoding="iso-8859-1"?>
<!-- Generator: Adobe Illustrator 19.0.0, SVG Export Plug-In . SVG Version: 6.00 Build 0)  -->
<svg version="1.1" id="Capa_1" xmlns="http://www.w3.org/2000/svg" xmlns:xlink="http://www.w3.org/1999/xlink" x="0px" y="0px"
	 viewBox="0 0 412.66 412.66" style="enable-background:new 0 0 412.66 412.66;" xml:space="preserve">
<g>
	<g>
		<path d="M334.212,216.866c-1.287-1.386-3.101-2.179-5.001-2.179H83.452c-1.898,0-3.71,0.794-5.004,2.179
			c-1.29,1.394-1.944,3.261-1.804,5.154l13.653,184.32c0.263,3.56,3.232,6.32,6.806,6.32h218.453c3.574,0,6.547-2.76,6.81-6.32
			l13.653-184.32C336.159,220.126,335.506,218.258,334.212,216.866z M309.216,399.006H103.443L90.8,228.34h231.055L309.216,399.006z
			"/>
	</g>
</g>
<g>
	<g>
		<path d="M329.21,187.38H83.45c-11.293,0-20.48,9.187-20.48,20.48s9.187,20.48,20.48,20.48h245.76
			c11.293,0,20.48-9.187,20.48-20.48S340.503,187.38,329.21,187.38z M329.21,214.686H83.45c-3.763,0-6.827-3.06-6.827-6.827
			s3.063-6.827,6.827-6.827h245.76c3.767,0,6.827,3.06,6.827,6.827S332.976,214.686,329.21,214.686z"/>
	</g>
</g>
<g>
	<g>
		<path d="M290.608,39.072c-0.759-1.647-2.14-2.927-3.833-3.553l-25.607-9.487c-3.553-1.321-7.467,0.493-8.774,4.026l-21.593,58.24
			c-6.566-1.026-13.293-0.106-19.466,2.727c-8.286,3.801-14.594,10.607-17.76,19.154l-30.266,81.654
			c-0.776,2.094-0.48,4.441,0.797,6.274c1.277,1.833,3.369,2.927,5.603,2.927l87.366,0.007c2.854,0,5.407-1.78,6.398-4.453
			l19.714-53.187c3.168-8.547,2.819-17.821-0.986-26.107c-2.833-6.182-7.339-11.254-12.986-14.754l21.586-58.247
			C291.434,42.591,291.361,40.712,290.608,39.072z M254.277,103.558c-0.633,1.702-0.56,3.581,0.193,5.221
			c0.759,1.647,2.14,2.927,3.833,3.553c5.127,1.9,9.213,5.687,11.493,10.66c2.28,4.966,2.493,10.534,0.594,15.66l-18.067,48.734
			l-72.8-0.007l26.853-72.453c3.927-10.593,15.72-16.014,26.32-12.087c3.535,1.328,7.467-0.493,8.774-4.026l21.354-57.609
			l12.807,4.739L254.277,103.558z"/>
	</g>
</g>
<g>
	<g>
		<path d="M296.263,9.919l-25.6-9.492c-1.702-0.633-3.574-0.555-5.221,0.193c-1.647,0.759-2.927,2.133-3.553,3.833l-9.493,25.607
			c-0.633,1.702-0.56,3.574,0.193,5.221c0.759,1.647,2.14,2.927,3.833,3.553l25.607,9.487c0.787,0.294,1.587,0.427,2.374,0.427
			c2.773,0,5.379-1.7,6.398-4.454l9.487-25.6C301.603,15.158,299.796,11.226,296.263,9.919z M280.377,33.147l-12.807-4.739
			l4.746-12.807l12.8,4.746L280.377,33.147z"/>
	</g>
</g>
<g>
	<g>
		<path d="M246.437,144.339l-25.6-9.492c-1.695-0.626-3.581-0.555-5.221,0.193c-1.647,0.759-2.927,2.133-3.553,3.833l-19.633,52.966
			c-0.78,2.094-0.48,4.441,0.8,6.274c1.273,1.833,3.366,2.927,5.6,2.927l29.126-0.007c2.854,0,5.407-1.78,6.4-4.453l16.108-43.467
			C251.777,149.579,249.969,145.647,246.437,144.339z M223.204,187.381l-14.56,0.007l13.846-37.367l12.8,4.748L223.204,187.381z"/>
	</g>
</g>
<g>
	<g>
		<path d="M267.77,255.646c-3.773,0-6.827,3.053-6.827,6.827c0,30.114-24.499,54.613-54.613,54.613s-54.613-24.499-54.613-54.613
			c0-3.773-3.057-6.827-6.827-6.827s-6.827,3.053-6.827,6.827c0,37.641,30.623,68.267,68.267,68.267
			c37.641,0,68.267-30.626,68.267-68.267C274.597,258.7,271.543,255.646,267.77,255.646z"/>
	</g>
</g>
<g>
</g>
<g>
</g>
<g>
</g>
<g>
</g>
<g>
</g>
<g>
</g>
<g>
</g>
<g>
</g>
<g>
</g>
<g>
</g>
<g>
</g>
<g>
</g>
<g>
</g>
<g>
</g>
<g>
</g>
</svg>
