<?xml version="1.0" encoding="iso-8859-1"?>
<!-- Generator: Adobe Illustrator 19.0.0, SVG Export Plug-In . SVG Version: 6.00 Build 0)  -->
<svg version="1.1" id="Capa_1" xmlns="http://www.w3.org/2000/svg" xmlns:xlink="http://www.w3.org/1999/xlink" x="0px" y="0px"
	 viewBox="0 0 395.947 395.947" style="enable-background:new 0 0 395.947 395.947;" xml:space="preserve">
<g>
	<g>
		<path d="M389.12,17.067H6.827C3.053,17.067,0,20.12,0,23.893v286.72c0,3.773,3.053,6.827,6.827,6.827H158.56l33.5,58.027
			c1.22,2.113,3.473,3.413,5.914,3.413c2.441,0,4.693-1.3,5.914-3.413l33.5-58.027H389.12c3.773,0,6.827-3.053,6.827-6.827V23.893
			C395.947,20.12,392.893,17.067,389.12,17.067z M382.293,303.787H233.446c-2.441,0-4.693,1.3-5.914,3.413l-29.56,51.2l-29.559-51.2
			c-1.22-2.113-3.473-3.413-5.914-3.413H13.653V30.72h368.64V303.787z"/>
	</g>
</g>
<g>
	<g>
		<path d="M283.923,56.279c-0.734-3.06-3.466-5.226-6.613-5.24L118.849,50.4c-0.007,0-0.021,0-0.027,0
			c-3.147,0-5.886,2.147-6.634,5.207c-2.608,10.68-3.934,21.833-3.934,33.14c0,62.107,40.247,112.64,89.719,112.64
			c49.473,0,89.719-50.533,89.723-112.642C287.696,77.686,286.43,66.76,283.923,56.279z M197.973,187.733
			c-41.94,0-76.066-44.407-76.066-98.987c0-8.38,0.799-16.66,2.386-24.673l147.473,0.601c1.507,7.832,2.273,15.906,2.273,24.073
			C274.039,143.326,239.913,187.733,197.973,187.733z"/>
	</g>
</g>
<g>
	<g>
		<path d="M283.923,56.279c-0.734-3.06-3.466-5.226-6.613-5.24L118.849,50.4c-0.007,0-0.021,0-0.027,0
			c-3.147,0-5.886,2.147-6.634,5.207c-2.608,10.687-3.934,21.84-3.934,33.14c0,5.554,0.399,11.419,1.225,17.927
			c0.433,3.413,3.333,5.967,6.774,5.967h163.441c3.439,0,6.34-2.553,6.775-5.968c0.828-6.508,1.227-12.373,1.227-17.927
			C287.696,77.686,286.43,66.76,283.923,56.279z M273.567,98.987H122.38c-0.319-3.606-0.473-6.994-0.473-10.24
			c0-8.38,0.799-16.654,2.386-24.673l147.473,0.601c1.507,7.832,2.273,15.906,2.273,24.073
			C274.039,91.993,273.888,95.38,273.567,98.987z"/>
	</g>
</g>
<g>
	<g>
		<path d="M197.973,187.733c-3.773,0-6.827,3.053-6.827,6.827v88.747c0,3.773,3.053,6.827,6.827,6.827s6.827-3.053,6.827-6.827
			V194.56C204.8,190.787,201.747,187.733,197.973,187.733z"/>
	</g>
</g>
<g>
	<g>
		<path d="M225.28,276.48h-54.613c-3.773,0-6.827,3.053-6.827,6.827s3.053,6.827,6.827,6.827h54.613
			c3.773,0,6.827-3.053,6.827-6.827S229.053,276.48,225.28,276.48z"/>
	</g>
</g>
<g>
</g>
<g>
</g>
<g>
</g>
<g>
</g>
<g>
</g>
<g>
</g>
<g>
</g>
<g>
</g>
<g>
</g>
<g>
</g>
<g>
</g>
<g>
</g>
<g>
</g>
<g>
</g>
<g>
</g>
</svg>
