<?xml version="1.0" encoding="iso-8859-1"?>
<!-- Generator: Adobe Illustrator 19.0.0, SVG Export Plug-In . SVG Version: 6.00 Build 0)  -->
<svg version="1.1" id="Capa_1" xmlns="http://www.w3.org/2000/svg" xmlns:xlink="http://www.w3.org/1999/xlink" x="0px" y="0px"
	 viewBox="0 0 430.08 430.08" style="enable-background:new 0 0 430.08 430.08;" xml:space="preserve">
<g>
	<g>
		<path d="M215.04,375.467c-36.166,0-75.093,8.547-75.093,27.307s38.927,27.307,75.093,27.307s75.093-8.547,75.093-27.307
			S251.206,375.467,215.04,375.467z M215.04,416.427c-39.933,0-60.407-9.967-61.454-13.549c1.046-3.791,21.521-13.757,61.454-13.757
			s60.407,9.967,61.454,13.549C275.447,406.46,254.973,416.427,215.04,416.427z"/>
	</g>
</g>
<g>
	<g>
		<path d="M215.04,320.853c-3.773,0-6.827,3.057-6.827,6.827v75.093c0,3.77,3.053,6.827,6.827,6.827s6.827-3.057,6.827-6.827V327.68
			C221.867,323.91,218.813,320.853,215.04,320.853z"/>
	</g>
</g>
<g>
	<g>
		<path d="M139.947,27.307c-3.773,0-6.827,3.057-6.827,6.827v216.429c0,3.77,3.053,6.827,6.827,6.827s6.827-3.057,6.827-6.827
			V34.133C146.773,30.363,143.72,27.307,139.947,27.307z"/>
	</g>
</g>
<g>
	<g>
		<path d="M290.133,27.307c-3.773,0-6.827,3.057-6.827,6.827v216.943c0,3.77,3.053,6.827,6.827,6.827s6.827-3.057,6.827-6.827
			V34.133C296.96,30.363,293.907,27.307,290.133,27.307z"/>
	</g>
</g>
<g>
	<g>
		<path d="M283.307,244.25v15.23c0,33.84-27.566,61.373-61.454,61.373h-13.626c-33.888,0-61.454-27.576-61.454-61.471v-15.643
			H133.12v15.643c0,41.424,33.693,75.124,75.107,75.124h13.626c41.414,0,75.107-33.657,75.107-75.027v-15.23H283.307z"/>
	</g>
</g>
<g>
	<g>
		<path d="M215.04,0c-40.707,0-81.92,11.723-81.92,34.133c0,22.41,41.213,34.133,81.92,34.133c40.707,0,81.92-11.723,81.92-34.133
			C296.96,11.723,255.747,0,215.04,0z M215.04,54.613c-41.04,0-68.267-12.327-68.267-20.48c0-8.153,27.226-20.48,68.267-20.48
			s68.267,12.327,68.267,20.48C283.307,42.286,256.08,54.613,215.04,54.613z"/>
	</g>
</g>
<g>
	<g>
		<path d="M215.04,211.627c-40.707,0-81.92,11.723-81.92,34.133c0,22.41,41.213,34.133,81.92,34.133
			c40.707,0,81.92-11.723,81.92-34.133C296.96,223.35,255.747,211.627,215.04,211.627z M215.04,266.24
			c-41.04,0-68.267-12.327-68.267-20.48c0-8.153,27.226-20.48,68.267-20.48s68.267,12.327,68.267,20.48
			C283.307,253.913,256.08,266.24,215.04,266.24z"/>
	</g>
</g>
<g>
</g>
<g>
</g>
<g>
</g>
<g>
</g>
<g>
</g>
<g>
</g>
<g>
</g>
<g>
</g>
<g>
</g>
<g>
</g>
<g>
</g>
<g>
</g>
<g>
</g>
<g>
</g>
<g>
</g>
</svg>
