<?xml version="1.0" encoding="iso-8859-1"?>
<!-- Generator: Adobe Illustrator 19.0.0, SVG Export Plug-In . SVG Version: 6.00 Build 0)  -->
<svg version="1.1" id="Capa_1" xmlns="http://www.w3.org/2000/svg" xmlns:xlink="http://www.w3.org/1999/xlink" x="0px" y="0px"
	 viewBox="0 0 402.773 402.773" style="enable-background:new 0 0 402.773 402.773;" xml:space="preserve">
<g>
	<g>
		<path d="M395.947,98.987H6.827c-3.773,0-6.827,3.057-6.827,6.827c0,109.164,90.341,197.973,201.387,197.973
			s201.387-88.81,201.387-197.973C402.773,102.043,399.72,98.987,395.947,98.987z M201.387,290.133
			c-101.193,0-183.939-79.007-187.607-177.493h375.214C385.326,211.127,302.58,290.133,201.387,290.133z"/>
	</g>
</g>
<g>
	<g>
		<path d="M361.813,98.987H40.96c-3.773,0-6.827,3.057-6.827,6.827c0,90.341,75.027,163.84,167.253,163.84
			s167.253-73.499,167.253-163.84C368.64,102.043,365.587,98.987,361.813,98.987z M201.387,256
			c-82.354,0-149.78-63.706-153.446-143.36h306.893C351.167,192.293,283.74,256,201.387,256z"/>
	</g>
</g>
<g>
	<g>
		<g>
			<path d="M201.006,214.774c-3.773,0-6.827,3.057-6.827,6.827v13.653c0,3.77,3.053,6.827,6.827,6.827
				c3.773,0,6.827-3.057,6.827-6.827V221.6C207.833,217.83,204.779,214.774,201.006,214.774z"/>
			<path d="M156.633,202.883c-3.26-1.886-7.441-0.77-9.327,2.5l-6.827,11.824c-1.886,3.263-0.766,7.441,2.5,9.327
				c1.073,0.62,2.246,0.913,3.406,0.913c2.36,0,4.654-1.224,5.92-3.413l6.827-11.824
				C161.019,208.947,159.899,204.769,156.633,202.883z"/>
			<path d="M114.819,167.904l-11.82,6.827c-3.267,1.884-4.386,6.06-2.5,9.324c1.266,2.19,3.56,3.413,5.92,3.413
				c1.161,0,2.335-0.294,3.406-0.917l11.82-6.827c3.267-1.884,4.386-6.06,2.5-9.324
				C122.252,167.134,118.072,166.011,114.819,167.904z"/>
			<path d="M112.259,126.027c0-3.77-3.053-6.827-6.827-6.827H91.779c-3.773,0-6.827,3.057-6.827,6.827s3.053,6.827,6.827,6.827
				h13.653C109.206,132.854,112.259,129.797,112.259,126.027z"/>
			<path d="M254.706,205.384c-1.894-3.27-6.081-4.386-9.327-2.5c-3.267,1.888-4.386,6.064-2.5,9.327l6.827,11.824
				c1.266,2.19,3.56,3.413,5.92,3.413c1.161,0,2.333-0.294,3.407-0.913c3.267-1.888,4.386-6.064,2.5-9.327L254.706,205.384z"/>
			<path d="M310.233,119.2h-13.653c-3.773,0-6.827,3.057-6.827,6.827s3.053,6.827,6.827,6.827h13.653
				c3.773,0,6.827-3.057,6.827-6.827S314.006,119.2,310.233,119.2z"/>
			<path d="M299.013,174.727l-11.827-6.827c-3.26-1.889-7.441-0.766-9.327,2.5c-1.886,3.267-0.766,7.441,2.5,9.327l11.827,6.827
				c1.073,0.62,2.246,0.913,3.406,0.913c2.36,0,4.654-1.224,5.92-3.413C303.399,180.787,302.28,176.613,299.013,174.727z"/>
		</g>
	</g>
</g>
<g>
</g>
<g>
</g>
<g>
</g>
<g>
</g>
<g>
</g>
<g>
</g>
<g>
</g>
<g>
</g>
<g>
</g>
<g>
</g>
<g>
</g>
<g>
</g>
<g>
</g>
<g>
</g>
<g>
</g>
</svg>
