<?xml version="1.0" encoding="iso-8859-1"?>
<!-- Generator: Adobe Illustrator 19.0.0, SVG Export Plug-In . SVG Version: 6.00 Build 0)  -->
<svg version="1.1" id="Capa_1" xmlns="http://www.w3.org/2000/svg" xmlns:xlink="http://www.w3.org/1999/xlink" x="0px" y="0px"
	 viewBox="0 0 430.08 430.08" style="enable-background:new 0 0 430.08 430.08;" xml:space="preserve">
<g>
	<g>
		<path d="M356.498,84.02c-1.287-1.34-3.063-2.099-4.924-2.099H160.427c-1.86,0-3.637,0.761-4.924,2.099
			c-1.29,1.341-1.973,3.147-1.896,5.007l12.814,314.341c0.623,14.979,12.856,26.713,27.849,26.713h123.46
			c14.993,0,27.227-11.733,27.849-26.72l12.814-314.334C358.471,87.167,357.788,85.359,356.498,84.02z M331.941,402.794
			c-0.319,7.646-6.56,13.633-14.21,13.633h-123.46c-7.649,0-13.889-5.985-14.21-13.626L167.537,95.574h176.927L331.941,402.794z"/>
	</g>
</g>
<g>
	<g>
		<path d="M356.501,84.02c-1.287-1.34-3.067-2.099-4.927-2.099H160.427c-1.86,0-3.64,0.758-4.927,2.099s-1.969,3.154-1.893,5.014
			l4.267,102.4c0.15,3.654,3.159,6.54,6.82,6.54h182.613c3.661,0,6.67-2.886,6.82-6.54l4.267-102.4
			C358.471,87.174,357.788,85.359,356.501,84.02z M340.761,184.32h-169.52l-3.697-88.747h176.913L340.761,184.32z"/>
	</g>
</g>
<g>
	<g>
		<path d="M342.365,1.647c-2.857-2.459-7.171-2.127-9.627,0.741l-40.96,47.787c-0.853,0.993-1.403,2.212-1.58,3.519l-40.96,300.373
			c-0.51,3.734,2.106,7.173,5.84,7.687c0.314,0.039,0.623,0.06,0.934,0.06c3.36,0,6.287-2.48,6.755-5.907l40.69-298.38
			l39.649-46.259C345.558,8.407,345.229,4.102,342.365,1.647z"/>
	</g>
</g>
<g>
	<g>
		<path d="M160.427,0C111.49,0,71.681,39.814,71.681,88.747s39.81,88.747,88.747,88.747s88.747-39.813,88.747-88.747
			S209.364,0,160.427,0z M160.427,163.84c-41.407,0-75.093-33.686-75.093-75.093s33.686-75.093,75.093-75.093
			s75.093,33.686,75.093,75.093S201.835,163.84,160.427,163.84z"/>
	</g>
</g>
<g>
	<g>
		<path d="M160.427,6.827c-3.77,0-6.827,3.053-6.827,6.827V163.84c0,3.773,3.057,6.827,6.827,6.827s6.827-3.053,6.827-6.827V13.654
			C167.254,9.88,164.197,6.827,160.427,6.827z"/>
	</g>
</g>
<g>
	<g>
		<path d="M235.521,81.92H85.334c-3.77,0-6.827,3.053-6.827,6.827s3.057,6.827,6.827,6.827h150.187c3.77,0,6.827-3.053,6.827-6.827
			S239.291,81.92,235.521,81.92z"/>
	</g>
</g>
<g>
	<g>
		<path d="M218.355,137.022L112.154,30.821c-2.666-2.666-6.987-2.666-9.653,0s-2.666,6.987,0,9.653l106.201,106.201
			c1.333,1.333,3.081,2,4.826,2s3.492-0.667,4.826-2C221.021,144.009,221.021,139.688,218.355,137.022z"/>
	</g>
</g>
<g>
	<g>
		<path d="M218.355,30.821c-2.666-2.666-6.987-2.666-9.653,0L102.501,137.022c-2.666,2.666-2.666,6.987,0,9.653
			c1.333,1.333,3.081,2,4.826,2c1.746,0,3.494-0.667,4.826-2L218.355,40.474C221.021,37.808,221.021,33.487,218.355,30.821z"/>
	</g>
</g>
<g>
</g>
<g>
</g>
<g>
</g>
<g>
</g>
<g>
</g>
<g>
</g>
<g>
</g>
<g>
</g>
<g>
</g>
<g>
</g>
<g>
</g>
<g>
</g>
<g>
</g>
<g>
</g>
<g>
</g>
</svg>
