<?xml version="1.0" encoding="iso-8859-1"?>
<!-- Generator: Adobe Illustrator 19.0.0, SVG Export Plug-In . SVG Version: 6.00 Build 0)  -->
<svg version="1.1" id="Capa_1" xmlns="http://www.w3.org/2000/svg" xmlns:xlink="http://www.w3.org/1999/xlink" x="0px" y="0px"
	 viewBox="0 0 395.947 395.947" style="enable-background:new 0 0 395.947 395.947;" xml:space="preserve">
<g>
	<g>
		<path d="M47.787,129.707C21.437,129.707,0,151.146,0,177.493c0,22.026,14.92,41.107,36.28,46.394l3.28-13.254
			c-15.254-3.773-25.907-17.406-25.907-33.14c0-18.819,15.314-34.133,34.133-34.133c2.323,0,4.637,0.234,6.881,0.693l2.746-13.373
			C54.267,130.033,51.029,129.707,47.787,129.707z"/>
	</g>
</g>
<g>
	<g>
		<path d="M348.16,129.707c-3.026,0-6.067,0.287-9.033,0.853l2.567,13.413c2.123-0.406,4.297-0.613,6.467-0.613
			c18.819,0,34.133,15.314,34.133,34.133c0,15.7-10.624,29.32-25.83,33.12l3.308,13.247c21.299-5.32,36.176-24.387,36.176-46.367
			C395.947,151.146,374.509,129.707,348.16,129.707z"/>
	</g>
</g>
<g>
	<g>
		<path d="M197.973,61.44c-18.819,0-34.133,15.314-34.133,34.133h13.653c0-11.293,9.187-20.48,20.48-20.48s20.48,9.187,20.48,20.48
			h13.653C232.107,76.754,216.793,61.44,197.973,61.44z"/>
	</g>
</g>
<g>
	<g>
		<path d="M340.661,126.754l-1.857-3.874H57.144l-1.857,3.874c-0.864,1.799-21.154,44.566-21.154,88.286
			c0,43.72,20.291,86.487,21.152,88.286l1.857,3.874h281.661l1.855-3.874c0.864-1.799,21.154-44.566,21.154-88.286
			C361.813,171.32,341.523,128.553,340.661,126.754z M330.08,293.547H65.867c-4.823-11.24-18.08-45.167-18.08-78.507
			c0-33.34,13.257-67.267,18.08-78.507H330.08c4.823,11.24,18.08,45.167,18.08,78.507C348.16,248.38,334.903,282.307,330.08,293.547
			z"/>
	</g>
</g>
<g>
	<g>
		<path d="M334.507,293.547H61.44c-3.77,0-6.827,3.053-6.827,6.827v13.653c0,11.293,9.177,20.48,20.46,20.48h245.801
			c11.283,0,20.46-9.187,20.46-20.48v-13.653C341.333,296.6,338.277,293.547,334.507,293.547z M327.678,314.027
			c0,3.767-3.053,6.827-6.806,6.827H75.073c-3.816,0-6.806-3-6.806-6.827V307.2h259.412V314.027z"/>
	</g>
</g>
<g>
	<g>
		<path d="M317.426,88.747H78.52c-13.184,0-23.907,10.72-23.907,23.893v17.067c0,3.773,3.057,6.827,6.827,6.827h273.067
			c3.77,0,6.827-3.053,6.827-6.827V112.64C341.333,99.466,330.61,88.747,317.426,88.747z M327.68,122.88H68.267v-10.24
			c0-5.647,4.599-10.24,10.254-10.24h238.906c5.654,0,10.254,4.593,10.254,10.24V122.88z"/>
	</g>
</g>
<g>
</g>
<g>
</g>
<g>
</g>
<g>
</g>
<g>
</g>
<g>
</g>
<g>
</g>
<g>
</g>
<g>
</g>
<g>
</g>
<g>
</g>
<g>
</g>
<g>
</g>
<g>
</g>
<g>
</g>
</svg>
