<?xml version="1.0" encoding="iso-8859-1"?>
<!-- Generator: Adobe Illustrator 19.0.0, SVG Export Plug-In . SVG Version: 6.00 Build 0)  -->
<svg version="1.1" id="Capa_1" xmlns="http://www.w3.org/2000/svg" xmlns:xlink="http://www.w3.org/1999/xlink" x="0px" y="0px"
	 viewBox="0 0 395.947 395.947" style="enable-background:new 0 0 395.947 395.947;" xml:space="preserve">
<g>
	<g>
		<path d="M47.787,75.093C21.437,75.093,0,96.532,0,122.88c0,22.386,15.217,41.533,37.001,46.566l3.072-13.307
			c-15.556-3.586-26.419-17.266-26.419-33.26c0-18.819,15.314-34.133,34.133-34.133c2.883,0,5.736,0.353,8.484,1.06l3.386-13.227
			C55.806,75.593,51.813,75.093,47.787,75.093z"/>
	</g>
</g>
<g>
	<g>
		<path d="M348.16,75.093c-4,0-7.98,0.5-11.824,1.48L339.71,89.8c2.743-0.7,5.586-1.053,8.45-1.053
			c18.819,0,34.133,15.314,34.133,34.133c0,16.741-11.957,30.894-28.43,33.659l2.26,13.467
			c23.078-3.879,39.823-23.694,39.823-47.126C395.947,96.532,374.509,75.093,348.16,75.093z"/>
	</g>
</g>
<g>
	<g>
		<path d="M197.973,6.827c-18.819,0-34.133,15.314-34.133,34.133h13.653c0-11.293,9.187-20.48,20.48-20.48s20.48,9.187,20.48,20.48
			h13.653C232.107,22.141,216.793,6.827,197.973,6.827z"/>
	</g>
</g>
<g>
	<g>
		<path d="M340.659,72.141l-1.857-3.874H57.143l-1.855,3.874c-0.864,1.799-21.154,44.566-21.154,88.286
			c0,42.633,19.703,189.254,20.54,195.473l0.8,5.914h285l0.8-5.914c0.836-6.219,20.54-152.841,20.54-195.473
			C361.813,116.707,341.523,73.94,340.659,72.141z M328.526,348.16H67.42c-3.753-28.401-19.633-150.753-19.633-187.733
			c0-33.34,13.257-67.267,18.08-78.507H330.08c4.823,11.24,18.08,45.167,18.08,78.507
			C348.16,197.407,332.279,319.759,328.526,348.16z"/>
	</g>
</g>
<g>
	<g>
		<path d="M334.507,348.16H61.44c-3.77,0-6.827,3.053-6.827,6.827v13.653c0,11.293,9.177,20.48,20.46,20.48h245.801
			c11.283,0,20.46-9.187,20.46-20.48v-13.653C341.333,351.213,338.277,348.16,334.507,348.16z M327.678,368.64
			c0,3.767-3.053,6.827-6.806,6.827H75.073c-3.816,0-6.806-3-6.806-6.827v-6.827h259.412V368.64z"/>
	</g>
</g>
<g>
	<g>
		<path d="M317.426,34.133H78.52c-13.184,0-23.907,10.72-23.907,23.893v17.067c0,3.773,3.057,6.827,6.827,6.827h273.067
			c3.77,0,6.827-3.053,6.827-6.827V58.027C341.333,44.853,330.61,34.133,317.426,34.133z M327.68,68.267H68.267v-10.24
			c0-5.647,4.599-10.24,10.254-10.24h238.906c5.654,0,10.254,4.593,10.254,10.24V68.267z"/>
	</g>
</g>
<g>
</g>
<g>
</g>
<g>
</g>
<g>
</g>
<g>
</g>
<g>
</g>
<g>
</g>
<g>
</g>
<g>
</g>
<g>
</g>
<g>
</g>
<g>
</g>
<g>
</g>
<g>
</g>
<g>
</g>
</svg>
