<?xml version="1.0" encoding="iso-8859-1"?>
<!-- Generator: Adobe Illustrator 19.0.0, SVG Export Plug-In . SVG Version: 6.00 Build 0)  -->
<svg version="1.1" id="Capa_1" xmlns="http://www.w3.org/2000/svg" xmlns:xlink="http://www.w3.org/1999/xlink" x="0px" y="0px"
	 viewBox="0 0 416.427 416.427" style="enable-background:new 0 0 416.427 416.427;" xml:space="preserve">
<g>
	<g>
		<path d="M47.787,139.947C21.437,139.947,0,161.386,0,187.733c0,22.32,15.157,41.453,36.861,46.527l3.106-13.293
			c-15.493-3.627-26.313-17.287-26.313-33.234c0-18.819,15.314-34.133,34.133-34.133c1.913,0,3.826,0.16,5.69,0.474l2.266-13.467
			C53.134,140.167,50.456,139.947,47.787,139.947z"/>
	</g>
</g>
<g>
	<g>
		<path d="M409.6,133.12H197.977c-3.77,0-6.827,3.053-6.827,6.827s3.057,6.827,6.827,6.827h204.795v7.926l-188.57,33.28
			c-3.714,0.654-6.19,4.193-5.536,7.907c0.587,3.314,3.465,5.641,6.717,5.641c0.394,0,0.794-0.034,1.193-0.106l194.21-34.273
			c3.263-0.573,5.641-3.408,5.641-6.721v-20.48C416.427,136.173,413.37,133.12,409.6,133.12z"/>
	</g>
</g>
<g>
	<g>
		<path d="M129.707,71.68c-18.819,0-34.133,15.314-34.133,34.133h13.653c0-11.293,9.187-20.48,20.48-20.48
			c11.293,0,20.48,9.187,20.48,20.48h13.653C163.84,86.994,148.526,71.68,129.707,71.68z"/>
	</g>
</g>
<g>
	<g>
		<path d="M204.128,136.994l-1.857-3.874H57.144l-1.857,3.874c-0.864,1.799-21.154,44.566-21.154,88.286
			c0,43.72,20.291,86.487,21.152,88.286l1.857,3.874h145.128l1.855-3.874c0.864-1.799,21.154-44.566,21.154-88.286
			C225.28,181.56,204.989,138.793,204.128,136.994z M193.546,303.787H65.867c-4.823-11.24-18.08-45.167-18.08-78.507
			c0-33.34,13.257-67.267,18.08-78.507h127.679c4.823,11.24,18.08,45.167,18.08,78.507
			C211.627,258.62,198.369,292.547,193.546,303.787z"/>
	</g>
</g>
<g>
	<g>
		<path d="M197.973,303.787H61.44c-3.77,0-6.827,3.053-6.827,6.827v13.653c0,11.293,9.16,20.48,20.417,20.48h109.353
			c11.257,0,20.417-9.187,20.417-20.48v-13.653C204.8,306.84,201.743,303.787,197.973,303.787z M191.147,324.267
			c0,3.767-3.033,6.827-6.763,6.827H75.03c-3.794,0-6.763-3-6.763-6.827v-6.827h122.88V324.267z"/>
	</g>
</g>
<g>
	<g>
		<path d="M180.958,98.987H78.457c-13.146,0-23.844,10.72-23.844,23.893v17.067c0,3.773,3.057,6.827,6.827,6.827h136.533
			c3.77,0,6.827-3.053,6.827-6.827V122.88C204.8,109.706,194.103,98.987,180.958,98.987z M191.147,133.12H68.267v-10.24
			c0-5.647,4.57-10.24,10.19-10.24h102.499c5.62,0,10.19,4.593,10.19,10.24V133.12z"/>
	</g>
</g>
<g>
</g>
<g>
</g>
<g>
</g>
<g>
</g>
<g>
</g>
<g>
</g>
<g>
</g>
<g>
</g>
<g>
</g>
<g>
</g>
<g>
</g>
<g>
</g>
<g>
</g>
<g>
</g>
<g>
</g>
</svg>
