<?xml version="1.0" encoding="iso-8859-1"?>
<!-- Generator: Adobe Illustrator 19.0.0, SVG Export Plug-In . SVG Version: 6.00 Build 0)  -->
<svg version="1.1" id="Capa_1" xmlns="http://www.w3.org/2000/svg" xmlns:xlink="http://www.w3.org/1999/xlink" x="0px" y="0px"
	 viewBox="0 0 395.947 395.947" style="enable-background:new 0 0 395.947 395.947;" xml:space="preserve">
<g>
	<g>
		<path d="M47.787,88.747C21.437,88.747,0,110.186,0,136.533c0,21.233,14.244,40.127,34.64,45.954l3.746-13.135
			C23.823,165.2,13.653,151.7,13.653,136.533c0-18.819,15.314-34.133,34.133-34.133c2.323,0,4.637,0.234,6.881,0.693l2.746-13.373
			C54.267,89.073,51.029,88.747,47.787,88.747z"/>
	</g>
</g>
<g>
	<g>
		<path d="M348.16,88.747c-4,0-7.98,0.5-11.831,1.48l3.374,13.227c2.746-0.7,5.593-1.053,8.457-1.053
			c18.819,0,34.133,15.314,34.133,34.133c0,16.741-11.964,30.899-28.443,33.659l2.253,13.467
			c23.088-3.866,39.844-23.687,39.844-47.126C395.947,110.186,374.509,88.747,348.16,88.747z"/>
	</g>
</g>
<g>
	<g>
		<path d="M197.973,20.48c-18.819,0-34.133,15.314-34.133,34.133s15.314,34.133,34.133,34.133s34.133-15.314,34.133-34.133
			S216.793,20.48,197.973,20.48z M197.973,75.093c-11.293,0-20.48-9.187-20.48-20.48s9.187-20.48,20.48-20.48
			s20.48,9.187,20.48,20.48C218.453,65.906,209.266,75.093,197.973,75.093z"/>
	</g>
</g>
<g>
	<g>
		<path d="M340.659,85.794l-1.857-3.874H57.143l-1.855,3.874c-0.864,1.799-21.154,44.566-21.154,88.286
			c0,42.813,5.533,72.639,5.695,73.405c4.458,38.407,25.907,74.448,58.844,98.881l8.134-10.96
			c-29.92-22.2-49.391-54.82-53.487-89.967c-0.056-0.299-5.533-29.913-5.533-71.359c0-33.34,13.257-67.267,18.08-78.507H330.08
			c4.823,11.24,18.08,45.167,18.08,78.507c0,41.446-5.477,71.06-5.6,71.794c-4.215,34.686-23.699,67.287-53.453,89.446l8.153,10.947
			c32.736-24.381,54.187-60.366,58.786-98.301c0.234-1.248,5.767-31.073,5.767-73.887C361.813,130.36,341.523,87.593,340.659,85.794
			z"/>
	</g>
</g>
<g>
	<g>
		<path d="M293.547,334.507H102.4c-3.77,0-6.827,3.053-6.827,6.827v13.653c0,11.293,9.16,20.48,20.42,20.48h163.959
			c11.261,0,20.42-9.187,20.42-20.48v-13.653C300.373,337.56,297.317,334.507,293.547,334.507z M286.72,354.987
			c0,3.767-3.036,6.827-6.767,6.827H115.994c-3.794,0-6.767-3-6.767-6.827v-6.827H286.72V354.987z"/>
	</g>
</g>
<g>
	<g>
		<path d="M317.426,47.787H78.52c-13.184,0-23.907,10.72-23.907,23.893v17.067c0,3.773,3.057,6.827,6.827,6.827h273.067
			c3.77,0,6.827-3.053,6.827-6.827V71.68C341.333,58.506,330.61,47.787,317.426,47.787z M327.68,81.92H68.267V71.68
			c0-5.647,4.599-10.24,10.254-10.24h238.906c5.654,0,10.254,4.593,10.254,10.24V81.92z"/>
	</g>
</g>
<g>
</g>
<g>
</g>
<g>
</g>
<g>
</g>
<g>
</g>
<g>
</g>
<g>
</g>
<g>
</g>
<g>
</g>
<g>
</g>
<g>
</g>
<g>
</g>
<g>
</g>
<g>
</g>
<g>
</g>
</svg>
