<?xml version="1.0" encoding="iso-8859-1"?>
<!-- Generator: Adobe Illustrator 19.0.0, SVG Export Plug-In . SVG Version: 6.00 Build 0)  -->
<svg version="1.1" id="Capa_1" xmlns="http://www.w3.org/2000/svg" xmlns:xlink="http://www.w3.org/1999/xlink" x="0px" y="0px"
	 viewBox="0 0 423.253 423.253" style="enable-background:new 0 0 423.253 423.253;" xml:space="preserve">
<g>
	<g>
		<path d="M385.22,143.665c-1.56-3.43-5.6-4.963-9.04-3.4c-3.434,1.553-4.953,5.6-3.4,9.033
			c10.839,23.927,16.34,49.492,16.34,75.981c0,101.634-82.686,184.32-184.32,184.32S20.48,326.914,20.48,225.28
			S103.166,40.96,204.8,40.96c21.26,0,42.093,3.587,61.921,10.656c3.56,1.263,7.453-0.591,8.719-4.137
			c1.266-3.55-0.58-7.456-4.134-8.723c-21.308-7.596-43.68-11.45-66.507-11.45c-109.16,0-197.973,88.81-197.973,197.973
			S95.64,423.253,204.8,423.253s197.973-88.81,197.973-197.973C402.773,196.833,396.867,169.373,385.22,143.665z"/>
	</g>
</g>
<g>
	<g>
		<path d="M279.893,259.413v116.053c0,11.293,9.187,20.48,20.48,20.48c11.293,0,20.48-9.187,20.48-20.48V259.413H279.893z
			 M307.2,375.467c0,3.763-3.06,6.827-6.827,6.827c-3.767,0-6.827-3.063-6.827-6.827v-102.4H307.2V375.467z"/>
	</g>
</g>
<g>
	<g>
		<path d="M184.32,334.507v68.267c0,11.293,9.187,20.48,20.48,20.48s20.48-9.187,20.48-20.48v-68.267H184.32z M211.627,402.773
			c0,3.763-3.06,6.827-6.827,6.827s-6.827-3.063-6.827-6.827V348.16h13.653V402.773z"/>
	</g>
</g>
<g>
	<g>
		<path d="M218.453,122.88c-22.886,0-42.346,17.113-45.32,40.323l-9.286,177.773c-0.092,1.87,0.58,3.697,1.867,5.057
			c1.292,1.357,3.079,2.126,4.953,2.126h47.787c3.773,0,6.827-3.057,6.827-6.827V129.707
			C225.28,125.937,222.227,122.88,218.453,122.88z M211.627,334.507H177.86l8.866-170.073c1.748-13.59,11.96-24.323,24.9-27.163
			V334.507z"/>
	</g>
</g>
<g>
	<g>
		<path d="M300.373,163.84c-26.348,0-47.787,24.499-47.787,54.613s21.439,54.613,47.787,54.613
			c26.347,0,47.787-24.499,47.787-54.613S326.721,163.84,300.373,163.84z M300.373,259.413c-18.819,0-34.133-18.374-34.133-40.96
			s15.314-40.96,34.133-40.96c18.819,0,34.133,18.374,34.133,40.96S319.193,259.413,300.373,259.413z"/>
	</g>
</g>
<g>
	<g>
		<path d="M81.92,211.627V368.64c0,11.293,9.187,20.48,20.48,20.48c11.293,0,20.48-9.187,20.48-20.48V211.627H81.92z
			 M109.227,368.64c0,3.763-3.06,6.827-6.827,6.827c-3.767,0-6.827-3.063-6.827-6.827V225.28h13.653V368.64z"/>
	</g>
</g>
<g>
	<g>
		<path d="M129.707,116.053v68.267c0,15.056-12.247,27.307-27.307,27.307s-27.307-12.25-27.307-27.307v-68.267H61.44v68.267
			c0,22.586,18.374,40.96,40.96,40.96c22.586,0,40.96-18.374,40.96-40.96v-68.267H129.707z"/>
	</g>
</g>
<g>
	<g>
		<rect x="95.573" y="116.053" width="13.653" height="102.4"/>
	</g>
</g>
<g>
	<g>
		<path d="M334.507,0c-45.174,0-81.92,36.75-81.92,81.92s36.746,81.92,81.92,81.92s81.92-36.75,81.92-81.92S379.68,0,334.507,0z
			 M334.507,150.187c-37.641,0-68.267-30.623-68.267-68.267s30.626-68.267,68.267-68.267s68.267,30.623,68.267,68.267
			S372.147,150.187,334.507,150.187z"/>
	</g>
</g>
<g>
	<g>
		<path d="M375.467,75.093h-81.92c-3.773,0-6.827,3.057-6.827,6.827s3.053,6.827,6.827,6.827h81.92c3.773,0,6.827-3.057,6.827-6.827
			S379.24,75.093,375.467,75.093z"/>
	</g>
</g>
<g>
</g>
<g>
</g>
<g>
</g>
<g>
</g>
<g>
</g>
<g>
</g>
<g>
</g>
<g>
</g>
<g>
</g>
<g>
</g>
<g>
</g>
<g>
</g>
<g>
</g>
<g>
</g>
<g>
</g>
</svg>
