<?xml version="1.0" encoding="iso-8859-1"?>
<!-- Generator: Adobe Illustrator 19.0.0, SVG Export Plug-In . SVG Version: 6.00 Build 0)  -->
<svg version="1.1" id="Capa_1" xmlns="http://www.w3.org/2000/svg" xmlns:xlink="http://www.w3.org/1999/xlink" x="0px" y="0px"
	 viewBox="0 0 423.253 423.253" style="enable-background:new 0 0 423.253 423.253;" xml:space="preserve">
<g>
	<g>
		<path d="M386.894,139.921c-1.633-3.403-5.707-4.854-9.107-3.21c-3.4,1.626-4.84,5.704-3.214,9.103
			c11.919,24.902,17.959,51.639,17.959,79.466c0,101.634-82.686,184.32-184.32,184.32s-184.32-82.686-184.32-184.32
			S106.58,40.96,208.213,40.96c18.673,0,37.1,2.784,54.767,8.271c3.613,1.126,7.434-0.901,8.547-4.497
			c1.12-3.601-0.894-7.424-4.494-8.544c-18.987-5.893-38.774-8.883-58.82-8.883c-109.16,0-197.973,88.81-197.973,197.973
			s88.813,197.973,197.973,197.973s197.973-88.81,197.973-197.973C406.187,195.396,399.693,166.676,386.894,139.921z"/>
	</g>
</g>
<g>
	<g>
		<path d="M283.307,259.413v116.053c0,11.293,9.187,20.48,20.48,20.48c11.293,0,20.48-9.187,20.48-20.48V259.413H283.307z
			 M310.613,375.467c0,3.763-3.06,6.827-6.827,6.827c-3.767,0-6.827-3.063-6.827-6.827v-102.4h13.653V375.467z"/>
	</g>
</g>
<g>
	<g>
		<path d="M85.333,211.627V368.64c0,11.293,9.187,20.48,20.48,20.48c11.293,0,20.48-9.187,20.48-20.48V211.627H85.333z
			 M112.64,368.64c0,3.763-3.06,6.827-6.827,6.827c-3.767,0-6.827-3.063-6.827-6.827V225.28h13.653V368.64z"/>
	</g>
</g>
<g>
	<g>
		<path d="M187.733,334.507v68.267c0,11.293,9.187,20.48,20.48,20.48s20.48-9.187,20.48-20.48v-68.267H187.733z M215.04,402.773
			c0,3.763-3.06,6.827-6.827,6.827s-6.827-3.063-6.827-6.827V348.16h13.653V402.773z"/>
	</g>
</g>
<g>
	<g>
		<path d="M133.12,116.053v68.267c0,15.056-12.247,27.307-27.307,27.307c-15.06,0-27.307-12.25-27.307-27.307v-68.267H64.853v68.267
			c0,22.586,18.374,40.96,40.96,40.96c22.586,0,40.96-18.374,40.96-40.96v-68.267H133.12z"/>
	</g>
</g>
<g>
	<g>
		<rect x="98.987" y="116.053" width="13.653" height="102.4"/>
	</g>
</g>
<g>
	<g>
		<path d="M221.867,122.88c-22.886,0-42.346,17.113-45.321,40.323l-9.286,177.773c-0.092,1.87,0.58,3.697,1.867,5.057
			c1.292,1.357,3.079,2.126,4.953,2.126h47.787c3.773,0,6.827-3.057,6.827-6.827V129.707
			C228.693,125.937,225.64,122.88,221.867,122.88z M215.04,334.507h-33.766l8.866-170.073c1.748-13.59,11.96-24.323,24.9-27.163
			V334.507z"/>
	</g>
</g>
<g>
	<g>
		<path d="M303.787,163.84c-26.348,0-47.787,24.499-47.787,54.613s21.439,54.613,47.787,54.613
			c26.347,0,47.787-24.499,47.787-54.613S330.134,163.84,303.787,163.84z M303.787,259.413c-18.819,0-34.133-18.374-34.133-40.96
			s15.314-40.96,34.133-40.96c18.819,0,34.133,18.374,34.133,40.96S322.606,259.413,303.787,259.413z"/>
	</g>
</g>
<g>
	<g>
		<path d="M331.093,0c-45.174,0-81.92,36.75-81.92,81.92s36.746,81.92,81.92,81.92s81.92-36.75,81.92-81.92S376.267,0,331.093,0z
			 M331.093,150.187c-37.641,0-68.267-30.623-68.267-68.267s30.626-68.267,68.267-68.267S399.36,44.276,399.36,81.92
			S368.734,150.187,331.093,150.187z"/>
	</g>
</g>
<g>
	<g>
		<path d="M369.714,110.884l-67.587-67.581c-2.666-2.666-6.987-2.666-9.653,0c-2.666,2.666-2.666,6.987,0,9.653l67.587,67.581
			c1.333,1.333,3.081,2,4.826,2s3.494-0.667,4.826-2C372.379,117.871,372.379,113.55,369.714,110.884z"/>
	</g>
</g>
<g>
	<g>
		<path d="M369.714,43.303c-2.666-2.666-6.987-2.666-9.653,0l-67.587,67.581c-2.666,2.666-2.666,6.987,0,9.653
			c1.333,1.333,3.081,2,4.826,2c1.748,0,3.494-0.667,4.826-2l67.587-67.581C372.379,50.29,372.379,45.969,369.714,43.303z"/>
	</g>
</g>
<g>
</g>
<g>
</g>
<g>
</g>
<g>
</g>
<g>
</g>
<g>
</g>
<g>
</g>
<g>
</g>
<g>
</g>
<g>
</g>
<g>
</g>
<g>
</g>
<g>
</g>
<g>
</g>
<g>
</g>
</svg>
