<?xml version="1.0" encoding="iso-8859-1"?>
<!-- Generator: Adobe Illustrator 19.0.0, SVG Export Plug-In . SVG Version: 6.00 Build 0)  -->
<svg version="1.1" id="Capa_1" xmlns="http://www.w3.org/2000/svg" xmlns:xlink="http://www.w3.org/1999/xlink" x="0px" y="0px"
	 viewBox="0 0 395.947 395.947" style="enable-background:new 0 0 395.947 395.947;" xml:space="preserve">
<g>
	<g>
		<path d="M339.195,82.111l-8.494,10.694c33.273,26.414,51.593,63.164,51.593,103.477c0,84.047-77.52,145.05-184.32,145.05
			s-184.32-61.005-184.32-145.051c0-40.313,18.319-77.063,51.594-103.474l-8.494-10.694C20.154,111.169,0,151.716,0,196.282
			c0,91.96,83.26,158.703,197.973,158.703s197.973-66.744,197.973-158.705C395.947,151.714,375.793,111.167,339.195,82.111z"/>
	</g>
</g>
<g>
	<g>
		<path d="M357.402,85.236L233.056,41.349c-1.399-0.497-2.966-0.507-4.393-0.053c-0.108,0.032-10.641,3.319-34.447,3.319
			c-23.054,0-31.961-3.081-32.287-3.197c-1.481-0.57-3.108-0.606-4.588-0.119L34.828,81.53c-3.14,1.031-5.094,4.161-4.634,7.431
			c0.454,3.273,3.186,5.746,6.494,5.876l82.953,3.284l-15.933,42.349c-1.087,2.883-0.107,6.139,2.4,7.943
			c2.499,1.799,5.893,1.703,8.293-0.241l51.727-42.027l21.9,46.927c1.027,2.2,3.147,3.69,5.56,3.91
			c0.213,0.021,0.42,0.031,0.626,0.031c2.193,0,4.267-1.058,5.555-2.86l32.259-45.167l41.894,35.441
			c2.239,1.903,5.46,2.149,7.96,0.616c2.512-1.529,3.76-4.495,3.099-7.363l-9.047-39.18h79.195c3.326,0,6.166-2.396,6.726-5.673
			C362.421,89.546,360.535,86.342,357.402,85.236z M267.354,84.844c-2.08,0-4.047,0.951-5.34,2.577
			c-1.3,1.626-1.78,3.758-1.314,5.787l6.354,27.527l-31.867-26.96c-1.447-1.234-3.354-1.811-5.253-1.563
			c-1.894,0.237-3.601,1.254-4.707,2.807l-29.773,41.684L174.8,92.442c-0.886-1.906-2.606-3.297-4.659-3.767
			c-0.507-0.118-1.021-0.174-1.527-0.174c-1.553,0-3.074,0.531-4.308,1.527l-38.939,31.64l10.38-27.593
			c0.773-2.05,0.514-4.35-0.7-6.176c-1.207-1.826-3.227-2.959-5.42-3.046l-54.579-2.161l84.48-27.74
			c4.506,1.222,15.066,3.316,34.686,3.316c19.961,0,31.594-2.196,36.294-3.34l84.767,29.916H267.354z"/>
	</g>
</g>
<g>
	<g>
		<path d="M47.787,218.452H34.133c0,39.397,33.113,75.843,86.421,95.116l4.639-12.839C77.447,283.466,47.787,251.938,47.787,218.452
			z"/>
	</g>
</g>
<g>
</g>
<g>
</g>
<g>
</g>
<g>
</g>
<g>
</g>
<g>
</g>
<g>
</g>
<g>
</g>
<g>
</g>
<g>
</g>
<g>
</g>
<g>
</g>
<g>
</g>
<g>
</g>
<g>
</g>
</svg>
