<?xml version="1.0" encoding="iso-8859-1"?>
<!-- Generator: Adobe Illustrator 19.0.0, SVG Export Plug-In . SVG Version: 6.00 Build 0)  -->
<svg version="1.1" id="Capa_1" xmlns="http://www.w3.org/2000/svg" xmlns:xlink="http://www.w3.org/1999/xlink" x="0px" y="0px"
	 viewBox="0 0 389.12 389.12" style="enable-background:new 0 0 389.12 389.12;" xml:space="preserve">
<g>
	<g>
		<path d="M167.603,122.88h-72.03V48.507c0-4.161,3.386-7.547,7.55-7.547h65.027c3.77,0,6.827-3.053,6.827-6.827
			s-3.057-6.827-6.827-6.827h-65.027c-11.691,0-21.204,9.513-21.204,21.2v81.2c0,3.773,3.057,6.827,6.827,6.827h78.857
			c3.77,0,6.827-3.053,6.827-6.827S171.373,122.88,167.603,122.88z"/>
	</g>
</g>
<g>
	<g>
		<path d="M382.293,334.507H6.827c-3.77,0-6.827,3.053-6.827,6.827v27.307c0,3.773,3.057,6.827,6.827,6.827h375.467
			c3.77,0,6.827-3.053,6.827-6.827v-27.307C389.12,337.56,386.063,334.507,382.293,334.507z M375.467,361.813H13.653V348.16h361.813
			V361.813z"/>
	</g>
</g>
<g>
	<g>
		<path d="M298.692,122.88H90.426c-38.569,0-69.946,31.38-69.946,69.946v148.507c0,3.773,3.057,6.827,6.827,6.827h334.507
			c3.77,0,6.827-3.053,6.825-6.827V192.826C368.638,154.26,337.263,122.88,298.692,122.88z M354.987,334.507H34.133V192.826
			c0-31.039,25.254-56.293,56.293-56.293h208.268c31.039,0,56.293,25.254,56.293,56.293V334.507z"/>
	</g>
</g>
<g>
	<g>
		<path d="M129.707,157.013H102.4c-3.77,0-6.827,3.053-6.827,6.827v34.133c0,3.773,3.057,6.827,6.827,6.827s6.827-3.053,6.827-6.827
			v-27.307h13.653v27.307c0,3.773,3.057,6.827,6.827,6.827s6.827-3.053,6.827-6.827V163.84
			C136.533,160.067,133.477,157.013,129.707,157.013z"/>
	</g>
</g>
<g>
	<g>
		<path d="M129.707,214.46c-3.77,0-6.827,3.053-6.827,6.827V307.2h-13.653v-85.914c0-3.773-3.057-6.827-6.827-6.827
			s-6.827,3.053-6.827,6.827v92.74c0,3.773,3.057,6.827,6.827,6.827h27.307c3.77,0,6.827-3.053,6.827-6.827v-92.74
			C136.533,217.513,133.477,214.46,129.707,214.46z"/>
	</g>
</g>
<g>
	<g>
		<path d="M150.187,191.147H81.92c-3.77,0-6.827,3.053-6.827,6.827v20.48c0,3.773,3.057,6.827,6.827,6.827h68.267
			c3.77,0,6.827-3.053,6.827-6.827v-20.48C157.013,194.2,153.957,191.147,150.187,191.147z M143.36,211.627H88.747V204.8h54.613
			V211.627z"/>
	</g>
</g>
<g>
	<g>
		<path d="M299.65,13.653H185.044c-11.691,0-21.204,9.513-21.204,21.2v94.853c0,3.773,3.057,6.827,6.827,6.827h143.36
			c3.77,0,6.827-3.053,6.827-6.827V34.854C320.853,23.166,311.34,13.653,299.65,13.653z M307.2,122.88H177.493V34.854
			c0-4.161,3.388-7.547,7.55-7.547H299.65c4.164,0,7.55,3.386,7.55,7.547V122.88z"/>
	</g>
</g>
<g>
	<g>
		<g>
			<rect x="184.32" y="54.613" width="13.653" height="13.653"/>
			<rect x="204.8" y="88.747" width="13.653" height="13.653"/>
			<rect x="279.893" y="95.573" width="13.653" height="13.653"/>
			<rect x="211.627" y="40.96" width="13.653" height="13.653"/>
			<rect x="259.413" y="47.787" width="13.653" height="13.653"/>
			<rect x="245.76" y="75.093" width="13.653" height="13.653"/>
		</g>
	</g>
</g>
<g>
</g>
<g>
</g>
<g>
</g>
<g>
</g>
<g>
</g>
<g>
</g>
<g>
</g>
<g>
</g>
<g>
</g>
<g>
</g>
<g>
</g>
<g>
</g>
<g>
</g>
<g>
</g>
<g>
</g>
</svg>
