<?xml version="1.0" encoding="iso-8859-1"?>
<!-- Generator: Adobe Illustrator 19.0.0, SVG Export Plug-In . SVG Version: 6.00 Build 0)  -->
<svg version="1.1" id="Capa_1" xmlns="http://www.w3.org/2000/svg" xmlns:xlink="http://www.w3.org/1999/xlink" x="0px" y="0px"
	 viewBox="0 0 423.839 423.839" style="enable-background:new 0 0 423.839 423.839;" xml:space="preserve">
<g>
	<g>
		<path d="M354.84,187.292c-7.113-69.632-64.026-122.146-132.386-122.146c-68.364,0-125.276,52.514-132.386,122.151
			c-0.384,3.753,2.347,7.1,6.096,7.487c0.237,0.021,0.469,0.034,0.7,0.034c3.459,0,6.427-2.62,6.784-6.132
			c6.397-62.647,57.472-109.887,118.806-109.887c61.329,0,112.406,47.241,118.806,109.88c0.381,3.746,3.693,6.366,7.484,6.1
			C352.493,194.392,355.224,191.045,354.84,187.292z"/>
	</g>
</g>
<g>
	<g>
		<path d="M222.454,17.359c-16.94,0-30.72,13.78-30.72,30.72c0,16.94,13.78,30.72,30.72,30.72s30.72-13.78,30.72-30.72
			C253.174,31.139,239.394,17.359,222.454,17.359z M222.454,65.146c-9.411,0-17.067-7.653-17.067-17.067
			c0-9.414,7.656-17.067,17.067-17.067c9.411,0,17.067,7.653,17.067,17.067C239.521,57.493,231.864,65.146,222.454,65.146z"/>
	</g>
</g>
<g>
	<g>
		<path d="M374.346,196.559c-4.13,0-8.236,0.514-12.203,1.514c-3.657,0.927-5.868,4.639-4.941,8.299
			c0.923,3.647,4.642,5.84,8.293,4.941c2.874-0.734,5.85-1.101,8.851-1.101c19.763,0,35.84,16.08,35.84,35.84
			c0,16.599-11.25,30.927-27.356,34.833c-3.662,0.886-5.912,4.579-5.023,8.24c0.758,3.127,3.55,5.221,6.627,5.221
			c0.534,0,1.077-0.06,1.614-0.193c22.252-5.395,37.791-25.173,37.791-48.101C423.839,218.76,401.635,196.559,374.346,196.559z"/>
	</g>
</g>
<g>
	<g>
		<path d="M81.036,211.966l-35.593-35.593c-1.263-1.266-2.97-1.98-4.756-2l-33.79-0.341c-0.024,0-0.046,0-0.07,0
			c-2.451,0-4.717,1.314-5.931,3.448c-1.225,2.154-1.193,4.801,0.09,6.914l53.364,88.107c1.283,2.12,3.536,3.294,5.847,3.294
			c1.203,0,2.423-0.321,3.529-0.988c3.224-1.952,4.258-6.153,2.304-9.373l-47.014-77.626l18.743,0.193l33.623,33.62
			c2.666,2.666,6.987,2.666,9.653,0C83.702,218.953,83.702,214.631,81.036,211.966z"/>
	</g>
</g>
<g>
	<g>
		<path d="M353.063,183.812c-1.292-1.654-3.272-2.613-5.369-2.613H97.214c-2.096,0-4.077,0.959-5.369,2.613
			c-23.631,30.1-36.644,67.961-36.644,106.614c0,42.034,15.109,82.42,42.542,113.727c1.297,1.48,3.168,2.326,5.134,2.326H342.03
			c1.968,0,3.837-0.846,5.134-2.326c27.433-31.307,42.544-71.694,42.544-113.727C389.707,251.772,376.694,213.913,353.063,183.812z
			 M338.896,392.826H106.01c-23.982-28.474-37.156-64.713-37.156-102.4c0-35.014,10.957-67.98,31.724-95.573h243.751
			c20.767,27.593,31.724,60.559,31.724,95.573C376.052,328.113,362.88,364.352,338.896,392.826z"/>
	</g>
</g>
<g>
	<g>
		<path d="M339.357,250.959l-34.133-27.307c-2.493-1.987-6.033-1.987-8.526,0l-34.133,27.307c-1.62,1.3-2.563,3.26-2.563,5.333
			v81.92c0,3.773,3.057,6.827,6.827,6.827h68.267c3.77,0,6.827-3.053,6.827-6.827v-81.92
			C341.921,254.219,340.977,252.26,339.357,250.959z M328.267,331.386h-54.613v-71.813l27.307-21.847l27.307,21.847V331.386z"/>
	</g>
</g>
<g>
	<g>
		<path d="M300.961,188.026c-3.77,0-6.827,3.053-6.827,6.827v34.133c0,3.773,3.057,6.827,6.827,6.827s6.827-3.053,6.827-6.827
			v-34.133C307.787,191.079,304.731,188.026,300.961,188.026z"/>
	</g>
</g>
<g>
</g>
<g>
</g>
<g>
</g>
<g>
</g>
<g>
</g>
<g>
</g>
<g>
</g>
<g>
</g>
<g>
</g>
<g>
</g>
<g>
</g>
<g>
</g>
<g>
</g>
<g>
</g>
<g>
</g>
</svg>
