<?xml version="1.0" encoding="iso-8859-1"?>
<!-- Generator: Adobe Illustrator 19.0.0, SVG Export Plug-In . SVG Version: 6.00 Build 0)  -->
<svg version="1.1" id="Capa_1" xmlns="http://www.w3.org/2000/svg" xmlns:xlink="http://www.w3.org/1999/xlink" x="0px" y="0px"
	 viewBox="0 0 402.771 402.771" style="enable-background:new 0 0 402.771 402.771;" xml:space="preserve">
<g>
	<g>
		<path d="M375.466,361.811H40.959c-3.773,0-6.827,3.057-6.827,6.827v27.307c0,3.77,3.053,6.827,6.827,6.827h334.507
			c3.773,0,6.827-3.057,6.827-6.827v-27.307C382.292,364.868,379.239,361.811,375.466,361.811z M368.639,389.118H47.786v-13.653
			h320.853V389.118z"/>
	</g>
</g>
<g>
	<g>
		<path d="M327.679,150.184H95.572c-3.773,0-6.827,3.057-6.827,6.827v105.813c0,62.111,50.533,112.64,112.64,112.64h20.48
			c62.107,0,112.64-50.529,112.64-112.64V157.011C334.505,153.241,331.452,150.184,327.679,150.184z M320.852,262.824
			c0,54.579-44.407,98.987-98.987,98.987h-20.48c-54.579,0-98.987-44.408-98.987-98.987v-98.987v0h218.453V262.824z"/>
	</g>
</g>
<g>
	<g>
		<path d="M95.572,150.184H27.305c-3.773,0-6.827,3.057-6.827,6.827v20.48c0,41.407,33.686,75.093,75.093,75.093
			c3.773,0,6.827-3.057,6.827-6.827v-88.747C102.399,153.241,99.346,150.184,95.572,150.184z M88.745,238.554
			c-30.681-3.406-54.613-29.493-54.613-61.063v-13.653v0h54.613V238.554z"/>
	</g>
</g>
<g>
	<g>
		<path d="M175.999,63.999c-5.76-7.2-7.9-14.199-6.54-21.4c3.232-17.096,24.866-29.73,25.079-29.856
			c3.267-1.877,4.4-6.047,2.526-9.313c-1.886-3.277-6.054-4.39-9.306-2.533c-1.113,0.633-27.261,15.817-31.706,39.107
			c-2.133,11.211,0.988,22.154,9.281,32.524c24.593,30.739,19.413,54.572,19.193,55.52c-0.92,3.661,1.306,7.368,4.966,8.281
			c0.555,0.14,1.115,0.203,1.661,0.203c3.06,0,5.84-2.07,6.613-5.171C198.08,130.109,205.079,100.353,175.999,63.999z"/>
	</g>
</g>
<g>
	<g>
		<path d="M230.612,63.999c-5.76-7.2-7.9-14.199-6.54-21.4c3.232-17.096,24.866-29.73,25.079-29.856
			c3.267-1.877,4.4-6.047,2.526-9.313c-1.879-3.277-6.06-4.39-9.306-2.533c-1.113,0.633-27.261,15.817-31.706,39.107
			c-2.133,11.211,0.988,22.154,9.281,32.524c24.593,30.739,19.413,54.572,19.193,55.52c-0.92,3.661,1.306,7.368,4.966,8.281
			c0.555,0.14,1.115,0.203,1.661,0.203c3.06,0,5.84-2.07,6.613-5.171C252.693,130.109,259.692,100.353,230.612,63.999z"/>
	</g>
</g>
<g>
	<g>
		<path d="M211.626,341.331c-48.934,0-88.747-39.81-88.747-88.747c0-3.77-3.053-6.827-6.827-6.827s-6.827,3.057-6.827,6.827
			c0,56.463,45.933,102.4,102.4,102.4c3.773,0,6.827-3.057,6.827-6.827S215.399,341.331,211.626,341.331z"/>
	</g>
</g>
<g>
	<g>
		<path d="M252.586,150.184c-3.773,0-6.827,3.057-6.827,6.827v61.44c0,3.77,3.053,6.827,6.827,6.827
			c3.773,0,6.827-3.057,6.827-6.827v-61.44C259.412,153.241,256.359,150.184,252.586,150.184z"/>
	</g>
</g>
<g>
	<g>
		<path d="M286.719,211.624h-68.267c-3.773,0-6.827,3.057-6.827,6.827v95.573c0,3.77,3.053,6.827,6.827,6.827h68.267
			c3.773,0,6.827-3.057,6.827-6.827v-95.573C293.546,214.681,290.492,211.624,286.719,211.624z M279.892,307.198h-54.613v-81.92
			h54.613V307.198z"/>
	</g>
</g>
<g>
</g>
<g>
</g>
<g>
</g>
<g>
</g>
<g>
</g>
<g>
</g>
<g>
</g>
<g>
</g>
<g>
</g>
<g>
</g>
<g>
</g>
<g>
</g>
<g>
</g>
<g>
</g>
<g>
</g>
</svg>
