<?xml version="1.0" encoding="iso-8859-1"?>
<!-- Generator: Adobe Illustrator 19.0.0, SVG Export Plug-In . SVG Version: 6.00 Build 0)  -->
<svg version="1.1" id="Capa_1" xmlns="http://www.w3.org/2000/svg" xmlns:xlink="http://www.w3.org/1999/xlink" x="0px" y="0px"
	 viewBox="0 0 408.793 408.793" style="enable-background:new 0 0 408.793 408.793;" xml:space="preserve">
<g>
	<g>
		<g>
			<path d="M222.618,130.547l-47.787-40.96c-1.237-1.067-2.814-1.647-4.444-1.647h-102.4c-1.809,0-3.546,0.72-4.826,2L22.2,130.9
				c-1.28,1.28-2,3.014-2,4.826V374.66c0,3.773,3.057,6.827,6.827,6.827h191.147c3.77,0,6.827-3.053,6.827-6.827V135.726
				C225,133.733,224.131,131.84,222.618,130.547z M211.347,367.833H33.853v-229.28l36.96-36.96h97.048l43.486,37.274V367.833z"/>
			<path d="M122.6,108.42c-15.056,0-27.307,12.247-27.307,27.307s12.25,27.307,27.307,27.307s27.307-12.247,27.307-27.307
				S137.656,108.42,122.6,108.42z M122.6,149.38c-7.53,0-13.653-6.127-13.653-13.653s6.123-13.653,13.653-13.653
				s13.653,6.127,13.653,13.653S130.13,149.38,122.6,149.38z"/>
		</g>
	</g>
</g>
<g>
	<g>
		<path d="M327.555,159.988c-17.993-20.907-32.256-55.726-41.25-100.693c-4.197-20.98-23.11-42.02-47.063-52.36
			c-26.01-11.227-54.176-8.76-79.3,6.953c-57.813,36.134-44.667,119.434-44.076,122.96c0.625,3.721,4.127,6.187,7.851,5.613
			c3.717-0.621,6.229-4.134,5.617-7.847c-0.126-0.78-12.196-77.874,37.844-109.153c21.221-13.254,44.897-15.38,66.657-5.994
			c19.709,8.506,35.782,25.986,39.086,42.506c9.586,47.939,24.486,83.913,44.29,106.919c1.35,1.567,3.256,2.374,5.176,2.374
			c1.577,0,3.161-0.546,4.449-1.65C329.692,167.155,330.015,162.849,327.555,159.988z"/>
	</g>
</g>
<g>
	<g>
		<path d="M387.678,209.657l-20.48-35.473c-9.409-16.299-30.319-21.893-46.626-12.493c-7.897,4.56-13.542,11.921-15.903,20.727
			c-2.36,8.806-1.15,18.007,3.41,25.9l20.48,35.473c0.908,1.567,2.398,2.714,4.147,3.18c0.58,0.154,1.172,0.234,1.766,0.234
			c1.188,0,2.367-0.312,3.412-0.915l47.293-27.307C388.444,217.097,389.562,212.924,387.678,209.657z M336.973,231.05l-17.07-29.56
			c-2.732-4.739-3.459-10.252-2.046-15.539c1.417-5.28,4.808-9.699,9.544-12.433c3.215-1.859,6.733-2.739,10.206-2.739
			c7.084,0,13.981,3.673,17.766,10.231l17.067,29.559L336.973,231.05z"/>
	</g>
</g>
<g>
	<g>
		<path d="M218.173,367.833H27.027c-3.77,0-6.827,3.053-6.827,6.827v27.307c0,3.773,3.057,6.827,6.827,6.827h191.147
			c3.77,0,6.827-3.053,6.827-6.827V374.66C225,370.886,221.943,367.833,218.173,367.833z M211.347,395.14H33.853h0v-13.653h177.493
			V395.14z"/>
	</g>
</g>
<g>
</g>
<g>
</g>
<g>
</g>
<g>
</g>
<g>
</g>
<g>
</g>
<g>
</g>
<g>
</g>
<g>
</g>
<g>
</g>
<g>
</g>
<g>
</g>
<g>
</g>
<g>
</g>
<g>
</g>
</svg>
