<?xml version="1.0" encoding="iso-8859-1"?>
<!-- Generator: Adobe Illustrator 19.0.0, SVG Export Plug-In . SVG Version: 6.00 Build 0)  -->
<svg version="1.1" id="Capa_1" xmlns="http://www.w3.org/2000/svg" xmlns:xlink="http://www.w3.org/1999/xlink" x="0px" y="0px"
	 viewBox="0 0 436.907 436.907" style="enable-background:new 0 0 436.907 436.907;" xml:space="preserve">
<g>
	<g>
		<path d="M430.08,195.413H6.827c-3.773,0-6.827,3.053-6.827,6.827v34.133c0,3.773,3.053,6.827,6.827,6.827H430.08
			c3.773,0,6.827-3.053,6.827-6.827V202.24C436.907,198.467,433.853,195.413,430.08,195.413z M423.253,229.547h-409.6v-20.48h409.6
			V229.547z"/>
	</g>
</g>
<g>
	<g>
		<path d="M170.667,168.107H40.96c-3.773,0-6.827,3.053-6.827,6.827s3.053,6.827,6.827,6.827h129.707
			c3.773,0,6.827-3.053,6.827-6.827S174.44,168.107,170.667,168.107z"/>
	</g>
</g>
<g>
	<g>
		<path d="M150.187,168.107h-81.92c-3.773,0-6.827,3.053-6.827,6.827v27.307c0,3.773,3.053,6.827,6.827,6.827h81.92
			c3.773,0,6.827-3.053,6.827-6.827v-27.307C157.013,171.16,153.96,168.107,150.187,168.107z M143.36,195.413H75.093V181.76h68.267
			V195.413z"/>
	</g>
</g>
<g>
	<g>
		<path d="M395.947,58.88H238.933c-3.773,0-6.827,3.053-6.827,6.827v101.427c0,23.12,18.813,41.933,41.933,41.933h86.801
			c23.12,0,41.933-18.813,41.933-41.933V65.707C402.773,61.933,399.72,58.88,395.947,58.88z M389.118,167.134
			c0,15.592-12.686,28.279-28.279,28.279H274.04c-15.592,0-28.279-12.686-28.279-28.279V72.533h143.358V167.134z"/>
	</g>
</g>
<g>
	<g>
		<path d="M416.427,58.88H218.453c-3.773,0-6.827,3.053-6.827,6.827s3.053,6.827,6.827,6.827h197.973
			c3.773,0,6.827-3.053,6.827-6.827S420.2,58.88,416.427,58.88z"/>
	</g>
</g>
<g>
	<g>
		<path d="M317.44,9.387c-28.233,0-51.2,22.967-51.2,51.2c0,3.773,3.053,6.827,6.827,6.827s6.827-3.053,6.827-6.827
			c0-20.7,16.846-37.547,37.547-37.547c20.7,0,37.547,16.846,37.547,37.547c0,3.773,3.053,6.827,6.827,6.827
			s6.827-3.053,6.827-6.827C368.64,32.353,345.673,9.387,317.44,9.387z"/>
	</g>
</g>
<g>
	<g>
		<path d="M402.773,229.548H34.133c-3.773,0-6.827,3.053-6.827,6.827v143.36c0,2.074,0.94,4.033,2.56,5.333
			c1.626,1.292,3.727,1.792,5.767,1.326l64.727-14.56c16.234-3.659,33.401-3.686,49.661-0.133l41.713,9.153
			c17.686,3.893,35.668,3.992,53.42,0.326l47.14-9.754c16.379-3.393,33.64-3.113,49.9,0.787l58.986,14.16
			c0.527,0.126,1.062,0.186,1.594,0.186c1.521,0,3.014-0.507,4.227-1.464c1.64-1.294,2.599-3.267,2.599-5.361v-143.36
			C409.6,232.602,406.547,229.548,402.773,229.548z M395.947,371.074l-50.567-12.141c-18.214-4.367-37.535-4.668-55.847-0.881
			l-47.14,9.754c-15.86,3.28-31.913,3.193-47.734-0.287l-41.713-9.153c-18.2-4-37.426-3.953-55.586,0.147L40.96,371.2v-128h354.987
			V371.074z"/>
	</g>
</g>
<g>
	<g>
		<path d="M81.92,366.08c-3.773,0-6.827,3.053-6.827,6.827v47.787c0,3.773,3.053,6.827,6.827,6.827s6.827-3.053,6.827-6.827v-47.787
			C88.747,369.133,85.693,366.08,81.92,366.08z"/>
	</g>
</g>
<g>
	<g>
		<path d="M348.16,366.08c-3.773,0-6.827,3.053-6.827,6.827v47.787c0,3.773,3.053,6.827,6.827,6.827s6.827-3.053,6.827-6.827
			v-47.787C354.987,369.133,351.933,366.08,348.16,366.08z"/>
	</g>
</g>
<g>
</g>
<g>
</g>
<g>
</g>
<g>
</g>
<g>
</g>
<g>
</g>
<g>
</g>
<g>
</g>
<g>
</g>
<g>
</g>
<g>
</g>
<g>
</g>
<g>
</g>
<g>
</g>
<g>
</g>
</svg>
