<?xml version="1.0" encoding="iso-8859-1"?>
<!-- Generator: Adobe Illustrator 19.0.0, SVG Export Plug-In . SVG Version: 6.00 Build 0)  -->
<svg version="1.1" id="Capa_1" xmlns="http://www.w3.org/2000/svg" xmlns:xlink="http://www.w3.org/1999/xlink" x="0px" y="0px"
	 viewBox="0 0 436.907 436.907" style="enable-background:new 0 0 436.907 436.907;" xml:space="preserve">
<g>
	<g>
		<path d="M430.08,191.147H6.827C3.053,191.147,0,194.2,0,197.973v34.133c0,3.773,3.053,6.827,6.827,6.827H430.08
			c3.773,0,6.827-3.053,6.827-6.827v-34.133C436.907,194.2,433.853,191.147,430.08,191.147z M423.253,225.28h-409.6V204.8h409.6
			V225.28z"/>
	</g>
</g>
<g>
	<g>
		<path d="M402.773,225.282H34.133c-3.773,0-6.827,3.053-6.827,6.827v143.36c0,2.074,0.94,4.033,2.56,5.333
			c1.626,1.292,3.734,1.787,5.767,1.326l64.727-14.56c16.241-3.659,33.408-3.693,49.661-0.133l41.713,9.153
			c17.686,3.886,35.668,3.987,53.42,0.326l47.14-9.754c16.379-3.393,33.64-3.113,49.9,0.787l58.986,14.16
			c0.527,0.126,1.062,0.186,1.594,0.186c1.521,0,3.014-0.507,4.227-1.464c1.64-1.294,2.599-3.267,2.599-5.361v-143.36
			C409.6,228.335,406.547,225.282,402.773,225.282z M395.947,366.807l-50.567-12.141c-18.214-4.367-37.535-4.668-55.847-0.881
			l-47.14,9.754c-15.86,3.28-31.913,3.193-47.734-0.287l-41.713-9.153c-18.2-3.994-37.426-3.953-55.586,0.147l-56.4,12.687v-128
			h354.987V366.807z"/>
	</g>
</g>
<g>
	<g>
		<path d="M81.92,361.813c-3.773,0-6.827,3.053-6.827,6.827v47.787c0,3.773,3.053,6.827,6.827,6.827s6.827-3.053,6.827-6.827V368.64
			C88.747,364.867,85.693,361.813,81.92,361.813z"/>
	</g>
</g>
<g>
	<g>
		<path d="M348.16,361.813c-3.773,0-6.827,3.053-6.827,6.827v47.787c0,3.773,3.053,6.827,6.827,6.827s6.827-3.053,6.827-6.827
			V368.64C354.987,364.867,351.933,361.813,348.16,361.813z"/>
	</g>
</g>
<g>
	<g>
		<path d="M218.453,54.613c-18.819,0-34.133,15.314-34.133,34.133v109.227c0,3.773,3.053,6.827,6.827,6.827h54.613
			c3.773,0,6.827-3.053,6.827-6.827V88.747C252.587,69.927,237.273,54.613,218.453,54.613z M238.933,191.147h-40.96v-102.4
			c0-11.293,9.187-20.48,20.48-20.48s20.48,9.187,20.48,20.48V191.147z"/>
	</g>
</g>
<g>
	<g>
		<path d="M232.107,13.653H204.8c-3.773,0-6.827,3.053-6.827,6.827v40.96c0,3.773,3.053,6.827,6.827,6.827h27.307
			c3.773,0,6.827-3.053,6.827-6.827V20.48C238.933,16.707,235.88,13.653,232.107,13.653z M225.28,54.613h-13.653V27.307h13.653
			V54.613z"/>
	</g>
</g>
<g>
	<g>
		<path d="M141.986,64.154c-1.292-1.707-3.313-2.714-5.453-2.714H68.267c-2.14,0-4.161,1.007-5.455,2.714
			c-1.287,1.714-1.7,3.927-1.113,5.987l13.653,47.787c0.841,2.932,3.521,4.953,6.567,4.953h40.96c3.046,0,5.726-2.021,6.565-4.953
			l13.653-47.787C143.686,68.081,143.273,65.867,141.986,64.154z M117.734,109.227H87.067l-9.747-34.133h50.161L117.734,109.227z"/>
	</g>
</g>
<g>
	<g>
		<path d="M102.4,116.053c-3.773,0-6.827,3.053-6.827,6.827v61.44c0,3.773,3.053,6.827,6.827,6.827s6.827-3.053,6.827-6.827v-61.44
			C109.227,119.107,106.173,116.053,102.4,116.053z"/>
	</g>
</g>
<g>
	<g>
		<path d="M122.88,177.493H81.92c-3.773,0-6.827,3.053-6.827,6.827s3.053,6.827,6.827,6.827h40.96c3.773,0,6.827-3.053,6.827-6.827
			S126.653,177.493,122.88,177.493z"/>
	</g>
</g>
<g>
	<g>
		<path d="M374.091,64.154c-1.292-1.707-3.313-2.714-5.453-2.714h-68.267c-2.14,0-4.159,1.007-5.453,2.714
			c-1.287,1.714-1.7,3.927-1.113,5.987l13.653,47.787c0.841,2.932,3.521,4.953,6.567,4.953h40.96c3.046,0,5.726-2.021,6.564-4.953
			l13.653-47.787C375.791,68.081,375.378,65.867,374.091,64.154z M349.841,109.227h-30.667l-9.747-34.133h50.161L349.841,109.227z"
			/>
	</g>
</g>
<g>
	<g>
		<path d="M334.507,116.053c-3.773,0-6.827,3.053-6.827,6.827v61.44c0,3.773,3.053,6.827,6.827,6.827s6.827-3.053,6.827-6.827
			v-61.44C341.333,119.107,338.28,116.053,334.507,116.053z"/>
	</g>
</g>
<g>
	<g>
		<path d="M354.987,177.493h-40.96c-3.773,0-6.827,3.053-6.827,6.827s3.053,6.827,6.827,6.827h40.96
			c3.773,0,6.827-3.053,6.827-6.827S358.76,177.493,354.987,177.493z"/>
	</g>
</g>
<g>
</g>
<g>
</g>
<g>
</g>
<g>
</g>
<g>
</g>
<g>
</g>
<g>
</g>
<g>
</g>
<g>
</g>
<g>
</g>
<g>
</g>
<g>
</g>
<g>
</g>
<g>
</g>
<g>
</g>
</svg>
