<?xml version="1.0" encoding="iso-8859-1"?>
<!-- Generator: Adobe Illustrator 19.0.0, SVG Export Plug-In . SVG Version: 6.00 Build 0)  -->
<svg version="1.1" id="Capa_1" xmlns="http://www.w3.org/2000/svg" xmlns:xlink="http://www.w3.org/1999/xlink" x="0px" y="0px"
	 viewBox="0 0 436.907 436.907" style="enable-background:new 0 0 436.907 436.907;" xml:space="preserve">
<g>
	<g>
		<path d="M430.08,191.147H6.827C3.053,191.147,0,194.2,0,197.973v34.133c0,3.773,3.053,6.827,6.827,6.827H430.08
			c3.773,0,6.827-3.053,6.827-6.827v-34.133C436.907,194.2,433.853,191.147,430.08,191.147z M423.253,225.28h-409.6V204.8h409.6
			V225.28z"/>
	</g>
</g>
<g>
	<g>
		<path d="M170.667,163.84H40.96c-3.773,0-6.827,3.053-6.827,6.827s3.053,6.827,6.827,6.827h129.707
			c3.773,0,6.827-3.053,6.827-6.827S174.44,163.84,170.667,163.84z"/>
	</g>
</g>
<g>
	<g>
		<path d="M150.187,163.84h-81.92c-3.773,0-6.827,3.053-6.827,6.827v27.307c0,3.773,3.053,6.827,6.827,6.827h81.92
			c3.773,0,6.827-3.053,6.827-6.827v-27.307C157.013,166.893,153.96,163.84,150.187,163.84z M143.36,191.147H75.093v-13.653h68.267
			V191.147z"/>
	</g>
</g>
<g>
	<g>
		<path d="M402.773,225.282H34.133c-3.773,0-6.827,3.053-6.827,6.827v143.36c0,2.074,0.94,4.033,2.56,5.333
			c1.626,1.292,3.727,1.787,5.767,1.326l64.727-14.56c16.234-3.659,33.401-3.693,49.661-0.133l41.713,9.153
			c17.686,3.886,35.668,3.987,53.42,0.326l47.14-9.754c16.379-3.393,33.64-3.113,49.9,0.787l58.986,14.16
			c0.527,0.126,1.062,0.186,1.594,0.186c1.521,0,3.014-0.507,4.227-1.464c1.64-1.294,2.599-3.267,2.599-5.361v-143.36
			C409.6,228.335,406.547,225.282,402.773,225.282z M395.947,366.807l-50.567-12.141c-18.214-4.367-37.535-4.668-55.847-0.881
			l-47.14,9.754c-15.86,3.28-31.913,3.193-47.734-0.287l-41.713-9.153c-18.2-3.994-37.426-3.953-55.586,0.147l-56.4,12.687v-128
			h354.987V366.807z"/>
	</g>
</g>
<g>
	<g>
		<path d="M81.92,361.813c-3.773,0-6.827,3.053-6.827,6.827v47.787c0,3.773,3.053,6.827,6.827,6.827s6.827-3.053,6.827-6.827V368.64
			C88.747,364.867,85.693,361.813,81.92,361.813z"/>
	</g>
</g>
<g>
	<g>
		<path d="M348.16,361.813c-3.773,0-6.827,3.053-6.827,6.827v47.787c0,3.773,3.053,6.827,6.827,6.827s6.827-3.053,6.827-6.827
			V368.64C354.987,364.867,351.933,361.813,348.16,361.813z"/>
	</g>
</g>
<g>
	<g>
		<path d="M291.96,118.508c-1.294-1.555-3.212-2.454-5.24-2.454h-61.44c-2.028,0-3.946,0.899-5.241,2.454
			c-1.299,1.553-1.84,3.599-1.473,5.593l13.653,75.093c0.587,3.246,3.413,5.606,6.714,5.606h34.133c3.301,0,6.127-2.36,6.712-5.606
			l13.653-75.093C293.799,122.107,293.26,120.061,291.96,118.508z M267.366,191.147h-22.733l-11.174-61.44h45.08L267.366,191.147z"
			/>
	</g>
</g>
<g>
	<g>
		<path d="M389.12,54.613h-54.613c-3.773,0-6.827,3.053-6.827,6.827v136.533c0,3.773,3.053,6.827,6.827,6.827h54.613
			c3.773,0,6.827-3.053,6.827-6.827V61.44C395.947,57.667,392.893,54.613,389.12,54.613z M382.293,191.147h-40.96V68.267h40.96
			V191.147z"/>
	</g>
</g>
<g>
	<g>
		<path d="M375.467,13.653H348.16c-3.773,0-6.827,3.053-6.827,6.827v40.96c0,3.773,3.053,6.827,6.827,6.827h27.307
			c3.773,0,6.827-3.053,6.827-6.827V20.48C382.293,16.707,379.24,13.653,375.467,13.653z M368.64,54.613h-13.653V27.307h13.653
			V54.613z"/>
	</g>
</g>
<g>
</g>
<g>
</g>
<g>
</g>
<g>
</g>
<g>
</g>
<g>
</g>
<g>
</g>
<g>
</g>
<g>
</g>
<g>
</g>
<g>
</g>
<g>
</g>
<g>
</g>
<g>
</g>
<g>
</g>
</svg>
