<?xml version="1.0" encoding="iso-8859-1"?>
<!-- Generator: Adobe Illustrator 19.0.0, SVG Export Plug-In . SVG Version: 6.00 Build 0)  -->
<svg version="1.1" id="Capa_1" xmlns="http://www.w3.org/2000/svg" xmlns:xlink="http://www.w3.org/1999/xlink" x="0px" y="0px"
	 viewBox="0 0 436.909 436.909" style="enable-background:new 0 0 436.909 436.909;" xml:space="preserve">
<g>
	<g>
		<path d="M430.081,327.681H6.828c-3.773,0-6.827,3.053-6.827,6.827v27.307c0,3.773,3.053,6.827,6.827,6.827h423.253
			c3.773,0,6.827-3.053,6.827-6.827v-27.307C436.908,330.735,433.855,327.681,430.081,327.681z M423.255,354.988h-409.6v-13.653
			h409.6V354.988z"/>
	</g>
</g>
<g>
	<g>
		<path d="M436.835,333.508l-27.307-184.32c-0.493-3.347-3.367-5.827-6.753-5.827h-17.944c-3.773,0-6.827,3.053-6.827,6.827
			s3.053,6.827,6.827,6.827h12.059l25.279,170.667H14.742l25.279-170.667h10.754c3.773,0,6.827-3.053,6.827-6.827
			s-3.053-6.827-6.827-6.827h-16.64c-3.386,0-6.26,2.48-6.753,5.827L0.075,333.508c-0.294,1.959,0.287,3.953,1.587,5.46
			c1.292,1.5,3.18,2.367,5.166,2.367h423.253c1.987,0,3.874-0.867,5.166-2.367C436.548,337.461,437.128,335.467,436.835,333.508z"/>
	</g>
</g>
<g>
	<g>
		<path d="M168.787,143.361h-16.113c-3.773,0-6.827,3.053-6.827,6.827s3.053,6.827,6.827,6.827h16.113
			c3.773,0,6.827-3.053,6.827-6.827S172.561,143.361,168.787,143.361z"/>
	</g>
</g>
<g>
	<g>
		<path d="M284.728,143.361h-15.86c-3.773,0-6.827,3.053-6.827,6.827s3.053,6.827,6.827,6.827h15.86
			c3.773,0,6.827-3.053,6.827-6.827S288.501,143.361,284.728,143.361z"/>
	</g>
</g>
<g>
	<g>
		<path d="M150.188,129.708c-3.773,0-6.827,3.053-6.827,6.827v109.227c0,4.813-15.553,13.653-40.96,13.653
			c-25.407,0-40.96-8.841-40.96-13.653V136.535c0-3.773-3.053-6.827-6.827-6.827s-6.827,3.053-6.827,6.827v109.227
			c0,17.927,27.474,27.307,54.613,27.307s54.613-9.38,54.613-27.307V136.535C157.015,132.761,153.961,129.708,150.188,129.708z"/>
	</g>
</g>
<g>
	<g>
		<path d="M102.401,109.228c-27.139,0-54.613,9.38-54.613,27.307s27.474,27.307,54.613,27.307s54.613-9.38,54.613-27.307
			S129.541,109.228,102.401,109.228z M102.401,150.188c-25.407,0-40.96-8.841-40.96-13.653s15.553-13.653,40.96-13.653
			c25.407,0,40.96,8.841,40.96,13.653S127.808,150.188,102.401,150.188z"/>
	</g>
</g>
<g>
	<g>
		<path d="M266.241,88.748c-3.773,0-6.827,3.053-6.827,6.827v109.227c0,4.813-15.553,13.653-40.96,13.653
			c-25.407,0-40.96-8.841-40.96-13.653V95.575c0-3.773-3.053-6.827-6.827-6.827s-6.827,3.053-6.827,6.827v109.227
			c0,17.927,27.474,27.307,54.613,27.307s54.613-9.38,54.613-27.307V95.575C273.068,91.801,270.015,88.748,266.241,88.748z"/>
	</g>
</g>
<g>
	<g>
		<path d="M218.455,68.268c-27.139,0-54.613,9.38-54.613,27.307s27.474,27.307,54.613,27.307s54.613-9.38,54.613-27.307
			S245.594,68.268,218.455,68.268z M218.455,109.228c-25.407,0-40.96-8.841-40.96-13.653s15.553-13.653,40.96-13.653
			c25.407,0,40.96,8.841,40.96,13.653S243.862,109.228,218.455,109.228z"/>
	</g>
</g>
<g>
	<g>
		<path d="M382.295,109.228c-3.773,0-6.827,3.053-6.827,6.827v109.227c0,4.813-15.553,13.653-40.96,13.653
			c-25.407,0-40.96-8.841-40.96-13.653V116.055c0-3.773-3.053-6.827-6.827-6.827s-6.827,3.053-6.827,6.827v109.227
			c0,17.927,27.474,27.307,54.613,27.307s54.613-9.38,54.613-27.307V116.055C389.121,112.281,386.068,109.228,382.295,109.228z"/>
	</g>
</g>
<g>
	<g>
		<path d="M334.508,88.748c-27.139,0-54.613,9.38-54.613,27.307c0,17.927,27.474,27.307,54.613,27.307s54.613-9.38,54.613-27.307
			C389.121,98.128,361.647,88.748,334.508,88.748z M334.508,129.708c-25.407,0-40.96-8.841-40.96-13.653
			c0-4.813,15.553-13.653,40.96-13.653c25.407,0,40.96,8.841,40.96,13.653C375.468,120.867,359.915,129.708,334.508,129.708z"/>
	</g>
</g>
<g>
	<g>
		<path d="M47.788,293.548H13.655c-3.773,0-6.827,3.053-6.827,6.827s3.053,6.827,6.827,6.827h34.133
			c3.773,0,6.827-3.053,6.827-6.827S51.561,293.548,47.788,293.548z"/>
	</g>
</g>
<g>
	<g>
		<path d="M382.295,286.721h-54.613c-3.773,0-6.827,3.053-6.827,6.827s3.053,6.827,6.827,6.827h54.613
			c3.773,0,6.827-3.053,6.827-6.827S386.068,286.721,382.295,286.721z"/>
	</g>
</g>
<g>
	<g>
		<path d="M252.588,259.415h-40.96c-3.773,0-6.827,3.053-6.827,6.827s3.053,6.827,6.827,6.827h40.96
			c3.773,0,6.827-3.053,6.827-6.827S256.361,259.415,252.588,259.415z"/>
	</g>
</g>
<g>
	<g>
		<path d="M416.428,252.588h-27.307c-3.773,0-6.827,3.053-6.827,6.827c0,3.773,3.053,6.827,6.827,6.827h27.307
			c3.773,0,6.827-3.053,6.827-6.827C423.255,255.641,420.201,252.588,416.428,252.588z"/>
	</g>
</g>
<g>
	<g>
		<path d="M163.841,191.148h-13.653c-3.773,0-6.827,3.053-6.827,6.827s3.053,6.827,6.827,6.827h13.653
			c3.773,0,6.827-3.053,6.827-6.827S167.615,191.148,163.841,191.148z"/>
	</g>
</g>
<g>
</g>
<g>
</g>
<g>
</g>
<g>
</g>
<g>
</g>
<g>
</g>
<g>
</g>
<g>
</g>
<g>
</g>
<g>
</g>
<g>
</g>
<g>
</g>
<g>
</g>
<g>
</g>
<g>
</g>
</svg>
