<?xml version="1.0" encoding="iso-8859-1"?>
<!-- Generator: Adobe Illustrator 19.0.0, SVG Export Plug-In . SVG Version: 6.00 Build 0)  -->
<svg version="1.1" id="Capa_1" xmlns="http://www.w3.org/2000/svg" xmlns:xlink="http://www.w3.org/1999/xlink" x="0px" y="0px"
	 viewBox="0 0 436.909 436.909" style="enable-background:new 0 0 436.909 436.909;" xml:space="preserve">
<g>
	<g>
		<path d="M430.081,365.231H6.828c-3.773,0-6.827,3.053-6.827,6.827v27.307c0,3.773,3.053,6.827,6.827,6.827h423.253
			c3.773,0,6.827-3.053,6.827-6.827v-27.307C436.908,368.284,433.855,365.231,430.081,365.231z M423.255,392.537h-409.6v-13.653
			h409.6V392.537z"/>
	</g>
</g>
<g>
	<g>
		<path d="M436.835,371.057l-27.307-184.32c-0.493-3.347-3.367-5.827-6.753-5.827H153.422c-3.773,0-6.827,3.053-6.827,6.827
			s3.053,6.827,6.827,6.827H396.89l25.279,170.667H14.742l25.279-170.667h11.286c3.773,0,6.827-3.053,6.827-6.827
			s-3.053-6.827-6.827-6.827H34.135c-3.386,0-6.26,2.48-6.753,5.827L0.075,371.057c-0.294,1.959,0.287,3.953,1.587,5.46
			c1.292,1.5,3.18,2.367,5.166,2.367h423.253c1.987,0,3.874-0.867,5.166-2.367C436.548,375.01,437.128,373.016,436.835,371.057z"/>
	</g>
</g>
<g>
	<g>
		<path d="M150.188,167.257c-3.773,0-6.827,3.053-6.827,6.827v109.227c0,4.813-15.553,13.653-40.96,13.653
			c-25.407,0-40.96-8.841-40.96-13.653V174.084c0-3.773-3.053-6.827-6.827-6.827s-6.827,3.053-6.827,6.827v109.227
			c0,17.927,27.474,27.307,54.613,27.307s54.613-9.38,54.613-27.307V174.084C157.015,170.31,153.961,167.257,150.188,167.257z"/>
	</g>
</g>
<g>
	<g>
		<path d="M102.401,146.777c-27.139,0-54.613,9.38-54.613,27.307c0,17.927,27.474,27.307,54.613,27.307s54.613-9.38,54.613-27.307
			C157.015,156.157,129.541,146.777,102.401,146.777z M102.401,187.737c-25.407,0-40.96-8.841-40.96-13.653
			s15.553-13.653,40.96-13.653c25.407,0,40.96,8.841,40.96,13.653C143.361,178.897,127.808,187.737,102.401,187.737z"/>
	</g>
</g>
<g>
	<g>
		<path d="M47.788,331.097H13.655c-3.773,0-6.827,3.053-6.827,6.827s3.053,6.827,6.827,6.827h34.133
			c3.773,0,6.827-3.053,6.827-6.827S51.561,331.097,47.788,331.097z"/>
	</g>
</g>
<g>
	<g>
		<path d="M382.295,324.271h-54.613c-3.773,0-6.827,3.053-6.827,6.827s3.053,6.827,6.827,6.827h54.613
			c3.773,0,6.827-3.053,6.827-6.827S386.068,324.271,382.295,324.271z"/>
	</g>
</g>
<g>
	<g>
		<path d="M252.588,296.964h-40.96c-3.773,0-6.827,3.053-6.827,6.827s3.053,6.827,6.827,6.827h40.96
			c3.773,0,6.827-3.053,6.827-6.827S256.361,296.964,252.588,296.964z"/>
	</g>
</g>
<g>
	<g>
		<path d="M416.428,290.137h-27.307c-3.773,0-6.827,3.053-6.827,6.827s3.053,6.827,6.827,6.827h27.307
			c3.773,0,6.827-3.053,6.827-6.827S420.201,290.137,416.428,290.137z"/>
	</g>
</g>
<g>
	<g>
		<path d="M163.841,228.697h-13.653c-3.773,0-6.827,3.053-6.827,6.827s3.053,6.827,6.827,6.827h13.653
			c3.773,0,6.827-3.053,6.827-6.827S167.615,228.697,163.841,228.697z"/>
	</g>
</g>
<g>
	<g>
		<path d="M382.295,119.471H68.268c-3.773,0-6.827,3.053-6.827,6.827c0,3.773,3.053,6.827,6.827,6.827h314.027
			c3.773,0,6.827-3.053,6.827-6.827C389.121,122.524,386.068,119.471,382.295,119.471z"/>
	</g>
</g>
<g>
	<g>
		<path d="M375.309,36.083c-0.814-3.686-4.48-6.019-8.134-5.2L87.282,92.323c-3.68,0.807-6.008,4.448-5.2,8.134
			c0.7,3.188,3.526,5.361,6.659,5.361c0.486,0,0.98-0.053,1.475-0.16l279.893-61.44C373.789,43.41,376.117,39.769,375.309,36.083z"
			/>
	</g>
</g>
<g>
</g>
<g>
</g>
<g>
</g>
<g>
</g>
<g>
</g>
<g>
</g>
<g>
</g>
<g>
</g>
<g>
</g>
<g>
</g>
<g>
</g>
<g>
</g>
<g>
</g>
<g>
</g>
<g>
</g>
</svg>
