<?xml version="1.0" encoding="iso-8859-1"?>
<!-- Generator: Adobe Illustrator 19.0.0, SVG Export Plug-In . SVG Version: 6.00 Build 0)  -->
<svg version="1.1" id="Capa_1" xmlns="http://www.w3.org/2000/svg" xmlns:xlink="http://www.w3.org/1999/xlink" x="0px" y="0px"
	 viewBox="0 0 399.602 399.602" style="enable-background:new 0 0 399.602 399.602;" xml:space="preserve">
<g>
	<g>
		<path d="M295.801,42.011c-0.913-2.388-3.087-4.064-5.627-4.343c-36.606-3.98-69.581,24.243-70.967,25.45
			c-2.84,2.478-3.14,6.791-0.661,9.631c2.468,2.843,6.794,3.13,9.634,0.664c0.247-0.213,20.914-17.98,45.688-21.777l-17.72,19.86
			c-2.514,2.813-2.266,7.129,0.546,9.639c1.307,1.164,2.927,1.734,4.547,1.734c1.874,0,3.746-0.77,5.093-2.28l28.187-31.587
			C296.221,47.095,296.714,44.394,295.801,42.011z"/>
	</g>
</g>
<g>
	<g>
		<path d="M193.988,61.006c-1.381-1.207-34.227-29.454-70.967-25.453c-2.539,0.28-4.714,1.958-5.627,4.343
			c-0.913,2.384-0.42,5.081,1.28,6.99l28.6,32.049c1.347,1.514,3.219,2.284,5.093,2.284c1.62,0,3.239-0.57,4.547-1.736
			c2.813-2.509,3.06-6.827,0.546-9.636l-18.127-20.313c24.707,3.82,45.44,21.557,45.687,21.77c2.847,2.464,7.161,2.164,9.627-0.676
			C197.122,67.787,196.828,63.479,193.988,61.006z"/>
	</g>
</g>
<g>
	<g>
		<path d="M230.946,70.06L213.212,5.03C212.4,2.06,209.707,0,206.626,0c-3.079,0-5.772,2.06-6.586,5.03l-17.741,65.033
			c-0.993,3.637,1.154,7.39,4.794,8.383c0.601,0.164,1.2,0.244,1.801,0.244c3,0,5.753-1.997,6.581-5.033l11.153-40.887
			l11.145,40.883c0.993,3.644,4.78,5.784,8.38,4.791C229.792,77.45,231.939,73.697,230.946,70.06z"/>
	</g>
</g>
<g>
	<g>
		<path d="M199.801,67.596c-76.594,0-164.514,12.838-164.514,112.944c0,88.033,98.401,219.063,164.514,219.063
			S364.315,268.573,364.315,180.54C364.315,80.432,276.395,67.596,199.801,67.596z M199.801,385.949
			c-54.62,0-150.861-118.746-150.861-205.409c0-69.598,45.121-99.29,150.861-99.29s150.861,29.694,150.861,99.29
			C350.662,267.203,254.421,385.949,199.801,385.949z"/>
	</g>
</g>
<g>
	<g>
		<path d="M326.735,128.887c-16.273-21.016-43.486-22.76-44.633-22.823c-3.927-0.186-6.96,2.661-7.187,6.417
			c-0.22,3.758,2.654,6.984,6.407,7.214c0.22,0.017,22.306,1.553,34.693,17.644c8.412,10.936,10.699,26.373,6.799,45.884
			c-0.739,3.697,1.661,7.293,5.354,8.033c0.454,0.09,0.899,0.133,1.347,0.133c3.186,0,6.04-2.243,6.687-5.489
			C340.927,162.28,337.741,143.097,326.735,128.887z"/>
	</g>
</g>
<g>
	<g>
		<g>
			<circle cx="138.361" cy="143.362" r="6.827"/>
			<circle cx="111.055" cy="184.322" r="6.827"/>
			<circle cx="186.148" cy="157.015" r="6.827"/>
			<circle cx="165.668" cy="204.802" r="6.827"/>
			<circle cx="165.668" cy="266.242" r="6.827"/>
			<circle cx="186.148" cy="307.202" r="6.827"/>
			<circle cx="131.535" cy="225.282" r="6.827"/>
			<circle cx="192.975" cy="252.588" r="6.827"/>
		</g>
	</g>
</g>
<g>
</g>
<g>
</g>
<g>
</g>
<g>
</g>
<g>
</g>
<g>
</g>
<g>
</g>
<g>
</g>
<g>
</g>
<g>
</g>
<g>
</g>
<g>
</g>
<g>
</g>
<g>
</g>
<g>
</g>
</svg>
