<?xml version="1.0" encoding="iso-8859-1"?>
<!-- Generator: Adobe Illustrator 19.0.0, SVG Export Plug-In . SVG Version: 6.00 Build 0)  -->
<svg version="1.1" id="Capa_1" xmlns="http://www.w3.org/2000/svg" xmlns:xlink="http://www.w3.org/1999/xlink" x="0px" y="0px"
	 viewBox="0 0 397.421 397.421" style="enable-background:new 0 0 397.421 397.421;" xml:space="preserve">
<g>
	<g>
		<path d="M221.814,256.524l-28.286-11.786l29.1-16.976c2.099-1.224,3.386-3.47,3.386-5.897s-1.287-4.673-3.386-5.897l-30.06-17.533
			l29.674-14.836c2.239-1.123,3.686-3.379,3.767-5.886c0.087-2.507-1.212-4.854-3.379-6.117l-33.886-19.77l15.147-17.676
			c1.067-1.237,1.647-2.814,1.647-4.444v-40.96c0-3.77-3.053-6.827-6.827-6.827s-6.827,3.057-6.827,6.827v38.434l-18.835,21.978
			c-1.316,1.538-1.882,3.581-1.546,5.581c0.338,1.997,1.541,3.739,3.29,4.76l30.06,17.533l-29.674,14.836
			c-2.243,1.123-3.69,3.379-3.77,5.886c-0.08,2.507,1.215,4.854,3.383,6.117l30.853,17.997l-30.853,17.997
			c-2.237,1.307-3.545,3.767-3.371,6.351c0.169,2.587,1.794,4.85,4.183,5.847l30.839,12.849l-19.053,16.674
			c-1.599,1.399-2.459,3.463-2.319,5.583l6.827,103.873c0.239,3.61,3.239,6.38,6.806,6.38c0.154,0,0.3-0.003,0.451-0.017
			c3.76-0.251,6.613-3.5,6.366-7.26l-6.607-100.511l24.767-21.673c1.78-1.553,2.627-3.91,2.246-6.236
			C225.548,259.395,223.986,257.43,221.814,256.524z"/>
	</g>
</g>
<g>
	<g>
		<path d="M321.591,6.827H75.831c-3.77,0-6.827,3.057-6.827,6.827v54.613c0,3.77,3.057,6.827,6.827,6.827h69.717
			c6.002,13.474,29.706,20.48,53.163,20.48c23.453,0,47.16-7.006,53.166-20.48h69.714c3.773,0,6.827-3.057,6.827-6.827V13.653
			C328.417,9.883,325.364,6.827,321.591,6.827z M314.764,61.44h-68.267c-3.773,0-6.827,3.057-6.827,6.827
			c0,4.813-15.553,13.653-40.96,13.653c-25.411,0-40.96-8.841-40.96-13.653c0-3.77-3.057-6.827-6.827-6.827H82.657V20.48h232.107
			V61.44z"/>
	</g>
</g>
<g>
	<g>
		<path d="M58.764,0C45.59,0,34.871,10.709,34.871,23.876v34.167c0,13.167,10.72,23.876,23.893,23.876s23.893-10.709,23.893-23.876
			V23.876C82.657,10.709,71.938,0,58.764,0z M69.004,58.044c0,5.635-4.593,10.223-10.24,10.223s-10.24-4.586-10.24-10.223V23.876
			c0-5.635,4.593-10.223,10.24-10.223s10.24,4.587,10.24,10.223V58.044z"/>
	</g>
</g>
<g>
	<g>
		<path d="M338.657,0c-13.174,0-23.893,10.709-23.893,23.876v34.167c0,13.167,10.72,23.876,23.893,23.876
			c13.174,0,23.893-10.709,23.893-23.876V23.876C362.551,10.709,351.831,0,338.657,0z M348.897,58.044
			c0,5.635-4.593,10.223-10.24,10.223c-5.647,0-10.24-4.586-10.24-10.223V23.876c0-5.635,4.593-10.223,10.24-10.223
			c5.647,0,10.24,4.587,10.24,10.223V58.044z"/>
	</g>
</g>
<g>
</g>
<g>
</g>
<g>
</g>
<g>
</g>
<g>
</g>
<g>
</g>
<g>
</g>
<g>
</g>
<g>
</g>
<g>
</g>
<g>
</g>
<g>
</g>
<g>
</g>
<g>
</g>
<g>
</g>
</svg>
