<?xml version="1.0" encoding="iso-8859-1"?>
<!-- Generator: Adobe Illustrator 19.0.0, SVG Export Plug-In . SVG Version: 6.00 Build 0)  -->
<svg version="1.1" id="Capa_1" xmlns="http://www.w3.org/2000/svg" xmlns:xlink="http://www.w3.org/1999/xlink" x="0px" y="0px"
	 viewBox="0 0 409.577 409.577" style="enable-background:new 0 0 409.577 409.577;" xml:space="preserve">
<g>
	<g>
		<path d="M401.734,168.587c-3.773,0-6.827,3.057-6.827,6.827v52.806c0,8.639-6.734,18.736-14.827,22.1
			c-0.833,0.367-83.987,36.659-137.46,40.726c-122.332,9.284-212.925-26.569-214.226-27.08c-7.854-2.615-14.74-12.327-14.74-20.787
			v-49.819c0-3.77-3.053-6.827-6.827-6.827S0,189.589,0,193.359v49.819c0,14.426,10.58,29.251,23.68,33.591
			c3.347,1.357,74.24,29.51,177.307,29.507c13.686,0,27.94-0.497,42.673-1.616c55.774-4.243,138.419-40.306,141.786-41.786
			c12.96-5.385,23.113-20.608,23.113-34.654v-52.806C408.561,171.644,405.507,168.587,401.734,168.587z"/>
	</g>
</g>
<g>
	<g>
		<path d="M404.681,146.581c-15.753-28.177-64.314-40.837-101.113-43.114c-53.147-3.207-155.687,40.928-170.841,47.601
			c-58.633-6.793-98.633-1.603-118.88,15.454c-8.501,7.165-13.273,16.345-13.8,26.551c0,0.003,0,0.003,0,0.003
			c-0.186,3.662,0.181,7.366,1.08,11.006c7.187,29.073,115.792,59.8,211.326,59.8c0.032,0,0.073,0,0.107-0.002
			c93.399-0.02,178.599-53.55,191.133-77.083C411.187,172.727,411.529,158.822,404.681,146.581z M391.641,180.378
			c-10.721,20.137-93.727,69.83-179.081,69.85c-0.039,0-0.072,0-0.106,0c-99.84,0-194.048-33.143-198.074-49.43
			c-0.58-2.34-0.812-4.704-0.693-7.023c0.326-6.427,3.347-12.08,8.958-16.814c12.008-10.103,40.868-20.407,110.328-12.114
			c1.246,0.147,2.48-0.043,3.606-0.55c1.128-0.503,113.314-50.48,166.147-47.203c42.586,2.637,79.614,17.5,90.04,36.151
			C397.362,161.458,396.995,170.335,391.641,180.378z"/>
	</g>
</g>
<g>
	<g>
		<path d="M114.895,209.44L79.015,173.56c-2.666-2.666-6.987-2.666-9.653,0c-2.666,2.666-2.666,6.987,0,9.653l35.879,35.879
			c1.333,1.333,3.081,2,4.826,2c1.746,0,3.492-0.667,4.826-2C117.56,216.427,117.56,212.105,114.895,209.44z"/>
	</g>
</g>
<g>
	<g>
		<path d="M326.521,168.48L290.642,132.6c-2.666-2.666-6.987-2.666-9.653,0c-2.666,2.666-2.666,6.987,0,9.653l35.879,35.879
			c1.333,1.333,3.081,2,4.826,2s3.492-0.667,4.826-2C329.187,175.467,329.187,171.145,326.521,168.48z"/>
	</g>
</g>
<g>
	<g>
		<path d="M184.928,231.686L126.8,173.559c-2.666-2.666-6.987-2.666-9.653,0c-2.666,2.666-2.666,6.987,0,9.653l58.127,58.127
			c1.333,1.333,3.081,2,4.826,2s3.494-0.667,4.826-2C187.593,238.673,187.593,234.352,184.928,231.686z"/>
	</g>
</g>
<g>
	<g>
		<path d="M225.888,224.859l-58.127-58.127c-2.666-2.666-6.987-2.666-9.653,0c-2.666,2.666-2.666,6.987,0,9.653l58.127,58.127
			c1.333,1.333,3.081,2,4.826,2s3.494-0.667,4.826-2C228.553,231.846,228.553,227.525,225.888,224.859z"/>
	</g>
</g>
<g>
	<g>
		<path d="M266.848,211.206l-58.127-58.127c-2.666-2.666-6.987-2.666-9.653,0c-2.666,2.666-2.666,6.987,0,9.653l58.127,58.127
			c1.333,1.333,3.081,2,4.826,2s3.494-0.667,4.826-2C269.513,218.193,269.513,213.872,266.848,211.206z"/>
	</g>
</g>
<g>
	<g>
		<path d="M307.808,197.553l-58.127-58.127c-2.666-2.666-6.987-2.666-9.653,0c-2.666,2.666-2.666,6.987,0,9.653l58.127,58.127
			c1.333,1.333,3.081,2,4.826,2s3.494-0.667,4.826-2C310.473,204.54,310.473,200.218,307.808,197.553z"/>
	</g>
</g>
<g>
</g>
<g>
</g>
<g>
</g>
<g>
</g>
<g>
</g>
<g>
</g>
<g>
</g>
<g>
</g>
<g>
</g>
<g>
</g>
<g>
</g>
<g>
</g>
<g>
</g>
<g>
</g>
<g>
</g>
</svg>
