<?xml version="1.0" encoding="iso-8859-1"?>
<!-- Generator: Adobe Illustrator 19.0.0, SVG Export Plug-In . SVG Version: 6.00 Build 0)  -->
<svg version="1.1" id="Capa_1" xmlns="http://www.w3.org/2000/svg" xmlns:xlink="http://www.w3.org/1999/xlink" x="0px" y="0px"
	 viewBox="0 0 436.907 436.907" style="enable-background:new 0 0 436.907 436.907;" xml:space="preserve">
<g>
	<g>
		<path d="M408.491,272.628c-3.103-9.373-9.607-16.546-19.319-21.306c-12.645-6.2-31.247-2.255-52.791,2.313
			c-40.032,8.494-85.402,18.115-112.604-26.706c-12.076-19.895-15.16-39.934-9.17-59.547c7.286-23.861,28.894-46.566,56.387-59.261
			c3.424-1.58,4.92-5.641,3.337-9.061c-1.577-3.427-5.651-4.9-9.057-3.34c-31.391,14.493-55.211,39.786-63.724,67.666
			c-7.072,23.166-3.425,47.587,10.554,70.62c32.23,53.106,87.074,41.467,127.107,32.98c18.28-3.879,35.546-7.533,43.95-3.413
			c6.369,3.127,10.409,7.474,12.353,13.3c4.584,13.74-3.994,30.894-4.127,31.16c-1.719,3.347-0.399,7.46,2.947,9.18
			c1,0.519,2.07,0.76,3.12,0.76c2.476,0,4.862-1.347,6.077-3.698C403.994,313.368,414.867,291.895,408.491,272.628z"/>
	</g>
</g>
<g>
	<g>
		<path d="M388.007,245.32c-3.103-9.373-9.607-16.546-19.319-21.306c-12.853-6.315-33.708-1.207-60.126,5.233
			c-45.73,11.139-102.639,25.027-129.623-19.42c-14.251-23.48-7.497-42.621,0.679-54.54c16.927-24.667,54.521-39.634,85.574-34.08
			c3.741,0.654,7.257-1.806,7.924-5.513c0.664-3.714-1.806-7.26-5.516-7.927c-36.54-6.567-79.186,10.573-99.236,39.799
			c-14.778,21.533-15.164,46.16-1.097,69.34c32.177,53.007,97.125,37.166,144.531,25.6c21.849-5.32,42.479-10.339,50.883-6.24
			c6.369,3.127,10.409,7.473,12.353,13.3c4.581,13.74-3.994,30.894-4.127,31.16c-1.719,3.347-0.399,7.46,2.947,9.18
			c1,0.519,2.07,0.759,3.12,0.759c2.476,0,4.862-1.347,6.074-3.7C383.51,286.06,394.383,264.586,388.007,245.32z"/>
	</g>
</g>
<g>
	<g>
		<path d="M129.707,324.267H6.827c-3.77,0-6.827,3.053-6.827,6.827v68.267c0,3.773,3.057,6.827,6.827,6.827h122.88
			c3.77,0,6.827-3.053,6.827-6.827v-68.267C136.533,327.32,133.477,324.267,129.707,324.267z M122.88,392.533H13.653V337.92H122.88
			V392.533z"/>
	</g>
</g>
<g>
	<g>
		<path d="M157.013,324.267h-27.307c-3.77,0-6.827,3.053-6.827,6.827v68.267c0,3.773,3.057,6.827,6.827,6.827h27.307
			c3.77,0,6.827-3.053,6.827-6.827v-68.267C163.84,327.32,160.783,324.267,157.013,324.267z M150.187,392.533h-13.653V337.92h13.653
			V392.533z"/>
	</g>
</g>
<g>
	<g>
		<path d="M423.253,324.267h-27.307c-3.77,0-6.827,3.053-6.827,6.827v68.267c0,3.773,3.057,6.827,6.827,6.827h27.307
			c3.77,0,6.827-3.053,6.827-6.827v-68.267C430.08,327.32,427.023,324.267,423.253,324.267z M416.427,392.533h-13.653V337.92h13.653
			V392.533z"/>
	</g>
</g>
<g>
	<g>
		<path d="M395.947,324.267H157.013c-3.77,0-6.827,3.053-6.827,6.827v68.267c0,3.773,3.057,6.827,6.827,6.827h238.933
			c3.77,0,6.827-3.053,6.827-6.827v-68.267C402.773,327.32,399.717,324.267,395.947,324.267z M389.12,392.533H163.84V337.92h225.28
			V392.533z"/>
	</g>
</g>
<g>
	<g>
		<path d="M348.16,30.72c-48.937,0-88.747,39.813-88.747,88.747c0,48.934,39.81,88.747,88.747,88.747s88.747-39.813,88.747-88.747
			C436.907,70.533,397.097,30.72,348.16,30.72z M348.16,194.56c-41.407,0-75.093-33.686-75.093-75.093
			c0-41.407,33.686-75.093,75.093-75.093c41.407,0,75.093,33.686,75.093,75.093C423.253,160.874,389.567,194.56,348.16,194.56z"/>
	</g>
</g>
<g>
	<g>
		<path d="M400.16,90.721c-4.381-10.667-13.705-17.72-24.921-18.854c-9.859-1.033-20.067,2.347-27.38,8.994
			c-6.431-5.847-14.853-9.18-23.757-9.18c-1.222,0-2.432,0.06-3.603,0.179c-11.237,1.14-20.56,8.194-24.94,18.867
			c-4.56,11.107-2.691,23.707,4.883,32.867l42.153,51.026c1.297,1.574,3.227,2.48,5.263,2.48c2.038,0,3.966-0.908,5.265-2.48
			l42.156-51.026C402.85,114.429,404.721,101.835,400.16,90.721z M384.753,114.9l-36.893,44.653L310.97,114.9
			c-4.357-5.274-5.42-12.554-2.777-18.993c2.47-6.014,7.456-9.827,13.706-10.467c0.724-0.072,1.459-0.106,2.203-0.106
			c7.277,0,14.03,3.633,18.07,9.713c2.533,3.801,8.841,3.801,11.373,0c4.458-6.7,12.285-10.447,20.294-9.6
			c6.229,0.633,11.22,4.448,13.689,10.46C390.173,102.347,389.11,109.626,384.753,114.9z"/>
	</g>
</g>
<g>
</g>
<g>
</g>
<g>
</g>
<g>
</g>
<g>
</g>
<g>
</g>
<g>
</g>
<g>
</g>
<g>
</g>
<g>
</g>
<g>
</g>
<g>
</g>
<g>
</g>
<g>
</g>
<g>
</g>
</svg>
