<?xml version="1.0" encoding="iso-8859-1"?>
<!-- Generator: Adobe Illustrator 19.0.0, SVG Export Plug-In . SVG Version: 6.00 Build 0)  -->
<svg version="1.1" id="Capa_1" xmlns="http://www.w3.org/2000/svg" xmlns:xlink="http://www.w3.org/1999/xlink" x="0px" y="0px"
	 viewBox="0 0 382.169 382.169" style="enable-background:new 0 0 382.169 382.169;" xml:space="preserve">
<g>
	<g>
		<path d="M87.912,313.28c-2.666-2.666-6.987-2.666-9.653,0l-29.967,29.967c-5.33,5.326-13.966,5.33-19.263,0.043l-11.43-11.43
			c-2.567-2.567-3.973-5.977-3.966-9.607c0.007-3.647,1.444-7.084,4.04-9.684l2.871-2.871c2.666-2.666,2.666-6.987,0-9.653
			c-2.666-2.666-6.987-2.666-9.653,0l-2.871,2.871c-10.663,10.66-10.697,27.976-0.073,38.596l11.43,11.43
			c5.303,5.303,12.269,7.953,19.246,7.953c6.994,0,13.993-2.668,19.323-7.996l29.967-29.967
			C90.578,320.267,90.578,315.946,87.912,313.28z"/>
	</g>
</g>
<g>
	<g>
		<path d="M371.862,29.329c-2.666-2.666-6.987-2.666-9.653,0l-7.25,7.25c-2.666,2.666-2.666,6.987,0,9.653
			c1.333,1.333,3.081,2,4.826,2s3.494-0.666,4.826-2l7.25-7.25C374.528,36.316,374.528,31.994,371.862,29.329z"/>
	</g>
</g>
<g>
	<g>
		<path d="M362.206,38.981c-26.612-26.617-69.929-26.624-96.543,0c-15.462,15.462-22.61,37.603-19.116,59.22
			c0.604,3.724,4.099,6.27,7.83,5.651c3.721-0.604,6.252-4.106,5.651-7.83c-2.797-17.3,2.92-35.014,15.29-47.387
			c21.297-21.297,55.946-21.291,77.237,0c21.294,21.294,21.294,55.943,0,77.237c-12.285,12.278-29.187,17.91-46.401,15.444
			c-3.7-0.526-7.192,2.057-7.723,5.791c-0.536,3.733,2.057,7.19,5.791,7.723c3.318,0.476,6.624,0.71,9.907,0.71
			c17.98,0,35.099-7.037,48.077-20.014C388.823,108.909,388.823,65.599,362.206,38.981z"/>
	</g>
</g>
<g>
	<g>
		<path d="M185.031,153.367c-0.474-3.741-3.9-6.383-7.63-5.917c-15.136,1.92-28.849,8.646-39.656,19.453
			c-15.276,15.276-22.327,36.326-19.337,57.75c0.473,3.413,3.4,5.883,6.75,5.883c0.317,0,0.633-0.02,0.954-0.065
			c3.732-0.521,6.34-3.97,5.816-7.704c-2.391-17.143,3.25-33.987,15.469-46.21c8.646-8.646,19.613-14.027,31.717-15.56
			C182.859,160.523,185.506,157.108,185.031,153.367z"/>
	</g>
</g>
<g>
	<g>
		<path d="M247.825,216.164c-3.681-0.444-7.158,2.178-7.63,5.917c-1.533,12.097-6.914,23.064-15.56,31.713
			c-11.897,11.892-28.29,17.599-45.03,15.619c-3.712-0.473-7.132,2.241-7.576,5.984c-0.44,3.743,2.241,7.136,5.984,7.576
			c2.717,0.319,5.424,0.476,8.113,0.476c18.019,0,35.229-7.067,48.164-20.002c10.81-10.813,17.536-24.523,19.453-39.653
			C254.215,220.054,251.568,216.637,247.825,216.164z"/>
	</g>
</g>
<g>
	<g>
		<path d="M317.015,163.261c-5.806-15.479-17.186-32.186-32.043-47.043c-14.857-14.857-31.563-26.237-47.043-32.043
			c-17.237-6.456-31.387-5.373-39.844,3.081c-4.466,4.463-5.221,9.059-5.067,12.129c0.514,10.346,11.426,19.28,26.53,31.643
			c8.346,6.83,17.806,14.573,26.923,23.69c9.117,9.115,16.86,18.575,23.69,26.923c12.363,15.104,21.297,26.016,31.643,26.53
			c0.234,0.014,0.473,0.021,0.72,0.021c3.04,0,7.282-0.957,11.409-5.088C322.387,194.655,323.481,180.505,317.015,163.261z
			 M304.281,193.452c-0.744,0.741-1.266,1.063-1.797,1.087c-4.297-0.217-13.573-11.547-21.757-21.547
			c-7.033-8.59-15.003-18.33-24.603-27.926c-9.597-9.6-19.337-17.57-27.926-24.603c-9.999-8.183-21.33-17.459-21.547-21.757
			c-0.019-0.451,0.343-1.053,1.087-1.797c4.316-4.318,13.807-4.294,25.397,0.049c13.694,5.135,28.674,15.403,42.184,28.913
			c13.51,13.507,23.776,28.491,28.913,42.184C308.575,179.645,308.594,189.139,304.281,193.452z"/>
	</g>
</g>
<g>
	<g>
		<path d="M157.052,244.14c-33.022-33.024-70.38-45.474-86.886-28.964c-4.466,4.463-5.221,9.059-5.07,12.129
			c0.517,10.348,11.43,19.28,26.537,31.647c8.342,6.83,17.802,14.572,26.919,23.687c9.117,9.115,16.857,18.575,23.687,26.919
			c12.367,15.107,21.301,26.02,31.647,26.537c0.234,0.01,0.471,0.017,0.72,0.017c3.04,0,7.282-0.956,11.411-5.086
			C202.527,314.516,190.075,277.164,157.052,244.14z M176.36,321.372c-0.747,0.744-1.328,1.126-1.797,1.087
			c-4.301-0.217-13.577-11.551-21.76-21.547c-7.033-8.593-15.003-18.33-24.6-27.926c-9.597-9.597-19.333-17.567-27.926-24.6
			c-9.996-8.183-21.33-17.459-21.547-21.76c-0.019-0.451,0.343-1.053,1.087-1.797c2.154-2.154,5.521-3.214,9.774-3.214
			c13.74,0,36.71,11.08,57.805,32.176C175.024,281.419,185.474,312.258,176.36,321.372z"/>
	</g>
</g>
<g>
	<g>
		<path d="M297.801,197.457c-0.113-3.767-3.309-6.717-7.023-6.624c-3.77,0.109-6.733,3.256-6.624,7.023
			c0.109,3.802-1.318,7.383-4.017,10.086l-9.639,9.639c-2.58,2.58-6.013,4.004-9.663,4.007c-0.003,0-0.007,0-0.01,0
			c-3.64,0-7.05-1.41-9.614-3.973l-67.637-67.637c-2.574-2.574-3.987-5.99-3.987-9.624c0.002-3.644,1.428-7.076,4.019-9.667
			l9.639-9.636c3.089-3.092,7.54-4.523,11.846-3.837c3.727,0.587,7.223-1.939,7.817-5.663c0.597-3.724-1.939-7.223-5.663-7.817
			c-8.673-1.391-17.48,1.49-23.653,7.663l-9.639,9.636c-5.166,5.166-8.013,12.025-8.02,19.309
			c-0.003,7.287,2.833,14.136,7.987,19.287l67.637,67.637c5.137,5.14,11.979,7.974,19.267,7.974c0.007,0,0.017,0,0.024,0
			c7.294-0.005,14.148-2.85,19.304-8.006l9.639-9.639C295.101,212.287,298.021,204.948,297.801,197.457z"/>
	</g>
</g>
<g>
	<g>
		<path d="M169.544,321.839c-0.601-3.722-4.123-6.282-7.827-5.652c-3.722,0.601-6.253,4.103-5.652,7.827
			c0.707,4.379-0.696,8.695-3.847,11.849l-9.639,9.639c-2.58,2.58-6.013,4.004-9.663,4.007c-0.003,0-0.007,0-0.01,0
			c-3.64,0-7.054-1.413-9.617-3.973l-67.637-67.633c-5.308-5.311-5.291-13.964,0.036-19.29l9.643-9.639
			c3.089-3.099,7.53-4.543,11.86-3.833c3.763,0.597,7.226-1.932,7.827-5.652c0.601-3.724-1.932-7.226-5.652-7.827
			c-8.648-1.394-17.504,1.473-23.69,7.66l-9.639,9.639c-10.65,10.65-10.667,27.964-0.036,38.596l67.637,67.633
			c5.309,5.309,12.286,7.967,19.267,7.963c6.997,0,14-2.668,19.33-7.997l9.639-9.639
			C168.067,339.319,170.933,330.47,169.544,321.839z"/>
	</g>
</g>
<g>
</g>
<g>
</g>
<g>
</g>
<g>
</g>
<g>
</g>
<g>
</g>
<g>
</g>
<g>
</g>
<g>
</g>
<g>
</g>
<g>
</g>
<g>
</g>
<g>
</g>
<g>
</g>
<g>
</g>
</svg>
