<?xml version="1.0" encoding="iso-8859-1"?>
<!-- Generator: Adobe Illustrator 19.0.0, SVG Export Plug-In . SVG Version: 6.00 Build 0)  -->
<svg version="1.1" id="Capa_1" xmlns="http://www.w3.org/2000/svg" xmlns:xlink="http://www.w3.org/1999/xlink" x="0px" y="0px"
	 viewBox="0 0 389.12 389.12" style="enable-background:new 0 0 389.12 389.12;" xml:space="preserve">
<g>
	<g>
		<path d="M116.053,0h-61.44c-3.773,0-6.827,3.053-6.827,6.827V348.16c0,3.773,3.053,6.827,6.827,6.827s6.827-3.053,6.827-6.827
			V13.653h47.787v307.2c0,3.773,3.053,6.827,6.827,6.827s6.827-3.053,6.827-6.827V6.827C122.88,3.053,119.827,0,116.053,0z"/>
	</g>
</g>
<g>
	<g>
		<path d="M313.194,0h-197.14c-3.773,0-6.827,3.053-6.827,6.827v314.027c0,3.773,3.053,6.827,6.827,6.827s6.827-3.053,6.827-6.827
			v-307.2h190.314c7.986,0,14.486,6.499,14.486,14.486v347.327H116.053c-3.773,0-6.827,3.053-6.827,6.827s3.053,6.827,6.827,6.827
			h218.453c3.773,0,6.827-3.053,6.827-6.827V28.14C341.333,12.626,328.707,0,313.194,0z"/>
	</g>
</g>
<g>
	<g>
		<path d="M334.507,314.027H85.333c-20.7,0-37.547,16.846-37.547,37.547c0,20.7,16.846,37.547,37.547,37.547h249.173
			c3.773,0,6.827-3.053,6.827-6.827v-61.44C341.333,317.08,338.28,314.027,334.507,314.027z M327.68,375.467H85.333
			c-13.174,0-23.893-10.72-23.893-23.893c0-13.174,10.72-23.893,23.893-23.893H327.68V375.467z"/>
	</g>
</g>
<g>
	<g>
		<path d="M316.559,110.239c-1.434-5.733-4.014-11.086-7.467-15.473c-2.319-2.959-6.627-3.473-9.586-1.147
			c-2.966,2.333-3.473,6.627-1.147,9.586c2.273,2.888,3.98,6.46,4.946,10.334c2.681,10.772-1.12,21.386-8.306,23.173
			c-4.253,1.08-8.107-1.381-10.02-2.934c-3.806-3.099-6.781-8.066-8.166-13.647c-1.234-4.925-1.154-9.993,0.22-14.266
			c1.154-3.586-0.821-7.432-4.413-8.586c-3.572-1.14-7.426,0.814-8.586,4.413c-2.173,6.753-2.333,14.273-0.473,21.74
			c2.113,8.501,6.659,15.94,12.8,20.934c5.019,4.093,10.848,6.253,16.573,6.253c1.806,0,3.606-0.22,5.366-0.655
			C312.912,146.326,321.099,128.505,316.559,110.239z"/>
	</g>
</g>
<g>
	<g>
		<path d="M304.587,69.055c-5.175-8.561-13.013-14.867-21.501-17.3c-3.673-1.027-7.407,1.067-8.446,4.686
			c-1.034,3.627,1.067,7.407,4.687,8.446c5.14,1.466,10.213,5.666,13.573,11.227c5.74,9.506,5.233,20.767-1.101,24.593
			c-6.333,3.813-16.541-0.981-22.274-10.474c-1.952-3.232-6.159-4.273-9.373-2.319c-3.226,1.952-4.267,6.146-2.319,9.373
			c6.994,11.573,18.459,18.333,29.146,18.333c4.186,0,8.247-1.033,11.875-3.219C311.74,104.615,314.313,85.175,304.587,69.055z"/>
	</g>
</g>
<g>
	<g>
		<path d="M283.066,51.753c-2.207-0.626-4.434-0.98-6.613-1.06c-3.461-0.2-6.934,2.794-7.067,6.574
			c-0.14,3.767,2.807,6.934,6.574,7.067c1.092,0.039,2.232,0.227,3.386,0.553c0.621,0.179,1.248,0.259,1.867,0.259
			c2.975,0,5.714-1.961,6.56-4.966C288.799,56.552,286.693,52.78,283.066,51.753z"/>
	</g>
</g>
<g>
	<g>
		<path d="M284.495,58.779c0,0,0,0,0-0.007c-6.84-13.974-30.447-15.52-54.927-3.56c-24.474,11.96-37.78,31.527-30.954,45.507
			c3.753,7.68,12.559,11.607,23.793,11.607c9.228,0,20.094-2.645,31.128-8.04C278.014,92.332,291.321,72.772,284.495,58.779z
			 M247.545,92.02c-18.726,9.141-34.219,7.714-36.666,2.714c-2.441-5,5.96-18.108,24.68-27.254c9.793-4.78,18.7-6.666,25.32-6.666
			c6.04,0,10.18,1.574,11.346,3.959C274.659,69.781,266.259,82.881,247.545,92.02z"/>
	</g>
</g>
<g>
	<g>
		<path d="M293.472,137.047c-3.721-0.461-7.2,2.019-7.76,5.746c-1.574,10.54-7.593,18.627-7.653,18.707
			c-2.273,2.994-1.693,7.267,1.294,9.554c1.241,0.939,2.693,1.399,4.14,1.399c2.053,0,4.087-0.92,5.432-2.68
			c0.333-0.44,8.18-10.841,10.293-24.967C299.771,141.08,297.206,137.607,293.472,137.047z"/>
	</g>
</g>
<g>
	<g>
		<path d="M213.74,100.934c-1.661-3.393-5.753-4.808-9.127-3.14l-36.666,17.913c-3.393,1.654-4.794,5.741-3.14,9.127
			c1.188,2.427,3.615,3.833,6.141,3.833c1.007,0,2.028-0.22,2.987-0.693l36.666-17.913
			C213.992,108.407,215.393,104.32,213.74,100.934z"/>
	</g>
</g>
<g>
	<g>
		<path d="M228.011,100.806c-2.579-2.76-6.893-2.9-9.653-0.333l-30.826,28.779c-2.753,2.574-2.9,6.893-0.333,9.653
			c1.347,1.44,3.168,2.167,4.994,2.167c1.674,0,3.34-0.606,4.659-1.841l30.826-28.779
			C230.431,107.885,230.578,103.566,228.011,100.806z"/>
	</g>
</g>
<g>
	<g>
		<path d="M282.426,226.292c-1.434-5.733-4.014-11.086-7.467-15.473c-2.326-2.959-6.627-3.473-9.586-1.147
			c-2.966,2.333-3.473,6.627-1.147,9.586c2.273,2.888,3.98,6.46,4.946,10.334c2.681,10.772-1.12,21.386-8.306,23.173
			c-4.253,1.074-8.107-1.374-10.02-2.934c-3.806-3.099-6.781-8.066-8.166-13.646c-1.234-4.925-1.154-9.993,0.22-14.266
			c1.154-3.586-0.821-7.433-4.413-8.586c-3.572-1.133-7.426,0.821-8.586,4.413c-2.173,6.753-2.333,14.273-0.473,21.74
			c2.113,8.501,6.659,15.94,12.8,20.934c5.019,4.093,10.848,6.253,16.573,6.253c1.806,0,3.606-0.22,5.366-0.655
			C278.779,262.379,286.966,244.558,282.426,226.292z"/>
	</g>
</g>
<g>
	<g>
		<path d="M270.454,185.108c-5.175-8.561-13.013-14.867-21.501-17.3c-3.68-1.007-7.407,1.067-8.446,4.687
			c-1.034,3.627,1.067,7.407,4.687,8.446c5.141,1.466,10.213,5.666,13.573,11.227c5.74,9.506,5.233,20.767-1.101,24.593
			c-6.333,3.82-16.541-0.981-22.274-10.474c-1.952-3.232-6.153-4.279-9.373-2.319c-3.226,1.952-4.267,6.146-2.319,9.373
			c6.994,11.573,18.459,18.333,29.146,18.333c4.186,0,8.247-1.032,11.875-3.219C277.606,220.669,280.18,201.228,270.454,185.108z"/>
	</g>
</g>
<g>
	<g>
		<path d="M248.931,167.808c-2.207-0.626-4.434-0.98-6.613-1.06c-0.078-0.007-0.166-0.007-0.253-0.007
			c-3.652,0-6.68,2.893-6.813,6.579c-0.14,3.767,2.807,6.934,6.574,7.067c1.092,0.039,2.232,0.227,3.386,0.553
			c0.621,0.179,1.248,0.259,1.867,0.259c2.975,0,5.714-1.961,6.559-4.965C254.664,172.607,252.558,168.835,248.931,167.808z"/>
	</g>
</g>
<g>
	<g>
		<path d="M250.361,174.833c0,0,0,0,0-0.007c-6.84-13.974-30.44-15.52-54.927-3.56c-24.474,11.96-37.78,31.527-30.954,45.507
			c3.753,7.68,12.559,11.607,23.793,11.607c9.228,0,20.094-2.645,31.128-8.04C243.881,208.386,257.188,188.826,250.361,174.833z
			 M213.412,208.073c-18.732,9.148-34.219,7.721-36.666,2.714c-2.441-5.001,5.96-18.108,24.68-27.254
			c9.793-4.78,18.7-6.666,25.32-6.666c6.04,0,10.18,1.574,11.346,3.959C240.526,185.834,232.125,198.934,213.412,208.073z"/>
	</g>
</g>
<g>
	<g>
		<path d="M259.338,253.1c-3.741-0.493-7.2,2.026-7.76,5.746c-1.574,10.54-7.593,18.627-7.653,18.707
			c-2.273,2.994-1.693,7.267,1.294,9.554c1.241,0.939,2.693,1.399,4.14,1.399c2.053,0,4.087-0.92,5.432-2.68
			c0.333-0.44,8.18-10.841,10.293-24.967C265.638,257.133,263.072,253.66,259.338,253.1z"/>
	</g>
</g>
<g>
	<g>
		<path d="M179.606,216.987c-1.661-3.393-5.76-4.801-9.127-3.14l-36.666,17.913c-3.393,1.654-4.794,5.741-3.14,9.127
			c1.188,2.427,3.615,3.833,6.141,3.833c1.007,0,2.028-0.22,2.987-0.693l36.666-17.913
			C179.859,224.461,181.26,220.373,179.606,216.987z"/>
	</g>
</g>
<g>
	<g>
		<path d="M193.877,216.859c-2.579-2.76-6.893-2.9-9.653-0.333l-30.826,28.78c-2.753,2.574-2.9,6.893-0.333,9.653
			c1.347,1.44,3.168,2.167,4.994,2.167c1.674,0,3.34-0.606,4.659-1.841l30.826-28.78
			C196.297,223.939,196.444,219.619,193.877,216.859z"/>
	</g>
</g>
<g>
</g>
<g>
</g>
<g>
</g>
<g>
</g>
<g>
</g>
<g>
</g>
<g>
</g>
<g>
</g>
<g>
</g>
<g>
</g>
<g>
</g>
<g>
</g>
<g>
</g>
<g>
</g>
<g>
</g>
</svg>
