<?xml version="1.0" encoding="iso-8859-1"?>
<!-- Generator: Adobe Illustrator 19.0.0, SVG Export Plug-In . SVG Version: 6.00 Build 0)  -->
<svg version="1.1" id="Capa_1" xmlns="http://www.w3.org/2000/svg" xmlns:xlink="http://www.w3.org/1999/xlink" x="0px" y="0px"
	 viewBox="0 0 423.253 423.253" style="enable-background:new 0 0 423.253 423.253;" xml:space="preserve">
<g>
	<g>
		<path d="M348.16,163.84H68.267c-3.773,0-6.827,3.057-6.827,6.827v211.627c0,3.77,3.053,6.827,6.827,6.827H348.16
			c3.773,0,6.827-3.057,6.827-6.827V170.667C354.987,166.897,351.933,163.84,348.16,163.84z M341.333,375.467H75.093V177.493h266.24
			V375.467z"/>
	</g>
</g>
<g>
	<g>
		<path d="M320.596,257.536l-13.653-47.787c-0.841-2.929-3.521-4.949-6.567-4.949h-184.32c-3.048,0-5.728,2.019-6.567,4.949
			l-13.653,47.787c-0.587,2.06-0.174,4.277,1.113,5.987c1.292,1.71,3.313,2.717,5.453,2.717h211.627c2.14,0,4.161-1.007,5.456-2.717
			C320.77,261.813,321.183,259.596,320.596,257.536z M111.454,252.587l9.747-34.133h174.027l9.747,34.133H111.454z"/>
	</g>
</g>
<g>
	<g>
		<path d="M416.427,375.467H6.827c-3.773,0-6.827,3.057-6.827,6.827V409.6c0,3.77,3.053,6.827,6.827,6.827h409.6
			c3.773,0,6.827-3.057,6.827-6.827v-27.307C423.253,378.523,420.2,375.467,416.427,375.467z M409.6,402.773H13.653V389.12H409.6
			V402.773z"/>
	</g>
</g>
<g>
	<g>
		<path d="M395.947,6.827h-102.4c-15.06,0-27.307,12.25-27.307,27.307h-13.653c-15.06,0-27.307,12.25-27.307,27.307
			c0,5.484,1.613,10.767,4.673,15.281c2.115,3.12,6.361,3.932,9.48,1.819c3.127-2.115,3.939-6.357,1.826-9.481
			c-1.519-2.244-2.326-4.881-2.326-7.62c0-7.53,6.127-13.653,13.653-13.653h21.733c2.214,0,4.294-1.075,5.574-2.886
			c1.28-1.811,1.601-4.13,0.86-6.221c-0.58-1.637-0.86-3.123-0.86-4.547c0-7.53,6.127-13.653,13.653-13.653h102.4
			c7.526,0,13.653,6.124,13.653,13.653c0,7.53-6.127,13.653-13.653,13.653h-21.733c-2.214,0-4.294,1.075-5.574,2.886
			c-1.28,1.811-1.601,4.13-0.86,6.217c0.58,1.64,0.86,3.127,0.86,4.55c0,6.456-4.581,12.083-10.894,13.377
			c-3.693,0.754-6.079,4.361-5.32,8.057c0.661,3.229,3.507,5.456,6.68,5.456c0.454,0,0.913-0.044,1.374-0.14
			c12.64-2.584,21.813-13.838,21.813-26.75h13.653c15.06,0,27.307-12.25,27.307-27.307S411.006,6.827,395.947,6.827z"/>
	</g>
</g>
<g>
	<g>
		<path d="M300.373,252.587h-184.32c-3.773,0-6.827,3.057-6.827,6.827v81.92c0,3.77,3.053,6.827,6.827,6.827h184.32
			c3.773,0,6.827-3.057,6.827-6.827v-81.92C307.2,255.643,304.147,252.587,300.373,252.587z M293.547,334.507H122.88V266.24h170.667
			V334.507z"/>
	</g>
</g>
<g>
	<g>
		<path d="M150.187,40.96h-102.4c-15.06,0-27.307,12.25-27.307,27.307s12.247,27.307,27.307,27.307h8.887
			c3.773,0,6.827-3.057,6.827-6.827s-3.053-6.827-6.827-6.827h-8.887c-7.526,0-13.653-6.124-13.653-13.653
			c0-7.53,6.127-13.653,13.653-13.653h102.4c7.526,0,13.653,6.123,13.653,13.653c0,0.94-0.094,1.867-0.273,2.756
			c-0.761,3.693,1.62,7.301,5.313,8.057c3.734,0.787,7.308-1.62,8.061-5.316c0.367-1.787,0.553-3.637,0.553-5.497
			C177.493,53.21,165.246,40.96,150.187,40.96z"/>
	</g>
</g>
<g>
	<g>
		<path d="M382.14,169.236l-20.48-95.573c-0.672-3.147-3.453-5.396-6.673-5.396H61.44c-3.221,0-6.001,2.249-6.673,5.396
			l-20.48,95.573c-0.434,2.017,0.067,4.122,1.367,5.724c1.292,1.603,3.246,2.533,5.306,2.533h334.507c2.06,0,4.014-0.93,5.306-2.533
			C382.073,173.356,382.573,171.254,382.14,169.236z M49.406,163.84l17.553-81.92h282.508l17.553,81.92H49.406z"/>
	</g>
</g>
<g>
	<g>
		<path d="M161.84,275.067c-2.666-2.666-6.987-2.666-9.653,0l-23.893,23.893c-2.666,2.666-2.666,6.987,0,9.653
			c1.333,1.333,3.081,2,4.826,2s3.494-0.667,4.826-2l23.893-23.893C164.506,282.054,164.506,277.733,161.84,275.067z"/>
	</g>
</g>
<g>
</g>
<g>
</g>
<g>
</g>
<g>
</g>
<g>
</g>
<g>
</g>
<g>
</g>
<g>
</g>
<g>
</g>
<g>
</g>
<g>
</g>
<g>
</g>
<g>
</g>
<g>
</g>
<g>
</g>
</svg>
