<?xml version="1.0" encoding="iso-8859-1"?>
<!-- Generator: Adobe Illustrator 19.0.0, SVG Export Plug-In . SVG Version: 6.00 Build 0)  -->
<svg version="1.1" id="Capa_1" xmlns="http://www.w3.org/2000/svg" xmlns:xlink="http://www.w3.org/1999/xlink" x="0px" y="0px"
	 viewBox="0 0 402.583 402.583" style="enable-background:new 0 0 402.583 402.583;" xml:space="preserve">
<g>
	<g>
		<path d="M388.085,209.391c-5.081-6.992-10.774-12.826-16.934-17.333c-3.034-2.241-7.32-1.567-9.54,1.473
			c-2.227,3.04-1.567,7.313,1.473,9.54c5.014,3.673,9.707,8.499,13.961,14.346c22.921,31.555,11.96,63.961-32.58,96.321
			c-36.28,26.359-87.574,47.073-121.974,49.246c-3.76,0.241-6.62,3.48-6.38,7.247c0.227,3.613,3.232,6.393,6.806,6.393
			c0.147,0,0.294-0.007,0.442-0.014c37.28-2.36,90.38-23.673,129.133-51.833C417.091,277.844,407.505,236.125,388.085,209.391z"/>
	</g>
</g>
<g>
	<g>
		<path d="M177.851,362.828c-34.761-2.881-84.045-23.067-119.854-49.087c-24.282-17.647-38.75-35.466-42.996-52.98
			c-3.5-14.428,0.005-29.008,10.419-43.341c4.277-5.888,8.998-10.733,14.024-14.394c3.046-2.22,3.717-6.494,1.497-9.54
			c-2.22-3.04-6.487-3.714-9.537-1.5c-6.185,4.506-11.914,10.366-17.031,17.406C1.496,227.117-2.757,245.477,1.73,263.977
			c5.035,20.746,21.263,41.208,48.241,60.8c37.63,27.348,89.75,48.587,126.747,51.661c0.193,0.014,0.387,0.021,0.573,0.021
			c3.512,0,6.499-2.7,6.799-6.258C184.398,366.441,181.604,363.142,177.851,362.828z"/>
	</g>
</g>
<g>
	<g>
		<path d="M348.763,106.053c-8.692-5.013-17.626-7.98-26.559-8.813c-3.693-0.387-7.079,2.406-7.433,6.166
			c-0.346,3.753,2.413,7.079,6.166,7.432c6.96,0.647,14.027,3.014,21.001,7.04c33.78,19.5,33.587,59.38-0.56,118.526
			c-43.807,75.867-118.554,143.766-142.8,129.78c-3.26-1.893-7.441-0.766-9.327,2.5c-1.886,3.267-0.766,7.441,2.5,9.327
			c4.134,2.388,8.779,3.5,13.846,3.5c41.839,0,111.7-76.087,147.606-138.279C401.376,159.792,377.377,122.58,348.763,106.053z"/>
	</g>
</g>
<g>
	<g>
		<path d="M213.339,368.687c-1.888-3.267-6.074-4.393-9.327-2.5c-24.24,13.967-99-53.914-142.797-129.78
			c-34.15-59.146-34.336-99.026-0.567-118.526c6.193-3.567,12.467-5.847,18.65-6.76c3.729-0.553,6.306-4.028,5.753-7.753
			c-0.553-3.726-4.053-6.246-7.753-5.753c-7.887,1.166-15.783,4.006-23.474,8.44c-28.614,16.527-52.611,53.739-4.437,137.18
			c35.91,62.199,105.759,138.279,147.603,138.279c5.06,0,9.713-1.121,13.848-3.499C214.105,376.126,215.227,371.953,213.339,368.687
			z"/>
	</g>
</g>
<g>
	<g>
		<path d="M325.858,94.123c-7.313-21.554-21.98-35.207-43.6-40.593c-8.767-2.193-17.321-2.606-25.421-1.266
			c-3.714,0.62-6.226,4.139-5.606,7.859c0.626,3.714,4.139,6.26,7.859,5.606c6.241-1.034,12.928-0.695,19.86,1.046
			c17.06,4.248,28.174,14.628,33.98,31.734c7.148,21.067,5.794,51.693-4.019,91.04c-10.674,42.82-29.727,90.006-50.98,126.227
			c-25.107,42.781-44.5,55.441-54.274,52.987c-3.674-0.881-7.375,1.319-8.281,4.973c-0.906,3.661,1.319,7.368,4.973,8.281
			c1.961,0.486,3.934,0.72,5.907,0.72c23.127,0,46.967-31.959,63.449-60.054c21.873-37.279,41.486-85.813,52.46-129.826
			C332.618,150.923,333.859,117.709,325.858,94.123z"/>
	</g>
</g>
<g>
	<g>
		<path d="M205.313,373.737c-0.922-3.654-4.64-5.847-8.281-4.973c-9.793,2.446-29.17-10.214-54.27-52.987
			c-21.25-36.221-40.31-83.407-50.987-126.227c-9.81-39.347-11.162-69.973-4.014-91.04c5.803-17.108,16.917-27.488,33.976-31.734
			c8.073-2.021,15.799-2.161,22.946-0.42c3.657,0.901,7.354-1.353,8.247-5.019c0.891-3.666-1.357-7.354-5.019-8.247
			c-9.317-2.266-19.239-2.113-29.476,0.433c-21.623,5.393-36.294,19.046-43.604,40.6c-8.003,23.588-6.76,56.801,3.697,98.734
			c10.972,44.013,30.583,92.546,52.456,129.826c16.483,28.093,40.32,60.054,63.447,60.054c1.973,0,3.946-0.232,5.908-0.72
			C203.993,381.103,206.219,377.397,205.313,373.737z"/>
	</g>
</g>
<g>
	<g>
		<path d="M203.203,16.972c-35.813,0-78.507,23.687-78.507,136.533c0,94.64,30.583,232.107,78.507,232.107
			c47.927,0,78.507-137.467,78.507-232.107C281.71,40.658,239.016,16.972,203.203,16.972z M203.203,371.958
			c-30.909,0-64.853-114.333-64.853-218.453c0-81.539,21.82-122.88,64.853-122.88c43.034,0,64.853,41.341,64.853,122.88
			C268.057,257.625,234.116,371.958,203.203,371.958z"/>
	</g>
</g>
<g>
</g>
<g>
</g>
<g>
</g>
<g>
</g>
<g>
</g>
<g>
</g>
<g>
</g>
<g>
</g>
<g>
</g>
<g>
</g>
<g>
</g>
<g>
</g>
<g>
</g>
<g>
</g>
<g>
</g>
</svg>
