<?xml version="1.0" encoding="iso-8859-1"?>
<!-- Generator: Adobe Illustrator 19.0.0, SVG Export Plug-In . SVG Version: 6.00 Build 0)  -->
<svg version="1.1" id="Capa_1" xmlns="http://www.w3.org/2000/svg" xmlns:xlink="http://www.w3.org/1999/xlink" x="0px" y="0px"
	 viewBox="0 0 409.6 409.6" style="enable-background:new 0 0 409.6 409.6;" xml:space="preserve">
<g>
	<g>
		<path d="M167.253,279.893H51.2c-3.77,0-6.827,3.053-6.827,6.827v102.287c0,11.353,9.236,20.593,20.593,20.593h88.521
			c11.356,0,20.593-9.24,20.593-20.593V286.72C174.08,282.947,171.023,279.893,167.253,279.893z M160.425,389.007
			c0,3.826-3.113,6.939-6.939,6.939h-88.52c-3.826,0-6.939-3.113-6.939-6.939v-95.461h102.398V389.007z"/>
	</g>
</g>
<g>
	<g>
		<path d="M167.253,211.627H51.2c-3.77,0-6.827,3.053-6.827,6.827v68.267c0,3.773,3.057,6.827,6.827,6.827h116.053
			c3.77,0,6.827-3.053,6.827-6.827v-68.267C174.08,214.68,171.023,211.627,167.253,211.627z M160.427,279.893h-102.4V225.28h102.4
			V279.893z"/>
	</g>
</g>
<g>
	<g>
		<path d="M167.253,109.227H51.2c-3.77,0-6.827,3.053-6.827,6.827v102.4c0,3.773,3.057,6.827,6.827,6.827h116.053
			c3.77,0,6.827-3.053,6.827-6.827v-102.4C174.08,112.28,171.023,109.227,167.253,109.227z M160.427,211.627h-102.4V122.88h102.4
			V211.627z"/>
	</g>
</g>
<g>
	<g>
		<path d="M180.907,88.747H37.547c-3.77,0-6.827,3.053-6.827,6.827v20.48c0,3.773,3.057,6.827,6.827,6.827h143.36
			c3.77,0,6.827-3.053,6.827-6.827v-20.48C187.733,91.8,184.677,88.747,180.907,88.747z M174.08,109.227H44.373V102.4H174.08
			V109.227z"/>
	</g>
</g>
<g>
	<g>
		<path d="M173.262,92.339L125.476,3.593C124.286,1.381,121.977,0,119.467,0h-20.48c-2.51,0-4.82,1.381-6.011,3.594L45.189,92.341
			c-1.14,2.113-1.084,4.673,0.15,6.733c1.231,2.067,3.458,3.326,5.861,3.326h116.053c2.403,0,4.63-1.259,5.859-3.328
			C174.346,97.012,174.403,94.452,173.262,92.339z M62.629,88.747l40.433-75.093h12.327l40.433,75.093H62.629z"/>
	</g>
</g>
<g>
	<g>
		<path d="M358.402,279.893H242.348c-3.77,0-6.827,3.053-6.827,6.827v102.287c0,11.353,9.236,20.593,20.593,20.593h88.52
			c11.356,0,20.593-9.24,20.594-20.593V286.72C365.228,282.947,362.172,279.893,358.402,279.893z M351.572,389.007
			c0,3.826-3.113,6.939-6.939,6.939h-88.52c-3.826,0-6.939-3.113-6.939-6.939v-95.461h102.398V389.007z"/>
	</g>
</g>
<g>
	<g>
		<path d="M358.4,211.627H242.347c-3.77,0-6.827,3.053-6.827,6.827v68.267c0,3.773,3.057,6.827,6.827,6.827H358.4
			c3.77,0,6.827-3.053,6.827-6.827v-68.267C365.227,214.68,362.17,211.627,358.4,211.627z M351.573,279.893h-102.4V225.28h102.4
			V279.893z"/>
	</g>
</g>
<g>
	<g>
		<path d="M358.4,170.667H242.347c-3.77,0-6.827,3.053-6.827,6.827v40.96c0,3.773,3.057,6.827,6.827,6.827H358.4
			c3.77,0,6.827-3.053,6.827-6.827v-40.96C365.227,173.72,362.17,170.667,358.4,170.667z M351.573,211.627h-102.4V184.32h102.4
			V211.627z"/>
	</g>
</g>
<g>
	<g>
		<path d="M372.053,150.187h-143.36c-3.77,0-6.827,3.053-6.827,6.827v20.48c0,3.773,3.057,6.827,6.827,6.827h143.36
			c3.77,0,6.827-3.053,6.827-6.827v-20.48C378.88,153.24,375.823,150.187,372.053,150.187z M365.227,170.667H235.52v-6.827h129.707
			V170.667z"/>
	</g>
</g>
<g>
	<g>
		<path d="M364.409,153.779l-47.787-88.747c-1.19-2.212-3.499-3.593-6.009-3.593h-20.48c-2.51,0-4.82,1.381-6.011,3.594
			l-47.787,88.747c-1.14,2.113-1.084,4.673,0.15,6.733c1.231,2.067,3.458,3.326,5.861,3.326H358.4c2.403,0,4.63-1.26,5.859-3.328
			C365.493,158.452,365.549,155.892,364.409,153.779z M253.776,150.187l40.433-75.093h12.327l40.433,75.093H253.776z"/>
	</g>
</g>
<g>
</g>
<g>
</g>
<g>
</g>
<g>
</g>
<g>
</g>
<g>
</g>
<g>
</g>
<g>
</g>
<g>
</g>
<g>
</g>
<g>
</g>
<g>
</g>
<g>
</g>
<g>
</g>
<g>
</g>
</svg>
