<?xml version="1.0" encoding="iso-8859-1"?>
<!-- Generator: Adobe Illustrator 19.0.0, SVG Export Plug-In . SVG Version: 6.00 Build 0)  -->
<svg version="1.1" id="Capa_1" xmlns="http://www.w3.org/2000/svg" xmlns:xlink="http://www.w3.org/1999/xlink" x="0px" y="0px"
	 viewBox="0 0 437.946 437.946" style="enable-background:new 0 0 437.946 437.946;" xml:space="preserve">
<g>
	<g>
		<path d="M340.374,38.265L310.937,8.828c-1.79-1.787-4.417-2.447-6.83-1.7c-2.417,0.742-4.224,2.756-4.7,5.236l-5.644,29.363
			c-0.667,3.476,1.427,6.84,4.743,7.83c0.024,0.21,0.055,0.42,0.094,0.63c0.626,3.27,3.487,5.54,6.697,5.54
			c0.427,0,0.86-0.039,1.294-0.123l30.244-5.81c2.483-0.476,4.495-2.284,5.24-4.7C342.815,42.678,342.161,40.052,340.374,38.265z
			 M307.715,41.487l2.669-13.903l11.233,11.23L307.715,41.487z"/>
	</g>
</g>
<g>
	<g>
		<path d="M306.111,42.618c-10.313-10.317-24.026-15.997-38.617-15.997c-14.587,0-28.3,5.68-38.617,15.997L40.617,230.877
			C30.3,241.191,24.62,254.904,24.62,269.494c0,14.587,5.68,28.3,15.997,38.617c10.317,10.317,24.03,15.997,38.617,15.997
			c14.59,0,28.303-5.68,38.617-15.997l188.261-188.259c10.317-10.317,15.997-24.03,15.997-38.617
			C322.108,66.645,316.428,52.932,306.111,42.618z M296.456,110.197L108.197,298.46c-7.736,7.736-18.021,11.996-28.964,11.996
			c-10.94,0-21.227-4.26-28.964-11.996s-11.996-18.024-11.996-28.964c0-10.943,4.26-21.227,11.996-28.964L238.53,52.271
			c7.736-7.736,18.024-11.996,28.964-11.996c10.943,0,21.226,4.258,28.962,11.994s11.996,18.021,11.996,28.964
			C308.452,92.173,304.193,102.461,296.456,110.197z"/>
	</g>
</g>
<g>
	<g>
		<path d="M48.094,301.107c-1.601-1.604-3.883-2.321-6.117-1.877l-36.441,7.004c-2.48,0.476-4.492,2.284-5.236,4.7
			c-0.741,2.417-0.087,5.043,1.7,6.83L31.437,347.2c1.3,1.3,3.043,2,4.826,2c0.671,0,1.343-0.096,2.004-0.3
			c2.417-0.742,4.224-2.756,4.7-5.236l7.004-36.441C50.398,304.996,49.694,302.708,48.094,301.107z M31.99,328.444l-11.233-11.233
			l13.903-2.669L31.99,328.444z"/>
	</g>
</g>
<g>
	<g>
		<path d="M248.183,61.926c-2.666-2.666-6.987-2.666-9.653,0L59.928,240.532c-2.666,2.666-2.666,6.987,0,9.653
			c1.333,1.333,3.081,2,4.826,2c1.746,0,3.494-0.667,4.826-2L248.183,71.579C250.849,68.913,250.849,64.592,248.183,61.926z"/>
	</g>
</g>
<g>
	<g>
		<path d="M435.946,120.186L406.509,90.75c-1.787-1.787-4.407-2.444-6.83-1.7c-2.413,0.739-4.224,2.756-4.7,5.236l-5.676,29.53
			c-0.676,3.509,1.468,6.909,4.847,7.859c0.021,0.143,0.043,0.287,0.07,0.43c0.626,3.267,3.487,5.536,6.697,5.536
			c0.427,0,0.86-0.041,1.297-0.123l30.196-5.803c2.48-0.476,4.492-2.284,5.236-4.7C438.386,124.6,437.732,121.973,435.946,120.186z
			 M403.285,123.407l2.673-13.902l11.233,11.233L403.285,123.407z"/>
	</g>
</g>
<g>
	<g>
		<path d="M401.684,124.538c-10.313-10.317-24.026-15.997-38.617-15.997c-14.587,0-28.3,5.68-38.617,15.997L136.19,312.797
			c-10.317,10.313-15.997,24.026-15.997,38.617c0,14.587,5.68,28.3,15.997,38.617c10.317,10.317,24.03,15.997,38.617,15.997
			c14.59,0,28.303-5.68,38.617-15.997l188.261-188.259c10.317-10.317,15.997-24.03,15.997-38.617
			C417.681,148.565,412.001,134.852,401.684,124.538z M392.03,192.117L203.771,380.38c-7.736,7.736-18.021,11.996-28.964,11.996
			c-10.94,0-21.228-4.26-28.964-11.996s-11.996-18.024-11.996-28.964c0-10.943,4.26-21.227,11.996-28.964l188.261-188.261
			c7.736-7.736,18.024-11.996,28.964-11.996c10.943,0,21.226,4.258,28.962,11.995s11.996,18.021,11.996,28.964
			C404.026,174.093,399.766,184.381,392.03,192.117z"/>
	</g>
</g>
<g>
	<g>
		<path d="M143.667,383.027c-1.603-1.601-3.878-2.307-6.117-1.877l-36.441,7.004c-2.48,0.476-4.492,2.284-5.236,4.7
			c-0.741,2.417-0.087,5.043,1.7,6.83l29.437,29.437c1.3,1.3,3.043,2,4.826,2c0.671,0,1.343-0.096,2.004-0.3
			c2.417-0.742,4.224-2.756,4.7-5.236l7.004-36.441C145.971,386.916,145.268,384.628,143.667,383.027z M127.563,410.364
			l-11.233-11.233l13.903-2.669L127.563,410.364z"/>
	</g>
</g>
<g>
	<g>
		<path d="M343.757,143.846c-2.666-2.666-6.987-2.666-9.653,0L155.501,322.452c-2.666,2.666-2.666,6.987,0,9.653
			c1.333,1.333,3.081,2,4.826,2s3.494-0.667,4.826-2l178.603-178.606C346.422,150.833,346.422,146.512,343.757,143.846z"/>
	</g>
</g>
<g>
</g>
<g>
</g>
<g>
</g>
<g>
</g>
<g>
</g>
<g>
</g>
<g>
</g>
<g>
</g>
<g>
</g>
<g>
</g>
<g>
</g>
<g>
</g>
<g>
</g>
<g>
</g>
<g>
</g>
</svg>
