<?xml version="1.0" encoding="iso-8859-1"?>
<!-- Generator: Adobe Illustrator 19.0.0, SVG Export Plug-In . SVG Version: 6.00 Build 0)  -->
<svg version="1.1" id="Capa_1" xmlns="http://www.w3.org/2000/svg" xmlns:xlink="http://www.w3.org/1999/xlink" x="0px" y="0px"
	 viewBox="0 0 415.681 415.681" style="enable-background:new 0 0 415.681 415.681;" xml:space="preserve">
<g>
	<g>
		<path d="M340.382,31.44L310.942,2c-1.787-1.787-4.42-2.441-6.827-1.7c-2.42,0.739-4.227,2.76-4.707,5.239l-7.001,36.441
			c-0.427,2.22,0.28,4.512,1.881,6.113c1.294,1.294,3.033,2,4.826,2c0.427,0,0.86-0.039,1.287-0.119l36.441-7.001
			c2.48-0.48,4.499-2.287,5.239-4.707C342.822,35.853,342.169,33.227,340.382,31.44z M307.723,34.66l2.666-13.906l11.24,11.24
			L307.723,34.66z"/>
	</g>
</g>
<g>
	<g>
		<path d="M306.115,35.794c-21.301-21.299-55.946-21.287-77.233,0L40.621,224.054c-21.294,21.294-21.294,55.939,0,77.233
			c10.646,10.646,24.634,15.973,38.613,15.973c13.988,0,27.974-5.327,38.62-15.973l188.261-188.261
			C327.409,91.733,327.409,57.088,306.115,35.794z M296.462,103.374L108.202,291.633c-15.986,15.98-41.965,15.966-57.926,0
			c-15.966-15.973-15.966-41.953,0-57.926L238.535,45.448c7.987-7.987,18.473-11.981,28.96-11.981
			c10.493,0,20.98,3.994,28.967,11.981C312.428,61.421,312.428,87.402,296.462,103.374z"/>
	</g>
</g>
<g>
	<g>
		<path d="M48.096,294.287c-1.599-1.601-3.893-2.294-6.113-1.881l-36.441,7.001c-2.48,0.48-4.499,2.287-5.239,4.707
			c-0.741,2.413-0.087,5.04,1.7,6.827l29.44,29.44c1.3,1.3,3.04,2,4.826,2c0.666,0,1.347-0.101,2-0.3
			c2.42-0.739,4.227-2.76,4.707-5.24l7.001-36.441C50.404,298.18,49.695,295.888,48.096,294.287z M31.996,321.628l-11.24-11.24
			l13.906-2.666L31.996,321.628z"/>
	</g>
</g>
<g>
	<g>
		<path d="M248.188,55.101c-2.666-2.666-6.987-2.666-9.653,0L59.929,233.707c-2.666,2.666-2.666,6.987,0,9.653
			c1.333,1.333,3.081,2,4.826,2c1.748,0,3.494-0.666,4.826-2L248.188,64.754C250.853,62.088,250.853,57.767,248.188,55.101z"/>
	</g>
</g>
<g>
	<g>
		<path d="M275.354,198.123l-53.1-53.1c-2.666-2.666-6.987-2.666-9.653,0c-2.666,2.666-2.666,6.987,0,9.653l53.1,53.1
			c15.966,15.973,15.966,41.953,0,57.926c-15.98,15.973-41.96,15.966-57.926,0l-53.1-53.1c-2.666-2.666-6.987-2.666-9.653,0
			c-2.666,2.666-2.666,6.987,0,9.653l53.099,53.1c10.646,10.646,24.634,15.973,38.62,15.973c13.979,0,27.965-5.327,38.612-15.971
			C296.648,254.063,296.648,219.417,275.354,198.123z"/>
	</g>
</g>
<g>
	<g>
		<path d="M275.354,265.701L173.982,164.328c-2.666-2.666-6.987-2.666-9.653,0c-2.666,2.666-2.666,6.987,0,9.653l101.373,101.373
			c1.333,1.333,3.081,2,4.826,2c1.748,0,3.494-0.666,4.826-2C278.02,272.688,278.02,268.366,275.354,265.701z"/>
	</g>
</g>
<g>
	<g>
		<path d="M409.688,380.721L285.007,256.048c-2.666-2.666-6.987-2.666-9.653,0l-19.306,19.306c-2.666,2.666-2.666,6.987,0,9.653
			l124.674,124.68c3.992,3.994,9.24,5.994,14.479,5.994c5.246,0,10.494-2,14.486-5.992
			C417.675,401.701,417.675,388.709,409.688,380.721z M400.035,400.036c-2.659,2.666-6.987,2.666-9.66,0L270.528,280.182
			l9.653-9.653l119.854,119.847C402.695,393.042,402.694,397.37,400.035,400.036z"/>
	</g>
</g>
<g>
</g>
<g>
</g>
<g>
</g>
<g>
</g>
<g>
</g>
<g>
</g>
<g>
</g>
<g>
</g>
<g>
</g>
<g>
</g>
<g>
</g>
<g>
</g>
<g>
</g>
<g>
</g>
<g>
</g>
</svg>
