<?xml version="1.0" encoding="iso-8859-1"?>
<!-- Generator: Adobe Illustrator 19.0.0, SVG Export Plug-In . SVG Version: 6.00 Build 0)  -->
<svg version="1.1" id="Capa_1" xmlns="http://www.w3.org/2000/svg" xmlns:xlink="http://www.w3.org/1999/xlink" x="0px" y="0px"
	 viewBox="0 0 423.253 423.253" style="enable-background:new 0 0 423.253 423.253;" xml:space="preserve">
<g>
	<g>
		<path d="M92.16,102.4c-33.881,0-61.44,27.559-61.44,61.44c0,40.96,39.967,40.96,61.44,40.96s61.44,0,61.44-40.96
			C153.6,129.959,126.041,102.4,92.16,102.4z M92.16,191.147c-35.727,0-47.787-6.893-47.787-27.307
			c0-26.348,21.439-47.787,47.787-47.787s47.787,21.439,47.787,47.787C139.947,184.253,127.887,191.147,92.16,191.147z"/>
	</g>
</g>
<g>
	<g>
		<path d="M146.671,389.234l-14.413-171.353c-0.294-3.533-3.253-6.253-6.799-6.253H58.859c-3.546,0-6.506,2.72-6.799,6.253
			L37.647,389.234c-0.667,7.905,2.106,15.679,7.806,21.879c7.086,7.712,17.766,12.14,29.3,12.14h34.813
			c11.534,0,22.214-4.427,29.298-12.14C144.565,404.915,147.338,397.141,146.671,389.234z M128.811,401.872
			c-4.439,4.84-11.639,7.726-19.246,7.726H74.752c-7.607,0-14.805-2.886-19.246-7.726c-2.186-2.372-4.693-6.293-4.26-11.493
			l13.887-165.1h54.054l13.884,165.1C133.504,395.578,130.997,399.498,128.811,401.872z"/>
	</g>
</g>
<g>
	<g>
		<path d="M406.187,409.6H17.067c-3.773,0-6.827,3.053-6.827,6.827s3.053,6.827,6.827,6.827h389.12c3.773,0,6.827-3.053,6.827-6.827
			S409.96,409.6,406.187,409.6z"/>
	</g>
</g>
<g>
	<g>
		<rect x="64.853" y="150.187" width="13.653" height="13.653"/>
	</g>
</g>
<g>
	<g>
		<rect x="105.813" y="150.187" width="13.653" height="13.653"/>
	</g>
</g>
<g>
	<g>
		<path d="M331.093,102.4c-33.881,0-61.44,27.559-61.44,61.44c0,40.96,39.967,40.96,61.44,40.96s61.44,0,61.44-40.96
			C392.533,129.959,364.974,102.4,331.093,102.4z M331.093,191.147c-35.727,0-47.787-6.893-47.787-27.307
			c0-26.348,21.439-47.787,47.787-47.787s47.787,21.439,47.787,47.787C378.88,184.253,366.821,191.147,331.093,191.147z"/>
	</g>
</g>
<g>
	<g>
		<path d="M385.604,389.234l-14.413-171.353c-0.294-3.533-3.253-6.253-6.799-6.253h-66.599c-3.546,0-6.506,2.72-6.799,6.253
			l-14.413,171.353c-0.667,7.905,2.106,15.679,7.806,21.879c7.086,7.712,17.766,12.14,29.3,12.14H348.5
			c11.534,0,22.214-4.427,29.298-12.14C383.498,404.915,386.272,397.141,385.604,389.234z M367.744,401.872
			c-4.439,4.84-11.639,7.726-19.246,7.726h-34.813c-7.607,0-14.805-2.886-19.246-7.726c-2.186-2.372-4.693-6.293-4.26-11.493
			l13.887-165.1h54.054l13.884,165.1C372.437,395.578,369.93,399.498,367.744,401.872z"/>
	</g>
</g>
<g>
	<g>
		<circle cx="331.093" cy="157.013" r="13.653"/>
	</g>
</g>
<g>
	<g>
		<path d="M229.327,81.794c-0.073-3.767-3.12-6.886-6.953-6.7c-3.767,0.073-6.767,3.186-6.7,6.953L221.74,409.6h-20.227
			l6.067-327.554c0.067-3.767-2.934-6.88-6.7-6.953c-0.046,0-0.087,0-0.126,0c-3.714,0-6.753,2.973-6.827,6.7L187.733,416.3
			c-0.032,1.833,0.674,3.599,1.954,4.907c1.285,1.312,3.04,2.046,4.873,2.046h34.133c1.833,0,3.587-0.734,4.873-2.046
			c1.28-1.307,1.988-3.074,1.954-4.907L229.327,81.794z"/>
	</g>
</g>
<g>
	<g>
		<path d="M256,0h-88.747c-3.773,0-6.827,3.053-6.827,6.827v30.72c0,28.233,22.967,51.2,51.2,51.2s51.2-22.967,51.2-51.2V6.827
			C262.827,3.053,259.773,0,256,0z M249.173,37.547c0,20.7-16.847,37.547-37.547,37.547S174.08,58.247,174.08,37.547V13.653h75.093
			V37.547z"/>
	</g>
</g>
<g>
</g>
<g>
</g>
<g>
</g>
<g>
</g>
<g>
</g>
<g>
</g>
<g>
</g>
<g>
</g>
<g>
</g>
<g>
</g>
<g>
</g>
<g>
</g>
<g>
</g>
<g>
</g>
<g>
</g>
</svg>
