<?xml version="1.0" encoding="iso-8859-1"?>
<!-- Generator: Adobe Illustrator 19.0.0, SVG Export Plug-In . SVG Version: 6.00 Build 0)  -->
<svg version="1.1" id="Capa_1" xmlns="http://www.w3.org/2000/svg" xmlns:xlink="http://www.w3.org/1999/xlink" x="0px" y="0px"
	 viewBox="0 0 361.813 361.813" style="enable-background:new 0 0 361.813 361.813;" xml:space="preserve">
<g>
	<g>
		<path d="M153.6,75.093H10.24c-3.77,0-6.827,3.057-6.827,6.827v273.067c0,3.77,3.057,6.827,6.827,6.827H153.6
			c3.77,0,6.827-3.057,6.827-6.827V81.92C160.427,78.15,157.37,75.093,153.6,75.093z M146.773,348.16H17.067V88.747h129.707V348.16z
			"/>
	</g>
</g>
<g>
	<g>
		<path d="M153.6,136.533H10.24c-3.77,0-6.827,3.057-6.827,6.827v157.013c0,3.77,3.057,6.827,6.827,6.827H153.6
			c3.77,0,6.827-3.057,6.827-6.827V143.36C160.427,139.59,157.37,136.533,153.6,136.533z M146.773,293.547H17.067v-143.36h129.707
			V293.547z"/>
	</g>
</g>
<g>
	<g>
		<path d="M133.12,27.307H30.72c-3.77,0-6.827,3.057-6.827,6.827V81.92c0,3.77,3.057,6.827,6.827,6.827h102.4
			c3.77,0,6.827-3.057,6.827-6.827V34.133C139.947,30.363,136.89,27.307,133.12,27.307z M126.293,75.093H37.547V40.96h88.747V75.093
			z"/>
	</g>
</g>
<g>
	<g>
		<path d="M153.6,0H10.24C6.47,0,3.413,3.057,3.413,6.827v27.307c0,3.77,3.057,6.827,6.827,6.827H153.6
			c3.77,0,6.827-3.057,6.827-6.827V6.827C160.427,3.057,157.37,0,153.6,0z M146.773,27.307H17.067V13.653h129.707V27.307z"/>
	</g>
</g>
<g>
	<g>
		<path d="M109.79,223.986c-0.923-2.266-2.137-4.306-3.637-6.113c-1.5-1.811-3.195-3.424-5.077-4.847
			c-1.883-1.423-3.816-2.739-5.796-3.953c-1.983-1.21-3.915-2.365-5.799-3.459c-1.883-1.097-3.567-2.224-5.047-3.378
			c-1.483-1.152-2.674-2.372-3.577-3.662c-0.906-1.287-1.377-2.741-1.413-4.357c0-1.961,0.22-3.48,0.662-4.557
			c0.44-1.077,1.038-1.876,1.787-2.393c0.749-0.521,1.616-0.838,2.596-0.954c0.98-0.114,1.99-0.174,3.029-0.174
			c2.19,0,3.854,0.616,4.99,1.847c1.133,1.23,1.7,3.424,1.7,6.577c0,0.77,0.232,1.531,0.693,2.28c0.464,0.749,1.056,1.413,1.79,1.99
			c0.73,0.577,1.556,1.046,2.48,1.413c0.923,0.367,1.847,0.546,2.77,0.546c1.19,0,2.295-0.179,3.316-0.546
			c1.017-0.365,1.905-0.872,2.654-1.529c0.751-0.652,1.347-1.449,1.79-2.393c0.44-0.944,0.664-1.99,0.664-3.144
			c0-0.77-0.061-1.79-0.174-3.06c-0.118-1.266-0.404-2.633-0.867-4.093c-0.459-1.464-1.162-2.944-2.106-4.444
			c-0.944-1.5-2.231-2.847-3.864-4.04c-1.637-1.191-3.685-2.171-6.147-2.941c-2.459-0.77-5.46-1.157-8.999-1.157h-1.5
			c-3.884,0-7.327,0.34-10.327,1.01c-2.999,0.674-5.53,1.821-7.586,3.434c-2.057,1.616-3.613,3.789-4.673,6.52
			c-1.056,2.731-1.608,6.154-1.644,10.271v0.923c0.036,2.5,0.51,4.731,1.413,6.69c0.903,1.964,2.106,3.751,3.606,5.367
			c1.5,1.616,3.18,3.106,5.047,4.47c1.865,1.367,3.78,2.678,5.74,3.924c1.964,1.249,3.886,2.504,5.77,3.75
			c1.883,1.249,3.557,2.569,5.019,3.953c1.459,1.384,2.644,2.883,3.546,4.5s1.357,3.424,1.357,5.424c0,1.618-0.2,2.954-0.606,4.011
			c-0.403,1.056-0.951,1.903-1.643,2.536c-0.695,0.637-1.531,1.079-2.511,1.326c-0.98,0.254-2.046,0.398-3.2,0.433
			c-2.309,0-4.079-0.527-5.309-1.587c-1.229-1.056-1.882-3.028-1.959-5.914c-0.039-1.307-0.336-2.451-0.893-3.434
			c-0.56-0.98-1.27-1.787-2.137-2.423c-0.862-0.633-1.826-1.103-2.883-1.413c-1.06-0.307-2.087-0.461-3.087-0.461
			c-1.077,0-2.108,0.154-3.087,0.461c-0.98,0.311-1.847,0.78-2.596,1.413c-0.749,0.638-1.355,1.454-1.816,2.454
			c-0.462,0.998-0.693,2.173-0.693,3.519c0,1.307,0.152,2.71,0.462,4.21c0.307,1.5,0.807,3.009,1.5,4.529
			c0.691,1.521,1.623,2.99,2.797,4.413c1.174,1.423,2.644,2.685,4.413,3.78c1.77,1.096,3.884,1.969,6.347,2.623
			c2.459,0.654,5.327,0.98,8.596,0.98h0.577c1.69-0.038,3.49-0.189,5.393-0.461c1.903-0.271,3.789-0.73,5.652-1.384
			c1.867-0.654,3.642-1.531,5.337-2.627c1.695-1.096,3.174-2.49,4.444-4.183c1.27-1.69,2.287-3.71,3.057-6.057
			s1.157-5.096,1.157-8.25v-0.463C111.21,228.833,110.71,226.256,109.79,223.986z"/>
	</g>
</g>
<g>
	<g>
		<path d="M351.573,75.093h-143.36c-3.77,0-6.827,3.057-6.827,6.827v273.067c0,3.77,3.057,6.827,6.827,6.827h143.36
			c3.77,0,6.827-3.057,6.827-6.827V81.92C358.4,78.15,355.343,75.093,351.573,75.093z M344.747,348.16H215.04V88.747h129.707V348.16
			z"/>
	</g>
</g>
<g>
	<g>
		<path d="M351.573,136.533h-143.36c-3.77,0-6.827,3.057-6.827,6.827v157.013c0,3.77,3.057,6.827,6.827,6.827h143.36
			c3.77,0,6.827-3.057,6.827-6.827V143.36C358.4,139.59,355.343,136.533,351.573,136.533z M344.747,293.547H215.04v-143.36h129.707
			V293.547z"/>
	</g>
</g>
<g>
	<g>
		<path d="M331.093,27.307h-102.4c-3.77,0-6.827,3.057-6.827,6.827V81.92c0,3.77,3.057,6.827,6.827,6.827h102.4
			c3.77,0,6.827-3.057,6.827-6.827V34.133C337.92,30.363,334.863,27.307,331.093,27.307z M324.267,75.093H235.52V40.96h88.747
			V75.093z"/>
	</g>
</g>
<g>
	<g>
		<path d="M351.573,0h-143.36c-3.77,0-6.827,3.057-6.827,6.827v27.307c0,3.77,3.057,6.827,6.827,6.827h143.36
			c3.77,0,6.827-3.057,6.827-6.827V6.827C358.4,3.057,355.343,0,351.573,0z M344.747,27.307H215.04V13.653h129.707V27.307z"/>
	</g>
</g>
<g>
	<g>
		<path d="M314.856,189.974c-0.73-2.285-1.7-4.27-2.913-5.943c-1.21-1.669-2.575-3.086-4.096-4.239
			c-1.517-1.152-3.087-2.113-4.7-2.883c-3.77-1.77-8.04-2.77-12.807-3H271.3c-2.154,0-3.816,0.374-4.99,1.123
			c-1.174,0.749-2.031,1.742-2.567,2.973c-0.541,1.23-0.857,2.633-0.954,4.21c-0.097,1.58-0.143,3.193-0.143,4.847v54.463
			c0,1.654,0.046,3.27,0.143,4.847c0.097,1.577,0.415,2.98,0.954,4.21c0.538,1.232,1.393,2.22,2.567,2.97
			c1.174,0.749,2.836,1.126,4.99,1.126c2.231,0,3.944-0.377,5.134-1.126c1.193-0.749,2.067-1.736,2.627-2.97
			c0.556-1.231,0.882-2.633,0.98-4.21c0.097-1.577,0.143-3.193,0.143-4.847v-18.693v-0.003h7.388c4.422,0,8.393-0.527,11.913-1.587
			c3.519-1.056,6.499-2.632,8.943-4.729c2.439-2.096,4.306-4.693,5.593-7.789c1.29-3.094,1.934-6.7,1.934-10.817
			C315.953,194.908,315.587,192.265,314.856,189.974z M297.982,201.603c-0.29,1.077-0.683,2.01-1.183,2.797
			c-0.498,0.79-1.056,1.454-1.673,1.99c-0.616,0.539-1.249,0.983-1.903,1.326c-1.539,0.809-3.27,1.27-5.193,1.386v0.003h-7.849
			v-21.577h8.424c1.811,0.152,3.444,0.596,4.903,1.326c0.616,0.346,1.213,0.77,1.79,1.266c0.577,0.503,1.096,1.106,1.556,1.819
			c0.463,0.71,0.836,1.556,1.126,2.536c0.287,0.98,0.433,2.127,0.433,3.434C298.416,199.293,298.269,200.527,297.982,201.603z"/>
	</g>
</g>
<g>
</g>
<g>
</g>
<g>
</g>
<g>
</g>
<g>
</g>
<g>
</g>
<g>
</g>
<g>
</g>
<g>
</g>
<g>
</g>
<g>
</g>
<g>
</g>
<g>
</g>
<g>
</g>
<g>
</g>
</svg>
