<?xml version="1.0" encoding="iso-8859-1"?>
<!-- Generator: Adobe Illustrator 19.0.0, SVG Export Plug-In . SVG Version: 6.00 Build 0)  -->
<svg version="1.1" id="Capa_1" xmlns="http://www.w3.org/2000/svg" xmlns:xlink="http://www.w3.org/1999/xlink" x="0px" y="0px"
	 viewBox="0 0 409.6 409.6" style="enable-background:new 0 0 409.6 409.6;" xml:space="preserve">
<g>
	<g>
		<path d="M204.8,23.97C89.96,23.97,0,64.451,0,116.13s89.96,92.16,204.8,92.16s204.8-40.48,204.8-92.16S319.64,23.97,204.8,23.97z
			 M204.8,194.637c-103.613,0-191.147-35.953-191.147-78.507S101.187,37.623,204.8,37.623s191.147,35.953,191.147,78.507
			S308.413,194.637,204.8,194.637z"/>
	</g>
</g>
<g>
	<g>
		<path d="M204.8,58.103c-76.114,0-157.013,17.947-157.013,51.2s80.899,51.2,157.013,51.2s157.013-17.947,157.013-51.2
			S280.914,58.103,204.8,58.103z M204.8,146.85c-88.82,0-143.36-21.866-143.36-37.547s54.54-37.547,143.36-37.547
			s143.36,21.866,143.36,37.547S293.62,146.85,204.8,146.85z"/>
	</g>
</g>
<g>
	<g>
		<path d="M225.28,194.637h-34.133c-3.773,0-6.827,3.053-6.827,6.827v102.4c0,3.773,3.053,6.827,6.827,6.827h34.133
			c3.773,0,6.827-3.053,6.827-6.827v-102.4C232.107,197.69,229.053,194.637,225.28,194.637z M218.453,297.037h-20.48V208.29h20.48
			V297.037z"/>
	</g>
</g>
<g>
	<g>
		<path d="M334.275,307.577c-1.621-6.001-5.787-10.933-12.401-14.667c-22.492-12.699-72.673-10.685-127.899,5.141
			c-61.88,17.732-123.313,52.68-115.273,82.526c0.819,3.046,3.579,5.053,6.586,5.053c0.592,0,1.186-0.073,1.78-0.234
			c3.64-0.98,5.799-4.726,4.82-8.366c-3.712-13.773,34.761-45.486,105.847-65.86c58.68-16.806,102.007-15.085,117.42-6.373
			c3.314,1.874,5.308,4,5.934,6.327c0.98,3.652,4.773,5.792,8.366,4.82C333.1,314.964,335.254,311.217,334.275,307.577z"/>
	</g>
</g>
<g>
	<g>
		<path d="M218.527,298.051c-55.219-15.828-105.419-17.835-127.899-5.14c-6.613,3.734-10.781,8.666-12.401,14.667
			c-0.98,3.639,1.172,7.386,4.82,8.366c3.579,0.961,7.38-1.172,8.366-4.82c0.628-2.326,2.621-4.453,5.934-6.327
			c15.427-8.714,58.747-10.435,117.42,6.373c71.088,20.374,109.561,52.087,105.847,65.86c-0.98,3.639,1.179,7.386,4.82,8.366
			c0.594,0.16,1.186,0.234,1.78,0.234c3.005,0,5.765-2.007,6.586-5.053C341.84,350.73,280.407,315.785,218.527,298.051z"/>
	</g>
</g>
<g>
</g>
<g>
</g>
<g>
</g>
<g>
</g>
<g>
</g>
<g>
</g>
<g>
</g>
<g>
</g>
<g>
</g>
<g>
</g>
<g>
</g>
<g>
</g>
<g>
</g>
<g>
</g>
<g>
</g>
</svg>
