<?xml version="1.0" encoding="iso-8859-1"?>
<!-- Generator: Adobe Illustrator 19.0.0, SVG Export Plug-In . SVG Version: 6.00 Build 0)  -->
<svg version="1.1" id="Capa_1" xmlns="http://www.w3.org/2000/svg" xmlns:xlink="http://www.w3.org/1999/xlink" x="0px" y="0px"
	 viewBox="0 0 436.907 436.907" style="enable-background:new 0 0 436.907 436.907;" xml:space="preserve">
<g>
	<g>
		<path d="M81.92,367.664c-36.166,0-75.093,8.547-75.093,27.307s38.927,27.307,75.093,27.307s75.093-8.547,75.093-27.307
			S118.086,367.664,81.92,367.664z M81.92,408.624c-39.943,0-60.411-9.965-61.45-13.553c1.041-3.787,21.507-13.754,61.45-13.754
			s60.409,9.967,61.45,13.553C142.329,398.657,121.863,408.624,81.92,408.624z"/>
	</g>
</g>
<g>
	<g>
		<path d="M81.92,272.091c-3.77,0-6.827,3.053-6.827,6.827v116.053c0,3.773,3.057,6.827,6.827,6.827s6.827-3.053,6.827-6.827
			V278.917C88.747,275.144,85.69,272.091,81.92,272.091z"/>
	</g>
</g>
<g>
	<g>
		<path d="M6.827,67.291C3.057,67.291,0,70.344,0,74.117v86.726c0,3.773,3.057,6.827,6.827,6.827s6.827-3.053,6.827-6.827V74.117
			C13.653,70.344,10.597,67.291,6.827,67.291z"/>
	</g>
</g>
<g>
	<g>
		<path d="M150.187,154.53v56.187c0,33.84-27.571,61.373-61.457,61.373H75.11c-33.888,0-61.457-27.581-61.457-61.474v-56.6H0v56.6
			c0,41.428,33.693,75.127,75.11,75.127H88.73c41.417,0,75.11-33.661,75.11-75.027V154.53H150.187z"/>
	</g>
</g>
<g>
	<g>
		<path d="M148.782,87.117c-1.686-3.367-5.77-4.726-9.156-3.053c-13.206,6.593-34.775,10.534-57.706,10.534
			c-41.04,0-68.267-12.327-68.267-20.48c0-8.153,27.226-20.48,68.267-20.48c19.364,0,37.443,2.714,50.913,7.641
			c3.536,1.273,7.456-0.521,8.754-4.067c1.297-3.54-0.524-7.46-4.067-8.76c-14.933-5.46-34.679-8.467-55.6-8.467
			C41.209,39.984,0,51.711,0,74.117c0,22.407,41.209,34.133,81.92,34.133c25.317,0,48.573-4.367,63.805-11.974
			C149.1,94.591,150.468,90.491,148.782,87.117z"/>
	</g>
</g>
<g>
	<g>
		<path d="M81.92,128.731C41.209,128.731,0,140.457,0,162.864c0,22.407,41.209,34.133,81.92,34.133s81.92-11.727,81.92-34.133
			C163.84,140.457,122.631,128.731,81.92,128.731z M81.92,183.344c-41.04,0-68.267-12.327-68.267-20.48s27.226-20.48,68.267-20.48
			s68.267,12.327,68.267,20.48C150.187,171.017,122.96,183.344,81.92,183.344z"/>
	</g>
</g>
<g>
	<g>
		<rect x="150.187" y="101.428" width="13.653" height="61.44"/>
	</g>
</g>
<g>
	<g>
		<path d="M354.987,367.664c-36.166,0-75.093,8.547-75.093,27.307s38.927,27.307,75.093,27.307s75.093-8.547,75.093-27.307
			S391.153,367.664,354.987,367.664z M354.987,408.624c-39.943,0-60.411-9.965-61.45-13.553c1.041-3.787,21.507-13.754,61.45-13.754
			c39.943,0,60.409,9.967,61.45,13.553C415.396,398.657,394.93,408.624,354.987,408.624z"/>
	</g>
</g>
<g>
	<g>
		<path d="M354.987,272.091c-3.77,0-6.827,3.053-6.827,6.827v116.053c0,3.773,3.057,6.827,6.827,6.827s6.827-3.053,6.827-6.827
			V278.917C361.813,275.144,358.757,272.091,354.987,272.091z"/>
	</g>
</g>
<g>
	<g>
		<path d="M279.893,101.424c-3.77,0-6.827,3.053-6.827,6.827v52.593c0,3.773,3.057,6.827,6.827,6.827s6.827-3.053,6.827-6.827
			v-52.593C286.72,104.477,283.663,101.424,279.893,101.424z"/>
	</g>
</g>
<g>
	<g>
		<path d="M423.253,154.53v56.187c0,33.84-27.571,61.373-61.457,61.373h-13.619c-33.888,0-61.457-27.581-61.457-61.474v-56.6
			h-13.653v56.6c0,41.428,33.693,75.127,75.11,75.127h13.619c41.417,0,75.11-33.661,75.11-75.027V154.53H423.253z"/>
	</g>
</g>
<g>
	<g>
		<path d="M354.987,39.984c-22.164,0-42.726,3.321-57.9,9.347c-3.502,1.393-5.216,5.361-3.823,8.866s5.352,5.226,8.863,3.826
			c13.414-5.333,32.681-8.387,52.861-8.387c41.04,0,68.267,12.327,68.267,20.48c0,8.153-27.226,20.48-68.267,20.48
			c-22.407,0-43.696-3.801-56.946-10.167c-3.389-1.626-7.477-0.2-9.11,3.2c-1.633,3.393-0.2,7.474,3.197,9.107
			c15.23,7.32,38.144,11.513,62.86,11.513c40.711,0,81.92-11.727,81.92-34.133C436.907,51.711,395.698,39.984,354.987,39.984z"/>
	</g>
</g>
<g>
	<g>
		<path d="M354.987,128.731c-40.711,0-81.92,11.727-81.92,34.133c0,22.407,41.209,34.133,81.92,34.133
			c40.711,0,81.92-11.727,81.92-34.133C436.907,140.457,395.698,128.731,354.987,128.731z M354.987,183.344
			c-41.04,0-68.267-12.327-68.267-20.48s27.226-20.48,68.267-20.48s68.267,12.327,68.267,20.48
			C423.253,171.017,396.027,183.344,354.987,183.344z"/>
	</g>
</g>
<g>
	<g>
		<rect x="423.253" y="74.121" width="13.653" height="88.747"/>
	</g>
</g>
<g>
	<g>
		<path d="M302.916,45.689c-6.487-16.48-20.62-27.513-37.816-29.513c-1.833-0.213-3.703-0.333-5.6-0.367
			c-15.37,0.014-29.896,5.941-40.366,16.814c-10.15-11.18-24.499-17.766-39.873-17.993c-1.893-0.007-3.753,0.046-5.6,0.206
			c-17.239,1.493-31.689,12.107-38.656,28.387c-7.296,17.053-4.7,36.533,6.77,50.84l69.914,87.2c1.273,1.587,3.19,2.519,5.226,2.553
			c0.034,0,0.067,0,0.101,0c2,0,3.9-0.879,5.197-2.401l72.439-85.106C306.54,82.344,309.707,62.949,302.916,45.689z M284.262,87.457
			l-67.087,78.814l-64.744-80.753c-8.315-10.366-10.18-24.513-4.871-36.92c4.949-11.573,15.15-19.106,27.279-20.159
			c1.231-0.108,2.47-0.16,3.714-0.16c0.174,0,0.35,0.005,0.529,0.005c13.86,0.207,26.631,7.308,34.157,19.007
			c1.237,1.927,3.354,3.099,5.641,3.133c2.406,0.28,4.436-1.08,5.729-2.966c7.859-11.467,20.89-18.307,34.686-17.993
			c1.432,0.021,2.85,0.113,4.236,0.273c12.1,1.406,22.077,9.24,26.684,20.953C295.159,63.249,292.879,77.336,284.262,87.457z"/>
	</g>
</g>
<g>
</g>
<g>
</g>
<g>
</g>
<g>
</g>
<g>
</g>
<g>
</g>
<g>
</g>
<g>
</g>
<g>
</g>
<g>
</g>
<g>
</g>
<g>
</g>
<g>
</g>
<g>
</g>
<g>
</g>
</svg>
