<?xml version="1.0" encoding="iso-8859-1"?>
<!-- Generator: Adobe Illustrator 19.0.0, SVG Export Plug-In . SVG Version: 6.00 Build 0)  -->
<svg version="1.1" id="Capa_1" xmlns="http://www.w3.org/2000/svg" xmlns:xlink="http://www.w3.org/1999/xlink" x="0px" y="0px"
	 viewBox="0 0 423.252 423.252" style="enable-background:new 0 0 423.252 423.252;" xml:space="preserve">
<g>
	<g>
		<path d="M108.893,91.558c-1.497-3.466-5.518-5.06-8.97-3.56c-29.22,12.607-45.31,29.841-45.31,48.534
			c0,3.773,3.057,6.827,6.827,6.827s6.827-3.053,6.827-6.827c0-12.713,13.51-25.834,37.064-36
			C108.793,99.038,110.39,95.024,108.893,91.558z"/>
	</g>
</g>
<g>
	<g>
		<path d="M338.266,95.483c-3.248-1.906-7.434-0.819-9.341,2.447c-1.899,3.255-0.806,7.434,2.447,9.341
			c10.774,6.308,23.613,16.5,23.613,29.261c0,3.773,3.053,6.827,6.827,6.827s6.827-3.053,6.827-6.827
			C368.639,121.312,358.14,107.119,338.266,95.483z"/>
	</g>
</g>
<g>
	<g>
		<g>
			<path d="M121.772,115.395c-4.617,5.572-8.149,12.073-10.272,19.176L121.772,115.395z"/>
			<path d="M150.69,97.173l35.217,3.057c-6.752-2.994-14.218-4.658-22.067-4.658C159.308,95.572,154.903,96.126,150.69,97.173z"/>
			<path d="M83.534,133.955l33.229-50.778C99.932,95.036,87.748,113.068,83.534,133.955z"/>
			<path d="M154.513,68.792l44.795,7.554c-10.737-5.178-22.77-8.081-35.468-8.081C160.687,68.265,157.574,68.444,154.513,68.792z"/>
			<path d="M237.305,186.417c3.98-8.037,6.678-16.816,7.828-26.069L237.305,186.417z"/>
			<path d="M227.186,98.294l14.283,25.704C238.271,114.541,233.391,105.854,227.186,98.294z"/>
			<path d="M217.342,139.192c-1.567-7.637-4.734-14.7-9.132-20.818L217.342,139.192z"/>
		</g>
	</g>
</g>
<g>
	<g>
		<g>
			<path d="M188.673,93.991c-12.407-5.501-26.52-6.707-39.631-3.447c-3.657,0.915-5.886,4.613-4.98,8.274
				c0.915,3.661,4.611,5.854,8.274,4.98c10.173-2.528,21.164-1.594,30.804,2.673c0.899,0.401,1.836,0.587,2.763,0.587
				c2.616,0,5.113-1.512,6.243-4.06C193.674,99.552,192.121,95.519,188.673,93.991z"/>
			<path d="M120.697,88.757c3.081-2.173,3.82-6.432,1.647-9.513c-2.173-3.081-6.421-3.814-9.513-1.647
				c-18.707,13.187-31.49,32.72-35.987,55.001c-0.746,3.7,1.643,7.299,5.34,8.047c0.457,0.094,0.91,0.133,1.357,0.133
				c3.183,0,6.03-2.232,6.685-5.475C94.03,116.451,104.854,99.924,120.697,88.757z"/>
			<path d="M235.001,126.184c0.959,2.847,3.62,4.64,6.467,4.64c0.725,0,1.459-0.113,2.186-0.362c3.574-1.207,5.487-5.079,4.28-8.653
				c-3.432-10.153-8.632-19.526-15.473-27.853c-2.388-2.9-6.68-3.34-9.607-0.94c-2.913,2.388-3.333,6.694-0.94,9.607
				C227.694,109.67,232.101,117.598,235.001,126.184z"/>
			<path d="M126.129,110.145c-2.896-2.408-7.194-2-9.61,0.893c-5.303,6.395-9.192,13.653-11.559,21.581
				c-1.079,3.615,0.975,7.414,4.588,8.494c0.649,0.193,1.309,0.287,1.956,0.287c2.941,0,5.654-1.915,6.535-4.874
				c1.84-6.153,4.864-11.793,8.987-16.766C129.433,116.852,129.032,112.551,126.129,110.145z"/>
			<path d="M205.453,79.305c1.64-3.393,0.213-7.474-3.186-9.107c-15.073-7.267-31.824-10.1-48.524-8.187
				c-3.743,0.42-6.436,3.801-6.013,7.547c0.423,3.746,3.797,6.519,7.554,6.013c14.131-1.606,28.307,0.787,41.064,6.921
				c0.952,0.466,1.959,0.679,2.953,0.679C201.84,83.171,204.281,81.751,205.453,79.305z"/>
			<path d="M245.98,153.578c-3.753-0.452-7.159,2.188-7.62,5.927c-1.039,8.34-3.453,16.374-7.173,23.886
				c-1.674,3.379-0.287,7.474,3.092,9.146c0.974,0.48,2.007,0.707,3.021,0.707c2.514,0,4.934-1.393,6.127-3.799
				c4.4-8.887,7.253-18.388,8.48-28.247C252.373,157.457,249.719,154.044,245.98,153.578z"/>
			<path d="M213.746,114.386c-2.2-3.06-6.467-3.76-9.527-1.553c-3.06,2.2-3.76,6.467-1.553,9.527
				c3.948,5.494,6.634,11.621,7.987,18.207c0.66,3.226,3.507,5.453,6.68,5.453c0.454,0,0.913-0.048,1.379-0.14
				c3.693-0.754,6.072-4.367,5.313-8.061C222.286,129.34,218.827,121.453,213.746,114.386z"/>
		</g>
	</g>
</g>
<g>
	<g>
		<g>
			<path d="M284.827,81.917c-3.773,0-6.827,3.053-6.827,6.827c0,36.028-25.667,67.053-61.034,73.774
				c-3.707,0.707-6.141,4.28-5.434,7.98c0.621,3.273,3.487,5.554,6.7,5.554c0.422,0,0.853-0.039,1.28-0.121
				c41.801-7.939,72.141-44.607,72.141-87.187C291.653,84.97,288.6,81.917,284.827,81.917z"/>
			<path d="M184.867,161.652c-33.594-8.32-57.054-38.301-57.054-72.907c0-41.407,33.686-75.093,75.093-75.093
				c29.22,0,56.02,17.2,68.267,43.815c1.567,3.42,5.613,4.927,9.054,3.347c3.427-1.574,4.927-5.627,3.347-9.054
				C269.107,20.32,237.439,0,202.907,0C153.97,0,114.16,39.813,114.16,88.747c0,40.899,27.727,76.326,67.427,86.159
				c0.549,0.133,1.104,0.2,1.647,0.2c3.063,0,5.849-2.08,6.62-5.187C190.76,166.258,188.528,162.558,184.867,161.652z"/>
			<path d="M202.907,40.958c14.353,0,27.827,6.393,36.972,17.546c2.388,2.908,6.687,3.347,9.607,0.954s3.34-6.694,0.954-9.607
				c-11.754-14.327-29.075-22.547-47.534-22.547c-33.877,0-61.44,27.559-61.44,61.44c0,22.313,12.157,42.914,31.724,53.767
				c1.048,0.58,2.185,0.853,3.304,0.853c2.401,0,4.731-1.266,5.978-3.514c1.83-3.299,0.637-7.453-2.661-9.286
				c-15.23-8.44-24.69-24.467-24.69-41.82C155.12,62.397,176.558,40.958,202.907,40.958z"/>
			<path d="M264.347,88.745c0-2.113-0.107-4.207-0.314-6.267c-0.381-3.739-3.574-6.439-7.487-6.1c-3.746,0.387-6.48,3.734-6.1,7.487
				c0.167,1.606,0.247,3.232,0.247,4.879c0,25.428-19.881,46.387-45.254,47.72c-3.767,0.2-6.653,3.413-6.46,7.18
				c0.193,3.64,3.207,6.467,6.813,6.467c0.121,0,0.241,0,0.367-0.007C238.786,148.384,264.347,121.431,264.347,88.745z"/>
		</g>
	</g>
</g>
<g>
	<g>
		<g>
			<path d="M259.413,75.092c-26.146,0-49.48,16.613-58.066,41.346c-0.007,0.007-0.007,0.021-0.014,0.027
				c-2.227,6.448-3.36,13.201-3.36,20.067c0,24.719,14.734,46.94,37.54,56.6c0.867,0.365,1.768,0.539,2.661,0.539
				c2.654,0,5.187-1.56,6.286-4.166c1.466-3.466-0.154-7.473-3.627-8.946c-17.739-7.513-29.206-24.8-29.206-44.027
				c0-5.347,0.881-10.593,2.613-15.599c0-0.007,0-0.014,0-0.014c6.68-19.248,24.834-32.174,45.174-32.174
				c25.774,0,46.754,20.159,47.754,45.899c0.147,3.767,3.425,6.806,7.086,6.554c3.767-0.147,6.7-3.319,6.554-7.086
				C319.52,101.018,292.553,75.092,259.413,75.092z"/>
			<path d="M259.413,47.785c-48.934,0-88.747,39.813-88.747,88.747c0,20.753,7.34,40.953,20.675,56.887
				c1.347,1.615,3.285,2.447,5.24,2.447c1.539,0,3.092-0.521,4.372-1.594c2.893-2.42,3.273-6.721,0.853-9.614
				c-11.276-13.479-17.487-30.573-17.487-48.126c0-41.407,33.686-75.093,75.093-75.093c40.154,0,73.82,32.633,75.054,72.747
				c0.12,3.7,3.147,6.62,6.82,6.62c0.073,0,0.147,0,0.213,0c3.773-0.12,6.733-3.267,6.62-7.033
				C346.632,85.552,307.672,47.785,259.413,47.785z"/>
		</g>
	</g>
</g>
<g>
	<g>
		<path d="M366.813,131.884c-1.294-1.393-3.101-2.179-5-2.179h-54.613c-3.773,0-6.827,3.053-6.827,6.827
			c0,25.9-40.639,47.787-88.747,47.787s-88.747-21.886-88.747-47.787c0-3.773-3.057-6.827-6.827-6.827H61.439
			c-1.896,0-3.709,0.787-4.999,2.179c-1.294,1.388-1.947,3.255-1.811,5.147l20.48,279.893c0.263,3.567,3.232,6.327,6.81,6.327
			h259.413c3.581,0,6.547-2.76,6.808-6.327l20.48-279.893C368.761,135.137,368.107,133.27,366.813,131.884z M334.986,409.598H88.267
			l-19.483-266.24h41.04c5.492,31.126,48.232,54.613,101.803,54.613c53.565,0,96.305-23.487,101.799-54.613h41.04L334.986,409.598z"
			/>
	</g>
</g>
<g>
	<g>
		<path d="M211.626,245.758c-33.877,0-61.44,27.559-61.44,61.44c0,33.881,27.563,61.44,61.44,61.44
			c33.881,0,61.44-27.559,61.44-61.44C273.066,273.318,245.507,245.758,211.626,245.758z M211.626,354.985
			c-26.349,0-47.787-21.439-47.787-47.787s21.437-47.787,47.787-47.787c26.348,0,47.787,21.439,47.787,47.787
			S237.974,354.985,211.626,354.985z"/>
	</g>
</g>
<g>
</g>
<g>
</g>
<g>
</g>
<g>
</g>
<g>
</g>
<g>
</g>
<g>
</g>
<g>
</g>
<g>
</g>
<g>
</g>
<g>
</g>
<g>
</g>
<g>
</g>
<g>
</g>
<g>
</g>
</svg>
