<?xml version="1.0" encoding="iso-8859-1"?>
<!-- Generator: Adobe Illustrator 19.0.0, SVG Export Plug-In . SVG Version: 6.00 Build 0)  -->
<svg version="1.1" id="Capa_1" xmlns="http://www.w3.org/2000/svg" xmlns:xlink="http://www.w3.org/1999/xlink" x="0px" y="0px"
	 viewBox="0 0 430.08 430.08" style="enable-background:new 0 0 430.08 430.08;" xml:space="preserve">
<g>
	<g>
		<path d="M254.007,402.773h-58.547c-3.773,0-6.827,3.057-6.827,6.827c0,3.77,3.053,6.827,6.827,6.827h58.547
			c3.773,0,6.827-3.057,6.827-6.827C260.833,405.83,257.78,402.773,254.007,402.773z"/>
	</g>
</g>
<g>
	<g>
		<path d="M332.141,20.48H97.941c-14.481,0-26.26,11.779-26.26,26.26v343.426c0,14.481,11.779,26.26,26.26,26.262h69.313
			c3.773,0,6.827-3.057,6.827-6.827c0-3.77-3.053-6.827-6.827-6.827H97.941c-6.955,0-12.607-5.658-12.607-12.607V46.741
			c0-6.951,5.652-12.607,12.607-12.607H332.14c6.955,0,12.607,5.658,12.607,12.607v343.426c0,6.951-5.654,12.607-12.607,12.607
			H285.38c-3.773,0-6.827,3.057-6.827,6.827c0,3.77,3.053,6.827,6.827,6.827h46.759c14.481,0,26.26-11.779,26.26-26.259V46.741
			C358.4,32.259,346.621,20.48,332.141,20.48z"/>
	</g>
</g>
<g>
	<g>
		<path d="M167.253,375.467H112.64V61.44h47.787c3.773,0,6.827-3.057,6.827-6.827c0-3.77-3.053-6.827-6.827-6.827h-54.613
			c-3.773,0-6.827,3.057-6.827,6.827v327.68c0,3.77,3.053,6.827,6.827,6.827h61.44c3.773,0,6.827-3.057,6.827-6.827
			S171.027,375.467,167.253,375.467z"/>
	</g>
</g>
<g>
	<g>
		<path d="M254.007,375.467h-56.873c-3.773,0-6.827,3.057-6.827,6.827s3.053,6.827,6.827,6.827h56.873
			c3.773,0,6.827-3.057,6.827-6.827S257.78,375.467,254.007,375.467z"/>
	</g>
</g>
<g>
	<g>
		<path d="M324.267,47.787h-54.613c-3.773,0-6.827,3.057-6.827,6.827c0,3.77,3.053,6.827,6.827,6.827h47.787v314.027h-32.067
			c-3.773,0-6.827,3.057-6.827,6.827s3.053,6.827,6.827,6.827h38.893c3.773,0,6.827-3.057,6.827-6.827V54.613
			C331.093,50.843,328.04,47.787,324.267,47.787z"/>
	</g>
</g>
<g>
	<g>
		<path d="M194.56,218.453h-27.307c-3.773,0-6.827,3.057-6.827,6.827V409.6c0,11.293,9.187,20.48,20.48,20.48
			c11.293,0,20.48-9.187,20.48-20.48V225.28C201.387,221.51,198.333,218.453,194.56,218.453z M187.733,409.6
			c0,3.763-3.06,6.827-6.827,6.827c-3.767,0-6.827-3.063-6.827-6.827V232.107h13.653V409.6z"/>
	</g>
</g>
<g>
	<g>
		<path d="M283.307,293.547H256c-3.773,0-6.827,3.057-6.827,6.827V409.6c0,11.293,9.187,20.48,20.48,20.48s20.48-9.187,20.48-20.48
			V300.373C290.133,296.603,287.08,293.547,283.307,293.547z M276.48,409.6c0,3.763-3.06,6.827-6.827,6.827
			s-6.827-3.063-6.827-6.827V307.2h13.653V409.6z"/>
	</g>
</g>
<g>
	<g>
		<path d="M208.213,88.747v102.4c0,15.056-12.247,27.307-27.307,27.307s-27.307-12.25-27.307-27.307v-102.4h-13.653v102.4
			c0,22.586,18.374,40.96,40.96,40.96c22.586,0,40.96-18.374,40.96-40.96v-102.4H208.213z"/>
	</g>
</g>
<g>
	<g>
		<rect x="174.08" y="88.747" width="13.653" height="136.533"/>
	</g>
</g>
<g>
	<g>
		<path d="M283.307,81.92c-22.886,0-42.346,17.113-45.32,40.323L228.7,300.017c-0.092,1.871,0.58,3.697,1.867,5.057
			c1.292,1.357,3.079,2.127,4.953,2.127h47.787c3.773,0,6.827-3.057,6.827-6.827V88.747C290.133,84.977,287.08,81.92,283.307,81.92z
			 M276.48,293.547h-33.766l8.866-170.073c1.748-13.59,11.96-24.323,24.9-27.163V293.547z"/>
	</g>
</g>
<g>
	<g>
		<path d="M250.173,20.48h-8.694C238.447,8.716,227.739,0,215.04,0s-23.407,8.716-26.44,20.48h-8.694
			c-14.507,0-26.307,11.8-26.307,26.307v2c0,14.507,11.8,26.307,26.307,26.307h70.267c14.507,0,26.307-11.8,26.307-26.307v-2
			C276.48,32.28,264.68,20.48,250.173,20.48z M262.827,48.787c0,6.977-5.673,12.653-12.653,12.653h-70.267
			c-6.98,0-12.653-5.676-12.653-12.653v-2c0-6.977,5.673-12.653,12.653-12.653h14.653c3.773,0,6.827-3.057,6.827-6.827
			c0-7.53,6.127-13.653,13.653-13.653s13.653,6.124,13.653,13.653c0,3.77,3.053,6.827,6.827,6.827h14.653
			c6.98,0,12.653,5.676,12.653,12.653V48.787z"/>
	</g>
</g>
<g>
</g>
<g>
</g>
<g>
</g>
<g>
</g>
<g>
</g>
<g>
</g>
<g>
</g>
<g>
</g>
<g>
</g>
<g>
</g>
<g>
</g>
<g>
</g>
<g>
</g>
<g>
</g>
<g>
</g>
</svg>
