<?xml version="1.0" encoding="iso-8859-1"?>
<!-- Generator: Adobe Illustrator 19.0.0, SVG Export Plug-In . SVG Version: 6.00 Build 0)  -->
<svg version="1.1" id="Capa_1" xmlns="http://www.w3.org/2000/svg" xmlns:xlink="http://www.w3.org/1999/xlink" x="0px" y="0px"
	 viewBox="0 0 409.6 409.6" style="enable-background:new 0 0 409.6 409.6;" xml:space="preserve">
<g>
	<g>
		<path d="M173.479,0H47.787c-3.773,0-6.827,3.057-6.827,6.827v375.467c0,3.77,3.053,6.827,6.827,6.827H204.8
			c3.773,0,6.827-3.057,6.827-6.827V38.144C211.627,17.109,194.514,0,173.479,0z M197.973,375.467H54.613V13.653h118.866
			c13.507,0,24.494,10.988,24.494,24.491V375.467z"/>
	</g>
</g>
<g>
	<g>
		<path d="M361.813,0H236.121c-21.035,0-38.147,17.109-38.147,38.144v344.149c0,3.77,3.053,6.827,6.827,6.827h157.013
			c3.773,0,6.827-3.057,6.827-6.827V6.827C368.64,3.057,365.587,0,361.813,0z M354.987,375.467h-143.36V38.144
			c0-13.503,10.988-24.491,24.494-24.491h118.866V375.467z"/>
	</g>
</g>
<g>
	<g>
		<path d="M361.813,395.947H47.787c-3.773,0-6.827,3.057-6.827,6.827c0,3.77,3.053,6.827,6.827,6.827h314.027
			c3.773,0,6.827-3.057,6.827-6.827C368.64,399.003,365.587,395.947,361.813,395.947z"/>
	</g>
</g>
<g>
	<g>
		<path d="M334.507,34.133h-102.4c-3.773,0-6.827,3.057-6.827,6.827c0,3.77,3.053,6.827,6.827,6.827h102.4
			c3.773,0,6.827-3.057,6.827-6.827C341.333,37.19,338.28,34.133,334.507,34.133z"/>
	</g>
</g>
<g>
	<g>
		<path d="M334.507,68.267h-102.4c-3.773,0-6.827,3.057-6.827,6.827s3.053,6.827,6.827,6.827h102.4c3.773,0,6.827-3.057,6.827-6.827
			S338.28,68.267,334.507,68.267z"/>
	</g>
</g>
<g>
	<g>
		<path d="M334.507,102.4h-102.4c-3.773,0-6.827,3.057-6.827,6.827c0,3.77,3.053,6.827,6.827,6.827h102.4
			c3.773,0,6.827-3.057,6.827-6.827C341.333,105.457,338.28,102.4,334.507,102.4z"/>
	</g>
</g>
<g>
	<g>
		<path d="M334.507,273.067h-102.4c-3.773,0-6.827,3.057-6.827,6.827s3.053,6.827,6.827,6.827h102.4
			c3.773,0,6.827-3.057,6.827-6.827S338.28,273.067,334.507,273.067z"/>
	</g>
</g>
<g>
	<g>
		<path d="M286.72,232.107h-54.613c-3.773,0-6.827,3.057-6.827,6.827s3.053,6.827,6.827,6.827h54.613
			c3.773,0,6.827-3.057,6.827-6.827S290.493,232.107,286.72,232.107z"/>
	</g>
</g>
<g>
	<g>
		<path d="M334.507,136.533h-102.4c-3.773,0-6.827,3.057-6.827,6.827s3.053,6.827,6.827,6.827h102.4
			c3.773,0,6.827-3.057,6.827-6.827S338.28,136.533,334.507,136.533z"/>
	</g>
</g>
<g>
	<g>
		<path d="M334.507,293.547h-102.4c-3.773,0-6.827,3.057-6.827,6.827s3.053,6.827,6.827,6.827h102.4
			c3.773,0,6.827-3.057,6.827-6.827S338.28,293.547,334.507,293.547z"/>
	</g>
</g>
<g>
	<g>
		<path d="M334.507,157.013h-102.4c-3.773,0-6.827,3.057-6.827,6.827c0,3.77,3.053,6.827,6.827,6.827h102.4
			c3.773,0,6.827-3.057,6.827-6.827C341.333,160.07,338.28,157.013,334.507,157.013z"/>
	</g>
</g>
<g>
	<g>
		<path d="M334.507,177.493h-102.4c-3.773,0-6.827,3.057-6.827,6.827s3.053,6.827,6.827,6.827h102.4
			c3.773,0,6.827-3.057,6.827-6.827S338.28,177.493,334.507,177.493z"/>
	</g>
</g>
<g>
	<g>
		<path d="M95.573,109.227c-3.773,0-6.827,3.057-6.827,6.827V307.2c0,3.77,3.053,6.827,6.827,6.827s6.827-3.057,6.827-6.827V116.053
			C102.4,112.283,99.347,109.227,95.573,109.227z"/>
	</g>
</g>
<g>
	<g>
		<path d="M163.84,109.227c-3.773,0-6.827,3.057-6.827,6.827V307.2c0,3.77,3.053,6.827,6.827,6.827s6.827-3.057,6.827-6.827V116.053
			C170.667,112.283,167.613,109.227,163.84,109.227z"/>
	</g>
</g>
<g>
	<g>
		<path d="M116.053,109.227c-3.773,0-6.827,3.057-6.827,6.827v34.133c0,7.53-6.127,13.653-13.653,13.653
			c-7.526,0-13.653-6.123-13.653-13.653v-34.133c0-3.77-3.053-6.827-6.827-6.827s-6.827,3.057-6.827,6.827v34.133
			c0,15.056,12.247,27.307,27.307,27.307s27.307-12.25,27.307-27.307v-34.133C122.88,112.283,119.827,109.227,116.053,109.227z"/>
	</g>
</g>
<g>
	<g>
		<path d="M163.84,109.227c-15.06,0-27.307,12.25-27.307,27.307v81.92c0,3.77,3.053,6.827,6.827,6.827h20.48
			c3.773,0,6.827-3.057,6.827-6.827v-102.4C170.667,112.283,167.613,109.227,163.84,109.227z M157.013,211.627h-6.827v-75.093
			c0-5.043,2.746-9.457,6.827-11.82V211.627z"/>
	</g>
</g>
<g>
</g>
<g>
</g>
<g>
</g>
<g>
</g>
<g>
</g>
<g>
</g>
<g>
</g>
<g>
</g>
<g>
</g>
<g>
</g>
<g>
</g>
<g>
</g>
<g>
</g>
<g>
</g>
<g>
</g>
</svg>
