<?xml version="1.0" encoding="iso-8859-1"?>
<!-- Generator: Adobe Illustrator 19.0.0, SVG Export Plug-In . SVG Version: 6.00 Build 0)  -->
<svg version="1.1" id="Capa_1" xmlns="http://www.w3.org/2000/svg" xmlns:xlink="http://www.w3.org/1999/xlink" x="0px" y="0px"
	 viewBox="0 0 404.173 404.173" style="enable-background:new 0 0 404.173 404.173;" xml:space="preserve">
<g>
	<g>
		<path d="M339.133,109.227h-61.95c-3.77,0-6.827,3.053-6.827,6.827s3.057,6.827,6.827,6.827h61.95
			c14.773,0,26.793,12.02,26.793,26.793v171.694c0,14.773-12.02,26.793-26.793,26.793H226.54c-2.44,0-4.693,1.3-5.914,3.413
			l-18.54,32.12l-18.54-32.12c-1.22-2.113-3.473-3.413-5.914-3.413H65.039c-14.773,0-26.793-12.02-26.793-26.793V149.673
			c0-14.773,12.02-26.793,26.793-26.793h157.524c3.77,0,6.827-3.053,6.827-6.827s-3.057-6.827-6.827-6.827H65.039
			c-22.303,0-40.446,18.147-40.446,40.446v171.694c0,22.299,18.144,40.446,40.446,40.446h108.653l22.48,38.946
			c1.22,2.113,3.473,3.413,5.914,3.413c2.441,0,4.693-1.3,5.914-3.413l22.48-38.946h108.653c22.303,0,40.446-18.147,40.446-40.446
			V149.673C379.58,127.374,361.436,109.227,339.133,109.227z"/>
	</g>
</g>
<g>
	<g>
		<path d="M181.606,136.533H154.3c-3.77,0-6.827,3.053-6.827,6.827v170.667c0,3.773,3.057,6.827,6.827,6.827h27.307
			c3.77,0,6.827-3.053,6.827-6.827V143.36C188.433,139.587,185.376,136.533,181.606,136.533z M174.78,307.2h-13.653V150.187h13.653
			V307.2z"/>
	</g>
</g>
<g>
	<g>
		<path d="M270.353,211.627h-27.307c-3.77,0-6.827,3.053-6.827,6.827v95.573c0,3.773,3.057,6.827,6.827,6.827h27.307
			c3.77,0,6.827-3.053,6.827-6.827v-95.573C277.18,214.68,274.123,211.627,270.353,211.627z M263.526,307.2h-13.653v-81.92h13.653
			V307.2z"/>
	</g>
</g>
<g>
	<g>
		<path d="M195.26,6.827v102.4c0,15.06-12.25,27.307-27.307,27.307c-15.056,0-27.307-12.247-27.307-27.307V6.827h-13.653v102.4
			c0,22.586,18.374,40.96,40.96,40.96c22.586,0,40.96-18.374,40.96-40.96V6.827H195.26z"/>
	</g>
</g>
<g>
	<g>
		<rect x="161.126" y="6.827" width="13.653" height="136.533"/>
	</g>
</g>
<g>
	<g>
		<path d="M270.353,0c-22.883,0-42.344,17.113-45.317,40.327L215.75,218.1c-0.099,1.867,0.577,3.693,1.867,5.053
			c1.287,1.36,3.075,2.127,4.949,2.127h47.787c3.77,0,6.827-3.053,6.827-6.827V6.827C277.18,3.053,274.123,0,270.353,0z
			 M263.526,211.627H229.76l8.863-170.074c1.754-13.587,11.964-24.327,24.904-27.16V211.627z"/>
	</g>
</g>
<g>
</g>
<g>
</g>
<g>
</g>
<g>
</g>
<g>
</g>
<g>
</g>
<g>
</g>
<g>
</g>
<g>
</g>
<g>
</g>
<g>
</g>
<g>
</g>
<g>
</g>
<g>
</g>
<g>
</g>
</svg>
