<?xml version="1.0" encoding="iso-8859-1"?>
<!-- Generator: Adobe Illustrator 19.0.0, SVG Export Plug-In . SVG Version: 6.00 Build 0)  -->
<svg version="1.1" id="Capa_1" xmlns="http://www.w3.org/2000/svg" xmlns:xlink="http://www.w3.org/1999/xlink" x="0px" y="0px"
	 viewBox="0 0 402.773 402.773" style="enable-background:new 0 0 402.773 402.773;" xml:space="preserve">
<g>
	<g>
		<path d="M61.44,6.827H6.827C3.053,6.827,0,9.883,0,13.653V389.12c0,3.77,3.053,6.827,6.827,6.827H61.44
			c3.773,0,6.827-3.057,6.827-6.827V13.653C68.267,9.883,65.213,6.827,61.44,6.827z M54.613,382.293h-40.96V20.48h40.96V382.293z"/>
	</g>
</g>
<g>
	<g>
		<path d="M143.36,68.267H61.44c-3.773,0-6.827,3.057-6.827,6.827v20.48c0,3.77,3.053,6.827,6.827,6.827h81.92
			c3.773,0,6.827-3.057,6.827-6.827v-20.48C150.187,71.323,147.133,68.267,143.36,68.267z M136.533,88.747H68.267V81.92h68.267
			V88.747z"/>
	</g>
</g>
<g>
	<g>
		<path d="M143.36,177.493H61.44c-3.773,0-6.827,3.057-6.827,6.827v20.48c0,3.77,3.053,6.827,6.827,6.827h81.92
			c3.773,0,6.827-3.057,6.827-6.827v-20.48C150.187,180.55,147.133,177.493,143.36,177.493z M136.533,197.973H68.267v-6.827h68.267
			V197.973z"/>
	</g>
</g>
<g>
	<g>
		<path d="M395.947,6.827H143.36c-3.773,0-6.827,3.057-6.827,6.827v266.24c0,3.77,3.053,6.827,6.827,6.827h252.587
			c3.773,0,6.827-3.057,6.827-6.827V13.653C402.773,9.883,399.72,6.827,395.947,6.827z M389.12,273.067H150.187V20.48H389.12
			V273.067z"/>
	</g>
</g>
<g>
	<g>
		<path d="M211.627,47.787c-3.773,0-6.827,3.057-6.827,6.827V245.76c0,3.77,3.053,6.827,6.827,6.827s6.827-3.057,6.827-6.827V54.613
			C218.453,50.843,215.4,47.787,211.627,47.787z"/>
	</g>
</g>
<g>
	<g>
		<path d="M279.893,47.787c-3.773,0-6.827,3.057-6.827,6.827V245.76c0,3.77,3.053,6.827,6.827,6.827s6.827-3.057,6.827-6.827V54.613
			C286.72,50.843,283.667,47.787,279.893,47.787z"/>
	</g>
</g>
<g>
	<g>
		<path d="M232.107,47.787c-3.773,0-6.827,3.057-6.827,6.827v34.133c0,7.53-6.127,13.653-13.653,13.653
			c-7.526,0-13.653-6.124-13.653-13.653V54.613c0-3.77-3.053-6.827-6.827-6.827s-6.827,3.057-6.827,6.827v34.133
			c0,15.056,12.247,27.307,27.307,27.307s27.307-12.25,27.307-27.307V54.613C238.933,50.843,235.88,47.787,232.107,47.787z"/>
	</g>
</g>
<g>
	<g>
		<path d="M327.68,116.053c-3.773,0-6.827,3.057-6.827,6.827v122.88c0,3.77,3.053,6.827,6.827,6.827s6.827-3.057,6.827-6.827V122.88
			C334.507,119.11,331.453,116.053,327.68,116.053z"/>
	</g>
</g>
<g>
	<g>
		<path d="M279.893,47.787c-15.06,0-27.307,12.25-27.307,27.307v81.92c0,3.77,3.053,6.827,6.827,6.827h20.48
			c3.773,0,6.827-3.057,6.827-6.827v-102.4C286.72,50.843,283.667,47.787,279.893,47.787z M273.067,150.187h-6.827V75.093
			c0-5.043,2.746-9.457,6.827-11.82V150.187z"/>
	</g>
</g>
<g>
	<g>
		<path d="M327.68,47.787c-15.314,0-27.307,17.993-27.307,40.96s11.993,40.96,27.307,40.96c15.314,0,27.307-17.993,27.307-40.96
			S342.994,47.787,327.68,47.787z M327.68,116.053c-6.446,0-13.653-11.677-13.653-27.307s7.207-27.307,13.653-27.307
			c6.446,0,13.653,11.677,13.653,27.307S334.126,116.053,327.68,116.053z"/>
	</g>
</g>
<g>
</g>
<g>
</g>
<g>
</g>
<g>
</g>
<g>
</g>
<g>
</g>
<g>
</g>
<g>
</g>
<g>
</g>
<g>
</g>
<g>
</g>
<g>
</g>
<g>
</g>
<g>
</g>
<g>
</g>
</svg>
