<?xml version="1.0" encoding="iso-8859-1"?>
<!-- Generator: Adobe Illustrator 19.0.0, SVG Export Plug-In . SVG Version: 6.00 Build 0)  -->
<svg version="1.1" id="Capa_1" xmlns="http://www.w3.org/2000/svg" xmlns:xlink="http://www.w3.org/1999/xlink" x="0px" y="0px"
	 viewBox="0 0 436.904 436.904" style="enable-background:new 0 0 436.904 436.904;" xml:space="preserve">
<g>
	<g>
		<path d="M64.496,249.173h-48.62l24.82-86.871c1.038-3.627-1.063-7.404-4.687-8.44c-3.633-1.038-7.404,1.067-8.439,4.687
			L0.264,254.123c-0.591,2.06-0.176,4.277,1.113,5.987s3.306,2.717,5.449,2.717h57.67c3.77,0,6.827-3.057,6.827-6.827
			S68.266,249.173,64.496,249.173z"/>
	</g>
</g>
<g>
	<g>
		<path d="M436.515,274.207l-40.96-116.053c-0.963-2.727-3.543-4.553-6.436-4.553H34.132c-2.217,0-4.292,1.077-5.572,2.883
			c-1.28,1.811-1.601,4.127-0.864,6.217l40.96,116.053c0.963,2.727,3.543,4.553,6.436,4.553h354.987
			c2.217,0,4.294-1.077,5.572-2.883C436.931,278.613,437.252,276.297,436.515,274.207z M79.922,269.653l-36.139-102.4h340.506
			l36.14,102.4H79.922z"/>
	</g>
</g>
<g>
	<g>
		<path d="M119.459,230.236c-0.12-0.119-0.244-0.259-0.364-0.423c-0.123-0.159-0.183-0.362-0.183-0.606v-4.302
			c0-1.312-0.186-2.463-0.56-3.456c-0.374-0.986-0.855-1.836-1.44-2.543c-0.585-0.707-1.242-1.289-1.969-1.742
			c-0.727-0.456-1.444-0.823-2.154-1.106c1.113-0.323,2.077-0.746,2.896-1.273c0.818-0.527,1.51-1.101,2.077-1.727
			c0.563-0.626,1.019-1.283,1.364-1.969s0.618-1.35,0.818-1.987c0.203-0.637,0.333-1.224,0.396-1.756
			c0.06-0.538,0.09-0.968,0.09-1.29c0-1.577-0.193-2.961-0.577-4.154c-0.384-1.19-0.891-2.226-1.514-3.106
			c-0.626-0.877-1.34-1.616-2.14-2.21c-0.797-0.597-1.611-1.097-2.441-1.504c-1.959-0.927-4.18-1.454-6.666-1.574H97.09
			c-1.13,0-2.007,0.198-2.62,0.591c-0.616,0.393-1.067,0.913-1.35,1.56c-0.283,0.647-0.451,1.384-0.5,2.214
			s-0.077,1.676-0.077,2.546v28.481c0,0.889,0.027,1.76,0.077,2.606c0.049,0.85,0.217,1.603,0.5,2.26
			c0.283,0.657,0.734,1.181,1.35,1.577c0.613,0.394,1.49,0.59,2.62,0.59c1.152,0,2.039-0.198,2.666-0.59
			c0.626-0.398,1.084-0.92,1.367-1.577c0.28-0.657,0.447-1.41,0.5-2.26c0.049-0.846,0.073-1.717,0.073-2.606v-10.124h3.396
			c0.971,0,1.758,0.154,2.364,0.457c0.606,0.304,1.08,0.727,1.423,1.273c0.343,0.544,0.577,1.191,0.7,1.94
			c0.12,0.747,0.179,1.565,0.179,2.454v6.427c0,0.787,0.177,1.483,0.531,2.091c0.353,0.608,0.814,1.114,1.381,1.517
			c0.567,0.403,1.195,0.713,1.881,0.923c0.686,0.215,1.362,0.321,2.029,0.321c0.606,0,1.196-0.067,1.773-0.196
			c0.577-0.133,1.089-0.35,1.546-0.654c0.452-0.302,0.823-0.696,1.106-1.179c0.28-0.486,0.423-1.084,0.423-1.79
			c0-0.224-0.039-0.51-0.119-0.864C120.225,231.142,119.942,230.722,119.459,230.236z M111.05,208.024
			c-0.154,0.567-0.36,1.06-0.623,1.487c-0.265,0.423-0.556,0.777-0.881,1.06c-0.324,0.283-0.657,0.517-1,0.696
			c-0.807,0.447-1.717,0.688-2.727,0.727v0.002h-4.123v-11.334h4.367c0.969,0.061,1.836,0.283,2.606,0.667
			c0.324,0.16,0.64,0.374,0.954,0.637c0.312,0.259,0.592,0.582,0.833,0.969c0.244,0.384,0.44,0.833,0.594,1.347
			c0.15,0.517,0.227,1.106,0.227,1.773C111.277,206.8,111.2,207.461,111.05,208.024z"/>
	</g>
</g>
<g>
	<g>
		<path d="M151.947,227.925c-0.666-0.273-1.411-0.44-2.243-0.5c-0.831-0.06-1.647-0.09-2.454-0.09h-7.217v-8.73h3.82
			c0.807,0,1.623-0.027,2.44-0.077c0.819-0.049,1.546-0.213,2.183-0.486c0.637-0.27,1.157-0.681,1.56-1.227
			c0.403-0.543,0.606-1.323,0.606-2.333c0-0.99-0.203-1.763-0.606-2.319c-0.403-0.555-0.923-0.971-1.56-1.241
			c-0.637-0.273-1.364-0.437-2.183-0.486c-0.817-0.049-1.633-0.077-2.44-0.077h-3.82v-8.243h7.217c0.807,0,1.625-0.031,2.454-0.09
			c0.829-0.06,1.575-0.234,2.243-0.517c0.667-0.283,1.213-0.713,1.637-1.287c0.423-0.577,0.637-1.381,0.637-2.41
			s-0.213-1.833-0.637-2.41c-0.423-0.577-0.969-1.007-1.637-1.29c-0.666-0.28-1.411-0.454-2.243-0.514
			c-0.831-0.06-1.647-0.09-2.454-0.09v0.003h-11.883c-1.133,0-2.007,0.201-2.623,0.604c-0.616,0.408-1.063,0.937-1.347,1.594
			c-0.283,0.657-0.451,1.401-0.5,2.227c-0.049,0.829-0.077,1.676-0.077,2.546v28.493c0,0.867,0.027,1.717,0.077,2.543
			c0.049,0.831,0.217,1.573,0.5,2.231s0.73,1.188,1.347,1.591s1.49,0.606,2.623,0.606h11.883c0.787,0,1.594-0.031,2.423-0.09
			c0.826-0.06,1.575-0.234,2.243-0.517c0.667-0.283,1.217-0.717,1.65-1.304c0.437-0.587,0.654-1.405,0.654-2.454
			c0-1.01-0.213-1.804-0.637-2.381C153.16,228.622,152.613,228.198,151.947,227.925z"/>
	</g>
</g>
<g>
	<g>
		<path d="M188.197,219.813c-0.483-1.19-1.12-2.26-1.91-3.21c-0.785-0.949-1.676-1.799-2.666-2.546s-2.007-1.44-3.046-2.077
			s-2.057-1.242-3.046-1.819s-1.874-1.167-2.651-1.773c-0.78-0.608-1.408-1.248-1.881-1.923c-0.478-0.678-0.724-1.44-0.744-2.29
			c0-1.029,0.116-1.826,0.353-2.394c0.23-0.567,0.544-0.986,0.94-1.256c0.394-0.273,0.846-0.44,1.364-0.5
			c0.514-0.063,1.044-0.094,1.591-0.094c1.154,0,2.026,0.323,2.623,0.969c0.592,0.647,0.893,1.799,0.893,3.456
			c0,0.403,0.119,0.804,0.364,1.196c0.244,0.393,0.556,0.742,0.94,1.046c0.384,0.304,0.818,0.551,1.304,0.744
			c0.485,0.189,0.971,0.287,1.454,0.287c0.626,0,1.21-0.097,1.742-0.287c0.536-0.195,1-0.461,1.396-0.804
			c0.394-0.343,0.707-0.763,0.937-1.26c0.234-0.493,0.35-1.044,0.35-1.65c0-0.406-0.029-0.939-0.09-1.606
			c-0.061-0.667-0.213-1.384-0.457-2.154c-0.239-0.766-0.609-1.546-1.106-2.333c-0.493-0.787-1.169-1.497-2.029-2.123
			c-0.86-0.623-1.934-1.14-3.227-1.543c-1.292-0.406-2.869-0.606-4.729-0.606h-0.787c-2.045,0-3.85,0.177-5.427,0.531
			c-1.577,0.353-2.903,0.954-3.987,1.804c-1.08,0.85-1.898,1.99-2.454,3.427c-0.556,1.434-0.843,3.232-0.864,5.393v0.486
			c0.021,1.314,0.268,2.483,0.741,3.514c0.476,1.032,1.106,1.969,1.896,2.819c0.787,0.85,1.669,1.633,2.651,2.35
			c0.981,0.717,1.988,1.405,3.017,2.06c1.029,0.655,2.039,1.313,3.033,1.97c0.986,0.657,1.867,1.35,2.637,2.077
			c0.766,0.727,1.388,1.517,1.864,2.364c0.473,0.85,0.713,1.8,0.713,2.85c0,0.85-0.108,1.55-0.321,2.106
			c-0.213,0.556-0.502,1-0.864,1.333s-0.802,0.567-1.319,0.696c-0.512,0.133-1.073,0.21-1.679,0.23c-1.213,0-2.144-0.28-2.79-0.836
			c-0.647-0.553-0.992-1.589-1.031-3.106c-0.019-0.688-0.176-1.287-0.469-1.804c-0.294-0.514-0.666-0.94-1.12-1.273
			c-0.457-0.335-0.961-0.58-1.517-0.741c-0.556-0.164-1.096-0.244-1.623-0.244c-0.563,0-1.102,0.08-1.62,0.244
			c-0.517,0.16-0.969,0.408-1.364,0.741c-0.394,0.333-0.713,0.763-0.957,1.29c-0.241,0.527-0.364,1.14-0.364,1.85
			c0,0.686,0.08,1.423,0.244,2.21c0.16,0.79,0.423,1.584,0.787,2.381c0.364,0.799,0.853,1.574,1.469,2.319
			c0.616,0.746,1.389,1.41,2.319,1.983c0.93,0.577,2.041,1.038,3.333,1.381s2.799,0.517,4.516,0.517h0.304
			c0.889-0.021,1.833-0.104,2.833-0.244c1-0.14,1.99-0.384,2.97-0.727c0.981-0.345,1.918-0.804,2.807-1.381
			c0.886-0.577,1.667-1.307,2.333-2.196c0.666-0.889,1.2-1.949,1.606-3.183c0.403-1.234,0.606-2.676,0.606-4.333v-0.244
			C188.944,222.36,188.683,221.006,188.197,219.813z"/>
	</g>
</g>
<g>
	<g>
		<path d="M220.016,227.925c-0.666-0.273-1.411-0.44-2.243-0.5c-0.831-0.06-1.647-0.09-2.454-0.09h-7.218v-8.73h3.82
			c0.807,0,1.623-0.027,2.44-0.077c0.819-0.049,1.546-0.213,2.183-0.486c0.637-0.27,1.157-0.681,1.56-1.227
			c0.403-0.543,0.606-1.323,0.606-2.333c0-0.99-0.203-1.763-0.606-2.319c-0.403-0.555-0.923-0.971-1.56-1.241
			c-0.637-0.273-1.364-0.437-2.183-0.486c-0.817-0.049-1.633-0.077-2.44-0.077h-3.82v-8.243h7.218c0.807,0,1.625-0.031,2.454-0.09
			c0.829-0.06,1.575-0.234,2.243-0.517c0.667-0.283,1.213-0.713,1.637-1.287c0.423-0.577,0.637-1.381,0.637-2.41
			s-0.213-1.833-0.637-2.41c-0.423-0.577-0.969-1.007-1.637-1.29c-0.666-0.28-1.411-0.454-2.243-0.514
			c-0.831-0.06-1.647-0.09-2.454-0.09v0.003h-11.883c-1.133,0-2.007,0.201-2.623,0.604c-0.616,0.408-1.063,0.937-1.347,1.594
			c-0.283,0.657-0.451,1.401-0.5,2.227c-0.049,0.829-0.077,1.676-0.077,2.546v28.493c0,0.867,0.027,1.717,0.077,2.543
			c0.049,0.831,0.217,1.573,0.5,2.231s0.73,1.188,1.347,1.591c0.616,0.403,1.49,0.606,2.623,0.606h11.883
			c0.787,0,1.594-0.031,2.423-0.09c0.826-0.06,1.575-0.234,2.243-0.517s1.217-0.717,1.65-1.304c0.437-0.587,0.654-1.405,0.654-2.454
			c0-1.01-0.213-1.804-0.637-2.381S220.681,228.198,220.016,227.925z"/>
	</g>
</g>
<g>
	<g>
		<path d="M259.476,230.236c-0.119-0.119-0.244-0.259-0.363-0.423c-0.123-0.159-0.183-0.362-0.183-0.606v-4.302
			c0-1.312-0.186-2.463-0.56-3.456c-0.374-0.986-0.855-1.836-1.44-2.543c-0.585-0.707-1.242-1.289-1.969-1.742
			c-0.727-0.456-1.444-0.823-2.154-1.106c1.113-0.323,2.077-0.746,2.896-1.273c0.817-0.527,1.51-1.101,2.077-1.727
			c0.563-0.626,1.019-1.283,1.364-1.969s0.618-1.35,0.818-1.987c0.203-0.637,0.333-1.224,0.396-1.756
			c0.06-0.538,0.09-0.968,0.09-1.29c0-1.577-0.193-2.961-0.577-4.154c-0.384-1.19-0.891-2.226-1.514-3.106
			c-0.626-0.877-1.34-1.616-2.14-2.21c-0.797-0.597-1.611-1.097-2.441-1.504c-1.959-0.927-4.18-1.454-6.666-1.574h-10.003
			c-1.13,0-2.007,0.198-2.62,0.591c-0.616,0.393-1.067,0.913-1.35,1.56c-0.283,0.647-0.451,1.384-0.5,2.214
			c-0.049,0.829-0.077,1.676-0.077,2.546v28.481c0,0.889,0.027,1.76,0.077,2.606c0.049,0.85,0.217,1.603,0.5,2.26
			c0.283,0.657,0.734,1.181,1.35,1.577c0.613,0.394,1.49,0.59,2.62,0.59c1.152,0,2.039-0.198,2.666-0.59
			c0.626-0.398,1.084-0.92,1.367-1.577c0.28-0.657,0.447-1.41,0.5-2.26c0.049-0.846,0.073-1.717,0.073-2.606v-10.124h3.396
			c0.971,0,1.758,0.154,2.364,0.457c0.606,0.304,1.08,0.727,1.423,1.273c0.343,0.544,0.577,1.191,0.7,1.94
			c0.119,0.747,0.179,1.565,0.179,2.454v6.427c0,0.787,0.177,1.483,0.531,2.091c0.353,0.608,0.814,1.114,1.381,1.517
			c0.567,0.403,1.195,0.713,1.881,0.923c0.686,0.215,1.362,0.321,2.029,0.321c0.606,0,1.196-0.067,1.773-0.196
			c0.577-0.133,1.089-0.35,1.546-0.654c0.452-0.302,0.823-0.696,1.106-1.179c0.28-0.486,0.423-1.084,0.423-1.79
			c0-0.224-0.039-0.51-0.119-0.864C260.242,231.142,259.959,230.722,259.476,230.236z M251.067,208.024
			c-0.154,0.567-0.36,1.06-0.623,1.487c-0.265,0.423-0.556,0.777-0.881,1.06c-0.324,0.283-0.657,0.517-1,0.696
			c-0.807,0.447-1.717,0.688-2.727,0.727v0.002h-4.123v-11.334h4.367c0.969,0.061,1.836,0.283,2.606,0.667
			c0.324,0.16,0.64,0.374,0.954,0.637c0.312,0.259,0.592,0.582,0.833,0.969c0.244,0.384,0.44,0.833,0.594,1.347
			c0.15,0.517,0.227,1.106,0.227,1.773C251.294,206.8,251.217,207.461,251.067,208.024z"/>
	</g>
</g>
<g>
	<g>
		<path d="M296.299,195.854c-0.239-0.474-0.57-0.884-0.983-1.227c-0.416-0.343-0.894-0.616-1.44-0.819
			c-0.546-0.2-1.113-0.3-1.696-0.3c-0.969,0-1.749,0.21-2.333,0.637c-0.582,0.423-1.05,0.896-1.393,1.423
			c-0.384,0.606-0.678,1.294-0.881,2.06c-0.2,0.971-0.432,2.067-0.696,3.29c-0.265,1.224-0.534,2.49-0.818,3.804
			c-0.283,1.314-0.573,2.654-0.864,4.018c-0.294,1.362-0.573,2.683-0.833,3.956c-0.647,2.99-1.318,6.05-2.004,9.184h-0.969
			c-0.628-3.133-1.251-6.193-1.877-9.184c-0.263-1.273-0.543-2.592-0.833-3.956c-0.294-1.364-0.584-2.703-0.867-4.018
			c-0.28-1.314-0.563-2.581-0.846-3.804c-0.283-1.224-0.546-2.321-0.79-3.29c-0.179-0.766-0.463-1.454-0.847-2.06
			c-0.343-0.527-0.812-1-1.41-1.423c-0.597-0.427-1.381-0.637-2.35-0.637c-0.626,0-1.21,0.101-1.756,0.3
			c-0.546,0.203-1.021,0.476-1.427,0.819c-0.404,0.343-0.72,0.754-0.954,1.227c-0.234,0.476-0.35,0.986-0.35,1.529
			c0,0.507,0.053,0.961,0.154,1.367c0.041,0.22,0.09,0.413,0.15,0.573l8.61,32.98c0.283,0.686,0.676,1.292,1.183,1.816
			c0.423,0.466,0.978,0.886,1.667,1.26c0.686,0.374,1.533,0.56,2.543,0.56h0.969c1.012,0,1.855-0.188,2.533-0.56
			c0.677-0.372,1.227-0.794,1.65-1.26c0.507-0.522,0.91-1.13,1.213-1.816c1.372-5.376,2.809-10.866,4.302-16.473
			c1.495-5.61,2.929-11.11,4.302-16.507c0.044-0.16,0.094-0.353,0.154-0.573c0.039-0.183,0.075-0.389,0.106-0.623
			c0.029-0.23,0.043-0.481,0.043-0.744C296.662,196.84,296.543,196.33,296.299,195.854z"/>
	</g>
</g>
<g>
	<g>
		<path d="M326,227.925c-0.666-0.273-1.411-0.44-2.243-0.5c-0.831-0.06-1.647-0.09-2.454-0.09h-7.218v-8.73h3.82
			c0.807,0,1.623-0.027,2.44-0.077c0.819-0.049,1.546-0.213,2.183-0.486c0.637-0.27,1.157-0.681,1.56-1.227
			c0.403-0.543,0.606-1.323,0.606-2.333c0-0.99-0.203-1.763-0.606-2.319c-0.403-0.555-0.923-0.971-1.56-1.241
			c-0.637-0.273-1.364-0.437-2.183-0.486c-0.817-0.049-1.633-0.077-2.44-0.077h-3.82v-8.243h7.218c0.807,0,1.625-0.031,2.454-0.09
			c0.829-0.06,1.575-0.234,2.243-0.517c0.667-0.283,1.213-0.713,1.637-1.287c0.423-0.577,0.637-1.381,0.637-2.41
			s-0.213-1.833-0.637-2.41c-0.423-0.577-0.969-1.007-1.637-1.29c-0.666-0.28-1.411-0.454-2.243-0.514
			c-0.831-0.06-1.647-0.09-2.454-0.09v0.003h-11.883c-1.133,0-2.007,0.201-2.623,0.604c-0.616,0.408-1.063,0.937-1.347,1.594
			c-0.283,0.657-0.451,1.401-0.5,2.227c-0.049,0.829-0.077,1.676-0.077,2.546v28.493c0,0.867,0.027,1.717,0.077,2.543
			c0.049,0.831,0.217,1.573,0.5,2.231s0.73,1.188,1.347,1.591c0.616,0.403,1.49,0.606,2.623,0.606h11.883
			c0.787,0,1.594-0.031,2.423-0.09c0.826-0.06,1.575-0.234,2.243-0.517s1.217-0.717,1.65-1.304c0.437-0.587,0.654-1.405,0.654-2.454
			c0-1.01-0.213-1.804-0.637-2.381S326.665,228.198,326,227.925z"/>
	</g>
</g>
<g>
	<g>
		<path d="M363.78,199.721c-0.678-1.377-1.608-2.521-2.787-3.441c-1.184-0.92-2.567-1.615-4.154-2.077
			c-1.587-0.466-3.301-0.696-5.137-0.696v-0.002h-8.788c-1.152,0-2.043,0.198-2.669,0.591s-1.08,0.913-1.364,1.56
			c-0.283,0.647-0.451,1.384-0.5,2.214c-0.049,0.829-0.077,1.676-0.077,2.546v28.553c0,0.887,0.027,1.748,0.077,2.574
			c0.049,0.831,0.217,1.574,0.5,2.231c0.283,0.657,0.737,1.181,1.364,1.577c0.626,0.394,1.516,0.591,2.669,0.591h10.063
			c2.2-0.119,4.169-0.647,5.91-1.577c0.727-0.384,1.444-0.884,2.15-1.5s1.34-1.362,1.896-2.243c0.553-0.881,1.004-1.92,1.347-3.12
			c0.343-1.203,0.517-2.592,0.517-4.169v-18.794C364.797,202.701,364.456,201.095,363.78,199.721z M356.126,223.877
			c0,0.606-0.063,1.14-0.196,1.606c-0.131,0.463-0.307,0.864-0.531,1.196c-0.224,0.333-0.473,0.62-0.756,0.864
			c-0.283,0.244-0.567,0.437-0.85,0.577c-0.686,0.362-1.466,0.567-2.333,0.606h-3.941v-28.128h3.941
			c0.867,0.063,1.647,0.283,2.333,0.667c0.283,0.164,0.567,0.377,0.85,0.637c0.283,0.263,0.532,0.585,0.756,0.969
			c0.224,0.387,0.401,0.833,0.531,1.35c0.133,0.517,0.196,1.106,0.196,1.773V223.877z"/>
	</g>
</g>
<g>
</g>
<g>
</g>
<g>
</g>
<g>
</g>
<g>
</g>
<g>
</g>
<g>
</g>
<g>
</g>
<g>
</g>
<g>
</g>
<g>
</g>
<g>
</g>
<g>
</g>
<g>
</g>
<g>
</g>
</svg>
