<?xml version="1.0" encoding="iso-8859-1"?>
<!-- Generator: Adobe Illustrator 19.0.0, SVG Export Plug-In . SVG Version: 6.00 Build 0)  -->
<svg version="1.1" id="Capa_1" xmlns="http://www.w3.org/2000/svg" xmlns:xlink="http://www.w3.org/1999/xlink" x="0px" y="0px"
	 viewBox="0 0 411.694 411.694" style="enable-background:new 0 0 411.694 411.694;" xml:space="preserve">
<g>
	<g>
		<path d="M122.696,258.616c-9.347-10.561-23.34-21.85-39.393-31.794c-16.053-9.943-32.394-17.44-46.013-21.106
			c-16.626-4.487-27.467-2.872-32.2,4.777c-4.746,7.651-1.359,18.07,10.061,30.964c9.353,10.561,23.34,21.85,39.393,31.793
			c16.053,9.943,32.394,17.44,46.013,21.106c6.127,1.654,11.467,2.476,16.007,2.476c7.781,0,13.206-2.423,16.193-7.253
			C137.503,281.929,134.116,271.51,122.696,258.616z M121.217,282.307c-2.886,2.667-25.532,0.364-59.486-20.663
			c-33.946-21.035-46.101-40.284-45.1-43.877c2.872-2.674,25.532-0.364,59.486,20.663
			C110.07,259.459,122.224,278.714,121.217,282.307z"/>
	</g>
</g>
<g>
	<g>
		<path d="M109.857,183.943c-3.207-1.987-7.414-0.997-9.4,2.21l-37.34,60.29c-1.98,3.203-0.993,7.414,2.214,9.397
			c1.121,0.695,2.36,1.024,3.587,1.024c2.287,0,4.521-1.147,5.813-3.234l37.34-60.29
			C114.05,190.136,113.064,185.926,109.857,183.943z"/>
	</g>
</g>
<g>
	<g>
		<path d="M130.899,7.369c-3.207-1.987-7.414-0.993-9.4,2.21L79.424,77.503c-1.98,3.203-0.993,7.41,2.214,9.397
			c1.121,0.695,2.36,1.024,3.587,1.024c2.287,0,4.519-1.147,5.813-3.234l42.075-67.924C135.092,13.563,134.105,9.356,130.899,7.369z
			"/>
	</g>
</g>
<g>
	<g>
		<path d="M258.578,86.448c-3.214-1.99-7.407-0.997-9.4,2.21l-42.341,68.364c-1.98,3.203-0.993,7.414,2.214,9.397
			c1.121,0.695,2.36,1.024,3.587,1.024c2.287,0,4.519-1.145,5.813-3.234l42.341-68.364
			C262.771,92.641,261.785,88.431,258.578,86.448z"/>
	</g>
</g>
<g>
	<g>
		<path d="M210.433,151.218l-8.02,12.95c-8.627,13.933-22.182,23.67-38.147,27.412c-16,3.738-32.466,1.043-46.413-7.6l-11.58-7.173
			c-13.954-8.646-23.714-22.204-27.467-38.18c-3.753-15.98-1.06-32.473,7.593-46.44l8.233-13.3l-11.614-7.187l-8.233,13.3
			c-10.568,17.067-13.86,37.219-9.272,56.75c4.594,19.528,16.514,36.101,33.574,46.664l11.58,7.173
			c12.039,7.46,25.619,11.293,39.432,11.293c5.753,0,11.539-0.664,17.282-2.005c19.526-4.577,36.093-16.481,46.647-33.521
			l8.02-12.95L210.433,151.218z"/>
	</g>
</g>
<g>
	<g>
		<path d="M209.117,23.697c-17.714-10.97-36.019-18.801-51.553-22.04c-22.833-4.779-32.2,1.681-36.067,7.924
			c-3.86,6.24-5.446,17.519,8.974,35.813c9.827,12.464,24.987,25.366,42.701,36.337s36.019,18.801,51.553,22.04
			c5.528,1.157,10.267,1.65,14.327,1.65c12.706,0,18.806-4.844,21.738-9.574C272.584,76.8,243.723,45.135,209.117,23.697z
			 M249.177,88.661c-1.707,2.763-9.066,4.372-21.666,1.746c-14.013-2.927-30.761-10.131-47.154-20.284s-30.3-21.936-39.159-33.179
			c-7.967-10.103-9.8-17.413-8.086-20.176c1.099-1.78,4.54-3.081,10.219-3.081c3.14,0,6.96,0.396,11.445,1.333
			c14.013,2.927,30.761,10.131,47.153,20.284C236.818,56.914,253.471,81.731,249.177,88.661z"/>
	</g>
</g>
<g>
	<g>
		<path d="M212.271,123.873c-9.82-12.464-24.987-25.366-42.701-36.337c-17.707-10.97-36.012-18.801-51.546-22.04
			c-22.787-4.77-32.193,1.684-36.06,7.921c-3.872,6.24-5.453,17.519,8.967,35.816c9.82,12.464,24.987,25.366,42.701,36.337
			c22.427,13.897,47.635,23.714,65.807,23.714c9.859,0,17.652-2.894,21.813-9.598C225.11,153.446,226.69,142.167,212.271,123.873z
			 M209.644,152.496c-4.313,6.938-33.94,3.074-68.826-18.533c-16.393-10.153-30.3-21.936-39.166-33.179
			c-7.96-10.103-9.793-17.41-8.079-20.176c1.099-1.78,4.54-3.081,10.22-3.081c3.14,0,6.96,0.396,11.44,1.333
			c14.013,2.927,30.761,10.131,47.154,20.284c16.393,10.153,30.3,21.936,39.166,33.179
			C209.511,142.426,211.351,149.736,209.644,152.496z"/>
	</g>
</g>
<g>
	<g>
		<path d="M356.61,367.377c-13.059-5.344-30.599-9.298-49.393-11.124c-18.785-1.835-36.76-1.341-50.606,1.389
			c-16.894,3.328-25.907,9.557-26.774,18.51c-0.872,8.957,6.76,16.807,22.7,23.33c13.059,5.344,30.599,9.295,49.393,11.124
			c7.46,0.727,14.786,1.087,21.78,1.087c10.627,0,20.48-0.831,28.826-2.473c16.894-3.328,25.907-9.557,26.774-18.51
			C380.183,381.754,372.551,373.903,356.61,367.377z M303.25,397.022c-39.747-3.871-59.153-15.775-59.846-19.441
			c1.14-2.982,15.427-8.777,42.047-8.777c6.159,0,12.981,0.309,20.446,1.038c39.747,3.871,59.153,15.778,59.846,19.444
			C364.343,392.951,343.049,400.898,303.25,397.022z"/>
	</g>
</g>
<g>
	<g>
		<path d="M312.416,302.886c-3.78-0.403-7.093,2.381-7.453,6.134l-7.18,73.75c-0.367,3.75,2.381,7.089,6.134,7.453
			c0.227,0.024,0.447,0.034,0.667,0.034c3.473,0,6.446-2.637,6.786-6.168l7.18-73.75
			C318.917,306.589,316.169,303.249,312.416,302.886z"/>
	</g>
</g>
<g>
	<g>
		<path d="M252.983,138.346c-3.773-0.382-7.093,2.377-7.453,6.134l-7.74,79.52c-0.367,3.75,2.381,7.089,6.134,7.453
			c0.227,0.024,0.447,0.034,0.667,0.034c3.473,0,6.446-2.637,6.786-6.168l7.74-79.52
			C259.484,142.049,256.736,138.709,252.983,138.346z"/>
	</g>
</g>
<g>
	<g>
		<path d="M402.462,152.899c-3.733-0.389-7.093,2.377-7.453,6.134l-7.793,80.034c-0.367,3.75,2.381,7.089,6.134,7.453
			c0.22,0.024,0.447,0.034,0.667,0.034c3.475,0,6.448-2.637,6.786-6.168l7.793-80.034
			C408.962,156.602,406.215,153.262,402.462,152.899z"/>
	</g>
</g>
<g>
	<g>
		<path d="M387.882,232.265l-1.48,15.164c-1.587,16.312-9.44,31.029-22.113,41.443c-12.674,10.414-28.619,15.271-45,13.684
			l-13.559-1.319c-16.34-1.594-31.08-9.446-41.506-22.124c-10.426-12.677-15.293-28.663-13.699-45.013l1.514-15.57l-13.587-1.319
			l-1.514,15.566c-1.947,19.98,3.999,39.516,16.746,55.009c12.74,15.493,30.754,25.093,50.727,27.037l13.559,1.319
			c2.482,0.244,4.961,0.364,7.427,0.364c17.335,0,33.993-5.939,47.558-17.085c15.493-12.73,25.093-30.725,27.034-50.669l1.48-15.16
			L387.882,232.265z"/>
	</g>
</g>
<g>
	<g>
		<path d="M330.372,118.446c-20.734-2.022-40.614-0.956-55.987,2.997c-22.559,5.799-28.146,15.73-28.853,23.037
			c-2.173,22.304,37.707,37.963,78.227,41.907c6.859,0.671,13.626,1,20.173,1c13.227,0,25.533-1.35,35.814-3.997
			c22.559-5.799,28.146-15.73,28.853-23.037C410.771,138.049,370.892,122.387,330.372,118.446z M376.345,170.167
			c-13.867,3.567-32.08,4.483-51.267,2.633c-40.839-3.977-66.746-18.883-65.959-26.999c0.312-3.232,6.212-7.929,18.673-11.133
			c9.192-2.367,20.292-3.574,32.326-3.574c6.113,0,12.467,0.312,18.935,0.94c40.839,3.977,66.746,18.883,65.959,26.999
			C394.698,162.266,388.805,166.963,376.345,170.167z"/>
	</g>
</g>
<g>
	<g>
		<path d="M323.098,193.186c-20.714-2.022-40.62-0.956-55.987,2.997c-22.559,5.799-28.146,15.73-28.853,23.037
			c-2.173,22.304,37.707,37.966,78.227,41.907c6.859,0.671,13.626,1,20.166,1c13.227,0,25.533-1.35,35.821-3.997
			c22.559-5.799,28.146-15.73,28.853-23.037C403.498,212.789,363.618,197.13,323.098,193.186z M369.064,244.907
			c-13.867,3.57-32.073,4.487-51.26,2.633c-40.839-3.977-66.746-18.883-65.959-26.999c0.314-3.232,6.207-7.929,18.668-11.133
			c9.192-2.367,20.299-3.574,32.333-3.574c6.113,0,12.466,0.312,18.932,0.94c40.839,3.977,66.746,18.883,65.959,26.999
			C387.424,237.007,381.524,241.703,369.064,244.907z"/>
	</g>
</g>
<g>
</g>
<g>
</g>
<g>
</g>
<g>
</g>
<g>
</g>
<g>
</g>
<g>
</g>
<g>
</g>
<g>
</g>
<g>
</g>
<g>
</g>
<g>
</g>
<g>
</g>
<g>
</g>
<g>
</g>
</svg>
