<?xml version="1.0" encoding="iso-8859-1"?>
<!-- Generator: Adobe Illustrator 19.0.0, SVG Export Plug-In . SVG Version: 6.00 Build 0)  -->
<svg version="1.1" id="Capa_1" xmlns="http://www.w3.org/2000/svg" xmlns:xlink="http://www.w3.org/1999/xlink" x="0px" y="0px"
	 viewBox="0 0 327.68 327.68" style="enable-background:new 0 0 327.68 327.68;" xml:space="preserve">
<g>
	<g>
		<path d="M163.84,273.067c-36.166,0-75.093,8.547-75.093,27.307c0,18.76,38.927,27.307,75.093,27.307s75.093-8.547,75.093-27.307
			C238.933,281.614,200.006,273.067,163.84,273.067z M163.84,314.027c-39.933,0-60.407-9.967-61.454-13.549
			c1.046-3.791,21.521-13.757,61.454-13.757s60.407,9.967,61.454,13.549C224.247,304.06,203.773,314.027,163.84,314.027z"/>
	</g>
</g>
<g>
	<g>
		<path d="M163.84,218.453c-3.773,0-6.827,3.057-6.827,6.827v75.093c0,3.77,3.053,6.827,6.827,6.827s6.827-3.057,6.827-6.827V225.28
			C170.667,221.51,167.613,218.453,163.84,218.453z"/>
	</g>
</g>
<g>
	<g>
		<path d="M40.96,27.307c-3.773,0-6.827,3.057-6.827,6.827v73.069c0,3.77,3.053,6.827,6.827,6.827s6.827-3.057,6.827-6.827V34.133
			C47.787,30.363,44.733,27.307,40.96,27.307z"/>
	</g>
</g>
<g>
	<g>
		<path d="M286.72,27.307c-3.773,0-6.827,3.057-6.827,6.827v73.583c0,3.77,3.053,6.827,6.827,6.827s6.827-3.057,6.827-6.827V34.133
			C293.547,30.363,290.493,27.307,286.72,27.307z"/>
	</g>
</g>
<g>
	<g>
		<path d="M286.72,94.063c-3.773,0-6.827,3.057-6.827,6.827v56.19c0,33.84-47.06,61.373-104.907,61.373h-22.292
			c-57.847,0-104.907-27.576-104.907-61.471v-56.603c0-3.77-3.053-6.827-6.827-6.827s-6.827,3.057-6.827,6.827v56.603
			c0,42.127,52.081,75.124,118.56,75.124h22.292c65.374,0,118.56-33.657,118.56-75.027v-56.19
			C293.547,97.12,290.493,94.063,286.72,94.063z"/>
	</g>
</g>
<g>
	<g>
		<path d="M163.84,0C115.666,0,34.133,7.19,34.133,34.133s81.533,34.133,129.707,34.133s129.707-7.19,129.707-34.133
			C293.547,7.19,212.014,0,163.84,0z M163.84,54.613c-72.4,0-114.039-13.409-116.067-20.361
			c2.028-7.19,43.667-20.599,116.067-20.599S277.88,27.063,279.907,34.014C277.88,41.204,236.24,54.613,163.84,54.613z"/>
	</g>
</g>
<g>
	<g>
		<path d="M163.84,75.093c-48.174,0-129.707,7.19-129.707,34.133c0,26.943,81.533,34.133,129.707,34.133
			s129.707-7.19,129.707-34.133C293.547,82.284,212.014,75.093,163.84,75.093z M163.84,129.707
			c-72.4,0-114.039-13.409-116.067-20.361c2.028-7.19,43.667-20.599,116.067-20.599s114.039,13.409,116.067,20.361
			C277.88,116.297,236.24,129.707,163.84,129.707z"/>
	</g>
</g>
<g>
</g>
<g>
</g>
<g>
</g>
<g>
</g>
<g>
</g>
<g>
</g>
<g>
</g>
<g>
</g>
<g>
</g>
<g>
</g>
<g>
</g>
<g>
</g>
<g>
</g>
<g>
</g>
<g>
</g>
</svg>
