<?xml version="1.0" encoding="iso-8859-1"?>
<!-- Generator: Adobe Illustrator 19.0.0, SVG Export Plug-In . SVG Version: 6.00 Build 0)  -->
<svg version="1.1" id="Capa_1" xmlns="http://www.w3.org/2000/svg" xmlns:xlink="http://www.w3.org/1999/xlink" x="0px" y="0px"
	 viewBox="0 0 389.12 389.12" style="enable-background:new 0 0 389.12 389.12;" xml:space="preserve">
<g>
	<g>
		<path d="M116.053,0h-61.44c-3.773,0-6.827,3.053-6.827,6.827V348.16c0,3.773,3.053,6.827,6.827,6.827s6.827-3.053,6.827-6.827
			V13.653h47.787v307.2c0,3.773,3.053,6.827,6.827,6.827s6.827-3.053,6.827-6.827V6.827C122.88,3.053,119.827,0,116.053,0z"/>
	</g>
</g>
<g>
	<g>
		<path d="M313.194,0h-197.14c-3.773,0-6.827,3.053-6.827,6.827v310.4c0,3.773,3.053,6.827,6.827,6.827s6.827-3.053,6.827-6.827
			V13.653h190.314c7.986,0,14.486,6.499,14.486,14.486v354.154c0,3.773,3.053,6.827,6.827,6.827s6.827-3.053,6.827-6.827V28.14
			C341.333,12.626,328.707,0,313.194,0z"/>
	</g>
</g>
<g>
	<g>
		<path d="M334.507,314.027H85.333c-20.7,0-37.547,16.846-37.547,37.547c0,20.7,16.846,37.547,37.547,37.547h249.173
			c3.773,0,6.827-3.053,6.827-6.827v-61.44C341.333,317.08,338.28,314.027,334.507,314.027z M327.68,375.467H85.333
			c-13.174,0-23.893-10.72-23.893-23.893c0-13.174,10.72-23.893,23.893-23.893H327.68V375.467z"/>
	</g>
</g>
<g>
	<g>
		<path d="M298.373,131.707c-14.766-14.759-45.607-30.814-70.054-14.507c-18.239,12.16-36.746,12.5-37.187,12.506h-6.813
			c-1.48,0-2.913,0.48-4.093,1.367c-11.607,8.706-26.588,18.473-30.041,19.113c-13.02,0-13.653,19.732-13.653,54.613
			c0,25.167,17.633,34.133,34.133,34.133c7.6,0,14.513-3.106,21.827-6.393c7.939-3.574,16.147-7.26,25.96-7.26
			c6.448,0,12.901,0.713,19.727,1.473c14.153,1.567,28.786,3.2,43.873-1.826c13.546-4.512,19.806-23.132,22.327-33.833
			C309.446,169.634,309.012,142.346,298.373,131.707z M291.092,187.96c-3.046,12.899-8.286,22.327-13.36,24.02
			c-12.22,4.06-24.76,2.673-38.047,1.207c-6.893-0.766-14.025-1.56-21.233-1.56c-12.74,0-22.733,4.494-31.553,8.46
			c-6.207,2.787-11.561,5.193-16.234,5.193c-9.341,0-20.48-3.553-20.48-20.48c0-11.554,0-34.886,2.56-41.306
			c8.006-1.927,22.194-11.5,33.84-20.134h4.56c0.92,0,22.799-0.167,44.745-14.8c17.5-11.66,41.687,1.667,52.826,12.8
			C293.827,146.468,295.926,167.48,291.092,187.96z"/>
	</g>
</g>
<g>
	<g>
		<path d="M259.413,136.533c-15.06,0-27.307,12.247-27.307,27.307s12.247,27.307,27.307,27.307c15.06,0,27.307-12.247,27.307-27.307
			S274.473,136.533,259.413,136.533z M259.413,177.493c-7.526,0-13.653-6.127-13.653-13.653c0-7.526,6.127-13.653,13.653-13.653
			c7.526,0,13.653,6.127,13.653,13.653C273.067,171.366,266.94,177.493,259.413,177.493z"/>
	</g>
</g>
<g>
</g>
<g>
</g>
<g>
</g>
<g>
</g>
<g>
</g>
<g>
</g>
<g>
</g>
<g>
</g>
<g>
</g>
<g>
</g>
<g>
</g>
<g>
</g>
<g>
</g>
<g>
</g>
<g>
</g>
</svg>
