<?xml version="1.0" encoding="iso-8859-1"?>
<!-- Generator: Adobe Illustrator 19.0.0, SVG Export Plug-In . SVG Version: 6.00 Build 0)  -->
<svg version="1.1" id="Capa_1" xmlns="http://www.w3.org/2000/svg" xmlns:xlink="http://www.w3.org/1999/xlink" x="0px" y="0px"
	 viewBox="0 0 389.12 389.12" style="enable-background:new 0 0 389.12 389.12;" xml:space="preserve">
<g>
	<g>
		<path d="M116.053,0h-61.44c-3.773,0-6.827,3.053-6.827,6.827V348.16c0,3.773,3.053,6.827,6.827,6.827s6.827-3.053,6.827-6.827
			V13.653h47.787v304.633c0,3.773,3.053,6.827,6.827,6.827s6.827-3.053,6.827-6.827V6.827C122.88,3.053,119.827,0,116.053,0z"/>
	</g>
</g>
<g>
	<g>
		<path d="M313.194,0H109.227v317.227h13.653V13.653h190.314c7.986,0,14.486,6.499,14.486,14.486v354.154h13.653V28.14
			C341.333,12.626,328.707,0,313.194,0z"/>
	</g>
</g>
<g>
	<g>
		<path d="M217.914,114.306c-5.62-4.867-13.307-11.534-13.107-14.674c0.073-1.181,1.432-4.707,12.419-12.034
			c3.138-2.094,3.987-6.327,1.893-9.467c-2.087-3.139-6.327-3.987-9.467-1.893c-12.472,8.313-18,15.053-18.473,22.533
			c-0.626,9.892,7.907,17.285,17.787,25.853c2.946,2.553,3.273,4.888,3.26,6.42c-0.067,7.794-9.946,17.828-13.406,20.727
			c-2.886,2.42-3.267,6.728-0.853,9.614c1.353,1.621,3.285,2.454,5.24,2.454c1.541,0,3.087-0.521,4.367-1.58
			c1.853-1.553,18.154-15.573,18.307-31.066C225.941,124.72,223.188,118.88,217.914,114.306z"/>
	</g>
</g>
<g>
	<g>
		<path d="M334.507,314.027H85.333c-20.7,0-37.547,16.846-37.547,37.547c0,20.7,16.846,37.547,37.547,37.547h249.173
			c3.773,0,6.827-3.053,6.827-6.827v-61.44C341.333,317.08,338.28,314.027,334.507,314.027z M327.68,375.467H85.333
			c-13.174,0-23.893-10.72-23.893-23.893c0-13.174,10.72-23.893,23.893-23.893H327.68V375.467z"/>
	</g>
</g>
<g>
	<g>
		<path d="M259.413,177.493H150.187c-3.773,0-6.827,3.053-6.827,6.827v20.48c0,33.881,27.559,61.44,61.44,61.44
			c33.881,0,61.44-27.559,61.44-61.44v-20.48C266.24,180.547,263.187,177.493,259.413,177.493z M252.587,204.8
			c0,26.348-21.439,47.787-47.787,47.787s-47.787-21.439-47.787-47.787v-13.653h95.573V204.8z"/>
	</g>
</g>
<g>
	<g>
		<path d="M300.373,177.493h-40.96c-3.773,0-6.827,3.053-6.827,6.827v40.96c0,3.773,3.053,6.827,6.827,6.827
			c26.348,0,47.787-21.439,47.787-47.787C307.2,180.547,304.147,177.493,300.373,177.493z M266.24,217.767v-26.621h26.621
			C290.14,204.501,279.593,215.047,266.24,217.767z"/>
	</g>
</g>
<g>
</g>
<g>
</g>
<g>
</g>
<g>
</g>
<g>
</g>
<g>
</g>
<g>
</g>
<g>
</g>
<g>
</g>
<g>
</g>
<g>
</g>
<g>
</g>
<g>
</g>
<g>
</g>
<g>
</g>
</svg>
