<?xml version="1.0" encoding="iso-8859-1"?>
<!-- Generator: Adobe Illustrator 19.0.0, SVG Export Plug-In . SVG Version: 6.00 Build 0)  -->
<svg version="1.1" id="Capa_1" xmlns="http://www.w3.org/2000/svg" xmlns:xlink="http://www.w3.org/1999/xlink" x="0px" y="0px"
	 viewBox="0 0 389.12 389.12" style="enable-background:new 0 0 389.12 389.12;" xml:space="preserve">
<g>
	<g>
		<path d="M116.053,0h-61.44c-3.773,0-6.827,3.053-6.827,6.827V348.16c0,3.773,3.053,6.827,6.827,6.827s6.827-3.053,6.827-6.827
			V13.653h47.787v305.42c0,3.773,3.053,6.827,6.827,6.827s6.827-3.053,6.827-6.827V6.827C122.88,3.053,119.827,0,116.053,0z"/>
	</g>
</g>
<g>
	<g>
		<path d="M313.194,0h-197.14c-3.773,0-6.827,3.053-6.827,6.827v311.579c0,3.773,3.053,6.827,6.827,6.827s6.827-3.053,6.827-6.827
			V13.653h190.314c7.986,0,14.486,6.499,14.486,14.486v354.154c0,3.773,3.053,6.827,6.827,6.827s6.827-3.053,6.827-6.827V28.14
			C341.333,12.626,328.707,0,313.194,0z"/>
	</g>
</g>
<g>
	<g>
		<path d="M334.507,314.027H85.333c-20.7,0-37.547,16.846-37.547,37.547c0,20.7,16.846,37.547,37.547,37.547h249.173
			c3.773,0,6.827-3.053,6.827-6.827v-61.44C341.333,317.08,338.28,314.027,334.507,314.027z M327.68,375.467H85.333
			c-13.174,0-23.893-10.72-23.893-23.893c0-13.174,10.72-23.893,23.893-23.893H327.68V375.467z"/>
	</g>
</g>
<g>
	<g>
		<path d="M281.614,117.799c-1.36-3.127-4.813-4.76-8.086-3.86c-2.427,0.672-59.575,16.993-76.047,59.786
			c-1.353,3.521,0.401,7.474,3.92,8.827c3.494,1.333,7.467-0.394,8.827-3.92c7.673-19.953,26.947-33.487,42.853-41.66
			c-7.32,17.367-5.866,37.654-4.4,48.007c0.486,3.408,3.406,5.868,6.753,5.868c0.319,0,0.64-0.021,0.968-0.068
			c3.732-0.532,6.327-3.985,5.799-7.719c-1.826-12.867-3.854-44.146,16.713-56.713C281.82,124.566,282.974,120.926,281.614,117.799z
			"/>
	</g>
</g>
<g>
	<g>
		<path d="M264.82,107.653c-0.754-0.753-18.64-18.726-46.513-17.833c-21.533,0.48-42.506,11.72-62.339,33.413
			c-2.459,2.693-2.367,6.852,0.213,9.433c1.539,1.539,10.339,9.313,30.766,9.313c16.759,0,41.366-5.233,76.206-23.451
			c1.927-1,3.261-2.867,3.587-5.014C267.073,111.367,266.359,109.186,264.82,107.653z M172.22,126.1
			c15.193-14.614,30.706-22.221,46.199-22.625c12.268-0.394,22.147,3.973,28.621,7.859
			C204.906,131.441,182.226,129.314,172.22,126.1z"/>
	</g>
</g>
<g>
	<g>
		<path d="M289.78,185.994c-8.033-8.047-18.34-7.641-27.44-7.287c-3.973,0.16-8.226,0.16-12.206,0
			c-9.086-0.333-19.4-0.759-27.44,7.287c-8.967,8.96-13.901,20.886-13.901,33.567c0,26.179,21.28,47.473,47.44,47.473
			s47.44-21.294,47.44-47.473C303.674,206.88,298.74,194.961,289.78,185.994z M256.232,253.38
			c-18.633,0-33.787-15.172-33.787-33.819c0-9.033,3.514-17.527,9.9-23.914c2.787-2.787,6.388-3.434,11.768-3.434
			c1.654,0,3.473,0.06,5.487,0.14c4.32,0.16,8.939,0.16,13.273,0c8.566-0.333,13.612-0.346,17.253,3.294
			c6.38,6.386,9.894,14.88,9.894,23.914C290.019,238.206,274.865,253.38,256.232,253.38z"/>
	</g>
</g>
<g>
	<g>
		<path d="M191.382,246.552c-19.014,0-34.48-15.172-34.48-33.819c0-9.013,3.574-17.487,10.061-23.873
			c3.739-3.686,8.866-3.68,17.679-3.333c4.386,0.16,9.093,0.16,13.479,0c8.786-0.334,13.933-0.346,17.679,3.326
			c1.76,1.741,3.333,3.661,4.666,5.707l11.438-7.438c-1.86-2.867-4.053-5.554-6.526-7.994c-8.139-7.999-18.567-7.593-27.786-7.247
			c-4.04,0.16-8.387,0.16-12.426,0c-9.247-0.353-19.659-0.754-27.779,7.247c-9.12,8.972-14.14,20.907-14.14,33.606
			c0,26.179,21.593,47.473,48.133,47.473c12.472,0,24.306-4.686,33.314-13.21l-9.373-9.919
			C208.855,243.185,200.356,246.552,191.382,246.552z"/>
	</g>
</g>
<g>
</g>
<g>
</g>
<g>
</g>
<g>
</g>
<g>
</g>
<g>
</g>
<g>
</g>
<g>
</g>
<g>
</g>
<g>
</g>
<g>
</g>
<g>
</g>
<g>
</g>
<g>
</g>
<g>
</g>
</svg>
