<?xml version="1.0" encoding="iso-8859-1"?>
<!-- Generator: Adobe Illustrator 19.0.0, SVG Export Plug-In . SVG Version: 6.00 Build 0)  -->
<svg version="1.1" id="Capa_1" xmlns="http://www.w3.org/2000/svg" xmlns:xlink="http://www.w3.org/1999/xlink" x="0px" y="0px"
	 viewBox="0 0 406.429 406.429" style="enable-background:new 0 0 406.429 406.429;" xml:space="preserve">
<g>
	<g>
		<path d="M292.14,42.011c-0.913-2.388-3.087-4.064-5.627-4.343c-36.62-3.987-69.581,24.243-70.967,25.45
			c-2.84,2.478-3.14,6.791-0.66,9.631c2.475,2.843,6.794,3.133,9.634,0.664c0.247-0.213,20.913-17.98,45.687-21.777l-11.814,13.24
			c-2.514,2.813-2.266,7.129,0.546,9.639c1.3,1.164,2.927,1.734,4.547,1.734c1.874,0,3.748-0.77,5.093-2.28l22.281-24.967
			C292.56,47.095,293.053,44.394,292.14,42.011z"/>
	</g>
</g>
<g>
	<g>
		<path d="M190.329,61.005c-1.388-1.21-34.374-29.46-70.973-25.453c-2.539,0.28-4.714,1.958-5.627,4.343
			c-0.913,2.384-0.42,5.084,1.28,6.99l24.9,27.904c1.347,1.51,3.219,2.28,5.093,2.28c1.62,0,3.246-0.57,4.547-1.736
			c2.813-2.509,3.06-6.827,0.546-9.639l-14.42-16.16c24.701,3.82,45.44,21.553,45.688,21.77c2.847,2.468,7.161,2.164,9.627-0.676
			C193.463,67.785,193.169,63.478,190.329,61.005z"/>
	</g>
</g>
<g>
	<g>
		<path d="M226.318,66.526L209.551,5.03C208.739,2.06,206.046,0,202.965,0c-3.079,0-5.772,2.06-6.586,5.03l-16.826,61.699
			c-0.993,3.637,1.154,7.39,4.794,8.383c0.601,0.164,1.2,0.244,1.801,0.244c3,0,5.753-1.997,6.576-5.035l10.24-37.547l10.18,37.344
			c0.993,3.647,4.78,5.77,8.38,4.791C225.164,73.916,227.311,70.166,226.318,66.526z"/>
	</g>
</g>
<g>
	<g>
		<path d="M388.449,185.173c0-18.715-10.513-35.763-26.713-44.199c0.814-3.773,1.227-7.641,1.227-11.554
			c0-29.778-24.026-54.001-53.554-54.001c-10.387,0-20.407,3.004-28.986,8.586c-8.533-15.703-24.926-25.74-43.226-25.74
			c-12.88,0-24.887,4.9-33.98,13.674c-9.1-8.774-21.113-13.674-33.987-13.674c-18.301,0-34.693,10.037-43.226,25.74
			c-8.579-5.582-18.599-8.586-28.986-8.586c-29.527,0-53.553,24.224-53.553,54.001c0,3.908,0.413,7.774,1.227,11.554
			c-16.2,8.436-26.713,25.482-26.713,44.199c0,16.717,8.46,32.29,22.04,41.417c-3.319,7.13-5.047,14.93-5.047,22.91
			c0,25.743,18.188,47.703,42.561,52.857c-0.06,0.966-0.087,1.934-0.087,2.896c0,25.095,18.533,45.904,42.527,49.244
			c-0.032,0.737-0.046,1.476-0.046,2.217c0,27.414,22.12,49.714,49.307,49.714c12.873,0,24.887-4.9,33.987-13.674
			c9.093,8.774,21.1,13.674,33.98,13.674c27.187,0,49.307-22.299,49.3-49.714c0-0.741-0.012-1.48-0.046-2.217
			c23.994-3.342,42.527-24.151,42.527-49.244c0-0.966-0.027-1.934-0.08-2.896c24.368-5.154,42.561-27.114,42.561-52.857
			c0-7.974-1.734-15.773-5.047-22.91C379.989,217.463,388.449,201.89,388.449,185.173z M354.294,217.829
			c-1.766,0.843-3.087,2.4-3.627,4.284c-0.539,1.881-0.246,3.903,0.8,5.553c4.154,6.511,6.347,14.063,6.347,21.837
			c0,21.074-16.261,38.75-37.014,40.243c-1.959,0.143-3.767,1.12-4.953,2.683c-1.186,1.567-1.638,3.567-1.246,5.49
			c0.486,2.394,0.734,4.861,0.734,7.337c0,19.883-15.993,36.057-35.654,36.057l-0.773-0.007c-0.027,0-0.053,0-0.08,0
			c-2.033,0-3.959,0.906-5.26,2.473c-1.314,1.587-1.84,3.683-1.434,5.704c0.48,2.36,0.72,4.792,0.72,7.233
			c0,19.883-15.993,36.06-35.654,36.06c-11.307,0-21.693-5.248-28.5-14.397c-1.294-1.732-3.319-2.753-5.48-2.753
			s-4.186,1.021-5.477,2.749c-6.813,9.151-17.207,14.401-28.513,14.401c-19.661,0-35.654-16.178-35.654-36.06
			c0-2.439,0.241-4.873,0.72-7.233c0.406-2.021-0.12-4.117-1.434-5.704c-1.321-1.586-3.007-2.36-5.34-2.473l-0.773,0.007
			c-19.661,0-35.654-16.174-35.654-36.057c0-2.454,0.247-4.92,0.741-7.337c0.394-1.923-0.06-3.924-1.246-5.49
			c-1.186-1.563-2.993-2.54-4.953-2.683c-20.755-1.493-37.014-19.169-37.014-40.243c0-7.784,2.193-15.333,6.34-21.833
			c1.055-1.65,1.347-3.673,0.807-5.557c-0.539-1.884-1.86-3.444-3.627-4.284c-12.46-5.92-20.514-18.741-20.514-32.654
			c0-15.154,9.46-28.79,23.547-33.93c3.487-1.273,5.32-5.1,4.12-8.617c-1.445-4.246-2.179-8.69-2.179-13.206
			c0-22.248,17.9-40.347,39.9-40.347c10.086,0,19.714,3.813,27.1,10.737c1.714,1.599,4.127,2.207,6.386,1.626
			c2.266-0.589,4.074-2.299,4.787-4.533c4.76-14.944,18.401-24.984,33.94-24.984c11.307,0,21.7,5.251,28.513,14.401
			c2.58,3.47,8.373,3.459,10.953-0.003c6.806-9.151,17.193-14.397,28.5-14.397c15.541,0,29.181,10.04,33.941,24.984
			c0.713,2.232,2.521,3.942,4.787,4.533c2.26,0.587,4.68-0.026,6.386-1.626c7.386-6.924,17.014-10.737,27.1-10.737
			c22.001,0,39.9,18.101,39.9,40.347c0,4.533-0.732,8.975-2.179,13.199c-1.2,3.517,0.626,7.351,4.12,8.624
			c14.087,5.141,23.547,18.773,23.547,33.93C374.801,199.09,366.754,211.908,354.294,217.829z"/>
	</g>
</g>
<g>
	<g>
		<g>
			<circle cx="114.215" cy="136.535" r="6.827"/>
			<circle cx="114.215" cy="238.935" r="6.827"/>
			<circle cx="230.269" cy="122.882" r="6.827"/>
			<circle cx="162.002" cy="204.802" r="6.827"/>
			<circle cx="93.735" cy="184.322" r="6.827"/>
			<circle cx="305.362" cy="177.495" r="6.827"/>
			<circle cx="175.655" cy="122.882" r="6.827"/>
			<circle cx="291.709" cy="225.282" r="6.827"/>
			<circle cx="250.749" cy="197.975" r="6.827"/>
			<circle cx="264.402" cy="273.068" r="6.827"/>
			<circle cx="291.709" cy="129.708" r="6.827"/>
			<circle cx="175.655" cy="314.028" r="6.827"/>
			<circle cx="202.962" cy="279.895" r="6.827"/>
			<circle cx="202.962" cy="232.108" r="6.827"/>
			<circle cx="202.962" cy="157.015" r="6.827"/>
			<circle cx="230.269" cy="314.028" r="6.827"/>
			<circle cx="148.349" cy="279.895" r="6.827"/>
		</g>
	</g>
</g>
<g>
</g>
<g>
</g>
<g>
</g>
<g>
</g>
<g>
</g>
<g>
</g>
<g>
</g>
<g>
</g>
<g>
</g>
<g>
</g>
<g>
</g>
<g>
</g>
<g>
</g>
<g>
</g>
<g>
</g>
</svg>
