<?xml version="1.0" encoding="iso-8859-1"?>
<!-- Generator: Adobe Illustrator 19.0.0, SVG Export Plug-In . SVG Version: 6.00 Build 0)  -->
<svg version="1.1" id="Capa_1" xmlns="http://www.w3.org/2000/svg" xmlns:xlink="http://www.w3.org/1999/xlink" x="0px" y="0px"
	 viewBox="0 0 417.727 417.727" style="enable-background:new 0 0 417.727 417.727;" xml:space="preserve">
<g>
	<g>
		<path d="M221.377,50.625c-1.553-14.604-8.03-26.337-19.25-34.877C172.163-7.062,118.361,1.51,116.074,1.884
			c-2.57,0.427-4.675,2.273-5.424,4.77C110.133,8.368,98.193,49,115.26,77.551c7.82,13.087,20.313,21.46,37.127,24.883
			c51.843,10.554,51.56,38.451,51.517,39.77c-0.181,3.43,2.224,6.468,5.613,7.074c0.406,0.072,0.811,0.106,1.21,0.106
			c2.963,0,5.652-1.937,6.533-4.866C217.684,143.102,227.598,109.114,221.377,50.625z M208.224,117.149
			c-8.279-10.774-23.856-22.141-53.11-28.097c-13.065-2.659-22.26-8.699-28.114-18.47c-11.163-18.633-6.659-45.522-4.333-55.796
			c12.769-1.446,50.357-4.05,71.214,11.839c8.209,6.257,12.762,14.58,13.916,25.44C210.756,79.889,209.864,101.989,208.224,117.149z
			"/>
	</g>
</g>
<g>
	<g>
		<path d="M359.052,88.718c-1.604-9.708-13.933-13.937-42.554-14.594c-92.957-2.35-111.556,57.807-112.3,60.36
			c-0.66,2.26-0.107,4.7,1.459,6.456c1.306,1.466,3.166,2.284,5.093,2.284c0.384,0,0.77-0.032,1.157-0.096l91.059-15.619
			c0.406-0.072,0.802-0.177,1.19-0.321C342.485,113.174,360.955,100.231,359.052,88.718z M300.041,114.154L222.58,127.44
			c9.318-14.906,33.222-39.719,89.139-39.719c1.464,0,2.958,0.017,4.465,0.049c18.413,0.427,25.684,2.372,28.426,3.546
			C339.738,96.654,320.384,106.656,300.041,114.154z"/>
	</g>
</g>
<g>
	<g>
		<path d="M365.722,210.787c-1.742-30.846-13.037-53.69-33.563-67.9c-40.98-28.365-104.911-12.358-118.06-8.634l-40.177-15.237
			c-45.793-13.67-94.913,5.907-114.26,45.527c-7.694,15.761-26.743,71.477,51.14,126.874c75.45,53.663,80.611,93.556,76.974,112.563
			c-0.012,0.063-0.026,0.13-0.036,0.196c-1,6.2,0.72,10.844,4.714,12.747c1.193,0.567,2.354,0.804,3.459,0.804
			c4.613,0,8.303-4.137,9.696-5.7c15.164-17,44.223-49.172,68.477-73.646c7.299-7.369,15.413-14.77,24.003-22.607
			C330.878,285.853,368.044,251.943,365.722,210.787z M288.884,305.689c-8.719,7.956-16.956,15.469-24.499,23.079
			c-21.166,21.362-45.899,48.466-62.066,66.463c0.345-27.334-16.019-66.874-83.603-114.941
			c-46.65-33.181-64.137-74.211-46.783-109.757c12.904-26.433,41.632-42.296,72.247-42.296c8.41,0,16.964,1.196,25.366,3.709
			l41.856,15.893c1.434,0.536,3.002,0.587,4.46,0.133c0.689-0.213,69.183-21.117,108.553,6.166
			c16.87,11.692,26.18,31.012,27.674,57.426C354.048,246.236,320.92,276.459,288.884,305.689z"/>
	</g>
</g>
<g>
	<g>
		<path d="M140.547,143.38c-33.877,0-61.44,27.563-61.44,61.44c0,3.77,3.057,6.827,6.827,6.827s6.827-3.057,6.827-6.827
			c0-26.349,21.437-47.787,47.787-47.787c3.77,0,6.827-3.057,6.827-6.827S144.317,143.38,140.547,143.38z"/>
	</g>
</g>
<g>
</g>
<g>
</g>
<g>
</g>
<g>
</g>
<g>
</g>
<g>
</g>
<g>
</g>
<g>
</g>
<g>
</g>
<g>
</g>
<g>
</g>
<g>
</g>
<g>
</g>
<g>
</g>
<g>
</g>
</svg>
