<?xml version="1.0" encoding="iso-8859-1"?>
<!-- Generator: Adobe Illustrator 19.0.0, SVG Export Plug-In . SVG Version: 6.00 Build 0)  -->
<svg version="1.1" id="Capa_1" xmlns="http://www.w3.org/2000/svg" xmlns:xlink="http://www.w3.org/1999/xlink" x="0px" y="0px"
	 viewBox="0 0 410.157 410.157" style="enable-background:new 0 0 410.157 410.157;" xml:space="preserve">
<g>
	<g>
		<path d="M409.319,185.98c-2.819-11.793-21.347-16.599-51.343-23.46c-12.24-2.799-24.9-5.697-32.08-8.866
			c-53.163-23.453-74.95-40.747-90.856-53.376c-18.913-15.014-29.331-23.284-70.977-23.284c-76.227,0-138.24,62.013-138.24,138.237
			c0,76.227,62.013,138.24,138.24,138.24c2.927,0,6.091,0.038,9.474,0.077c3.879,0.048,8.059,0.094,12.503,0.094
			c34.147,0,83.693-2.879,130.371-32.348C363.929,291.289,417.52,220.287,409.319,185.98z M309.124,309.747
			c-49.338,31.154-103.197,30.534-135.431,30.147c-3.437-0.041-6.658-0.077-9.631-0.077c-68.697,0-124.587-55.89-124.587-124.587
			S95.366,90.647,164.063,90.647c36.886,0,44.38,5.951,62.491,20.323c15.555,12.349,39.064,31.014,93.831,55.177
			c8.376,3.693,21.089,6.603,34.55,9.684c13.443,3.074,38.463,8.798,41.107,13.324C401.68,212.74,357.681,279.094,309.124,309.747z"
			/>
	</g>
</g>
<g>
	<g>
		<path d="M47.989,148.025l-31.396-15.696c-3.383-1.693-7.47-0.311-9.16,3.053c-1.686,3.372-0.321,7.474,3.053,9.16l31.396,15.696
			c0.98,0.49,2.022,0.72,3.046,0.72c2.507,0,4.917-1.384,6.113-3.773C52.728,153.812,51.363,149.711,47.989,148.025z"/>
	</g>
</g>
<g>
	<g>
		<path d="M31.771,57.747c-2.603-1.824-6.135-1.604-8.506,0.543c-41.161,37.417-15.223,83.127-14.957,83.584
			c1.898,3.253,6.074,4.355,9.337,2.456c0.123-0.07,0.241-0.147,0.357-0.224c0.464,1.321,1.333,2.514,2.577,3.367
			c1.181,0.809,2.528,1.2,3.86,1.2c2.174,0,4.311-1.033,5.632-2.959C70.978,86.211,32.166,58.027,31.771,57.747z M20.421,135.604
			c-0.094-0.207-0.201-0.41-0.317-0.609c-0.821-1.403-18.797-33.123,7.789-62.077C34.163,80.777,43.473,100.617,20.421,135.604z"/>
	</g>
</g>
<g>
	<g>
		<path d="M174.632,312.514c-50.816,0-92.16-41.344-92.16-92.16c0-3.77-3.057-6.827-6.827-6.827s-6.827,3.057-6.827,6.827
			c0,58.348,47.466,105.813,105.813,105.813c3.77,0,6.827-3.057,6.827-6.827S178.402,312.514,174.632,312.514z"/>
	</g>
</g>
<g>
</g>
<g>
</g>
<g>
</g>
<g>
</g>
<g>
</g>
<g>
</g>
<g>
</g>
<g>
</g>
<g>
</g>
<g>
</g>
<g>
</g>
<g>
</g>
<g>
</g>
<g>
</g>
<g>
</g>
</svg>
