<?xml version="1.0" encoding="iso-8859-1"?>
<!-- Generator: Adobe Illustrator 19.0.0, SVG Export Plug-In . SVG Version: 6.00 Build 0)  -->
<svg version="1.1" id="Capa_1" xmlns="http://www.w3.org/2000/svg" xmlns:xlink="http://www.w3.org/1999/xlink" x="0px" y="0px"
	 viewBox="0 0 436.907 436.907" style="enable-background:new 0 0 436.907 436.907;" xml:space="preserve">
<g>
	<g>
		<path d="M307.2,0c-45.174,0-81.92,36.75-81.92,81.92s36.746,81.92,81.92,81.92c45.174,0,81.92-36.75,81.92-81.92
			S352.374,0,307.2,0z M307.2,150.187c-37.641,0-68.267-30.623-68.267-68.267c0-37.644,30.626-68.267,68.267-68.267
			c37.641,0,68.267,30.623,68.267,68.267C375.467,119.564,344.841,150.187,307.2,150.187z"/>
	</g>
</g>
<g>
	<g>
		<path d="M102.4,136.533H75.093c-3.773,0-6.827,3.057-6.827,6.827v273.067c0,11.293,9.187,20.48,20.48,20.48
			s20.48-9.187,20.48-20.48V143.36C109.227,139.59,106.173,136.533,102.4,136.533z M95.573,416.427c0,3.763-3.06,6.827-6.827,6.827
			s-6.827-3.063-6.827-6.827v-266.24h13.653V416.427z"/>
	</g>
</g>
<g>
	<g>
		<path d="M191.147,211.627H163.84c-3.773,0-6.827,3.057-6.827,6.827v197.973c0,11.293,9.187,20.48,20.48,20.48
			c11.293,0,20.48-9.187,20.48-20.48V218.453C197.973,214.683,194.92,211.627,191.147,211.627z M184.32,416.427
			c0,3.763-3.06,6.827-6.827,6.827c-3.767,0-6.827-3.063-6.827-6.827V225.28h13.653V416.427z"/>
	</g>
</g>
<g>
	<g>
		<path d="M116.053,6.827v102.4c0,15.056-12.247,27.307-27.307,27.307s-27.307-12.25-27.307-27.307V6.827H47.787v102.4
			c0,22.586,18.374,40.96,40.96,40.96c22.586,0,40.96-18.374,40.96-40.96V6.827H116.053z"/>
	</g>
</g>
<g>
	<g>
		<rect x="81.92" y="6.827" width="13.653" height="136.533"/>
	</g>
</g>
<g>
	<g>
		<path d="M191.147,0c-22.886,0-42.346,17.113-45.321,40.323l-9.286,177.773c-0.092,1.87,0.58,3.697,1.867,5.057
			c1.292,1.357,3.079,2.127,4.953,2.127h47.787c3.773,0,6.827-3.057,6.827-6.827V6.827C197.973,3.057,194.92,0,191.147,0z
			 M184.32,211.627h-33.766l8.866-170.073c1.748-13.59,11.96-24.323,24.9-27.163V211.627z"/>
	</g>
</g>
<g>
	<g>
		<g>
			<path d="M307.441,100.903c-3.081,0-5.446,0.749-7.1,2.249c-1.654,1.5-2.48,3.906-2.48,7.214c0,3.27,0.826,5.683,2.48,7.24
				c1.654,1.556,4.019,2.336,7.1,2.336c3,0,5.326-0.78,6.98-2.336c1.654-1.556,2.48-3.97,2.48-7.24c0-3.307-0.78-5.714-2.34-7.214
				C313.008,101.652,310.627,100.903,307.441,100.903z"/>
			<path d="M332.066,52.181c-1.12-2.905-2.773-5.403-4.96-7.501c-2.193-2.096-4.932-3.729-8.226-4.903
				c-3.287-1.172-7.107-1.76-11.447-1.76c-3.847,0-7.153,0.442-9.926,1.326c-2.767,0.882-5.113,2.039-7.04,3.459
				c-1.92,1.423-3.48,3.021-4.673,4.791c-1.193,1.77-2.113,3.54-2.766,5.306c-0.652,1.77-1.092,3.442-1.326,5.019
				s-0.346,2.867-0.346,3.867c0,2.27,0.807,4.123,2.42,5.567c1.62,1.444,3.734,2.164,6.347,2.164c0.846,0,1.78-0.152,2.801-0.462
				c1.019-0.307,1.959-0.787,2.826-1.44c0.867-0.654,1.587-1.51,2.167-2.567c0.573-1.06,0.867-2.336,0.867-3.837
				c0-0.923,0.078-1.896,0.253-2.917c0.174-1.017,0.56-1.951,1.161-2.797c0.592-0.846,1.466-1.546,2.62-2.106
				c1.154-0.556,2.693-0.836,4.62-0.836c0.725,0,1.62,0.07,2.679,0.203c1.06,0.137,2.08,0.48,3.06,1.036
				c0.98,0.56,1.806,1.418,2.48,2.57c0.674,1.152,1.007,2.729,1.007,4.729c0,1.923-0.439,3.529-1.326,4.816
				c-0.887,1.29-2,2.454-3.347,3.49c-1.347,1.041-2.787,2.041-4.326,3c-1.539,0.964-2.98,2.087-4.326,3.378
				c-1.347,1.29-2.461,2.816-3.347,4.588c-0.886,1.771-1.326,3.961-1.326,6.577c0,0.73,0.126,1.539,0.374,2.423
				c0.253,0.882,0.693,1.71,1.326,2.48c0.64,0.77,1.487,1.413,2.54,1.934c1.06,0.521,2.413,0.78,4.067,0.78
				c2.732,0,4.739-0.674,6.033-2.021c1.287-1.347,1.934-3.06,1.934-5.137c0-0.807,0.154-1.527,0.461-2.164
				c0.307-0.633,0.573-1.102,0.807-1.413c0.541-0.73,1.353-1.507,2.454-2.336c1.094-0.826,2.287-1.72,3.574-2.683
				c1.294-0.959,2.62-2.016,3.98-3.169c1.367-1.155,2.608-2.423,3.727-3.809c1.113-1.384,2.026-2.903,2.739-4.557
				c0.707-1.654,1.067-3.48,1.067-5.48C333.747,58.29,333.187,55.086,332.066,52.181z"/>
		</g>
	</g>
</g>
<g>
</g>
<g>
</g>
<g>
</g>
<g>
</g>
<g>
</g>
<g>
</g>
<g>
</g>
<g>
</g>
<g>
</g>
<g>
</g>
<g>
</g>
<g>
</g>
<g>
</g>
<g>
</g>
<g>
</g>
</svg>
