<?xml version="1.0" encoding="iso-8859-1"?>
<!-- Generator: Adobe Illustrator 19.0.0, SVG Export Plug-In . SVG Version: 6.00 Build 0)  -->
<svg version="1.1" id="Capa_1" xmlns="http://www.w3.org/2000/svg" xmlns:xlink="http://www.w3.org/1999/xlink" x="0px" y="0px"
	 viewBox="0 0 423.257 423.257" style="enable-background:new 0 0 423.257 423.257;" xml:space="preserve">
<g>
	<g>
		<path d="M238.215,3.777c-1.693-3.371-5.786-4.743-9.16-3.053l-27.307,13.653c-2.493,1.249-3.98,3.889-3.746,6.673l2.487,29.877
			c0.292,3.563,3.279,6.26,6.793,6.26c0.186,0,0.381-0.007,0.573-0.024c3.76-0.312,6.547-3.613,6.233-7.369l-2.099-25.271
			l23.173-11.587C238.536,11.25,239.901,7.151,238.215,3.777z"/>
	</g>
</g>
<g>
	<g>
		<path d="M327.909,88.557c-15.3-18.47-33.179-32.893-53.127-42.873c-14.073-7.05-28.541-4.719-42.534-2.463
			c-6.787,1.094-13.8,2.224-20.62,2.224s-13.833-1.13-20.62-2.224c-13.986-2.255-28.454-4.581-42.534,2.459
			c-19.948,9.984-37.827,24.407-53.134,42.877c-30.665,37.019-47.553,86.156-47.553,138.363
			c0,108.261,73.499,196.337,163.84,196.337s163.84-88.076,163.84-196.337C375.468,174.713,358.581,125.576,327.909,88.557z
			 M211.628,409.603c-82.813,0-150.187-81.951-150.187-182.683c0-49.033,15.773-95.077,44.413-129.65
			c14.094-17.003,30.486-30.249,48.727-39.38c4.861-2.43,9.953-3.284,15.374-3.284c5.879,0,12.14,1.007,18.883,2.094
			c7.313,1.176,14.88,2.396,22.793,2.396s15.479-1.22,22.793-2.396c12.94-2.094,24.113-3.888,34.253,1.193
			c18.241,9.126,34.633,22.373,48.72,39.376c28.646,34.574,44.419,80.618,44.419,129.65
			C361.815,327.652,294.441,409.603,211.628,409.603z"/>
	</g>
</g>
<g>
	<g>
		<path d="M187.068,345.217c-37.827-79.087-36.9-143.514-29.454-183.637c8.061-43.494,25.306-68.676,25.481-68.924
			c2.147-3.092,1.393-7.345-1.7-9.499c-3.092-2.167-7.339-1.405-9.492,1.679c-3.021,4.314-73.093,107.491,2.847,266.274
			c1.173,2.449,3.62,3.879,6.166,3.879c0.987,0,1.987-0.213,2.939-0.666C187.254,352.698,188.694,348.621,187.068,345.217z"/>
	</g>
</g>
<g>
	<g>
		<path d="M241.113,84.836c-2.159-3.092-6.432-3.837-9.506-1.679c-3.092,2.162-3.84,6.419-1.679,9.506
			c0.693,0.993,68.553,100.89-3.98,252.553c-1.626,3.403-0.186,7.48,3.214,9.107c0.954,0.454,1.954,0.667,2.941,0.667
			c2.546,0,4.994-1.43,6.164-3.879C314.206,192.326,244.133,89.149,241.113,84.836z"/>
	</g>
</g>
<g>
</g>
<g>
</g>
<g>
</g>
<g>
</g>
<g>
</g>
<g>
</g>
<g>
</g>
<g>
</g>
<g>
</g>
<g>
</g>
<g>
</g>
<g>
</g>
<g>
</g>
<g>
</g>
<g>
</g>
</svg>
