<?xml version="1.0" encoding="iso-8859-1"?>
<!-- Generator: Adobe Illustrator 19.0.0, SVG Export Plug-In . SVG Version: 6.00 Build 0)  -->
<svg version="1.1" id="Capa_1" xmlns="http://www.w3.org/2000/svg" xmlns:xlink="http://www.w3.org/1999/xlink" x="0px" y="0px"
	 viewBox="0 0 436.907 436.907" style="enable-background:new 0 0 436.907 436.907;" xml:space="preserve">
<g>
	<g>
		<path d="M266.24,194.56H6.827c-3.773,0-6.827,3.053-6.827,6.827v68.166c0,18.874,15.36,34.234,34.234,34.234h204.599
			c18.874,0,34.234-15.36,34.234-34.234v-68.166C273.067,197.613,270.013,194.56,266.24,194.56z M259.415,269.553
			c0,11.348-9.235,20.581-20.581,20.581h-204.6c-11.348,0-20.581-9.233-20.581-20.581v-61.339h245.762V269.553z"/>
	</g>
</g>
<g>
	<g>
		<path d="M232.107,160.427H40.96c-22.586,0-40.96,18.374-40.96,40.96c0,3.773,3.053,6.827,6.827,6.827H266.24
			c3.773,0,6.827-3.053,6.827-6.827C273.067,178.801,254.693,160.427,232.107,160.427z M14.52,194.56
			c3.033-11.768,13.74-20.48,26.44-20.48h191.147c12.699,0,23.407,8.713,26.44,20.48H14.52z"/>
	</g>
</g>
<g>
	<g>
		<path d="M136.533,133.12c-11.293,0-20.48,9.187-20.48,20.48s9.187,20.48,20.48,20.48c11.293,0,20.48-9.187,20.48-20.48
			S147.826,133.12,136.533,133.12z M136.533,160.427c-3.767,0-6.827-3.06-6.827-6.827s3.06-6.827,6.827-6.827
			s6.827,3.06,6.827,6.827S140.3,160.427,136.533,160.427z"/>
	</g>
</g>
<g>
	<g>
		<path d="M430.08,194.56H266.24c-3.773,0-6.827,3.053-6.827,6.827v34.133c0,1.906,0.8,3.734,2.207,5.026
			c1.26,1.161,2.913,1.8,4.62,1.8c0.186,0,0.381-0.007,0.567-0.027l163.84-13.653c3.54-0.294,6.26-3.246,6.26-6.799v-20.48
			C436.907,197.613,433.853,194.56,430.08,194.56z M423.253,215.586l-150.187,12.513v-19.886h150.187V215.586z"/>
	</g>
</g>
<g>
</g>
<g>
</g>
<g>
</g>
<g>
</g>
<g>
</g>
<g>
</g>
<g>
</g>
<g>
</g>
<g>
</g>
<g>
</g>
<g>
</g>
<g>
</g>
<g>
</g>
<g>
</g>
<g>
</g>
</svg>
