<?xml version="1.0" encoding="iso-8859-1"?>
<!-- Generator: Adobe Illustrator 19.0.0, SVG Export Plug-In . SVG Version: 6.00 Build 0)  -->
<svg version="1.1" id="Capa_1" xmlns="http://www.w3.org/2000/svg" xmlns:xlink="http://www.w3.org/1999/xlink" x="0px" y="0px"
	 viewBox="0 0 391.6 391.6" style="enable-background:new 0 0 391.6 391.6;" xml:space="preserve">
<g>
	<g>
		<path d="M235.7,65.9c3.1-19.8,7.8-40.9,7.9-41.1l1.9-8.3H237c-2.2,0-8.5,0-25.5,20.5l-15-37l-18.6,36.9
			c-19.2-28.4-22.2-27-26.9-24.7c-6.3,3.1-3.8,10.6-2.8,13.4c2.5,7.5,4.4,21.6,5.5,40.9C72.4,82.7,18.3,145.1,18.3,223.3
			c0,94.4,78,168.3,177.5,168.3s177.5-73.9,177.5-168.4C373.3,143.9,318.3,81.4,235.7,65.9z M195.7,378
			c-91.8,0-163.8-67.9-163.8-154.6c0-74.4,51-131.1,130-144.5l6-1l-0.3-6c-0.5-11.1-1.2-20.7-2.2-28.8c2.5,3.7,5.1,7.6,7.2,11.4
			l6.5,9.9l15.7-31.1l12.6,31.1l7.3-9.6c3.7-4.9,7.7-9.7,11.4-13.8c-1.7,8.9-3.7,19.7-5.1,29.8l-0.9,6.7l6.7,1
			c79.4,12.3,132.7,70.5,132.7,144.9C359.5,310.1,287.5,378,195.7,378z"/>
	</g>
</g>
<g>
	<g>
		<circle cx="258.6" cy="180.5" r="6.8"/>
	</g>
</g>
<g>
	<g>
		<circle cx="156.2" cy="119.1" r="6.8"/>
	</g>
</g>
<g>
	<g>
		<circle cx="272.3" cy="119.1" r="6.8"/>
	</g>
</g>
<g>
	<g>
		<circle cx="210.8" cy="310.2" r="6.8"/>
	</g>
</g>
<g>
	<g>
		<circle cx="115.3" cy="289.7" r="6.8"/>
	</g>
</g>
<g>
	<g>
		<circle cx="163" cy="194.2" r="6.8"/>
	</g>
</g>
<g>
	<g>
		<circle cx="272.3" cy="262.4" r="6.8"/>
	</g>
</g>
<g>
	<g>
		<path d="M121.3,116.5c-1.4-3.5-5.4-5.1-8.9-3.7C72,129.7,47,171.3,47,221.5c0,3.7,3,6.8,6.8,6.8s6.9-3.1,6.8-6.8
			c0-45.3,21.3-81.2,57-96.1C121.1,124,122.8,120,121.3,116.5z"/>
	</g>
</g>
<g>
</g>
<g>
</g>
<g>
</g>
<g>
</g>
<g>
</g>
<g>
</g>
<g>
</g>
<g>
</g>
<g>
</g>
<g>
</g>
<g>
</g>
<g>
</g>
<g>
</g>
<g>
</g>
<g>
</g>
</svg>
