<?xml version="1.0" encoding="iso-8859-1"?>
<!-- Generator: Adobe Illustrator 19.0.0, SVG Export Plug-In . SVG Version: 6.00 Build 0)  -->
<svg version="1.1" id="Capa_1" xmlns="http://www.w3.org/2000/svg" xmlns:xlink="http://www.w3.org/1999/xlink" x="0px" y="0px"
	 viewBox="0 0 430.081 430.081" style="enable-background:new 0 0 430.081 430.081;" xml:space="preserve">
<g>
	<g>
		<path d="M215.04,88.747c-83.07,0-143.36,66.033-143.36,157.013c0,98.19,66.99,184.32,143.36,184.32s143.36-86.13,143.36-184.32
			C358.4,154.78,298.111,88.747,215.04,88.747z M215.04,416.427c-69.096,0-129.707-79.751-129.707-170.667
			c0-83.07,54.55-143.36,129.707-143.36s129.707,60.29,129.707,143.36C344.747,336.677,284.137,416.427,215.04,416.427z"/>
	</g>
</g>
<g>
	<g>
		<path d="M222.458,94.521c19.857-70.149-16-92.612-17.557-93.546c-3.243-1.94-7.426-0.896-9.366,2.34
			c-1.94,3.232-0.894,7.426,2.34,9.366c0.297,0.177,29.367,18.473,10.627,80.934c-0.584,1.942-0.266,4.05,0.857,5.743
			c0.522,0.79,52.072,79.734,19.949,150.407c-1.56,3.43-0.044,7.477,3.389,9.037c0.913,0.416,1.872,0.613,2.819,0.613
			c2.594,0,5.074-1.488,6.217-4.004C273.905,184.645,231.914,109.857,222.458,94.521z"/>
	</g>
</g>
<g>
	<g>
		<path d="M221.509,38.469c-15.514-16.983-39.067-24.475-61.44-19.596c-22.39,4.893-40.654,21.54-47.664,43.447
			c-0.747,2.326-0.191,4.876,1.459,6.683c12.377,13.551,29.863,21.067,47.8,21.067c4.543,0,9.115-0.483,13.64-1.471
			c22.39-4.893,40.655-21.54,47.664-43.447C223.715,42.826,223.159,40.276,221.509,38.469z M172.391,75.26
			c-16.34,3.564-33.437-1.237-45.597-12.583c6.316-15.389,19.864-26.897,36.186-30.464c16.335-3.577,33.437,1.234,45.597,12.583
			C202.261,60.186,188.713,71.693,172.391,75.26z"/>
	</g>
</g>
<g>
</g>
<g>
</g>
<g>
</g>
<g>
</g>
<g>
</g>
<g>
</g>
<g>
</g>
<g>
</g>
<g>
</g>
<g>
</g>
<g>
</g>
<g>
</g>
<g>
</g>
<g>
</g>
<g>
</g>
</svg>
