<?xml version="1.0" encoding="iso-8859-1"?>
<!-- Generator: Adobe Illustrator 19.0.0, SVG Export Plug-In . SVG Version: 6.00 Build 0)  -->
<svg version="1.1" id="Capa_1" xmlns="http://www.w3.org/2000/svg" xmlns:xlink="http://www.w3.org/1999/xlink" x="0px" y="0px"
	 viewBox="0 0 430.08 430.08" style="enable-background:new 0 0 430.08 430.08;" xml:space="preserve">
<g>
	<g>
		<path d="M329.194,90.981c-3.567-1.239-7.453,0.657-8.684,4.217L214.173,402.384L107.184,93.303
			c-1.234-3.564-5.117-5.461-8.684-4.217c-3.564,1.234-5.451,5.12-4.217,8.683l113.44,327.718c0.949,2.75,3.54,4.593,6.449,4.593
			c2.91,0,5.499-1.843,6.451-4.593L333.411,99.664C334.643,96.101,332.758,92.215,329.194,90.981z"/>
	</g>
</g>
<g>
	<g>
		<path d="M346.544,56.054C311.506,19.907,264.496,0,214.173,0c-49.23,0-95.517,19.169-130.333,53.984
			C73.191,64.63,73.191,81.954,83.837,92.6c10.643,10.65,27.967,10.66,38.617,0.003c24.503-24.497,57.076-37.99,91.72-37.99
			c35.413,0,68.497,14.01,93.153,39.451c5.187,5.352,12.153,8.299,19.61,8.299c7.13,0,13.877-2.734,19.002-7.697
			C356.748,84.186,357.021,66.867,346.544,56.054z M336.436,84.861c-5.25,5.079-14.239,4.929-19.306-0.3
			c-27.254-28.117-63.816-43.6-102.956-43.6c-38.291,0-74.293,14.913-101.374,41.989c-5.327,5.32-13.983,5.323-19.309-0.003
			c-5.323-5.323-5.32-13.986,0.003-19.309c32.241-32.234,75.097-49.983,120.68-49.983c46.597,0,90.122,18.434,122.563,51.901
			C341.975,70.96,341.839,79.625,336.436,84.861z"/>
	</g>
</g>
<g>
	<g>
		<path d="M145.907,177.493c-5.303,0-10.586,0.78-15.703,2.313c-1.78,0.538-3.267,1.773-4.113,3.43
			c-0.846,1.657-0.983,3.587-0.374,5.344l31.223,90.201c0.606,1.756,1.906,3.19,3.596,3.97c0.903,0.413,1.877,0.623,2.854,0.623
			c0.846,0,1.696-0.157,2.5-0.473c21.036-8.288,34.63-28.223,34.63-50.794C200.52,201.993,176.021,177.493,145.907,177.493z
			 M167.313,267.006l-26.163-75.58c1.579-0.186,3.166-0.28,4.756-0.28c22.586,0,40.96,18.374,40.96,40.96
			C186.867,246.607,179.383,259.656,167.313,267.006z"/>
	</g>
</g>
<g>
	<g>
		<path d="M234.653,81.92c-30.114,0-54.613,24.499-54.613,54.613s24.499,54.613,54.613,54.613c30.112,0,54.613-24.499,54.613-54.613
			S264.768,81.92,234.653,81.92z M234.653,177.493c-22.586,0-40.96-18.374-40.96-40.96c0-22.586,18.374-40.96,40.96-40.96
			c22.586,0,40.96,18.374,40.96,40.96C275.613,159.119,257.239,177.493,234.653,177.493z"/>
	</g>
</g>
<g>
	<g>
		<path d="M269.934,270.976c-7.704-7.456-17.811-11.563-28.454-11.563c-22.586,0-40.96,18.374-40.96,40.96
			c0,22.586,18.374,40.96,40.96,40.96c1.133,0,2.229-0.13,3.323-0.276l0.923-0.116c2.637-0.276,4.873-2.053,5.74-4.557
			l20.171-58.267C272.507,275.606,271.843,272.823,269.934,270.976z M240.046,327.644c-14.392-0.751-25.873-12.694-25.873-27.271
			c0-15.056,12.25-27.307,27.307-27.307c5.676,0,11.126,1.76,15.717,5.028L240.046,327.644z"/>
	</g>
</g>
<g>
	<g>
		<path d="M163.654,96.935c-3.011-2.26-7.294-1.654-9.554,1.367c-10.964,14.621-22.124,33.954-13.02,43.058
			c1.333,1.333,3.081,2,4.826,2s3.494-0.667,4.828-2c2.454-2.454,2.65-6.315,0.584-8.991c-0.121-3.854,6.219-15.88,13.706-25.876
			C167.284,103.475,166.672,99.198,163.654,96.935z"/>
	</g>
</g>
<g>
	<g>
		<path d="M258.185,212.347c-3.376-1.686-7.473-0.317-9.16,3.053c-2.615,5.228-17.811,0.503-24.98-3.057
			c-3.372-1.669-7.47-0.311-9.153,3.067c-1.679,3.369-0.317,7.463,3.053,9.149c2.084,1.039,14.145,6.813,25.421,6.813
			c7.224,0,14.124-2.369,17.872-9.866C262.924,218.134,261.559,214.033,258.185,212.347z"/>
	</g>
</g>
<g>
</g>
<g>
</g>
<g>
</g>
<g>
</g>
<g>
</g>
<g>
</g>
<g>
</g>
<g>
</g>
<g>
</g>
<g>
</g>
<g>
</g>
<g>
</g>
<g>
</g>
<g>
</g>
<g>
</g>
</svg>
