<?xml version="1.0" encoding="iso-8859-1"?>
<!-- Generator: Adobe Illustrator 19.0.0, SVG Export Plug-In . SVG Version: 6.00 Build 0)  -->
<svg version="1.1" id="Capa_1" xmlns="http://www.w3.org/2000/svg" xmlns:xlink="http://www.w3.org/1999/xlink" x="0px" y="0px"
	 viewBox="0 0 381.737 381.737" style="enable-background:new 0 0 381.737 381.737;" xml:space="preserve">
<g>
	<g>
		<path d="M381.716,176.435C374.85,82.729,299.009,6.885,205.303,0.016c-1.908-0.126-3.762,0.521-5.147,1.811
			c-1.393,1.29-2.179,3.104-2.179,5.001v170.11c0,3.77,3.053,6.827,6.827,6.827H374.91c1.901,0,3.705-0.79,4.999-2.181
			C381.202,180.192,381.856,178.328,381.716,176.435z M211.629,170.11V14.328c81.179,9.39,146.393,74.604,155.779,155.783H211.629z"
			/>
	</g>
</g>
<g>
	<g>
		<path d="M349.851,176.335c-6.82-76.873-67.567-137.621-144.44-144.444c-1.94-0.133-3.808,0.473-5.214,1.763
			c-1.413,1.294-2.22,3.12-2.22,5.036v138.247c0,3.77,3.053,6.827,6.827,6.827H343.05c1.913,0,3.741-0.802,5.035-2.215
			C349.378,180.135,350.018,178.241,349.851,176.335z M211.629,170.11V46.341c64.273,9.006,114.767,59.5,123.773,123.769H211.629z"
			/>
	</g>
</g>
<g>
	<g>
		<path d="M348.163,197.417h-163.84V33.577c0-3.77-3.053-6.827-6.827-6.827c-97.874,0-177.493,79.623-177.493,177.493
			s79.619,177.493,177.493,177.493s177.493-79.625,177.493-177.493C354.989,200.474,351.936,197.417,348.163,197.417z
			 M177.496,368.084c-90.341,0-163.84-73.499-163.84-163.84c0-88.054,69.827-160.108,157.013-163.7v163.7
			c0,3.77,3.053,6.827,6.827,6.827h163.7C337.602,298.257,265.55,368.084,177.496,368.084z"/>
	</g>
</g>
<g>
	<g>
		<path d="M314.029,197.417H184.323V67.71c0-3.77-3.053-6.827-6.827-6.827c-79.046,0-143.36,64.311-143.36,143.36
			s64.314,143.36,143.36,143.36c79.048,0,143.36-64.311,143.36-143.36C320.856,200.474,317.803,197.417,314.029,197.417z
			 M177.496,333.949c-71.52,0-129.707-58.187-129.707-129.707c0-69.229,54.519-125.962,122.88-129.529v129.529
			c0,3.77,3.053,6.827,6.827,6.827h129.527C303.463,279.426,246.722,333.949,177.496,333.949z"/>
	</g>
</g>
<g>
	<g>
		<path d="M132.763,102.564c-3.372-1.686-7.474-0.321-9.16,3.053c-1.76,3.524-7.414,13.751-12.373,18.707
			c-2.666,2.666-2.666,6.987,0,9.653c1.333,1.333,3.081,2,4.826,2c1.748,0,3.494-0.667,4.826-2
			c7.526-7.523,14.633-21.656,14.933-22.253C137.502,108.351,136.135,104.25,132.763,102.564z"/>
	</g>
</g>
<g>
	<g>
		<path d="M271.704,90.919l-20.48-27.307c-2.261-3.014-6.54-3.64-9.554-1.364c-3.021,2.261-3.634,6.54-1.367,9.557l20.48,27.307
			c1.34,1.787,3.386,2.731,5.466,2.731c1.427,0,2.86-0.444,4.087-1.367C273.358,98.215,273.971,93.937,271.704,90.919z"/>
	</g>
</g>
<g>
	<g>
		<path d="M314.029,115.497c-3.773,0-6.827,3.057-6.827,6.827v13.653c0,3.77,3.053,6.827,6.827,6.827s6.827-3.057,6.827-6.827
			v-13.653C320.856,118.554,317.803,115.497,314.029,115.497z"/>
	</g>
</g>
<g>
	<g>
		<path d="M273.069,217.897h-13.653c-3.773,0-6.827,3.057-6.827,6.827s3.053,6.827,6.827,6.827h13.653
			c3.773,0,6.827-3.057,6.827-6.827S276.843,217.897,273.069,217.897z"/>
	</g>
</g>
<g>
	<g>
		<path d="M245.763,101.844c-18.819,0-34.133,15.314-34.133,34.133c0,18.819,15.314,34.133,34.133,34.133
			c18.821,0,34.133-15.314,34.133-34.133C279.896,117.158,264.582,101.844,245.763,101.844z M245.763,156.457
			c-11.293,0-20.48-9.187-20.48-20.48c0-11.293,9.187-20.48,20.48-20.48c11.295,0,20.48,9.187,20.48,20.48
			C266.243,147.27,257.056,156.457,245.763,156.457z"/>
	</g>
</g>
<g>
	<g>
		<path d="M245.763,238.377c-15.06,0-27.307,12.25-27.307,27.307c0,15.056,12.247,27.307,27.307,27.307
			c15.061,0,27.307-12.25,27.307-27.307C273.069,250.628,260.822,238.377,245.763,238.377z M245.763,279.337
			c-7.526,0-13.653-6.124-13.653-13.653c0-7.53,6.127-13.653,13.653-13.653c7.528,0,13.653,6.124,13.653,13.653
			C259.416,273.214,253.289,279.337,245.763,279.337z"/>
	</g>
</g>
<g>
	<g>
		<path d="M143.363,231.55c-15.06,0-27.307,12.25-27.307,27.307c0,15.056,12.247,27.307,27.307,27.307
			c15.061,0,27.307-12.25,27.307-27.307C170.669,243.801,158.422,231.55,143.363,231.55z M143.363,272.51
			c-7.526,0-13.653-6.124-13.653-13.653c0-7.53,6.127-13.653,13.653-13.653c7.528,0,13.653,6.124,13.653,13.653
			C157.016,266.387,150.889,272.51,143.363,272.51z"/>
	</g>
</g>
<g>
	<g>
		<path d="M88.749,156.457c-22.586,0-40.96,18.374-40.96,40.96c0,22.586,18.374,40.96,40.96,40.96
			c22.588,0,40.96-18.374,40.96-40.96C129.709,174.831,111.335,156.457,88.749,156.457z M88.749,224.724
			c-15.06,0-27.307-12.25-27.307-27.307c0-15.056,12.247-27.307,27.307-27.307c15.061,0,27.307,12.25,27.307,27.307
			C116.056,212.473,103.809,224.724,88.749,224.724z"/>
	</g>
</g>
<g>
	<g>
		<path d="M207.858,225.444c-3.372-1.693-7.474-0.317-9.16,3.053l-6.827,13.653c-1.686,3.372-0.321,7.474,3.053,9.16
			c0.98,0.49,2.019,0.72,3.046,0.72c2.505,0,4.912-1.381,6.113-3.773l6.827-13.653C212.597,231.231,211.232,227.13,207.858,225.444z
			"/>
	</g>
</g>
<g>
	<g>
		<path d="M208.592,287.311l-20.48-13.653c-3.147-2.104-7.38-1.251-9.467,1.893c-2.094,3.137-1.248,7.376,1.893,9.467l20.48,13.653
			c1.167,0.777,2.48,1.147,3.78,1.147c2.207,0,4.372-1.067,5.687-3.04C212.578,293.641,211.732,289.401,208.592,287.311z"/>
	</g>
</g>
<g>
	<g>
		<path d="M183.603,296.764c-1.693-3.376-5.786-4.743-9.16-3.053l-13.653,6.827c-3.374,1.686-4.739,5.786-3.053,9.16
			c1.2,2.393,3.606,3.773,6.113,3.773c1.027,0,2.067-0.23,3.046-0.72l13.653-6.827C183.923,304.237,185.289,300.138,183.603,296.764
			z"/>
	</g>
</g>
<g>
	<g>
		<path d="M159.177,184.114c-3.601-1.196-7.448,0.742-8.634,4.316l-6.827,20.48c-1.195,3.577,0.739,7.444,4.313,8.637
			c0.72,0.241,1.447,0.353,2.161,0.353c2.86,0,5.521-1.811,6.473-4.669l6.827-20.48
			C164.684,189.174,162.751,185.307,159.177,184.114z"/>
	</g>
</g>
<g>
	<g>
		<path d="M161.843,144.804c-2.666-2.666-6.987-2.666-9.653,0l-13.653,13.653c-2.666,2.666-2.666,6.987,0,9.653
			c1.333,1.333,3.081,2,4.826,2c1.748,0,3.494-0.667,4.826-2l13.653-13.653C164.508,151.791,164.508,147.47,161.843,144.804z"/>
	</g>
</g>
<g>
	<g>
		<path d="M150.189,108.67c-3.773,0-6.827,3.057-6.827,6.827v6.827c0,3.77,3.053,6.827,6.827,6.827s6.827-3.057,6.827-6.827v-6.827
			C157.016,111.727,153.963,108.67,150.189,108.67z"/>
	</g>
</g>
<g>
	<g>
		<path d="M107.229,267.684l-6.827-6.827c-2.666-2.666-6.987-2.666-9.653,0c-2.666,2.666-2.666,6.987,0,9.653l6.827,6.827
			c1.333,1.333,3.081,2,4.826,2c1.748,0,3.494-0.667,4.826-2C109.895,274.671,109.895,270.35,107.229,267.684z"/>
	</g>
</g>
<g>
</g>
<g>
</g>
<g>
</g>
<g>
</g>
<g>
</g>
<g>
</g>
<g>
</g>
<g>
</g>
<g>
</g>
<g>
</g>
<g>
</g>
<g>
</g>
<g>
</g>
<g>
</g>
<g>
</g>
</svg>
