<?xml version="1.0" encoding="iso-8859-1"?>
<!-- Generator: Adobe Illustrator 19.0.0, SVG Export Plug-In . SVG Version: 6.00 Build 0)  -->
<svg version="1.1" id="Capa_1" xmlns="http://www.w3.org/2000/svg" xmlns:xlink="http://www.w3.org/1999/xlink" x="0px" y="0px"
	 viewBox="0 0 395.15 395.15" style="enable-background:new 0 0 395.15 395.15;" xml:space="preserve">
<g>
	<g>
		<path d="M302.443,88.43c-13.647-17.306-40.114-23.656-72.59-17.396c-25.404,4.888-30.437,19.937-37.4,40.771
			c-9.23,27.607-23.177,69.327-90.39,132.193c-61.049,57.103-90.33,100.487-87.023,128.94c1.507,12.972,9.441,17.872,10.341,18.389
			c0.609,0.35,1.273,0.602,1.959,0.749c1.207,0.261,14.769,3.074,34.7,3.074c24.33,0,58.143-4.197,90.498-22.356
			c50.212-28.18,99.342-94.727,146.026-197.794C316.03,136.437,317.334,107.309,302.443,88.43z M286.124,169.367
			c-45.457,100.357-92.652,164.794-140.268,191.52c-49.557,27.81-104.603,19.796-114.19,18.116c-0.86-0.927-2.557-3.26-3.063-7.644
			c-1.567-13.46,7.11-46.609,82.787-117.39c69.74-65.231,84.934-110.684,94.013-137.841c6.694-20.023,9.463-28.31,27.03-31.689
			c26.887-5.176,49.056-0.527,59.29,12.447C303.041,111.234,301.104,136.297,286.124,169.367z"/>
	</g>
</g>
<g>
	<g>
		<g>
			<circle cx="110.365" cy="300.828" r="6.827"/>
			<circle cx="89.885" cy="341.788" r="6.827"/>
			<circle cx="151.325" cy="253.041" r="6.827"/>
			<circle cx="199.111" cy="246.215" r="6.827"/>
			<circle cx="246.898" cy="184.775" r="6.827"/>
			<circle cx="219.591" cy="198.428" r="6.827"/>
			<circle cx="226.418" cy="130.161" r="6.827"/>
			<circle cx="171.805" cy="300.828" r="6.827"/>
		</g>
	</g>
</g>
<g>
	<g>
		<path d="M366.314,2.339c-17.106-7.6-49.42,2.401-76.713,43.614c-40.204-7.347-89.457-22.694-128.947-38.204l-4.994,12.706
			c0.485,0.189,48.768,19.075,98.947,31.836c9.709,2.466,18.833,4.553,27.377,6.253c-2.447,4.42-4.837,9.132-7.148,14.136
			l12.401,5.721c2.903-6.298,5.917-12.051,8.998-17.292c45.588,7.267,71.839,1.616,79.823-17.01
			C386,20.902,377.019,7.106,366.314,2.339z M363.509,38.718c-5.183,12.083-28.269,13.872-58.989,9.639
			c22.386-30.986,46.164-38.043,56.24-33.543C367.594,17.854,368.619,26.792,363.509,38.718z"/>
	</g>
</g>
<g>
</g>
<g>
</g>
<g>
</g>
<g>
</g>
<g>
</g>
<g>
</g>
<g>
</g>
<g>
</g>
<g>
</g>
<g>
</g>
<g>
</g>
<g>
</g>
<g>
</g>
<g>
</g>
<g>
</g>
</svg>
