<?xml version="1.0" encoding="iso-8859-1"?>
<!-- Generator: Adobe Illustrator 19.0.0, SVG Export Plug-In . SVG Version: 6.00 Build 0)  -->
<svg version="1.1" id="Capa_1" xmlns="http://www.w3.org/2000/svg" xmlns:xlink="http://www.w3.org/1999/xlink" x="0px" y="0px"
	 viewBox="0 0 411.286 411.286" style="enable-background:new 0 0 411.286 411.286;" xml:space="preserve">
<g>
	<g>
		<path d="M298.743,203.464c-6.513-12.978-12.663-25.233-17.976-37.05c-5.781-12.855-9.904-25.231-13.544-36.151
			c-11.006-33.027-19.7-59.114-61.58-59.114c-41.883,0-50.574,26.086-61.58,59.11c-3.64,10.921-7.764,23.301-13.544,36.154
			c-5.313,11.817-11.464,24.073-17.976,37.05c-19.676,39.2-40.02,79.73-40.02,114.097c0,51.267,33.304,87.569,65.5,93.047
			c20.813,3.553,58.083-7.888,67.62-10.984c8.279,2.69,37.473,11.656,58.639,11.656c3.214,0,6.245-0.207,8.987-0.672
			c32.193-5.477,65.493-41.781,65.493-93.047C338.763,283.194,318.42,242.665,298.743,203.464z M270.976,397.149
			c-16.64,2.857-51.214-7.107-63.126-11.177c-1.427-0.486-2.983-0.486-4.417,0c-11.906,4.07-46.452,14.003-63.116,11.177
			c-22.48-3.823-54.141-31.044-54.141-79.587c0-31.13,19.606-70.193,38.566-107.969c6.584-13.111,12.797-25.494,18.231-37.577
			c6.06-13.484,10.305-26.211,14.044-37.437c10.692-32.094,16.587-49.773,48.626-49.773s37.931,17.679,48.625,49.775
			c3.741,11.228,7.984,23.951,14.044,37.434c5.434,12.083,11.648,24.467,18.231,37.577c18.961,37.777,38.567,76.841,38.567,107.971
			C325.11,366.104,293.456,393.324,270.976,397.149z"/>
	</g>
</g>
<g>
	<g>
		<path d="M121.696,329.904h-13.653c0,30.114,24.499,54.613,54.613,54.613v-13.653C140.07,370.864,121.696,352.49,121.696,329.904z"
			/>
	</g>
</g>
<g>
	<g>
		<path d="M199.837,35.361c-10.6-10.6-25.655-14.904-40.271-11.54c-2.546,0.587-4.533,2.574-5.12,5.12
			c-3.369,14.618,0.944,29.674,11.544,40.271c8.223,8.223,19.13,12.663,30.44,12.663c3.26,0,6.555-0.37,9.83-1.123
			c2.546-0.587,4.533-2.577,5.12-5.12C214.746,61.01,210.434,45.954,199.837,35.361z M198.752,68.127
			c-8.52,0.621-16.937-2.393-23.11-8.569c-6.176-6.18-9.233-14.573-8.573-23.113c8.537-0.667,16.934,2.389,23.113,8.569
			C196.359,51.19,199.412,59.587,198.752,68.127z"/>
	</g>
</g>
<g>
	<g>
		<path d="M275.384,6.639c-0.587-2.543-2.574-4.533-5.12-5.12c-19.702-4.553-40.009,1.27-54.296,15.56
			c-14.29,14.287-20.106,34.586-15.56,54.292c0.587,2.546,2.574,4.533,5.12,5.12c4.413,1.017,8.858,1.517,13.257,1.517
			c15.244,0,29.954-5.987,41.038-17.077C274.111,46.649,279.927,26.353,275.384,6.639z M250.172,51.277
			c-9.897,9.89-23.576,14.481-37.239,12.691c-1.789-13.687,2.797-27.344,12.691-37.236c9.899-9.894,23.559-14.474,37.239-12.691
			C264.648,27.727,260.062,41.387,250.172,51.277z"/>
	</g>
</g>
<g>
</g>
<g>
</g>
<g>
</g>
<g>
</g>
<g>
</g>
<g>
</g>
<g>
</g>
<g>
</g>
<g>
</g>
<g>
</g>
<g>
</g>
<g>
</g>
<g>
</g>
<g>
</g>
<g>
</g>
</svg>
