<?xml version="1.0" encoding="iso-8859-1"?>
<!-- Generator: Adobe Illustrator 19.0.0, SVG Export Plug-In . SVG Version: 6.00 Build 0)  -->
<svg version="1.1" id="Capa_1" xmlns="http://www.w3.org/2000/svg" xmlns:xlink="http://www.w3.org/1999/xlink" x="0px" y="0px"
	 viewBox="0 0 423.253 423.253" style="enable-background:new 0 0 423.253 423.253;" xml:space="preserve">
<g>
	<g>
		<path d="M162.903,248.977c-5.523-32.986-33.84-56.926-67.33-56.926c-33.476,0-61.79,23.927-67.323,56.9
			c-0.623,3.712,1.886,7.233,5.603,7.859c3.743,0.654,7.236-1.886,7.863-5.606c4.424-26.359,27.075-45.5,53.857-45.5
			c26.793,0,49.447,19.147,53.864,45.525c0.56,3.34,3.449,5.7,6.726,5.7c0.374,0,0.753-0.026,1.133-0.094
			C161.017,256.217,163.526,252.698,162.903,248.977z"/>
	</g>
</g>
<g>
	<g>
		<path d="M212.42,245.878c-11.034-24.407-35.463-40.173-62.234-40.173c-26.779,0-51.21,15.773-62.24,40.187
			c-1.553,3.441-0.027,7.48,3.41,9.033c0.911,0.413,1.867,0.606,2.807,0.606c2.599,0,5.082-1.493,6.222-4.012
			c8.827-19.54,28.377-32.16,49.801-32.16c21.42,0,40.963,12.621,49.794,32.147c1.553,3.427,5.596,4.96,9.033,3.406
			C212.448,253.358,213.973,249.312,212.42,245.878z"/>
	</g>
</g>
<g>
	<g>
		<path d="M245.181,245.137c-12.766-12.22-29.534-18.953-47.21-18.953c-17.48,0-34.113,6.601-46.829,18.594
			c-2.743,2.586-2.871,6.907-0.283,9.646c2.586,2.753,6.903,2.881,9.649,0.287c10.173-9.593,23.48-14.874,37.463-14.874
			c14.143,0,27.558,5.388,37.77,15.167c1.324,1.266,3.021,1.893,4.721,1.893c1.797,0,3.591-0.707,4.929-2.108
			C248.001,252.07,247.905,247.743,245.181,245.137z"/>
	</g>
</g>
<g>
	<g>
		<path d="M354.784,248.211c-2.707-35.319-32.604-62.986-68.064-62.986c-36.239,0-66.179,28.319-68.163,64.473
			c-0.206,3.767,2.676,6.98,6.443,7.187c0.128,0.014,0.254,0.014,0.381,0.014c3.596,0,6.61-2.813,6.81-6.455
			c1.587-28.914,25.537-51.567,54.53-51.567c28.367,0,52.285,22.127,54.45,50.374c0.287,3.762,3.487,6.554,7.33,6.287
			C352.258,255.251,355.07,251.971,354.784,248.211z"/>
	</g>
</g>
<g>
	<g>
		<path d="M382.196,247.124c-1.533-23.228-20.98-41.421-44.276-41.421c-23.996,0-43.472,18.773-44.346,42.747
			c-0.137,3.767,2.807,6.934,6.578,7.067c0.082,0.007,0.166,0.007,0.249,0.007c3.656,0,6.687-2.893,6.818-6.579
			c0.599-16.594,14.087-29.587,30.7-29.587c16.126,0,29.594,12.594,30.65,28.66c0.251,3.76,3.458,6.499,7.264,6.366
			C379.593,254.136,382.444,250.883,382.196,247.124z"/>
	</g>
</g>
<g>
	<g>
		<path d="M333.077,245.692c-5.089-19.528-22.746-33.161-42.943-33.161c-20.613,0-38.83,14.587-43.31,34.679
			c-0.821,3.68,1.497,7.327,5.176,8.146c0.5,0.114,1,0.167,1.493,0.167c3.127,0,5.948-2.159,6.658-5.339
			c3.099-13.906,15.71-23.999,29.983-23.999c13.983,0,26.211,9.44,29.73,22.946c0.947,3.652,4.647,5.813,8.33,4.886
			C331.839,253.065,334.027,249.339,333.077,245.692z"/>
	</g>
</g>
<g>
	<g>
		<path d="M133.919,245.885c-5.977-15.867-21.386-26.527-38.344-26.527c-17.2,0-32.683,10.866-38.526,27.034
			c-1.283,3.547,0.553,7.46,4.099,8.74c0.766,0.28,1.55,0.406,2.319,0.406c2.792,0,5.415-1.727,6.419-4.506
			c3.896-10.781,14.22-18.021,25.687-18.021c11.307,0,21.581,7.107,25.566,17.686c1.333,3.526,5.267,5.32,8.796,3.98
			C133.461,253.351,135.245,249.411,133.919,245.885z"/>
	</g>
</g>
<g>
	<g>
		<path d="M419.29,250.358c-0.633-3.193-3.437-5.501-6.697-5.501H10.66c-3.26,0-6.064,2.307-6.697,5.501
			C1.333,263.651,0,277.323,0,291.004c0,47.107,15.36,91.621,44.414,128.727c1.295,1.654,3.277,2.62,5.376,2.62h323.673
			c2.101,0,4.081-0.966,5.378-2.62c29.053-37.106,44.413-81.62,44.413-128.727C423.253,277.325,421.92,263.651,419.29,250.358z
			 M370.104,408.697H53.151c-25.854-34.152-39.497-74.773-39.497-117.693c0-10.912,0.906-21.813,2.697-32.493h390.554
			c1.79,10.68,2.696,21.579,2.696,32.493C409.6,333.925,395.957,374.545,370.104,408.697z"/>
	</g>
</g>
<g>
	<g>
		<path d="M129.707,272.164H34.133c-3.77,0-6.827,3.053-6.827,6.827s3.057,6.827,6.827,6.827h95.573c3.77,0,6.827-3.053,6.827-6.827
			S133.477,272.164,129.707,272.164z"/>
	</g>
</g>
<g>
	<g>
		<path d="M395.597,5.571c-1.191-3.572-5.047-5.513-8.637-4.313l-266.24,88.747c-3.576,1.188-5.509,5.053-4.316,8.634
			c0.954,2.859,3.616,4.666,6.477,4.666c0.713,0,1.444-0.114,2.161-0.353l266.24-88.747C394.856,13.017,396.79,9.151,395.597,5.571z
			"/>
	</g>
</g>
<g>
	<g>
		<path d="M402.773,115.151h-307.2c-3.77,0-6.827,3.053-6.827,6.827s3.057,6.827,6.827,6.827h307.2c3.77,0,6.827-3.053,6.827-6.827
			S406.543,115.151,402.773,115.151z"/>
	</g>
</g>
<g>
	<g>
		<path d="M150.187,82.825c-3.77,0-6.827,3.053-6.827,6.827v89.013c0,3.773,3.057,6.827,6.827,6.827s6.827-3.053,6.827-6.827V89.651
			C157.013,85.878,153.957,82.825,150.187,82.825z"/>
	</g>
</g>
<g>
	<g>
		<path d="M102.4,116.958c-3.77,0-6.827,3.053-6.827,6.827v47.787c0,3.773,3.057,6.827,6.827,6.827s6.827-3.053,6.827-6.827v-47.787
			C109.227,120.011,106.17,116.958,102.4,116.958z"/>
	</g>
</g>
<g>
	<g>
		<path d="M122.88,89.651c-3.77,0-6.827,3.053-6.827,6.827v47.787c0,3.773,3.057,6.827,6.827,6.827s6.827-3.053,6.827-6.827V96.478
			C129.707,92.704,126.65,89.651,122.88,89.651z"/>
	</g>
</g>
<g>
</g>
<g>
</g>
<g>
</g>
<g>
</g>
<g>
</g>
<g>
</g>
<g>
</g>
<g>
</g>
<g>
</g>
<g>
</g>
<g>
</g>
<g>
</g>
<g>
</g>
<g>
</g>
<g>
</g>
</svg>
