<?xml version="1.0" encoding="iso-8859-1"?>
<!-- Generator: Adobe Illustrator 19.0.0, SVG Export Plug-In . SVG Version: 6.00 Build 0)  -->
<svg version="1.1" id="Capa_1" xmlns="http://www.w3.org/2000/svg" xmlns:xlink="http://www.w3.org/1999/xlink" x="0px" y="0px"
	 viewBox="0 0 410.043 410.043" style="enable-background:new 0 0 410.043 410.043;" xml:space="preserve">
<g>
	<g>
		<path d="M247.608,42.488C220.215,15.087,183.794,0,145.048,0S69.881,15.087,42.487,42.488C15.087,69.882,0,106.302,0,145.048
			c0,38.746,15.087,75.167,42.487,102.56c27.394,27.401,63.814,42.487,102.56,42.487c38.746,0,75.167-15.087,102.56-42.487
			c27.401-27.394,42.487-63.814,42.487-102.56S275.009,69.882,247.608,42.488z M237.955,237.958
			c-24.815,24.82-57.807,38.487-92.908,38.487s-68.094-13.667-92.908-38.487c-24.82-24.815-38.487-57.806-38.487-92.908
			c0-35.101,13.667-68.094,38.487-92.907c24.815-24.82,57.808-38.487,92.908-38.487c35.101,0,68.094,13.667,92.908,38.487
			c24.82,24.815,38.487,57.806,38.487,92.907C276.442,180.151,262.775,213.144,237.955,237.958z"/>
	</g>
</g>
<g>
	<g>
		<path d="M171.221,37.257c-29.406-7.127-60.773-1.853-86.093,14.433c-3.173,2.039-4.086,6.26-2.046,9.433
			c1.3,2.028,3.5,3.133,5.746,3.133c1.266,0,2.546-0.355,3.686-1.087c22.199-14.266,49.719-18.872,75.493-12.646
			c3.659,0.92,7.359-1.36,8.24-5.026C177.135,41.831,174.887,38.144,171.221,37.257z"/>
	</g>
</g>
<g>
	<g>
		<path d="M223.474,66.62c-6.373-6.373-13.479-11.947-21.113-16.56c-3.239-1.959-7.433-0.913-9.373,2.307
			c-1.952,3.226-0.92,7.426,2.307,9.373c6.699,4.047,12.933,8.941,18.526,14.534c18.365,18.367,28.486,42.793,28.486,68.773
			c0,25.981-10.119,50.406-28.486,68.774c-37.92,37.92-99.627,37.92-137.547,0c-2.666-2.666-6.987-2.666-9.653,0
			c-2.666,2.666-2.666,6.987,0,9.653c21.62,21.62,50.026,32.434,78.426,32.434c28.401,0,56.808-10.813,78.426-32.435
			C266.721,180.226,266.721,109.867,223.474,66.62z"/>
	</g>
</g>
<g>
	<g>
		<path d="M68.857,73.816c-2.927-2.406-7.221-1.966-9.607,0.94c-30.901,37.625-33.42,92.059-6.134,132.372
			c1.319,1.947,3.473,3,5.659,3c1.312,0,2.645-0.379,3.823-1.173c3.12-2.115,3.939-6.361,1.826-9.48
			c-23.921-35.347-21.714-83.067,5.373-116.053C72.19,80.509,71.77,76.208,68.857,73.816z"/>
	</g>
</g>
<g>
	<g>
		<path d="M306.342,277.383l-48.266-48.273c-1.28-1.28-3.014-2-4.826-2s-3.546,0.72-4.826,2l-19.313,19.313
			c-1.28,1.28-2,3.014-2,4.826s0.72,3.546,2,4.826l48.273,48.266c1.333,1.333,3.081,2,4.826,2s3.492-0.667,4.826-2l19.306-19.306
			C309.007,284.37,309.007,280.049,306.342,277.383z M282.209,291.863l-38.62-38.613l9.66-9.66l38.613,38.62L282.209,291.863z"/>
	</g>
</g>
<g>
	<g>
		<path d="M402.063,363.442l-76.407-76.407c-10.646-10.646-27.96-10.66-38.62,0c-10.646,10.646-10.646,27.974,0,38.62l76.407,76.407
			c5.327,5.32,12.319,7.98,19.306,7.98c6.992,0,13.986-2.661,19.314-7.98C412.703,391.416,412.703,374.088,402.063,363.442z
			 M392.409,392.409c-5.327,5.313-13.986,5.326-19.313,0l-76.407-76.407c-2.581-2.579-4-6.006-4-9.653c0-3.652,1.42-7.079,4-9.66
			c2.58-2.581,6.006-4,9.66-4c3.647,0,7.074,1.42,9.653,4l76.407,76.407C397.728,378.423,397.728,387.083,392.409,392.409z"/>
	</g>
</g>
<g>
	<g>
		<path d="M197.946,43.256c-6.228-9.347-18.934-11.914-28.327-5.7c-9.387,6.205-11.993,18.918-5.806,28.339
			c1.406,2.147,34.161,53.241,5.28,116.78c-2.266,4.98-2.452,10.54-0.532,15.66c1.92,5.127,5.721,9.194,10.694,11.453
			c2.686,1.227,5.54,1.847,8.474,1.847c8.013,0,15.334-4.721,18.645-12.013C244.799,115.089,199.873,46.149,197.946,43.256z
			 M193.949,193.97c-1.507,3.326-5.613,4.953-9.033,3.393c-1.661-0.753-2.927-2.113-3.567-3.82s-0.579-3.553,0.174-5.214
			c31.959-70.32-4.721-127.527-6.294-129.927c-2.067-3.147-1.2-7.393,1.92-9.453c1.161-0.766,2.473-1.133,3.767-1.133
			c2.207,0,4.367,1.06,5.675,3.014C188.349,53.47,229.269,116.277,193.949,193.97z"/>
	</g>
</g>
<g>
	<g>
		<path d="M195.536,206.809c-0.3-3.753-3.507-6.574-7.354-6.26c-3.76,0.307-6.56,3.594-6.26,7.354
			c0.334,4.094,0.507,8.313,0.527,12.534c0.014,2.673-1.546,5.12-3.98,6.24c-0.872,0.406-1.813,0.613-2.813,0.613
			c-1.807-0.08-3.54-0.693-4.833-1.973c-1.294-1.287-2.014-2.994-2.021-4.82c-0.367-77.252-57.6-113.865-60.034-115.386
			c-3.193-2-4.186-6.212-2.207-9.4s6.18-4.193,9.359-2.234c1.667,1.026,41.027,25.752,58.394,77.1
			c1.207,3.574,5.086,5.494,8.653,4.28c3.574-1.207,5.487-5.079,4.28-8.653c-18.927-55.96-62.328-83.22-64.174-84.354
			c-9.561-5.888-22.175-2.906-28.114,6.659c-5.932,9.554-2.992,22.193,6.574,28.18c2.173,1.353,53.287,34.06,53.613,103.873
			c0.046,11.252,9.226,20.379,20.473,20.379c3.268,0.16,5.881-0.626,8.562-1.867c7.279-3.347,11.959-10.687,11.919-18.707
			C196.082,215.808,195.889,211.243,195.536,206.809z"/>
	</g>
</g>
<g>
	<g>
		<path d="M111.241,112.169c-0.461-3.748-3.92-6.455-7.613-5.934c-3.748,0.466-6.4,3.874-5.934,7.613
			c4.067,32.666-2.106,64.213-18.347,93.78c-1.28,2.347-3.732,3.719-6.506,3.533c-0.952-0.073-1.879-0.353-2.753-0.833
			c-1.599-0.874-2.76-2.321-3.267-4.074c-0.514-1.746-0.307-3.586,0.573-5.187c37.193-67.76,4.9-127.526,3.514-130.033
			c-1.819-3.294-0.64-7.462,2.627-9.281c3.267-1.833,7.434-0.672,9.274,2.594c0.234,0.42,5.806,10.38,10.307,26.6
			c1.014,3.633,4.767,5.733,8.407,4.753c3.633-1.014,5.76-4.774,4.753-8.407c-4.859-17.507-10.899-28.467-11.566-29.646
			c-5.501-9.786-17.973-13.293-27.82-7.82c-9.827,5.473-13.38,17.954-7.921,27.827c1.241,2.241,30.066,55.613-3.54,116.84
			c-2.64,4.794-3.248,10.327-1.72,15.58c1.533,5.253,5.012,9.593,9.807,12.227c2.599,1.427,5.4,2.26,8.299,2.473
			c0.519,0.039,1.033,0.06,1.546,0.06c7.421,0,14.348-4.06,17.959-10.633C108.967,182.069,115.668,147.736,111.241,112.169z"/>
	</g>
</g>
<g>
</g>
<g>
</g>
<g>
</g>
<g>
</g>
<g>
</g>
<g>
</g>
<g>
</g>
<g>
</g>
<g>
</g>
<g>
</g>
<g>
</g>
<g>
</g>
<g>
</g>
<g>
</g>
<g>
</g>
</svg>
