<?xml version="1.0" encoding="iso-8859-1"?>
<!-- Generator: Adobe Illustrator 19.0.0, SVG Export Plug-In . SVG Version: 6.00 Build 0)  -->
<svg version="1.1" id="Capa_1" xmlns="http://www.w3.org/2000/svg" xmlns:xlink="http://www.w3.org/1999/xlink" x="0px" y="0px"
	 viewBox="0 0 410.043 410.043" style="enable-background:new 0 0 410.043 410.043;" xml:space="preserve">
<g>
	<g>
		<path d="M247.608,42.488C220.215,15.087,183.794,0,145.048,0S69.881,15.087,42.487,42.488C15.087,69.882,0,106.302,0,145.048
			c0,38.746,15.087,75.167,42.487,102.56c27.394,27.401,63.814,42.487,102.56,42.487c38.746,0,75.167-15.087,102.56-42.487
			c27.401-27.394,42.487-63.814,42.487-102.56S275.009,69.882,247.608,42.488z M237.955,237.958
			c-24.815,24.82-57.807,38.487-92.908,38.487s-68.094-13.667-92.908-38.487c-24.82-24.815-38.487-57.806-38.487-92.908
			c0-35.101,13.667-68.094,38.487-92.907c24.815-24.82,57.808-38.487,92.908-38.487c35.101,0,68.094,13.667,92.908,38.487
			c24.82,24.815,38.487,57.806,38.487,92.907C276.442,180.151,262.775,213.144,237.955,237.958z"/>
	</g>
</g>
<g>
	<g>
		<path d="M223.474,66.622c-43.24-43.24-113.613-43.24-156.853,0c-43.247,43.247-43.247,113.606,0,156.853
			c21.62,21.62,50.026,32.434,78.426,32.434c28.401,0,56.808-10.813,78.426-32.434C266.721,180.228,266.721,109.869,223.474,66.622z
			 M213.821,213.822c-18.367,18.365-42.793,28.486-68.774,28.486s-50.408-10.119-68.773-28.486
			c-18.365-18.367-28.486-42.793-28.486-68.774S57.907,94.64,76.274,76.275c18.367-18.365,42.793-28.486,68.774-28.486
			c25.981,0,50.408,10.119,68.773,28.486c18.365,18.367,28.486,42.793,28.486,68.773
			C242.307,171.029,232.189,195.456,213.821,213.822z"/>
	</g>
</g>
<g>
	<g>
		<path d="M306.342,277.383l-48.266-48.273c-1.28-1.28-3.014-2-4.826-2s-3.546,0.72-4.826,2l-19.313,19.313
			c-1.28,1.28-2,3.014-2,4.826s0.72,3.546,2,4.826l48.273,48.266c1.333,1.333,3.081,2,4.826,2s3.492-0.667,4.826-2l19.306-19.306
			C309.007,284.37,309.007,280.049,306.342,277.383z M282.209,291.863l-38.62-38.613l9.66-9.66l38.613,38.62L282.209,291.863z"/>
	</g>
</g>
<g>
	<g>
		<path d="M402.063,363.442l-76.407-76.407c-10.653-10.646-27.967-10.66-38.62,0c-10.646,10.646-10.646,27.974,0,38.62
			l76.407,76.407c5.327,5.32,12.319,7.98,19.306,7.98c6.992,0,13.986-2.661,19.314-7.98
			C412.703,391.416,412.703,374.088,402.063,363.442z M392.409,392.409c-5.327,5.313-13.986,5.326-19.313,0l-76.407-76.407
			c-2.581-2.579-4-6.006-4-9.653c0-3.652,1.42-7.079,4-9.66c2.58-2.581,6.006-4,9.66-4c3.647,0,7.074,1.42,9.653,4l76.407,76.407
			C397.728,378.423,397.728,387.083,392.409,392.409z"/>
	</g>
</g>
<g>
	<g>
		<path d="M213.927,143.164c-1.033-3.633-4.833-5.707-8.44-4.68c-3.627,1.039-5.719,4.82-4.68,8.439
			c1.14,3.987,1.239,8.46,0.28,12.94c-1.201,5.62-4.007,10.692-7.707,13.913c-1.852,1.62-5.606,4.207-9.919,3.273
			c-4.313-0.927-6.694-4.806-7.726-7.04c-2.06-4.453-2.553-10.226-1.353-15.84c1-4.68,3.021-8.846,5.847-12.059
			c2.487-2.828,2.214-7.141-0.62-9.634c-2.814-2.48-7.148-2.214-9.634,0.62c-4.366,4.966-7.46,11.267-8.94,18.22
			c-1.835,8.566-1.014,17.239,2.313,24.426c3.572,7.74,9.866,13.08,17.26,14.653c1.527,0.326,3.074,0.486,4.627,0.486
			c5.973,0,12.02-2.367,17.12-6.811c5.96-5.2,10.254-12.786,12.08-21.354C215.861,156.058,215.687,149.298,213.927,143.164z"/>
	</g>
</g>
<g>
	<g>
		<path d="M221.763,120.462c-1.126-12.694-7.694-23.733-17.126-28.807c-3.307-1.787-7.46-0.546-9.247,2.78
			c-1.787,3.319-0.539,7.46,2.78,9.247c5.352,2.881,9.279,9.94,9.993,17.993c0.98,11.052-4.413,20.946-11.786,21.606
			c-7.072,0.667-14.426-8.134-15.413-19.193c-0.333-3.746-3.606-6.54-7.407-6.193c-3.753,0.333-6.526,3.654-6.193,7.407
			c1.599,17.927,14.066,31.667,28.273,31.667c0.647,0,1.3-0.027,1.954-0.087C212.582,155.543,223.43,139.208,221.763,120.462z"/>
	</g>
</g>
<g>
	<g>
		<path d="M160.428,75.095c-27.24,0-47.787,11.74-47.787,27.307c0,15.567,20.547,27.307,47.787,27.307s47.787-11.74,47.787-27.307
			C208.215,86.836,187.668,75.095,160.428,75.095z M160.428,116.055c-20.833,0-34.133-8.086-34.133-13.653
			c0-5.567,13.3-13.653,34.133-13.653c20.833,0,34.133,8.086,34.133,13.653C194.562,107.969,181.262,116.055,160.428,116.055z"/>
	</g>
</g>
<g>
	<g>
		<path d="M181.934,176.669c-3.099-2.133-7.352-1.347-9.492,1.76c-6.033,8.781-15,13.408-15.087,13.454
			c-3.359,1.693-4.712,5.779-3.033,9.146c1.2,2.393,3.606,3.773,6.113,3.773c1.027,0,2.067-0.234,3.045-0.72
			c0.493-0.247,12.121-6.153,20.214-17.92C185.827,183.056,185.04,178.81,181.934,176.669z"/>
	</g>
</g>
<g>
	<g>
		<path d="M119.468,102.402h-40.96c-3.773,0-6.827,3.053-6.827,6.827s3.053,6.827,6.827,6.827h40.96
			c3.773,0,6.827-3.053,6.827-6.827S123.242,102.402,119.468,102.402z"/>
	</g>
</g>
<g>
	<g>
		<path d="M139.015,115.381c-1.106-3.613-4.939-5.659-8.52-4.533l-40.327,12.334c-3.606,1.099-5.639,4.92-4.533,8.52
			c0.899,2.947,3.599,4.833,6.526,4.833c0.661,0,1.333-0.094,1.993-0.3l40.327-12.334
			C138.088,122.802,140.121,118.981,139.015,115.381z"/>
	</g>
</g>
<g>
</g>
<g>
</g>
<g>
</g>
<g>
</g>
<g>
</g>
<g>
</g>
<g>
</g>
<g>
</g>
<g>
</g>
<g>
</g>
<g>
</g>
<g>
</g>
<g>
</g>
<g>
</g>
<g>
</g>
</svg>
