<?xml version="1.0" encoding="iso-8859-1"?>
<!-- Generator: Adobe Illustrator 19.0.0, SVG Export Plug-In . SVG Version: 6.00 Build 0)  -->
<svg version="1.1" id="Capa_1" xmlns="http://www.w3.org/2000/svg" xmlns:xlink="http://www.w3.org/1999/xlink" x="0px" y="0px"
	 viewBox="0 0 436.909 436.909" style="enable-background:new 0 0 436.909 436.909;" xml:space="preserve">
<g>
	<g>
		<path d="M225.282,286.719H40.962c-3.773,0-6.827,3.053-6.827,6.827v20.48c0,3.773,3.053,6.827,6.827,6.827h184.32
			c3.773,0,6.827-3.053,6.827-6.827v-20.48C232.109,289.773,229.056,286.719,225.282,286.719z M218.456,307.199H47.789v-6.827
			h170.667V307.199z"/>
	</g>
</g>
<g>
	<g>
		<path d="M245.762,307.199H20.482c-3.773,0-6.827,3.053-6.827,6.827s3.053,6.827,6.827,6.827h225.28
			c3.773,0,6.827-3.053,6.827-6.827S249.536,307.199,245.762,307.199z"/>
	</g>
</g>
<g>
	<g>
		<path d="M68.269,218.453c-18.84,0-27.307,37.987-27.307,47.787c0,15.06,12.247,27.307,27.307,27.307
			c15.061,0,27.307-12.247,27.307-27.307C95.576,256.44,87.109,218.453,68.269,218.453z M68.271,279.893
			c-7.526,0-13.653-6.127-13.653-13.653c0-11.334,8.825-33.34,13.619-34.133c4.861,0.794,13.686,22.799,13.688,34.133
			C81.924,273.766,75.797,279.893,68.271,279.893z"/>
	</g>
</g>
<g>
	<g>
		<path d="M197.976,218.453c-18.84,0-27.307,37.987-27.307,47.787c0,15.06,12.247,27.307,27.307,27.307
			c15.061,0,27.307-12.247,27.307-27.307C225.282,256.44,216.816,218.453,197.976,218.453z M197.977,279.893
			c-7.526,0-13.653-6.127-13.653-13.653c0-11.334,8.825-33.34,13.619-34.133c4.861,0.794,13.686,22.799,13.687,34.133
			C211.631,273.766,205.504,279.893,197.977,279.893z"/>
	</g>
</g>
<g>
	<g>
		<path d="M133.122,204.799c-19.826,0-30.72,42.726-30.72,56.887c0,17.567,13.78,31.86,30.72,31.86s30.72-14.293,30.72-31.86
			C163.842,247.526,152.949,204.799,133.122,204.799z M133.122,279.893c-9.414,0-17.067-8.166-17.067-18.207
			c0-16.094,11.633-43.233,17.067-43.233s17.067,27.139,17.067,43.233C150.189,271.726,142.536,279.893,133.122,279.893z"/>
	</g>
</g>
<g>
	<g>
		<path d="M264.867,132.42c-1.292-1.707-3.313-2.714-5.453-2.714H6.827c-2.14,0-4.159,1.007-5.453,2.714
			c-1.287,1.714-1.7,3.927-1.113,5.987l13.653,47.787c0.841,2.932,3.521,4.953,6.567,4.953h225.28c3.048,0,5.728-2.021,6.564-4.953
			l13.653-47.787C266.567,136.347,266.154,134.133,264.867,132.42z M240.617,177.493H25.63l-9.747-34.133h234.481L240.617,177.493z"
			/>
	</g>
</g>
<g>
	<g>
		<path d="M320.856,129.706H211.629c-3.773,0-6.827,3.053-6.827,6.827s3.053,6.827,6.827,6.827h109.227
			c3.773,0,6.827-3.053,6.827-6.827S324.629,129.706,320.856,129.706z"/>
	</g>
</g>
<g>
	<g>
		<path d="M434.755,117.906c-1.372-1.294-3.232-1.94-5.1-1.84l-109.227,6.827c-3.599,0.227-6.4,3.207-6.4,6.813v13.653
			c0,3.606,2.801,6.586,6.4,6.813l109.227,6.827c0.14,0.007,0.287,0.014,0.427,0.014c1.734,0,3.408-0.66,4.673-1.853
			c1.374-1.287,2.154-3.087,2.154-4.973v-27.307C436.909,120.994,436.129,119.193,434.755,117.906z M423.256,142.919l-95.573-5.973
			v-0.826l95.573-5.973V142.919z"/>
	</g>
</g>
<g>
</g>
<g>
</g>
<g>
</g>
<g>
</g>
<g>
</g>
<g>
</g>
<g>
</g>
<g>
</g>
<g>
</g>
<g>
</g>
<g>
</g>
<g>
</g>
<g>
</g>
<g>
</g>
<g>
</g>
</svg>
