<?xml version="1.0" encoding="iso-8859-1"?>
<!-- Generator: Adobe Illustrator 19.0.0, SVG Export Plug-In . SVG Version: 6.00 Build 0)  -->
<svg version="1.1" id="Capa_1" xmlns="http://www.w3.org/2000/svg" xmlns:xlink="http://www.w3.org/1999/xlink" x="0px" y="0px"
	 viewBox="0 0 410.043 410.043" style="enable-background:new 0 0 410.043 410.043;" xml:space="preserve">
<g>
	<g>
		<path d="M247.608,42.488C220.215,15.087,183.794,0,145.048,0S69.881,15.087,42.487,42.488C15.087,69.882,0,106.302,0,145.048
			c0,38.746,15.087,75.167,42.487,102.56c27.394,27.401,63.814,42.487,102.56,42.487c38.746,0,75.167-15.087,102.56-42.487
			c27.401-27.394,42.487-63.814,42.487-102.56S275.009,69.882,247.608,42.488z M237.955,237.958
			c-24.815,24.82-57.807,38.487-92.908,38.487s-68.094-13.667-92.908-38.487c-24.82-24.815-38.487-57.806-38.487-92.908
			c0-35.101,13.667-68.094,38.487-92.907c24.815-24.82,57.808-38.487,92.908-38.487c35.101,0,68.094,13.667,92.908,38.487
			c24.82,24.815,38.487,57.806,38.487,92.907C276.442,180.151,262.775,213.144,237.955,237.958z"/>
	</g>
</g>
<g>
	<g>
		<path d="M223.474,66.622c-43.24-43.24-113.613-43.24-156.853,0c-43.247,43.247-43.247,113.606,0,156.853
			c21.62,21.62,50.026,32.434,78.426,32.434c28.401,0,56.808-10.813,78.426-32.434C266.721,180.228,266.721,109.869,223.474,66.622z
			 M213.821,213.822c-18.367,18.365-42.793,28.486-68.774,28.486s-50.408-10.119-68.773-28.486
			c-18.365-18.367-28.486-42.793-28.486-68.774S57.907,94.64,76.274,76.275c18.367-18.365,42.793-28.486,68.774-28.486
			c25.981,0,50.408,10.119,68.773,28.486c18.365,18.367,28.486,42.793,28.486,68.773
			C242.307,171.029,232.189,195.456,213.821,213.822z"/>
	</g>
</g>
<g>
	<g>
		<path d="M306.342,277.383l-48.266-48.273c-1.28-1.28-3.014-2-4.826-2s-3.546,0.72-4.826,2l-19.313,19.313
			c-1.28,1.28-2,3.014-2,4.826s0.72,3.546,2,4.826l48.273,48.266c1.333,1.333,3.081,2,4.826,2s3.492-0.667,4.826-2l19.306-19.306
			C309.007,284.37,309.007,280.049,306.342,277.383z M282.209,291.863l-38.62-38.613l9.66-9.66l38.613,38.62L282.209,291.863z"/>
	</g>
</g>
<g>
	<g>
		<path d="M402.063,363.442l-76.407-76.407c-10.646-10.646-27.96-10.66-38.62,0c-10.646,10.646-10.646,27.974,0,38.62l76.407,76.407
			c5.327,5.32,12.319,7.98,19.306,7.98c6.992,0,13.986-2.661,19.314-7.98C412.703,391.416,412.703,374.088,402.063,363.442z
			 M392.409,392.409c-5.327,5.313-13.986,5.326-19.313,0l-76.407-76.407c-2.581-2.579-4-6.006-4-9.653c0-3.652,1.42-7.079,4-9.66
			c2.58-2.581,6.006-4,9.66-4c3.647,0,7.074,1.42,9.653,4l76.407,76.407C397.728,378.423,397.728,387.083,392.409,392.409z"/>
	</g>
</g>
<g>
	<g>
		<path d="M219.868,97.576c-14.766-14.759-45.607-30.814-70.054-14.507c-18.239,12.16-36.746,12.5-37.187,12.506h-6.813
			c-1.48,0-2.913,0.48-4.093,1.367c-11.607,8.706-26.588,18.473-30.041,19.113c-13.02,0-13.653,19.732-13.653,54.613
			c0,25.167,17.633,34.133,34.133,34.133c7.6,0,14.513-3.106,21.827-6.393c7.939-3.574,16.147-7.26,25.96-7.26
			c6.448,0,12.901,0.713,19.727,1.473c14.16,1.567,28.793,3.2,43.873-1.826c13.546-4.512,19.806-23.132,22.327-33.833
			C230.941,135.503,230.508,108.215,219.868,97.576z M212.588,153.829c-3.046,12.899-8.286,22.327-13.36,24.02
			c-12.22,4.06-24.76,2.673-38.047,1.207c-6.893-0.766-14.025-1.56-21.233-1.56c-12.74,0-22.733,4.494-31.553,8.46
			c-6.207,2.787-11.561,5.193-16.234,5.193c-9.341,0-20.48-3.553-20.48-20.48c0-11.552,0-34.886,2.56-41.307
			c8.006-1.927,22.193-11.5,33.838-20.133h4.56c0.92,0,22.801-0.167,44.747-14.8c17.5-11.667,41.687,1.667,52.826,12.8
			C215.322,112.337,217.421,133.349,212.588,153.829z"/>
	</g>
</g>
<g>
	<g>
		<path d="M180.908,102.402c-15.06,0-27.307,12.247-27.307,27.307s12.247,27.307,27.307,27.307s27.307-12.247,27.307-27.307
			S195.968,102.402,180.908,102.402z M180.908,143.362c-7.526,0-13.653-6.127-13.653-13.653s6.127-13.653,13.653-13.653
			c7.526,0,13.653,6.127,13.653,13.653S188.435,143.362,180.908,143.362z"/>
	</g>
</g>
<g>
</g>
<g>
</g>
<g>
</g>
<g>
</g>
<g>
</g>
<g>
</g>
<g>
</g>
<g>
</g>
<g>
</g>
<g>
</g>
<g>
</g>
<g>
</g>
<g>
</g>
<g>
</g>
<g>
</g>
</svg>
