<?xml version="1.0" encoding="iso-8859-1"?>
<!-- Generator: Adobe Illustrator 19.0.0, SVG Export Plug-In . SVG Version: 6.00 Build 0)  -->
<svg version="1.1" id="Capa_1" xmlns="http://www.w3.org/2000/svg" xmlns:xlink="http://www.w3.org/1999/xlink" x="0px" y="0px"
	 viewBox="0 0 410.043 410.043" style="enable-background:new 0 0 410.043 410.043;" xml:space="preserve">
<g>
	<g>
		<path d="M247.608,42.488C220.215,15.087,183.794,0,145.048,0S69.881,15.087,42.487,42.488C15.087,69.882,0,106.302,0,145.048
			c0,38.746,15.087,75.167,42.487,102.56c27.394,27.401,63.814,42.487,102.56,42.487c38.746,0,75.167-15.087,102.56-42.487
			c27.401-27.394,42.487-63.814,42.487-102.56S275.009,69.882,247.608,42.488z M237.955,237.958
			c-24.815,24.82-57.807,38.487-92.908,38.487s-68.094-13.667-92.908-38.487c-24.82-24.815-38.487-57.806-38.487-92.908
			c0-35.101,13.667-68.094,38.487-92.907c24.815-24.82,57.808-38.487,92.908-38.487c35.101,0,68.094,13.667,92.908,38.487
			c24.82,24.815,38.487,57.806,38.487,92.907C276.442,180.151,262.775,213.144,237.955,237.958z"/>
	</g>
</g>
<g>
	<g>
		<path d="M254.362,126.249c-3.881-22.682-14.561-43.302-30.887-59.628c-43.24-43.24-113.613-43.24-156.853,0
			c-16.959,16.961-27.779,38.427-31.287,62.087c-0.553,3.727,2.019,7.2,5.753,7.753c0.34,0.046,0.674,0.073,1.007,0.073
			c3.326,0,6.246-2.434,6.746-5.827c3.074-20.734,12.559-39.561,27.433-54.434c18.367-18.365,42.793-28.486,68.773-28.486
			c25.981,0,50.406,10.119,68.774,28.486c14.314,14.321,23.68,32.394,27.086,52.28c0.633,3.721,4.113,6.248,7.88,5.574
			C252.501,133.496,255.002,129.97,254.362,126.249z"/>
	</g>
</g>
<g>
	<g>
		<path d="M247.602,164.141c-3.659-0.913-7.373,1.275-8.3,4.941c-4.28,16.881-13.094,32.353-25.481,44.74
			c-37.92,37.92-99.627,37.92-137.547,0c-13.786-13.793-23.026-31.16-26.713-50.227c-0.713-3.707-4.321-6.173-7.994-5.407
			c-3.707,0.713-6.127,4.294-5.407,7.994c4.2,21.76,14.734,41.566,30.461,57.293c21.62,21.62,50.026,32.434,78.426,32.434
			c28.401,0,56.808-10.813,78.428-32.435c14.126-14.126,24.173-31.773,29.066-51.033
			C253.469,168.788,251.256,165.074,247.602,164.141z"/>
	</g>
</g>
<g>
	<g>
		<path d="M306.342,277.383l-48.266-48.273c-1.28-1.28-3.014-2-4.826-2s-3.546,0.72-4.826,2l-19.313,19.313
			c-1.28,1.28-2,3.014-2,4.826s0.72,3.546,2,4.826l48.273,48.266c1.333,1.333,3.081,2,4.826,2s3.492-0.667,4.826-2l19.306-19.306
			C309.007,284.37,309.007,280.049,306.342,277.383z M282.209,291.863l-38.62-38.613l9.66-9.66l38.613,38.62L282.209,291.863z"/>
	</g>
</g>
<g>
	<g>
		<path d="M402.063,363.442l-76.407-76.407c-10.646-10.646-27.96-10.66-38.62,0c-10.646,10.646-10.646,27.974,0,38.62l76.407,76.407
			c5.327,5.32,12.319,7.98,19.306,7.98c6.992,0,13.986-2.661,19.314-7.98C412.703,391.416,412.703,374.088,402.063,363.442z
			 M392.409,392.409c-5.327,5.313-13.986,5.326-19.313,0l-76.407-76.407c-2.581-2.579-4-6.006-4-9.653c0-3.652,1.42-7.079,4-9.66
			c2.58-2.581,6.006-4,9.66-4c3.647,0,7.074,1.42,9.653,4l76.407,76.407C397.728,378.423,397.728,387.083,392.409,392.409z"/>
	</g>
</g>
<g>
	<g>
		<path d="M259.417,116.648c-2.106-1.213-4.721-1.213-6.827,0l-28.247,16.314c-20.335-24.967-56.854-40.247-97.101-40.247
			c-45.959,0-86.985,20.04-104.513,51.06c-1.174,2.087-1.174,4.634,0,6.721c17.533,31.014,58.552,51.053,104.513,51.053
			c38.627,0,74.412-14.426,95.107-38.001l30.24,17.459c2.106,1.213,4.721,1.213,6.827,0c2.113-1.22,3.413-3.473,3.413-5.914v-52.533
			C262.83,120.121,261.53,117.868,259.417,116.648z M215.287,150.622c-17.367,22.994-51.106,37.274-88.047,37.274
			c-38.746,0-74.499-16.234-90.573-40.76c16.073-24.526,51.828-40.767,90.575-40.765c37.893,0,73.086,15.474,89.667,39.414
			c0.686,0.986,1.586,1.739,2.599,2.239C217.875,148.322,216.354,149.209,215.287,150.622z M249.175,163.269l-25.027-14.447
			c-0.133-0.073-0.259-0.147-0.393-0.213c0.746-0.133,1.487-0.399,2.179-0.8l23.24-13.419V163.269z"/>
	</g>
</g>
<g>
</g>
<g>
</g>
<g>
</g>
<g>
</g>
<g>
</g>
<g>
</g>
<g>
</g>
<g>
</g>
<g>
</g>
<g>
</g>
<g>
</g>
<g>
</g>
<g>
</g>
<g>
</g>
<g>
</g>
</svg>
