<?xml version="1.0" encoding="iso-8859-1"?>
<!-- Generator: Adobe Illustrator 19.0.0, SVG Export Plug-In . SVG Version: 6.00 Build 0)  -->
<svg version="1.1" id="Capa_1" xmlns="http://www.w3.org/2000/svg" xmlns:xlink="http://www.w3.org/1999/xlink" x="0px" y="0px"
	 viewBox="0 0 410.043 410.043" style="enable-background:new 0 0 410.043 410.043;" xml:space="preserve">
<g>
	<g>
		<path d="M247.608,42.488C220.215,15.087,183.794,0,145.048,0S69.881,15.087,42.487,42.488C15.087,69.882,0,106.302,0,145.048
			c0,38.746,15.087,75.167,42.487,102.56c27.394,27.401,63.814,42.487,102.56,42.487c38.746,0,75.167-15.087,102.56-42.487
			c27.401-27.394,42.487-63.814,42.487-102.56S275.009,69.882,247.608,42.488z M237.955,237.958
			c-24.815,24.82-57.807,38.487-92.908,38.487s-68.094-13.667-92.908-38.487c-24.82-24.815-38.487-57.806-38.487-92.908
			c0-35.101,13.667-68.094,38.487-92.907c24.815-24.82,57.808-38.487,92.908-38.487c35.101,0,68.094,13.667,92.908,38.487
			c24.82,24.815,38.487,57.806,38.487,92.907C276.442,180.151,262.775,213.144,237.955,237.958z"/>
	</g>
</g>
<g>
	<g>
		<path d="M223.474,66.622c-43.24-43.24-113.613-43.24-156.853,0c-43.247,43.247-43.247,113.606,0,156.853
			c21.62,21.62,50.026,32.434,78.426,32.434c28.401,0,56.808-10.813,78.426-32.434C266.721,180.228,266.721,109.869,223.474,66.622z
			 M213.821,213.822c-18.367,18.365-42.793,28.486-68.774,28.486s-50.408-10.119-68.773-28.486
			c-18.365-18.367-28.486-42.793-28.486-68.774S57.907,94.64,76.274,76.275c18.367-18.365,42.793-28.486,68.774-28.486
			c25.981,0,50.408,10.119,68.773,28.486c18.365,18.367,28.486,42.793,28.486,68.773
			C242.307,171.029,232.189,195.456,213.821,213.822z"/>
	</g>
</g>
<g>
	<g>
		<path d="M306.342,277.383l-48.266-48.273c-1.28-1.28-3.014-2-4.826-2s-3.546,0.72-4.826,2l-19.313,19.313
			c-1.28,1.28-2,3.014-2,4.826s0.72,3.546,2,4.826l48.273,48.266c1.333,1.333,3.081,2,4.826,2s3.492-0.667,4.826-2l19.306-19.306
			C309.007,284.37,309.007,280.049,306.342,277.383z M282.209,291.863l-38.62-38.613l9.66-9.66l38.613,38.62L282.209,291.863z"/>
	</g>
</g>
<g>
	<g>
		<path d="M402.063,363.442l-76.407-76.407c-10.653-10.646-27.967-10.66-38.62,0c-10.646,10.646-10.646,27.974,0,38.62
			l76.407,76.407c5.327,5.32,12.319,7.98,19.306,7.98c6.992,0,13.986-2.661,19.314-7.98
			C412.703,391.416,412.703,374.088,402.063,363.442z M392.409,392.409c-5.327,5.313-13.986,5.326-19.313,0l-76.407-76.407
			c-2.581-2.579-4-6.006-4-9.653c0-3.652,1.42-7.079,4-9.66c2.58-2.581,6.006-4,9.66-4c3.647,0,7.074,1.42,9.653,4l76.407,76.407
			C397.728,378.423,397.728,387.083,392.409,392.409z"/>
	</g>
</g>
<g>
	<g>
		<path d="M220.503,98.311c-18.161-24.221-54.827-33.894-70.68-28.621c-6.18,2.06-9.873,6.634-9.873,12.233
			c0,2.2,0.16,4.727,0.34,7.494c0.92,14.013,2.067,31.452-17.046,41.013c-11.754,5.88-19.854,2.606-28.407-0.867
			c-8.187-3.306-18.381-7.439-27.981,2.147c-16.94,16.94-1.927,47.546-1.28,48.84c0.408,0.812,0.974,1.539,1.667,2.127
			c4.953,4.253,48.826,41.713,62.826,48.713c6.04,3.019,14.706,4.799,23.446,4.799c8.52,0,17.115-1.693,23.409-5.586
			c6.973-4.306,10.813-11.046,10.813-18.973c0-9.912,9.313-18.714,18.319-27.226c6.18-5.833,12.013-11.348,15.094-17.507l1.7-3.319
			C229.984,149.844,241.917,126.859,220.503,98.311z M210.736,157.283l-1.801,3.507c-2,3.999-6.98,8.706-12.254,13.693
			c-10.073,9.515-22.6,21.347-22.6,37.147c0,3.239-1.34,5.506-4.333,7.359c-8.187,5.059-25.293,4.333-33.574,0.186
			c-10.3-5.146-45.013-34.019-58.953-45.92c-3.14-6.955-8.527-24.081-0.713-31.894c2.76-2.767,4.48-2.673,13.199,0.853
			c9.441,3.82,22.361,9.066,39.641,0.427c27.228-13.614,25.561-38.973,24.567-54.12c-0.133-2.067-0.266-3.98-0.3-5.693
			c1.294-0.572,4.78-1.353,11.16-0.606c14.027,1.626,34.034,9.914,44.807,24.274C225.843,128.183,217.469,144.316,210.736,157.283z"
			/>
	</g>
</g>
<g>
	<g>
		<path d="M180.908,102.402c-15.06,0-27.307,12.247-27.307,27.307s12.247,27.307,27.307,27.307s27.307-12.247,27.307-27.307
			S195.968,102.402,180.908,102.402z M180.908,143.362c-7.526,0-13.653-6.127-13.653-13.653s6.127-13.653,13.653-13.653
			c7.526,0,13.653,6.127,13.653,13.653S188.435,143.362,180.908,143.362z"/>
	</g>
</g>
<g>
</g>
<g>
</g>
<g>
</g>
<g>
</g>
<g>
</g>
<g>
</g>
<g>
</g>
<g>
</g>
<g>
</g>
<g>
</g>
<g>
</g>
<g>
</g>
<g>
</g>
<g>
</g>
<g>
</g>
</svg>
