<?xml version="1.0" encoding="iso-8859-1"?>
<!-- Generator: Adobe Illustrator 19.0.0, SVG Export Plug-In . SVG Version: 6.00 Build 0)  -->
<svg version="1.1" id="Capa_1" xmlns="http://www.w3.org/2000/svg" xmlns:xlink="http://www.w3.org/1999/xlink" x="0px" y="0px"
	 viewBox="0 0 436.907 436.907" style="enable-background:new 0 0 436.907 436.907;" xml:space="preserve">
<g>
	<g>
		<path d="M412.877,208.213H24.03c-13.251,0-24.03,10.779-24.03,24.03V378.88c0,3.77,3.057,6.827,6.827,6.827H430.08
			c3.77,0,6.827-3.057,6.827-6.827V232.243C436.907,218.993,426.127,208.213,412.877,208.213z M423.253,372.053h-409.6v-139.81
			c0-5.722,4.652-10.377,10.377-10.377h388.847c5.722,0,10.376,4.652,10.376,10.377V372.053z"/>
	</g>
</g>
<g>
	<g>
		<path d="M136.533,180.907H47.787c-3.77,0-6.827,3.057-6.827,6.827v27.307c0,3.77,3.057,6.827,6.827,6.827h88.747
			c3.77,0,6.827-3.057,6.827-6.827v-27.307C143.36,183.963,140.303,180.907,136.533,180.907z M129.707,208.213H54.613V194.56h75.093
			V208.213z"/>
	</g>
</g>
<g>
	<g>
		<path d="M389.12,180.907h-88.747c-3.77,0-6.827,3.057-6.827,6.827v27.307c0,3.77,3.057,6.827,6.827,6.827h88.747
			c3.77,0,6.827-3.057,6.827-6.827v-27.307C395.947,183.963,392.89,180.907,389.12,180.907z M382.293,208.213H307.2V194.56h75.093
			V208.213z"/>
	</g>
</g>
<g>
	<g>
		<path d="M352.085,182.021L240.292,58.354c-2.522-2.799-6.845-3.012-9.639-0.486c-2.797,2.526-3.016,6.842-0.486,9.639
			L341.96,191.174c1.347,1.493,3.203,2.249,5.067,2.249c1.63,0,3.27-0.584,4.572-1.763
			C354.396,189.135,354.615,184.818,352.085,182.021z"/>
	</g>
</g>
<g>
	<g>
		<path d="M203.563,60.844c-2.792-2.528-7.113-2.318-9.639,0.486L84.82,182.021c-2.531,2.796-2.311,7.113,0.486,9.639
			c1.304,1.179,2.944,1.763,4.574,1.763c1.864,0,3.721-0.756,5.065-2.249l109.104-120.69C206.58,67.688,206.36,63.37,203.563,60.844
			z"/>
	</g>
</g>
<g>
	<g>
		<path d="M218.453,23.893c-15.056,0-27.307,12.25-27.307,27.307s12.25,27.307,27.307,27.307S245.76,66.256,245.76,51.2
			S233.51,23.893,218.453,23.893z M218.453,64.853c-7.53,0-13.653-6.124-13.653-13.653c0-7.53,6.124-13.653,13.653-13.653
			c7.53,0,13.653,6.124,13.653,13.653C232.107,58.73,225.983,64.853,218.453,64.853z"/>
	</g>
</g>
<g>
	<g>
		<path d="M430.08,372.053H6.827c-3.77,0-6.827,3.057-6.827,6.827v27.307c0,3.77,3.057,6.827,6.827,6.827H430.08
			c3.77,0,6.827-3.057,6.827-6.827V378.88C436.907,375.11,433.85,372.053,430.08,372.053z M423.253,399.36h-409.6v-13.653h409.6
			V399.36z"/>
	</g>
</g>
<g>
	<g>
		<path d="M169.651,277.567c-0.734-1.801-1.666-3.301-2.801-4.5s-2.401-2.14-3.801-2.819s-2.753-1.193-4.06-1.539
			c-1.307-0.346-2.493-0.56-3.56-0.64c-1.067-0.08-1.853-0.12-2.36-0.12h-1.36c-0.507,0-1.294,0.039-2.36,0.12
			c-1.067,0.08-2.26,0.294-3.581,0.64c-1.321,0.346-2.681,0.86-4.081,1.539s-2.679,1.62-3.84,2.819c-1.161,1.2-2.115,2.7-2.86,4.5
			c-0.746,1.801-1.12,3.98-1.12,6.54v23.921c0,2.64,0.372,4.881,1.12,6.721c0.748,1.84,1.7,3.372,2.86,4.599
			c1.161,1.227,2.439,2.193,3.84,2.9c1.401,0.707,2.76,1.234,4.081,1.58c1.321,0.346,2.514,0.56,3.581,0.64
			c1.067,0.08,1.853,0.119,2.36,0.119h1.36c0.507,0,1.294-0.039,2.36-0.119c1.067-0.08,2.253-0.294,3.56-0.64s2.659-0.874,4.06-1.58
			c1.401-0.707,2.667-1.674,3.801-2.9c1.133-1.225,2.067-2.758,2.801-4.599c0.734-1.842,1.101-4.081,1.101-6.721v-23.921
			C170.752,281.547,170.385,279.368,169.651,277.567z M157.626,309.547c-0.079,0.986-0.305,1.852-0.679,2.599
			c-0.346,0.667-0.867,1.266-1.56,1.801c-0.693,0.534-1.679,0.8-2.959,0.8c-1.307,0-2.314-0.266-3.021-0.8
			c-0.707-0.534-1.234-1.133-1.58-1.801c-0.399-0.746-0.626-1.613-0.679-2.599v-26.08c0.053-0.959,0.28-1.826,0.679-2.599
			c0.346-0.64,0.872-1.234,1.58-1.78s1.713-0.819,3.021-0.819c1.28,0,2.266,0.273,2.959,0.819c0.693,0.546,1.213,1.14,1.56,1.78
			c0.372,0.773,0.599,1.64,0.679,2.599V309.547z"/>
	</g>
</g>
<g>
	<g>
		<path d="M216.707,279.407c-0.507-1.587-1.181-2.959-2.021-4.12c-0.84-1.161-1.787-2.14-2.84-2.941c-1.053-0.8-2.14-1.468-3.26-2
			c-2.613-1.227-5.572-1.92-8.88-2.08h-13.199c-1.493,0-2.645,0.259-3.459,0.78c-0.814,0.521-1.406,1.207-1.78,2.06
			s-0.594,1.826-0.66,2.92c-0.067,1.094-0.101,2.214-0.101,3.36v37.76c0,1.147,0.034,2.266,0.101,3.36
			c0.067,1.094,0.287,2.067,0.66,2.92c0.374,0.853,0.968,1.539,1.78,2.06c0.812,0.521,1.966,0.78,3.459,0.78
			c1.546,0,2.734-0.259,3.56-0.78c0.826-0.521,1.434-1.207,1.819-2.06c0.386-0.853,0.613-1.826,0.679-2.92
			c0.067-1.094,0.101-2.214,0.101-3.36v-12.957h5.12c3.067,0,5.82-0.367,8.26-1.101c2.441-0.734,4.507-1.826,6.2-3.28
			s2.987-3.253,3.879-5.4c0.893-2.147,1.34-4.647,1.34-7.501C217.467,282.827,217.214,280.994,216.707,279.407z M205.005,287.466
			c-0.2,0.747-0.473,1.393-0.819,1.94s-0.734,1.007-1.161,1.381c-0.427,0.374-0.865,0.679-1.319,0.92
			c-1.067,0.56-2.266,0.879-3.599,0.959v0h-5.443v-14.961h5.84c1.253,0.106,2.386,0.413,3.4,0.92
			c0.427,0.241,0.84,0.534,1.241,0.881c0.401,0.346,0.761,0.766,1.08,1.26s0.58,1.079,0.78,1.76s0.3,1.475,0.3,2.381
			C205.305,285.865,205.204,286.718,205.005,287.466z"/>
	</g>
</g>
<g>
	<g>
		<path d="M251.585,313.685c-0.879-0.36-1.867-0.58-2.959-0.66c-1.092-0.08-2.173-0.12-3.239-0.12h-9.52v-11.52h5.04
			c1.067,0,2.14-0.034,3.22-0.101c1.08-0.067,2.041-0.28,2.881-0.64c0.84-0.36,1.527-0.899,2.06-1.62
			c0.534-0.72,0.8-1.748,0.8-3.081c0-1.307-0.268-2.326-0.8-3.06c-0.532-0.734-1.219-1.28-2.06-1.64s-1.801-0.573-2.881-0.64
			c-1.08-0.067-2.154-0.101-3.22-0.101h-5.04v-10.88h9.52c1.067,0,2.147-0.041,3.239-0.12c1.092-0.078,2.079-0.305,2.959-0.679
			c0.881-0.374,1.601-0.94,2.161-1.7c0.56-0.759,0.84-1.819,0.84-3.18s-0.28-2.42-0.84-3.18c-0.56-0.759-1.282-1.328-2.161-1.7
			c-0.879-0.372-1.867-0.599-2.959-0.679c-1.092-0.08-2.173-0.119-3.239-0.119v-0.005h-15.681c-1.493,0-2.645,0.268-3.459,0.8
			s-1.406,1.232-1.78,2.099c-0.374,0.867-0.594,1.847-0.66,2.941c-0.067,1.094-0.101,2.214-0.101,3.36v37.6
			c0,1.147,0.034,2.266,0.101,3.36c0.067,1.094,0.287,2.075,0.66,2.941c0.374,0.865,0.968,1.565,1.78,2.099
			c0.812,0.534,1.966,0.8,3.459,0.8h15.681c1.039,0,2.108-0.041,3.2-0.119c1.092-0.078,2.08-0.305,2.959-0.679
			c0.879-0.374,1.606-0.947,2.179-1.72c0.573-0.773,0.86-1.853,0.86-3.239c0-1.333-0.28-2.381-0.84-3.14
			S252.464,314.046,251.585,313.685z"/>
	</g>
</g>
<g>
	<g>
		<path d="M306.266,272.087c-0.106-0.76-0.36-1.42-0.759-1.98c-0.399-0.56-0.993-1.007-1.78-1.34c-0.787-0.333-1.86-0.5-3.22-0.5
			c-1.227,0-2.191,0.167-2.9,0.5c-0.708,0.333-1.241,0.78-1.601,1.34c-0.36,0.56-0.592,1.22-0.7,1.98s-0.16,1.567-0.16,2.42v33.2
			h-0.959l-12.72-34.481c-0.346-0.934-0.812-1.76-1.399-2.48c-0.532-0.613-1.22-1.179-2.06-1.7c-0.84-0.521-1.927-0.78-3.26-0.78
			h-5.28c-1.493,0-2.645,0.259-3.459,0.78s-1.406,1.215-1.78,2.08c-0.374,0.865-0.594,1.853-0.66,2.959
			c-0.067,1.106-0.101,2.232-0.101,3.379v40.561c0,0.853,0.055,1.661,0.16,2.42c0.106,0.76,0.358,1.42,0.76,1.98
			c0.401,0.56,1,1.007,1.8,1.34c0.8,0.333,1.894,0.5,3.28,0.5c1.227,0,2.191-0.167,2.9-0.5c0.708-0.333,1.241-0.78,1.601-1.34
			c0.36-0.56,0.592-1.22,0.7-1.98s0.16-1.567,0.16-2.42v-33.2h0.959l12.08,32.72c0.186,0.532,0.447,1.186,0.78,1.959
			c0.333,0.773,0.78,1.514,1.34,2.22s1.26,1.307,2.099,1.801s1.888,0.741,3.14,0.741h5.28c1.468,0,2.608-0.258,3.42-0.778
			c0.812-0.521,1.399-1.213,1.76-2.08s0.573-1.848,0.64-2.941c0.067-1.092,0.101-2.226,0.101-3.4v-40.561
			C306.427,273.654,306.372,272.847,306.266,272.087z"/>
	</g>
</g>
<g>
</g>
<g>
</g>
<g>
</g>
<g>
</g>
<g>
</g>
<g>
</g>
<g>
</g>
<g>
</g>
<g>
</g>
<g>
</g>
<g>
</g>
<g>
</g>
<g>
</g>
<g>
</g>
<g>
</g>
</svg>
