<?xml version="1.0" encoding="iso-8859-1"?>
<!-- Generator: Adobe Illustrator 19.0.0, SVG Export Plug-In . SVG Version: 6.00 Build 0)  -->
<svg version="1.1" id="Capa_1" xmlns="http://www.w3.org/2000/svg" xmlns:xlink="http://www.w3.org/1999/xlink" x="0px" y="0px"
	 viewBox="0 0 409.6 409.6" style="enable-background:new 0 0 409.6 409.6;" xml:space="preserve">
<g>
	<g>
		<path d="M319.991,165.635c-2.214-6.687-7.018-12-13.891-15.367c-9.02-4.434-21.61-1.76-36.2,1.333
			c-25.539,5.414-54.492,11.554-71.506-16.473c-11.87-19.56-7.615-35.941-1.956-46.227c11.558-21.014,36.891-33.934,54.711-34.287
			c3.767-0.073,6.763-3.193,6.69-6.96c-0.077-3.727-3.116-6.694-6.823-6.694c-0.046,0-0.094,0-0.14,0
			c-25.163,0.5-53.709,18.28-66.4,41.359c-7.393,13.447-13.008,34.753,2.246,59.887c22.033,36.313,59.02,28.472,86.013,22.746
			c11.09-2.354,22.554-4.774,27.36-2.434c3.587,1.76,5.854,4.173,6.924,7.366c2.246,6.712-1.094,15.759-2.574,18.679
			c-1.712,3.354-0.396,7.46,2.951,9.18c1,0.519,2.07,0.759,3.12,0.759c2.478,0,4.864-1.347,6.076-3.697
			C317.404,193.229,324.412,178.988,319.991,165.635z"/>
	</g>
</g>
<g>
	<g>
		<path d="M306.533,147.693c-2.214-6.687-7.018-12-13.887-15.367c-9.199-4.533-23.279-1.08-41.093,3.26
			c-29.31,7.148-65.783,16.041-82.616-11.699c-14.447-23.806,5.664-40.346,12.17-44.853c19.389-13.433,49.76-15.899,64.993,3.514
			c2.33,2.973,6.62,3.487,9.583,1.161c2.968-2.333,3.483-6.62,1.157-9.586c-20.41-26.013-58.491-23.627-83.504-6.313
			c-23.277,16.107-29.583,40.9-16.073,63.16c22.031,36.306,65.667,25.646,97.524,17.886c12.696-3.099,27.083-6.593,31.85-4.273
			c3.587,1.76,5.854,4.173,6.924,7.366c2.246,6.712-1.094,15.759-2.574,18.679c-1.712,3.354-0.396,7.46,2.951,9.18
			c1,0.519,2.07,0.759,3.12,0.759c2.476,0,4.862-1.347,6.076-3.7C303.945,175.287,310.953,161.046,306.533,147.693z"/>
	</g>
</g>
<g>
	<g>
		<path d="M129.707,218.453h-81.92c-3.77,0-6.827,3.053-6.827,6.827v40.96c0,3.773,3.057,6.827,6.827,6.827h81.92
			c3.77,0,6.827-3.053,6.827-6.827v-40.96C136.533,221.507,133.477,218.453,129.707,218.453z M122.88,259.413H54.613v-27.307h68.267
			V259.413z"/>
	</g>
</g>
<g>
	<g>
		<path d="M157.013,218.453h-27.307c-3.77,0-6.827,3.053-6.827,6.827v40.96c0,3.773,3.057,6.827,6.827,6.827h27.307
			c3.77,0,6.827-3.053,6.827-6.827v-40.96C163.84,221.507,160.783,218.453,157.013,218.453z M150.187,259.413h-13.653v-27.307
			h13.653V259.413z"/>
	</g>
</g>
<g>
	<g>
		<path d="M354.987,218.453H327.68c-3.77,0-6.827,3.053-6.827,6.827v40.96c0,3.773,3.057,6.827,6.827,6.827h27.307
			c3.77,0,6.827-3.053,6.827-6.827v-40.96C361.813,221.507,358.757,218.453,354.987,218.453z M348.16,259.413h-13.653v-27.307
			h13.653V259.413z"/>
	</g>
</g>
<g>
	<g>
		<path d="M327.68,218.453H157.013c-3.77,0-6.827,3.053-6.827,6.827v40.96c0,3.773,3.057,6.827,6.827,6.827H327.68
			c3.77,0,6.827-3.053,6.827-6.827v-40.96C334.507,221.507,331.45,218.453,327.68,218.453z M320.853,259.413H163.84v-27.307h157.013
			V259.413z"/>
	</g>
</g>
<g>
	<g>
		<path d="M204.8,0C91.873,0,0,91.873,0,204.8s91.873,204.8,204.8,204.8s204.8-91.873,204.8-204.8S317.727,0,204.8,0z
			 M204.8,395.947C99.4,395.947,13.653,310.2,13.653,204.8S99.4,13.653,204.8,13.653S395.947,99.4,395.947,204.8
			S310.2,395.947,204.8,395.947z"/>
	</g>
</g>
<g>
	<g>
		<path d="M346.16,56.614c-2.666-2.666-6.987-2.666-9.653,0L56.614,336.507c-2.666,2.666-2.666,6.987,0,9.653
			c1.333,1.333,3.081,2,4.826,2s3.494-0.667,4.826-2L346.16,66.266C348.826,63.601,348.826,59.279,346.16,56.614z"/>
	</g>
</g>
<g>
</g>
<g>
</g>
<g>
</g>
<g>
</g>
<g>
</g>
<g>
</g>
<g>
</g>
<g>
</g>
<g>
</g>
<g>
</g>
<g>
</g>
<g>
</g>
<g>
</g>
<g>
</g>
<g>
</g>
</svg>
