<?xml version="1.0" encoding="iso-8859-1"?>
<!-- Generator: Adobe Illustrator 19.0.0, SVG Export Plug-In . SVG Version: 6.00 Build 0)  -->
<svg version="1.1" id="Capa_1" xmlns="http://www.w3.org/2000/svg" xmlns:xlink="http://www.w3.org/1999/xlink" x="0px" y="0px"
	 viewBox="0 0 409.6 409.6" style="enable-background:new 0 0 409.6 409.6;" xml:space="preserve">
<g>
	<g>
		<path d="M242.953,74.093l-5.067-34.133c-0.497-3.347-3.371-5.827-6.753-5.827h-45.583c-3.383,0-6.257,2.48-6.753,5.827
			l-5.064,34.133c-0.29,1.959,0.287,3.953,1.584,5.46c1.295,1.5,3.183,2.367,5.169,2.367h55.714c1.987,0,3.874-0.867,5.169-2.367
			C242.666,78.046,243.243,76.052,242.953,74.093z M188.401,68.267l3.04-20.48h33.807l3.04,20.48H188.401z"/>
	</g>
</g>
<g>
	<g>
		<path d="M263.477,315.356l-1.679-3.787c-3.924-8.859-5.516-24.426-3.483-33.987l7.641-35.913c0.101-0.466,0.15-0.94,0.15-1.42
			v-91.167c0-1.246-0.343-2.473-0.99-3.54l-16.317-26.88c-2.504-4.113-5.48-11.607-6.47-16.2l-5.513-28.66
			c-0.618-3.22-3.43-5.54-6.704-5.54h-43.527c-3.297,0-6.124,2.36-6.717,5.6l-5.204,28.52c-0.968,4.721-3.881,12.121-6.364,16.16
			L151.75,145.51c-0.661,1.08-1.01,2.314-1.01,3.574v91.167c0,0.488,0.053,0.975,0.157,1.447l7.793,35.913
			c2.07,9.554,0.473,25.086-3.487,33.934l-1.693,3.787c-5.69,12.708-2.517,30.268,7.223,39.987l7.834,7.813
			c3.207,3.195,8.747,5.507,13.174,5.507h53.217c4.494,0,9.894-2.239,13.135-5.444l8.016-7.933
			C265.87,345.59,269.107,328.062,263.477,315.356z M246.499,345.563l-8.016,7.933c-0.696,0.693-2.729,1.493-3.526,1.493H181.74
			c-0.797-0.007-2.836-0.828-3.54-1.527l-7.823-7.806c-5.803-5.787-7.82-17.113-4.403-24.74l1.693-3.794
			c5.123-11.44,7.04-30.066,4.364-42.4l-7.637-35.2v-88.506l15.539-25.32c3.277-5.333,6.837-14.367,8.134-20.714l4.21-23.06h32.196
			l4.478,23.269c1.35,6.274,4.864,15.121,8.173,20.567l15.326,25.247v88.533l-7.491,35.214c-2.62,12.312-0.71,30.92,4.35,42.353
			l1.683,3.794C254.309,328.383,252.209,339.91,246.499,345.563z"/>
	</g>
</g>
<g>
	<g>
		<path d="M259.413,143.36H157.273c-3.77,0-6.827,3.053-6.827,6.827v88.747c0,3.773,3.057,6.827,6.827,6.827h102.141
			c3.77,0,6.827-3.053,6.827-6.827v-88.747C266.24,146.413,263.183,143.36,259.413,143.36z M252.587,232.107h-88.487v-75.093h88.487
			V232.107z"/>
	</g>
</g>
<g>
	<g>
		<path d="M204.8,0C91.873,0,0,91.873,0,204.8s91.873,204.8,204.8,204.8s204.8-91.873,204.8-204.8S317.727,0,204.8,0z
			 M204.8,395.947C99.4,395.947,13.653,310.2,13.653,204.8S99.4,13.653,204.8,13.653S395.947,99.4,395.947,204.8
			S310.2,395.947,204.8,395.947z"/>
	</g>
</g>
<g>
	<g>
		<path d="M346.16,56.614c-2.666-2.666-6.987-2.666-9.653,0L56.614,336.507c-2.666,2.666-2.666,6.987,0,9.653
			c1.333,1.333,3.081,2,4.826,2s3.494-0.667,4.826-2L346.16,66.266C348.826,63.601,348.826,59.279,346.16,56.614z"/>
	</g>
</g>
<g>
</g>
<g>
</g>
<g>
</g>
<g>
</g>
<g>
</g>
<g>
</g>
<g>
</g>
<g>
</g>
<g>
</g>
<g>
</g>
<g>
</g>
<g>
</g>
<g>
</g>
<g>
</g>
<g>
</g>
</svg>
