<?xml version="1.0" encoding="iso-8859-1"?>
<!-- Generator: Adobe Illustrator 19.0.0, SVG Export Plug-In . SVG Version: 6.00 Build 0)  -->
<svg version="1.1" id="Capa_1" xmlns="http://www.w3.org/2000/svg" xmlns:xlink="http://www.w3.org/1999/xlink" x="0px" y="0px"
	 viewBox="0 0 409.6 409.6" style="enable-background:new 0 0 409.6 409.6;" xml:space="preserve">
<g>
	<g>
		<path d="M204.8,259.413c-3.77,0-6.827,3.053-6.827,6.827v116.053c0,3.773,3.057,6.827,6.827,6.827s6.827-3.053,6.827-6.827V266.24
			C211.627,262.467,208.57,259.413,204.8,259.413z"/>
	</g>
</g>
<g>
	<g>
		<path d="M245.76,375.467h-81.92c-3.77,0-6.827,3.053-6.827,6.827s3.057,6.827,6.827,6.827h81.92c3.77,0,6.827-3.053,6.827-6.827
			S249.53,375.467,245.76,375.467z"/>
	</g>
</g>
<g>
	<g>
		<path d="M319.986,92.24c-1.207-2.154-3.487-3.494-5.96-3.494H95.573c-2.473,0-4.753,1.34-5.96,3.494
			c-1.207,2.161-1.15,4.808,0.147,6.914l109.227,177.493c1.242,2.019,3.442,3.246,5.813,3.246c2.371,0,4.57-1.227,5.813-3.246
			L319.84,99.154C321.137,97.046,321.193,94.401,319.986,92.24z M204.8,260.04L107.79,102.4H301.81L204.8,260.04z"/>
	</g>
</g>
<g>
	<g>
		<path d="M204.8,0C91.873,0,0,91.873,0,204.8s91.873,204.8,204.8,204.8s204.8-91.873,204.8-204.8S317.727,0,204.8,0z
			 M204.8,395.947C99.4,395.947,13.653,310.2,13.653,204.8S99.4,13.653,204.8,13.653S395.947,99.4,395.947,204.8
			S310.2,395.947,204.8,395.947z"/>
	</g>
</g>
<g>
	<g>
		<path d="M346.16,56.614c-2.666-2.666-6.987-2.666-9.653,0L56.614,336.507c-2.666,2.666-2.666,6.987,0,9.653
			c1.333,1.333,3.081,2,4.826,2s3.494-0.667,4.826-2L346.16,66.266C348.826,63.601,348.826,59.279,346.16,56.614z"/>
	</g>
</g>
<g>
	<g>
		<path d="M319.986,92.24c-1.207-2.154-3.487-3.494-5.96-3.494H95.573c-2.473,0-4.753,1.34-5.96,3.494
			c-1.207,2.161-1.15,4.808,0.147,6.914l46.21,75.093c1.242,2.019,3.442,3.246,5.813,3.246h126.034c2.369,0,4.57-1.227,5.813-3.246
			l46.21-75.093C321.137,97.046,321.193,94.401,319.986,92.24z M264.004,163.84H145.597L107.79,102.4H301.81L264.004,163.84z"/>
	</g>
</g>
<g>
	<g>
		<path d="M175.493,70.267L148.186,42.96c-2.666-2.666-6.987-2.666-9.653,0c-2.666,2.666-2.666,6.987,0,9.653L163.84,77.92v92.747
			c0,3.773,3.057,6.827,6.827,6.827c3.77,0,6.827-3.053,6.827-6.827V75.093C177.493,73.281,176.773,71.547,175.493,70.267z"/>
	</g>
</g>
<g>
</g>
<g>
</g>
<g>
</g>
<g>
</g>
<g>
</g>
<g>
</g>
<g>
</g>
<g>
</g>
<g>
</g>
<g>
</g>
<g>
</g>
<g>
</g>
<g>
</g>
<g>
</g>
<g>
</g>
</svg>
