<?xml version="1.0" encoding="iso-8859-1"?>
<!-- Generator: Adobe Illustrator 19.0.0, SVG Export Plug-In . SVG Version: 6.00 Build 0)  -->
<svg version="1.1" id="Capa_1" xmlns="http://www.w3.org/2000/svg" xmlns:xlink="http://www.w3.org/1999/xlink" x="0px" y="0px"
	 viewBox="0 0 409.6 409.6" style="enable-background:new 0 0 409.6 409.6;" xml:space="preserve">
<g>
	<g>
		<path d="M204.8,0C91.873,0,0,91.873,0,204.8s91.873,204.8,204.8,204.8s204.8-91.873,204.8-204.8S317.727,0,204.8,0z
			 M204.8,395.947C99.4,395.947,13.653,310.2,13.653,204.8S99.4,13.653,204.8,13.653S395.947,99.4,395.947,204.8
			S310.2,395.947,204.8,395.947z"/>
	</g>
</g>
<g>
	<g>
		<path d="M327.68,238.933H81.92c-3.77,0-6.827,3.053-6.827,6.827c0,26.348,21.437,47.787,47.787,47.787h163.84
			c26.349,0,47.787-21.439,47.787-47.787C334.507,241.987,331.45,238.933,327.68,238.933z M286.72,279.893H122.88
			c-16.485,0-30.278-11.747-33.447-27.307h230.734C316.996,268.146,303.203,279.893,286.72,279.893z"/>
	</g>
</g>
<g>
	<g>
		<path d="M327.68,197.973H81.92c-15.056,0-27.307,12.247-27.307,27.307c0,15.06,12.25,27.307,27.307,27.307h245.76
			c15.056,0,27.307-12.247,27.307-27.307C354.987,210.22,342.736,197.973,327.68,197.973z M327.68,238.933H81.92
			c-7.53,0-13.653-6.127-13.653-13.653c0-7.526,6.124-13.653,13.653-13.653h245.76c7.53,0,13.653,6.127,13.653,13.653
			C341.333,232.806,335.21,238.933,327.68,238.933z"/>
	</g>
</g>
<g>
	<g>
		<path d="M218.453,88.747h-27.307c-63.993,0-116.053,52.06-116.053,116.053c0,3.773,3.057,6.827,6.827,6.827h245.76
			c3.77,0,6.827-3.053,6.827-6.827C334.507,140.807,282.447,88.747,218.453,88.747z M88.974,197.973
			C92.5,144.679,136.977,102.4,191.147,102.4h27.307c54.17,0,98.647,42.279,102.173,95.573H88.974z"/>
	</g>
</g>
<g>
	<g>
		<rect x="136.533" y="129.707" width="13.653" height="13.653"/>
	</g>
</g>
<g>
	<g>
		<rect x="129.707" y="157.013" width="13.653" height="13.653"/>
	</g>
</g>
<g>
	<g>
		<rect x="211.627" y="122.88" width="13.653" height="13.653"/>
	</g>
</g>
<g>
	<g>
		<rect x="252.587" y="157.013" width="13.653" height="13.653"/>
	</g>
</g>
<g>
	<g>
		<rect x="191.147" y="163.84" width="13.653" height="13.653"/>
	</g>
</g>
<g>
	<g>
		<path d="M346.16,56.614c-2.666-2.666-6.987-2.666-9.653,0L56.614,336.507c-2.666,2.666-2.666,6.987,0,9.653
			c1.333,1.333,3.081,2,4.826,2s3.494-0.667,4.826-2L346.16,66.266C348.826,63.601,348.826,59.279,346.16,56.614z"/>
	</g>
</g>
<g>
</g>
<g>
</g>
<g>
</g>
<g>
</g>
<g>
</g>
<g>
</g>
<g>
</g>
<g>
</g>
<g>
</g>
<g>
</g>
<g>
</g>
<g>
</g>
<g>
</g>
<g>
</g>
<g>
</g>
</svg>
