<?xml version="1.0" encoding="iso-8859-1"?>
<!-- Generator: Adobe Illustrator 19.0.0, SVG Export Plug-In . SVG Version: 6.00 Build 0)  -->
<svg version="1.1" id="Capa_1" xmlns="http://www.w3.org/2000/svg" xmlns:xlink="http://www.w3.org/1999/xlink" x="0px" y="0px"
	 viewBox="0 0 414.143 414.143" style="enable-background:new 0 0 414.143 414.143;" xml:space="preserve">
<g>
	<g>
		<path d="M239.428,309.091l-11.199-173.6c-0.241-3.76-3.494-6.6-7.253-6.373c-3.76,0.247-6.613,3.494-6.373,7.253l11.199,173.6
			c0.34,5.233-1.452,10.219-5.04,14.046c-7.173,7.653-20.214,7.653-27.39,0c-3.586-3.826-5.376-8.813-5.04-14.046l11.203-173.626
			c0.241-3.76-2.613-7.006-6.373-7.253c-3.763-0.167-7.009,2.613-7.253,6.373l-11.203,173.626
			c-0.573,8.907,2.601,17.754,8.707,24.267c6.106,6.513,14.73,10.247,23.656,10.247c8.926,0,17.553-3.734,23.658-10.247
			C236.829,326.844,240.002,317.998,239.428,309.091z"/>
	</g>
</g>
<g>
	<g>
		<path d="M207.07,9.098c-60.227,0-109.227,49-109.227,109.227c0,15.887,3.42,25.88,10.76,31.44
			c11.063,8.381,26.856,3.948,46.833-1.679c15.457-4.354,32.973-9.281,51.633-9.281s36.18,4.927,51.633,9.281
			c12.006,3.379,22.494,6.327,31.36,6.327c5.886,0,11.052-1.3,15.473-4.647c7.34-5.56,10.76-15.553,10.76-31.44
			C316.297,58.098,267.296,9.098,207.07,9.098z M297.289,138.878c-5.652,4.285-19.2,0.473-34.886-3.941
			c-15.5-4.359-34.787-9.786-55.334-9.786c-20.543,0-39.834,5.427-55.334,9.786c-15.683,4.413-29.227,8.247-34.889,3.941
			c-3.55-2.686-5.35-9.6-5.35-20.553c0-52.7,42.873-95.573,95.573-95.573c52.7,0,95.573,42.873,95.573,95.573
			C302.643,129.278,300.843,136.192,297.289,138.878z"/>
	</g>
</g>
<g>
	<g>
		<path d="M109.704,370.277L97.807,254.164c-0.357-3.487-3.29-6.134-6.791-6.134H63.71c-3.5,0-6.434,2.647-6.791,6.134L45,370.531
			c-0.573,8.907,2.601,17.754,8.707,24.267c6.107,6.513,14.73,10.247,23.656,10.247s17.551-3.736,23.658-10.248
			S110.302,379.436,109.704,370.277z M91.059,385.458c-7.173,7.653-20.221,7.653-27.394,0c-3.587-3.826-5.378-8.813-5.064-13.793
			l11.271-109.979h14.981l11.245,109.727C96.435,376.644,94.647,381.631,91.059,385.458z"/>
	</g>
</g>
<g>
	<g>
		<path d="M77.363,166.112C34.707,166.112,0,200.818,0,243.478c0,7.34,0.857,17.748,8.253,23.347
			c8.46,6.407,20.354,3.072,34.116-0.807c10.513-2.959,22.434-6.313,34.993-6.313s24.48,3.354,34.993,6.313
			c8.166,2.301,15.671,4.407,22.19,4.407c4.473,0,8.484-0.993,11.926-3.599c7.397-5.601,8.253-16.007,8.253-23.347
			C154.726,200.818,120.02,166.112,77.363,166.112z M138.23,255.945c-3.07,2.313-12.78-0.427-22.173-3.067
			c-10.803-3.04-24.247-6.827-38.694-6.827s-27.89,3.787-38.694,6.827c-9.397,2.647-19.11,5.393-22.173,3.067
			c-0.857-0.654-2.843-3.161-2.843-12.467c0-35.133,28.58-63.713,63.71-63.713s63.71,28.58,63.71,63.713
			C141.073,252.785,139.087,255.292,138.23,255.945z"/>
	</g>
</g>
<g>
	<g>
		<path d="M369.114,370.277l-11.894-116.113c-0.358-3.487-3.292-6.134-6.792-6.134h-27.307c-3.499,0-6.432,2.647-6.793,6.134
			l-11.912,116.367c-0.573,8.907,2.601,17.754,8.701,24.267c6.106,6.513,14.734,10.247,23.66,10.247
			c8.926,0,17.553-3.734,23.658-10.248C366.534,388.284,369.708,379.436,369.114,370.277z M350.469,385.458
			c-7.173,7.653-20.214,7.653-27.387,0c-3.587-3.826-5.381-8.813-5.06-13.793l11.261-109.979h14.988l11.238,109.727
			C355.848,376.644,354.057,381.631,350.469,385.458z"/>
	</g>
</g>
<g>
	<g>
		<path d="M336.777,166.112c-42.66,0-77.367,34.707-77.367,77.367c0,7.34,0.853,17.748,8.253,23.347
			c8.474,6.407,20.354,3.072,34.113-0.807c10.52-2.959,22.439-6.313,35-6.313s24.48,3.354,35,6.313
			c8.16,2.301,15.667,4.407,22.187,4.407c4.473,0,8.486-0.993,11.926-3.599c7.4-5.601,8.253-16.007,8.253-23.347
			C414.143,200.818,379.436,166.112,336.777,166.112z M397.65,255.945c-3.067,2.319-12.78-0.427-22.18-3.067
			c-10.8-3.04-24.247-6.827-38.694-6.827s-27.894,3.787-38.694,6.827c-9.4,2.64-19.099,5.379-22.18,3.067
			c-0.853-0.654-2.84-3.161-2.84-12.467c0-35.133,28.58-63.713,63.713-63.713s63.713,28.58,63.713,63.713
			C400.49,252.785,398.503,255.292,397.65,255.945z"/>
	</g>
</g>
<g>
	<g>
		<path d="M174.556,44.012c-1.85-3.28-6.013-4.448-9.3-2.594C146.86,51.797,132.47,68.311,124.73,87.91
			c-1.382,3.507,0.336,7.474,3.843,8.854c0.824,0.326,1.671,0.48,2.504,0.48c2.722,0,5.292-1.633,6.352-4.32
			c6.593-16.7,18.855-30.766,34.533-39.613C175.249,51.458,176.406,47.292,174.556,44.012z"/>
	</g>
</g>
<g>
	<g>
		<path d="M72.156,187.372c-1.85-3.28-6.013-4.448-9.3-2.594C44.46,195.157,30.07,211.671,22.33,231.27
			c-1.382,3.507,0.336,7.474,3.843,8.854c0.824,0.326,1.671,0.48,2.504,0.48c2.722,0,5.292-1.633,6.352-4.32
			c6.593-16.7,18.855-30.766,34.533-39.613C72.849,194.818,74.006,190.652,72.156,187.372z"/>
	</g>
</g>
<g>
	<g>
		<path d="M331.569,187.372c-1.853-3.287-6.006-4.461-9.3-2.594c-18.393,10.38-32.787,26.894-40.52,46.493
			c-1.386,3.507,0.333,7.474,3.84,8.854c0.821,0.326,1.674,0.48,2.507,0.48c2.719,0,5.292-1.633,6.345-4.32
			c6.6-16.7,18.859-30.766,34.533-39.613C332.262,194.818,333.423,190.652,331.569,187.372z"/>
	</g>
</g>
<g>
</g>
<g>
</g>
<g>
</g>
<g>
</g>
<g>
</g>
<g>
</g>
<g>
</g>
<g>
</g>
<g>
</g>
<g>
</g>
<g>
</g>
<g>
</g>
<g>
</g>
<g>
</g>
<g>
</g>
</svg>
