<?xml version="1.0" encoding="iso-8859-1"?>
<!-- Generator: Adobe Illustrator 19.0.0, SVG Export Plug-In . SVG Version: 6.00 Build 0)  -->
<svg version="1.1" id="Capa_1" xmlns="http://www.w3.org/2000/svg" xmlns:xlink="http://www.w3.org/1999/xlink" x="0px" y="0px"
	 viewBox="0 0 409.6 409.6" style="enable-background:new 0 0 409.6 409.6;" xml:space="preserve">
<g>
	<g>
		<path d="M340.84,68.267H68.76c-19.092,0-34.627,15.534-34.627,34.627v94.587c0,19.092,15.534,34.627,34.627,34.627h272.08
			c19.092,0,34.627-15.534,34.627-34.627v-94.587C375.467,83.801,359.933,68.267,340.84,68.267z M361.813,197.48
			c0,11.566-9.407,20.973-20.973,20.973H68.76c-11.566,0-20.973-9.407-20.973-20.973v-94.587c0-11.566,9.407-20.973,20.973-20.973
			h272.08c11.566,0,20.973,9.407,20.973,20.973V197.48z"/>
	</g>
</g>
<g>
	<g>
		<path d="M157.013,218.453H102.4c-3.773,0-6.827,3.053-6.827,6.827v20.48c0,3.773,3.053,6.827,6.827,6.827h54.613
			c3.773,0,6.827-3.053,6.827-6.827v-20.48C163.84,221.507,160.787,218.453,157.013,218.453z M150.187,238.933h-40.96v-6.827h40.96
			V238.933z"/>
	</g>
</g>
<g>
	<g>
		<path d="M129.707,238.933c-3.773,0-6.827,3.053-6.827,6.827v54.613c0,3.773,3.053,6.827,6.827,6.827
			c3.773,0,6.827-3.053,6.827-6.827V245.76C136.533,241.987,133.48,238.933,129.707,238.933z"/>
	</g>
</g>
<g>
	<g>
		<path d="M154.126,293.547h-48.84c-16.645,0-30.193,13.547-30.193,30.194v55.666c0,16.645,13.548,30.193,30.193,30.193h48.841
			c16.645,0,30.193-13.547,30.191-30.194v-55.666C184.318,307.094,170.772,293.547,154.126,293.547z M170.665,379.406
			c0,9.119-7.419,16.539-16.539,16.539h-48.84c-9.119,0-16.539-7.419-16.539-16.539v-55.666c0-9.119,7.419-16.539,16.539-16.539
			h48.84c9.119,0,16.539,7.419,16.539,16.539V379.406z"/>
	</g>
</g>
<g>
	<g>
		<path d="M136.32,293.547h-13.227c-11.412,0-20.693,9.281-20.693,20.693v74.667c0,11.412,9.281,20.693,20.693,20.693h13.227
			c11.412,0,20.693-9.281,20.693-20.693V314.24C157.013,302.828,147.734,293.547,136.32,293.547z M143.36,388.907
			c0,3.879-3.161,7.04-7.04,7.04h-13.227c-3.879,0-7.04-3.161-7.04-7.04V314.24c0-3.879,3.161-7.04,7.04-7.04h13.227
			c3.879,0,7.04,3.161,7.04,7.04V388.907z"/>
	</g>
</g>
<g>
	<g>
		<path d="M314.027,0H160.234c-28.128,0-51.007,22.88-51.007,51.007v24.086c0,3.773,3.053,6.827,6.827,6.827h27.307
			c3.773,0,6.827-3.053,6.827-6.827V51.007c0-5.54,4.507-10.047,10.047-10.047h153.793c3.773,0,6.827-3.053,6.827-6.827V6.827
			C320.853,3.053,317.8,0,314.027,0z M307.2,27.307H160.234c-13.068,0-23.701,10.633-23.701,23.701v17.26H122.88v-17.26
			c0-20.594,16.759-37.354,37.354-37.354H307.2V27.307z"/>
	</g>
</g>
<g>
	<g>
		<path d="M317.44,95.573h-20.48c-13.174,0-23.893,10.72-23.893,23.893v61.44c0,13.174,10.72,23.893,23.893,23.893h20.48
			c13.174,0,23.893-10.72,23.893-23.893v-61.44C341.333,106.293,330.614,95.573,317.44,95.573z M327.68,180.907
			c0,5.647-4.593,10.24-10.24,10.24h-20.48c-5.647,0-10.24-4.593-10.24-10.24v-61.44c0-5.647,4.593-10.24,10.24-10.24h20.48
			c5.647,0,10.24,4.593,10.24,10.24V180.907z"/>
	</g>
</g>
<g>
	<g>
		<path d="M314.027,122.88h-13.653c-3.773,0-6.827,3.053-6.827,6.827c0,3.773,3.053,6.827,6.827,6.827h13.653
			c3.773,0,6.827-3.053,6.827-6.827C320.853,125.933,317.8,122.88,314.027,122.88z"/>
	</g>
</g>
<g>
	<g>
		<path d="M314.027,143.36h-13.653c-3.773,0-6.827,3.053-6.827,6.827s3.053,6.827,6.827,6.827h13.653
			c3.773,0,6.827-3.053,6.827-6.827S317.8,143.36,314.027,143.36z"/>
	</g>
</g>
<g>
	<g>
		<path d="M314.027,163.84h-13.653c-3.773,0-6.827,3.053-6.827,6.827s3.053,6.827,6.827,6.827h13.653
			c3.773,0,6.827-3.053,6.827-6.827S317.8,163.84,314.027,163.84z"/>
	</g>
</g>
<g>
</g>
<g>
</g>
<g>
</g>
<g>
</g>
<g>
</g>
<g>
</g>
<g>
</g>
<g>
</g>
<g>
</g>
<g>
</g>
<g>
</g>
<g>
</g>
<g>
</g>
<g>
</g>
<g>
</g>
</svg>
