<?xml version="1.0" encoding="iso-8859-1"?>
<!-- Generator: Adobe Illustrator 19.0.0, SVG Export Plug-In . SVG Version: 6.00 Build 0)  -->
<svg version="1.1" id="Capa_1" xmlns="http://www.w3.org/2000/svg" xmlns:xlink="http://www.w3.org/1999/xlink" x="0px" y="0px"
	 viewBox="0 0 430.08 430.08" style="enable-background:new 0 0 430.08 430.08;" xml:space="preserve">
<g>
	<g>
		<path d="M266.241,95.573H109.228c-3.773,0-6.827,3.053-6.827,6.827v320.853c0,3.773,3.053,6.827,6.827,6.827h157.013
			c3.773,0,6.827-3.053,6.827-6.827V102.4C273.068,98.627,270.015,95.573,266.241,95.573z M259.415,416.427h-143.36v-307.2h143.36
			V416.427z"/>
	</g>
</g>
<g>
	<g>
		<path d="M299.354,44.199c-1.246-2.012-3.439-3.239-5.806-3.239H136.535c-2.587,0-4.946,1.461-6.106,3.773l-27.307,54.613
			c-1.06,2.115-0.945,4.628,0.3,6.641c1.246,2.012,3.439,3.239,5.806,3.239h157.013c2.586,0,4.946-1.459,6.106-3.773l27.307-54.613
			C300.714,48.725,300.6,46.211,299.354,44.199z M262.021,95.573H120.274l20.48-40.96h141.747L262.021,95.573z"/>
	</g>
</g>
<g>
	<g>
		<path d="M293.548,0H136.535c-3.773,0-6.827,3.053-6.827,6.827v40.96c0,3.773,3.053,6.827,6.827,6.827h157.013
			c3.773,0,6.827-3.053,6.827-6.827V6.827C300.375,3.053,297.322,0,293.548,0z M286.721,40.96h-143.36V13.653h143.36V40.96z"/>
	</g>
</g>
<g>
	<g>
		<path d="M326.78,99.014l-27.307-47.787c-2.427-4.253-9.426-4.253-11.853,0l-27.307,47.787c-0.585,1.033-0.899,2.2-0.899,3.386
			v320.853c0,3.773,3.053,6.827,6.827,6.827h54.613c3.773,0,6.827-3.053,6.825-6.827V102.4
			C327.68,101.214,327.367,100.047,326.78,99.014z M314.028,416.427h-40.96V104.212l20.48-35.84l20.48,35.84V416.427z"/>
	</g>
</g>
<g>
	<g>
		<path d="M238.935,211.627h-102.4c-3.773,0-6.827,3.053-6.827,6.827v68.267c0,3.773,3.053,6.827,6.827,6.827h102.4
			c3.773,0,6.827-3.053,6.827-6.827v-68.267C245.761,214.68,242.708,211.627,238.935,211.627z M232.108,279.893h-88.747V225.28
			h88.747V279.893z"/>
	</g>
</g>
<g>
</g>
<g>
</g>
<g>
</g>
<g>
</g>
<g>
</g>
<g>
</g>
<g>
</g>
<g>
</g>
<g>
</g>
<g>
</g>
<g>
</g>
<g>
</g>
<g>
</g>
<g>
</g>
<g>
</g>
</svg>
