<?xml version="1.0" encoding="iso-8859-1"?>
<!-- Generator: Adobe Illustrator 19.0.0, SVG Export Plug-In . SVG Version: 6.00 Build 0)  -->
<svg version="1.1" id="Capa_1" xmlns="http://www.w3.org/2000/svg" xmlns:xlink="http://www.w3.org/1999/xlink" x="0px" y="0px"
	 viewBox="0 0 409.6 409.6" style="enable-background:new 0 0 409.6 409.6;" xml:space="preserve">
<g>
	<g>
		<path d="M334.507,75.093H6.827C3.053,75.093,0,78.147,0,81.92v245.76c0,3.773,3.053,6.827,6.827,6.827h327.68
			c3.773,0,6.827-3.053,6.827-6.827V81.92C341.333,78.147,338.28,75.093,334.507,75.093z M327.68,320.853H13.653V88.747H327.68
			V320.853z"/>
	</g>
</g>
<g>
	<g>
		<path d="M293.547,109.227H40.96c-3.773,0-6.827,3.053-6.827,6.827v177.493c0,3.773,3.053,6.827,6.827,6.827h252.587
			c3.773,0,6.827-3.053,6.827-6.827V116.053C300.373,112.28,297.32,109.227,293.547,109.227z M286.72,286.72H47.787V122.88H286.72
			V286.72z"/>
	</g>
</g>
<g>
	<g>
		<path d="M402.773,75.093h-68.267c-3.773,0-6.827,3.053-6.827,6.827v245.76c0,3.773,3.053,6.827,6.827,6.827h68.267
			c3.773,0,6.827-3.053,6.827-6.827V81.92C409.6,78.147,406.547,75.093,402.773,75.093z M395.947,320.853h-54.613V88.747h54.613
			V320.853z"/>
	</g>
</g>
<g>
	<g>
		<path d="M368.64,102.4c-11.293,0-20.48,9.187-20.48,20.48c0,11.293,9.187,20.48,20.48,20.48s20.48-9.187,20.48-20.48
			C389.12,111.587,379.933,102.4,368.64,102.4z M368.64,129.707c-3.767,0-6.827-3.06-6.827-6.827s3.06-6.827,6.827-6.827
			s6.827,3.06,6.827,6.827S372.407,129.707,368.64,129.707z"/>
	</g>
</g>
<g>
	<g>
		<path d="M368.64,157.013c-11.293,0-20.48,9.187-20.48,20.48s9.187,20.48,20.48,20.48s20.48-9.187,20.48-20.48
			S379.933,157.013,368.64,157.013z M368.64,184.32c-3.767,0-6.827-3.06-6.827-6.827c0-3.767,3.06-6.827,6.827-6.827
			s6.827,3.06,6.827,6.827C375.467,181.26,372.407,184.32,368.64,184.32z"/>
	</g>
</g>
<g>
	<g>
		<path d="M314.027,143.36c-3.773,0-6.827,3.053-6.827,6.827v109.227c0,3.773,3.053,6.827,6.827,6.827s6.827-3.053,6.827-6.827
			V150.187C320.853,146.413,317.8,143.36,314.027,143.36z"/>
	</g>
</g>
<g>
	<g>
		<path d="M107.733,139.093c-2.36-2.941-6.647-3.427-9.6-1.067L64,165.333c-2.941,2.36-3.42,6.653-1.067,9.6
			c1.353,1.686,3.333,2.56,5.34,2.56c1.493,0,3-0.486,4.26-1.493l34.133-27.307C109.607,146.333,110.087,142.041,107.733,139.093z"
			/>
	</g>
</g>
<g>
	<g>
		<path d="M148.608,132.159c-2.42-2.894-6.707-3.28-9.62-0.874l-81.92,68.267c-2.895,2.413-3.287,6.721-0.874,9.62
			c1.353,1.621,3.294,2.454,5.253,2.454c1.539,0,3.086-0.521,4.367-1.58l81.92-68.267
			C150.629,139.366,151.021,135.059,148.608,132.159z"/>
	</g>
</g>
<g>
</g>
<g>
</g>
<g>
</g>
<g>
</g>
<g>
</g>
<g>
</g>
<g>
</g>
<g>
</g>
<g>
</g>
<g>
</g>
<g>
</g>
<g>
</g>
<g>
</g>
<g>
</g>
<g>
</g>
</svg>
