<?xml version="1.0" encoding="iso-8859-1"?>
<!-- Generator: Adobe Illustrator 19.0.0, SVG Export Plug-In . SVG Version: 6.00 Build 0)  -->
<svg version="1.1" id="Capa_1" xmlns="http://www.w3.org/2000/svg" xmlns:xlink="http://www.w3.org/1999/xlink" x="0px" y="0px"
	 viewBox="0 0 395.945 395.945" style="enable-background:new 0 0 395.945 395.945;" xml:space="preserve">
<g>
	<g>
		<path d="M358.399,68.265h-27.307c-3.773,0-6.827,3.057-6.827,6.827s3.053,6.827,6.827,6.827h20.48v300.373H37.546
			c-3.77,0-6.827,3.057-6.827,6.827s3.057,6.827,6.827,6.827h320.853c3.773,0,6.827-3.057,6.827-6.827V75.092
			C365.226,71.322,362.173,68.265,358.399,68.265z"/>
	</g>
</g>
<g>
	<g>
		<path d="M331.092,40.958h-32c-3.773,0-6.827,3.057-6.827,6.827c0,3.77,3.053,6.827,6.827,6.827h25.173v307.2H167.252
			c-3.77,0-6.827,3.057-6.827,6.827s3.057,6.827,6.827,6.827h163.84c3.773,0,6.827-3.057,6.827-6.827V47.785
			C337.919,44.015,334.866,40.958,331.092,40.958z"/>
	</g>
</g>
<g>
	<g>
		<path d="M301.393,1.635c-1.521-1.294-3.494-1.86-5.501-1.553l-259.41,40.96c-3.319,0.522-5.763,3.383-5.763,6.743v341.333
			c0,1.997,0.872,3.893,2.393,5.19c1.244,1.063,2.821,1.637,4.434,1.637c0.353,0,0.71-0.026,1.063-0.084l259.417-40.96
			c3.313-0.522,5.76-3.383,5.76-6.743V6.825C303.786,4.828,302.914,2.932,301.393,1.635z M290.132,342.325l-245.76,38.803V53.618
			l245.76-38.803V342.325z"/>
	</g>
</g>
<g>
	<g>
		<path d="M195.885,62.399c-0.067-1.094-0.287-2.067-0.66-2.92c-0.374-0.853-0.968-1.539-1.78-2.06
			c-0.812-0.521-1.966-0.78-3.459-0.78h-5.84c-0.879,0-1.626,0.034-2.239,0.101c-0.613,0.067-1.179,0.292-1.7,0.679
			c-0.521,0.387-1.012,0.986-1.48,1.801c-0.468,0.814-0.995,1.973-1.58,3.48c-0.585,1.507-1.266,3.42-2.039,5.739
			s-1.707,5.159-2.801,8.52l-1.28,4h-0.959l-1.039-3.2c-1.2-3.521-2.214-6.487-3.04-8.9s-1.553-4.4-2.179-5.96
			c-0.626-1.56-1.2-2.766-1.72-3.62s-1.046-1.475-1.58-1.86c-0.534-0.386-1.113-0.613-1.741-0.679
			c-0.628-0.067-1.394-0.101-2.301-0.101h-5.441c-1.493,0-2.645,0.259-3.459,0.78c-0.814,0.521-1.406,1.207-1.78,2.06
			c-0.374,0.853-0.594,1.826-0.661,2.92c-0.067,1.094-0.101,2.214-0.101,3.36v40.639c0,0.853,0.055,1.654,0.16,2.4
			c0.106,0.746,0.36,1.406,0.759,1.98c0.401,0.573,1,1.027,1.801,1.36s1.894,0.5,3.28,0.5c1.227,0,2.191-0.167,2.9-0.5
			c0.708-0.333,1.241-0.787,1.601-1.36c0.36-0.573,0.592-1.234,0.7-1.98c0.107-0.746,0.16-1.546,0.16-2.4v-33.36h1.039l7.6,21.92
			c0.186,0.534,0.42,1.079,0.7,1.64c0.28,0.561,0.621,1.068,1.021,1.521s0.874,0.826,1.42,1.12c0.546,0.294,1.207,0.44,1.98,0.44
			h0.8c0.746,0,1.388-0.147,1.92-0.44c0.533-0.294,1-0.666,1.4-1.12c0.399-0.454,0.734-0.961,1-1.521
			c0.266-0.56,0.507-1.108,0.72-1.64l7.52-21.92h1.12v33.36c0,0.853,0.055,1.654,0.16,2.4c0.106,0.746,0.34,1.406,0.7,1.98
			s0.894,1.027,1.601,1.36c0.707,0.333,1.673,0.5,2.9,0.5c1.388,0,2.48-0.167,3.28-0.5s1.401-0.787,1.801-1.36
			c0.399-0.573,0.652-1.234,0.759-1.98c0.107-0.746,0.16-1.546,0.16-2.4V65.759C195.986,64.613,195.952,63.493,195.885,62.399z"/>
	</g>
</g>
<g>
	<g>
		<path d="M184.425,173.054c-0.879-0.36-1.867-0.58-2.959-0.661c-1.092-0.08-2.173-0.119-3.239-0.119h-9.52v-11.52h5.04
			c1.067,0,2.14-0.034,3.22-0.101s2.041-0.28,2.881-0.64c0.84-0.36,1.526-0.899,2.06-1.62s0.8-1.748,0.8-3.081
			c0-1.307-0.268-2.326-0.8-3.06c-0.532-0.734-1.219-1.28-2.06-1.64s-1.801-0.573-2.881-0.64c-1.08-0.067-2.154-0.101-3.22-0.101
			h-5.04v-10.88h9.52c1.067,0,2.147-0.041,3.239-0.12c1.092-0.078,2.079-0.305,2.959-0.679c0.881-0.374,1.601-0.94,2.161-1.7
			s0.84-1.819,0.84-3.18s-0.28-2.42-0.84-3.18s-1.282-1.328-2.161-1.7c-0.879-0.372-1.867-0.599-2.959-0.679
			c-1.092-0.08-2.173-0.119-3.239-0.119v-0.005h-15.681c-1.493,0-2.645,0.268-3.459,0.8c-0.814,0.532-1.406,1.232-1.78,2.099
			c-0.374,0.867-0.594,1.847-0.66,2.941c-0.067,1.094-0.101,2.214-0.101,3.36v37.6c0,1.147,0.034,2.266,0.101,3.36
			c0.067,1.094,0.287,2.075,0.66,2.941c0.374,0.865,0.968,1.565,1.78,2.099c0.812,0.534,1.966,0.8,3.459,0.8h15.681
			c1.039,0,2.108-0.041,3.2-0.12c1.092-0.078,2.08-0.305,2.959-0.679c0.879-0.374,1.606-0.947,2.179-1.72
			c0.573-0.773,0.86-1.853,0.86-3.239c0-1.333-0.28-2.381-0.84-3.14S185.304,173.414,184.425,173.054z"/>
	</g>
</g>
<g>
	<g>
		<path d="M192.185,202.453c-0.106-0.759-0.36-1.42-0.759-1.98c-0.399-0.56-0.993-1.007-1.78-1.34c-0.787-0.333-1.86-0.5-3.22-0.5
			c-1.227,0-2.191,0.167-2.9,0.5c-0.708,0.333-1.241,0.78-1.601,1.34c-0.36,0.56-0.594,1.22-0.7,1.98
			c-0.108,0.759-0.16,1.567-0.16,2.42v33.2h-0.959l-12.72-34.48c-0.346-0.934-0.812-1.76-1.399-2.48
			c-0.532-0.613-1.22-1.179-2.06-1.7c-0.84-0.521-1.927-0.78-3.26-0.78h-5.28c-1.493,0-2.645,0.259-3.459,0.78
			s-1.406,1.215-1.78,2.08c-0.374,0.865-0.594,1.853-0.66,2.959c-0.067,1.106-0.101,2.232-0.101,3.379v40.561
			c0,0.853,0.055,1.661,0.16,2.42c0.106,0.76,0.358,1.42,0.759,1.98c0.401,0.56,1,1.007,1.801,1.34c0.8,0.333,1.894,0.5,3.28,0.5
			c1.227,0,2.191-0.167,2.9-0.5c0.708-0.333,1.241-0.78,1.601-1.34c0.36-0.56,0.592-1.22,0.7-1.98s0.16-1.567,0.16-2.42v-33.2h0.959
			l12.08,32.72c0.186,0.532,0.447,1.186,0.78,1.959c0.333,0.773,0.78,1.514,1.34,2.22c0.56,0.707,1.26,1.307,2.099,1.801
			s1.888,0.741,3.14,0.741h5.28c1.466,0,2.608-0.259,3.42-0.78c0.812-0.521,1.399-1.213,1.76-2.08s0.573-1.848,0.64-2.941
			c0.067-1.092,0.101-2.226,0.101-3.4v-40.561C192.346,204.02,192.291,203.213,192.185,202.453z"/>
	</g>
</g>
<g>
	<g>
		<path d="M189.125,275.391c-0.12-1.094-0.399-2.067-0.84-2.92c-0.44-0.853-1.099-1.539-1.98-2.06
			c-0.881-0.521-2.094-0.78-3.64-0.78c-1.574,0-2.801,0.259-3.68,0.78c-0.879,0.521-1.541,1.207-1.98,2.06s-0.712,1.826-0.819,2.92
			c-0.108,1.094-0.16,2.214-0.16,3.36v31.52c-0.053,1.172-0.28,2.214-0.679,3.12c-0.16,0.401-0.374,0.787-0.64,1.161
			c-0.266,0.374-0.58,0.707-0.94,1s-0.794,0.527-1.3,0.7c-0.507,0.172-1.08,0.259-1.72,0.259c-0.64,0-1.207-0.087-1.7-0.259
			c-0.493-0.172-0.92-0.406-1.28-0.7s-0.674-0.626-0.94-1c-0.266-0.374-0.48-0.761-0.64-1.161c-0.399-0.906-0.64-1.946-0.72-3.12
			v-31.519c0-1.147-0.055-2.266-0.16-3.36c-0.106-1.094-0.379-2.067-0.819-2.92s-1.106-1.539-2-2.06
			c-0.894-0.521-2.115-0.78-3.661-0.78s-2.761,0.259-3.64,0.78c-0.879,0.521-1.539,1.207-1.98,2.06s-0.72,1.826-0.84,2.92
			c-0.119,1.094-0.179,2.214-0.179,3.36h-0.003v30.479c0,2.693,0.445,5.081,1.34,7.159s2.161,3.826,3.801,5.239
			c1.64,1.413,3.594,2.487,5.861,3.221c2.266,0.734,4.787,1.101,7.56,1.101c2.746,0,5.26-0.353,7.54-1.06
			c2.28-0.707,4.239-1.76,5.879-3.161c1.64-1.401,2.908-3.14,3.801-5.221c0.893-2.08,1.34-4.507,1.34-7.281v-30.479
			C189.304,277.605,189.244,276.485,189.125,275.391z"/>
	</g>
</g>
<g>
</g>
<g>
</g>
<g>
</g>
<g>
</g>
<g>
</g>
<g>
</g>
<g>
</g>
<g>
</g>
<g>
</g>
<g>
</g>
<g>
</g>
<g>
</g>
<g>
</g>
<g>
</g>
<g>
</g>
</svg>
