<?xml version="1.0" encoding="iso-8859-1"?>
<!-- Generator: Adobe Illustrator 19.0.0, SVG Export Plug-In . SVG Version: 6.00 Build 0)  -->
<svg version="1.1" id="Capa_1" xmlns="http://www.w3.org/2000/svg" xmlns:xlink="http://www.w3.org/1999/xlink" x="0px" y="0px"
	 viewBox="0 0 402.773 402.773" style="enable-background:new 0 0 402.773 402.773;" xml:space="preserve">
<g>
	<g>
		<path d="M47.787,64.853c-3.773,0-6.827,3.053-6.827,6.827s3.053,6.827,6.827,6.827c90.341,0,163.84,55.127,163.84,122.88
			s-73.499,122.88-163.84,122.88c-3.773,0-6.827,3.053-6.827,6.827s3.053,6.827,6.827,6.827
			c97.874,0,177.493-61.247,177.493-136.533S145.661,64.853,47.787,64.853z"/>
	</g>
</g>
<g>
	<g>
		<path d="M47.787,64.853C16.746,64.853,0,135.2,0,201.387S16.746,337.92,47.787,337.92c31.041,0,47.787-70.347,47.787-136.533
			S78.828,64.853,47.787,64.853z M47.787,324.267c-14.254,0-34.133-46.747-34.133-122.88s19.879-122.88,34.133-122.88
			c14.254,0,34.133,46.747,34.133,122.88S62.041,324.267,47.787,324.267z"/>
	</g>
</g>
<g>
	<g>
		<path d="M47.787,133.12c-18.021,0-26.226,35.386-26.226,68.267c0,32.881,8.206,68.267,26.226,68.267s26.226-35.386,26.226-68.267
			C74.013,168.506,65.807,133.12,47.787,133.12z M47.901,256.014c-3.494-0.987-12.687-19.28-12.687-54.627
			c0-35.347,9.194-53.641,12.46-54.627c3.492,0.987,12.687,19.28,12.687,54.627C60.361,236.733,51.168,255.027,47.901,256.014z"/>
	</g>
</g>
<g>
	<g>
		<path d="M390.866,197.973c7.514-6.98,11.907-16.766,11.907-27.307c0-20.7-16.847-37.547-37.547-37.547
			s-37.547,16.846-37.547,37.547c0,1.14,0.061,2.273,0.174,3.413H218.453c-3.773,0-6.827,3.053-6.827,6.827v40.96
			c0,3.773,3.053,6.827,6.827,6.827h109.38c1.727,19.113,17.84,34.133,37.393,34.133c20.7,0,37.547-16.846,37.547-37.547
			C402.773,214.74,398.379,204.954,390.866,197.973z M375.938,204.059c8.134,4.12,13.181,12.254,13.181,21.221
			c0,13.174-10.72,23.893-23.893,23.893s-23.893-10.72-23.893-23.893c0-0.507,0.087-0.993,0.154-1.48l0.154-1.174
			c0.213-1.934-0.408-3.866-1.7-5.313s-3.145-2.273-5.086-2.273H225.28v-27.307h111.106c2.22,0,4.301-1.079,5.574-2.886
			c1.28-1.814,1.601-4.134,0.86-6.221c-1-2.819-1.487-5.427-1.487-7.96c0-13.174,10.72-23.893,23.893-23.893
			c13.174,0,23.893,10.72,23.893,23.893c0,8.967-5.047,17.101-13.182,21.221c-2.292,1.159-3.739,3.514-3.739,6.086
			C372.198,200.545,373.644,202.899,375.938,204.059z"/>
	</g>
</g>
<g>
</g>
<g>
</g>
<g>
</g>
<g>
</g>
<g>
</g>
<g>
</g>
<g>
</g>
<g>
</g>
<g>
</g>
<g>
</g>
<g>
</g>
<g>
</g>
<g>
</g>
<g>
</g>
<g>
</g>
</svg>
