<?xml version="1.0" encoding="iso-8859-1"?>
<!-- Generator: Adobe Illustrator 19.0.0, SVG Export Plug-In . SVG Version: 6.00 Build 0)  -->
<svg version="1.1" id="Capa_1" xmlns="http://www.w3.org/2000/svg" xmlns:xlink="http://www.w3.org/1999/xlink" x="0px" y="0px"
	 viewBox="0 0 409.6 409.6" style="enable-background:new 0 0 409.6 409.6;" xml:space="preserve">
<g>
	<g>
		<path d="M204.8,0C91.873,0,0,91.873,0,204.8s91.873,204.8,204.8,204.8s204.8-91.873,204.8-204.8S317.727,0,204.8,0z
			 M204.8,395.947C99.4,395.947,13.653,310.2,13.653,204.8S99.4,13.653,204.8,13.653S395.947,99.4,395.947,204.8
			S310.2,395.947,204.8,395.947z"/>
	</g>
</g>
<g>
	<g>
		<path d="M204.8,47.787c-86.579,0-157.013,70.436-157.013,157.013S118.221,361.813,204.8,361.813S361.813,291.378,361.813,204.8
			S291.379,47.787,204.8,47.787z M204.8,348.16c-79.046,0-143.36-64.311-143.36-143.36S125.754,61.44,204.8,61.44
			s143.36,64.311,143.36,143.36S283.846,348.16,204.8,348.16z"/>
	</g>
</g>
<g>
	<g>
		<path d="M286.054,211.06c-18.746-25.977-63.346-32.29-89.992-36.06c-7.079-1.004-13.199-1.867-15.773-2.727
			c-15.186-5.065-48.521-32.445-59.447-48.829c-2.48-3.714-6.166-5.487-10.146-4.847c-11.414,1.824-25.607,33.004-42.18,92.67
			c-0.567,2.057-0.328,4.253,0.966,5.949c1.287,1.7,3.12,2.69,5.253,2.69c0.092,0.01,9.293,1.213,23.52,20.18
			c3.826,5.101,7.9,12.481,12.206,20.297c14.573,26.407,34.533,62.573,73.394,62.573c46.566,0,97.285-5.74,109.754-74.296
			C296.228,234.278,293.688,221.626,286.054,211.06z M280.18,246.216c-10.6,58.264-51.613,63.087-96.326,63.087
			c-30.8,0-47.787-30.783-61.433-55.516c-4.553-8.243-8.847-16.029-13.247-21.893C98.546,217.721,89.6,211.367,83.48,208.531
			c9.086-31.457,21.267-65.027,28.155-74.493c13.406,17.826,45.699,44.969,64.333,51.186c3.753,1.251,9.807,2.108,18.179,3.294
			c24.492,3.468,65.493,9.267,80.84,30.531C280.433,226.592,282.127,235.479,280.18,246.216z"/>
	</g>
</g>
<g>
	<g>
		<path d="M225.28,204.8c-22.586,0-40.96,18.374-40.96,40.96c0,22.586,18.374,40.96,40.96,40.96c22.586,0,40.96-18.374,40.96-40.96
			C266.24,223.174,247.866,204.8,225.28,204.8z M225.28,273.067c-15.06,0-27.307-12.25-27.307-27.307
			c0-15.056,12.247-27.307,27.307-27.307c15.06,0,27.307,12.25,27.307,27.307C252.587,260.816,240.34,273.067,225.28,273.067z"/>
	</g>
</g>
<g>
	<g>
		<path d="M266.226,110.087c0.007-0.287,0.014-0.573,0.014-0.86c0-15.056-12.247-27.307-27.307-27.307s-27.307,12.25-27.307,27.307
			c0,1.207,0.08,2.41,0.247,3.606c-8.428,4.753-13.901,13.751-13.901,23.701c0,15.056,12.247,27.307,27.307,27.307
			c6.299,0,12.286-2.161,17.067-5.997c4.78,3.837,10.767,5.997,17.067,5.997c15.06,0,27.307-12.25,27.307-27.307
			C286.72,123.827,278.001,113.12,266.226,110.087z M259.413,150.187c-4.581,0-8.834-2.29-11.38-6.13
			c-1.26-1.906-3.4-3.053-5.687-3.053s-4.427,1.147-5.687,3.053c-2.546,3.84-6.799,6.13-11.38,6.13
			c-7.526,0-13.653-6.123-13.653-13.653c0-6.103,4.161-11.491,10.107-13.1c1.886-0.51,3.459-1.8,4.326-3.543
			c0.874-1.742,0.954-3.779,0.227-5.586c-0.667-1.671-1.007-3.381-1.007-5.077c0-7.53,6.127-13.653,13.653-13.653
			c7.526,0,13.653,6.124,13.653,13.653c0,1.48-0.287,2.993-0.881,4.622c-0.787,2.161-0.433,4.577,0.947,6.42
			c1.372,1.84,3.546,2.84,5.886,2.727c0.101-0.007,0.753-0.08,1.06-0.116c7.448,0.104,13.467,6.187,13.467,13.653
			C273.067,144.063,266.94,150.187,259.413,150.187z"/>
	</g>
</g>
<g>
</g>
<g>
</g>
<g>
</g>
<g>
</g>
<g>
</g>
<g>
</g>
<g>
</g>
<g>
</g>
<g>
</g>
<g>
</g>
<g>
</g>
<g>
</g>
<g>
</g>
<g>
</g>
<g>
</g>
</svg>
