<?xml version="1.0" encoding="iso-8859-1"?>
<!-- Generator: Adobe Illustrator 19.0.0, SVG Export Plug-In . SVG Version: 6.00 Build 0)  -->
<svg version="1.1" id="Capa_1" xmlns="http://www.w3.org/2000/svg" xmlns:xlink="http://www.w3.org/1999/xlink" x="0px" y="0px"
	 viewBox="0 0 409.6 409.6" style="enable-background:new 0 0 409.6 409.6;" xml:space="preserve">
<g>
	<g>
		<path d="M299.981,54.613H109.619c-19.036,0-34.526,15.486-34.526,34.526v285.935c0,19.04,15.49,34.526,34.526,34.526h190.362
			c19.036,0,34.526-15.486,34.526-34.526V89.139C334.507,70.1,319.017,54.613,299.981,54.613z M320.853,375.074
			c0,11.506-9.363,20.872-20.873,20.872H109.619c-11.51,0-20.873-9.366-20.873-20.872V89.139c0-11.506,9.363-20.873,20.873-20.873
			h190.362c11.51,0,20.873,9.366,20.873,20.873V375.074z"/>
	</g>
</g>
<g>
	<g>
		<path d="M279.893,34.133H129.707c-3.77,0-6.827,3.053-6.827,6.827v20.48c0,3.773,3.057,6.827,6.827,6.827h150.187
			c3.77,0,6.827-3.053,6.827-6.827V40.96C286.72,37.187,283.663,34.133,279.893,34.133z M273.067,54.613H136.533v-6.827h136.533
			V54.613z"/>
	</g>
</g>
<g>
	<g>
		<path d="M283.307,0H126.293C113.12,0,102.4,10.72,102.4,23.893s10.72,23.893,23.893,23.893h157.013
			c13.174,0,23.893-10.72,23.893-23.893S296.48,0,283.307,0z M283.307,34.133H126.293c-5.647,0-10.24-4.593-10.24-10.24
			s4.593-10.24,10.24-10.24h157.013c5.647,0,10.24,4.593,10.24,10.24S288.954,34.133,283.307,34.133z"/>
	</g>
</g>
<g>
	<g>
		<path d="M300.373,122.88H109.227c-3.77,0-6.827,3.053-6.827,6.827v204.8c0,3.773,3.057,6.827,6.827,6.827h191.147
			c3.77,0,6.827-3.053,6.827-6.827v-204.8C307.2,125.933,304.143,122.88,300.373,122.88z M293.547,327.68H116.053V136.533h177.493
			V327.68z"/>
	</g>
</g>
<g>
	<g>
		<path d="M258.485,162.106c-0.913-2.386-3.087-4.06-5.627-4.34c-19.784-2.219-37.362,12.908-38.103,13.548
			c-2.836,2.473-3.13,6.767-0.664,9.614c2.464,2.84,6.767,3.147,9.624,0.693c0.07-0.068,3.934-3.354,9.597-6.221
			c-2.133,2.806-1.784,6.833,0.896,9.219c1.3,1.161,2.924,1.734,4.54,1.734c1.879,0,3.75-0.773,5.098-2.28l13.36-14.973
			C258.908,167.192,259.401,164.492,258.485,162.106z"/>
	</g>
</g>
<g>
	<g>
		<path d="M206.633,170.252c-0.739-0.647-18.406-15.775-38.103-13.547c-2.54,0.28-4.714,1.954-5.627,4.34
			c-0.917,2.388-0.423,5.088,1.28,6.994l12.974,14.541c1.347,1.507,3.215,2.28,5.096,2.28c1.616,0,3.241-0.573,4.54-1.732
			c2.563-2.287,2.997-6.067,1.161-8.847c5.729,2.881,9.65,6.214,9.719,6.281c2.85,2.466,7.144,2.159,9.62-0.674
			C209.77,177.039,209.473,172.732,206.633,170.252z"/>
	</g>
</g>
<g>
	<g>
		<path d="M225.055,172.392l-7.764-28.454c-0.809-2.966-3.509-5.026-6.586-5.026c-3.079,0-5.775,2.06-6.586,5.033l-7.76,28.454
			c-0.99,3.633,1.154,7.386,4.791,8.38c0.604,0.167,1.207,0.241,1.8,0.241c3.004,0,5.753-1.993,6.581-5.035l1.174-4.306l1.176,4.313
			c0.99,3.627,4.733,5.787,8.383,4.787C223.901,179.785,226.048,176.032,225.055,172.392z"/>
	</g>
</g>
<g>
	<g>
		<path d="M207.297,172.252c-19.857,0-72.6,0-72.6,51.087c0,39.212,42.747,95.353,72.6,95.353c29.853,0,72.596-56.139,72.596-95.353
			C279.893,172.252,227.154,172.252,207.297,172.252z M207.297,305.041c-20.82,0-58.947-48.032-58.947-81.7
			c0-26.588,17.077-37.434,58.947-37.434c41.866,0,58.943,10.846,58.943,37.434C266.24,257.007,228.113,305.041,207.297,305.041z"/>
	</g>
</g>
<g>
</g>
<g>
</g>
<g>
</g>
<g>
</g>
<g>
</g>
<g>
</g>
<g>
</g>
<g>
</g>
<g>
</g>
<g>
</g>
<g>
</g>
<g>
</g>
<g>
</g>
<g>
</g>
<g>
</g>
</svg>
