<?xml version="1.0" encoding="iso-8859-1"?>
<!-- Generator: Adobe Illustrator 19.0.0, SVG Export Plug-In . SVG Version: 6.00 Build 0)  -->
<svg version="1.1" id="Capa_1" xmlns="http://www.w3.org/2000/svg" xmlns:xlink="http://www.w3.org/1999/xlink" x="0px" y="0px"
	 viewBox="0 0 409.6 409.6" style="enable-background:new 0 0 409.6 409.6;" xml:space="preserve">
<g>
	<g>
		<path d="M299.981,54.613H109.619c-19.036,0-34.526,15.486-34.526,34.526v285.935c0,19.04,15.49,34.526,34.526,34.526h190.362
			c19.036,0,34.526-15.486,34.526-34.526V89.139C334.507,70.1,319.017,54.613,299.981,54.613z M320.853,375.074
			c0,11.506-9.363,20.872-20.873,20.872H109.619c-11.51,0-20.873-9.366-20.873-20.872V89.139c0-11.506,9.363-20.873,20.873-20.873
			h190.362c11.51,0,20.873,9.366,20.873,20.873V375.074z"/>
	</g>
</g>
<g>
	<g>
		<path d="M279.893,34.133H129.707c-3.77,0-6.827,3.053-6.827,6.827v20.48c0,3.773,3.057,6.827,6.827,6.827h150.187
			c3.77,0,6.827-3.053,6.827-6.827V40.96C286.72,37.187,283.663,34.133,279.893,34.133z M273.067,54.613H136.533v-6.827h136.533
			V54.613z"/>
	</g>
</g>
<g>
	<g>
		<path d="M283.307,0H126.293C113.12,0,102.4,10.72,102.4,23.893s10.72,23.893,23.893,23.893h157.013
			c13.174,0,23.893-10.72,23.893-23.893S296.48,0,283.307,0z M283.307,34.133H126.293c-5.647,0-10.24-4.593-10.24-10.24
			s4.593-10.24,10.24-10.24h157.013c5.647,0,10.24,4.593,10.24,10.24S288.954,34.133,283.307,34.133z"/>
	</g>
</g>
<g>
	<g>
		<path d="M300.373,122.88H109.227c-3.77,0-6.827,3.053-6.827,6.827v204.8c0,3.773,3.057,6.827,6.827,6.827h191.147
			c3.77,0,6.827-3.053,6.827-6.827v-204.8C307.2,125.933,304.143,122.88,300.373,122.88z M293.547,327.68H116.053V136.533h177.493
			V327.68z"/>
	</g>
</g>
<g>
	<g>
		<path d="M254.336,152.344c-0.811-2.565-3.048-4.419-5.717-4.733c-8.509-0.988-19.712,0.379-33.386,4.093l-7.68-7.421
			c-2.647-2.56-6.84-2.56-9.487,0l-8.127,7.847c-6.907-3.273-17.137-6.659-28.097-5.106c-2.591,0.36-4.743,2.167-5.547,4.654
			c-0.807,2.487-0.125,5.214,1.76,7.026l17.623,16.954c0.148,0.147,0.305,0.28,0.469,0.406l2.953,4.287
			c1.326,1.915,3.458,2.947,5.627,2.947c1.336,0,2.686-0.393,3.876-1.21c3.103-2.14,3.883-6.393,1.742-9.499l-4.057-5.879
			c-0.613-0.879-1.42-1.567-2.336-2.046l-0.539-0.521c1.679,0.775,3.144,1.555,4.323,2.234c2.642,1.526,5.966,1.113,8.153-1.007
			l6.924-6.687l5.76,5.56c1.76,1.713,4.292,2.307,6.663,1.647c4.666-1.374,9.037-2.459,13.059-3.267l-9.957,8.767
			c-2.797,2.519-3.021,6.839-0.497,9.639c2.519,2.787,6.832,3.026,9.639,0.493l24.88-22.033
			C254.37,157.705,255.143,154.904,254.336,152.344z"/>
	</g>
</g>
<g>
	<g>
		<path d="M295.236,232.806c0-9.226-4.756-17.707-12.29-22.613c0.143-1.172,0.217-2.353,0.217-3.546
			c0-15.974-12.995-28.967-28.967-28.967c-4.395,0-8.666,0.986-12.541,2.847c-4.977-6.733-12.926-10.894-21.67-10.894
			c-5.837,0-11.491,1.927-16.101,5.354c-4.615-3.427-10.271-5.354-16.104-5.354c-8.743,0-16.693,4.161-21.67,10.894
			c-3.874-1.86-8.148-2.847-12.541-2.847c-15.974,0-28.967,12.995-28.967,28.967c0,1.193,0.073,2.372,0.217,3.546
			c-7.53,4.907-12.29,13.387-12.29,22.613c0,8.045,3.644,15.606,9.656,20.666c-1.06,3.04-1.606,6.26-1.606,9.527
			c0,12.786,8.439,23.834,20.159,27.593c0.35,6.694,3.137,12.921,7.939,17.661c4.451,4.388,10.208,7.067,16.447,7.707
			c6.436,4.9,23.023,12.513,38.757,12.513c12.136,0,30.433-5.927,38.707-12.474c13.233-1.213,23.729-12.034,24.436-25.407
			c11.716-3.76,20.159-14.807,20.159-27.593c0-3.267-0.546-6.487-1.606-9.527C291.593,248.414,295.236,240.853,295.236,232.806z
			 M273.937,244.852c-1.78,0.835-3.111,2.401-3.651,4.287c-0.543,1.894-0.246,3.927,0.818,5.581
			c1.587,2.468,2.427,5.333,2.427,8.281c0,7.992-6.236,14.7-14.199,15.273c-1.963,0.14-3.773,1.12-4.96,2.693
			c-1.188,1.567-1.637,3.574-1.237,5.507c0.179,0.867,0.273,1.773,0.273,2.686c0,7.334-5.967,13.3-13.3,13.3
			c-2.147,0-4.081,0.993-5.337,2.574c-2.961,2.193-17.003,9.786-30.887,9.786c-13.742,0-27.206-7.253-30.269-9.513
			c-0.087-0.121-0.177-0.234-0.266-0.346c-1.297-1.587-3.237-2.507-5.284-2.507h-0.003c-0.003,0-0.007,0-0.01,0
			c-3.741,0-7.214-1.394-9.777-3.927c-2.524-2.487-3.913-5.813-3.913-9.366c0-0.913,0.094-1.819,0.273-2.686
			c0.399-1.934-0.051-3.941-1.237-5.507c-1.186-1.574-2.997-2.553-4.96-2.693c-7.963-0.573-14.199-7.279-14.199-15.273
			c0-2.947,0.84-5.815,2.427-8.281c1.065-1.654,1.36-3.688,0.818-5.581c-0.541-1.888-1.871-3.454-3.651-4.287
			c-4.644-2.188-7.644-6.921-7.644-12.047c0-5.581,3.529-10.614,8.782-12.513c3.511-1.273,5.347-5.127,4.123-8.653
			c-0.553-1.601-0.833-3.28-0.833-4.994c0-8.448,6.871-15.314,15.314-15.314c3.874,0,7.571,1.454,10.407,4.081
			c1.707,1.586,4.12,2.193,6.369,1.606c2.256-0.594,4.057-2.294,4.774-4.514c1.773-5.513,6.861-9.219,12.66-9.219
			c4.222,0,8.103,1.94,10.646,5.32c2.579,3.441,8.335,3.427,10.916,0c2.536-3.379,6.415-5.32,10.639-5.32
			c5.799,0,10.887,3.707,12.66,9.219c0.717,2.22,2.517,3.92,4.774,4.514c2.256,0.594,4.659-0.012,6.369-1.606
			c2.836-2.627,6.533-4.081,10.407-4.081c8.445,0,15.314,6.868,15.314,15.314c0,1.714-0.28,3.393-0.833,4.994
			c-1.224,3.526,0.613,7.38,4.123,8.653c5.253,1.9,8.782,6.932,8.782,12.513C281.581,237.932,278.581,242.666,273.937,244.852z"/>
	</g>
</g>
<g>
	<g>
		<path d="M189.897,229.487c-3.77,0-6.827,3.053-6.827,6.827c0,1.881-1.529,3.413-3.413,3.413c-1.884,0-3.413-1.533-3.413-3.413
			c0-3.773-3.057-6.827-6.827-6.827c-3.77,0-6.827,3.053-6.827,6.827c0,9.414,7.656,17.067,17.067,17.067
			c9.409,0,17.067-7.654,17.067-17.067C196.724,232.54,193.667,229.487,189.897,229.487z"/>
	</g>
</g>
<g>
	<g>
		<path d="M237.684,256.794c-3.77,0-6.827,3.053-6.827,6.827c0,1.881-1.529,3.413-3.413,3.413c-1.884,0-3.413-1.533-3.413-3.413
			c0-3.773-3.057-6.827-6.827-6.827s-6.827,3.053-6.827,6.827c0,9.414,7.656,17.067,17.067,17.067
			c9.409,0,17.067-7.654,17.067-17.067C244.511,259.847,241.454,256.794,237.684,256.794z"/>
	</g>
</g>
<g>
</g>
<g>
</g>
<g>
</g>
<g>
</g>
<g>
</g>
<g>
</g>
<g>
</g>
<g>
</g>
<g>
</g>
<g>
</g>
<g>
</g>
<g>
</g>
<g>
</g>
<g>
</g>
<g>
</g>
</svg>
