<?xml version="1.0" encoding="iso-8859-1"?>
<!-- Generator: Adobe Illustrator 19.0.0, SVG Export Plug-In . SVG Version: 6.00 Build 0)  -->
<svg version="1.1" id="Capa_1" xmlns="http://www.w3.org/2000/svg" xmlns:xlink="http://www.w3.org/1999/xlink" x="0px" y="0px"
	 viewBox="0 0 409.6 409.6" style="enable-background:new 0 0 409.6 409.6;" xml:space="preserve">
<g>
	<g>
		<path d="M299.981,54.613H109.619c-19.036,0-34.526,15.486-34.526,34.526v285.935c0,19.04,15.49,34.526,34.526,34.526h190.362
			c19.036,0,34.526-15.486,34.526-34.526V89.139C334.507,70.1,319.017,54.613,299.981,54.613z M320.853,375.074
			c0,11.506-9.363,20.872-20.873,20.872H109.619c-11.51,0-20.873-9.366-20.873-20.872V89.139c0-11.506,9.363-20.873,20.873-20.873
			h190.362c11.51,0,20.873,9.366,20.873,20.873V375.074z"/>
	</g>
</g>
<g>
	<g>
		<path d="M279.893,34.133H129.707c-3.77,0-6.827,3.053-6.827,6.827v20.48c0,3.773,3.057,6.827,6.827,6.827h150.187
			c3.77,0,6.827-3.053,6.827-6.827V40.96C286.72,37.187,283.663,34.133,279.893,34.133z M273.067,54.613H136.533v-6.827h136.533
			V54.613z"/>
	</g>
</g>
<g>
	<g>
		<path d="M283.307,0H126.293C113.12,0,102.4,10.72,102.4,23.893s10.72,23.893,23.893,23.893h157.013
			c13.174,0,23.893-10.72,23.893-23.893S296.48,0,283.307,0z M283.307,34.133H126.293c-5.647,0-10.24-4.593-10.24-10.24
			s4.593-10.24,10.24-10.24h157.013c5.647,0,10.24,4.593,10.24,10.24S288.954,34.133,283.307,34.133z"/>
	</g>
</g>
<g>
	<g>
		<path d="M300.373,122.88H109.227c-3.77,0-6.827,3.053-6.827,6.827v204.8c0,3.773,3.057,6.827,6.827,6.827h191.147
			c3.77,0,6.827-3.053,6.827-6.827v-204.8C307.2,125.933,304.143,122.88,300.373,122.88z M293.547,327.68H116.053V136.533h177.493
			V327.68z"/>
	</g>
</g>
<g>
	<g>
		<path d="M261.137,172.414c-1.353-3.12-4.796-4.753-8.086-3.86c-2.48,0.695-60.89,17.374-76.59,61.254
			c-1.27,3.546,0.577,7.46,4.127,8.726c3.557,1.287,7.46-0.58,8.726-4.127c7.351-20.54,26.987-34.427,43.18-42.76
			c-7.578,17.961-5.714,39.134-4,49.874c0.532,3.36,3.432,5.753,6.729,5.753c0.36,0,0.72-0.027,1.085-0.085
			c3.722-0.594,6.263-4.093,5.666-7.813c-1.647-10.341-5.332-45.1,16.463-58.414C261.344,179.181,262.494,175.541,261.137,172.414z"
			/>
	</g>
</g>
<g>
	<g>
		<path d="M244.343,162.266c-0.753-0.753-18.871-18.427-46.51-17.833c-21.533,0.48-42.51,11.72-62.339,33.413
			c-2.466,2.693-2.374,6.852,0.21,9.433c1.543,1.539,10.336,9.313,30.766,9.313c16.763,0,41.363-5.233,76.209-23.451
			c1.923-1,3.258-2.867,3.584-5.014C246.593,165.98,245.879,163.799,244.343,162.266z M151.743,180.714
			c15.196-14.614,30.706-22.221,46.196-22.625c12.138-0.461,22.144,3.966,28.621,7.859
			C184.439,186.054,161.746,183.941,151.743,180.714z"/>
	</g>
</g>
<g>
	<g>
		<path d="M269.3,240.608c-8.04-8.047-18.36-7.641-27.44-7.287c-3.98,0.16-8.233,0.16-12.206,0
			c-9.114-0.358-19.403-0.759-27.443,7.287c-8.96,8.96-13.894,20.886-13.894,33.567c0,26.179,21.28,47.473,47.44,47.473
			c26.16,0,47.44-21.294,47.44-47.473C283.197,261.494,278.263,249.574,269.3,240.608z M235.757,307.994
			c-18.63,0-33.787-15.172-33.787-33.819c0-9.04,3.514-17.534,9.894-23.914c2.785-2.787,6.39-3.434,11.773-3.434
			c1.65,0,3.47,0.06,5.485,0.14c4.326,0.16,8.946,0.16,13.273,0c8.573-0.333,13.609-0.346,17.253,3.294
			c6.38,6.386,9.897,14.88,9.897,23.914C269.544,292.82,254.387,307.994,235.757,307.994z"/>
	</g>
</g>
<g>
	<g>
		<path d="M170.904,301.169c-19.014,0-34.48-15.172-34.48-33.819c0-9.013,3.574-17.493,10.057-23.873
			c3.743-3.686,8.89-3.686,17.683-3.333c4.393,0.16,9.086,0.16,13.479,0c8.793-0.34,13.94-0.346,17.683,3.333
			c1.423,1.406,2.739,2.946,3.91,4.599l11.133-7.907c-1.633-2.301-3.477-4.468-5.473-6.427c-8.125-8.006-18.575-7.6-27.776-7.246
			c-4.053,0.16-8.38,0.16-12.433,0c-9.199-0.353-19.645-0.759-27.779,7.246c-9.117,8.965-14.136,20.907-14.136,33.606
			c0,26.179,21.593,47.473,48.133,47.473c13.196,0,25.964-5.434,35.019-14.906l-9.866-9.44
			C189.464,297.368,180.535,301.169,170.904,301.169z"/>
	</g>
</g>
<g>
</g>
<g>
</g>
<g>
</g>
<g>
</g>
<g>
</g>
<g>
</g>
<g>
</g>
<g>
</g>
<g>
</g>
<g>
</g>
<g>
</g>
<g>
</g>
<g>
</g>
<g>
</g>
<g>
</g>
</svg>
