<?xml version="1.0" encoding="iso-8859-1"?>
<!-- Generator: Adobe Illustrator 19.0.0, SVG Export Plug-In . SVG Version: 6.00 Build 0)  -->
<svg version="1.1" id="Capa_1" xmlns="http://www.w3.org/2000/svg" xmlns:xlink="http://www.w3.org/1999/xlink" x="0px" y="0px"
	 viewBox="0 0 409.6 409.6" style="enable-background:new 0 0 409.6 409.6;" xml:space="preserve">
<g>
	<g>
		<path d="M299.981,54.613H109.619c-19.036,0-34.526,15.486-34.526,34.526v285.935c0,19.04,15.49,34.526,34.526,34.526h190.362
			c19.036,0,34.526-15.486,34.526-34.526V89.139C334.507,70.1,319.017,54.613,299.981,54.613z M320.853,375.074
			c0,11.506-9.363,20.872-20.873,20.872H109.619c-11.51,0-20.873-9.366-20.873-20.872V89.139c0-11.506,9.363-20.873,20.873-20.873
			h190.362c11.51,0,20.873,9.366,20.873,20.873V375.074z"/>
	</g>
</g>
<g>
	<g>
		<path d="M279.893,34.133H129.707c-3.77,0-6.827,3.053-6.827,6.827v20.48c0,3.773,3.057,6.827,6.827,6.827h150.187
			c3.77,0,6.827-3.053,6.827-6.827V40.96C286.72,37.187,283.663,34.133,279.893,34.133z M273.067,54.613H136.533v-6.827h136.533
			V54.613z"/>
	</g>
</g>
<g>
	<g>
		<path d="M283.307,0H126.293C113.12,0,102.4,10.72,102.4,23.893s10.72,23.893,23.893,23.893h157.013
			c13.174,0,23.893-10.72,23.893-23.893S296.48,0,283.307,0z M283.307,34.133H126.293c-5.647,0-10.24-4.593-10.24-10.24
			s4.593-10.24,10.24-10.24h157.013c5.647,0,10.24,4.593,10.24,10.24S288.954,34.133,283.307,34.133z"/>
	</g>
</g>
<g>
	<g>
		<path d="M300.373,122.88H109.227c-3.77,0-6.827,3.053-6.827,6.827v204.8c0,3.773,3.057,6.827,6.827,6.827h191.147
			c3.77,0,6.827-3.053,6.827-6.827v-204.8C307.2,125.933,304.143,122.88,300.373,122.88z M293.547,327.68H116.053V136.533h177.493
			V327.68z"/>
	</g>
</g>
<g>
	<g>
		<path d="M274.396,141.834c-24.837-14.447-57.074-8.375-74.988,14.126c-2.35,2.953-1.864,7.247,1.087,9.593
			c2.953,2.347,7.247,1.865,9.593-1.087c13.723-17.241,38.407-21.907,57.44-10.834c21.484,12.508,28.863,40.301,16.454,61.967
			c-3.889,6.786-9.46,12.459-16.109,16.393c-3.243,1.92-4.32,6.108-2.4,9.347c1.277,2.161,3.55,3.354,5.883,3.354
			c1.179,0,2.381-0.307,3.47-0.952c8.677-5.134,15.94-12.52,21.004-21.354C311.956,194.234,302.343,158.1,274.396,141.834z"/>
	</g>
</g>
<g>
	<g>
		<path d="M206.147,156.266c-14.944-8.655-32.364-10.947-49.046-6.494c-16.707,4.48-30.67,15.213-39.313,30.234
			c-17.823,30.954-7.207,70.687,23.67,88.567c9.943,5.755,20.932,8.707,32.196,8.707c2.864,0,5.746-0.188,8.634-0.575
			c3.738-0.5,6.361-3.932,5.864-7.666c-0.497-3.741-3.942-6.374-7.67-5.867c-11.22,1.48-22.349-0.727-32.186-6.414
			c-24.373-14.119-32.753-45.493-18.676-69.939c6.82-11.853,17.836-20.326,31.014-23.859c13.146-3.519,26.88-1.7,38.673,5.12
			c15.73,9.112,25.51,26.105,25.527,44.346c0.003,3.767,3.06,6.82,6.827,6.82c0.003,0,0.003,0,0.007,0c3.77,0,6.823-3.06,6.82-6.833
			C238.467,189.319,226.077,167.806,206.147,156.266z"/>
	</g>
</g>
<g>
	<g>
		<g>
			<polygon points="165.091,188.788 152.989,199.571 137.115,196.284 147.898,208.387 144.611,224.259 156.715,213.477 
				172.588,216.764 161.806,204.66 			"/>
			<polygon points="268.477,168.308 253.996,175.59 239.515,168.308 246.798,182.789 239.515,197.27 253.996,189.988 
				268.477,197.27 261.195,182.789 			"/>
		</g>
	</g>
</g>
<g>
	<g>
		<path d="M232.344,212.68c-31.804,0-57.68,26.034-57.68,58.027s25.876,58.027,57.68,58.027c31.802,0,57.68-26.034,57.68-58.027
			S264.148,212.68,232.344,212.68z M232.344,315.08c-24.277,0-44.027-19.907-44.027-44.373c0-24.467,19.75-44.373,44.027-44.373
			c24.276,0,44.027,19.907,44.027,44.373C276.371,295.173,256.621,315.08,232.344,315.08z"/>
	</g>
</g>
<g>
	<g>
		<polygon points="237.757,239.988 223.276,247.27 208.795,239.988 216.078,254.469 208.795,268.95 223.276,261.668 237.757,268.95 
			230.475,254.469 		"/>
	</g>
</g>
<g>
</g>
<g>
</g>
<g>
</g>
<g>
</g>
<g>
</g>
<g>
</g>
<g>
</g>
<g>
</g>
<g>
</g>
<g>
</g>
<g>
</g>
<g>
</g>
<g>
</g>
<g>
</g>
<g>
</g>
</svg>
