<?xml version="1.0" encoding="iso-8859-1"?>
<!-- Generator: Adobe Illustrator 19.0.0, SVG Export Plug-In . SVG Version: 6.00 Build 0)  -->
<svg version="1.1" id="Capa_1" xmlns="http://www.w3.org/2000/svg" xmlns:xlink="http://www.w3.org/1999/xlink" x="0px" y="0px"
	 viewBox="0 0 423.253 423.253" style="enable-background:new 0 0 423.253 423.253;" xml:space="preserve">
<g>
	<g>
		<path d="M348.16,157.013H68.267c-3.773,0-6.827,3.057-6.827,6.827v211.627c0,3.77,3.053,6.827,6.827,6.827H348.16
			c3.773,0,6.827-3.057,6.827-6.827V163.84C354.987,160.07,351.933,157.013,348.16,157.013z M341.333,368.64H75.093V170.667h266.24
			V368.64z"/>
	</g>
</g>
<g>
	<g>
		<path d="M320.596,250.709l-13.653-47.787c-0.841-2.929-3.521-4.949-6.567-4.949h-184.32c-3.048,0-5.728,2.019-6.567,4.949
			l-13.653,47.787c-0.587,2.06-0.174,4.277,1.113,5.987c1.292,1.71,3.313,2.717,5.453,2.717h211.627c2.14,0,4.161-1.007,5.456-2.717
			C320.77,254.986,321.183,252.769,320.596,250.709z M111.454,245.76l9.747-34.133h174.027l9.747,34.133H111.454z"/>
	</g>
</g>
<g>
	<g>
		<path d="M416.427,368.64H6.827c-3.773,0-6.827,3.057-6.827,6.827v27.307c0,3.77,3.053,6.827,6.827,6.827h409.6
			c3.773,0,6.827-3.057,6.827-6.827v-27.307C423.253,371.697,420.2,368.64,416.427,368.64z M409.6,395.947H13.653v-13.653H409.6
			V395.947z"/>
	</g>
</g>
<g>
	<g>
		<path d="M300.373,245.76h-184.32c-3.773,0-6.827,3.057-6.827,6.827v81.92c0,3.77,3.053,6.827,6.827,6.827h184.32
			c3.773,0,6.827-3.057,6.827-6.827v-81.92C307.2,248.817,304.147,245.76,300.373,245.76z M293.547,327.68H122.88v-68.267h170.667
			V327.68z"/>
	</g>
</g>
<g>
	<g>
		<path d="M116.053,116.053c-3.773,0-6.827,3.057-6.827,6.827v40.96c0,3.77,3.053,6.827,6.827,6.827s6.827-3.057,6.827-6.827v-40.96
			C122.88,119.11,119.827,116.053,116.053,116.053z"/>
	</g>
</g>
<g>
	<g>
		<path d="M300.373,116.053c-3.773,0-6.827,3.057-6.827,6.827v40.96c0,3.77,3.053,6.827,6.827,6.827s6.827-3.057,6.827-6.827v-40.96
			C307.2,119.11,304.147,116.053,300.373,116.053z"/>
	</g>
</g>
<g>
	<g>
		<path d="M375.467,13.653H40.96c-3.773,0-6.827,3.057-6.827,6.827v95.573c0,3.77,3.053,6.827,6.827,6.827h334.507
			c3.773,0,6.827-3.057,6.827-6.827V20.48C382.293,16.71,379.24,13.653,375.467,13.653z M368.64,109.227H47.787v-81.92H368.64
			V109.227z"/>
	</g>
</g>
<g>
	<g>
		<path d="M141.966,62.218c-0.734-1.799-1.688-3.26-2.86-4.379c-1.172-1.12-2.493-1.92-3.959-2.4c-1.466-0.48-2.934-0.72-4.4-0.72
			c-1.092,0-2.198,0.113-3.319,0.34s-2.174,0.567-3.161,1.021s-1.867,1.019-2.64,1.7c-0.773,0.681-1.36,1.475-1.76,2.381
			c-1.172-1.922-2.586-3.307-4.239-4.161s-3.36-1.28-5.12-1.28c-1.28,0-2.442,0.207-3.482,0.62c-1.039,0.413-1.959,0.94-2.76,1.58
			s-1.459,1.36-1.98,2.161c-0.521,0.8-0.899,1.587-1.14,2.36c0-0.533-0.039-1.186-0.119-1.959s-0.321-1.514-0.72-2.22
			c-0.399-0.707-1.005-1.307-1.819-1.801c-0.814-0.493-1.954-0.741-3.42-0.741c-1.439,0-2.567,0.259-3.379,0.78
			c-0.812,0.521-1.418,1.207-1.819,2.06s-0.647,1.819-0.741,2.9s-0.14,2.181-0.14,3.301v21.92c0,1.121,0.058,2.22,0.179,3.301
			s0.387,2.046,0.8,2.9s1.019,1.539,1.819,2.06c0.8,0.521,1.893,0.78,3.28,0.78s2.485-0.258,3.284-0.778
			c0.799-0.521,1.406-1.207,1.819-2.06s0.681-1.819,0.8-2.9c0.119-1.08,0.179-2.181,0.179-3.301v-7.76
			c0-1.947,0.073-3.761,0.22-5.441c0.147-1.679,0.413-3.139,0.8-4.379c0.387-1.241,0.915-2.22,1.58-2.941s1.533-1.08,2.599-1.08
			c0.799,0,1.434,0.166,1.9,0.5c0.466,0.334,0.819,0.768,1.06,1.3c0.241,0.532,0.394,1.147,0.461,1.84
			c0.067,0.693,0.101,1.399,0.101,2.12v15.84c0,1.121,0.06,2.22,0.179,3.301s0.393,2.046,0.819,2.9
			c0.427,0.853,1.041,1.539,1.84,2.06c0.799,0.521,1.879,0.78,3.239,0.78c1.386,0,2.488-0.259,3.302-0.78
			c0.814-0.521,1.434-1.207,1.86-2.06c0.427-0.853,0.7-1.819,0.819-2.9c0.119-1.08,0.179-2.181,0.179-3.301v-11.04
			c0.08-1.521,0.227-2.927,0.44-4.221s0.521-2.406,0.92-3.34c0.399-0.934,0.901-1.666,1.5-2.2c0.599-0.534,1.326-0.8,2.179-0.8
			c0.8,0,1.44,0.166,1.92,0.5c0.48,0.335,0.841,0.768,1.08,1.3s0.399,1.147,0.48,1.84c0.08,0.693,0.12,1.399,0.12,2.12v15.84
			c0,1.121,0.06,2.22,0.179,3.301c0.119,1.08,0.393,2.046,0.819,2.9c0.427,0.853,1.046,1.539,1.86,2.06
			c0.814,0.521,1.915,0.78,3.301,0.78c1.36,0,2.446-0.259,3.26-0.78c0.814-0.521,1.434-1.207,1.86-2.06
			c0.427-0.853,0.707-1.819,0.84-2.9s0.2-2.181,0.2-3.301v-16.8C143.066,66.237,142.7,64.017,141.966,62.218z"/>
	</g>
</g>
<g>
	<g>
		<path d="M184.264,85.68V63.84c0-1.145-0.058-2.272-0.179-3.379c-0.121-1.108-0.387-2.08-0.8-2.92
			c-0.413-0.84-1.019-1.519-1.819-2.039s-1.867-0.78-3.2-0.78c-0.72,0-1.445,0.101-2.179,0.3c-0.734,0.2-1.393,0.561-1.98,1.08
			c-0.587,0.519-1.067,1.22-1.44,2.099c-0.374,0.879-0.56,1.987-0.56,3.319c-0.241-0.799-0.58-1.599-1.021-2.4
			c-0.44-0.8-1.007-1.521-1.7-2.161c-0.693-0.64-1.527-1.159-2.5-1.56c-0.973-0.401-2.113-0.601-3.42-0.601
			c-1.466,0-2.934,0.241-4.4,0.72c-1.466,0.481-2.785,1.273-3.959,2.381c-1.174,1.108-2.127,2.56-2.86,4.361
			c-0.734,1.801-1.101,4.035-1.101,6.7v11.6c0,2.64,0.367,4.861,1.101,6.659s1.688,3.26,2.86,4.379c1.172,1.12,2.493,1.92,3.959,2.4
			c1.466,0.48,2.934,0.72,4.4,0.72c1.307,0,2.446-0.206,3.42-0.62c0.975-0.413,1.807-0.94,2.5-1.58s1.26-1.36,1.7-2.161
			s0.78-1.587,1.021-2.36c0,0.532,0.046,1.186,0.14,1.959s0.341,1.514,0.741,2.22c0.399,0.707,1.012,1.307,1.84,1.801
			c0.828,0.493,1.975,0.741,3.441,0.741c1.44,0,2.56-0.259,3.36-0.78c0.8-0.521,1.401-1.207,1.8-2.06s0.64-1.819,0.72-2.9
			c0.08-1.08,0.12-2.181,0.12-3.301H184.264z M171.846,78.821c-0.147,1.48-0.408,2.705-0.78,3.68
			c-0.372,0.974-0.886,1.695-1.539,2.161c-0.654,0.466-1.5,0.7-2.54,0.7c-0.828,0-1.475-0.167-1.94-0.5
			c-0.466-0.333-0.819-0.778-1.06-1.34c-0.241-0.561-0.387-1.188-0.44-1.881c-0.053-0.693-0.08-1.399-0.08-2.12h-0.002v-9.68
			c0-0.693,0.027-1.381,0.08-2.06c0.053-0.679,0.2-1.285,0.44-1.819s0.592-0.968,1.06-1.3c0.468-0.333,1.114-0.5,1.94-0.5
			c1.039,0,1.893,0.333,2.56,1c0.667,0.667,1.186,1.48,1.56,2.44c0.374,0.961,0.633,1.98,0.78,3.06c0.147,1.08,0.22,2.034,0.22,2.86
			C172.08,75.575,171.993,77.341,171.846,78.821z"/>
	</g>
</g>
<g>
	<g>
		<path d="M219.187,58.039c-0.133-0.746-0.387-1.36-0.759-1.84c-0.372-0.48-0.886-0.833-1.539-1.06s-1.5-0.34-2.54-0.34
			c-0.853,0-1.707,0.225-2.56,0.679s-1.652,1.101-2.4,1.94c-0.746,0.841-1.427,1.867-2.039,3.081
			c-0.613,1.213-1.106,2.567-1.48,4.06h-0.64c0-1.092-0.026-2.219-0.08-3.379c-0.055-1.161-0.254-2.215-0.601-3.161
			c-0.346-0.945-0.886-1.72-1.62-2.319c-0.734-0.599-1.78-0.899-3.14-0.899c-1.335,0-2.388,0.247-3.161,0.741
			s-1.367,1.154-1.78,1.98c-0.413,0.826-0.681,1.766-0.8,2.819c-0.119,1.053-0.179,2.14-0.179,3.26v22.4
			c0,1.094,0.058,2.161,0.179,3.2c0.121,1.039,0.387,1.968,0.8,2.78c0.413,0.812,1.005,1.473,1.78,1.98
			c0.775,0.507,1.828,0.759,3.161,0.759c1.358,0,2.439-0.253,3.239-0.759c0.8-0.507,1.413-1.166,1.84-1.98
			c0.427-0.814,0.7-1.741,0.819-2.78s0.179-2.106,0.179-3.2v-11.44c0-1.227,0.147-2.282,0.44-3.161
			c0.294-0.879,0.681-1.606,1.161-2.179s1.007-1.027,1.58-1.36s1.14-0.585,1.7-0.759s1.087-0.282,1.58-0.321s0.874-0.06,1.14-0.06
			c1.893,0,3.352-0.481,4.379-1.44c1.026-0.961,1.539-2.48,1.539-4.56C219.387,59.68,219.32,58.784,219.187,58.039z"/>
	</g>
</g>
<g>
	<g>
		<path d="M256.548,86.74c-0.348-0.973-0.761-1.94-1.241-2.9l-7.84-14.961l7.199-8.48c0.746-0.906,1.12-1.893,1.12-2.959
			c0-0.828-0.167-1.568-0.5-2.22c-0.333-0.652-0.76-1.212-1.28-1.679c-0.521-0.468-1.12-0.826-1.801-1.08
			c-0.681-0.254-1.353-0.381-2.021-0.381c-0.693,0-1.36,0.126-2,0.381c-0.64,0.254-1.2,0.661-1.679,1.22l-8.24,9.68h-0.64V47.601
			c0-1.12-0.039-2.214-0.12-3.28c-0.08-1.067-0.3-2.014-0.66-2.84c-0.36-0.826-0.918-1.493-1.679-2s-1.835-0.759-3.221-0.759
			c-1.36,0-2.42,0.253-3.18,0.759s-1.328,1.174-1.7,2c-0.372,0.826-0.599,1.773-0.679,2.84c-0.08,1.067-0.12,2.161-0.12,3.28h0.005
			V85.76c0,1.121,0.041,2.22,0.119,3.301s0.305,2.039,0.679,2.881s0.94,1.514,1.7,2.021s1.819,0.759,3.18,0.759
			c1.388,0,2.461-0.253,3.221-0.759s1.319-1.179,1.679-2.021c0.36-0.841,0.58-1.801,0.66-2.881c0.08-1.08,0.12-2.181,0.12-3.301
			v-6.721h2.239l4.48,9.52c0.266,0.614,0.599,1.28,1,2c0.401,0.72,0.862,1.394,1.381,2.021c0.519,0.626,1.126,1.154,1.819,1.58
			c0.693,0.427,1.48,0.64,2.36,0.64c0.693,0,1.406-0.113,2.14-0.34c0.734-0.227,1.401-0.56,2-1c0.599-0.44,1.085-0.993,1.459-1.661
			s0.56-1.427,0.56-2.28C257.068,88.639,256.896,87.712,256.548,86.74z"/>
	</g>
</g>
<g>
	<g>
		<path d="M298.109,66.343c-0.108-1.108-0.346-2.2-0.72-3.28c-0.372-1.08-0.934-2.128-1.679-3.14c-0.746-1.012-1.76-1.905-3.04-2.68
			c-1.28-0.775-2.874-1.401-4.78-1.881c-1.906-0.48-4.207-0.72-6.9-0.72c-0.8,0-1.753,0.039-2.86,0.119
			c-1.108,0.08-2.273,0.282-3.5,0.601c-1.227,0.319-2.441,0.807-3.64,1.459c-1.2,0.652-2.28,1.567-3.239,2.739
			c-0.959,1.172-1.741,2.64-2.34,4.4c-0.599,1.76-0.899,3.907-0.899,6.439v9.363c0,2.746,0.454,5.067,1.36,6.96
			c0.908,1.893,2.128,3.425,3.661,4.599c1.533,1.174,3.299,2.028,5.299,2.56c2,0.532,4.106,0.812,6.32,0.84
			c1.681,0,3.488-0.147,5.42-0.44c1.932-0.294,3.726-0.787,5.379-1.48c1.654-0.693,3.026-1.62,4.12-2.78
			c1.094-1.161,1.64-2.606,1.64-4.34c0-0.828-0.147-1.5-0.44-2.021c-0.294-0.521-0.679-0.927-1.161-1.22
			c-0.481-0.294-1.034-0.493-1.661-0.601c-0.626-0.108-1.273-0.16-1.94-0.16c-1.386,0-2.473,0.126-3.26,0.381
			c-0.787,0.254-1.399,0.567-1.84,0.94c-0.44,0.374-0.794,0.773-1.06,1.2c-0.266,0.427-0.567,0.826-0.899,1.2
			c-0.333,0.374-0.787,0.686-1.36,0.94c-0.573,0.254-1.393,0.381-2.459,0.381c-0.934,0-1.72-0.186-2.36-0.56
			c-0.64-0.374-1.152-0.853-1.539-1.44c-0.387-0.587-0.661-1.227-0.821-1.92c-0.16-0.693-0.241-1.36-0.241-2v-3.84h15.92
			c1.413,0,2.507-0.186,3.28-0.56s1.34-0.819,1.7-1.34c0.36-0.521,0.567-1.067,0.62-1.64s0.08-1.073,0.08-1.5h0.002v-2.478
			C298.269,68.483,298.216,67.451,298.109,66.343z M276.666,70.96h-0.003v-2.799c0-0.454,0.039-0.973,0.12-1.56
			c0.08-0.587,0.282-1.14,0.601-1.661c0.319-0.521,0.794-0.954,1.42-1.3s1.486-0.521,2.58-0.521c1.307,0,2.314,0.174,3.021,0.521
			s1.225,0.855,1.56,1.521c0.335,0.666,0.534,1.487,0.601,2.459c0.067,0.973,0.101,2.087,0.101,3.34H276.666z"/>
	</g>
</g>
<g>
	<g>
		<path d="M331.761,84.439c-0.439-0.374-1-0.633-1.679-0.78c-0.679-0.147-1.5-0.22-2.459-0.22c-0.879,0-1.56-0.167-2.039-0.5
			c-0.48-0.333-0.84-0.753-1.08-1.26c-0.241-0.507-0.381-1.062-0.42-1.661c-0.039-0.599-0.06-1.167-0.06-1.7v-14h3.28
			c0.695,0,1.388-0.048,2.08-0.14c0.693-0.092,1.314-0.299,1.86-0.62c0.546-0.321,0.986-0.8,1.319-1.44
			c0.333-0.64,0.5-1.505,0.5-2.599c0-1.147-0.167-2.039-0.5-2.679c-0.333-0.64-0.773-1.12-1.319-1.44
			c-0.546-0.321-1.166-0.514-1.86-0.58c-0.695-0.067-1.388-0.101-2.08-0.101h-3.28v-7.04c0-1.12-0.058-2.214-0.179-3.28
			s-0.387-2.021-0.8-2.86c-0.413-0.84-1.019-1.519-1.819-2.039c-0.8-0.521-1.867-0.78-3.2-0.78c-1.359,0-2.439,0.261-3.239,0.78
			c-0.8,0.519-1.413,1.2-1.84,2.039c-0.427,0.84-0.7,1.794-0.819,2.86s-0.179,2.161-0.179,3.28v7.04h-2.248
			c-0.693,0-1.381,0.034-2.06,0.101c-0.679,0.067-1.285,0.259-1.819,0.58c-0.534,0.321-0.968,0.8-1.3,1.44
			c-0.333,0.64-0.5,1.533-0.5,2.679c0,1.092,0.166,1.959,0.5,2.599c0.335,0.64,0.768,1.121,1.3,1.44s1.14,0.526,1.819,0.62
			c0.679,0.094,1.367,0.14,2.06,0.14h2.239v13.199c0,1.626,0.034,3.18,0.101,4.659c0.067,1.48,0.225,2.86,0.48,4.14
			c0.254,1.28,0.642,2.432,1.161,3.459c0.519,1.027,1.225,1.906,2.12,2.64c0.894,0.734,2.014,1.299,3.36,1.7
			c1.347,0.401,2.968,0.601,4.861,0.601c1.202,0,2.347-0.121,3.441-0.36s2.055-0.613,2.881-1.12s1.487-1.147,1.98-1.92
			c0.493-0.773,0.741-1.693,0.741-2.76c0-1.039-0.108-1.893-0.321-2.56S332.199,84.813,331.761,84.439z"/>
	</g>
</g>
<g>
	<g>
		<path d="M161.84,268.24c-2.666-2.666-6.987-2.666-9.653,0l-23.893,23.893c-2.666,2.666-2.666,6.987,0,9.653
			c1.333,1.333,3.081,2,4.826,2s3.494-0.667,4.826-2l23.893-23.893C164.506,275.227,164.506,270.906,161.84,268.24z"/>
	</g>
</g>
<g>
</g>
<g>
</g>
<g>
</g>
<g>
</g>
<g>
</g>
<g>
</g>
<g>
</g>
<g>
</g>
<g>
</g>
<g>
</g>
<g>
</g>
<g>
</g>
<g>
</g>
<g>
</g>
<g>
</g>
</svg>
