<?xml version="1.0" encoding="iso-8859-1"?>
<!-- Generator: Adobe Illustrator 19.0.0, SVG Export Plug-In . SVG Version: 6.00 Build 0)  -->
<svg version="1.1" id="Capa_1" xmlns="http://www.w3.org/2000/svg" xmlns:xlink="http://www.w3.org/1999/xlink" x="0px" y="0px"
	 viewBox="0 0 431.913 431.913" style="enable-background:new 0 0 431.913 431.913;" xml:space="preserve">
<g>
	<g>
		<path d="M293.071,91.525l-2.12-4.657c-5.427-11.96-8.934-23.344-12.027-33.384C269.716,23.6,262.444,0,215.956,0
			s-53.76,23.6-62.967,53.484c-3.094,10.04-6.6,21.424-12.027,33.384l-2.12,4.657c-21.927,48.258-49.213,108.317-49.213,157.454
			c0,100.871,56.668,182.934,126.327,182.934s126.327-82.063,126.327-182.934C342.284,199.842,314.998,139.781,293.071,91.525z
			 M215.956,418.261c-62.128,0-112.674-75.942-112.674-169.281c0-46.181,26.614-104.747,47.995-151.808l2.113-4.663
			c5.792-12.751,9.433-24.574,12.646-35.004c8.994-29.196,13.513-43.849,49.92-43.849s40.926,14.653,49.922,43.851
			c3.214,10.431,6.852,22.253,12.646,35.004l2.113,4.663c21.379,47.06,47.993,105.626,47.993,151.806
			C328.631,342.321,278.084,418.261,215.956,418.261z"/>
	</g>
</g>
<g>
	<g>
		<path d="M215.956,147.69c-34.454,0-61.44,47.976-61.44,109.227s26.986,109.227,61.44,109.227c34.454,0,61.44-47.976,61.44-109.227
			S250.411,147.69,215.956,147.69z M215.956,352.49c-25.9,0-47.787-43.767-47.787-95.573s21.886-95.573,47.787-95.573
			c25.9,0,47.787,43.767,47.787,95.573S241.857,352.49,215.956,352.49z"/>
	</g>
</g>
<g>
	<g>
		<circle cx="209.13" cy="202.305" r="6.827"/>
	</g>
</g>
<g>
	<g>
		<circle cx="236.436" cy="236.438" r="6.827"/>
	</g>
</g>
<g>
	<g>
		<circle cx="202.303" cy="243.265" r="6.827"/>
	</g>
</g>
<g>
	<g>
		<circle cx="195.477" cy="291.051" r="6.827"/>
	</g>
</g>
<g>
	<g>
		<circle cx="229.61" cy="291.051" r="6.827"/>
	</g>
</g>
<g>
	<g>
		<circle cx="215.956" cy="318.358" r="6.827"/>
	</g>
</g>
<g>
</g>
<g>
</g>
<g>
</g>
<g>
</g>
<g>
</g>
<g>
</g>
<g>
</g>
<g>
</g>
<g>
</g>
<g>
</g>
<g>
</g>
<g>
</g>
<g>
</g>
<g>
</g>
<g>
</g>
</svg>
