<?xml version="1.0" encoding="iso-8859-1"?>
<!-- Generator: Adobe Illustrator 19.0.0, SVG Export Plug-In . SVG Version: 6.00 Build 0)  -->
<svg version="1.1" id="Capa_1" xmlns="http://www.w3.org/2000/svg" xmlns:xlink="http://www.w3.org/1999/xlink" x="0px" y="0px"
	 viewBox="0 0 416.427 416.427" style="enable-background:new 0 0 416.427 416.427;" xml:space="preserve">
<g>
	<g>
		<g>
			<path d="M248.26,64.14c-3.381-1.693-7.474-0.346-9.18,3.007c-1.7,3.367-0.353,7.473,3.007,9.18
				c25.426,12.873,41.219,38.559,41.219,67.033c0,41.407-33.686,75.093-75.093,75.093s-75.093-33.686-75.093-75.093
				s33.686-75.093,75.093-75.093c3.693,0,7.439,0.273,11.134,0.812c3.707,0.58,7.2-2.033,7.74-5.767
				c0.546-3.726-2.033-7.194-5.767-7.74c-4.34-0.638-8.753-0.959-13.107-0.959c-48.934,0-88.747,39.813-88.747,88.747
				s39.813,88.747,88.747,88.747s88.747-39.813,88.747-88.747C296.96,109.706,278.299,79.353,248.26,64.14z"/>
			<path d="M208.213,0C125.401,0,58.027,67.374,58.027,150.187c0,80.633,138.926,256.227,144.846,263.66
				c1.294,1.633,3.26,2.58,5.34,2.58c2.08,0,4.047-0.947,5.34-2.58c5.92-7.433,144.847-183.026,144.847-263.66
				C358.4,67.374,291.026,0,208.213,0z M208.213,398.493C182.361,364.979,71.68,217.554,71.68,150.187
				c0-75.286,61.247-136.533,136.533-136.533S344.747,74.9,344.747,150.187C344.747,217.552,234.066,364.979,208.213,398.493z"/>
		</g>
	</g>
</g>
<g>
	<g>
		<path d="M174.08,40.96c-3.773,0-6.827,3.053-6.827,6.827v191.147c0,3.773,3.053,6.827,6.827,6.827s6.827-3.053,6.827-6.827V47.787
			C180.907,44.013,177.853,40.96,174.08,40.96z"/>
	</g>
</g>
<g>
	<g>
		<path d="M242.347,40.96c-3.773,0-6.827,3.053-6.827,6.827v191.147c0,3.773,3.053,6.827,6.827,6.827s6.827-3.053,6.827-6.827
			V47.787C249.173,44.013,246.12,40.96,242.347,40.96z"/>
	</g>
</g>
<g>
	<g>
		<path d="M194.56,40.96c-3.773,0-6.827,3.053-6.827,6.827V81.92c0,7.526-6.127,13.653-13.653,13.653
			c-7.526,0-13.653-6.127-13.653-13.653V47.787c0-3.773-3.053-6.827-6.827-6.827s-6.827,3.053-6.827,6.827V81.92
			c0,15.06,12.247,27.307,27.307,27.307s27.307-12.247,27.307-27.307V47.787C201.387,44.013,198.333,40.96,194.56,40.96z"/>
	</g>
</g>
<g>
	<g>
		<path d="M242.347,40.96c-15.06,0-27.307,12.247-27.307,27.307v81.92c0,3.773,3.053,6.827,6.827,6.827h20.48
			c3.773,0,6.827-3.053,6.827-6.827v-102.4C249.173,44.013,246.12,40.96,242.347,40.96z M235.52,143.36h-6.827V68.267
			c0-5.047,2.746-9.46,6.827-11.82V143.36z"/>
	</g>
</g>
<g>
</g>
<g>
</g>
<g>
</g>
<g>
</g>
<g>
</g>
<g>
</g>
<g>
</g>
<g>
</g>
<g>
</g>
<g>
</g>
<g>
</g>
<g>
</g>
<g>
</g>
<g>
</g>
<g>
</g>
</svg>
