<?xml version="1.0" encoding="iso-8859-1"?>
<!-- Generator: Adobe Illustrator 19.0.0, SVG Export Plug-In . SVG Version: 6.00 Build 0)  -->
<svg version="1.1" id="Capa_1" xmlns="http://www.w3.org/2000/svg" xmlns:xlink="http://www.w3.org/1999/xlink" x="0px" y="0px"
	 viewBox="0 0 415.614 415.614" style="enable-background:new 0 0 415.614 415.614;" xml:space="preserve">
<g>
	<g>
		<path d="M307.066,235.53l-38.943-16.69c-3.47-1.497-7.487,0.118-8.963,3.584c-1.486,3.466,0.121,7.48,3.584,8.963l38.943,16.69
			c0.876,0.377,1.79,0.556,2.686,0.556c2.651,0,5.17-1.553,6.277-4.14C312.136,241.027,310.529,237.013,307.066,235.53z"/>
	</g>
</g>
<g>
	<g>
		<path d="M160.466,221.557c-1.483-3.461-5.49-5.077-8.963-3.584L110.54,235.53c-3.465,1.483-5.07,5.497-3.584,8.963
			c1.108,2.587,3.627,4.14,6.277,4.14c0.896,0,1.809-0.179,2.686-0.556l40.963-17.556
			C160.347,229.038,161.953,225.023,160.466,221.557z"/>
	</g>
</g>
<g>
	<g>
		<path d="M307.066,262.836l-44.08-18.889c-3.477-1.5-7.487,0.118-8.963,3.584c-1.486,3.466,0.121,7.48,3.584,8.963l44.08,18.889
			c0.876,0.377,1.79,0.556,2.686,0.556c2.651,0,5.17-1.553,6.277-4.14C312.136,268.333,310.528,264.319,307.066,262.836z"/>
	</g>
</g>
<g>
	<g>
		<path d="M163.583,247.531c-1.483-3.465-5.497-5.077-8.963-3.584l-44.08,18.889c-3.465,1.483-5.07,5.497-3.584,8.963
			c1.108,2.587,3.627,4.14,6.277,4.14c0.896,0,1.809-0.179,2.686-0.556l44.08-18.889
			C163.463,255.011,165.069,250.997,163.583,247.531z"/>
	</g>
</g>
<g>
	<g>
		<path d="M307.066,290.143l-48.836-20.931c-3.48-1.49-7.484,0.121-8.963,3.584c-1.487,3.466,0.121,7.48,3.584,8.963l48.836,20.931
			c0.876,0.377,1.79,0.556,2.686,0.556c2.651,0,5.17-1.553,6.277-4.14C312.136,295.64,310.528,291.626,307.066,290.143z"/>
	</g>
</g>
<g>
	<g>
		<path d="M168.339,272.797c-1.483-3.465-5.494-5.067-8.963-3.584l-48.836,20.931c-3.465,1.483-5.07,5.497-3.584,8.963
			c1.108,2.587,3.627,4.14,6.277,4.14c0.896,0,1.809-0.179,2.686-0.556l48.836-20.931
			C168.22,280.277,169.826,276.263,168.339,272.797z"/>
	</g>
</g>
<g>
	<g>
		<path d="M208.801,98.443c-22.946,0-61.44,12.527-61.44,96.427c0,50.306,13.53,107.382,32.171,135.719
			c2.077,3.151,6.303,4.031,9.457,1.951c3.151-2.074,4.024-6.306,1.951-9.457c-17.06-25.929-29.923-81.05-29.923-128.213
			c0-37.76,8.289-82.773,47.787-82.773c39.497,0,47.787,45.013,47.787,82.773c0,47.195-12.873,102.323-29.943,128.241
			c-2.074,3.151-1.203,7.383,1.944,9.457c1.159,0.763,2.459,1.126,3.75,1.126c2.22,0,4.396-1.08,5.705-3.07
			c18.656-28.324,32.196-85.417,32.196-135.753C270.241,110.97,231.747,98.443,208.801,98.443z"/>
	</g>
</g>
<g>
	<g>
		<path d="M125.263,7.398c-2.678-2.241-6.62-2.097-9.127,0.346c-2.502,2.434-2.77,6.364-0.613,9.114
			c10.624,13.53,11.802,41.58,3.234,76.957c-0.891,3.663,1.364,7.352,5.026,8.24c3.656,0.905,7.352-1.36,8.24-5.026
			c3.082-12.716,5.7-27.457,6.096-41.82c4.492,16.234,5.82,37.9-1.947,65.273c-1.029,3.627,1.077,7.398,4.704,8.429
			c0.623,0.176,1.251,0.263,1.867,0.263c2.976-0.003,5.711-1.963,6.564-4.966C171.266,46.829,127.152,8.971,125.263,7.398z"/>
	</g>
</g>
<g>
	<g>
		<path d="M111.174,75.818c-29.472-26.614-7.39-63.86-6.436-65.434c1.83-2.997,1.087-6.897-1.72-9.01
			c-2.802-2.116-6.765-1.753-9.143,0.843c-2.493,2.726-60.877,67.383-41.859,120.716c13.797,38.69,47.766,63.51,71.327,64.316
			c0.41,0.014,0.818,0.024,1.22,0.024c11.406-0.003,20.349-5.579,24.641-15.435C162.007,142.472,149.211,110.165,111.174,75.818z
			 M136.692,166.386c-2.217,5.082-6.47,7.415-12.884,7.223c-19.18-0.657-47.437-23.02-58.933-55.26
			c-9.093-25.501,4.036-55.731,17.469-77.53c-0.23,15.095,4.584,31.503,19.678,45.134
			C135.692,116.353,147.033,142.663,136.692,166.386z"/>
	</g>
</g>
<g>
	<g>
		<path d="M299.48,7.743c-2.507-2.444-6.448-2.586-9.127-0.346c-1.888,1.574-45.996,39.421-24.047,116.791
			c0.85,3.004,3.587,4.966,6.564,4.966c0.616,0,1.244-0.085,1.867-0.263c3.627-1.026,5.734-4.803,4.704-8.429
			c-7.817-27.551-6.417-49.318-1.85-65.584c0.382,16.35,3.599,32.613,6.513,44.209c0.922,3.656,4.623,5.886,8.284,4.956
			c3.656-0.918,5.876-4.627,4.956-8.284c-4.311-17.176-12.677-59.252,2.749-78.903C302.249,14.108,301.987,10.176,299.48,7.743z"/>
	</g>
</g>
<g>
	<g>
		<path d="M321.741,2.216c-2.372-2.592-6.335-2.959-9.143-0.843c-2.811,2.116-3.553,6.023-1.714,9.023
			c0.961,1.567,23.183,38.666-6.446,65.42c-38.036,34.347-50.833,66.654-38.03,96.02c4.296,9.856,13.235,15.437,24.643,15.437
			c0.408,0,0.814-0.01,1.222-0.024c23.564-0.807,57.53-25.627,71.323-64.317C382.615,69.599,324.235,4.944,321.741,2.216z
			 M350.741,118.347c-11.493,32.241-39.75,54.6-58.93,55.26c-6.521,0.191-10.67-2.142-12.887-7.223
			c-10.341-23.723,0.998-50.034,34.669-80.434c15.092-13.629,19.907-30.036,19.676-45.133
			C346.706,62.617,359.832,92.847,350.741,118.347z"/>
	</g>
</g>
<g>
	<g>
		<path d="M190.483,117.258l-19.081-17.073c-2.813-2.517-7.136-2.275-9.639,0.532c-2.514,2.809-2.277,7.125,0.532,9.639
			l19.081,17.073c1.304,1.167,2.93,1.741,4.55,1.741c1.876,0,3.743-0.766,5.089-2.273
			C193.53,124.088,193.292,119.772,190.483,117.258z"/>
	</g>
</g>
<g>
	<g>
		<path d="M252.459,100.717c-2.505-2.806-6.83-3.05-9.639-0.532l-19.084,17.073c-2.806,2.512-3.046,6.83-0.532,9.639
			c1.347,1.507,3.212,2.273,5.089,2.273c1.62,0,3.246-0.573,4.55-1.741l19.084-17.073
			C254.736,107.844,254.973,103.526,252.459,100.717z"/>
	</g>
</g>
<g>
	<g>
		<path d="M282.012,346.173c-8.383-17.929-43.146-26.132-73.209-26.132s-64.826,8.202-73.209,26.132
			c-9.644,6.291-15.537,16.981-15.537,28.481c0,18.819,15.314,34.133,34.133,34.133c7.847,0,15.36-2.72,21.354-7.537
			c7.533,8.844,19.855,14.363,33.26,14.363c13.402,0,25.726-5.519,33.26-14.363c5.994,4.816,13.507,7.537,21.354,7.537
			c18.819,0,34.133-15.314,34.133-34.133C297.549,363.153,291.654,352.464,282.012,346.173z M263.416,395.134
			c-6.683,0-12.971-3.304-16.814-8.837c-1.417-2.043-3.859-3.145-6.31-2.893c-2.476,0.256-4.613,1.84-5.582,4.13
			c-3.654,8.631-14.063,14.426-25.907,14.426c-11.844,0-22.253-5.796-25.907-14.426c-0.969-2.29-3.106-3.874-5.582-4.13
			c-0.234-0.022-0.469-0.036-0.703-0.036c-2.22,0-4.325,1.082-5.61,2.929c-3.843,5.533-10.131,8.837-16.814,8.837
			c-11.293,0-20.48-9.187-20.48-20.48c0-7.376,4.094-14.217,10.684-17.847c1.558-0.857,2.717-2.287,3.234-3.983
			c2.454-8.02,25.079-19.13,61.177-19.13s58.723,11.11,61.177,19.13c0.517,1.696,1.678,3.127,3.234,3.983
			c6.591,3.63,10.684,10.47,10.684,17.847C283.896,385.947,274.709,395.134,263.416,395.134z"/>
	</g>
</g>
<g>
</g>
<g>
</g>
<g>
</g>
<g>
</g>
<g>
</g>
<g>
</g>
<g>
</g>
<g>
</g>
<g>
</g>
<g>
</g>
<g>
</g>
<g>
</g>
<g>
</g>
<g>
</g>
<g>
</g>
</svg>
