<?xml version="1.0" encoding="iso-8859-1"?>
<!-- Generator: Adobe Illustrator 19.0.0, SVG Export Plug-In . SVG Version: 6.00 Build 0)  -->
<svg version="1.1" id="Capa_1" xmlns="http://www.w3.org/2000/svg" xmlns:xlink="http://www.w3.org/1999/xlink" x="0px" y="0px"
	 viewBox="0 0 409.6 409.6" style="enable-background:new 0 0 409.6 409.6;" xml:space="preserve">
<g>
	<g>
		<g>
			<path d="M292.76,307.2h15.867c25.559,0,46.36-20.801,46.36-46.36V94.147c0-25.559-20.801-46.36-46.36-46.36h-8.253
				c-3.773,0-6.827,3.053-6.827,6.827s3.053,6.827,6.827,6.827h8.253c18.033,0,32.707,14.674,32.707,32.707V260.84
				c0,18.033-14.674,32.707-32.707,32.707H292.76c-3.773,0-6.827,3.053-6.827,6.827S288.986,307.2,292.76,307.2z"/>
			<path d="M308.626,20.48h-5.707c-3.773,0-6.827,3.053-6.827,6.827s3.053,6.827,6.827,6.827h5.707
				c33.092,0,60.013,26.919,60.013,60.013V260.84c0,33.094-26.921,60.013-60.013,60.013h-16.44c-3.773,0-6.827,3.053-6.827,6.827
				s3.053,6.827,6.827,6.827h16.44c40.62,0,73.667-33.046,73.667-73.667V94.147C382.293,53.526,349.247,20.48,308.626,20.48z"/>
		</g>
	</g>
</g>
<g>
	<g>
		<path d="M305.28,2.087C303.993,0.753,302.226,0,300.373,0H34.133c-2.367,0-4.562,1.225-5.806,3.239
			c-1.244,2.014-1.357,4.528-0.3,6.641L41.68,37.187c1.157,2.314,3.519,3.773,6.107,3.773h14.822l12.488,362.047
			c0.126,3.68,3.144,6.593,6.823,6.593h204.8c3.68,0,6.694-2.913,6.82-6.593L307.193,7.06C307.259,5.214,306.566,3.413,305.28,2.087
			z M280.125,395.947H88.516L76.028,33.9c-0.126-3.68-3.144-6.593-6.823-6.593h-17.2l-6.827-13.653h248.127L280.125,395.947z"/>
	</g>
</g>
<g>
	<g>
		<path d="M163.84,88.747h-54.613c-3.77,0-6.827,3.053-6.827,6.827s3.057,6.827,6.827,6.827h54.613c3.77,0,6.827-3.053,6.827-6.827
			S167.61,88.747,163.84,88.747z"/>
	</g>
</g>
<g>
	<g>
		<path d="M163.84,122.88h-54.613c-3.77,0-6.827,3.053-6.827,6.827c0,3.773,3.057,6.827,6.827,6.827h54.613
			c3.77,0,6.827-3.053,6.827-6.827C170.666,125.933,167.61,122.88,163.84,122.88z"/>
	</g>
</g>
<g>
	<g>
		<path d="M163.84,157.013h-54.613c-3.77,0-6.827,3.053-6.827,6.827s3.057,6.827,6.827,6.827h54.613c3.77,0,6.827-3.053,6.827-6.827
			S167.61,157.013,163.84,157.013z"/>
	</g>
</g>
<g>
	<g>
		<path d="M163.84,191.147h-54.613c-3.77,0-6.827,3.053-6.827,6.827s3.057,6.827,6.827,6.827h54.613c3.77,0,6.827-3.053,6.827-6.827
			S167.61,191.147,163.84,191.147z"/>
	</g>
</g>
<g>
	<g>
		<path d="M163.84,225.28h-54.613c-3.77,0-6.827,3.053-6.827,6.827s3.057,6.827,6.827,6.827h54.613c3.77,0,6.827-3.053,6.827-6.827
			S167.61,225.28,163.84,225.28z"/>
	</g>
</g>
<g>
	<g>
		<path d="M163.84,259.413h-54.613c-3.77,0-6.827,3.053-6.827,6.827s3.057,6.827,6.827,6.827h54.613c3.77,0,6.827-3.053,6.827-6.827
			S167.61,259.413,163.84,259.413z"/>
	</g>
</g>
<g>
	<g>
		<path d="M163.84,293.547h-54.613c-3.77,0-6.827,3.053-6.827,6.827s3.057,6.827,6.827,6.827h54.613c3.77,0,6.827-3.053,6.827-6.827
			S167.61,293.547,163.84,293.547z"/>
	</g>
</g>
<g>
	<g>
		<path d="M163.84,327.68h-54.613c-3.77,0-6.827,3.053-6.827,6.827s3.057,6.827,6.827,6.827h54.613c3.77,0,6.827-3.053,6.827-6.827
			S167.61,327.68,163.84,327.68z"/>
	</g>
</g>
<g>
</g>
<g>
</g>
<g>
</g>
<g>
</g>
<g>
</g>
<g>
</g>
<g>
</g>
<g>
</g>
<g>
</g>
<g>
</g>
<g>
</g>
<g>
</g>
<g>
</g>
<g>
</g>
<g>
</g>
</svg>
