<?xml version="1.0" encoding="iso-8859-1"?>
<!-- Generator: Adobe Illustrator 19.0.0, SVG Export Plug-In . SVG Version: 6.00 Build 0)  -->
<svg version="1.1" id="Capa_1" xmlns="http://www.w3.org/2000/svg" xmlns:xlink="http://www.w3.org/1999/xlink" x="0px" y="0px"
	 viewBox="0 0 402.771 402.771" style="enable-background:new 0 0 402.771 402.771;" xml:space="preserve">
<g>
	<g>
		<path d="M370.894,166.592c-18.469-69.06-90.527-118.806-172.923-118.806c-82.521,0-154.65,49.881-173,119.093
			c-16.753,8.716-23.919,33.176-24.73,36.11c-0.323,1.183-0.323,2.437,0,3.623c0.881,3.186,8.68,29.71,27.09,37.204
			c21.709,65.64,91.293,111.171,170.639,111.171c79.293,0,148.837-45.476,170.597-111.046c19.893-7.088,34.203-32.87,34.203-39.141
			C402.771,198.221,388.744,174.54,370.894,166.592z M361.705,231.735c-2.42,0.531-4.364,2.326-5.077,4.697
			c-18.664,61.764-83.903,104.9-158.657,104.9c-74.747,0-139.988-43.129-158.655-104.887c-0.7-2.326-2.586-4.103-4.949-4.666
			c-10.51-2.51-17.807-18.901-20.413-26.981c2.468-7.613,9.274-23.093,19.115-26.597c2.178-0.773,3.818-2.601,4.35-4.847
			c15.45-64.85,82.973-111.916,160.553-111.916c77.546,0,145.063,47.043,160.538,111.86c0.563,2.354,2.328,4.234,4.64,4.941
			c12.633,3.869,23.516,21.289,25.723,26.566C386.565,210.402,374.956,228.842,361.705,231.735z"/>
	</g>
</g>
<g>
	<g>
		<path d="M140.352,163.356c-1.913-1.91-4.987-2.524-7.443-1.5c-0.886,0.34-1.637,0.887-2.253,1.5
			c-0.614,0.616-1.091,1.367-1.434,2.186c-0.34,0.887-0.546,1.775-0.546,2.664c0,1.773,0.753,3.547,1.98,4.777
			c0.616,0.684,1.365,1.161,2.253,1.504c0.821,0.34,1.707,0.546,2.594,0.546c1.777,0,3.55-0.754,4.849-2.05
			c1.227-1.23,1.976-3.004,1.976-4.777C142.329,166.363,141.58,164.656,140.352,163.356z"/>
	</g>
</g>
<g>
	<g>
		<path d="M161.104,126.975c-0.34-0.819-0.818-1.57-1.5-2.253c-0.613-0.616-1.365-1.094-2.183-1.434
			c-1.229-0.546-2.596-0.683-3.959-0.41c-0.41,0.067-0.821,0.203-1.297,0.41c-0.411,0.137-0.754,0.34-1.164,0.613
			c-0.341,0.203-0.681,0.546-1.024,0.819c-0.613,0.683-1.161,1.364-1.5,2.253c-0.343,0.818-0.48,1.707-0.48,2.594
			c0,1.773,0.683,3.55,1.98,4.847c0.345,0.273,0.684,0.546,1.024,0.819c0.411,0.273,0.754,0.476,1.164,0.613
			c0.478,0.203,0.887,0.34,1.297,0.41c0.476,0.067,0.888,0.137,1.364,0.137c0.889,0,1.777-0.206,2.596-0.543
			c0.816-0.34,1.57-0.821,2.183-1.434c1.297-1.297,2.046-3.074,2.046-4.847C161.65,128.682,161.447,127.792,161.104,126.975z"/>
	</g>
</g>
<g>
	<g>
		<path d="M180.422,155.917c-0.34-0.819-0.818-1.57-1.5-2.253c-0.616-0.614-1.367-1.091-2.186-1.434
			c-2.522-1.022-5.53-0.41-7.439,1.434c-0.614,0.683-1.161,1.434-1.504,2.253c-0.34,0.821-0.476,1.707-0.476,2.594
			c0,1.843,0.683,3.55,1.98,4.847c0.275,0.343,0.684,0.616,1.024,0.819c0.343,0.273,0.754,0.48,1.161,0.683
			c0.411,0.137,0.891,0.273,1.3,0.34c0.406,0.137,0.887,0.137,1.364,0.137c1.777,0,3.55-0.679,4.777-1.978
			c1.297-1.297,2.046-3.004,2.046-4.847C180.968,157.623,180.765,156.736,180.422,155.917z"/>
	</g>
</g>
<g>
	<g>
		<path d="M105.33,203.701c-0.34-0.819-0.818-1.57-1.5-2.253c-1.843-1.843-4.917-2.458-7.443-1.434
			c-0.816,0.343-1.57,0.821-2.183,1.434c-0.614,0.683-1.161,1.434-1.504,2.253c-0.34,0.821-0.476,1.707-0.476,2.594
			c0,1.843,0.683,3.55,1.98,4.847c0.613,0.616,1.365,1.164,2.183,1.504c0.891,0.34,1.707,0.476,2.664,0.476
			c0.41,0,0.886,0,1.294-0.137c0.48-0.067,0.887-0.203,1.297-0.34c0.411-0.203,0.821-0.41,1.164-0.683
			c0.408-0.203,0.751-0.476,1.024-0.819c0.341-0.341,0.614-0.681,0.887-1.024c0.203-0.41,0.41-0.821,0.613-1.227
			c0.137-0.411,0.273-0.821,0.41-1.231c0.07-0.478,0.137-0.887,0.137-1.367C105.876,205.408,105.673,204.521,105.33,203.701z"/>
	</g>
</g>
<g>
	<g>
		<path d="M194.42,127.108c-0.343-0.819-0.821-1.57-1.504-2.253c-0.613-0.616-1.364-1.094-2.183-1.434
			c-1.707-0.683-3.55-0.683-5.257,0c-0.819,0.34-1.57,0.818-2.186,1.434c-0.613,0.683-1.161,1.434-1.5,2.253
			c-0.343,0.818-0.476,1.707-0.476,2.594c0,1.773,0.679,3.55,1.976,4.847c0.616,0.614,1.367,1.094,2.186,1.434
			c0.887,0.41,1.775,0.546,2.664,0.546c1.773,0,3.546-0.749,4.775-1.98c1.297-1.297,2.05-3.074,2.05-4.847
			C194.966,128.815,194.759,127.926,194.42,127.108z"/>
	</g>
</g>
<g>
	<g>
		<path d="M56.384,193.122c-2.528-2.526-7.101-2.526-9.627,0c-0.613,0.683-1.161,1.434-1.5,2.253
			c-0.343,0.818-0.476,1.707-0.476,2.594c0,1.843,0.679,3.55,1.976,4.847c1.3,1.231,3.007,1.98,4.85,1.98
			c1.773,0,3.546-0.749,4.777-1.98c1.297-1.297,2.05-3.074,2.05-4.847C58.434,196.192,57.682,194.419,56.384,193.122z"/>
	</g>
</g>
<g>
	<g>
		<path d="M173.94,92.978c-0.343-0.819-0.821-1.57-1.504-2.253c-0.613-0.616-1.364-1.094-2.183-1.434
			c-1.229-0.546-2.592-0.683-3.959-0.41c-0.41,0.067-0.887,0.203-1.297,0.41c-0.411,0.137-0.821,0.34-1.161,0.613
			c-0.345,0.273-0.754,0.546-1.027,0.819c-0.613,0.683-1.161,1.434-1.5,2.253c-0.343,0.818-0.476,1.707-0.476,2.594
			c0,1.773,0.679,3.55,1.976,4.847c0.275,0.273,0.684,0.546,1.027,0.819c0.341,0.273,0.751,0.476,1.161,0.613
			c0.41,0.203,0.887,0.34,1.297,0.41c0.478,0.067,0.887,0.137,1.367,0.137c1.773,0,3.546-0.749,4.775-1.976
			c1.297-1.297,2.05-3.074,2.05-4.847C174.486,94.685,174.279,93.796,173.94,92.978z"/>
	</g>
</g>
<g>
	<g>
		<path d="M87.173,138.235c-0.343-0.819-0.821-1.57-1.434-2.186c-0.683-0.613-1.435-1.161-2.253-1.5c-1.64-0.683-3.55-0.683-5.19,0
			c-0.886,0.34-1.637,0.887-2.253,1.5c-1.227,1.3-1.98,3.007-1.98,4.85c0,1.773,0.753,3.546,1.98,4.777
			c1.297,1.297,3.074,2.05,4.847,2.05c0.891,0,1.777-0.206,2.596-0.546c0.816-0.343,1.57-0.821,2.253-1.504
			c0.614-0.613,1.091-1.364,1.434-2.183c0.34-0.821,0.543-1.707,0.543-2.594C87.715,139.942,87.512,139.123,87.173,138.235z"/>
	</g>
</g>
<g>
	<g>
		<path d="M106.489,99.667c-0.34-0.889-0.818-1.64-1.5-2.253c-0.613-0.616-1.365-1.094-2.183-1.434
			c-2.526-1.092-5.53-0.48-7.443,1.434c-0.613,0.683-1.091,1.364-1.5,2.253c-0.343,0.818-0.48,1.707-0.48,2.594
			c0,1.773,0.753,3.55,1.98,4.847c0.345,0.273,0.684,0.546,1.024,0.819c0.411,0.273,0.754,0.476,1.231,0.613
			c0.411,0.203,0.821,0.34,1.23,0.41c0.476,0.067,0.888,0.137,1.364,0.137c0.889,0,1.777-0.207,2.594-0.544
			c0.816-0.34,1.57-0.821,2.183-1.434c1.297-1.297,2.046-3.074,2.046-4.847C107.035,101.373,106.832,100.484,106.489,99.667z"/>
	</g>
</g>
<g>
	<g>
		<path d="M124.31,126.357c-1.843-1.843-4.917-2.458-7.443-1.434c-0.816,0.343-1.57,0.821-2.183,1.434
			c-1.297,1.297-1.98,3.074-1.98,4.847c0,0.889,0.137,1.777,0.476,2.596c0.343,0.886,0.891,1.637,1.504,2.249
			c0.613,0.618,1.365,1.094,2.183,1.437c0.891,0.406,1.777,0.543,2.664,0.543c0.41,0,0.886,0,1.294-0.138
			c0.48-0.067,0.887-0.203,1.297-0.406c0.411-0.137,0.821-0.343,1.164-0.616c0.408-0.203,0.751-0.546,1.024-0.819
			c0.683-0.613,1.161-1.362,1.5-2.249c0.343-0.819,0.546-1.707,0.546-2.596C126.356,129.431,125.607,127.654,124.31,126.357z"/>
	</g>
</g>
<g>
	<g>
		<path d="M92.02,181.721c-0.343-0.819-0.821-1.57-1.504-2.253c-0.613-0.616-1.364-1.094-2.183-1.434
			c-1.707-0.683-3.55-0.683-5.257,0c-0.819,0.34-1.57,0.818-2.186,1.434c-1.297,1.297-1.976,3.07-1.976,4.847
			c0,1.773,0.679,3.55,1.976,4.847c1.3,1.231,3.007,1.98,4.85,1.98c1.773,0,3.546-0.749,4.775-1.98
			c0.684-0.683,1.161-1.365,1.504-2.253c0.34-0.821,0.546-1.707,0.546-2.594C92.566,183.428,92.359,182.539,92.02,181.721z"/>
	</g>
</g>
<g>
</g>
<g>
</g>
<g>
</g>
<g>
</g>
<g>
</g>
<g>
</g>
<g>
</g>
<g>
</g>
<g>
</g>
<g>
</g>
<g>
</g>
<g>
</g>
<g>
</g>
<g>
</g>
<g>
</g>
</svg>
