<?xml version="1.0" encoding="iso-8859-1"?>
<!-- Generator: Adobe Illustrator 19.0.0, SVG Export Plug-In . SVG Version: 6.00 Build 0)  -->
<svg version="1.1" id="Capa_1" xmlns="http://www.w3.org/2000/svg" xmlns:xlink="http://www.w3.org/1999/xlink" x="0px" y="0px"
	 viewBox="0 0 409.6 409.6" style="enable-background:new 0 0 409.6 409.6;" xml:space="preserve">
<g>
	<g>
		<path d="M225.28,317.44h-40.96c-3.77,0-6.827,3.057-6.827,6.827v47.787c0,3.77,3.057,6.827,6.827,6.827h40.96
			c3.773,0,6.827-3.057,6.827-6.827v-47.787C232.107,320.497,229.053,317.44,225.28,317.44z M218.453,365.227h-27.307v-34.133
			h27.307V365.227z"/>
	</g>
</g>
<g>
	<g>
		<path d="M383.087,71.68H26.513C11.894,71.68,0,83.574,0,98.193V304.58c0,14.619,11.894,26.513,26.513,26.513h356.574
			c14.619,0,26.513-11.894,26.513-26.513V98.193C409.6,83.574,397.706,71.68,383.087,71.68z M395.947,304.58
			c0,7.089-5.767,12.86-12.86,12.86H26.513c-7.089,0-12.86-5.77-12.86-12.86V98.193c0-7.089,5.77-12.86,12.86-12.86h356.574
			c7.093,0,12.86,5.77,12.86,12.86V304.58z"/>
	</g>
</g>
<g>
	<g>
		<path d="M177.493,146.773h-27.307c-3.77,0-6.827,3.057-6.827,6.827v170.667c0,3.77,3.057,6.827,6.827,6.827h27.307
			c3.77,0,6.827-3.057,6.827-6.827V153.6C184.32,149.83,181.263,146.773,177.493,146.773z M170.667,317.44h-13.653V160.427h13.653
			V317.44z"/>
	</g>
</g>
<g>
	<g>
		<path d="M266.24,221.867h-27.307c-3.773,0-6.827,3.057-6.827,6.827v95.573c0,3.77,3.053,6.827,6.827,6.827h27.307
			c3.773,0,6.827-3.057,6.827-6.827v-95.573C273.067,224.923,270.013,221.867,266.24,221.867z M259.413,317.44H245.76v-81.92h13.653
			V317.44z"/>
	</g>
</g>
<g>
	<g>
		<path d="M191.147,17.067v102.4c0,15.056-12.25,27.307-27.307,27.307s-27.307-12.25-27.307-27.307v-102.4H122.88v102.4
			c0,22.586,18.374,40.96,40.96,40.96c22.586,0,40.96-18.374,40.96-40.96v-102.4H191.147z"/>
	</g>
</g>
<g>
	<g>
		<rect x="157.013" y="17.067" width="13.653" height="136.533"/>
	</g>
</g>
<g>
	<g>
		<path d="M266.24,10.24c-22.886,0-42.346,17.113-45.32,40.323l-9.286,177.773c-0.092,1.871,0.58,3.697,1.867,5.057
			c1.292,1.357,3.079,2.127,4.953,2.127h47.787c3.773,0,6.827-3.057,6.827-6.827V17.067C273.067,13.297,270.013,10.24,266.24,10.24z
			 M259.413,221.867h-33.766l8.866-170.073c1.748-13.59,11.96-24.323,24.9-27.163V221.867z"/>
	</g>
</g>
<g>
	<g>
		<path d="M259.413,365.227H150.187c-3.77,0-6.827,3.057-6.827,6.827v20.48c0,3.77,3.057,6.827,6.827,6.827h109.227
			c3.773,0,6.827-3.057,6.827-6.827v-20.48C266.24,368.283,263.187,365.227,259.413,365.227z M252.587,385.707h-95.573v-6.827
			h95.573V385.707z"/>
	</g>
</g>
<g>
	<g>
		<path d="M307.2,385.707H95.573c-3.77,0-6.827,3.057-6.827,6.827c0,3.77,3.057,6.827,6.827,6.827H307.2
			c3.773,0,6.827-3.057,6.827-6.827C314.027,388.763,310.973,385.707,307.2,385.707z"/>
	</g>
</g>
<g>
</g>
<g>
</g>
<g>
</g>
<g>
</g>
<g>
</g>
<g>
</g>
<g>
</g>
<g>
</g>
<g>
</g>
<g>
</g>
<g>
</g>
<g>
</g>
<g>
</g>
<g>
</g>
<g>
</g>
</svg>
