<?xml version="1.0" encoding="iso-8859-1"?>
<!-- Generator: Adobe Illustrator 19.0.0, SVG Export Plug-In . SVG Version: 6.00 Build 0)  -->
<svg version="1.1" id="Capa_1" xmlns="http://www.w3.org/2000/svg" xmlns:xlink="http://www.w3.org/1999/xlink" x="0px" y="0px"
	 viewBox="0 0 368.64 368.64" style="enable-background:new 0 0 368.64 368.64;" xml:space="preserve">
<g>
	<g>
		<path d="M247.639,0H45.906C26.24,0,10.24,16,10.24,35.666v297.308c0,19.666,16,35.666,35.666,35.666h201.735
			c19.666,0,35.666-16,35.666-35.668V35.666C283.307,16,267.307,0,247.639,0z M269.652,332.974c0,12.136-9.877,22.013-22.013,22.013
			H45.906c-12.136,0-22.013-9.876-22.013-22.014V35.666c0-12.136,9.876-22.013,22.013-22.013h201.735
			c12.136,0,22.013,9.877,22.011,22.013V332.974z"/>
	</g>
</g>
<g>
	<g>
		<path d="M256,20.48H37.547c-3.77,0-6.827,3.057-6.827,6.827v266.24c0,3.77,3.057,6.827,6.827,6.827H256
			c3.77,0,6.827-3.057,6.827-6.827V27.307C262.827,23.537,259.77,20.48,256,20.48z M249.173,286.72h-204.8V34.133h204.8V286.72z"/>
	</g>
</g>
<g>
	<g>
		<path d="M146.773,307.2c-11.293,0-20.48,9.187-20.48,20.48c0,11.293,9.187,20.48,20.48,20.48c11.293,0,20.48-9.187,20.48-20.48
			C167.253,316.387,158.066,307.2,146.773,307.2z M146.773,334.507c-3.763,0-6.827-3.063-6.827-6.827
			c0-3.763,3.063-6.827,6.827-6.827c3.763,0,6.827,3.063,6.827,6.827C153.6,331.443,150.537,334.507,146.773,334.507z"/>
	</g>
</g>
<g>
	<g>
		<path d="M112.64,54.613c-3.77,0-6.827,3.057-6.827,6.827v191.147c0,3.77,3.057,6.827,6.827,6.827s6.827-3.057,6.827-6.827V61.44
			C119.467,57.67,116.41,54.613,112.64,54.613z"/>
	</g>
</g>
<g>
	<g>
		<path d="M180.907,54.613c-3.77,0-6.827,3.057-6.827,6.827v191.147c0,3.77,3.057,6.827,6.827,6.827s6.827-3.057,6.827-6.827V61.44
			C187.733,57.67,184.677,54.613,180.907,54.613z"/>
	</g>
</g>
<g>
	<g>
		<path d="M133.12,54.613c-3.77,0-6.827,3.057-6.827,6.827v34.133c0,7.53-6.124,13.653-13.653,13.653
			c-7.53,0-13.653-6.124-13.653-13.653V61.44c0-3.77-3.057-6.827-6.827-6.827s-6.827,3.057-6.827,6.827v34.133
			c0,15.056,12.25,27.307,27.307,27.307s27.307-12.25,27.307-27.307V61.44C139.947,57.67,136.89,54.613,133.12,54.613z"/>
	</g>
</g>
<g>
	<g>
		<path d="M180.907,54.613c-15.056,0-27.307,12.25-27.307,27.307v81.92c0,3.77,3.057,6.827,6.827,6.827h20.48
			c3.77,0,6.827-3.057,6.827-6.827V61.44C187.733,57.67,184.677,54.613,180.907,54.613z M174.08,157.013h-6.827V81.92
			c0-5.043,2.749-9.457,6.827-11.82V157.013z"/>
	</g>
</g>
<g>
	<g>
		<path d="M351.573,354.987H215.04c-3.77,0-6.827,3.057-6.827,6.827c0,3.77,3.057,6.827,6.827,6.827h136.533
			c3.77,0,6.827-3.057,6.827-6.827S355.343,354.987,351.573,354.987z"/>
	</g>
</g>
<g>
</g>
<g>
</g>
<g>
</g>
<g>
</g>
<g>
</g>
<g>
</g>
<g>
</g>
<g>
</g>
<g>
</g>
<g>
</g>
<g>
</g>
<g>
</g>
<g>
</g>
<g>
</g>
<g>
</g>
</svg>
