<?xml version="1.0" encoding="iso-8859-1"?>
<!-- Generator: Adobe Illustrator 19.0.0, SVG Export Plug-In . SVG Version: 6.00 Build 0)  -->
<svg version="1.1" id="Capa_1" xmlns="http://www.w3.org/2000/svg" xmlns:xlink="http://www.w3.org/1999/xlink" x="0px" y="0px"
	 viewBox="0 0 368.64 368.64" style="enable-background:new 0 0 368.64 368.64;" xml:space="preserve">
<g>
	<g>
		<path d="M221.926,0H57.967c-11.261,0-20.42,9.16-20.42,20.42V348.22c0,11.261,9.16,20.42,20.42,20.42h163.959
			c11.261,0,20.42-9.16,20.42-20.42V20.42C242.347,9.16,233.187,0,221.926,0z M228.693,348.22c0,3.731-3.036,6.767-6.767,6.767
			H57.967c-3.731,0-6.767-3.036-6.767-6.767V20.42c0-3.731,3.036-6.767,6.767-6.767h163.959c3.731,0,6.767,3.036,6.767,6.767V348.22
			z"/>
	</g>
</g>
<g>
	<g>
		<path d="M215.04,20.48H64.853c-3.77,0-6.827,3.057-6.827,6.827v266.24c0,3.77,3.057,6.827,6.827,6.827H215.04
			c3.77,0,6.827-3.057,6.827-6.827V27.307C221.867,23.537,218.81,20.48,215.04,20.48z M208.213,286.72H71.68V34.133h136.533V286.72z
			"/>
	</g>
</g>
<g>
	<g>
		<path d="M139.947,307.2c-11.293,0-20.48,9.187-20.48,20.48c0,11.293,9.187,20.48,20.48,20.48c11.293,0,20.48-9.187,20.48-20.48
			C160.427,316.387,151.24,307.2,139.947,307.2z M139.947,334.507c-3.763,0-6.827-3.063-6.827-6.827
			c0-3.763,3.063-6.827,6.827-6.827c3.763,0,6.827,3.063,6.827,6.827C146.773,331.443,143.71,334.507,139.947,334.507z"/>
	</g>
</g>
<g>
	<g>
		<path d="M112.64,61.44c-3.77,0-6.827,3.057-6.827,6.827v191.147c0,3.77,3.057,6.827,6.827,6.827s6.827-3.057,6.827-6.827V68.267
			C119.467,64.497,116.41,61.44,112.64,61.44z"/>
	</g>
</g>
<g>
	<g>
		<path d="M180.907,61.44c-3.77,0-6.827,3.057-6.827,6.827v191.147c0,3.77,3.057,6.827,6.827,6.827s6.827-3.057,6.827-6.827V68.267
			C187.733,64.497,184.677,61.44,180.907,61.44z"/>
	</g>
</g>
<g>
	<g>
		<path d="M133.12,61.44c-3.77,0-6.827,3.057-6.827,6.827V102.4c0,7.53-6.124,13.653-13.653,13.653
			c-7.53,0-13.653-6.124-13.653-13.653V68.267c0-3.77-3.057-6.827-6.827-6.827s-6.827,3.057-6.827,6.827V102.4
			c0,15.056,12.25,27.307,27.307,27.307s27.307-12.25,27.307-27.307V68.267C139.947,64.497,136.89,61.44,133.12,61.44z"/>
	</g>
</g>
<g>
	<g>
		<path d="M180.907,61.44c-15.056,0-27.307,12.25-27.307,27.307v81.92c0,3.77,3.057,6.827,6.827,6.827h20.48
			c3.77,0,6.827-3.057,6.827-6.827v-102.4C187.733,64.497,184.677,61.44,180.907,61.44z M174.08,163.84h-6.827V88.747
			c0-5.043,2.749-9.457,6.827-11.82V163.84z"/>
	</g>
</g>
<g>
	<g>
		<path d="M324.267,354.987H187.733c-3.77,0-6.827,3.057-6.827,6.827c0,3.77,3.057,6.827,6.827,6.827h136.533
			c3.77,0,6.827-3.057,6.827-6.827S328.037,354.987,324.267,354.987z"/>
	</g>
</g>
<g>
</g>
<g>
</g>
<g>
</g>
<g>
</g>
<g>
</g>
<g>
</g>
<g>
</g>
<g>
</g>
<g>
</g>
<g>
</g>
<g>
</g>
<g>
</g>
<g>
</g>
<g>
</g>
<g>
</g>
</svg>
