<?xml version="1.0" encoding="iso-8859-1"?>
<!-- Generator: Adobe Illustrator 19.0.0, SVG Export Plug-In . SVG Version: 6.00 Build 0)  -->
<svg version="1.1" id="Capa_1" xmlns="http://www.w3.org/2000/svg" xmlns:xlink="http://www.w3.org/1999/xlink" x="0px" y="0px"
	 viewBox="0 0 436.907 436.907" style="enable-background:new 0 0 436.907 436.907;" xml:space="preserve">
<g>
	<g>
		<path d="M386.722,95.573H50.183c-18.26,0-33.116,14.857-33.116,33.116v185.337c0,3.77,3.057,6.827,6.827,6.827h389.12
			c3.77,0,6.827-3.057,6.827-6.827V128.689C419.84,110.43,404.983,95.573,386.722,95.573z M406.187,307.2H30.72V128.689
			c0-10.733,8.73-19.463,19.463-19.463h336.541c10.733,0,19.463,8.73,19.463,19.463V307.2z"/>
	</g>
</g>
<g>
	<g>
		<path d="M413.013,307.2H23.893c-3.77,0-6.827,3.057-6.827,6.827v35.15c0,18.26,14.857,33.116,33.116,33.116h336.541
			c18.26,0,33.116-14.857,33.116-33.116v-35.151C419.84,310.257,416.783,307.2,413.013,307.2z M406.185,349.177
			c0,10.733-8.73,19.463-19.463,19.463H50.183c-10.733,0-19.463-8.73-19.463-19.463v-28.324h375.465V349.177z"/>
	</g>
</g>
<g>
	<g>
		<path d="M218.453,327.68c-9.411,0-17.067,7.656-17.067,17.067s7.656,17.067,17.067,17.067s17.067-7.656,17.067-17.067
			S227.864,327.68,218.453,327.68z M218.453,348.16c-1.884,0-3.413-1.529-3.413-3.413s1.529-3.413,3.413-3.413
			s3.413,1.529,3.413,3.413S220.337,348.16,218.453,348.16z"/>
	</g>
</g>
<g>
	<g>
		<path d="M282.288,426.493l-33.734-54.613c-1.242-2.012-3.439-3.239-5.806-3.239h-48.587c-2.365,0-4.562,1.225-5.806,3.239
			l-33.734,54.613c-1.304,2.108-1.36,4.75-0.157,6.914c1.207,2.161,3.487,3.5,5.963,3.5H276.48c2.476,0,4.756-1.34,5.965-3.5
			C283.648,431.242,283.592,428.599,282.288,426.493z M172.667,423.253l25.3-40.96h40.974l25.3,40.96H172.667z"/>
	</g>
</g>
<g>
	<g>
		<path d="M383.706,227.28c-2.666-2.666-6.987-2.666-9.653,0l-58.027,58.027c-2.666,2.666-2.666,6.987,0,9.653
			c1.333,1.333,3.081,2,4.826,2s3.494-0.667,4.826-2l58.027-58.027C386.372,234.267,386.372,229.946,383.706,227.28z"/>
	</g>
</g>
<g>
	<g>
		<path d="M390.533,261.414c-2.666-2.666-6.987-2.666-9.653,0l-20.48,20.48c-2.666,2.666-2.666,6.987,0,9.653
			c1.333,1.333,3.081,2,4.826,2s3.494-0.667,4.826-2l20.48-20.48C393.199,268.401,393.199,264.079,390.533,261.414z"/>
	</g>
</g>
<g>
	<g>
		<path d="M317.44,423.253h-204.8c-3.77,0-6.827,3.057-6.827,6.827c0,3.77,3.057,6.827,6.827,6.827h204.8
			c3.77,0,6.827-3.057,6.827-6.827C324.267,426.31,321.21,423.253,317.44,423.253z"/>
	</g>
</g>
<g>
	<g>
		<path d="M187.733,136.533h-27.307c-3.77,0-6.827,3.057-6.827,6.827v170.667c0,3.77,3.057,6.827,6.827,6.827h27.307
			c3.77,0,6.827-3.057,6.827-6.827V143.36C194.56,139.59,191.503,136.533,187.733,136.533z M180.907,307.2h-13.653V150.187h13.653
			V307.2z"/>
	</g>
</g>
<g>
	<g>
		<path d="M276.48,211.627h-27.307c-3.77,0-6.827,3.057-6.827,6.827v95.573c0,3.77,3.057,6.827,6.827,6.827h27.307
			c3.77,0,6.827-3.057,6.827-6.827v-95.573C283.307,214.683,280.25,211.627,276.48,211.627z M269.653,307.2H256v-81.92h13.653V307.2
			z"/>
	</g>
</g>
<g>
	<g>
		<path d="M201.387,6.827v102.4c0,15.056-12.25,27.307-27.307,27.307s-27.307-12.25-27.307-27.307V6.827H133.12v102.4
			c0,22.586,18.374,40.96,40.96,40.96c22.586,0,40.96-18.374,40.96-40.96V6.827H201.387z"/>
	</g>
</g>
<g>
	<g>
		<rect x="167.253" y="6.827" width="13.653" height="136.533"/>
	</g>
</g>
<g>
	<g>
		<path d="M276.48,0c-22.883,0-42.344,17.113-45.317,40.323l-9.286,177.773c-0.099,1.87,0.577,3.697,1.867,5.057
			c1.287,1.357,3.075,2.127,4.949,2.127h47.787c3.77,0,6.827-3.057,6.827-6.827V6.827C283.307,3.057,280.25,0,276.48,0z
			 M269.653,211.627h-33.766l8.863-170.073c1.754-13.59,11.964-24.323,24.904-27.16V211.627z"/>
	</g>
</g>
<g>
</g>
<g>
</g>
<g>
</g>
<g>
</g>
<g>
</g>
<g>
</g>
<g>
</g>
<g>
</g>
<g>
</g>
<g>
</g>
<g>
</g>
<g>
</g>
<g>
</g>
<g>
</g>
<g>
</g>
</svg>
