<?xml version="1.0" encoding="iso-8859-1"?>
<!-- Generator: Adobe Illustrator 19.0.0, SVG Export Plug-In . SVG Version: 6.00 Build 0)  -->
<svg version="1.1" id="Capa_1" xmlns="http://www.w3.org/2000/svg" xmlns:xlink="http://www.w3.org/1999/xlink" x="0px" y="0px"
	 viewBox="0 0 430.08 430.08" style="enable-background:new 0 0 430.08 430.08;" xml:space="preserve">
<g>
	<g>
		<path d="M423.253,341.333H6.827c-3.77,0-6.827,3.057-6.827,6.827c0,26.349,21.437,47.787,47.787,47.787h334.507
			c26.349,0,47.787-21.437,47.787-47.787C430.08,344.39,427.023,341.333,423.253,341.333z M382.293,382.293H47.787
			c-16.485,0-30.278-11.747-33.447-27.307h401.401C412.57,370.546,398.776,382.293,382.293,382.293z"/>
	</g>
</g>
<g>
	<g>
		<path d="M389.12,109.227H40.96c-3.77,0-6.827,3.057-6.827,6.827V348.16c0,3.77,3.057,6.827,6.827,6.827h348.16
			c3.77,0,6.827-3.057,6.827-6.827V116.053C395.947,112.283,392.89,109.227,389.12,109.227z M382.293,341.333H47.787V122.88h334.507
			V341.333z"/>
	</g>
</g>
<g>
	<g>
		<path d="M93.573,138.534c-2.666-2.666-6.987-2.666-9.653,0L56.614,165.84c-2.666,2.666-2.666,6.987,0,9.653
			c1.333,1.333,3.081,2,4.826,2s3.494-0.667,4.826-2l27.307-27.307C96.239,145.521,96.239,141.199,93.573,138.534z"/>
	</g>
</g>
<g>
	<g>
		<path d="M359.813,261.414c-2.666-2.666-6.987-2.666-9.653,0l-51.2,51.2c-2.666,2.666-2.666,6.987,0,9.653
			c1.333,1.333,3.081,2,4.826,2s3.494-0.667,4.826-2l51.2-51.2C362.479,268.401,362.479,264.079,359.813,261.414z"/>
	</g>
</g>
<g>
	<g>
		<path d="M359.813,295.547c-2.666-2.666-6.987-2.666-9.653,0l-17.067,17.067c-2.666,2.666-2.666,6.987,0,9.653
			c1.333,1.333,3.081,2,4.826,2s3.494-0.667,4.826-2l17.067-17.067C362.479,302.534,362.479,298.213,359.813,295.547z"/>
	</g>
</g>
<g>
	<g>
		<path d="M184.32,170.667h-27.307c-3.77,0-6.827,3.057-6.827,6.827V348.16c0,3.77,3.057,6.827,6.827,6.827h27.307
			c3.77,0,6.827-3.057,6.827-6.827V177.493C191.147,173.723,188.09,170.667,184.32,170.667z M177.493,341.333H163.84V184.32h13.653
			V341.333z"/>
	</g>
</g>
<g>
	<g>
		<path d="M273.067,245.76H245.76c-3.77,0-6.827,3.057-6.827,6.827v95.573c0,3.77,3.057,6.827,6.827,6.827h27.307
			c3.77,0,6.827-3.057,6.827-6.827v-95.573C279.893,248.817,276.837,245.76,273.067,245.76z M266.24,341.333h-13.653v-81.92h13.653
			V341.333z"/>
	</g>
</g>
<g>
	<g>
		<path d="M197.973,40.96v102.4c0,15.056-12.25,27.307-27.307,27.307s-27.307-12.25-27.307-27.307V40.96h-13.653v102.4
			c0,22.586,18.374,40.96,40.96,40.96c22.586,0,40.96-18.374,40.96-40.96V40.96H197.973z"/>
	</g>
</g>
<g>
	<g>
		<rect x="163.84" y="40.96" width="13.653" height="136.533"/>
	</g>
</g>
<g>
	<g>
		<path d="M273.067,34.133c-22.883,0-42.344,17.113-45.317,40.323l-9.286,177.773c-0.099,1.87,0.577,3.697,1.867,5.057
			c1.287,1.357,3.075,2.127,4.949,2.127h47.787c3.77,0,6.827-3.057,6.827-6.827V40.96C279.893,37.19,276.837,34.133,273.067,34.133z
			 M266.24,245.76h-33.766l8.863-170.073c1.754-13.59,11.964-24.323,24.904-27.16V245.76z"/>
	</g>
</g>
<g>
</g>
<g>
</g>
<g>
</g>
<g>
</g>
<g>
</g>
<g>
</g>
<g>
</g>
<g>
</g>
<g>
</g>
<g>
</g>
<g>
</g>
<g>
</g>
<g>
</g>
<g>
</g>
<g>
</g>
</svg>
