<?xml version="1.0" encoding="iso-8859-1"?>
<!-- Generator: Adobe Illustrator 19.0.0, SVG Export Plug-In . SVG Version: 6.00 Build 0)  -->
<svg version="1.1" id="Capa_1" xmlns="http://www.w3.org/2000/svg" xmlns:xlink="http://www.w3.org/1999/xlink" x="0px" y="0px"
	 viewBox="0 0 432.191 432.191" style="enable-background:new 0 0 432.191 432.191;" xml:space="preserve">
<g>
	<g>
		<path d="M422.18,397.852L317.857,254.265c-2.217-3.053-6.477-3.727-9.537-1.507c-3.05,2.214-3.727,6.48-1.51,9.533
			l104.323,143.587c0.903,1.239,1.046,2.179,0.896,2.613c-0.15,0.433-0.853,1.08-2.336,1.493l-29.863,8.247
			c-4.34,1.193-10.436-1.166-12.814-4.96l-82.294-131.42c-1.997-3.2-6.214-4.168-9.411-2.167c-3.197,2-4.164,6.214-2.164,9.407
			l82.294,131.42c4.497,7.187,13.373,11.68,21.96,11.68c2.06,0,4.103-0.261,6.065-0.8l29.867-8.247
			c5.656-1.567,9.88-5.267,11.587-10.153C426.626,408.119,425.628,402.598,422.18,397.852z"/>
	</g>
</g>
<g>
	<g>
		<g>
			<path d="M317.855,254.265l-176.58-243.04c-8.832-12.16-25.926-14.86-38.083-6.033c-0.003,0.007-0.003,0.007-0.003,0.007
				L9.269,73.438c-1.526,1.106-2.524,2.792-2.76,4.666c-0.236,1.874,0.314,3.76,1.517,5.207l205.16,247.54
				c1.347,1.626,3.294,2.473,5.26,2.473c1.398,0,2.801-0.427,4.007-1.306l93.891-68.221
				C319.395,261.585,320.072,257.318,317.855,254.265z M219.614,317.21L23.184,80.203l88.033-63.966
				c6.074-4.393,14.601-3.053,19.014,3.014l172.566,237.512L219.614,317.21z"/>
			<path d="M115.38,20.63c-5.367-0.853-10.81,0.44-15.241,3.661c-9.136,6.634-11.17,19.468-4.533,28.607
				c4.004,5.506,10.26,8.433,16.597,8.433c4.174,0,8.388-1.266,12.013-3.907c9.136-6.641,11.167-19.473,4.53-28.607
				C125.529,24.39,120.783,21.484,115.38,20.63z M116.192,46.384c-3.043,2.207-7.323,1.539-9.537-1.514
				c-2.214-3.046-1.534-7.327,1.514-9.54c1.478-1.067,3.284-1.487,5.081-1.22c1.799,0.287,3.383,1.261,4.453,2.734
				C119.916,39.89,119.238,44.17,116.192,46.384z"/>
		</g>
	</g>
</g>
<g>
	<g>
		<path d="M128.799,152.243L63.553,71.19c-2.364-2.932-6.67-3.4-9.597-1.039c-2.935,2.367-3.403,6.666-1.036,9.6l65.248,81.053
			c1.347,1.673,3.326,2.546,5.32,2.546c1.504,0,3.016-0.493,4.275-1.507C130.699,159.476,131.166,155.177,128.799,152.243z"/>
	</g>
</g>
<g>
</g>
<g>
</g>
<g>
</g>
<g>
</g>
<g>
</g>
<g>
</g>
<g>
</g>
<g>
</g>
<g>
</g>
<g>
</g>
<g>
</g>
<g>
</g>
<g>
</g>
<g>
</g>
<g>
</g>
</svg>
