<?xml version="1.0" encoding="iso-8859-1"?>
<!-- Generator: Adobe Illustrator 19.0.0, SVG Export Plug-In . SVG Version: 6.00 Build 0)  -->
<svg version="1.1" id="Capa_1" xmlns="http://www.w3.org/2000/svg" xmlns:xlink="http://www.w3.org/1999/xlink" x="0px" y="0px"
	 viewBox="0 0 409.6 409.6" style="enable-background:new 0 0 409.6 409.6;" xml:space="preserve">
<g>
	<g>
		<path d="M204.8,0C91.873,0,0,91.873,0,204.8s91.873,204.8,204.8,204.8s204.8-91.873,204.8-204.8S317.727,0,204.8,0z
			 M204.8,395.947C99.4,395.947,13.653,310.2,13.653,204.8S99.4,13.653,204.8,13.653S395.947,99.4,395.947,204.8
			S310.2,395.947,204.8,395.947z"/>
	</g>
</g>
<g>
	<g>
		<path d="M204.8,136.533c-37.641,0-68.267,30.626-68.267,68.267s30.626,68.267,68.267,68.267s68.267-30.626,68.267-68.267
			S242.441,136.533,204.8,136.533z M204.8,259.413c-30.114,0-54.613-24.499-54.613-54.613s24.499-54.613,54.613-54.613
			s54.613,24.499,54.613,54.613S234.914,259.413,204.8,259.413z"/>
	</g>
</g>
<g>
	<g>
		<path d="M204.8,68.267c-3.773,0-6.827,3.053-6.827,6.827v40.96c0,3.773,3.053,6.827,6.827,6.827s6.827-3.053,6.827-6.827v-40.96
			C211.627,71.32,208.573,68.267,204.8,68.267z"/>
	</g>
</g>
<g>
	<g>
		<path d="M204.8,286.72c-3.773,0-6.827,3.053-6.827,6.827v40.96c0,3.773,3.053,6.827,6.827,6.827s6.827-3.053,6.827-6.827v-40.96
			C211.627,289.773,208.573,286.72,204.8,286.72z"/>
	</g>
</g>
<g>
	<g>
		<path d="M116.053,197.973h-40.96c-3.773,0-6.827,3.053-6.827,6.827s3.053,6.827,6.827,6.827h40.96
			c3.773,0,6.827-3.053,6.827-6.827S119.827,197.973,116.053,197.973z"/>
	</g>
</g>
<g>
	<g>
		<path d="M334.507,197.973h-40.96c-3.773,0-6.827,3.053-6.827,6.827s3.053,6.827,6.827,6.827h40.96
			c3.773,0,6.827-3.053,6.827-6.827S338.28,197.973,334.507,197.973z"/>
	</g>
</g>
<g>
	<g>
		<path d="M146.874,262.726c-2.666-2.666-6.987-2.666-9.653,0l-28.96,28.96c-2.666,2.666-2.666,6.987,0,9.653
			c1.333,1.333,3.081,2,4.826,2c1.746,0,3.494-0.666,4.826-2l28.96-28.96C149.54,269.713,149.54,265.392,146.874,262.726z"/>
	</g>
</g>
<g>
	<g>
		<path d="M301.341,108.259c-2.666-2.666-6.987-2.666-9.653,0l-28.96,28.96c-2.666,2.666-2.666,6.987,0,9.653
			c1.333,1.333,3.081,2,4.826,2s3.492-0.666,4.826-2l28.96-28.96C304.007,115.246,304.007,110.925,301.341,108.259z"/>
	</g>
</g>
<g>
	<g>
		<path d="M146.874,137.221l-28.96-28.96c-2.666-2.666-6.987-2.666-9.653,0s-2.666,6.987,0,9.653l28.959,28.959
			c1.333,1.333,3.081,2,4.826,2c1.748,0,3.494-0.666,4.828-1.999C149.54,144.208,149.54,139.887,146.874,137.221z"/>
	</g>
</g>
<g>
	<g>
		<path d="M301.339,291.686l-28.96-28.96c-2.666-2.666-6.987-2.666-9.653,0c-2.666,2.666-2.666,6.987,0,9.653l28.96,28.96
			c1.333,1.333,3.081,2,4.826,2c1.748,0,3.494-0.666,4.826-2C304.005,298.673,304.005,294.352,301.339,291.686z"/>
	</g>
</g>
<g>
</g>
<g>
</g>
<g>
</g>
<g>
</g>
<g>
</g>
<g>
</g>
<g>
</g>
<g>
</g>
<g>
</g>
<g>
</g>
<g>
</g>
<g>
</g>
<g>
</g>
<g>
</g>
<g>
</g>
</svg>
