<?xml version="1.0" encoding="iso-8859-1"?>
<!-- Generator: Adobe Illustrator 19.0.0, SVG Export Plug-In . SVG Version: 6.00 Build 0)  -->
<svg version="1.1" id="Capa_1" xmlns="http://www.w3.org/2000/svg" xmlns:xlink="http://www.w3.org/1999/xlink" x="0px" y="0px"
	 viewBox="0 0 409.6 409.6" style="enable-background:new 0 0 409.6 409.6;" xml:space="preserve">
<g>
	<g>
		<path d="M274.608,191.147H155.474c-29.268,0-53.074,23.806-53.074,53.072v112.307c0,29.268,23.806,53.074,53.072,53.074h119.134
			c29.268,0,53.074-23.806,53.074-53.072V244.221C327.68,214.953,303.874,191.147,274.608,191.147z M314.027,356.526
			c0,21.734-17.686,39.421-39.419,39.421H155.474c-21.734,0-39.421-17.686-39.421-39.419V244.221
			c0-21.734,17.686-39.421,39.421-39.421h119.132c21.734,0,39.421,17.686,39.421,39.419V356.526z"/>
	</g>
</g>
<g>
	<g>
		<path d="M266.24,68.267h-95.573c-3.773,0-6.827,3.053-6.827,6.827v122.88c0,3.773,3.053,6.827,6.827,6.827h95.573
			c3.773,0,6.827-3.053,6.827-6.827V75.093C273.067,71.32,270.013,68.267,266.24,68.267z M259.413,191.147h-81.92V81.92h81.92
			V191.147z"/>
	</g>
</g>
<g>
	<g>
		<path d="M293.547,40.96H136.533c-3.773,0-6.827,3.053-6.827,6.827v27.307c0,3.773,3.053,6.827,6.827,6.827h157.013
			c3.773,0,6.827-3.053,6.827-6.827V47.787C300.373,44.013,297.32,40.96,293.547,40.96z M286.72,68.267H143.36V54.613h143.36V68.267
			z"/>
	</g>
</g>
<g>
	<g>
		<path d="M218.453,6.827c-3.773,0-6.827,3.053-6.827,6.827v34.133c0,3.773,3.053,6.827,6.827,6.827s6.827-3.053,6.827-6.827V13.653
			C225.28,9.88,222.227,6.827,218.453,6.827z"/>
	</g>
</g>
<g>
	<g>
		<path d="M238.933,0h-40.96c-3.773,0-6.827,3.053-6.827,6.827s3.053,6.827,6.827,6.827h40.96c3.773,0,6.827-3.053,6.827-6.827
			S242.707,0,238.933,0z"/>
	</g>
</g>
<g>
	<g>
		<path d="M163.84,40.96H88.747c-3.773,0-6.827,3.053-6.827,6.827s3.053,6.827,6.827,6.827h75.093c3.773,0,6.827-3.053,6.827-6.827
			S167.613,40.96,163.84,40.96z"/>
	</g>
</g>
<g>
</g>
<g>
</g>
<g>
</g>
<g>
</g>
<g>
</g>
<g>
</g>
<g>
</g>
<g>
</g>
<g>
</g>
<g>
</g>
<g>
</g>
<g>
</g>
<g>
</g>
<g>
</g>
<g>
</g>
</svg>
