<?xml version="1.0" encoding="iso-8859-1"?>
<!-- Generator: Adobe Illustrator 19.0.0, SVG Export Plug-In . SVG Version: 6.00 Build 0)  -->
<svg version="1.1" id="Capa_1" xmlns="http://www.w3.org/2000/svg" xmlns:xlink="http://www.w3.org/1999/xlink" x="0px" y="0px"
	 viewBox="0 0 443.733 443.733" style="enable-background:new 0 0 443.733 443.733;" xml:space="preserve">
<g>
	<g>
		<path d="M241.86,320.853H23.407c-3.77,0-6.827,3.053-6.827,6.827c0,63.993,52.06,116.053,116.053,116.053
			s116.053-52.06,116.053-116.053C248.687,323.907,245.63,320.853,241.86,320.853z M132.634,430.08
			c-54.17,0-98.647-42.279-102.173-95.573h204.346C231.281,387.801,186.803,430.08,132.634,430.08z"/>
	</g>
</g>
<g>
	<g>
		<path d="M146.287,177.493H118.98c-3.77,0-6.827,3.053-6.827,6.827v143.36c0,3.773,3.057,6.827,6.827,6.827h27.307
			c3.77,0,6.827-3.053,6.827-6.827V184.32C153.114,180.547,150.057,177.493,146.287,177.493z M139.46,320.853h-13.653V191.147
			h13.653V320.853z"/>
	</g>
</g>
<g>
	<g>
		<path d="M132.634,0C113.814,0,98.5,15.314,98.5,34.133v122.88c0,18.819,15.314,34.133,34.133,34.133
			c18.819,0,34.133-15.314,34.133-34.133V34.133C166.767,15.314,151.453,0,132.634,0z M153.114,157.013
			c0,11.293-9.187,20.48-20.48,20.48c-11.293,0-20.48-9.187-20.48-20.48V34.133c0-11.293,9.187-20.48,20.48-20.48
			c11.293,0,20.48,9.187,20.48,20.48V157.013z"/>
	</g>
</g>
<g>
	<g>
		<path d="M351.087,197.973H323.78c-3.77,0-6.827,3.053-6.827,6.827v95.573c0,3.773,3.057,6.827,6.827,6.827h27.307
			c3.77,0,6.827-3.053,6.827-6.827V204.8C357.914,201.027,354.857,197.973,351.087,197.973z M344.26,293.547h-13.653v-81.92h13.653
			V293.547z"/>
	</g>
</g>
<g>
	<g>
		<path d="M337.434,293.547c-18.819,0-34.133,15.314-34.133,34.133v81.92c0,18.819,15.314,34.133,34.133,34.133
			c18.819,0,34.133-15.314,34.133-34.133v-81.92C371.567,308.861,356.253,293.547,337.434,293.547z M357.914,409.6
			c0,11.293-9.187,20.48-20.48,20.48s-20.48-9.187-20.48-20.48v-81.92c0-11.293,9.187-20.48,20.48-20.48s20.48,9.187,20.48,20.48
			V409.6z"/>
	</g>
</g>
<g>
	<g>
		<g>
			<path d="M303.3,27.307h-20.48c-3.77,0-6.827,3.053-6.827,6.827v143.36c0,3.773,3.057,6.827,6.827,6.827h20.48
				c3.77,0,6.827-3.053,6.827-6.827V34.133C310.127,30.36,307.07,27.307,303.3,27.307z M296.474,170.667h-6.827V40.96h6.827V170.667
				z"/>
			<path d="M425.04,29.853c0.423-5.926-1.657-11.826-5.711-16.179s-9.788-6.847-15.734-6.847H271.27
				c-5.946,0-11.679,2.492-15.732,6.845s-6.132,10.254-5.726,15.607l-2.098,161.807c-0.003,0.186,0.003,0.381,0.017,0.573
				c0.795,11.192,10.216,19.966,21.443,19.966h136.52c11.226,0,20.647-8.774,21.46-20.54L425.04,29.853z M405.692,197.973h-136.52
				c-4.016,0-7.397-3.074-7.803-7.047l2.077-162.046c-0.155-2.193,0.584-4.294,2.084-5.9c1.5-1.613,3.536-2.5,5.74-2.5h132.326
				c2.203,0,4.241,0.887,5.74,2.499c1.5,1.606,2.241,3.707,2.067,6.473l2.113,161.234
				C413.225,194.773,409.788,197.973,405.692,197.973z"/>
			<path d="M351.087,27.307H323.78c-3.77,0-6.827,3.053-6.827,6.827v143.36c0,3.773,3.057,6.827,6.827,6.827h27.307
				c3.77,0,6.827-3.053,6.827-6.827V34.133C357.914,30.36,354.857,27.307,351.087,27.307z M344.26,170.667h-13.653V40.96h13.653
				V170.667z"/>
			<path d="M392.047,27.307h-20.48c-3.77,0-6.827,3.053-6.827,6.827v143.36c0,3.773,3.057,6.827,6.827,6.827h20.48
				c3.77,0,6.827-3.053,6.827-6.827V34.133C398.874,30.36,395.817,27.307,392.047,27.307z M385.22,170.667h-6.827V40.96h6.827
				V170.667z"/>
		</g>
	</g>
</g>
<g>
</g>
<g>
</g>
<g>
</g>
<g>
</g>
<g>
</g>
<g>
</g>
<g>
</g>
<g>
</g>
<g>
</g>
<g>
</g>
<g>
</g>
<g>
</g>
<g>
</g>
<g>
</g>
<g>
</g>
</svg>
