<?xml version="1.0" encoding="iso-8859-1"?>
<!-- Generator: Adobe Illustrator 19.0.0, SVG Export Plug-In . SVG Version: 6.00 Build 0)  -->
<svg version="1.1" id="Capa_1" xmlns="http://www.w3.org/2000/svg" xmlns:xlink="http://www.w3.org/1999/xlink" x="0px" y="0px"
	 viewBox="0 0 389.829 389.829" style="enable-background:new 0 0 389.829 389.829;" xml:space="preserve">
<g>
	<g>
		<path d="M359.946,311.68c-3.521-3.528-11.573-9.54-23.76-18.64c-17.773-13.273-42.121-31.445-64.734-51.319
			c-31.386-27.573-57.44-60.846-67.18-73.866c-2.255-3.014-6.533-3.647-9.554-1.381c-3.021,2.261-3.64,6.54-1.381,9.554
			c12.419,16.606,37.914,48.553,69.1,75.947c23.019,20.234,47.621,38.601,65.58,52.007c10.433,7.793,19.447,14.527,22.274,17.353
			c35.946,35.948,25.054,46.853,21.473,50.434c-3.581,3.574-14.488,14.467-50.434-21.473c-2.826-2.826-9.561-11.841-17.353-22.274
			c-13.408-17.961-31.775-42.561-52.007-65.58c-29.094-33.113-63.867-60.146-77.467-70.233c-3.021-2.241-7.313-1.613-9.547,1.413
			c-2.248,3.028-1.613,7.308,1.413,9.547c13.245,9.827,47.113,36.154,75.346,68.287c19.872,22.613,38.047,46.961,51.319,64.734
			c9.1,12.187,15.114,20.241,18.64,23.76c8.46,8.46,29.879,29.88,50.246,29.88c6.787,0,13.461-2.381,19.499-8.41
			C405.546,357.28,371.225,322.959,359.946,311.68z"/>
	</g>
</g>
<g>
	<g>
		<path d="M173.84,38.688C128.58-6.571,61.46-13.065,24.2,24.208C-13.06,61.475-6.568,128.602,38.679,173.849
			c25.494,25.494,57.928,38.687,88.054,38.687c23.354,0,45.321-7.927,61.594-24.201C225.587,151.068,219.088,83.935,173.84,38.688z
			 M178.674,178.682c-31.947,31.927-90.412,25.434-130.34-14.486C8.415,124.277,1.914,65.81,33.855,33.863
			c13.653-13.653,32.147-20.28,51.973-20.28c26.559,0,55.499,11.899,78.36,34.76C204.113,88.268,210.614,146.735,178.674,178.682z"
			/>
	</g>
</g>
<g>
	<g>
		<path d="M135.229,77.308c-40.774-40.765-92.02-72.1-111.027-53.1C5.194,43.222,36.527,94.455,77.301,135.236
			c32.372,32.381,71.339,58.8,95.539,58.8c6.281,0,11.566-1.78,15.488-5.7C207.342,169.314,176.01,118.082,135.229,77.308z
			 M178.674,178.682c-7.873,7.861-47.52-8.9-91.72-53.099c-44.192-44.199-60.966-83.847-53.099-91.72
			c1.246-1.248,3.285-1.874,6.019-1.874c14.513,0,48.493,17.773,85.7,54.973C169.767,131.155,186.54,170.803,178.674,178.682z"/>
	</g>
</g>
<g>
</g>
<g>
</g>
<g>
</g>
<g>
</g>
<g>
</g>
<g>
</g>
<g>
</g>
<g>
</g>
<g>
</g>
<g>
</g>
<g>
</g>
<g>
</g>
<g>
</g>
<g>
</g>
<g>
</g>
</svg>
