<?xml version="1.0" encoding="iso-8859-1"?>
<!-- Generator: Adobe Illustrator 19.0.0, SVG Export Plug-In . SVG Version: 6.00 Build 0)  -->
<svg version="1.1" id="Capa_1" xmlns="http://www.w3.org/2000/svg" xmlns:xlink="http://www.w3.org/1999/xlink" x="0px" y="0px"
	 viewBox="0 0 436.907 436.907" style="enable-background:new 0 0 436.907 436.907;" xml:space="preserve">
<g>
	<g>
		<path d="M232.108,136.533h-27.307c-3.77,0-6.827,3.053-6.827,6.827v95.573c0,3.773,3.057,6.827,6.827,6.827h27.307
			c3.77,0,6.827-3.053,6.827-6.827V143.36C238.935,139.587,235.878,136.533,232.108,136.533z M225.281,232.107h-13.653v-81.92
			h13.653V232.107z"/>
	</g>
</g>
<g>
	<g>
		<path d="M218.455,0c-18.819,0-34.133,15.314-34.133,34.133v81.92c0,18.819,15.314,34.133,34.133,34.133
			s34.133-15.314,34.133-34.133v-81.92C252.588,15.314,237.274,0,218.455,0z M238.935,116.053c0,11.293-9.187,20.48-20.48,20.48
			s-20.48-9.187-20.48-20.48v-81.92c0-11.293,9.187-20.48,20.48-20.48s20.48,9.187,20.48,20.48V116.053z"/>
	</g>
</g>
<g>
	<g>
		<g>
			<path d="M184.321,259.413h-20.48c-3.77,0-6.827,3.053-6.827,6.827V409.6c0,3.773,3.057,6.827,6.827,6.827h20.48
				c3.77,0,6.827-3.053,6.827-6.827V266.24C191.148,262.467,188.091,259.413,184.321,259.413z M177.495,402.773h-6.827V273.067
				h6.827V402.773z"/>
			<path d="M232.108,259.413h-27.307c-3.77,0-6.827,3.053-6.827,6.827V409.6c0,3.773,3.057,6.827,6.827,6.827h27.307
				c3.77,0,6.827-3.053,6.827-6.827V266.24C238.935,262.467,235.878,259.413,232.108,259.413z M225.281,402.773h-13.653V273.067
				h13.653V402.773z"/>
			<path d="M308.172,252.646c0.003-0.186-0.003-0.381-0.017-0.573c-0.795-11.192-10.216-19.966-21.443-19.966h-136.52
				c-11.226,0-20.646,8.772-21.46,20.54l2.113,161.234c-0.423,5.926,1.657,11.826,5.711,16.179s9.788,6.847,15.734,6.847h132.326
				c5.948,0,11.679-2.492,15.732-6.846c4.053-4.354,6.132-10.254,5.726-15.607L308.172,252.646z M290.356,420.755
				c-1.5,1.613-3.536,2.5-5.74,2.5H152.291c-2.203,0-4.239-0.887-5.74-2.5c-1.5-1.606-2.241-3.707-2.067-6.473l-2.113-161.234
				c0.29-4.088,3.727-7.287,7.823-7.287v0.002h136.52c4.016,0,7.397,3.074,7.803,7.047l-2.077,162.046
				C292.596,417.048,291.857,419.149,290.356,420.755z"/>
			<path d="M273.068,259.413h-20.48c-3.77,0-6.827,3.053-6.827,6.827V409.6c0,3.773,3.057,6.827,6.827,6.827h20.48
				c3.77,0,6.827-3.053,6.827-6.827V266.24C279.895,262.467,276.838,259.413,273.068,259.413z M266.241,402.773h-6.827V273.067
				h6.827V402.773z"/>
		</g>
	</g>
</g>
<g>
</g>
<g>
</g>
<g>
</g>
<g>
</g>
<g>
</g>
<g>
</g>
<g>
</g>
<g>
</g>
<g>
</g>
<g>
</g>
<g>
</g>
<g>
</g>
<g>
</g>
<g>
</g>
<g>
</g>
</svg>
