<?xml version="1.0" encoding="iso-8859-1"?>
<!-- Generator: Adobe Illustrator 19.0.0, SVG Export Plug-In . SVG Version: 6.00 Build 0)  -->
<svg version="1.1" id="Capa_1" xmlns="http://www.w3.org/2000/svg" xmlns:xlink="http://www.w3.org/1999/xlink" x="0px" y="0px"
	 viewBox="0 0 416.427 416.427" style="enable-background:new 0 0 416.427 416.427;" xml:space="preserve">
<g>
	<g>
		<path d="M324.245,409.054L296.938,67.721c-0.287-3.546-3.246-6.281-6.806-6.281H119.465c-3.613,0-6.6,2.813-6.813,6.42
			l-20.48,341.333c-0.113,1.872,0.553,3.719,1.847,5.086c1.287,1.374,3.086,2.147,4.966,2.147h218.453
			c1.906,0,3.727-0.794,5.012-2.193C323.745,412.834,324.398,410.953,324.245,409.054z M106.232,402.773l19.661-327.68h157.94
			l26.213,327.68H106.232z"/>
	</g>
</g>
<g>
	<g>
		<path d="M283.252,347.286c-0.447-3.406-3.34-5.953-6.774-5.953H146.772c-3.773,0-6.827,3.053-6.827,6.827s3.053,6.827,6.827,6.827
			h76.94l-78.679,20.707c-3.647,0.961-5.82,4.693-4.861,8.34c0.806,3.058,3.567,5.086,6.593,5.086c0.58,0,1.161-0.073,1.748-0.227
			l129.707-34.133C281.532,353.886,283.693,350.686,283.252,347.286z"/>
	</g>
</g>
<g>
	<g>
		<path d="M252.251,0h-94.906c-20.886,0-37.879,16.993-37.879,37.879v30.387c0,3.773,3.053,6.827,6.827,6.827h27.307
			c3.773,0,6.827-3.053,6.827-6.827V40.96h88.747v27.307c0,3.773,3.053,6.827,6.827,6.827h27.307c3.773,0,6.827-3.053,6.825-6.827
			V37.879C290.13,16.993,273.137,0,252.251,0z M276.479,61.44h-13.653V37.879c0-5.833-4.739-10.573-10.573-10.573h-94.906
			c-5.833,0-10.573,4.739-10.573,10.573V61.44H133.12V37.879c0-13.36,10.866-24.226,24.226-24.226h94.906
			c13.36,0,24.226,10.866,24.226,24.226V61.44z"/>
	</g>
</g>
<g>
	<g>
		<path d="M143.359,286.72c-5.647,0-10.24,4.593-10.24,10.24c0,5.647,4.593,10.24,10.24,10.24s10.24-4.593,10.24-10.24
			C153.599,291.313,149.006,286.72,143.359,286.72z M143.359,300.373c-1.881,0-3.413-1.533-3.413-3.413
			c0-1.881,1.533-3.413,3.413-3.413s3.413,1.533,3.413,3.413C146.772,298.841,145.239,300.373,143.359,300.373z"/>
	</g>
</g>
<g>
	<g>
		<path d="M184.319,286.72c-5.647,0-10.24,4.593-10.24,10.24c0,5.647,4.593,10.24,10.24,10.24c5.647,0,10.24-4.593,10.24-10.24
			C194.559,291.313,189.966,286.72,184.319,286.72z M184.319,300.373c-1.881,0-3.413-1.533-3.413-3.413
			c0-1.881,1.533-3.413,3.413-3.413c1.881,0,3.413,1.533,3.413,3.413C187.732,298.841,186.199,300.373,184.319,300.373z"/>
	</g>
</g>
<g>
	<g>
		<path d="M225.279,286.72c-5.647,0-10.24,4.593-10.24,10.24c0,5.647,4.593,10.24,10.24,10.24c5.647,0,10.24-4.593,10.24-10.24
			C235.518,291.313,230.926,286.72,225.279,286.72z M225.279,300.373c-1.881,0-3.413-1.533-3.413-3.413
			c0-1.881,1.533-3.413,3.413-3.413c1.881,0,3.413,1.533,3.413,3.413C228.692,298.841,227.159,300.373,225.279,300.373z"/>
	</g>
</g>
<g>
	<g>
		<path d="M266.239,286.72c-5.647,0-10.24,4.593-10.24,10.24c0,5.647,4.593,10.24,10.24,10.24c5.647,0,10.24-4.593,10.24-10.24
			C276.479,291.313,271.886,286.72,266.239,286.72z M266.239,300.373c-1.881,0-3.413-1.533-3.413-3.413
			c0-1.881,1.533-3.413,3.413-3.413s3.413,1.533,3.413,3.413C269.652,298.841,268.119,300.373,266.239,300.373z"/>
	</g>
</g>
<g>
	<g>
		<path d="M163.839,245.76c-5.647,0-10.24,4.593-10.24,10.24c0,5.647,4.593,10.24,10.24,10.24c5.647,0,10.24-4.593,10.24-10.24
			C174.078,250.353,169.486,245.76,163.839,245.76z M163.839,259.413c-1.881,0-3.413-1.533-3.413-3.413
			c0-1.881,1.533-3.413,3.413-3.413c1.881,0,3.413,1.533,3.413,3.413C167.252,257.881,165.719,259.413,163.839,259.413z"/>
	</g>
</g>
<g>
	<g>
		<path d="M204.799,245.76c-5.647,0-10.24,4.593-10.24,10.24c0,5.647,4.593,10.24,10.24,10.24c5.647,0,10.24-4.593,10.24-10.24
			C215.039,250.353,210.446,245.76,204.799,245.76z M204.799,259.413c-1.881,0-3.413-1.533-3.413-3.413
			c0-1.881,1.533-3.413,3.413-3.413s3.413,1.533,3.413,3.413C208.212,257.881,206.679,259.413,204.799,259.413z"/>
	</g>
</g>
<g>
	<g>
		<path d="M245.759,245.76c-5.647,0-10.24,4.593-10.24,10.24c0,5.647,4.593,10.24,10.24,10.24c5.647,0,10.24-4.593,10.24-10.24
			C255.999,250.353,251.406,245.76,245.759,245.76z M245.759,259.413c-1.881,0-3.413-1.533-3.413-3.413
			c0-1.881,1.533-3.413,3.413-3.413c1.881,0,3.413,1.533,3.413,3.413C249.172,257.881,247.639,259.413,245.759,259.413z"/>
	</g>
</g>
<g>
	<g>
		<path d="M143.359,204.8c-5.647,0-10.24,4.593-10.24,10.24c0,5.647,4.593,10.24,10.24,10.24s10.24-4.593,10.24-10.24
			C153.599,209.393,149.006,204.8,143.359,204.8z M143.359,218.453c-1.881,0-3.413-1.533-3.413-3.413
			c0-1.881,1.533-3.413,3.413-3.413s3.413,1.533,3.413,3.413C146.772,216.921,145.239,218.453,143.359,218.453z"/>
	</g>
</g>
<g>
	<g>
		<path d="M184.319,204.8c-5.647,0-10.24,4.593-10.24,10.24c0,5.647,4.593,10.24,10.24,10.24c5.647,0,10.24-4.593,10.24-10.24
			C194.559,209.393,189.966,204.8,184.319,204.8z M184.319,218.453c-1.881,0-3.413-1.533-3.413-3.413
			c0-1.881,1.533-3.413,3.413-3.413c1.881,0,3.413,1.533,3.413,3.413C187.732,216.921,186.199,218.453,184.319,218.453z"/>
	</g>
</g>
<g>
	<g>
		<path d="M225.279,204.8c-5.647,0-10.24,4.593-10.24,10.24c0,5.647,4.593,10.24,10.24,10.24c5.647,0,10.24-4.593,10.24-10.24
			C235.518,209.393,230.926,204.8,225.279,204.8z M225.279,218.453c-1.881,0-3.413-1.533-3.413-3.413
			c0-1.881,1.533-3.413,3.413-3.413c1.881,0,3.413,1.533,3.413,3.413C228.692,216.921,227.159,218.453,225.279,218.453z"/>
	</g>
</g>
<g>
	<g>
		<path d="M266.239,204.8c-5.647,0-10.24,4.593-10.24,10.24c0,5.647,4.593,10.24,10.24,10.24c5.647,0,10.24-4.593,10.24-10.24
			C276.479,209.393,271.886,204.8,266.239,204.8z M266.239,218.453c-1.881,0-3.413-1.533-3.413-3.413
			c0-1.881,1.533-3.413,3.413-3.413s3.413,1.533,3.413,3.413C269.652,216.921,268.119,218.453,266.239,218.453z"/>
	</g>
</g>
<g>
	<g>
		<path d="M163.839,170.667c-5.647,0-10.24,4.593-10.24,10.24c0,5.647,4.593,10.24,10.24,10.24c5.647,0,10.24-4.593,10.24-10.24
			C174.078,175.259,169.486,170.667,163.839,170.667z M163.839,184.32c-1.881,0-3.413-1.533-3.413-3.413
			c0-1.881,1.533-3.413,3.413-3.413c1.881,0,3.413,1.533,3.413,3.413C167.252,182.787,165.719,184.32,163.839,184.32z"/>
	</g>
</g>
<g>
	<g>
		<path d="M204.799,170.667c-5.647,0-10.24,4.593-10.24,10.24c0,5.647,4.593,10.24,10.24,10.24c5.647,0,10.24-4.593,10.24-10.24
			C215.039,175.259,210.446,170.667,204.799,170.667z M204.799,184.32c-1.881,0-3.413-1.533-3.413-3.413
			c0-1.881,1.533-3.413,3.413-3.413s3.413,1.533,3.413,3.413C208.212,182.787,206.679,184.32,204.799,184.32z"/>
	</g>
</g>
<g>
	<g>
		<path d="M245.759,170.667c-5.647,0-10.24,4.593-10.24,10.24c0,5.647,4.593,10.24,10.24,10.24c5.647,0,10.24-4.593,10.24-10.24
			C255.999,175.259,251.406,170.667,245.759,170.667z M245.759,184.32c-1.881,0-3.413-1.533-3.413-3.413
			c0-1.881,1.533-3.413,3.413-3.413c1.881,0,3.413,1.533,3.413,3.413C249.172,182.787,247.639,184.32,245.759,184.32z"/>
	</g>
</g>
<g>
	<g>
		<path d="M143.359,129.707c-5.647,0-10.24,4.593-10.24,10.24s4.593,10.24,10.24,10.24s10.24-4.593,10.24-10.24
			S149.006,129.707,143.359,129.707z M143.359,143.36c-1.881,0-3.413-1.533-3.413-3.413s1.533-3.413,3.413-3.413
			s3.413,1.533,3.413,3.413S145.239,143.36,143.359,143.36z"/>
	</g>
</g>
<g>
	<g>
		<path d="M184.319,129.707c-5.647,0-10.24,4.593-10.24,10.24s4.593,10.24,10.24,10.24c5.647,0,10.24-4.593,10.24-10.24
			S189.966,129.707,184.319,129.707z M184.319,143.36c-1.881,0-3.413-1.533-3.413-3.413s1.533-3.413,3.413-3.413
			c1.881,0,3.413,1.533,3.413,3.413S186.199,143.36,184.319,143.36z"/>
	</g>
</g>
<g>
	<g>
		<path d="M225.279,129.707c-5.647,0-10.24,4.593-10.24,10.24s4.593,10.24,10.24,10.24c5.647,0,10.24-4.593,10.24-10.24
			S230.926,129.707,225.279,129.707z M225.279,143.36c-1.881,0-3.413-1.533-3.413-3.413s1.533-3.413,3.413-3.413
			c1.881,0,3.413,1.533,3.413,3.413S227.159,143.36,225.279,143.36z"/>
	</g>
</g>
<g>
	<g>
		<path d="M266.239,129.707c-5.647,0-10.24,4.593-10.24,10.24s4.593,10.24,10.24,10.24c5.647,0,10.24-4.593,10.24-10.24
			S271.886,129.707,266.239,129.707z M266.239,143.36c-1.881,0-3.413-1.533-3.413-3.413s1.533-3.413,3.413-3.413
			s3.413,1.533,3.413,3.413S268.119,143.36,266.239,143.36z"/>
	</g>
</g>
<g>
	<g>
		<path d="M163.839,95.573c-5.647,0-10.24,4.593-10.24,10.24c0,5.647,4.593,10.24,10.24,10.24c5.647,0,10.24-4.593,10.24-10.24
			C174.078,100.166,169.486,95.573,163.839,95.573z M163.839,109.227c-1.881,0-3.413-1.533-3.413-3.413
			c0-1.881,1.533-3.413,3.413-3.413c1.881,0,3.413,1.533,3.413,3.413C167.252,107.694,165.719,109.227,163.839,109.227z"/>
	</g>
</g>
<g>
	<g>
		<path d="M204.799,95.573c-5.647,0-10.24,4.593-10.24,10.24c0,5.647,4.593,10.24,10.24,10.24c5.647,0,10.24-4.593,10.24-10.24
			C215.039,100.166,210.446,95.573,204.799,95.573z M204.799,109.227c-1.881,0-3.413-1.533-3.413-3.413
			c0-1.881,1.533-3.413,3.413-3.413s3.413,1.533,3.413,3.413C208.212,107.694,206.679,109.227,204.799,109.227z"/>
	</g>
</g>
<g>
	<g>
		<path d="M245.759,95.573c-5.647,0-10.24,4.593-10.24,10.24c0,5.647,4.593,10.24,10.24,10.24c5.647,0,10.24-4.593,10.24-10.24
			C255.999,100.166,251.406,95.573,245.759,95.573z M245.759,109.227c-1.881,0-3.413-1.533-3.413-3.413
			c0-1.881,1.533-3.413,3.413-3.413c1.881,0,3.413,1.533,3.413,3.413C249.172,107.694,247.639,109.227,245.759,109.227z"/>
	</g>
</g>
<g>
</g>
<g>
</g>
<g>
</g>
<g>
</g>
<g>
</g>
<g>
</g>
<g>
</g>
<g>
</g>
<g>
</g>
<g>
</g>
<g>
</g>
<g>
</g>
<g>
</g>
<g>
</g>
<g>
</g>
</svg>
