<?xml version="1.0" encoding="iso-8859-1"?>
<!-- Generator: Adobe Illustrator 19.0.0, SVG Export Plug-In . SVG Version: 6.00 Build 0)  -->
<svg version="1.1" id="Capa_1" xmlns="http://www.w3.org/2000/svg" xmlns:xlink="http://www.w3.org/1999/xlink" x="0px" y="0px"
	 viewBox="0 0 402.773 402.773" style="enable-background:new 0 0 402.773 402.773;" xml:space="preserve">
<g>
	<g>
		<path d="M273.971,382.147l-11.82-82.739c-0.48-3.36-3.36-5.861-6.757-5.861H105.207c-3.396,0-6.277,2.5-6.757,5.861l-11.82,82.739
			c-0.744,5.193,0.802,10.441,4.236,14.401c3.434,3.953,8.407,6.226,13.646,6.226h151.572c5.239,0,10.213-2.273,13.65-6.226
			C273.167,392.586,274.715,387.34,273.971,382.147z M259.416,387.599c-0.493,0.567-1.584,1.521-3.333,1.521H104.511
			c-1.749,0-2.84-0.954-3.333-1.521c-0.493-0.572-1.283-1.785-1.036-3.519l10.984-76.88h138.346l10.981,76.88
			C260.7,385.813,259.91,387.026,259.416,387.599z"/>
	</g>
</g>
<g>
	<g>
		<path d="M180.299,320.853c-15.056,0-27.307,12.247-27.307,27.307c0,15.06,12.25,27.307,27.307,27.307s27.307-12.247,27.307-27.307
			C207.605,333.1,195.355,320.853,180.299,320.853z M180.299,361.813c-7.53,0-13.653-6.127-13.653-13.653
			c0-7.526,6.124-13.653,13.653-13.653c7.53,0,13.653,6.127,13.653,13.653C193.952,355.686,187.829,361.813,180.299,361.813z"/>
	</g>
</g>
<g>
	<g>
		<path d="M267.119,49.86c-1.287-1.326-3.053-2.074-4.9-2.074H98.379c-1.847,0-3.613,0.747-4.9,2.074
			c-1.287,1.326-1.98,3.113-1.923,4.96l6.827,225.28c0.109,3.686,3.133,6.62,6.823,6.62h150.187c3.69,0,6.712-2.934,6.823-6.62
			l6.827-225.28C269.098,52.973,268.405,51.186,267.119,49.86z M248.768,273.067h-136.94L105.415,61.44h149.767L248.768,273.067z"/>
	</g>
</g>
<g>
	<g>
		<path d="M180.299,0c-30.114,0-54.613,24.499-54.613,54.613c0,3.773,3.057,6.827,6.827,6.827c3.77,0,6.827-3.053,6.827-6.827
			c0-22.586,18.374-40.96,40.96-40.96c22.586,0,40.96,18.374,40.96,40.96c0,3.773,3.057,6.827,6.827,6.827s6.827-3.053,6.827-6.827
			C234.912,24.499,210.413,0,180.299,0z"/>
	</g>
</g>
<g>
	<g>
		<path d="M214.432,81.92h-68.267c-3.77,0-6.827,3.053-6.827,6.827s3.057,6.827,6.827,6.827h68.267c3.77,0,6.827-3.053,6.827-6.827
			S218.202,81.92,214.432,81.92z"/>
	</g>
</g>
<g>
	<g>
		<path d="M214.432,109.227h-68.267c-3.77,0-6.827,3.053-6.827,6.827s3.057,6.827,6.827,6.827h68.267
			c3.77,0,6.827-3.053,6.827-6.827S218.202,109.227,214.432,109.227z"/>
	</g>
</g>
<g>
	<g>
		<path d="M308.005,83.92c-20.019-20.019-41.859-8.76-50.613,0c-2.666,2.666-2.666,6.987,0,9.653c2.666,2.666,6.987,2.666,9.653,0
			c1.611-1.601,16.101-15.206,31.307,0c11.803,11.807-1.69,58.52-15.043,87.921c-1.556,3.434-0.041,7.48,3.393,9.04
			c0.916,0.42,1.876,0.613,2.819,0.613c2.592,0,5.074-1.487,6.216-4C330.091,111.573,311.985,87.9,308.005,83.92z"/>
	</g>
</g>
<g>
</g>
<g>
</g>
<g>
</g>
<g>
</g>
<g>
</g>
<g>
</g>
<g>
</g>
<g>
</g>
<g>
</g>
<g>
</g>
<g>
</g>
<g>
</g>
<g>
</g>
<g>
</g>
<g>
</g>
</svg>
