<?xml version="1.0" encoding="iso-8859-1"?>
<!-- Generator: Adobe Illustrator 19.0.0, SVG Export Plug-In . SVG Version: 6.00 Build 0)  -->
<svg version="1.1" id="Capa_1" xmlns="http://www.w3.org/2000/svg" xmlns:xlink="http://www.w3.org/1999/xlink" x="0px" y="0px"
	 viewBox="0 0 409.6 409.6" style="enable-background:new 0 0 409.6 409.6;" xml:space="preserve">
<g>
	<g>
		<path d="M262.828,279.893H146.775c-3.77,0-6.827,3.053-6.827,6.827v102.287c0,11.353,9.237,20.593,20.593,20.593h88.52
			c11.356,0,20.593-9.24,20.594-20.593V286.72C269.655,282.947,266.598,279.893,262.828,279.893z M255.998,389.007
			c0,3.826-3.113,6.939-6.939,6.939h-88.52c-3.826,0-6.939-3.113-6.939-6.939v-95.461h102.398V389.007z"/>
	</g>
</g>
<g>
	<g>
		<path d="M262.827,211.627H146.773c-3.77,0-6.827,3.053-6.827,6.827v68.267c0,3.773,3.057,6.827,6.827,6.827h116.053
			c3.77,0,6.827-3.053,6.827-6.827v-68.267C269.653,214.68,266.597,211.627,262.827,211.627z M256,279.893H153.6V225.28H256V279.893
			z"/>
	</g>
</g>
<g>
	<g>
		<path d="M262.827,109.227H146.773c-3.77,0-6.827,3.053-6.827,6.827v102.4c0,3.773,3.057,6.827,6.827,6.827h116.053
			c3.77,0,6.827-3.053,6.827-6.827v-102.4C269.653,112.28,266.597,109.227,262.827,109.227z M256,211.627H153.6V122.88H256V211.627z
			"/>
	</g>
</g>
<g>
	<g>
		<path d="M276.48,88.747H133.12c-3.77,0-6.827,3.053-6.827,6.827v20.48c0,3.773,3.057,6.827,6.827,6.827h143.36
			c3.77,0,6.827-3.053,6.827-6.827v-20.48C283.307,91.8,280.25,88.747,276.48,88.747z M269.653,109.227H139.947V102.4h129.707
			V109.227z"/>
	</g>
</g>
<g>
	<g>
		<path d="M268.836,92.339L221.049,3.593C219.86,1.381,217.55,0,215.04,0h-20.48c-2.51,0-4.82,1.381-6.011,3.594l-47.787,88.747
			c-1.14,2.113-1.084,4.673,0.15,6.733c1.23,2.067,3.458,3.326,5.861,3.326h116.053c2.403,0,4.63-1.259,5.859-3.328
			C269.92,97.012,269.976,94.452,268.836,92.339z M158.203,88.747l40.433-75.093h12.327l40.433,75.093H158.203z"/>
	</g>
</g>
<g>
</g>
<g>
</g>
<g>
</g>
<g>
</g>
<g>
</g>
<g>
</g>
<g>
</g>
<g>
</g>
<g>
</g>
<g>
</g>
<g>
</g>
<g>
</g>
<g>
</g>
<g>
</g>
<g>
</g>
</svg>
