<?xml version="1.0" encoding="iso-8859-1"?>
<!-- Generator: Adobe Illustrator 19.0.0, SVG Export Plug-In . SVG Version: 6.00 Build 0)  -->
<svg version="1.1" id="Capa_1" xmlns="http://www.w3.org/2000/svg" xmlns:xlink="http://www.w3.org/1999/xlink" x="0px" y="0px"
	 viewBox="0 0 418.241 418.241" style="enable-background:new 0 0 418.241 418.241;" xml:space="preserve">
<g>
	<g>
		<path d="M321.431,174.855c-3.773,0-6.827,3.053-6.827,6.827v196.9l-17.833,26.006H121.464l-17.83-26.006v-196.9
			c0-3.773-3.057-6.827-6.827-6.827s-6.827,3.053-6.827,6.827v199.013c0,1.381,0.416,2.727,1.196,3.86l21.06,30.72
			c1.273,1.86,3.381,2.966,5.63,2.966H300.37c2.254,0,4.361-1.106,5.634-2.966l21.06-30.72c0.773-1.133,1.193-2.48,1.193-3.86
			V181.682C328.257,177.908,325.204,174.855,321.431,174.855z"/>
	</g>
</g>
<g>
	<g>
		<path d="M311.496,18.605c-1.42-5.301-4.826-9.733-9.573-12.467l-5.861-3.393c-9.788-5.634-22.333-2.321-27.981,7.432
			L233.435,70.19c-1.886,3.267-0.766,7.441,2.5,9.327c3.253,1.872,7.441,0.76,9.327-2.5l34.64-60.006
			c1.881-3.234,6.088-4.308,9.327-2.447l5.868,3.393c1.594,0.92,2.741,2.406,3.214,4.18c0.466,1.746,0.232,3.553-0.667,5.106
			l-24.999,43.313c-1.886,3.267-0.766,7.441,2.5,9.327c1.073,0.62,2.246,0.913,3.406,0.913c2.36,0,4.654-1.227,5.92-3.413
			l24.998-43.312C312.189,29.365,312.909,23.871,311.496,18.605z"/>
	</g>
</g>
<g>
	<g>
		<path d="M335.357,164.769l-10.279-61.674c-0.546-3.294-3.393-5.707-6.733-5.707H99.892c-3.337,0-6.187,2.413-6.733,5.707
			l-10.276,61.667c-1.283,7.694,0.749,14.58,5.583,18.9c4.82,4.301,11.873,5.533,19.33,3.413l32.321-9.226
			c9.45-2.7,25.177-1.888,34.333,1.773l13.07,5.226c6.054,2.42,13.826,3.633,21.6,3.633c7.772,0,15.546-1.212,21.598-3.633
			l13.066-5.226c9.153-3.659,24.866-4.48,34.34-1.773l32.321,9.226c7.473,2.133,14.527,0.887,19.34-3.406
			C334.609,179.356,336.644,172.469,335.357,164.769z M320.692,173.48c-1.248,1.121-3.608,1.294-6.501,0.461l-32.321-9.226
			c-12.293-3.519-31.246-2.539-43.153,2.227l-13.073,5.226c-8.946,3.587-24.086,3.587-33.06,0l-13.066-5.226
			c-7.093-2.84-16.69-4.333-25.894-4.333c-6.236,0-12.293,0.688-17.26,2.104l-32.321,9.226c-2.864,0.828-5.231,0.654-6.487-0.466
			c-1.266-1.133-1.707-3.487-1.21-6.467l9.327-55.967h206.891l9.327,55.974C322.391,169.993,321.951,172.353,320.692,173.48z"/>
	</g>
</g>
<g>
	<g>
		<path d="M321.431,70.081H96.808c-3.77,0-6.827,3.053-6.827,6.827v27.307c0,3.773,3.057,6.827,6.827,6.827h224.623
			c3.773,0,6.827-3.053,6.827-6.827V76.908C328.257,73.134,325.204,70.081,321.431,70.081z M314.604,97.388h-210.97V83.735h210.97
			V97.388z"/>
	</g>
</g>
<g>
	<g>
		<path d="M130.284,220.268c-3.77,0-6.827,3.053-6.827,6.827v122.88c0,3.773,3.057,6.827,6.827,6.827s6.827-3.053,6.827-6.827
			v-122.88C137.111,223.321,134.054,220.268,130.284,220.268z"/>
	</g>
</g>
<g>
	<g>
		<path d="M157.591,295.361c-3.77,0-6.827,3.053-6.827,6.827v75.093c0,3.773,3.057,6.827,6.827,6.827
			c3.77,0,6.827-3.053,6.827-6.827v-75.093C164.417,298.414,161.361,295.361,157.591,295.361z"/>
	</g>
</g>
<g>
</g>
<g>
</g>
<g>
</g>
<g>
</g>
<g>
</g>
<g>
</g>
<g>
</g>
<g>
</g>
<g>
</g>
<g>
</g>
<g>
</g>
<g>
</g>
<g>
</g>
<g>
</g>
<g>
</g>
</svg>
