<?xml version="1.0" encoding="iso-8859-1"?>
<!-- Generator: Adobe Illustrator 19.0.0, SVG Export Plug-In . SVG Version: 6.00 Build 0)  -->
<svg version="1.1" id="Capa_1" xmlns="http://www.w3.org/2000/svg" xmlns:xlink="http://www.w3.org/1999/xlink" x="0px" y="0px"
	 viewBox="0 0 409.6 409.6" style="enable-background:new 0 0 409.6 409.6;" xml:space="preserve">
<g>
	<g>
		<path d="M310.613,191.147H98.987c-3.77,0-6.827,3.057-6.827,6.827v204.8c0,3.77,3.057,6.827,6.827,6.827h211.627
			c3.773,0,6.827-3.057,6.827-6.827v-204.8C317.44,194.203,314.387,191.147,310.613,191.147z M303.787,395.947H105.813V204.8
			h197.973V395.947z"/>
	</g>
</g>
<g>
	<g>
		<path d="M160.427,307.2h-34.133c-3.77,0-6.827,3.057-6.827,6.827s3.057,6.827,6.827,6.827h34.133c3.77,0,6.827-3.057,6.827-6.827
			S164.197,307.2,160.427,307.2z"/>
	</g>
</g>
<g>
	<g>
		<path d="M221.867,307.2h-34.133c-3.773,0-6.827,3.057-6.827,6.827s3.053,6.827,6.827,6.827h34.133
			c3.773,0,6.827-3.057,6.827-6.827S225.64,307.2,221.867,307.2z"/>
	</g>
</g>
<g>
	<g>
		<path d="M283.307,307.2h-34.133c-3.773,0-6.827,3.057-6.827,6.827s3.053,6.827,6.827,6.827h34.133
			c3.773,0,6.827-3.057,6.827-6.827S287.08,307.2,283.307,307.2z"/>
	</g>
</g>
<g>
	<g>
		<path d="M160.427,334.507h-34.133c-3.77,0-6.827,3.057-6.827,6.827s3.057,6.827,6.827,6.827h34.133
			c3.77,0,6.827-3.057,6.827-6.827S164.197,334.507,160.427,334.507z"/>
	</g>
</g>
<g>
	<g>
		<path d="M221.867,334.507h-34.133c-3.773,0-6.827,3.057-6.827,6.827s3.053,6.827,6.827,6.827h34.133
			c3.773,0,6.827-3.057,6.827-6.827S225.64,334.507,221.867,334.507z"/>
	</g>
</g>
<g>
	<g>
		<path d="M283.307,334.507h-34.133c-3.773,0-6.827,3.057-6.827,6.827s3.053,6.827,6.827,6.827h34.133
			c3.773,0,6.827-3.057,6.827-6.827S287.08,334.507,283.307,334.507z"/>
	</g>
</g>
<g>
	<g>
		<path d="M160.427,361.813h-34.133c-3.77,0-6.827,3.057-6.827,6.827s3.057,6.827,6.827,6.827h34.133
			c3.77,0,6.827-3.057,6.827-6.827S164.197,361.813,160.427,361.813z"/>
	</g>
</g>
<g>
	<g>
		<path d="M221.867,361.813h-34.133c-3.773,0-6.827,3.057-6.827,6.827s3.053,6.827,6.827,6.827h34.133
			c3.773,0,6.827-3.057,6.827-6.827S225.64,361.813,221.867,361.813z"/>
	</g>
</g>
<g>
	<g>
		<path d="M283.307,361.813h-34.133c-3.773,0-6.827,3.057-6.827,6.827s3.053,6.827,6.827,6.827h34.133
			c3.773,0,6.827-3.057,6.827-6.827S287.08,361.813,283.307,361.813z"/>
	</g>
</g>
<g>
	<g>
		<path d="M283.307,225.28H126.293c-3.77,0-6.827,3.057-6.827,6.827v54.613c0,3.77,3.057,6.827,6.827,6.827h157.013
			c3.773,0,6.827-3.057,6.827-6.827v-54.613C290.133,228.337,287.08,225.28,283.307,225.28z M276.48,279.893H133.12v-40.96h143.36
			V279.893z"/>
	</g>
</g>
<g>
	<g>
		<path d="M310.613,109.227h-51.294c-3.773,0-6.827,3.057-6.827,6.827s3.053,6.827,6.827,6.827h44.467v68.267H105.813V122.88h46.02
			c3.77,0,6.827-3.057,6.827-6.827s-3.057-6.827-6.827-6.827H98.987c-3.77,0-6.827,3.057-6.827,6.827v81.92
			c0,3.77,3.057,6.827,6.827,6.827h211.627c3.773,0,6.827-3.057,6.827-6.827v-81.92C317.44,112.283,314.387,109.227,310.613,109.227
			z"/>
	</g>
</g>
<g>
	<g>
		<path d="M262.827,150.187H146.773c-3.77,0-6.827,3.057-6.827,6.827s3.057,6.827,6.827,6.827h116.053
			c3.773,0,6.827-3.057,6.827-6.827S266.6,150.187,262.827,150.187z"/>
	</g>
</g>
<g>
	<g>
		<path d="M256,0H153.6c-3.77,0-6.827,3.057-6.827,6.827v150.187c0,3.77,3.057,6.827,6.827,6.827H256
			c3.773,0,6.827-3.057,6.827-6.827V6.827C262.827,3.057,259.773,0,256,0z M249.173,150.187h-88.747V13.653h88.747V150.187z"/>
	</g>
</g>
<g>
	<g>
		<g>
			<path d="M240.766,88.588c-2.773-2.714-7.059-4.074-12.853-4.074c-5.547,0-9.832,1.365-12.853,4.103
				c-3.019,2.732-4.526,7.04-4.526,12.913c0,5.917,1.505,10.272,4.526,13.066c3.019,2.797,7.306,4.193,12.853,4.193
				c5.432,0,9.627-1.396,12.58-4.193c2.961-2.792,4.441-7.149,4.441-13.066C244.934,95.616,243.546,91.3,240.766,88.588z
				 M227.913,107.61c-1.94,0-3.441-0.507-4.494-1.521c-1.053-1.014-1.58-2.533-1.58-4.56c0-2.067,0.527-3.594,1.58-4.588
				s2.553-1.49,4.494-1.49c3.973,0,5.96,2.028,5.96,6.077C233.873,105.583,231.886,107.61,227.913,107.61z"/>
			<path d="M230.866,43.124c0.381-0.934,0.573-2.007,0.573-3.22c0-0.973-0.326-1.927-0.973-2.857
				c-0.647-0.934-1.741-1.802-3.28-2.613c-0.727-0.365-1.447-0.64-2.161-0.823c-0.707-0.179-1.487-0.273-2.34-0.273
				c-0.807,0-1.521,0.164-2.127,0.486c-0.608,0.326-1.154,0.751-1.64,1.277c-0.486,0.526-0.934,1.116-1.333,1.763
				c-0.408,0.647-0.773,1.297-1.094,1.944l-35.007,67.221c-0.486,0.85-0.894,1.71-1.22,2.58c-0.326,0.874-0.526,1.917-0.606,3.13
				c0.08,0.973,0.452,1.935,1.126,2.886c0.667,0.954,1.794,1.857,3.374,2.707c0.608,0.324,1.181,0.587,1.727,0.79
				c0.553,0.203,1.067,0.304,1.553,0.304c1.014,0,1.893-0.174,2.64-0.517c0.754-0.343,1.42-0.79,2.007-1.336
				s1.106-1.155,1.553-1.823c0.447-0.669,0.847-1.307,1.213-1.913l34.767-67.222C230.059,44.887,230.479,44.058,230.866,43.124z"/>
			<path d="M196.739,63.427c2.954-2.796,4.434-7.153,4.434-13.066c0-5.917-1.388-10.233-4.161-12.945
				c-2.78-2.714-7.059-4.074-12.853-4.074c-5.553,0-9.839,1.369-12.856,4.103c-3.019,2.736-4.526,7.04-4.526,12.916
				c0,5.914,1.505,10.269,4.526,13.066c3.016,2.794,7.303,4.193,12.856,4.193C189.587,67.62,193.78,66.22,196.739,63.427z
				 M178.08,50.36c0-2.065,0.527-3.596,1.58-4.589c1.053-0.993,2.553-1.49,4.5-1.49c3.966,0,5.953,2.026,5.953,6.079
				c0,4.05-1.988,6.076-5.953,6.077c-1.947,0-3.447-0.507-4.5-1.521C178.608,53.903,178.08,52.384,178.08,50.36z"/>
		</g>
	</g>
</g>
<g>
</g>
<g>
</g>
<g>
</g>
<g>
</g>
<g>
</g>
<g>
</g>
<g>
</g>
<g>
</g>
<g>
</g>
<g>
</g>
<g>
</g>
<g>
</g>
<g>
</g>
<g>
</g>
<g>
</g>
</svg>
