<?xml version="1.0" encoding="iso-8859-1"?>
<!-- Generator: Adobe Illustrator 19.0.0, SVG Export Plug-In . SVG Version: 6.00 Build 0)  -->
<svg version="1.1" id="Capa_1" xmlns="http://www.w3.org/2000/svg" xmlns:xlink="http://www.w3.org/1999/xlink" x="0px" y="0px"
	 viewBox="0 0 430.08 430.08" style="enable-background:new 0 0 430.08 430.08;" xml:space="preserve">
<g>
	<g>
		<path d="M252.85,0H177.23c-24.323,0-44.11,19.787-44.109,44.114v279.18c0,12.667,9.422,23.533,21.456,24.747
			c0.795,0.08,1.592,0.119,2.386,0.119c5.919,0,11.675-2.186,16.08-6.173c4.995-4.528,7.863-10.981,7.863-17.72v-23.893h109.227
			c3.77,0,6.827-3.053,6.827-6.827V44.114C296.959,19.787,277.172,0,252.85,0z M283.306,286.72H174.079
			c-3.77,0-6.827,3.053-6.827,6.827v30.72c0,2.934-1.198,5.627-3.374,7.593c-2.169,1.968-4.992,2.941-7.943,2.594
			c-5.14-0.514-9.163-5.42-9.163-11.16V44.114c0-16.794,13.664-30.461,30.457-30.461h75.619c16.794,0,30.457,13.667,30.457,30.461
			V286.72z"/>
	</g>
</g>
<g>
	<g>
		<path d="M194.559,102.4c-3.77,0-6.827,3.053-6.827,6.827v20.48c0,3.767-3.063,6.827-6.827,6.827c-3.763,0-6.827-3.06-6.827-6.827
			V61.44c0-3.773-3.057-6.827-6.827-6.827s-6.827,3.053-6.827,6.827v68.267c0,11.293,9.187,20.48,20.48,20.48
			c11.293,0,20.48-9.187,20.48-20.48v-20.48C201.386,105.453,198.329,102.4,194.559,102.4z"/>
	</g>
</g>
<g>
	<g>
		<path d="M255.999,204.8c-3.77,0-6.827,3.053-6.827,6.827v20.48c0,3.767-3.063,6.827-6.827,6.827c-3.763,0-6.827-3.06-6.827-6.827
			v-20.48c0-3.773-3.057-6.827-6.827-6.827s-6.827,3.053-6.827,6.827v20.48c0,11.293,9.187,20.48,20.48,20.48
			c11.293,0,20.48-9.187,20.48-20.48v-20.48C262.826,207.853,259.769,204.8,255.999,204.8z"/>
	</g>
</g>
<g>
	<g>
		<path d="M235.519,286.72h-34.133c-3.77,0-6.827,3.053-6.827,6.827v129.707c0,3.773,3.057,6.827,6.827,6.827h34.133
			c3.77,0,6.827-3.053,6.827-6.827V293.547C242.346,289.773,239.289,286.72,235.519,286.72z M228.692,416.427h-20.48V300.373h20.48
			V416.427z"/>
	</g>
</g>
<g>
</g>
<g>
</g>
<g>
</g>
<g>
</g>
<g>
</g>
<g>
</g>
<g>
</g>
<g>
</g>
<g>
</g>
<g>
</g>
<g>
</g>
<g>
</g>
<g>
</g>
<g>
</g>
<g>
</g>
</svg>
