<?xml version="1.0" encoding="iso-8859-1"?>
<!-- Generator: Adobe Illustrator 19.0.0, SVG Export Plug-In . SVG Version: 6.00 Build 0)  -->
<svg version="1.1" id="Capa_1" xmlns="http://www.w3.org/2000/svg" xmlns:xlink="http://www.w3.org/1999/xlink" x="0px" y="0px"
	 viewBox="0 0 436.907 436.907" style="enable-background:new 0 0 436.907 436.907;" xml:space="preserve">
<g>
	<g>
		<path d="M391.808,187.72c-1.881-3.26-6.054-4.379-9.327-2.493c-3.26,1.894-4.379,6.067-2.487,9.334
			c4.833,8.359,7.82,17.686,8.786,27.307H48.126c3.437-34.447,32.591-61.44,67.927-61.44h150.806c3.773,0,6.827-3.053,6.827-6.827
			s-3.053-6.827-6.827-6.827H116.053c-45.17,0-81.92,36.746-81.92,81.92c0,3.773,3.057,6.827,6.827,6.827h354.987
			c3.773,0,6.827-3.053,6.828-6.827C402.775,214.293,398.981,200.127,391.808,187.72z"/>
	</g>
</g>
<g>
	<g>
		<path d="M395.947,317.44H238.933c-3.773,0-6.827,3.053-6.827,6.827s3.053,6.827,6.827,6.827H388.78
			c-3.434,34.447-32.587,61.44-67.927,61.44h-204.8c-35.336,0-64.49-26.993-67.927-61.44h88.407c3.77,0,6.827-3.053,6.827-6.827
			s-3.057-6.827-6.827-6.827H40.96c-3.77,0-6.827,3.053-6.827,6.827c0,45.174,36.75,81.92,81.92,81.92h204.8
			c45.174,0,81.92-36.746,81.92-81.92C402.773,320.493,399.72,317.44,395.947,317.44z"/>
	</g>
</g>
<g>
	<g>
		<path d="M204.8,317.44h-34.137c-3.77,0-6.827,3.053-6.827,6.827s3.057,6.827,6.827,6.827H204.8c3.773,0,6.827-3.053,6.827-6.827
			S208.573,317.44,204.8,317.44z"/>
	</g>
</g>
<g>
	<g>
		<path d="M293.099,242.347h-95.13c-3.77,0-6.827,3.053-6.827,6.827S194.2,256,197.97,256h95.13c3.773,0,6.827-3.053,6.827-6.827
			S296.873,242.347,293.099,242.347z"/>
	</g>
</g>
<g>
	<g>
		<path d="M402.773,242.347H327.68c-3.773,0-6.827,3.053-6.827,6.827S323.907,256,327.68,256h75.093
			c11.293,0,20.48,9.187,20.48,20.48s-9.187,20.48-20.48,20.48H34.133c-11.293,0-20.48-9.187-20.48-20.48S22.84,256,34.133,256
			h129.703c3.77,0,6.827-3.053,6.827-6.827s-3.057-6.827-6.827-6.827H34.133C15.314,242.347,0,257.661,0,276.48
			c0,18.819,15.314,34.133,34.133,34.133h368.64c18.819,0,34.133-15.314,34.133-34.133
			C436.907,257.661,421.593,242.347,402.773,242.347z"/>
	</g>
</g>
<g>
	<g>
		<path d="M402.773,296.96H34.133c-3.77,0-6.827,3.053-6.827,6.827v20.48c0,3.773,3.057,6.827,6.827,6.827h95.573v3.413
			c0,13.174,10.72,23.893,23.893,23.893s23.893-10.72,23.893-23.893v-3.413h20.48v23.893c0,13.174,10.72,23.893,23.893,23.893
			s23.893-10.72,23.893-23.893v-23.893h157.013c3.773,0,6.827-3.053,6.827-6.827v-20.48
			C409.6,300.013,406.547,296.96,402.773,296.96z M395.947,317.44H238.933c-3.773,0-6.827,3.053-6.827,6.827v30.72
			c0,5.647-4.593,10.24-10.24,10.24c-5.647,0-10.24-4.593-10.24-10.24v-30.72c0-3.773-3.053-6.827-6.827-6.827h-34.133
			c-3.77,0-6.827,3.053-6.827,6.827v10.24c0,5.647-4.593,10.24-10.24,10.24s-10.24-4.593-10.24-10.24v-10.24
			c0-3.773-3.057-6.827-6.827-6.827H40.96v-6.827h354.987V317.44z"/>
	</g>
</g>
<g>
	<g>
		<path d="M402.773,221.867H34.133c-3.77,0-6.827,3.053-6.827,6.827v20.48c0,3.773,3.057,6.827,6.827,6.827h122.88v10.24
			c0,13.174,10.72,23.893,23.893,23.893c13.174,0,23.893-10.72,23.893-23.893V256h82.154c1.633,11.559,11.6,20.48,23.726,20.48
			c12,0,21.96-8.921,23.593-20.48h68.5c3.773,0,6.827-3.053,6.827-6.827v-20.48C409.6,224.92,406.547,221.867,402.773,221.867z
			 M395.947,242.347H327.68c-3.773,0-6.827,3.053-6.827,6.827v3.48c0,5.606-4.567,10.173-10.307,10.173
			c-5.606,0-10.173-4.567-10.173-10.173v-3.48c0-3.773-3.053-6.827-6.827-6.827h-95.573c-3.77,0-6.827,3.053-6.827,6.827v17.067
			c0,5.647-4.593,10.24-10.24,10.24c-5.647,0-10.24-4.593-10.24-10.24v-17.067c0-3.773-3.057-6.827-6.827-6.827H40.96v-6.827
			h354.987V242.347z"/>
	</g>
</g>
<g>
	<g>
		<path d="M341.333,30.72c-48.934,0-88.747,39.813-88.747,88.747c0,48.934,39.813,88.747,88.747,88.747s88.747-39.813,88.747-88.747
			C430.08,70.533,390.267,30.72,341.333,30.72z M341.333,194.56c-41.407,0-75.093-33.686-75.093-75.093
			c0-41.407,33.686-75.093,75.093-75.093c41.407,0,75.093,33.686,75.093,75.093C416.427,160.874,382.74,194.56,341.333,194.56z"/>
	</g>
</g>
<g>
	<g>
		<path d="M393.334,90.728c-4.381-10.674-13.701-17.727-24.921-18.86c-9.853-1.067-20.067,2.342-27.38,8.994
			c-6.427-5.847-14.853-9.18-23.753-9.18c-1.225,0-2.432,0.06-3.606,0.179c-11.233,1.14-20.56,8.194-24.933,18.86
			c-4.567,11.114-2.695,23.707,4.879,32.874l42.153,51.026c1.294,1.574,3.227,2.48,5.26,2.48c2.034,0,3.966-0.908,5.262-2.48
			l42.153-51.026C396.02,114.435,397.894,101.842,393.334,90.728z M377.926,114.9l-36.893,44.653L304.14,114.9
			c-4.354-5.274-5.42-12.554-2.773-18.993c2.473-6.014,7.46-9.827,13.699-10.467c0.727-0.072,1.466-0.106,2.214-0.106
			c7.274,0,14.027,3.633,18.065,9.713c2.533,3.801,8.841,3.801,11.373,0c4.454-6.7,12.314-10.426,20.301-9.6
			c6.228,0.633,11.214,4.448,13.687,10.46C383.346,102.352,382.28,109.626,377.926,114.9z"/>
	</g>
</g>
<g>
</g>
<g>
</g>
<g>
</g>
<g>
</g>
<g>
</g>
<g>
</g>
<g>
</g>
<g>
</g>
<g>
</g>
<g>
</g>
<g>
</g>
<g>
</g>
<g>
</g>
<g>
</g>
<g>
</g>
</svg>
