<?xml version="1.0" encoding="iso-8859-1"?>
<!-- Generator: Adobe Illustrator 19.0.0, SVG Export Plug-In . SVG Version: 6.00 Build 0)  -->
<svg version="1.1" id="Capa_1" xmlns="http://www.w3.org/2000/svg" xmlns:xlink="http://www.w3.org/1999/xlink" x="0px" y="0px"
	 viewBox="0 0 436.907 436.907" style="enable-background:new 0 0 436.907 436.907;" xml:space="preserve">
<g>
	<g>
		<path d="M320.853,88.747h-204.8c-45.174,0-81.92,36.746-81.92,81.92c0,3.773,3.053,6.827,6.827,6.827h354.987
			c3.773,0,6.827-3.053,6.827-6.827C402.773,125.493,366.027,88.747,320.853,88.747z M48.126,163.84
			c3.434-34.447,32.587-61.44,67.927-61.44h204.8c35.34,0,64.493,26.993,67.927,61.44H48.126z"/>
	</g>
</g>
<g>
	<g>
		<path d="M395.947,259.413H238.933c-3.773,0-6.827,3.053-6.827,6.827s3.053,6.827,6.827,6.827H388.78
			c-3.434,34.447-32.587,61.44-67.927,61.44h-204.8c-35.34,0-64.493-26.993-67.927-61.44h88.407c3.773,0,6.827-3.053,6.827-6.827
			s-3.053-6.827-6.827-6.827H40.96c-3.773,0-6.827,3.053-6.827,6.827c0,45.174,36.746,81.92,81.92,81.92h204.8
			c45.174,0,81.92-36.746,81.92-81.92C402.773,262.467,399.72,259.413,395.947,259.413z"/>
	</g>
</g>
<g>
	<g>
		<path d="M204.8,259.413h-34.133c-3.773,0-6.827,3.053-6.827,6.827s3.053,6.827,6.827,6.827H204.8c3.773,0,6.827-3.053,6.827-6.827
			S208.573,259.413,204.8,259.413z"/>
	</g>
</g>
<g>
	<g>
		<path d="M402.773,184.32H327.68c-3.773,0-6.827,3.053-6.827,6.827s3.053,6.827,6.827,6.827h75.093
			c11.293,0,20.48,9.187,20.48,20.48s-9.187,20.48-20.48,20.48H34.133c-11.293,0-20.48-9.187-20.48-20.48s9.187-20.48,20.48-20.48
			H163.84c3.773,0,6.827-3.053,6.827-6.827s-3.053-6.827-6.827-6.827H34.133C15.314,184.32,0,199.634,0,218.453
			c0,18.819,15.314,34.133,34.133,34.133h368.64c18.819,0,34.133-15.314,34.133-34.133
			C436.907,199.634,421.593,184.32,402.773,184.32z"/>
	</g>
</g>
<g>
	<g>
		<path d="M293.547,184.32h-95.573c-3.773,0-6.827,3.053-6.827,6.827s3.053,6.827,6.827,6.827h95.573
			c3.773,0,6.827-3.053,6.827-6.827S297.32,184.32,293.547,184.32z"/>
	</g>
</g>
<g>
	<g>
		<path d="M402.773,238.933H34.133c-3.773,0-6.827,3.053-6.827,6.827v20.48c0,3.773,3.053,6.827,6.827,6.827h95.573v3.413
			c0,13.174,10.72,23.893,23.893,23.893s23.893-10.72,23.893-23.893v-3.413h20.48v23.893c0,13.174,10.72,23.893,23.893,23.893
			s23.893-10.72,23.893-23.893v-23.893h157.013c3.773,0,6.827-3.053,6.827-6.827v-20.48
			C409.6,241.987,406.547,238.933,402.773,238.933z M395.947,259.413H238.933c-3.773,0-6.827,3.053-6.827,6.827v30.72
			c0,5.647-4.593,10.24-10.24,10.24c-5.647,0-10.24-4.593-10.24-10.24v-30.72c0-3.773-3.053-6.827-6.827-6.827h-34.133
			c-3.773,0-6.827,3.053-6.827,6.827v10.24c0,5.647-4.593,10.24-10.24,10.24s-10.24-4.593-10.24-10.24v-10.24
			c0-3.773-3.053-6.827-6.827-6.827H40.96v-6.827h354.987V259.413z"/>
	</g>
</g>
<g>
	<g>
		<path d="M402.773,163.84H34.133c-3.773,0-6.827,3.053-6.827,6.827v20.48c0,3.773,3.053,6.827,6.827,6.827h122.88v10.24
			c0,13.174,10.72,23.893,23.893,23.893c13.174,0,23.893-10.72,23.893-23.893v-10.24h82.154c1.633,11.559,11.6,20.48,23.726,20.48
			c12,0,21.96-8.921,23.593-20.48h68.5c3.773,0,6.827-3.053,6.827-6.827v-20.48C409.6,166.893,406.547,163.84,402.773,163.84z
			 M395.947,184.32H327.68c-3.773,0-6.827,3.053-6.827,6.827v3.48c0,5.606-4.567,10.173-10.307,10.173
			c-5.606,0-10.173-4.567-10.173-10.173v-3.48c0-3.773-3.053-6.827-6.827-6.827h-95.573c-3.773,0-6.827,3.053-6.827,6.827v17.067
			c0,5.647-4.593,10.24-10.24,10.24c-5.647,0-10.24-4.593-10.24-10.24v-17.067c0-3.773-3.053-6.827-6.827-6.827H40.96v-6.827
			h354.987V184.32z"/>
	</g>
</g>
<g>
</g>
<g>
</g>
<g>
</g>
<g>
</g>
<g>
</g>
<g>
</g>
<g>
</g>
<g>
</g>
<g>
</g>
<g>
</g>
<g>
</g>
<g>
</g>
<g>
</g>
<g>
</g>
<g>
</g>
</svg>
