<?xml version="1.0" encoding="iso-8859-1"?>
<!-- Generator: Adobe Illustrator 19.0.0, SVG Export Plug-In . SVG Version: 6.00 Build 0)  -->
<svg version="1.1" id="Capa_1" xmlns="http://www.w3.org/2000/svg" xmlns:xlink="http://www.w3.org/1999/xlink" x="0px" y="0px"
	 viewBox="0 0 409.602 409.602" style="enable-background:new 0 0 409.602 409.602;" xml:space="preserve">
<g>
	<g>
		<path d="M402.773,324.268H6.827c-3.77,0-6.827,3.053-6.827,6.827v68.267c0,3.773,3.057,6.827,6.827,6.827h395.947
			c3.773,0,6.827-3.053,6.827-6.827v-68.267C409.6,327.321,406.547,324.268,402.773,324.268z M395.947,392.534H13.653v-54.613
			h382.293V392.534z"/>
	</g>
</g>
<g>
	<g>
		<path d="M307.2,337.921c-15.06,0-27.307,12.247-27.307,27.307s12.247,27.307,27.307,27.307c15.061,0,27.307-12.247,27.307-27.307
			S322.26,337.921,307.2,337.921z M307.2,378.881c-7.526,0-13.653-6.127-13.653-13.653c0-7.526,6.127-13.653,13.653-13.653
			c7.528,0,13.653,6.127,13.653,13.653C320.853,372.754,314.726,378.881,307.2,378.881z"/>
	</g>
</g>
<g>
	<g>
		<path d="M361.813,337.921c-15.06,0-27.307,12.247-27.307,27.307s12.247,27.307,27.307,27.307
			c15.061,0,27.307-12.247,27.307-27.307S376.873,337.921,361.813,337.921z M361.813,378.881c-7.526,0-13.653-6.127-13.653-13.653
			c0-7.526,6.127-13.653,13.653-13.653c7.528,0,13.653,6.127,13.653,13.653C375.467,372.754,369.34,378.881,361.813,378.881z"/>
	</g>
</g>
<g>
	<g>
		<path d="M129.707,358.401H34.133c-3.77,0-6.827,3.053-6.827,6.827s3.057,6.827,6.827,6.827h95.573c3.77,0,6.827-3.053,6.827-6.827
			S133.477,358.401,129.707,358.401z"/>
	</g>
</g>
<g>
	<g>
		<path d="M408.26,327.027l-136.533-184.32c-1.287-1.732-3.326-2.76-5.487-2.76H143.36c-2.164,0-4.197,1.026-5.487,2.76
			L1.34,327.027c-1.533,2.074-1.77,4.833-0.609,7.141c1.159,2.299,3.516,3.753,6.096,3.753h395.947c2.581,0,4.941-1.454,6.1-3.753
			C410.034,331.861,409.793,329.101,408.26,327.027z M20.381,324.268l126.42-170.667h116l126.42,170.667H20.381z"/>
	</g>
</g>
<g>
	<g>
		<path d="M266.24,3.414H143.36c-3.77,0-6.827,3.053-6.827,6.827v136.533c0,3.773,3.057,6.827,6.827,6.827h122.88
			c3.773,0,6.827-3.053,6.827-6.827V10.241C273.067,6.467,270.013,3.414,266.24,3.414z M259.413,139.948H150.187V17.068h109.227
			V139.948z"/>
	</g>
</g>
<g>
</g>
<g>
</g>
<g>
</g>
<g>
</g>
<g>
</g>
<g>
</g>
<g>
</g>
<g>
</g>
<g>
</g>
<g>
</g>
<g>
</g>
<g>
</g>
<g>
</g>
<g>
</g>
<g>
</g>
</svg>
