<?xml version="1.0" encoding="iso-8859-1"?>
<!-- Generator: Adobe Illustrator 19.0.0, SVG Export Plug-In . SVG Version: 6.00 Build 0)  -->
<svg version="1.1" id="Capa_1" xmlns="http://www.w3.org/2000/svg" xmlns:xlink="http://www.w3.org/1999/xlink" x="0px" y="0px"
	 viewBox="0 0 423.253 423.253" style="enable-background:new 0 0 423.253 423.253;" xml:space="preserve">
<g>
	<g>
		<path d="M127.706,295.357c-2.666-2.666-6.987-2.666-9.653,0l-61.821,61.817c-2.666,2.666-2.666,6.987,0,9.653
			c1.333,1.333,3.081,2,4.826,2c1.748,0,3.494-0.666,4.826-2l61.821-61.817C130.372,302.345,130.372,298.023,127.706,295.357z"/>
	</g>
</g>
<g>
	<g>
		<path d="M367.02,357.175L305.2,295.357c-2.666-2.666-6.987-2.666-9.653,0c-2.666,2.666-2.666,6.987,0,9.653l61.821,61.817
			c1.333,1.333,3.081,2,4.826,2s3.494-0.666,4.826-2C369.686,364.162,369.686,359.84,367.02,357.175z"/>
	</g>
</g>
<g>
	<g>
		<path d="M211.627,334.319c-3.773,0-6.827,3.057-6.827,6.827v20.48c0,3.77,3.053,6.827,6.827,6.827s6.827-3.057,6.827-6.827v-20.48
			C218.453,337.376,215.4,334.319,211.627,334.319z"/>
	</g>
</g>
<g>
	<g>
		<path d="M416.427,129.519c-3.773,0-6.827,3.057-6.827,6.827c0,109.164-88.813,197.973-197.973,197.973
			S13.653,245.509,13.653,136.346c0-3.77-3.053-6.827-6.827-6.827S0,132.576,0,136.346c0,116.69,94.933,211.627,211.627,211.627
			s211.627-94.937,211.627-211.627C423.253,132.576,420.2,129.519,416.427,129.519z"/>
	</g>
</g>
<g>
	<g>
		<path d="M211.627,54.426C92.96,54.426,0,88.909,0,132.932s92.96,78.507,211.627,78.507s211.627-34.483,211.627-78.507
			S330.293,54.426,211.627,54.426z M211.627,197.786c-118.42,0-197.973-33.533-197.973-64.853s79.553-64.853,197.973-64.853
			S409.6,101.612,409.6,132.932S330.047,197.786,211.627,197.786z"/>
	</g>
</g>
<g>
	<g>
		<path d="M197.661,86.521c-1.126-3.596-4.973-5.606-8.547-4.48L79.887,116.175c-3.599,1.126-5.606,4.954-4.48,8.554
			c0.913,2.92,3.606,4.794,6.513,4.794c0.674,0,1.36-0.104,2.034-0.314l109.227-34.133C196.78,93.949,198.787,90.121,197.661,86.521
			z"/>
	</g>
</g>
<g>
	<g>
		<path d="M341.021,134.308c-1.126-3.599-4.973-5.593-8.547-4.48l-109.227,34.133c-3.599,1.126-5.606,4.954-4.48,8.554
			c0.913,2.92,3.606,4.794,6.513,4.794c0.674,0,1.36-0.104,2.034-0.314l109.227-34.133
			C340.14,141.735,342.147,137.907,341.021,134.308z"/>
	</g>
</g>
<g>
	<g>
		<path d="M272.739,93.307c-1.147-3.587-4.96-5.571-8.579-4.424L93.493,143.497c-3.594,1.15-5.574,4.992-4.42,8.583
			c0.927,2.9,3.608,4.75,6.501,4.75c0.686,0,1.386-0.107,2.079-0.326l170.667-54.613C271.913,100.739,273.893,96.898,272.739,93.307
			z"/>
	</g>
</g>
<g>
	<g>
		<path d="M327.352,106.96c-1.147-3.587-4.973-5.584-8.579-4.424L148.106,157.15c-3.594,1.15-5.574,4.992-4.42,8.583
			c0.927,2.9,3.608,4.75,6.501,4.75c0.686,0,1.386-0.107,2.079-0.326l170.667-54.613
			C326.526,114.393,328.506,110.551,327.352,106.96z"/>
	</g>
</g>
<g>
</g>
<g>
</g>
<g>
</g>
<g>
</g>
<g>
</g>
<g>
</g>
<g>
</g>
<g>
</g>
<g>
</g>
<g>
</g>
<g>
</g>
<g>
</g>
<g>
</g>
<g>
</g>
<g>
</g>
</svg>
