<?xml version="1.0" encoding="iso-8859-1"?>
<!-- Generator: Adobe Illustrator 19.0.0, SVG Export Plug-In . SVG Version: 6.00 Build 0)  -->
<svg version="1.1" id="Capa_1" xmlns="http://www.w3.org/2000/svg" xmlns:xlink="http://www.w3.org/1999/xlink" x="0px" y="0px"
	 viewBox="0 0 430.08 430.08" style="enable-background:new 0 0 430.08 430.08;" xml:space="preserve">
<g>
	<g>
		<path d="M234.153,136.533H83.966c-3.773,0-6.827,3.053-6.827,6.827v51.2c0,43.286,35.221,78.507,78.507,78.507h6.827
			c43.286,0,78.507-35.22,78.507-78.507v-51.2C240.98,139.587,237.926,136.533,234.153,136.533z M227.326,194.56
			c0,35.76-29.094,64.853-64.853,64.853h-6.827c-35.76,0-64.853-29.094-64.853-64.853v-44.373h136.533V194.56z"/>
	</g>
</g>
<g>
	<g>
		<path d="M277.847,0h-43.694c-3.773,0-6.827,3.053-6.827,6.827V143.36c0,3.773,3.053,6.827,6.827,6.827h43.694
			c41.405,0,75.093-33.686,75.093-75.093S319.254,0,277.847,0z M277.847,136.533H240.98V13.653h36.867
			c33.881,0,61.44,27.559,61.44,61.44S311.728,136.533,277.847,136.533z"/>
	</g>
</g>
<g>
	<g>
		<path d="M118.1,116.053c-3.773,0-6.827,3.053-6.827,6.827v20.48c0,3.773,3.053,6.827,6.827,6.827s6.827-3.053,6.827-6.827v-20.48
			C124.926,119.107,121.873,116.053,118.1,116.053z"/>
	</g>
</g>
<g>
	<g>
		<path d="M138.58,116.053c-3.773,0-6.827,3.053-6.827,6.827v20.48c0,3.773,3.053,6.827,6.827,6.827s6.827-3.053,6.827-6.827v-20.48
			C145.406,119.107,142.353,116.053,138.58,116.053z"/>
	</g>
</g>
<g>
	<g>
		<path d="M159.06,116.053c-3.773,0-6.827,3.053-6.827,6.827v20.48c0,3.773,3.053,6.827,6.827,6.827s6.827-3.053,6.827-6.827v-20.48
			C165.886,119.107,162.833,116.053,159.06,116.053z"/>
	</g>
</g>
<g>
	<g>
		<path d="M179.54,116.053c-3.773,0-6.827,3.053-6.827,6.827v20.48c0,3.773,3.053,6.827,6.827,6.827s6.827-3.053,6.827-6.827v-20.48
			C186.366,119.107,183.313,116.053,179.54,116.053z"/>
	</g>
</g>
<g>
	<g>
		<path d="M200.02,116.053c-3.773,0-6.827,3.053-6.827,6.827v20.48c0,3.773,3.053,6.827,6.827,6.827s6.827-3.053,6.827-6.827v-20.48
			C206.846,119.107,203.793,116.053,200.02,116.053z"/>
	</g>
</g>
<g>
	<g>
		<path d="M119.492,252.733c-3.76-0.812-7.313,1.601-8.073,5.287l-34.133,163.84c-0.773,3.693,1.594,7.306,5.287,8.073
			c0.473,0.101,0.939,0.147,1.399,0.147c3.168,0,6.008-2.214,6.673-5.434l34.133-163.84
			C125.553,257.113,123.186,253.5,119.492,252.733z"/>
	</g>
</g>
<g>
	<g>
		<path d="M240.833,421.861L206.7,258.021c-0.766-3.686-4.345-6.101-8.073-5.287c-3.693,0.766-6.06,4.379-5.287,8.073l34.133,163.84
			c0.666,3.22,3.507,5.434,6.673,5.434c0.461,0,0.927-0.046,1.399-0.147C239.239,429.167,241.606,425.554,240.833,421.861z"/>
	</g>
</g>
<g>
	<g>
		<path d="M220.5,368.64h-40.96c-3.773,0-6.827,3.053-6.827,6.827s3.053,6.827,6.827,6.827h40.96c3.773,0,6.827-3.053,6.827-6.827
			S224.273,368.64,220.5,368.64z"/>
	</g>
</g>
<g>
	<g>
		<path d="M138.58,368.64H97.62c-3.773,0-6.827,3.053-6.827,6.827s3.053,6.827,6.827,6.827h40.96c3.773,0,6.827-3.053,6.827-6.827
			S142.353,368.64,138.58,368.64z"/>
	</g>
</g>
<g>
	<g>
		<path d="M159.06,348.16c-15.06,0-27.307,12.247-27.307,27.307S144,402.773,159.06,402.773s27.307-12.247,27.307-27.307
			S174.119,348.16,159.06,348.16z M159.06,389.12c-7.526,0-13.653-6.127-13.653-13.653c0-7.526,6.127-13.653,13.653-13.653
			c7.526,0,13.653,6.127,13.653,13.653C172.713,382.993,166.586,389.12,159.06,389.12z"/>
	</g>
</g>
<g>
</g>
<g>
</g>
<g>
</g>
<g>
</g>
<g>
</g>
<g>
</g>
<g>
</g>
<g>
</g>
<g>
</g>
<g>
</g>
<g>
</g>
<g>
</g>
<g>
</g>
<g>
</g>
<g>
</g>
</svg>
