<?xml version="1.0" encoding="iso-8859-1"?>
<!-- Generator: Adobe Illustrator 19.0.0, SVG Export Plug-In . SVG Version: 6.00 Build 0)  -->
<svg version="1.1" id="Capa_1" xmlns="http://www.w3.org/2000/svg" xmlns:xlink="http://www.w3.org/1999/xlink" x="0px" y="0px"
	 viewBox="0 0 375.353 375.353" style="enable-background:new 0 0 375.353 375.353;" xml:space="preserve">
<g>
	<g>
		<path d="M312.451,57.277c-3.68-0.787-7.306,1.574-8.093,5.267c-0.633,2.993-15.507,73.574-13.71,96.234
			c1.471,18.505-20.803,73.513-46.193,97.179c-24.513,22.847-140.286,96.16-189.479,99.734c-20.586,1.487-28.143-0.434-30.686-1.539
			l35.627-44.047c2.372-2.934,1.917-7.235-1.014-9.6c-2.93-2.365-7.233-1.92-9.6,1.014l-35.623,44.059
			c-2.306,2.521-5.443,8.347-2.596,14.234c3.34,6.893,12.573,10.1,30.06,10.1c4.403,0,9.334-0.208,14.817-0.608
			c55.132-3.999,172.769-80.026,197.799-103.359c27.293-25.44,52.39-84.427,50.5-108.247c-1.364-17.181,9.25-72.474,13.457-92.327
			C318.498,61.684,316.141,58.057,312.451,57.277z"/>
	</g>
</g>
<g>
	<g>
		<path d="M263.588,106.018c-18.819,0-34.133,15.314-34.133,34.133c0,18.819,15.314,34.133,34.133,34.133
			c18.821,0,34.133-15.314,34.133-34.133C297.721,121.332,282.407,106.018,263.588,106.018z M263.588,160.631
			c-11.293,0-20.48-9.187-20.48-20.48c0-11.293,9.187-20.48,20.48-20.48c11.293,0,20.48,9.185,20.48,20.48
			C284.068,151.444,274.881,160.631,263.588,160.631z"/>
	</g>
</g>
<g>
	<g>
		<path d="M181.668,215.244c-18.819,0-34.133,15.314-34.133,34.133s15.314,34.133,34.133,34.133
			c18.821,0,34.133-15.314,34.133-34.133S200.487,215.244,181.668,215.244z M181.668,269.858c-11.293,0-20.48-9.187-20.48-20.48
			s9.187-20.48,20.48-20.48c11.293,0,20.48,9.187,20.48,20.48S192.961,269.858,181.668,269.858z"/>
	</g>
</g>
<g>
	<g>
		<path d="M123.641,269.858c-16.94,0-30.72,13.78-30.72,30.72s13.78,30.72,30.72,30.72s30.72-13.78,30.72-30.72
			S140.581,269.858,123.641,269.858z M123.641,317.644c-9.411,0-17.067-7.653-17.067-17.067s7.656-17.067,17.067-17.067
			c9.411,0,17.067,7.653,17.067,17.067S133.052,317.644,123.641,317.644z"/>
	</g>
</g>
<g>
	<g>
		<path d="M72.441,310.818c-11.293,0-20.48,9.187-20.48,20.48c0,11.293,9.187,20.48,20.48,20.48s20.48-9.187,20.48-20.48
			C92.921,320.005,83.734,310.818,72.441,310.818z M72.441,338.124c-3.763,0-6.827-3.06-6.827-6.827
			c0-3.767,3.063-6.827,6.827-6.827s6.827,3.06,6.827,6.827C79.268,335.064,76.204,338.124,72.441,338.124z"/>
	</g>
</g>
<g>
	<g>
		<path d="M372.579,9.309c-3.041-2.239-7.316-1.586-9.547,1.44c-14.669,19.886-30.469,31.261-43.503,31.654
			c3.988-15.055,5.149-28.848-1.384-34.374c-3.082-2.606-8.68-4.567-17.823,0.92c-8.663,5.193-12.986,13.974-11.563,23.494
			c1.207,8.093,6.25,15.085,13.534,19.313c-1.126,3.354-2.36,6.76-3.676,10.127c-1.372,3.507,0.357,7.467,3.867,8.841
			c0.819,0.319,1.661,0.473,2.49,0.473c2.727,0,5.301-1.647,6.356-4.338c1.391-3.541,2.766-7.241,4.057-10.988
			c11.653,0.966,33.539-2.987,58.633-37.014C376.259,15.822,375.612,11.549,372.579,9.309z M306.434,37.925
			c-2.413-2.241-3.796-5.001-4.169-7.494c-0.42-2.821,0.121-6.801,5.081-9.774c0.783-0.468,1.423-0.8,1.934-1.027
			C309.632,23.077,308.535,29.803,306.434,37.925z"/>
	</g>
</g>
<g>
	<g>
		<path d="M270.379,91.262c-0.396-3.748-3.7-6.427-7.513-6.06c-23.939,2.56-66.782,13.107-84.733,54.973
			c-22.88,53.354-133.861,118.513-150.97,122.807c-13.053,3.273-27.416,16.067-27.16,29.187c0.082,4.226,2.033,14.426,18.313,17.84
			c6.859,1.44,15.043,2.167,24.433,2.167c3.799,0,7.796-0.119,11.984-0.362c3.765-0.213,6.644-3.434,6.431-7.2
			c-0.213-3.767-3.41-6.494-7.204-6.427c-13.322,0.734-24.373,0.234-32.84-1.539c-2.763-0.58-7.41-1.966-7.467-4.746
			c-0.097-4.975,8.05-13.474,16.836-15.681c19.403-4.866,134.723-71.272,160.189-130.666c15.21-35.473,52.666-44.534,73.639-46.78
			C268.066,98.375,270.781,95.008,270.379,91.262z"/>
	</g>
</g>
<g>
	<g>
		<path d="M232.868,167.458c-20.704,0-37.547,16.846-37.547,37.547c0,20.7,16.843,37.547,37.547,37.547
			c20.704,0,37.547-16.846,37.547-37.547C270.414,184.304,253.571,167.458,232.868,167.458z M232.868,228.898
			c-13.174,0-23.893-10.72-23.893-23.893c0-13.174,10.72-23.893,23.893-23.893c13.174,0,23.893,10.72,23.893,23.893
			C256.761,218.178,246.042,228.898,232.868,228.898z"/>
	</g>
</g>
<g>
	<g>
		<path d="M303.71,58.99c-2.343-2.966-6.63-3.459-9.59-1.133l-27.727,21.886c-0.374,0.294-0.713,0.626-1.017,0.993
			c-0.804,0.968-80.811,96.881-115.161,125.261C115.022,235.064,17.41,341.21,13.273,345.71c-2.55,2.78-2.367,7.093,0.406,9.646
			c1.312,1.207,2.966,1.801,4.617,1.801c1.847,0,3.683-0.741,5.031-2.208c1.005-1.099,101.11-109.952,135.583-138.433
			C193.237,188.163,268.16,98.71,275.41,90.023l27.17-21.446C305.539,66.237,306.043,61.943,303.71,58.99z"/>
	</g>
</g>
<g>
</g>
<g>
</g>
<g>
</g>
<g>
</g>
<g>
</g>
<g>
</g>
<g>
</g>
<g>
</g>
<g>
</g>
<g>
</g>
<g>
</g>
<g>
</g>
<g>
</g>
<g>
</g>
<g>
</g>
</svg>
