<?xml version="1.0" encoding="iso-8859-1"?>
<!-- Generator: Adobe Illustrator 19.0.0, SVG Export Plug-In . SVG Version: 6.00 Build 0)  -->
<svg version="1.1" id="Capa_1" xmlns="http://www.w3.org/2000/svg" xmlns:xlink="http://www.w3.org/1999/xlink" x="0px" y="0px"
	 viewBox="0 0 373.523 373.523" style="enable-background:new 0 0 373.523 373.523;" xml:space="preserve">
<g>
	<g>
		<path d="M70.368,264.117c-29.066-1.454-51.833-25.414-51.833-54.54c0-24.154,15.5-45.141,38.567-52.221
			c3.599-1.106,5.625-4.927,4.519-8.533c-1.101-3.599-4.886-5.639-8.533-4.519c-28.832,8.852-48.206,35.086-48.206,65.273
			c0,36.413,28.467,66.36,64.807,68.18c0.113,0.007,0.234,0.007,0.346,0.007c3.613,0,6.625-2.835,6.813-6.487
			C77.034,267.509,74.134,264.309,70.368,264.117z"/>
	</g>
</g>
<g>
	<g>
		<path d="M176.869,302.713c-3.133-2.101-7.368-1.28-9.481,1.84c-8.914,13.194-23.728,21.074-39.627,21.074
			c-26.348,0-47.787-21.439-47.787-47.787c0-18.546,10.88-35.574,27.72-43.38c3.42-1.586,4.907-5.639,3.319-9.066
			c-1.585-3.406-5.618-4.914-9.066-3.319c-21.641,10.033-35.627,31.92-35.627,55.767c0,33.881,27.559,61.44,61.44,61.44
			c20.439,0,39.487-10.126,50.947-27.088C180.815,309.074,179.995,304.826,176.869,302.713z"/>
	</g>
</g>
<g>
	<g>
		<path d="M308.668,189.097c-1.287,0-2.567,0.046-3.847,0.126c-3.76,0.247-6.613,3.494-6.366,7.26
			c0.241,3.76,3.386,6.533,7.26,6.366c0.973-0.067,1.959-0.101,2.953-0.101c24.467,0,44.373,19.907,44.373,44.373
			c0,10.94-4.021,21.455-11.314,29.6c-2.514,2.806-2.275,7.125,0.532,9.639c1.3,1.167,2.927,1.741,4.553,1.741
			c1.874,0,3.741-0.766,5.088-2.272c9.54-10.653,14.793-24.4,14.793-38.707C366.695,215.13,340.661,189.097,308.668,189.097z"/>
	</g>
</g>
<g>
	<g>
		<path d="M329.15,271.017c-7.799,0-15.473,2.053-22.187,5.939c-3.26,1.888-4.379,6.06-2.487,9.327
			c1.881,3.253,6.047,4.386,9.327,2.487c4.64-2.68,9.946-4.099,15.346-4.099c16.94,0,30.72,13.78,30.72,30.72
			c0,16.94-13.78,30.72-30.72,30.72c-6.588,0-12.867-2.055-18.154-5.934c-3.053-2.234-7.32-1.574-9.54,1.459
			c-2.234,3.04-1.58,7.313,1.459,9.54c7.646,5.62,16.72,8.586,26.233,8.586c24.467,0,44.375-19.905,44.375-44.372
			C373.523,290.923,353.616,271.017,329.15,271.017z"/>
	</g>
</g>
<g>
	<g>
		<path d="M86.786,99.69C43.353,75.296,18.721,46.035,13.573,12.716c-0.572-3.727-4.026-6.253-7.786-5.707
			C2.06,7.581-0.493,11.067,0.08,14.795c5.821,37.68,32.741,70.246,80.027,96.8c1.053,0.594,2.2,0.874,3.333,0.874
			c2.386,0,4.707-1.253,5.958-3.487C91.245,105.697,90.08,101.536,86.786,99.69z"/>
	</g>
</g>
<g>
	<g>
		<path d="M257.468,107.178c-1.306,0-2.606,0.046-3.893,0.14c-3.76,0.266-6.586,3.526-6.32,7.293
			c0.266,3.753,3.379,6.687,7.293,6.32c0.966-0.067,1.934-0.101,2.92-0.101c22.586,0,40.96,18.374,40.96,40.96
			c0,7.9-2.253,15.573-6.513,22.18c-2.048,3.166-1.133,7.393,2.033,9.433c1.147,0.741,2.427,1.094,3.693,1.094
			c2.239,0,4.439-1.101,5.74-3.125c5.693-8.82,8.701-19.046,8.701-29.58C312.081,131.677,287.582,107.178,257.468,107.178z"/>
	</g>
</g>
<g>
	<g>
		<path d="M138.201,100.449c-8.4-4.535-17.913-6.927-27.506-6.927c-31.993,0-58.027,26.033-58.027,58.027
			c0,31.993,26.033,58.027,58.027,58.027c3.773,0,6.827-3.053,6.827-6.827s-3.053-6.827-6.827-6.827
			c-24.467,0-44.373-19.907-44.373-44.373c0-24.467,19.907-44.373,44.373-44.373c7.339,0,14.612,1.828,21.026,5.287
			c3.333,1.801,7.46,0.546,9.247-2.766C142.761,106.376,141.52,102.236,138.201,100.449z"/>
	</g>
</g>
<g>
	<g>
		<path d="M254.055,161.79c-3.773,0-6.827,3.053-6.827,6.827s3.053,6.827,6.827,6.827c24.467,0,44.373,19.907,44.373,44.373
			c0,18.773-11.887,35.587-29.573,41.847c-3.553,1.253-5.414,5.152-4.154,8.713c0.988,2.801,3.622,4.547,6.434,4.547
			c0.753,0,1.526-0.128,2.28-0.393c23.127-8.18,38.666-30.167,38.666-54.714C312.081,187.823,286.048,161.79,254.055,161.79z"/>
	</g>
</g>
<g>
	<g>
		<path d="M254.007,138.595c-1.287-3.546-5.193-5.379-8.74-4.099c-3.546,1.287-5.379,5.2-4.099,8.74
			c1.754,4.854,2.647,9.946,2.647,15.14c0,21.028-14.926,39.315-35.494,43.481c-3.693,0.754-6.081,4.354-5.333,8.054
			c0.66,3.232,3.507,5.466,6.687,5.466c0.447,0,0.906-0.046,1.365-0.135c26.901-5.46,46.427-29.373,46.427-56.866
			C257.466,151.594,256.301,144.935,254.007,138.595z"/>
	</g>
</g>
<g>
	<g>
		<path d="M157.594,173.182c-1.673-4.734-2.526-9.714-2.526-14.807c0-3.046,0.307-6.079,0.913-9.006
			c0.761-3.688-1.613-7.301-5.306-8.067c-3.681-0.734-7.308,1.606-8.067,5.306c-0.794,3.835-1.193,7.794-1.193,11.767
			c0,6.654,1.113,13.167,3.313,19.367c0.993,2.801,3.627,4.547,6.434,4.547c0.759,0,1.526-0.126,2.278-0.394
			C156.993,180.635,158.853,176.735,157.594,173.182z"/>
	</g>
</g>
<g>
	<g>
		<path d="M274.533,264.188c-1.312,0-2.606,0.053-3.886,0.147c-3.76,0.266-6.593,3.533-6.32,7.293
			c0.266,3.753,3.366,6.646,7.293,6.32c0.959-0.067,1.934-0.106,2.913-0.106c20.7,0,37.547,16.846,37.547,37.547
			c0,20.7-16.846,37.547-37.547,37.547c-15.2,0-28.805-9.066-34.666-23.093c-1.452-3.487-5.46-5.113-8.933-3.666
			c-3.473,1.452-5.12,5.453-3.666,8.933c7.986,19.12,26.539,31.479,47.266,31.479c28.233,0,51.198-22.967,51.198-51.2
			C325.733,287.155,302.766,264.188,274.533,264.188z"/>
	</g>
</g>
<g>
	<g>
		<path d="M219.923,223.227c-2.128,0-4.227,0.113-6.294,0.34c-3.746,0.413-6.453,3.787-6.04,7.533
			c0.413,3.739,3.721,6.386,7.533,6.04c1.572-0.172,3.18-0.259,4.799-0.259c24.467,0,44.373,19.907,44.373,44.373
			s-19.907,44.373-44.373,44.373c-24.467,0-44.373-19.907-44.373-44.373c0-1.312,0.061-2.613,0.167-3.893
			c0.326-3.76-2.461-7.066-6.214-7.386c-3.879-0.36-7.066,2.461-7.386,6.214c-0.147,1.667-0.22,3.354-0.22,5.067
			c0,31.993,26.034,58.027,58.027,58.027s58.028-26.035,58.028-58.028C277.95,249.26,251.916,223.227,219.923,223.227z"/>
	</g>
</g>
<g>
	<g>
		<path d="M194.241,45.735c-35.76,0-64.853,29.094-64.853,64.853s29.094,64.853,64.853,64.853c35.76,0,64.853-29.094,64.853-64.853
			S230.001,45.735,194.241,45.735z M194.241,161.788c-28.233,0-51.2-22.967-51.2-51.2s22.967-51.2,51.2-51.2
			c28.233,0,51.2,22.967,51.2,51.2S222.474,161.788,194.241,161.788z"/>
	</g>
</g>
<g>
	<g>
		<path d="M158.481,168.615c-31.993,0-58.027,26.034-58.027,58.027s26.034,58.027,58.027,58.027s58.027-26.034,58.027-58.027
			S190.474,168.615,158.481,168.615z M158.481,271.015c-24.467,0-44.373-19.907-44.373-44.373s19.907-44.373,44.373-44.373
			c24.467,0,44.373,19.907,44.373,44.373S182.948,271.015,158.481,271.015z"/>
	</g>
</g>
<g>
</g>
<g>
</g>
<g>
</g>
<g>
</g>
<g>
</g>
<g>
</g>
<g>
</g>
<g>
</g>
<g>
</g>
<g>
</g>
<g>
</g>
<g>
</g>
<g>
</g>
<g>
</g>
<g>
</g>
</svg>
