<?xml version="1.0" encoding="iso-8859-1"?>
<!-- Generator: Adobe Illustrator 19.0.0, SVG Export Plug-In . SVG Version: 6.00 Build 0)  -->
<svg version="1.1" id="Capa_1" xmlns="http://www.w3.org/2000/svg" xmlns:xlink="http://www.w3.org/1999/xlink" x="0px" y="0px"
	 viewBox="0 0 368.64 368.64" style="enable-background:new 0 0 368.64 368.64;" xml:space="preserve">
<g>
	<g>
		<path d="M230.722,0c-71.52,0-129.707,58.187-129.707,129.707v53.961l-11.593-16.07c-14.467-20.055-42.561-24.593-62.614-10.136
			c-20.057,14.471-24.605,42.561-10.134,62.614l84.34,116.91v24.827c0,3.77,3.057,6.827,6.827,6.827H353.6
			c3.773,0,6.827-3.057,6.828-6.827V129.707C360.429,58.187,302.241,0,230.722,0z M346.773,354.987H114.667h-0.002V334.78
			c0-1.434-0.451-2.83-1.29-3.994l-85.63-118.697c-4.878-6.76-6.828-15.01-5.497-23.236c1.331-8.226,5.787-15.44,12.544-20.316
			c13.957-10.066,33.488-6.907,43.554,7.05l23.956,33.207c1.731,2.403,4.825,3.42,7.637,2.504c2.818-0.911,4.727-3.535,4.727-6.497
			v-75.093c0-63.993,52.06-116.053,116.053-116.053s116.053,52.06,116.053,116.053V354.987z"/>
	</g>
</g>
<g>
	<g>
		<path d="M230.72,27.307c-3.773,0-6.827,3.057-6.827,6.827s3.053,6.827,6.827,6.827c48.934,0,88.747,39.81,88.747,88.747
			c0,3.77,3.053,6.827,6.827,6.827s6.827-3.057,6.827-6.827C333.12,73.243,287.187,27.307,230.72,27.307z"/>
	</g>
</g>
<g>
	<g>
		<path d="M266.267,264.827L187.76,186.32c-2.666-2.666-6.987-2.666-9.653,0c-2.666,2.666-2.666,6.987,0,9.653l78.507,78.507
			c1.333,1.333,3.081,2,4.826,2s3.494-0.667,4.826-2C268.932,271.814,268.932,267.493,266.267,264.827z"/>
	</g>
</g>
<g>
	<g>
		<path d="M256.027,227.28l-68.267-68.267c-2.666-2.666-6.987-2.666-9.653,0c-2.666,2.666-2.666,6.987,0,9.653l68.267,68.267
			c1.333,1.333,3.081,2,4.826,2s3.494-0.667,4.826-2C258.692,234.267,258.692,229.946,256.027,227.28z"/>
	</g>
</g>
<g>
</g>
<g>
</g>
<g>
</g>
<g>
</g>
<g>
</g>
<g>
</g>
<g>
</g>
<g>
</g>
<g>
</g>
<g>
</g>
<g>
</g>
<g>
</g>
<g>
</g>
<g>
</g>
<g>
</g>
</svg>
