<?xml version="1.0" encoding="iso-8859-1"?>
<!-- Generator: Adobe Illustrator 19.0.0, SVG Export Plug-In . SVG Version: 6.00 Build 0)  -->
<svg version="1.1" id="Capa_1" xmlns="http://www.w3.org/2000/svg" xmlns:xlink="http://www.w3.org/1999/xlink" x="0px" y="0px"
	 viewBox="0 0 430.08 430.08" style="enable-background:new 0 0 430.08 430.08;" xml:space="preserve">
<g>
	<g>
		<path d="M307.2,0H122.88c-3.77,0-6.827,3.057-6.827,6.827v286.72c0,3.77,3.057,6.827,6.827,6.827H307.2
			c3.77,0,6.827-3.057,6.827-6.827V6.827C314.027,3.057,310.97,0,307.2,0z M300.373,286.72H129.707V13.653h170.667V286.72z"/>
	</g>
</g>
<g>
	<g>
		<path d="M307.2,286.72H122.88c-3.77,0-6.827,3.057-6.827,6.827v129.707c0,3.77,3.057,6.827,6.827,6.827H307.2
			c3.77,0,6.827-3.057,6.827-6.827V293.547C314.027,289.777,310.97,286.72,307.2,286.72z M300.373,416.427H129.707V300.373h170.667
			V416.427z"/>
	</g>
</g>
<g>
	<g>
		<path d="M150.187,54.613c-3.77,0-6.827,3.057-6.827,6.827v170.667c0,3.77,3.057,6.827,6.827,6.827s6.827-3.057,6.827-6.827V61.44
			C157.013,57.67,153.957,54.613,150.187,54.613z"/>
	</g>
</g>
<g>
	<g>
		<path d="M150.187,320.853c-3.77,0-6.827,3.057-6.827,6.827v61.44c0,3.77,3.057,6.827,6.827,6.827s6.827-3.057,6.827-6.827v-61.44
			C157.013,323.91,153.957,320.853,150.187,320.853z"/>
	</g>
</g>
<g>
	<g>
		<path d="M266.24,116.053h-88.747c-3.77,0-6.827,3.057-6.827,6.827v61.44c0,3.77,3.057,6.827,6.827,6.827h88.747
			c3.77,0,6.827-3.057,6.827-6.827v-61.44C273.067,119.11,270.01,116.053,266.24,116.053z M259.413,177.493H184.32v-47.787h75.093
			V177.493z"/>
	</g>
</g>
<g>
	<g>
		<path d="M244.145,138.947c-1.297-1.529-3.203-2.413-5.21-2.413h-34.133c-2.007,0-3.913,0.884-5.21,2.413
			c-1.297,1.533-1.853,3.557-1.524,5.536l6.827,40.96c0.546,3.29,3.396,5.704,6.733,5.704h20.48c3.337,0,6.187-2.413,6.736-5.704
			l6.827-40.96C245.999,142.503,245.443,140.479,244.145,138.947z M226.324,177.493h-8.914l-4.55-27.307h18.014L226.324,177.493z"/>
	</g>
</g>
<g>
</g>
<g>
</g>
<g>
</g>
<g>
</g>
<g>
</g>
<g>
</g>
<g>
</g>
<g>
</g>
<g>
</g>
<g>
</g>
<g>
</g>
<g>
</g>
<g>
</g>
<g>
</g>
<g>
</g>
</svg>
