<?xml version="1.0" encoding="iso-8859-1"?>
<!-- Generator: Adobe Illustrator 19.0.0, SVG Export Plug-In . SVG Version: 6.00 Build 0)  -->
<svg version="1.1" id="Capa_1" xmlns="http://www.w3.org/2000/svg" xmlns:xlink="http://www.w3.org/1999/xlink" x="0px" y="0px"
	 viewBox="0 0 417.465 417.465" style="enable-background:new 0 0 417.465 417.465;" xml:space="preserve">
<g>
	<g>
		<path d="M75.867,96.084c-2.173-3.074-6.432-3.813-9.513-1.633c-15.037,10.627-22.984,23.18-22.984,36.294
			c0,3.773,3.057,6.827,6.827,6.827c3.77,0,6.827-3.053,6.827-6.828c0-10.726,9.359-19.593,17.21-25.146
			C77.314,103.424,78.043,99.165,75.867,96.084z"/>
	</g>
</g>
<g>
	<g>
		<path d="M262.897,67.926c-5.574-1.027-11.324-1.913-17.094-2.647c-3.751-0.447-7.158,2.179-7.634,5.914
			c-0.473,3.741,2.174,7.161,5.914,7.634c5.523,0.7,11.023,1.553,16.347,2.526c0.418,0.079,0.835,0.113,1.241,0.113
			c3.232,0,6.103-2.301,6.707-5.593C269.06,72.165,266.604,68.605,262.897,67.926z"/>
	</g>
</g>
<g>
	<g>
		<path d="M343.566,101.972c-2.703-2.627-7.033-2.56-9.653,0.147c-2.627,2.707-2.56,7.026,0.147,9.653
			c6.427,6.233,9.684,12.612,9.684,18.973c0,3.773,3.057,6.827,6.827,6.827s6.827-3.053,6.827-6.827
			C357.397,120.553,352.743,110.872,343.566,101.972z"/>
	</g>
</g>
<g>
	<g>
		<path d="M79.221,28.345h-8.544c-3.77,0-6.827,3.053-6.827,6.827v95.573c0,3.773,3.057,6.827,6.827,6.827s6.827-3.053,6.827-6.827
			V41.998h1.717c3.77,0,6.827-3.053,6.827-6.827S82.991,28.345,79.221,28.345z"/>
	</g>
</g>
<g>
	<g>
		<path d="M145.108,110.758L117.064,6.098c-0.976-3.647-4.705-5.82-8.359-4.826l-32.969,8.834c-1.751,0.466-3.241,1.613-4.147,3.18
			c-0.903,1.567-1.149,3.434-0.679,5.18l36.925,137.807c0.816,3.053,3.572,5.06,6.589,5.06c0.582,0,1.179-0.073,1.77-0.236
			c3.644-0.973,5.803-4.719,4.826-8.359L85.863,21.523l19.784-5.299l26.276,98.067c0.973,3.647,4.709,5.813,8.359,4.826
			C143.925,118.145,146.084,114.398,145.108,110.758z"/>
	</g>
</g>
<g>
	<g>
		<path d="M162.861,48.825h-23.917c-3.77,0-6.827,3.053-6.827,6.827v116.9c0,3.773,3.057,6.827,6.827,6.827s6.827-3.053,6.827-6.827
			V62.478h17.091c3.77,0,6.827-3.053,6.827-6.827S166.631,48.825,162.861,48.825z"/>
	</g>
</g>
<g>
	<g>
		<path d="M200.384,21.518H166.25c-3.77,0-6.827,3.053-6.827,6.827v153.361c0,3.207,2.234,5.98,5.364,6.666
			c11.539,2.533,23.513,3.813,35.596,3.813c3.77,0,6.827-3.053,6.827-6.827V28.345C207.21,24.571,204.154,21.518,200.384,21.518z
			 M193.557,178.385c-6.921-0.307-13.769-1.067-20.48-2.273V35.171h20.48V178.385z"/>
	</g>
</g>
<g>
	<g>
		<path d="M241.344,7.865H207.21c-3.77,0-6.827,3.053-6.827,6.827v150.2c0,3.773,3.057,6.827,6.827,6.827s6.827-3.053,6.827-6.827
			V21.518h20.48v84.14c0,3.773,3.057,6.827,6.827,6.827s6.827-3.053,6.827-6.827V14.691C248.17,10.918,245.114,7.865,241.344,7.865z
			"/>
	</g>
</g>
<g>
	<g>
		<path d="M154.548,171.437c-2.381-0.787-4.687-1.626-6.924-2.539c-3.497-1.447-7.474,0.246-8.897,3.739
			c-0.346,0.846-0.51,1.72-0.51,2.581c0.003,2.693,1.606,5.239,4.253,6.32c2.511,1.027,5.108,1.98,7.781,2.86
			c0.71,0.241,1.43,0.346,2.14,0.346c2.862,0,5.53-1.813,6.48-4.68C160.059,176.49,158.122,172.63,154.548,171.437z"/>
	</g>
</g>
<g>
	<g>
		<path d="M196.322,178.41c-14.667-0.365-29.073-2.767-41.67-6.932c-3.574-1.179-7.441,0.753-8.624,4.333
			c-1.186,3.581,0.753,7.441,4.33,8.627c14.01,4.647,29.362,7.214,45.617,7.627c0.061,0,0.118,0,0.177,0
			c3.69,0,6.728-2.947,6.818-6.654C203.068,181.638,200.089,178.511,196.322,178.41z"/>
	</g>
</g>
<g>
	<g>
		<path d="M247.95,178.066l-2.336-6.414c-0.87,0.287-1.734,0.58-2.623,0.846c-0.003,0-0.003,0-0.007,0c0,0-0.003,0-0.007,0
			c-3.611,1.085-5.658,4.893-4.574,8.499c0.889,2.961,3.599,4.867,6.537,4.867c0.65,0,1.311-0.094,1.964-0.287
			c1.014-0.305,1.993-0.633,2.976-0.959c0.024-0.007,0.043-0.014,0.063-0.02L247.95,178.066z"/>
	</g>
</g>
<g>
	<g>
		<path d="M269.367,168.478l-4.081-5.513l-1.447,0.853c-2.234,1.246-3.494,3.574-3.49,5.966c0,1.126,0.28,2.266,0.87,3.319
			c1.253,2.241,3.574,3.494,5.963,3.494c1.13,0,2.273-0.28,3.33-0.874l1.811-1.06L269.367,168.478z"/>
	</g>
</g>
<g>
	<g>
		<path d="M261.36,172.957c-1.41-3.487-5.366-5.193-8.866-3.787l-2.816,1.073c-3.526,1.326-5.313,5.267-3.987,8.793
			c1.029,2.741,3.63,4.427,6.39,4.427c0.799,0,1.609-0.14,2.403-0.432l0.647-0.247c0.833-0.314,1.659-0.621,2.473-0.954
			C261.086,180.417,262.769,176.444,261.36,172.957z"/>
	</g>
</g>
<g>
	<g>
		<path d="M267.823,169.699c-1.623-3.407-5.7-4.847-9.1-3.221l-2.084,0.927c-2.536,1.133-4.043,3.627-4.047,6.233
			c0,0.934,0.195,1.881,0.597,2.78c1.133,2.54,3.627,4.047,6.236,4.047c0.93,0,1.877-0.188,2.782-0.592l2.396-1.073
			c2.456-1.172,3.889-3.62,3.886-6.166C268.49,171.647,268.277,170.647,267.823,169.699z"/>
	</g>
</g>
<g>
	<g>
		<path d="M123.731,154.357c-0.012-0.012-0.022-0.026-0.036-0.039c-0.007-0.007-0.014-0.014-0.02-0.021
			c-0.427-0.393-0.853-0.787-1.27-1.179c-0.493-0.468-0.973-0.947-1.427-1.427c-0.003-0.007-0.003-0.007-0.007-0.007
			c-0.003-0.007-0.007-0.007-0.007-0.007c-2.57-2.767-6.886-2.913-9.646-0.34c-2.756,2.565-2.913,6.88-0.346,9.639
			c0.003,0.007,0.007,0.007,0.007,0.007c0.003,0.007,0.003,0.007,0.007,0.007c0.442,0.48,0.906,0.947,1.389,1.42
			c0.674,0.659,1.377,1.312,2.08,1.959c0.003,0.007,0.007,0.007,0.01,0.007c0,0.007,0.003,0.007,0.007,0.007
			c1.304,1.207,2.947,1.801,4.584,1.801c1.84,0,3.674-0.746,5.024-2.207C126.62,161.222,126.441,156.923,123.731,154.357z"/>
	</g>
</g>
<g>
	<g>
		<path d="M147.257,168.744c-0.003,0-0.003,0-0.003,0c-0.007-0.007-0.01-0.007-0.017-0.007c-2.106-0.872-4.157-1.78-6.123-2.753
			c-3.393-1.681-7.475-0.287-9.143,3.099c-0.48,0.968-0.707,2-0.707,3.014c-0.002,2.514,1.394,4.941,3.804,6.127
			c2.244,1.106,4.57,2.147,6.973,3.133c0.853,0.353,1.736,0.521,2.603,0.521c2.679,0,5.222-1.587,6.313-4.221
			C152.397,174.178,150.74,170.184,147.257,168.744z"/>
	</g>
</g>
<g>
	<g>
		<path d="M128.605,158.398c-1.21-0.899-2.408-1.813-3.511-2.766c-0.02-0.012-0.036-0.032-0.056-0.046
			c-2.854-2.466-7.161-2.173-9.631,0.674c-1.12,1.294-1.669,2.886-1.673,4.466c-0.003,1.913,0.794,3.813,2.35,5.166
			c1.369,1.193,2.855,2.333,4.372,3.459c1.224,0.906,2.65,1.347,4.064,1.347c2.086,0,4.145-0.954,5.484-2.753
			C132.255,164.917,131.627,160.644,128.605,158.398z"/>
	</g>
</g>
<g>
	<g>
		<path d="M134.206,162.187c-0.739-0.461-1.473-0.913-2.19-1.374c-0.777-0.505-1.536-1.012-2.273-1.533
			c-3.067-2.188-7.33-1.454-9.51,1.606c-2.183,3.067-1.469,7.327,1.594,9.513c0.795,0.572,1.62,1.126,2.459,1.673
			c0.913,0.592,1.843,1.179,2.79,1.753c1.109,0.679,2.336,1,3.546,1c2.295,0,4.543-1.161,5.828-3.258
			C138.416,168.353,137.413,164.153,134.206,162.187z"/>
	</g>
</g>
<g>
	<g>
		<path d="M140.418,165.626c-1.824-0.913-3.598-1.86-5.284-2.86c-3.251-1.906-7.434-0.833-9.351,2.406
			c-0.647,1.092-0.951,2.287-0.951,3.466c0,2.34,1.2,4.613,3.354,5.886c1.946,1.147,3.994,2.241,6.096,3.301
			c0.983,0.493,2.029,0.727,3.06,0.727c2.5,0,4.907-1.374,6.108-3.76c0.493-0.986,0.727-2.033,0.727-3.06
			C144.178,169.232,142.801,166.825,140.418,165.626z"/>
	</g>
</g>
<g>
	<g>
		<path d="M119.675,150.131l-0.469-0.546c-0.311-0.36-0.62-0.72-0.917-1.08c-0.235-0.287-0.466-0.58-0.683-0.874
			c-2.231-3.04-6.501-3.7-9.537-1.48c-3.04,2.227-3.707,6.494-1.483,9.54c0.244,0.335,0.503,0.667,0.787,1.021
			c0.546,0.686,1.167,1.413,1.92,2.287c1.35,1.579,3.26,2.386,5.187,2.386c1.567,0,3.144-0.539,4.429-1.633
			C121.773,157.304,122.116,153.005,119.675,150.131z"/>
	</g>
</g>
<g>
	<g>
		<path d="M311.86,53.151l-13.483-7.786c-3.27-1.893-7.446-0.766-9.327,2.5c-1.883,3.267-0.766,7.441,2.5,9.327l7.571,4.372
			l-65.466,113.388c-8.23,1.847-16.804,2.98-25.607,3.4l61.757-106.967c1.882-3.267,0.766-7.441-2.5-9.327
			c-3.277-1.893-7.441-0.759-9.327,2.5l-67.704,117.267c-1.203,2.087-1.219,4.654-0.039,6.753c1.181,2.106,3.381,3.427,5.791,3.487
			l1.493,0.046c0.947,0.039,1.898,0.073,2.864,0.073c13.609,0,26.846-1.56,39.335-4.634c1.807-0.44,3.354-1.601,4.284-3.214
			L314.36,62.478C316.242,59.212,315.126,55.037,311.86,53.151z"/>
	</g>
</g>
<g>
	<g>
		<path d="M116.435,145.777l-0.5-0.773c-0.319-0.493-0.65-0.986-0.923-1.493c-1.78-3.32-5.91-4.581-9.243-2.787
			c-2.295,1.227-3.603,3.586-3.599,6.026c0,1.087,0.261,2.186,0.811,3.214c0.454,0.846,0.985,1.674,1.524,2.5l0.42,0.647
			c1.3,2.048,3.507,3.161,5.763,3.161c1.253,0,2.524-0.346,3.657-1.067c2.045-1.307,3.161-3.514,3.161-5.767
			C117.505,148.184,117.158,146.91,116.435,145.777z"/>
	</g>
</g>
<g>
	<g>
		<path d="M296.607,129.031c-3.75-0.599-7.229,1.927-7.834,5.647l-0.234,1.161c-0.101,0.466-0.147,0.932-0.147,1.386
			c0,3.133,2.232,5.847,5.449,6.526c0.454,0.094,0.906,0.14,1.353,0.14c3.188,0,6.081-2.326,6.77-5.562
			c0.104-0.486,0.207-0.973,0.287-1.466c0.06-0.372,0.087-0.739,0.087-1.106C302.34,132.472,299.957,129.577,296.607,129.031z"/>
	</g>
</g>
<g>
	<g>
		<path d="M114.033,141.304l-0.454-1c-0.15-0.319-0.311-0.64-0.427-0.973c-1.251-3.56-5.154-5.46-8.704-4.18
			c-2.811,0.986-4.57,3.62-4.57,6.439c0,0.753,0.128,1.512,0.387,2.26c0.266,0.754,0.597,1.493,0.94,2.227l0.307,0.667
			c1.116,2.574,3.627,4.106,6.263,4.106c0.906,0,1.83-0.179,2.717-0.567c2.574-1.113,4.11-3.627,4.11-6.267
			C114.6,143.111,114.421,142.191,114.033,141.304z"/>
	</g>
</g>
<g>
	<g>
		<path d="M280.464,160.925c-2.186-3.067-6.446-3.773-9.523-1.594l-1.87,1.273c-3.125,2.094-3.968,6.32-1.884,9.453
			c1.314,1.98,3.48,3.046,5.69,3.046c1.29,0,2.598-0.367,3.755-1.125c0.756-0.5,1.512-1.007,2.243-1.527
			c1.864-1.333,2.857-3.427,2.86-5.553C281.737,163.52,281.324,162.132,280.464,160.925z"/>
	</g>
</g>
<g>
	<g>
		<path d="M112.443,136.617l-0.427-1.56c-0.654-3.707-4.183-6.134-7.897-5.533c-3.318,0.58-5.651,3.461-5.651,6.714
			c0,0.393,0.034,0.794,0.104,1.193c0.114,0.647,0.283,1.287,0.604,2.4c0.758,3.127,3.55,5.221,6.627,5.221
			c0.532,0,1.073-0.061,1.615-0.195c3.123-0.754,5.221-3.553,5.217-6.627C112.635,137.698,112.576,137.157,112.443,136.617z"/>
	</g>
</g>
<g>
	<g>
		<path d="M285.188,155.864l-5.361-4.246l-0.79,0.86c-1.297,1.326-1.947,3.046-1.947,4.767c0,1.773,0.683,3.546,2.053,4.886
			c1.329,1.3,3.05,1.947,4.773,1.947c1.773,0,3.543-0.686,4.883-2.053c0.42-0.427,0.816-0.867,1.463-1.594L285.188,155.864z"/>
	</g>
</g>
<g>
	<g>
		<path d="M301.087,140.838c-0.003-2.86-1.819-5.526-4.683-6.473c-3.598-1.193-7.448,0.753-8.627,4.333
			c-0.01,0.027-0.37,1.126-0.377,1.147c-0.304,0.8-0.447,1.613-0.447,2.42c0,2.753,1.683,5.354,4.413,6.386
			c0.797,0.3,1.613,0.44,2.417,0.44c2.755,0,5.35-1.681,6.385-4.407c0.167-0.439,0.311-0.879,0.451-1.319l-6.361-2.521l6.48,2.147
			C300.975,142.278,301.087,141.551,301.087,140.838z"/>
	</g>
</g>
<g>
	<g>
		<path d="M284.824,157.099c-2.316-2.895-6.786-3.193-9.733-0.947c-0.067,0.048-0.601,0.468-0.667,0.521
			c-1.577,1.292-2.357,3.099-2.357,4.946c0,1.519,0.524,3.065,1.567,4.379c1.306,1.654,3.299,2.487,5.323,2.487
			c1.55,0,3.116-0.493,4.405-1.466l0.819-0.654c1.519-1.287,2.26-3.026,2.263-4.82C286.444,160.006,285.898,158.432,284.824,157.099
			z"/>
	</g>
</g>
<g>
	<g>
		<path d="M292.776,145.864c-3.074-2.186-7.34-1.48-9.52,1.601l-0.927,1.207c-0.945,1.22-1.399,2.64-1.399,4.053
			c0,2.026,0.94,4.033,2.69,5.4c1.213,0.945,2.662,1.393,4.11,1.393c2.098,0,4.193-0.945,5.567-2.7
			c0.37-0.48,0.737-0.947,1.08-1.434c0.853-1.2,1.266-2.579,1.266-3.946C295.646,149.298,294.65,147.197,292.776,145.864z"/>
	</g>
</g>
<g>
	<g>
		<path d="M294.809,141.111c-3.29-1.78-7.516-0.381-9.327,2.893c-0.573,1.034-0.843,2.14-0.84,3.234c0,2.314,1.22,4.56,3.371,5.84
			c1.07,0.64,2.253,0.94,3.427,0.94c2.294,0,4.55-1.147,5.866-3.202c0.106-0.167,0.326-0.532,0.416-0.707
			c0.519-0.986,0.763-2.026,0.763-3.046C298.481,144.658,297.121,142.357,294.809,141.111z"/>
	</g>
</g>
<g>
	<g>
		<path d="M311.358,84.764L290.001,5.051c-0.466-1.748-1.613-3.241-3.18-4.147c-1.567-0.893-3.43-1.133-5.18-0.679l-32.969,8.834
			c-1.751,0.466-3.241,1.613-4.147,3.18c-0.903,1.567-1.149,3.434-0.679,5.18l27.971,104.393c0.816,3.053,3.572,5.06,6.589,5.06
			c0.584,0,1.181-0.073,1.77-0.235c3.644-0.973,5.803-4.719,4.826-8.359l-26.204-97.801l19.784-5.299l19.591,73.12
			c0.976,3.64,4.698,5.806,8.359,4.826C310.175,92.15,312.334,88.404,311.358,84.764z"/>
	</g>
</g>
<g>
	<g>
		<path d="M374.029,61.586c-0.254-1.787-1.207-3.406-2.654-4.5l-27.261-20.54c-3.017-2.273-7.294-1.661-9.561,1.347l-105.24,139.653
			c-1.72,2.28-1.833,5.393-0.29,7.799c1.273,1.98,3.453,3.133,5.743,3.133c0.486,0,0.98-0.053,1.473-0.159
			c36.85-8.132,61.814-27.626,65.941-50.746h13.693c2.144,0,4.163-1.007,5.453-2.72l51.396-68.207
			C373.808,65.199,374.281,63.379,374.029,61.586z M312.466,123.916h-16.51c-3.77,0-6.827,3.053-6.827,6.827
			c0,15.073-13.983,29.327-36.306,38.287l88.527-117.473l16.357,12.326L312.466,123.916z"/>
	</g>
</g>
<g>
	<g>
		<path d="M355.573,126.098c-1.29-1.393-3.104-2.179-5.001-2.179h-54.613c-3.77,0-6.827,3.053-6.827,6.827
			c0,25.9-40.639,47.787-88.747,47.787s-88.747-21.886-88.747-47.787c0-3.773-3.057-6.827-6.827-6.827H50.199
			c-1.898,0-3.71,0.787-5,2.179c-1.294,1.388-1.947,3.255-1.811,5.147l20.48,279.893c0.263,3.567,3.232,6.327,6.81,6.327H330.09
			c3.575,0,6.547-2.76,6.813-6.327l20.48-279.893C357.52,129.35,356.866,127.483,355.573,126.098z M323.743,403.811H77.022
			l-19.483-266.24h41.042c5.492,31.126,48.234,54.613,101.803,54.613s96.309-23.487,101.803-54.613h41.04L323.743,403.811z"/>
	</g>
</g>
<g>
	<g>
		<path d="M200.384,239.971c-33.877,0-61.44,27.559-61.44,61.44s27.563,61.44,61.44,61.44c33.876,0,61.44-27.559,61.44-61.44
			S234.261,239.971,200.384,239.971z M200.384,349.198c-26.349,0-47.787-21.439-47.787-47.787s21.437-47.787,47.787-47.787
			s47.787,21.439,47.787,47.787S226.733,349.198,200.384,349.198z"/>
	</g>
</g>
<g>
</g>
<g>
</g>
<g>
</g>
<g>
</g>
<g>
</g>
<g>
</g>
<g>
</g>
<g>
</g>
<g>
</g>
<g>
</g>
<g>
</g>
<g>
</g>
<g>
</g>
<g>
</g>
<g>
</g>
</svg>
