<?xml version="1.0" encoding="iso-8859-1"?>
<!-- Generator: Adobe Illustrator 19.0.0, SVG Export Plug-In . SVG Version: 6.00 Build 0)  -->
<svg version="1.1" id="Capa_1" xmlns="http://www.w3.org/2000/svg" xmlns:xlink="http://www.w3.org/1999/xlink" x="0px" y="0px"
	 viewBox="0 0 414.76 414.76" style="enable-background:new 0 0 414.76 414.76;" xml:space="preserve">
<g>
	<g>
		<path d="M71.507,107.888c-3.28-1.906-7.441-0.773-9.334,2.48c-3.308,5.699-4.98,11.646-4.98,17.672
			c0,3.773,3.053,6.827,6.827,6.827c3.773,0,6.827-3.053,6.827-6.825c0-3.594,1.053-7.233,3.14-10.82
			C75.879,113.962,74.767,109.78,71.507,107.888z"/>
	</g>
</g>
<g>
	<g>
		<path d="M172.948,68.873c-0.514-3.732-3.867-6.373-7.694-5.827c-6.654,0.913-13.213,2.033-19.5,3.32
			c-3.693,0.754-6.079,4.361-5.32,8.054c0.66,3.232,3.507,5.46,6.68,5.46c0.452,0,0.913-0.048,1.374-0.14
			c6.001-1.225,12.268-2.292,18.633-3.173C170.854,76.053,173.468,72.608,172.948,68.873z"/>
	</g>
</g>
<g>
	<g>
		<path d="M249.285,61.426c-5.32-0.512-10.745-0.906-16.253-1.186c-3.707-0.227-6.973,2.707-7.166,6.473
			c-0.186,3.767,2.707,6.973,6.473,7.166c5.306,0.266,10.52,0.647,15.64,1.133c0.227,0.027,0.447,0.034,0.66,0.034
			c3.48,0,6.453-2.647,6.786-6.175C255.786,65.119,253.038,61.786,249.285,61.426z"/>
	</g>
</g>
<g>
	<g>
		<path d="M355.286,97.315c-2.806-2.5-7.118-2.253-9.639,0.56c-2.507,2.813-2.253,7.132,0.56,9.639
			c7.54,6.712,11.36,13.619,11.36,20.526c0,3.773,3.053,6.827,6.827,6.827s6.827-3.053,6.827-6.825
			C371.22,117.222,365.712,106.596,355.286,97.315z"/>
	</g>
</g>
<g>
	<g>
		<path d="M282.473,46.12c-3.773,0-6.827,3.053-6.827,6.827v47.22c0,3.773,3.053,6.827,6.827,6.827s6.827-3.053,6.827-6.827V60.154
			c30.681,3.406,54.613,29.486,54.613,61.059c0,1.306-0.039,2.599-0.119,3.893c-0.227,3.76,2.633,6.999,6.4,7.226
			c0.14,0.007,0.28,0.014,0.42,0.014c3.581,0,6.586-2.794,6.806-6.412c0.094-1.56,0.147-3.133,0.147-4.721
			C357.566,79.806,323.88,46.12,282.473,46.12z"/>
	</g>
</g>
<g>
	<g>
		<path d="M341.88,5.759c-0.908-1.567-2.401-2.714-4.147-3.18C297.7-8.174,256.481,15.687,245.759,55.679
			c-3.092,11.561-3.413,23.313-0.959,34.934c0.679,3.214,3.512,5.414,6.673,5.414c0.468,0,0.94-0.048,1.42-0.148
			c3.686-0.78,6.047-4.4,5.267-8.093c-2.007-9.499-1.746-19.113,0.787-28.573C267.113,28.726,297,9.753,327.509,14.368L314.828,61.7
			c-0.973,3.639,1.186,7.386,4.826,8.359c3.652,0.993,7.393-1.179,8.359-4.826l14.546-54.294
			C343.027,9.193,342.787,7.326,341.88,5.759z"/>
	</g>
</g>
<g>
	<g>
		<path d="M312.521,135.38c-1.567-4.519-3.574-8.912-5.973-13.073c-15.213-26.354-44.5-40.847-74.74-36.934
			c-3.739,0.48-6.373,3.907-5.886,7.646c0.48,3.732,3.852,6.38,7.646,5.886c24.673-3.159,48.7,8.66,61.153,30.227
			c1.966,3.406,3.62,7.02,4.907,10.726c0.973,2.821,3.62,4.588,6.446,4.588c0.741,0,1.5-0.119,2.241-0.379
			C311.874,142.833,313.762,138.947,312.521,135.38z"/>
	</g>
</g>
<g>
	<g>
		<path d="M164.068,85.36c-7.072-10.474-16.799-19.067-28.133-24.841c-1.608-0.812-3.48-0.966-5.207-0.413
			c-1.727,0.56-3.154,1.78-3.973,3.393l-30.027,58.926c-1.714,3.36-0.381,7.474,2.98,9.18c0.993,0.507,2.053,0.747,3.092,0.747
			c2.487,0,4.886-1.36,6.086-3.726l26.76-52.507c6.755,4.448,12.594,10.194,17.101,16.881c2.115,3.12,6.347,3.946,9.481,1.84
			C165.355,92.726,166.174,88.486,164.068,85.36z"/>
	</g>
</g>
<g>
	<g>
		<path d="M234.7,56.432c-6.2-19.079-19.453-34.599-37.327-43.699c-3.374-1.727-7.473-0.381-9.18,2.98l-37.62,73.827
			c-1.714,3.36-0.381,7.474,2.98,9.18c3.36,1.714,7.473,0.374,9.18-2.98l34.354-67.413c11.634,7.632,20.267,18.9,24.627,32.326
			c5.067,15.607,3.76,32.261-3.686,46.874c-0.727,1.42-1.488,2.801-2.307,4.134c-1.981,3.214-0.975,7.414,2.239,9.393
			c1.113,0.681,2.347,1.007,3.567,1.007c2.294,0,4.535-1.154,5.82-3.255c1.007-1.64,1.952-3.328,2.84-5.074
			C239.293,95.859,240.894,75.512,234.7,56.432z"/>
	</g>
</g>
<g>
	<g>
		<path d="M133.121,70.652c-17.58-28.532-52.367-41.999-84.634-32.753c-1.787,0.507-3.28,1.72-4.154,3.36
			c-0.867,1.64-1.034,3.56-0.454,5.32l27.307,83.581c0.94,2.881,3.613,4.707,6.487,4.707c0.7,0,1.413-0.108,2.12-0.34
			c3.587-1.167,5.542-5.019,4.367-8.607L59.18,49.46c24.327-3.975,49.181,7.047,62.314,28.351c1.98,3.207,6.18,4.2,9.393,2.234
			C134.101,78.065,135.094,73.859,133.121,70.652z"/>
	</g>
</g>
<g>
	<g>
		<path d="M243.768,143.994c-5.526-19.278-18.234-35.253-35.78-44.979c-17.533-9.721-37.833-12.047-57.1-6.501
			c-3.627,1.039-5.719,4.82-4.68,8.439l11.674,40.713c1.039,3.627,4.82,5.719,8.439,4.68c3.627-1.039,5.719-4.82,4.68-8.439
			l-9.687-33.794c13.72-2.365,27.715,0,40.054,6.847c14.36,7.955,24.754,21.021,29.28,36.794c0.86,2.999,3.587,4.946,6.56,4.946
			c0.62,0,1.253-0.087,1.881-0.266C242.715,151.394,244.807,147.614,243.768,143.994z"/>
	</g>
</g>
<g>
	<g>
		<path d="M299.282,137.246c-1.014-1.5-2.581-2.534-4.361-2.881c-34.835-6.793-70.047,12.08-83.661,44.827
			c-1.447,3.48,0.207,7.479,3.686,8.926c0.86,0.353,1.746,0.521,2.62,0.521c2.673,0,5.214-1.579,6.31-4.207
			c10.254-24.666,35.567-39.692,61.667-37.593l-2.214,11.394c-0.72,3.705,1.693,7.286,5.393,8.006
			c3.732,0.707,7.286-1.693,8.006-5.393l3.593-18.473C300.668,140.593,300.296,138.753,299.282,137.246z"/>
	</g>
</g>
<g>
	<g>
		<path d="M244.102,145.061c-0.314-1.78-1.321-3.367-2.807-4.407c-33.166-23.207-78.312-16.167-102.799,16
			c-2.28,2.999-1.7,7.279,1.3,9.566c2.992,2.287,7.279,1.707,9.566-1.3c18.64-24.492,51.927-31.16,78.3-16.693l-20.367,29.087
			c-2.161,3.086-1.413,7.339,1.679,9.506c1.186,0.835,2.553,1.234,3.907,1.234c2.154,0,4.273-1.014,5.601-2.913l24.494-34.98
			C244.015,148.681,244.423,146.848,244.102,145.061z"/>
	</g>
</g>
<g>
	<g>
		<path d="M369.395,123.393c-1.294-1.393-3.101-2.179-5-2.179h-54.613c-3.773,0-6.827,3.053-6.827,6.827
			c0,25.9-40.639,47.787-88.747,47.787c-48.107,0-88.747-21.886-88.747-47.787c0-3.773-3.053-6.827-6.827-6.827H64.022
			c-1.901,0-3.707,0.787-5.001,2.179c-1.294,1.388-1.947,3.255-1.807,5.147l20.48,279.893c0.259,3.567,3.226,6.327,6.806,6.327
			h259.413c3.581,0,6.547-2.761,6.81-6.327l20.48-279.893C371.343,126.646,370.689,124.779,369.395,123.393z M337.566,401.107
			H90.847l-19.48-266.24h41.04c5.492,31.126,48.234,54.613,101.799,54.613c53.565,0,96.305-23.487,101.799-54.613h41.04
			L337.566,401.107z"/>
	</g>
</g>
<g>
	<g>
		<path d="M214.206,237.267c-33.881,0-61.44,27.559-61.44,61.44s27.559,61.44,61.44,61.44c33.881,0,61.44-27.559,61.44-61.44
			S248.087,237.267,214.206,237.267z M214.206,346.493c-26.348,0-47.787-21.439-47.787-47.787s21.439-47.787,47.787-47.787
			s47.787,21.439,47.787,47.787S240.554,346.493,214.206,346.493z"/>
	</g>
</g>
<g>
</g>
<g>
</g>
<g>
</g>
<g>
</g>
<g>
</g>
<g>
</g>
<g>
</g>
<g>
</g>
<g>
</g>
<g>
</g>
<g>
</g>
<g>
</g>
<g>
</g>
<g>
</g>
<g>
</g>
</svg>
