<?xml version="1.0" encoding="iso-8859-1"?>
<!-- Generator: Adobe Illustrator 19.0.0, SVG Export Plug-In . SVG Version: 6.00 Build 0)  -->
<svg version="1.1" id="Capa_1" xmlns="http://www.w3.org/2000/svg" xmlns:xlink="http://www.w3.org/1999/xlink" x="0px" y="0px"
	 viewBox="0 0 430.08 430.08" style="enable-background:new 0 0 430.08 430.08;" xml:space="preserve">
<g>
	<g>
		<path d="M368.64,23.893H61.44c-3.773,0-6.827,3.053-6.827,6.827v193.819c0,32.408,26.359,58.767,58.767,58.767h203.319
			c32.408,0,58.767-26.359,58.767-58.767V30.72C375.467,26.947,372.413,23.893,368.64,23.893z M361.813,224.539
			c0,24.875-20.239,45.114-45.112,45.114h-203.32c-24.875,0-45.114-20.239-45.114-45.114V37.547h293.547V224.539z"/>
	</g>
</g>
<g>
	<g>
		<path d="M423.253,30.72H368.64c-3.773,0-6.827,3.053-6.827,6.827v40.96c0,2.239,1.101,4.333,2.941,5.613
			c1.152,0.8,2.512,1.213,3.886,1.213c0.807,0,1.62-0.14,2.4-0.433l54.613-20.48c2.661-1,4.427-3.546,4.427-6.393v-20.48
			C430.08,33.773,427.027,30.72,423.253,30.72z M416.427,53.294l-40.96,15.36V44.373h40.96V53.294z"/>
	</g>
</g>
<g>
	<g>
		<path d="M61.44,30.72H6.827C3.053,30.72,0,33.773,0,37.547v20.48c0,2.847,1.766,5.393,4.427,6.393L59.04,84.9
			c0.78,0.294,1.592,0.433,2.4,0.433c1.374,0,2.734-0.413,3.886-1.213c1.84-1.28,2.941-3.374,2.941-5.613v-40.96
			C68.267,33.773,65.213,30.72,61.44,30.72z M54.613,68.654l-40.96-15.36v-8.921h40.96V68.654z"/>
	</g>
</g>
<g>
	<g>
		<path d="M122.88,242.347c-18.819,0-34.133-15.314-34.133-34.133V112.64c0-3.773-3.053-6.827-6.827-6.827s-6.827,3.053-6.827,6.827
			v95.573c0,26.348,21.439,47.787,47.787,47.787c3.773,0,6.827-3.053,6.827-6.827S126.653,242.347,122.88,242.347z"/>
	</g>
</g>
<g>
	<g>
		<path d="M307.2,372.053H122.88c-3.773,0-6.827,3.053-6.827,6.827v20.48c0,3.773,3.053,6.827,6.827,6.827H307.2
			c3.773,0,6.827-3.053,6.827-6.827v-20.48C314.027,375.107,310.973,372.053,307.2,372.053z M300.373,392.533H129.707v-6.827
			h170.667V392.533z"/>
	</g>
</g>
<g>
	<g>
		<path d="M327.68,392.533H102.4c-3.773,0-6.827,3.053-6.827,6.827s3.053,6.827,6.827,6.827h225.28c3.773,0,6.827-3.053,6.827-6.827
			S331.453,392.533,327.68,392.533z"/>
	</g>
</g>
<g>
	<g>
		<path d="M150.187,303.787c-18.84,0-27.307,37.987-27.307,47.787c0,15.06,12.247,27.307,27.307,27.307s27.307-12.247,27.307-27.307
			C177.493,341.774,169.027,303.787,150.187,303.787z M150.187,365.227c-7.526,0-13.653-6.127-13.653-13.653
			c0-11.334,8.825-33.34,13.619-34.133c4.861,0.794,13.687,22.799,13.687,34.133C163.84,359.1,157.713,365.227,150.187,365.227z"/>
	</g>
</g>
<g>
	<g>
		<path d="M279.893,303.787c-18.84,0-27.307,37.987-27.307,47.787c0,15.06,12.247,27.307,27.307,27.307s27.307-12.247,27.307-27.307
			C307.2,341.774,298.733,303.787,279.893,303.787z M279.893,365.227c-7.526,0-13.653-6.127-13.653-13.653
			c0-11.334,8.825-33.34,13.619-34.133c4.861,0.794,13.687,22.799,13.687,34.133C293.547,359.1,287.42,365.227,279.893,365.227z"/>
	</g>
</g>
<g>
	<g>
		<path d="M215.04,290.133c-19.826,0-30.72,42.726-30.72,56.887c0,17.567,13.78,31.86,30.72,31.86s30.72-14.293,30.72-31.86
			C245.76,332.86,234.866,290.133,215.04,290.133z M215.04,365.227c-9.414,0-17.067-8.166-17.067-18.207
			c0-16.094,11.633-43.233,17.067-43.233s17.067,27.139,17.067,43.233C232.107,357.06,224.454,365.227,215.04,365.227z"/>
	</g>
</g>
<g>
</g>
<g>
</g>
<g>
</g>
<g>
</g>
<g>
</g>
<g>
</g>
<g>
</g>
<g>
</g>
<g>
</g>
<g>
</g>
<g>
</g>
<g>
</g>
<g>
</g>
<g>
</g>
<g>
</g>
</svg>
