<?xml version="1.0" encoding="iso-8859-1"?>
<!-- Generator: Adobe Illustrator 19.0.0, SVG Export Plug-In . SVG Version: 6.00 Build 0)  -->
<svg version="1.1" id="Capa_1" xmlns="http://www.w3.org/2000/svg" xmlns:xlink="http://www.w3.org/1999/xlink" x="0px" y="0px"
	 viewBox="0 0 423.253 423.253" style="enable-background:new 0 0 423.253 423.253;" xml:space="preserve">
<g>
	<g>
		<path d="M348.16,157.013H68.267c-3.773,0-6.827,3.057-6.827,6.827v211.627c0,3.77,3.053,6.827,6.827,6.827H348.16
			c3.773,0,6.827-3.057,6.827-6.827V163.84C354.987,160.07,351.933,157.013,348.16,157.013z M341.333,368.64H75.093V170.667h266.24
			V368.64z"/>
	</g>
</g>
<g>
	<g>
		<path d="M320.596,250.709l-13.653-47.787c-0.841-2.929-3.521-4.949-6.567-4.949h-184.32c-3.048,0-5.728,2.019-6.567,4.949
			l-13.653,47.787c-0.587,2.06-0.174,4.277,1.113,5.987c1.292,1.71,3.313,2.717,5.453,2.717h211.627c2.14,0,4.161-1.007,5.456-2.717
			C320.77,254.986,321.183,252.769,320.596,250.709z M111.454,245.76l9.747-34.133h174.027l9.747,34.133H111.454z"/>
	</g>
</g>
<g>
	<g>
		<path d="M416.427,368.64H6.827c-3.773,0-6.827,3.057-6.827,6.827v27.307c0,3.77,3.053,6.827,6.827,6.827h409.6
			c3.773,0,6.827-3.057,6.827-6.827v-27.307C423.253,371.697,420.2,368.64,416.427,368.64z M409.6,395.947H13.653v-13.653H409.6
			V395.947z"/>
	</g>
</g>
<g>
	<g>
		<path d="M300.373,245.76h-184.32c-3.773,0-6.827,3.057-6.827,6.827v81.92c0,3.77,3.053,6.827,6.827,6.827h184.32
			c3.773,0,6.827-3.057,6.827-6.827v-81.92C307.2,248.817,304.147,245.76,300.373,245.76z M293.547,327.68H122.88v-68.267h170.667
			V327.68z"/>
	</g>
</g>
<g>
	<g>
		<path d="M116.053,116.053c-3.773,0-6.827,3.057-6.827,6.827v40.96c0,3.77,3.053,6.827,6.827,6.827s6.827-3.057,6.827-6.827v-40.96
			C122.88,119.11,119.827,116.053,116.053,116.053z"/>
	</g>
</g>
<g>
	<g>
		<path d="M300.373,116.053c-3.773,0-6.827,3.057-6.827,6.827v40.96c0,3.77,3.053,6.827,6.827,6.827s6.827-3.057,6.827-6.827v-40.96
			C307.2,119.11,304.147,116.053,300.373,116.053z"/>
	</g>
</g>
<g>
	<g>
		<path d="M375.467,13.653H40.96c-3.773,0-6.827,3.057-6.827,6.827v95.573c0,3.77,3.053,6.827,6.827,6.827h334.507
			c3.773,0,6.827-3.057,6.827-6.827V20.48C382.293,16.71,379.24,13.653,375.467,13.653z M368.64,109.227H47.787v-81.92H368.64
			V109.227z"/>
	</g>
</g>
<g>
	<g>
		<path d="M153.399,41.421c-0.56-0.787-1.282-1.381-2.161-1.78c-0.879-0.399-1.867-0.652-2.959-0.759
			c-1.092-0.108-2.173-0.16-3.239-0.16v-0.002H129.44c-1.519,0-2.691,0.268-3.519,0.8c-0.828,0.533-1.427,1.232-1.801,2.099
			c-0.374,0.867-0.594,1.847-0.66,2.941c-0.067,1.094-0.101,2.214-0.101,3.36v37.6c0,1.172,0.034,2.306,0.101,3.4
			c0.067,1.094,0.287,2.074,0.66,2.941s0.975,1.56,1.801,2.08c0.826,0.521,1.998,0.78,3.519,0.78c1.493,0,2.654-0.259,3.48-0.78
			c0.826-0.521,1.434-1.213,1.819-2.08c0.386-0.867,0.613-1.848,0.679-2.941c0.067-1.092,0.101-2.225,0.101-3.4V72.8h5.04
			c1.067,0,2.147-0.041,3.239-0.119c1.092-0.079,2.079-0.306,2.959-0.679c0.881-0.374,1.601-0.959,2.161-1.76
			c0.56-0.8,0.84-1.92,0.84-3.36s-0.287-2.56-0.86-3.36c-0.573-0.799-1.3-1.388-2.179-1.76c-0.879-0.372-1.865-0.599-2.959-0.679
			c-1.094-0.08-2.161-0.12-3.2-0.12h-5.04v-10.4h9.52c1.067,0,2.147-0.055,3.239-0.16c1.092-0.106,2.079-0.36,2.959-0.759
			c0.881-0.399,1.601-0.993,2.161-1.78c0.56-0.787,0.84-1.86,0.84-3.22C154.238,43.281,153.958,42.208,153.399,41.421z"/>
	</g>
</g>
<g>
	<g>
		<path d="M195.224,48.02c-0.734-1.801-1.666-3.301-2.801-4.5c-1.135-1.2-2.401-2.14-3.801-2.819
			c-1.399-0.679-2.753-1.193-4.06-1.539c-1.307-0.346-2.493-0.56-3.56-0.64c-1.067-0.08-1.853-0.12-2.36-0.12h-1.36
			c-0.507,0-1.294,0.039-2.36,0.12c-1.067,0.08-2.26,0.294-3.581,0.64c-1.321,0.346-2.681,0.86-4.081,1.539s-2.679,1.62-3.84,2.819
			c-1.161,1.2-2.115,2.7-2.86,4.5s-1.12,3.98-1.12,6.54v23.921c0,2.64,0.372,4.881,1.12,6.721c0.748,1.84,1.7,3.372,2.86,4.599
			c1.161,1.227,2.439,2.193,3.84,2.9c1.401,0.707,2.76,1.234,4.081,1.58c1.321,0.346,2.514,0.56,3.581,0.64
			c1.067,0.08,1.853,0.119,2.36,0.119h1.36c0.507,0,1.294-0.039,2.36-0.119s2.253-0.294,3.56-0.64
			c1.307-0.346,2.659-0.874,4.06-1.58c1.401-0.707,2.668-1.674,3.801-2.9s2.067-2.758,2.801-4.599s1.101-4.081,1.101-6.721V54.56
			C196.325,52,195.958,49.821,195.224,48.02z M183.199,80c-0.078,0.986-0.306,1.852-0.679,2.599
			c-0.346,0.667-0.867,1.266-1.56,1.801c-0.693,0.534-1.679,0.8-2.959,0.8c-1.307,0-2.314-0.266-3.021-0.8
			c-0.707-0.534-1.234-1.133-1.58-1.801C173,81.853,172.773,80.986,172.72,80V53.92c0.053-0.959,0.28-1.826,0.679-2.599
			c0.346-0.64,0.872-1.234,1.58-1.78c0.708-0.546,1.714-0.819,3.021-0.819c1.28,0,2.266,0.273,2.959,0.819
			c0.693,0.546,1.213,1.14,1.56,1.78c0.372,0.773,0.599,1.64,0.679,2.599V80z"/>
	</g>
</g>
<g>
	<g>
		<path d="M240.343,48.02c-0.734-1.801-1.666-3.301-2.801-4.5c-1.135-1.2-2.401-2.14-3.801-2.819
			c-1.399-0.679-2.753-1.193-4.06-1.539c-1.307-0.346-2.493-0.56-3.56-0.64c-1.067-0.08-1.853-0.12-2.36-0.12h-1.36
			c-0.507,0-1.294,0.039-2.36,0.12c-1.067,0.08-2.26,0.294-3.581,0.64c-1.321,0.346-2.681,0.86-4.081,1.539s-2.679,1.62-3.84,2.819
			c-1.161,1.2-2.115,2.7-2.86,4.5c-0.746,1.801-1.12,3.98-1.12,6.54v23.921c0,2.64,0.372,4.881,1.12,6.721s1.7,3.372,2.86,4.599
			c1.161,1.227,2.439,2.193,3.84,2.9c1.401,0.707,2.76,1.234,4.081,1.58c1.321,0.346,2.514,0.56,3.581,0.64s1.853,0.119,2.36,0.119
			h1.36c0.507,0,1.294-0.039,2.36-0.119c1.067-0.08,2.253-0.294,3.56-0.64c1.307-0.346,2.659-0.874,4.06-1.58s2.668-1.674,3.801-2.9
			c1.133-1.225,2.067-2.758,2.801-4.599s1.101-4.081,1.101-6.721V54.56C241.444,52,241.077,49.821,240.343,48.02z M228.32,80
			c-0.078,0.986-0.305,1.852-0.679,2.599c-0.346,0.667-0.867,1.266-1.56,1.801c-0.693,0.534-1.679,0.8-2.959,0.8
			c-1.307,0-2.314-0.266-3.021-0.8c-0.707-0.534-1.234-1.133-1.58-1.801c-0.399-0.746-0.626-1.613-0.679-2.599V53.92
			c0.053-0.959,0.28-1.826,0.679-2.599c0.346-0.64,0.872-1.234,1.58-1.78c0.708-0.546,1.714-0.819,3.021-0.819
			c1.28,0,2.266,0.273,2.959,0.819c0.693,0.546,1.213,1.14,1.56,1.78c0.372,0.773,0.599,1.64,0.679,2.599V80z"/>
	</g>
</g>
<g>
	<g>
		<path d="M284.5,46.92c-0.893-1.813-2.12-3.328-3.68-4.54c-1.56-1.212-3.386-2.127-5.48-2.739c-2.094-0.613-4.354-0.92-6.781-0.92
			v-0.002h-11.599c-1.519,0-2.691,0.259-3.519,0.78c-0.828,0.521-1.427,1.207-1.801,2.06c-0.374,0.853-0.594,1.826-0.66,2.92
			c-0.067,1.094-0.101,2.214-0.101,3.36v37.68c0,1.174,0.034,2.306,0.101,3.4c0.067,1.094,0.287,2.074,0.66,2.941
			c0.374,0.867,0.974,1.56,1.801,2.08c0.826,0.521,1.998,0.78,3.519,0.78h13.28c2.906-0.16,5.506-0.853,7.799-2.08
			c0.959-0.507,1.906-1.167,2.84-1.98c0.934-0.812,1.766-1.799,2.5-2.959c0.734-1.161,1.328-2.533,1.78-4.12s0.679-3.42,0.679-5.501
			v-24.8C285.839,50.854,285.392,48.732,284.5,46.92z M274.4,78.8c0,0.8-0.087,1.505-0.259,2.12s-0.406,1.14-0.7,1.58
			c-0.294,0.44-0.628,0.821-1,1.14c-0.372,0.319-0.746,0.573-1.12,0.759c-0.908,0.48-1.934,0.747-3.081,0.8h-5.2V48.08h5.2
			c1.147,0.08,2.174,0.374,3.081,0.881c0.372,0.213,0.746,0.493,1.12,0.84c0.374,0.346,0.707,0.773,1,1.28
			c0.294,0.507,0.527,1.101,0.7,1.78s0.259,1.459,0.259,2.34V78.8z"/>
	</g>
</g>
<g>
	<g>
		<path d="M161.84,268.24c-2.666-2.666-6.987-2.666-9.653,0l-23.893,23.893c-2.666,2.666-2.666,6.987,0,9.653
			c1.333,1.333,3.081,2,4.826,2s3.494-0.667,4.826-2l23.893-23.893C164.506,275.227,164.506,270.906,161.84,268.24z"/>
	</g>
</g>
<g>
</g>
<g>
</g>
<g>
</g>
<g>
</g>
<g>
</g>
<g>
</g>
<g>
</g>
<g>
</g>
<g>
</g>
<g>
</g>
<g>
</g>
<g>
</g>
<g>
</g>
<g>
</g>
<g>
</g>
</svg>
