<?xml version="1.0" encoding="iso-8859-1"?>
<!-- Generator: Adobe Illustrator 19.0.0, SVG Export Plug-In . SVG Version: 6.00 Build 0)  -->
<svg version="1.1" id="Capa_1" xmlns="http://www.w3.org/2000/svg" xmlns:xlink="http://www.w3.org/1999/xlink" x="0px" y="0px"
	 viewBox="0 0 395.947 395.947" style="enable-background:new 0 0 395.947 395.947;" xml:space="preserve">
<g>
	<g>
		<path d="M389.12,17.067H6.827C3.053,17.067,0,20.12,0,23.893v286.72c0,3.773,3.053,6.827,6.827,6.827H158.56l33.5,58.027
			c1.22,2.113,3.473,3.413,5.914,3.413c2.441,0,4.693-1.3,5.914-3.413l33.5-58.027H389.12c3.773,0,6.827-3.053,6.827-6.827V23.893
			C395.947,20.12,392.893,17.067,389.12,17.067z M382.293,303.787H233.446c-2.441,0-4.693,1.3-5.914,3.413l-29.56,51.2l-29.559-51.2
			c-1.22-2.113-3.473-3.413-5.914-3.413H13.653V30.72h368.64V303.787z"/>
	</g>
</g>
<g>
	<g>
		<path d="M284.72,121.467c-14.766-14.766-45.607-30.807-70.054-14.507c-18.239,12.16-36.746,12.5-37.187,12.506h-6.813
			c-1.48,0-2.913,0.48-4.093,1.367c-11.607,8.706-26.588,18.473-30.041,19.113c-13.02,0-13.653,19.732-13.653,54.613
			c0,25.167,17.633,34.133,34.133,34.133c7.6,0,14.513-3.106,21.827-6.393c7.939-3.574,16.147-7.26,25.96-7.26
			c6.448,0,12.901,0.713,19.727,1.473c14.153,1.567,28.786,3.2,43.873-1.826c13.546-4.512,19.806-23.132,22.327-33.833
			C295.793,159.394,295.359,132.106,284.72,121.467z M277.439,177.72c-3.046,12.899-8.286,22.327-13.36,24.02
			c-12.22,4.06-24.76,2.673-38.047,1.207c-6.893-0.766-14.025-1.56-21.233-1.56c-12.74,0-22.733,4.494-31.553,8.46
			c-6.207,2.787-11.561,5.193-16.234,5.193c-9.341,0-20.48-3.553-20.48-20.48c0-11.554,0-34.886,2.56-41.306
			c8.006-1.927,22.193-11.5,33.84-20.134h4.56c0.92,0,22.799-0.167,44.745-14.8c17.507-11.653,41.687,1.667,52.826,12.8
			C280.173,136.228,282.272,157.24,277.439,177.72z"/>
	</g>
</g>
<g>
	<g>
		<path d="M245.76,126.293c-15.06,0-27.307,12.247-27.307,27.307s12.247,27.307,27.307,27.307s27.307-12.247,27.307-27.307
			C273.067,138.54,260.82,126.293,245.76,126.293z M245.76,167.253c-7.526,0-13.653-6.127-13.653-13.653
			c0-7.526,6.127-13.653,13.653-13.653s13.653,6.127,13.653,13.653C259.413,161.126,253.286,167.253,245.76,167.253z"/>
	</g>
</g>
<g>
</g>
<g>
</g>
<g>
</g>
<g>
</g>
<g>
</g>
<g>
</g>
<g>
</g>
<g>
</g>
<g>
</g>
<g>
</g>
<g>
</g>
<g>
</g>
<g>
</g>
<g>
</g>
<g>
</g>
</svg>
