<?xml version="1.0" encoding="iso-8859-1"?>
<!-- Generator: Adobe Illustrator 19.0.0, SVG Export Plug-In . SVG Version: 6.00 Build 0)  -->
<svg version="1.1" id="Capa_1" xmlns="http://www.w3.org/2000/svg" xmlns:xlink="http://www.w3.org/1999/xlink" x="0px" y="0px"
	 viewBox="0 0 427.589 427.589" style="enable-background:new 0 0 427.589 427.589;" xml:space="preserve">
<g>
	<g>
		<path d="M406.907,213.799l20.379-66.26c0.841-2.739-0.113-5.705-2.393-7.439c-2.287-1.741-5.4-1.867-7.813-0.321l-86.166,55.113
			c-1.766,1.133-2.92,3.019-3.113,5.113c-0.201,2.092,0.579,4.159,2.106,5.606l8.774,8.281l-8.554,8.387
			c-1.487,1.454-2.227,3.507-2.014,5.581c0.22,2.067,1.36,3.927,3.113,5.047l85.854,54.914c1.126,0.72,2.406,1.073,3.68,1.073
			c1.461,0,2.913-0.466,4.133-1.396c2.28-1.732,3.232-4.7,2.393-7.439L406.907,213.799z M345.814,226.028l7.496-7.352
			c1.326-1.301,2.067-3.081,2.046-4.941c-0.02-1.853-0.794-3.62-2.14-4.9l-7.574-7.148l63.126-40.38l-15.527,50.487
			c-0.399,1.307-0.399,2.707,0,4.014l15.527,50.487L345.814,226.028z"/>
	</g>
</g>
<g>
	<g>
		<path d="M122.428,102.332c-1.821-2.48-5.047-3.447-7.907-2.347C62.801,119.439,21.24,159.993,0.501,211.239
			c-0.667,1.64-0.667,3.48,0,5.12c20.734,51.241,62.293,91.788,114.021,111.254c0.787,0.3,1.599,0.44,2.406,0.44
			c2.127,0,4.186-0.993,5.501-2.789c22.308-30.365,34.587-69.953,34.587-111.466C157.015,172.278,144.734,132.692,122.428,102.332z
			 M114.441,312.921c-45.041-18.446-81.268-54.233-100.227-99.12c18.966-44.894,55.194-80.686,100.227-99.12
			c18.679,27.447,28.919,62.42,28.919,99.12C143.36,250.494,133.127,285.467,114.441,312.921z"/>
	</g>
</g>
<g>
	<g>
		<path d="M184.114,223.355c-3.633-0.961-7.386,1.179-8.366,4.82l-18.5,68.76c-0.98,3.639,1.179,7.386,4.82,8.366
			c0.594,0.16,1.193,0.234,1.78,0.234c3.007,0,5.767-2.007,6.586-5.053l18.5-68.76C189.913,228.083,187.754,224.335,184.114,223.355
			z"/>
	</g>
</g>
<g>
	<g>
		<path d="M190.628,197.048l-20.2-73.793c-1-3.64-4.774-5.746-8.387-4.787c-3.64,1-5.781,4.753-4.787,8.387l20.2,73.793
			c0.833,3.033,3.579,5.026,6.579,5.026c0.601,0,1.207-0.08,1.807-0.239C189.481,204.435,191.622,200.682,190.628,197.048z"/>
	</g>
</g>
<g>
	<g>
		<path d="M268.254,223.355c-3.633-0.961-7.386,1.179-8.366,4.82l-18.5,68.76c-0.98,3.639,1.179,7.386,4.82,8.366
			c0.594,0.16,1.193,0.234,1.78,0.234c3.005,0,5.767-2.007,6.586-5.053l18.5-68.76C274.054,228.083,271.895,224.335,268.254,223.355
			z"/>
	</g>
</g>
<g>
	<g>
		<path d="M275.122,198.342l-20.553-75.086c-1-3.64-4.774-5.746-8.387-4.787c-3.64,1-5.781,4.753-4.787,8.387l20.553,75.086
			c0.833,3.033,3.579,5.026,6.579,5.026c0.599,0,1.207-0.08,1.807-0.239C273.975,205.729,276.115,201.976,275.122,198.342z"/>
	</g>
</g>
<g>
	<g>
		<path d="M309.214,223.355c-3.62-0.961-7.38,1.179-8.366,4.82l-18.5,68.76c-0.98,3.639,1.179,7.386,4.82,8.366
			c0.594,0.16,1.193,0.234,1.78,0.234c3.005,0,5.767-2.007,6.586-5.053l18.5-68.76C315.014,228.083,312.855,224.335,309.214,223.355
			z"/>
	</g>
</g>
<g>
	<g>
		<path d="M316.082,198.342l-20.553-75.086c-1-3.64-4.774-5.746-8.387-4.787c-3.64,1-5.78,4.753-4.787,8.387l20.553,75.086
			c0.833,3.033,3.579,5.026,6.579,5.026c0.599,0,1.207-0.08,1.807-0.239C314.935,205.729,317.075,201.976,316.082,198.342z"/>
	</g>
</g>
<g>
	<g>
		<path d="M227.294,223.355c-3.627-0.961-7.386,1.179-8.366,4.82l-18.5,68.76c-0.98,3.639,1.179,7.386,4.82,8.366
			c0.594,0.16,1.193,0.234,1.78,0.234c3.005,0,5.767-2.007,6.586-5.053l18.5-68.76C233.094,228.083,230.935,224.335,227.294,223.355
			z"/>
	</g>
</g>
<g>
	<g>
		<path d="M234.162,198.342l-20.553-75.086c-1-3.64-4.773-5.746-8.387-4.787c-3.64,1-5.78,4.753-4.787,8.387l20.553,75.086
			c0.833,3.033,3.579,5.026,6.579,5.026c0.599,0,1.207-0.08,1.807-0.239C233.015,205.729,235.155,201.976,234.162,198.342z"/>
	</g>
</g>
<g>
	<g>
		<path d="M334.248,196.374h-184.32c-3.773,0-6.827,3.053-6.827,6.827s3.053,6.827,6.827,6.827h184.32
			c3.773,0,6.827-3.053,6.827-6.827S338.021,196.374,334.248,196.374z"/>
	</g>
</g>
<g>
	<g>
		<path d="M334.248,216.854h-184.32c-3.773,0-6.827,3.053-6.827,6.827s3.053,6.827,6.827,6.827h184.32
			c3.773,0,6.827-3.053,6.827-6.827S338.021,216.854,334.248,216.854z"/>
	</g>
</g>
<g>
	<g>
		<circle cx="68.267" cy="179.663" r="13.653"/>
	</g>
</g>
<g>
</g>
<g>
</g>
<g>
</g>
<g>
</g>
<g>
</g>
<g>
</g>
<g>
</g>
<g>
</g>
<g>
</g>
<g>
</g>
<g>
</g>
<g>
</g>
<g>
</g>
<g>
</g>
<g>
</g>
</svg>
