<?xml version="1.0" encoding="iso-8859-1"?>
<!-- Generator: Adobe Illustrator 19.0.0, SVG Export Plug-In . SVG Version: 6.00 Build 0)  -->
<svg version="1.1" id="Capa_1" xmlns="http://www.w3.org/2000/svg" xmlns:xlink="http://www.w3.org/1999/xlink" x="0px" y="0px"
	 viewBox="0 0 427.586 427.586" style="enable-background:new 0 0 427.586 427.586;" xml:space="preserve">
<g>
	<g>
		<path d="M267.027,69.485c-2.186-1.193-4.854-1.099-6.96,0.234l-58.447,37.379c-3.174,2.033-4.101,6.253-2.074,9.433
			c2.039,3.174,6.26,4.101,9.433,2.074l47.94-30.667v40.653c0,3.773,3.053,6.827,6.827,6.827s6.827-3.053,6.827-6.825v-53.12
			C270.574,72.979,269.214,70.678,267.027,69.485z"/>
	</g>
</g>
<g>
	<g>
		<path d="M406.315,232.484l20.953-66.207c0.867-2.741-0.073-5.728-2.354-7.48c-2.28-1.746-5.414-1.879-7.834-0.333l-68.267,43.66
			c-3.174,2.033-4.101,6.253-2.074,9.433c2.039,3.174,6.253,4.101,9.433,2.074l52.393-33.514l-15.92,50.307
			c-0.427,1.34-0.427,2.78,0,4.12l15.92,50.307l-51.459-32.92c-3.18-2.026-7.4-1.099-9.433,2.074
			c-2.026,3.179-1.099,7.4,2.074,9.433l67.333,43.066c1.126,0.72,2.406,1.073,3.68,1.073c1.466,0,2.934-0.474,4.154-1.406
			c2.28-1.754,3.22-4.741,2.354-7.48L406.315,232.484z"/>
	</g>
</g>
<g>
	<g>
		<path d="M368.14,229.922c-30.467-75.267-102.62-123.901-183.82-123.901S30.968,154.654,0.5,229.922c-0.667,1.64-0.667,3.48,0,5.12
			c30.461,75.261,102.613,123.894,183.82,123.894s153.359-48.633,183.82-123.894C368.808,233.402,368.808,231.562,368.14,229.922z
			 M184.32,345.284c-74.687,0-141.153-44.18-170.107-112.8c28.954-68.627,95.42-112.807,170.107-112.807
			s141.153,44.18,170.107,112.807C325.474,301.104,259.008,345.284,184.32,345.284z"/>
	</g>
</g>
<g>
	<g>
		<circle cx="68.267" cy="198.347" r="13.653"/>
	</g>
</g>
<g>
	<g>
		<path d="M224.78,220.441c-0.672-2.466-2.673-4.347-5.173-4.879l-58.027-12.273c-2-0.432-4.113,0.073-5.714,1.381
			c-1.599,1.292-2.526,3.239-2.526,5.299v65.5c0,2.707,1.601,5.159,4.081,6.246c0.879,0.394,1.819,0.58,2.746,0.58
			c1.673,0,3.333-0.62,4.613-1.794l58.027-53.227C224.693,225.541,225.453,222.907,224.78,220.441z M166.994,259.944V218.39
			l36.813,7.787L166.994,259.944z"/>
	</g>
</g>
<g>
</g>
<g>
</g>
<g>
</g>
<g>
</g>
<g>
</g>
<g>
</g>
<g>
</g>
<g>
</g>
<g>
</g>
<g>
</g>
<g>
</g>
<g>
</g>
<g>
</g>
<g>
</g>
<g>
</g>
</svg>
