<?xml version="1.0" encoding="iso-8859-1"?>
<!-- Generator: Adobe Illustrator 19.0.0, SVG Export Plug-In . SVG Version: 6.00 Build 0)  -->
<svg version="1.1" id="Capa_1" xmlns="http://www.w3.org/2000/svg" xmlns:xlink="http://www.w3.org/1999/xlink" x="0px" y="0px"
	 viewBox="0 0 402.774 402.774" style="enable-background:new 0 0 402.774 402.774;" xml:space="preserve">
<g>
	<g>
		<path d="M169.174,64.002c-5.76-7.2-7.9-14.199-6.54-21.4c3.232-17.096,24.866-29.73,25.079-29.856
			c3.267-1.877,4.4-6.047,2.526-9.313c-1.886-3.277-6.054-4.396-9.306-2.533c-1.113,0.633-27.261,15.817-31.706,39.107
			c-2.133,11.211,0.988,22.154,9.281,32.524c24.593,30.739,19.413,54.572,19.193,55.52c-0.92,3.661,1.306,7.368,4.966,8.281
			c0.555,0.14,1.115,0.203,1.661,0.203c3.06,0,5.84-2.07,6.613-5.171C191.255,130.112,198.254,100.356,169.174,64.002z"/>
	</g>
</g>
<g>
	<g>
		<path d="M223.787,64.002c-5.76-7.2-7.9-14.199-6.54-21.4c3.232-17.096,24.866-29.73,25.079-29.856
			c3.267-1.877,4.4-6.047,2.526-9.313c-1.879-3.277-6.06-4.396-9.306-2.533c-1.113,0.633-27.261,15.817-31.706,39.107
			c-2.133,11.211,0.988,22.154,9.281,32.524c24.593,30.739,19.413,54.572,19.193,55.52c-0.92,3.661,1.306,7.368,4.966,8.281
			c0.555,0.14,1.114,0.203,1.661,0.203c3.06,0,5.84-2.07,6.613-5.171C245.868,130.112,252.867,100.356,223.787,64.002z"/>
	</g>
</g>
<g>
	<g>
		<path d="M307.2,150.187H95.574c-3.773,0-6.827,3.057-6.827,6.827v133.12c0,62.111,50.533,112.64,112.64,112.64
			s112.64-50.529,112.64-112.64v-133.12C314.027,153.244,310.974,150.187,307.2,150.187z M300.374,290.134
			c0,54.579-44.407,98.987-98.987,98.987c-54.579,0-98.987-44.407-98.987-98.987V163.841h197.973V290.134z"/>
	</g>
</g>
<g>
	<g>
		<path d="M334.507,150.187H68.267c-3.773,0-6.827,3.057-6.827,6.827s3.053,6.827,6.827,6.827h266.24
			c3.773,0,6.827-3.057,6.827-6.827S338.28,150.187,334.507,150.187z"/>
	</g>
</g>
<g>
	<g>
		<path d="M375.467,197.974H307.2c-3.773,0-6.827,3.057-6.827,6.827v27.307c0,3.77,3.053,6.827,6.827,6.827h68.267
			c11.293,0,20.48-9.187,20.48-20.48C395.947,207.161,386.76,197.974,375.467,197.974z M375.467,225.281h-61.44v-13.653h61.44
			c3.767,0,6.827,3.063,6.827,6.827C382.294,222.217,379.234,225.281,375.467,225.281z"/>
	</g>
</g>
<g>
	<g>
		<path d="M95.574,197.974H27.307c-11.293,0-20.48,9.187-20.48,20.48c0,11.293,9.187,20.48,20.48,20.48h68.267
			c3.773,0,6.827-3.057,6.827-6.827v-27.307C102.4,201.031,99.347,197.974,95.574,197.974z M88.747,225.281h-61.44
			c-3.767,0-6.827-3.063-6.827-6.827c0-3.763,3.06-6.827,6.827-6.827h61.44V225.281z"/>
	</g>
</g>
<g>
</g>
<g>
</g>
<g>
</g>
<g>
</g>
<g>
</g>
<g>
</g>
<g>
</g>
<g>
</g>
<g>
</g>
<g>
</g>
<g>
</g>
<g>
</g>
<g>
</g>
<g>
</g>
<g>
</g>
</svg>
