<?xml version="1.0" encoding="iso-8859-1"?>
<!-- Generator: Adobe Illustrator 19.0.0, SVG Export Plug-In . SVG Version: 6.00 Build 0)  -->
<svg version="1.1" id="Capa_1" xmlns="http://www.w3.org/2000/svg" xmlns:xlink="http://www.w3.org/1999/xlink" x="0px" y="0px"
	 viewBox="0 0 395.947 395.947" style="enable-background:new 0 0 395.947 395.947;" xml:space="preserve">
<g>
	<g>
		<path d="M361.813,341.333H34.133c-3.773,0-6.827,3.053-6.827,6.827v40.96c0,3.773,3.053,6.827,6.827,6.827h327.68
			c3.773,0,6.827-3.053,6.827-6.827v-40.96C368.64,344.387,365.587,341.333,361.813,341.333z M354.987,382.293H40.96v-27.307
			h314.027V382.293z"/>
	</g>
</g>
<g>
	<g>
		<path d="M361.813,27.307H34.133c-3.773,0-6.827,3.053-6.827,6.827v40.96c0,3.773,3.053,6.827,6.827,6.827h327.68
			c3.773,0,6.827-3.053,6.827-6.827v-40.96C368.64,30.36,365.587,27.307,361.813,27.307z M354.987,68.267H40.96V40.96h314.027
			V68.267z"/>
	</g>
</g>
<g>
	<g>
		<path d="M307.2,0H88.747c-3.773,0-6.827,3.053-6.827,6.827v27.307c0,3.773,3.053,6.827,6.827,6.827H307.2
			c3.773,0,6.827-3.053,6.827-6.827V6.827C314.027,3.053,310.973,0,307.2,0z M300.373,27.307h-204.8V13.653h204.8V27.307z"/>
	</g>
</g>
<g>
	<g>
		<path d="M334.507,68.267H61.44c-3.773,0-6.827,3.053-6.827,6.827V348.16c0,3.773,3.053,6.827,6.827,6.827h273.067
			c3.773,0,6.827-3.053,6.827-6.827V75.093C341.333,71.32,338.28,68.267,334.507,68.267z M327.68,341.333H68.267V81.92H327.68
			V341.333z"/>
	</g>
</g>
<g>
	<g>
		<path d="M252.587,68.267H143.36c-3.773,0-6.827,3.053-6.827,6.827V102.4c0,3.773,3.053,6.827,6.827,6.827h109.227
			c3.773,0,6.827-3.053,6.827-6.827V75.093C259.413,71.32,256.36,68.267,252.587,68.267z M245.76,95.573h-95.573V81.92h95.573
			V95.573z"/>
	</g>
</g>
<g>
	<g>
		<path d="M232.107,95.573H163.84c-3.773,0-6.827,3.053-6.827,6.827v27.307c0,3.773,3.053,6.827,6.827,6.827h68.267
			c3.773,0,6.827-3.053,6.827-6.827V102.4C238.933,98.627,235.88,95.573,232.107,95.573z M225.28,122.88h-54.613v-13.653h54.613
			V122.88z"/>
	</g>
</g>
<g>
	<g>
		<path d="M211.627,122.88H184.32c-3.773,0-6.827,3.053-6.827,6.827v27.307c0,3.773,3.053,6.827,6.827,6.827h27.307
			c3.773,0,6.827-3.053,6.827-6.827v-27.307C218.453,125.933,215.4,122.88,211.627,122.88z M204.8,150.187h-13.653v-13.653H204.8
			V150.187z"/>
	</g>
</g>
<g>
	<g>
		<path d="M252.587,266.24H143.36c-3.773,0-6.827,3.053-6.827,6.827v27.307c0,30.114,24.499,54.613,54.613,54.613H204.8
			c30.114,0,54.613-24.499,54.613-54.613v-27.307C259.413,269.293,256.36,266.24,252.587,266.24z M245.76,300.373
			c0,22.586-18.374,40.96-40.96,40.96h-13.653c-22.586,0-40.96-18.374-40.96-40.96v-20.48h95.573V300.373z"/>
	</g>
</g>
<g>
	<g>
		<path d="M279.893,266.24h-27.307c-3.773,0-6.827,3.053-6.827,6.827V307.2c0,3.773,3.053,6.827,6.827,6.827
			c18.819,0,34.133-15.314,34.133-34.133v-6.827C286.72,269.293,283.667,266.24,279.893,266.24z M259.413,299.206v-19.313h13.653
			C273.067,288.792,267.36,296.387,259.413,299.206z"/>
	</g>
</g>
<g>
</g>
<g>
</g>
<g>
</g>
<g>
</g>
<g>
</g>
<g>
</g>
<g>
</g>
<g>
</g>
<g>
</g>
<g>
</g>
<g>
</g>
<g>
</g>
<g>
</g>
<g>
</g>
<g>
</g>
</svg>
