<?xml version="1.0" encoding="iso-8859-1"?>
<!-- Generator: Adobe Illustrator 19.0.0, SVG Export Plug-In . SVG Version: 6.00 Build 0)  -->
<svg version="1.1" id="Capa_1" xmlns="http://www.w3.org/2000/svg" xmlns:xlink="http://www.w3.org/1999/xlink" x="0px" y="0px"
	 viewBox="0 0 423.253 423.253" style="enable-background:new 0 0 423.253 423.253;" xml:space="preserve">
<g>
	<g>
		<path d="M296.354,143.126l-14.66-49.493c-0.86-2.9-3.521-4.886-6.547-4.886H148.106c-3.028,0-5.687,1.987-6.547,4.886
			l-14.66,49.493c-0.186,0.633-0.28,1.287-0.28,1.94v240.64c0,1.021,0.227,2.021,0.667,2.941l14.66,30.72
			c1.133,2.372,3.526,3.886,6.159,3.886h127.041c2.633,0,5.026-1.514,6.159-3.886l14.66-30.72c0.44-0.92,0.667-1.92,0.667-2.941
			v-240.64C296.634,144.413,296.54,143.759,296.354,143.126z M282.981,384.16l-12.14,25.44H152.414l-12.14-25.44V146.053
			l12.933-43.653h116.838l12.935,43.653V384.16z"/>
	</g>
</g>
<g>
	<g>
		<path d="M289.807,293.547h-156.36c-3.773,0-6.827,3.053-6.827,6.827v54.613c0,3.773,3.053,6.827,6.827,6.827h156.36
			c3.773,0,6.827-3.053,6.827-6.827v-54.613C296.634,296.6,293.581,293.547,289.807,293.547z M282.979,348.16H140.273V307.2h142.706
			V348.16z"/>
	</g>
</g>
<g>
	<g>
		<path d="M273.067,88.747h-122.88c-3.773,0-6.827,3.053-6.827,6.827s3.053,6.827,6.827,6.827h122.88
			c3.773,0,6.827-3.053,6.827-6.827S276.84,88.747,273.067,88.747z"/>
	</g>
</g>
<g>
	<g>
		<path d="M238.58,201.6c-1.2-2.173-3.487-3.526-5.973-3.526h-28.993l30.114-44.034c2.126-3.115,1.333-7.361-1.78-9.487
			c-3.115-2.133-7.368-1.326-9.487,1.78l-37.42,54.714c-1.434,2.087-1.586,4.801-0.406,7.04c1.186,2.241,3.507,3.64,6.04,3.64
			h29.566l-27.834,44.213c-2.007,3.195-1.046,7.407,2.14,9.421c1.133,0.707,2.393,1.046,3.633,1.046
			c2.266,0,4.487-1.126,5.787-3.188l34.42-54.68C239.706,206.433,239.787,203.773,238.58,201.6z"/>
	</g>
</g>
<g>
	<g>
		<path d="M170.341,40.96c-9.414,0-17.067,7.653-17.067,17.067c0,9.414,7.653,17.067,17.067,17.067
			c9.412,0,17.067-7.653,17.067-17.067C187.407,48.613,179.755,40.96,170.341,40.96z M170.341,61.44
			c-1.881,0-3.413-1.533-3.413-3.413c0-1.881,1.533-3.413,3.413-3.413c1.879,0,3.413,1.533,3.413,3.413
			C173.754,59.907,172.221,61.44,170.341,61.44z"/>
	</g>
</g>
<g>
	<g>
		<path d="M211.301,0c-9.414,0-17.067,7.653-17.067,17.067c0,9.414,7.653,17.067,17.067,17.067c9.412,0,17.067-7.653,17.067-17.067
			C228.367,7.653,220.715,0,211.301,0z M211.301,20.48c-1.881,0-3.413-1.533-3.413-3.413s1.533-3.413,3.413-3.413
			c1.879,0,3.413,1.533,3.413,3.413S213.181,20.48,211.301,20.48z"/>
	</g>
</g>
<g>
	<g>
		<path d="M252.261,27.307c-9.414,0-17.067,7.653-17.067,17.067c0,9.414,7.653,17.067,17.067,17.067
			c9.412,0,17.067-7.653,17.067-17.067C269.327,34.959,261.675,27.307,252.261,27.307z M252.261,47.787
			c-1.881,0-3.413-1.533-3.413-3.413c0-1.881,1.533-3.413,3.413-3.413c1.879,0,3.413,1.533,3.413,3.413
			C255.674,46.254,254.141,47.787,252.261,47.787z"/>
	</g>
</g>
<g>
</g>
<g>
</g>
<g>
</g>
<g>
</g>
<g>
</g>
<g>
</g>
<g>
</g>
<g>
</g>
<g>
</g>
<g>
</g>
<g>
</g>
<g>
</g>
<g>
</g>
<g>
</g>
<g>
</g>
</svg>
