<?xml version="1.0" encoding="iso-8859-1"?>
<!-- Generator: Adobe Illustrator 19.0.0, SVG Export Plug-In . SVG Version: 6.00 Build 0)  -->
<svg version="1.1" id="Capa_1" xmlns="http://www.w3.org/2000/svg" xmlns:xlink="http://www.w3.org/1999/xlink" x="0px" y="0px"
	 viewBox="0 0 385.914 385.914" style="enable-background:new 0 0 385.914 385.914;" xml:space="preserve">
<g>
	<g>
		<path d="M368.285,37.03c-35.4-2.768-48.688,19.9-49.22,20.873c-1.847,3.285-0.674,7.446,2.62,9.286
			c1.053,0.594,2.2,0.874,3.326,0.874c2.393,0,4.714-1.26,5.961-3.492c0.092-0.16,9.219-16.039,36.246-13.926
			c3.767,0.333,7.047-2.514,7.34-6.274S372.044,37.323,368.285,37.03z"/>
	</g>
</g>
<g>
	<g>
		<path d="M324.538,159.186c-3.507-1.34-7.467,0.394-8.827,3.92c-25.4,65.934-75.201,143.98-104.001,172.78
			c-21.92,21.92-51.06,33.993-82.06,33.993s-60.146-12.073-82.067-33.993c-45.247-45.247-45.247-118.873,0-164.12
			c33.973-33.975,136.701-97.534,209-115.727c3.652-0.92,5.873-4.625,4.953-8.286c-0.92-3.652-4.625-5.852-8.286-4.953
			C176.131,62.206,72.577,127.466,37.93,162.113c-50.574,50.574-50.574,132.854,0,183.427c24.499,24.501,57.073,37.994,91.72,37.994
			c34.647,0,67.214-13.493,91.715-37.994c30.394-30.394,80.679-108.981,107.093-177.527
			C329.811,164.492,328.057,160.546,324.538,159.186z"/>
	</g>
</g>
<g>
	<g>
		<path d="M339.831,51.965c-4.78-9.82-24.428-45.92-56.393-49.326c-22.82-2.427-45.819,12.259-68.386,43.646
			c-1.514,2.106-1.707,4.886-0.493,7.173c1.207,2.294,3.494,3.68,6.2,3.64l59.453-1.473c-5.333,13.507-13.747,37.966-12.8,55.767
			c0.107,1.993,1.08,3.833,2.654,5.047c1.58,1.207,3.594,1.667,5.554,1.28c4.306-0.899,36.081-7.634,54.893-15.3
			c0.019,14.041-1.975,39.434-15.167,55.56c-3.78,4.62-4.581,8.774-2.374,12.334c0.98,1.587,3.173,3.874,7.653,3.874
			c1.092,0,2.313-0.14,3.693-0.457c14.38-3.285,57.813-30.286,61.353-63.679C388.079,87.325,372.657,67.785,339.831,51.965z
			 M371.691,111.283c-3.668,18.546-23.994,35.074-38.134,43.46c13.701-27.194,10.308-62.194,10.134-63.894
			c-0.254-2.434-1.78-4.54-4.014-5.533c-0.894-0.401-1.84-0.594-2.78-0.594c-1.42,0-2.833,0.445-4.017,1.307
			c-7.054,5.139-32.573,12.126-51.567,16.466c2.232-21.866,15.333-50.787,15.479-51.12c0.98-2.14,0.787-4.634-0.514-6.593
			c-1.287-1.966-3.587-3.147-5.861-3.067l-55.62,1.381c16.401-19.42,32.261-28.534,47.16-26.88
			c28.353,2.987,46.293,43.194,46.473,43.6c0.667,1.519,1.867,2.753,3.374,3.453C361.804,77.244,375.224,93.397,371.691,111.283z"/>
	</g>
</g>
<g>
	<g>
		<path d="M114.01,145.13c-1.807-3.314-5.953-4.54-9.26-2.714c-48.592,26.58-67.292,63.087-74.419,89.033
			c-7.753,28.22-3.901,50.046-3.734,50.959c0.601,3.292,3.473,5.6,6.707,5.6c0.406,0,0.819-0.034,1.232-0.113
			c3.714-0.679,6.166-4.232,5.487-7.939c-0.14-0.787-13.426-79.234,71.274-125.566C114.611,152.583,115.822,148.437,114.01,145.13z"
			/>
	</g>
</g>
<g>
</g>
<g>
</g>
<g>
</g>
<g>
</g>
<g>
</g>
<g>
</g>
<g>
</g>
<g>
</g>
<g>
</g>
<g>
</g>
<g>
</g>
<g>
</g>
<g>
</g>
<g>
</g>
<g>
</g>
</svg>
