<?xml version="1.0" encoding="iso-8859-1"?>
<!-- Generator: Adobe Illustrator 19.0.0, SVG Export Plug-In . SVG Version: 6.00 Build 0)  -->
<svg version="1.1" id="Capa_1" xmlns="http://www.w3.org/2000/svg" xmlns:xlink="http://www.w3.org/1999/xlink" x="0px" y="0px"
	 viewBox="0 0 415.302 415.302" style="enable-background:new 0 0 415.302 415.302;" xml:space="preserve">
<g>
	<g>
		<path d="M371.681,18.787C316.123-16.091,217.829,4.016,189.809,27.37c-15.688,13.076-17.493,25.083-19.081,35.68
			c-2.76,18.393-5.613,37.41-101.76,72.373c-34.42,12.517-55.38,31.8-62.307,57.32c-12.133,44.703,21.886,98.207,52.56,135.223
			c18.679,22.547,50.239,31.227,78.553,21.557c18.867-6.443,37.84-9.709,56.407-9.709c27.24,0,29.394,11.964,32.66,30.07
			c2.287,12.699,4.881,27.097,17.86,36.83c8.207,6.159,15.208,8.59,21.654,8.59c10.313,0,19.226-6.217,29.464-13.358
			c9.301-6.487,20.874-14.561,37.581-21.724c23.779-10.182,30.374-3.729,36.746,2.524c5.06,4.956,12.686,12.436,25.793,3.71
			c11.167-7.444,8.393-21.54,3.794-44.894c-7.465-37.97-19.973-101.518,5.867-204.89C422.854,67.668,396.676,34.476,371.681,18.787z
			 M392.361,133.352c-26.586,106.334-13.206,174.317-6.019,210.84c3.007,15.297,5.608,28.512,2.028,30.898
			c-3.879,2.598-3.879,2.574-8.66-2.099c-7.293-7.146-19.494-19.127-51.68-5.32c-18,7.714-30.213,16.23-40.02,23.074
			c-16.654,11.617-21.687,15.113-35.12,5.047c-8.687-6.518-10.593-17.111-12.614-28.331c-3.314-18.4-7.441-41.303-46.094-41.303
			c-20.067,0-40.533,3.514-60.824,10.44c-22.946,7.844-48.532,0.874-63.633-17.35C46.307,290.985,8.68,237.425,19.833,196.314
			c5.699-20.983,23.799-37.152,53.799-48.063c96.335-35.033,106.607-56.573,110.594-83.183c1.468-9.757,2.621-17.463,14.327-27.216
			c25.815-21.506,116.895-38.236,165.868-7.506C395.215,49.676,404.615,84.331,392.361,133.352z"/>
	</g>
</g>
<g>
	<g>
		<path d="M269.276,46.264c-41.407,0-75.093,33.686-75.093,75.093s33.686,75.093,75.093,75.093
			c41.405,0,75.093-33.686,75.093-75.093S310.683,46.264,269.276,46.264z M269.276,182.798c-33.881,0-61.44-27.563-61.44-61.44
			c0-33.877,27.559-61.44,61.44-61.44c33.879,0,61.44,27.563,61.44,61.44S303.157,182.798,269.276,182.798z"/>
	</g>
</g>
<g>
	<g>
		<path d="M269.276,66.744c-30.114,0-54.613,24.499-54.613,54.613c0,3.77,3.053,6.827,6.827,6.827s6.827-3.057,6.827-6.827
			c0-22.586,18.374-40.96,40.96-40.96c3.773,0,6.827-3.057,6.827-6.827C276.103,69.801,273.05,66.744,269.276,66.744z"/>
	</g>
</g>
<g>
</g>
<g>
</g>
<g>
</g>
<g>
</g>
<g>
</g>
<g>
</g>
<g>
</g>
<g>
</g>
<g>
</g>
<g>
</g>
<g>
</g>
<g>
</g>
<g>
</g>
<g>
</g>
<g>
</g>
</svg>
