<?xml version="1.0" encoding="iso-8859-1"?>
<!-- Generator: Adobe Illustrator 19.0.0, SVG Export Plug-In . SVG Version: 6.00 Build 0)  -->
<svg version="1.1" id="Capa_1" xmlns="http://www.w3.org/2000/svg" xmlns:xlink="http://www.w3.org/1999/xlink" x="0px" y="0px"
	 viewBox="0 0 415.302 415.302" style="enable-background:new 0 0 415.302 415.302;" xml:space="preserve">
<g>
	<g>
		<path d="M371.681,18.782c-55.559-34.867-153.853-14.768-181.873,8.579c-15.688,13.08-17.493,25.086-19.081,35.68
			c-2.76,18.393-5.613,37.414-101.76,72.38c-34.42,12.513-55.38,31.8-62.307,57.32c-12.133,44.701,21.886,98.207,52.553,135.214
			c1.246,1.5,2.539,2.939,3.879,4.313c2.633,2.693,6.953,2.767,9.653,0.133c2.7-2.633,2.76-6.953,0.133-9.653
			c-1.087-1.12-2.14-2.28-3.154-3.5C46.307,290.981,8.68,237.428,19.833,196.314c5.699-20.98,23.799-37.152,53.799-48.067
			c96.335-35.026,106.607-56.573,110.594-83.18c1.468-9.759,2.621-17.466,14.327-27.213c25.815-21.506,116.895-38.26,165.868-7.506
			c30.793,19.326,40.194,53.978,27.94,103.006c-26.586,106.327-13.206,174.314-6.019,210.833
			c3.007,15.299,5.608,28.513,2.028,30.899c-3.879,2.58-3.879,2.574-8.66-2.099c-7.293-7.146-19.494-19.127-51.68-5.32
			c-18,7.714-30.213,16.227-40.02,23.074c-16.654,11.614-21.687,15.113-35.12,5.047c-8.687-6.514-10.593-17.114-12.614-28.327
			c-3.314-18.406-7.441-41.306-46.094-41.306c-20.06,0-40.527,3.514-60.82,10.446c-10.068,3.432-20.861,4.127-31.16,2.033
			c-3.686-0.741-7.301,1.626-8.054,5.32c-0.754,3.7,1.626,7.301,5.32,8.054c12.699,2.599,25.946,1.741,38.306-2.487
			c18.874-6.446,37.847-9.713,56.407-9.713c27.24,0,29.394,11.96,32.66,30.073c2.287,12.699,4.881,27.093,17.86,36.826
			c8.207,6.159,15.208,8.593,21.654,8.593c10.313,0,19.226-6.219,29.464-13.362c9.301-6.485,20.874-14.56,37.581-21.726
			c23.779-10.173,30.374-3.726,36.746,2.521c5.06,4.954,12.686,12.447,25.793,3.714c11.167-7.441,8.393-21.54,3.794-44.894
			c-7.465-37.967-19.973-101.514,5.867-204.894C422.854,67.662,396.676,34.474,371.681,18.782z"/>
	</g>
</g>
<g>
	<g>
		<path d="M269.276,46.262c-41.407,0-75.093,33.686-75.093,75.093c0,41.407,33.686,75.093,75.093,75.093
			c41.405,0,75.093-33.686,75.093-75.093C344.37,79.949,310.683,46.262,269.276,46.262z M269.276,182.796
			c-33.881,0-61.44-27.559-61.44-61.44c0-33.881,27.559-61.44,61.44-61.44c33.879,0,61.44,27.559,61.44,61.44
			S303.157,182.796,269.276,182.796z"/>
	</g>
</g>
<g>
	<g>
		<path d="M269.276,66.742c-30.114,0-54.613,24.499-54.613,54.613c0,3.773,3.053,6.827,6.827,6.827s6.827-3.053,6.827-6.827
			c0-22.586,18.374-40.96,40.96-40.96c3.773,0,6.827-3.053,6.827-6.827S273.05,66.742,269.276,66.742z"/>
	</g>
</g>
<g>
	<g>
		<path d="M98.61,169.142H71.303c-3.773,0-6.827,3.053-6.827,6.827V393.45c0,11.293,9.187,20.48,20.48,20.48
			s20.48-9.187,20.48-20.48V175.969C105.436,172.196,102.383,169.142,98.61,169.142z M91.783,393.45c0,3.767-3.06,6.827-6.827,6.827
			s-6.827-3.06-6.827-6.827V182.796h13.653V393.45z"/>
	</g>
</g>
<g>
	<g>
		<path d="M112.263,39.436v102.4c0,15.06-12.247,27.307-27.307,27.307S57.65,156.895,57.65,141.836v-102.4H43.996v102.4
			c0,22.586,18.374,40.96,40.96,40.96c22.586,0,40.96-18.374,40.96-40.96v-102.4H112.263z"/>
	</g>
</g>
<g>
	<g>
		<rect x="78.133" y="39.443" width="13.653" height="136.533"/>
	</g>
</g>
<g>
</g>
<g>
</g>
<g>
</g>
<g>
</g>
<g>
</g>
<g>
</g>
<g>
</g>
<g>
</g>
<g>
</g>
<g>
</g>
<g>
</g>
<g>
</g>
<g>
</g>
<g>
</g>
<g>
</g>
</svg>
