<?xml version="1.0" encoding="iso-8859-1"?>
<!-- Generator: Adobe Illustrator 19.0.0, SVG Export Plug-In . SVG Version: 6.00 Build 0)  -->
<svg version="1.1" id="Capa_1" xmlns="http://www.w3.org/2000/svg" xmlns:xlink="http://www.w3.org/1999/xlink" x="0px" y="0px"
	 viewBox="0 0 423.253 423.253" style="enable-background:new 0 0 423.253 423.253;" xml:space="preserve">
<g>
	<g>
		<path d="M348.16,157.013H68.267c-3.773,0-6.827,3.057-6.827,6.827v211.627c0,3.77,3.053,6.827,6.827,6.827H348.16
			c3.773,0,6.827-3.057,6.827-6.827V163.84C354.987,160.07,351.933,157.013,348.16,157.013z M341.333,368.64H75.093V170.667h266.24
			V368.64z"/>
	</g>
</g>
<g>
	<g>
		<path d="M320.596,250.709l-13.653-47.787c-0.841-2.929-3.521-4.949-6.567-4.949h-184.32c-3.048,0-5.728,2.019-6.567,4.949
			l-13.653,47.787c-0.587,2.06-0.174,4.277,1.113,5.987c1.292,1.71,3.313,2.717,5.453,2.717h211.627c2.14,0,4.161-1.007,5.456-2.717
			C320.77,254.986,321.183,252.769,320.596,250.709z M111.454,245.76l9.747-34.133h174.027l9.747,34.133H111.454z"/>
	</g>
</g>
<g>
	<g>
		<path d="M416.427,368.64H6.827c-3.773,0-6.827,3.057-6.827,6.827v27.307c0,3.77,3.053,6.827,6.827,6.827h409.6
			c3.773,0,6.827-3.057,6.827-6.827v-27.307C423.253,371.697,420.2,368.64,416.427,368.64z M409.6,395.947H13.653v-13.653H409.6
			V395.947z"/>
	</g>
</g>
<g>
	<g>
		<path d="M300.373,245.76h-184.32c-3.773,0-6.827,3.057-6.827,6.827v81.92c0,3.77,3.053,6.827,6.827,6.827h184.32
			c3.773,0,6.827-3.057,6.827-6.827v-81.92C307.2,248.817,304.147,245.76,300.373,245.76z M293.547,327.68H122.88v-68.267h170.667
			V327.68z"/>
	</g>
</g>
<g>
	<g>
		<path d="M116.053,116.053c-3.773,0-6.827,3.057-6.827,6.827v40.96c0,3.77,3.053,6.827,6.827,6.827s6.827-3.057,6.827-6.827v-40.96
			C122.88,119.11,119.827,116.053,116.053,116.053z"/>
	</g>
</g>
<g>
	<g>
		<path d="M300.373,116.053c-3.773,0-6.827,3.057-6.827,6.827v40.96c0,3.77,3.053,6.827,6.827,6.827s6.827-3.057,6.827-6.827v-40.96
			C307.2,119.11,304.147,116.053,300.373,116.053z"/>
	</g>
</g>
<g>
	<g>
		<path d="M375.467,13.653H40.96c-3.773,0-6.827,3.057-6.827,6.827v95.573c0,3.77,3.053,6.827,6.827,6.827h334.507
			c3.773,0,6.827-3.057,6.827-6.827V20.48C382.293,16.71,379.24,13.653,375.467,13.653z M368.64,109.227H47.787v-81.92H368.64
			V109.227z"/>
	</g>
</g>
<g>
	<g>
		<path d="M122.607,46.92c-0.893-1.813-2.12-3.328-3.68-4.54c-1.56-1.212-3.386-2.127-5.48-2.739
			c-2.094-0.613-4.354-0.92-6.781-0.92v-0.002H95.068c-1.519,0-2.691,0.259-3.519,0.78c-0.828,0.521-1.427,1.207-1.801,2.06
			s-0.594,1.826-0.66,2.92c-0.067,1.094-0.101,2.214-0.101,3.36v37.68c0,1.172,0.034,2.306,0.101,3.4
			c0.067,1.094,0.287,2.074,0.66,2.941s0.975,1.56,1.801,2.08c0.826,0.521,1.998,0.78,3.519,0.78h13.28
			c2.906-0.16,5.506-0.853,7.799-2.08c0.959-0.507,1.906-1.167,2.84-1.98c0.934-0.812,1.766-1.799,2.5-2.959
			c0.734-1.161,1.328-2.533,1.78-4.12s0.679-3.42,0.679-5.501v-24.8C123.947,50.854,123.5,48.732,122.607,46.92z M112.507,78.8
			c0,0.8-0.087,1.505-0.259,2.12s-0.406,1.14-0.7,1.58c-0.294,0.44-0.628,0.821-1,1.14c-0.372,0.319-0.746,0.573-1.12,0.759
			c-0.908,0.48-1.934,0.747-3.081,0.8h-5.2V48.08h5.2c1.147,0.08,2.174,0.374,3.081,0.881c0.372,0.213,0.746,0.493,1.12,0.84
			s0.707,0.773,1,1.28c0.294,0.507,0.527,1.101,0.7,1.78s0.259,1.459,0.259,2.34V78.8z"/>
	</g>
</g>
<g>
	<g>
		<path d="M168.586,87.197c-0.159-0.16-0.319-0.346-0.48-0.56c-0.16-0.213-0.241-0.48-0.241-0.8v-5.68
			c0-1.734-0.247-3.253-0.741-4.56s-1.126-2.427-1.9-3.36c-0.773-0.934-1.64-1.702-2.599-2.301c-0.959-0.599-1.906-1.085-2.84-1.459
			c1.466-0.427,2.741-0.986,3.82-1.679c1.079-0.693,1.992-1.454,2.739-2.28c0.748-0.826,1.347-1.693,1.801-2.599
			c0.454-0.906,0.812-1.78,1.08-2.62c0.268-0.84,0.44-1.613,0.521-2.319s0.119-1.273,0.119-1.7c0-2.08-0.253-3.907-0.759-5.48
			s-1.174-2.939-2-4.099c-0.826-1.161-1.766-2.133-2.819-2.92c-1.053-0.787-2.126-1.447-3.22-1.98c-2.586-1.227-5.519-1.92-8.8-2.08
			h-13.199c-1.493,0-2.645,0.259-3.459,0.78c-0.814,0.521-1.406,1.207-1.78,2.06s-0.594,1.826-0.66,2.92
			c-0.067,1.094-0.101,2.214-0.101,3.36h0v37.598c0,1.174,0.034,2.321,0.101,3.441c0.067,1.12,0.287,2.113,0.66,2.98
			c0.374,0.867,0.968,1.56,1.78,2.08s1.966,0.78,3.459,0.78c1.519,0,2.691-0.259,3.519-0.78c0.828-0.521,1.427-1.213,1.801-2.08
			c0.374-0.867,0.594-1.859,0.661-2.98c0.067-1.121,0.101-2.266,0.101-3.441v-13.36h4.48c1.28,0,2.319,0.201,3.12,0.601
			s1.427,0.959,1.881,1.679c0.454,0.72,0.759,1.573,0.92,2.56c0.16,0.986,0.241,2.065,0.241,3.239v8.48
			c0,1.039,0.234,1.959,0.7,2.76c0.466,0.8,1.073,1.466,1.819,2c0.746,0.534,1.574,0.94,2.48,1.22c0.906,0.28,1.799,0.42,2.679,0.42
			c0.8,0,1.58-0.085,2.34-0.259s1.44-0.461,2.039-0.86s1.085-0.92,1.459-1.56c0.374-0.64,0.56-1.427,0.56-2.36
			c0-0.294-0.055-0.672-0.16-1.14C169.6,88.39,169.226,87.837,168.586,87.197z M157.484,57.882c-0.2,0.746-0.473,1.399-0.819,1.959
			c-0.346,0.56-0.734,1.026-1.161,1.399c-0.427,0.374-0.865,0.679-1.319,0.92c-1.067,0.585-2.266,0.906-3.599,0.959v0.003h-5.443
			V48.162h5.76c1.28,0.08,2.427,0.374,3.441,0.881c0.427,0.213,0.845,0.493,1.26,0.84s0.782,0.773,1.101,1.28
			c0.319,0.507,0.58,1.101,0.78,1.78s0.3,1.459,0.3,2.34C157.785,56.269,157.684,57.136,157.484,57.882z"/>
	</g>
</g>
<g>
	<g>
		<path d="M192.886,44.559c-0.12-1.094-0.399-2.075-0.84-2.941c-0.44-0.865-1.099-1.565-1.98-2.099c-0.881-0.534-2.094-0.8-3.64-0.8
			c-1.546,0-2.761,0.268-3.64,0.8c-0.879,0.533-1.539,1.232-1.98,2.099c-0.44,0.867-0.72,1.847-0.84,2.941
			c-0.119,1.094-0.179,2.214-0.179,3.36h-0.002v37.6c0,1.172,0.06,2.306,0.179,3.4c0.119,1.094,0.399,2.074,0.84,2.941
			c0.44,0.867,1.099,1.56,1.98,2.08c0.881,0.521,2.092,0.78,3.64,0.78c1.548,0,2.766-0.259,3.661-0.78
			c0.894-0.521,1.562-1.213,2-2.08s0.712-1.848,0.819-2.941c0.107-1.092,0.16-2.225,0.16-3.4v-37.6
			C193.065,46.773,193.005,45.653,192.886,44.559z"/>
	</g>
</g>
<g>
	<g>
		<path d="M248.426,42.54c-0.106-0.759-0.36-1.42-0.759-1.98c-0.399-0.56-0.993-1.007-1.78-1.34c-0.787-0.333-1.86-0.5-3.221-0.5
			c-1.227,0-2.191,0.167-2.9,0.5c-0.708,0.333-1.241,0.78-1.601,1.34c-0.36,0.56-0.592,1.22-0.7,1.98
			c-0.108,0.759-0.16,1.567-0.16,2.42v33.2h-0.959l-12.72-34.48c-0.346-0.934-0.812-1.76-1.399-2.48
			c-0.532-0.613-1.22-1.179-2.06-1.7c-0.84-0.521-1.927-0.78-3.26-0.78h-5.28c-1.493,0-2.645,0.259-3.459,0.78
			c-0.814,0.521-1.406,1.215-1.78,2.08c-0.374,0.865-0.594,1.853-0.66,2.959c-0.067,1.106-0.101,2.232-0.101,3.379V88.48
			c0,0.853,0.055,1.661,0.16,2.42s0.36,1.42,0.759,1.98c0.401,0.56,1,1.007,1.801,1.34c0.8,0.333,1.894,0.5,3.28,0.5
			c1.227,0,2.191-0.167,2.9-0.5c0.708-0.333,1.241-0.78,1.601-1.34s0.592-1.22,0.7-1.98c0.108-0.759,0.16-1.567,0.16-2.42v-33.2
			h0.959l12.08,32.72c0.186,0.532,0.447,1.186,0.78,1.959s0.78,1.514,1.34,2.22c0.56,0.707,1.26,1.307,2.099,1.801
			s1.888,0.741,3.14,0.741h5.28c1.466,0,2.608-0.259,3.42-0.78c0.812-0.521,1.399-1.213,1.76-2.08s0.573-1.848,0.64-2.941
			c0.067-1.092,0.101-2.225,0.101-3.4V44.96C248.586,44.107,248.532,43.3,248.426,42.54z"/>
	</g>
</g>
<g>
	<g>
		<path d="M296.547,88.878c-0.08-0.454-0.387-0.988-0.92-1.601c-0.213-0.241-0.425-0.452-0.64-0.64
			c-0.215-0.188-0.321-0.427-0.321-0.72v-5.68c0-1.44-0.107-2.741-0.321-3.9c-0.213-1.159-0.493-2.191-0.84-3.099
			s-0.739-1.7-1.179-2.381c-0.44-0.681-0.886-1.261-1.34-1.741c-1.067-1.147-2.294-1.973-3.68-2.48l7.2-17.039
			c0.401-0.934,0.713-1.874,0.94-2.819s0.34-1.766,0.34-2.459c0-0.906-0.179-1.707-0.539-2.4c-0.36-0.693-0.833-1.28-1.42-1.76
			c-0.587-0.48-1.253-0.84-2-1.08c-0.747-0.241-1.507-0.36-2.28-0.36c-0.799,0-1.5,0.159-2.099,0.48
			c-0.599,0.321-1.14,0.747-1.62,1.28c-0.48,0.532-0.899,1.145-1.26,1.84c-0.36,0.695-0.7,1.413-1.021,2.161
			c-0.321,0.695-0.661,1.487-1.021,2.381c-0.36,0.894-0.734,1.819-1.12,2.78c-0.386,0.961-0.778,1.94-1.179,2.941
			c-0.401,1-0.787,1.966-1.161,2.9c-0.881,2.214-1.76,4.466-2.64,6.76h-4.56V47.84c0-1.147-0.055-2.266-0.16-3.36
			c-0.106-1.094-0.367-2.067-0.78-2.92c-0.413-0.853-1.033-1.539-1.86-2.06c-0.828-0.521-1.947-0.78-3.36-0.78
			c-1.388,0-2.48,0.259-3.28,0.78c-0.8,0.521-1.401,1.207-1.801,2.06c-0.399,0.853-0.652,1.826-0.759,2.92
			c-0.108,1.094-0.16,2.214-0.16,3.36h-0.002v37.678c0,1.172,0.055,2.306,0.16,3.4c0.106,1.094,0.358,2.074,0.76,2.941
			c0.401,0.867,1,1.56,1.8,2.08c0.8,0.521,1.894,0.78,3.28,0.78c1.413,0,2.533-0.259,3.36-0.78c0.828-0.521,1.447-1.213,1.86-2.08
			c0.413-0.867,0.672-1.848,0.78-2.941c0.108-1.092,0.16-2.225,0.16-3.4v-13.44h4.48c1.28,0,2.319,0.206,3.12,0.62
			s1.427,0.988,1.881,1.72c0.454,0.732,0.759,1.599,0.92,2.599c0.16,1,0.241,2.074,0.241,3.22v8.24c0,1.094,0.234,2.055,0.7,2.881
			c0.466,0.826,1.073,1.514,1.819,2.06c0.746,0.546,1.574,0.954,2.48,1.22s1.799,0.399,2.68,0.399c0.826,0,1.633-0.08,2.42-0.241
			c0.787-0.16,1.48-0.44,2.08-0.84c0.601-0.399,1.08-0.92,1.44-1.56s0.539-1.44,0.539-2.4
			C296.666,89.704,296.627,89.332,296.547,88.878z"/>
	</g>
</g>
<g>
	<g>
		<path d="M336.744,73.44c-0.64-1.574-1.481-2.985-2.521-4.239s-2.214-2.374-3.519-3.36s-2.647-1.9-4.019-2.739
			c-1.372-0.84-2.712-1.64-4.019-2.4c-1.307-0.759-2.475-1.541-3.5-2.34c-1.026-0.799-1.853-1.645-2.48-2.539
			c-0.626-0.894-0.952-1.901-0.98-3.021c0-1.36,0.145-2.41,0.452-3.157c0.307-0.747,0.72-1.3,1.241-1.661
			c0.521-0.36,1.121-0.58,1.801-0.66s1.379-0.119,2.099-0.119c1.519,0,2.673,0.427,3.459,1.28c0.787,0.853,1.179,2.374,1.179,4.56
			c0,0.534,0.159,1.06,0.48,1.58c0.321,0.521,0.734,0.981,1.241,1.381c0.507,0.399,1.08,0.725,1.72,0.98
			c0.64,0.254,1.28,0.381,1.92,0.381c0.828,0,1.594-0.128,2.301-0.381c0.707-0.253,1.319-0.606,1.84-1.06
			c0.521-0.454,0.934-1.009,1.241-1.661c0.307-0.652,0.461-1.379,0.461-2.179c0-0.532-0.039-1.239-0.119-2.12
			c-0.08-0.881-0.282-1.826-0.601-2.84c-0.319-1.014-0.807-2.039-1.459-3.081c-0.652-1.041-1.546-1.975-2.679-2.801
			c-1.133-0.826-2.553-1.505-4.26-2.039c-1.707-0.534-3.785-0.8-6.24-0.8h-1.039c-2.693,0-5.079,0.232-7.159,0.7
			c-2.08,0.468-3.833,1.261-5.26,2.381c-1.427,1.12-2.505,2.625-3.239,4.519c-0.734,1.894-1.113,4.267-1.14,7.12v0.64
			c0.026,1.734,0.353,3.28,0.98,4.64c0.626,1.36,1.459,2.601,2.5,3.721c1.041,1.12,2.207,2.152,3.5,3.099s2.62,1.855,3.98,2.72
			c1.36,0.865,2.693,1.734,4,2.599c1.307,0.865,2.468,1.78,3.48,2.739c1.012,0.959,1.833,2,2.459,3.12
			c0.626,1.12,0.94,2.374,0.94,3.76c0,1.12-0.14,2.048-0.42,2.78s-0.659,1.319-1.14,1.76c-0.481,0.44-1.06,0.746-1.741,0.92
			s-1.42,0.273-2.22,0.3c-1.599,0-2.826-0.369-3.68-1.101s-1.307-2.099-1.36-4.099c-0.026-0.908-0.234-1.702-0.62-2.381
			c-0.386-0.679-0.879-1.239-1.48-1.679s-1.266-0.765-2-0.98c-0.734-0.215-1.447-0.321-2.14-0.321c-0.747,0-1.459,0.107-2.14,0.321
			c-0.681,0.213-1.282,0.539-1.801,0.98c-0.519,0.44-0.94,1.005-1.26,1.7s-0.48,1.507-0.48,2.441c0,0.906,0.107,1.879,0.321,2.92
			c0.213,1.041,0.558,2.087,1.039,3.14c0.481,1.053,1.126,2.074,1.94,3.06c0.814,0.986,1.833,1.86,3.06,2.62
			c1.227,0.76,2.693,1.367,4.4,1.819s3.693,0.679,5.96,0.679h0.399c1.172-0.027,2.418-0.135,3.739-0.321s2.627-0.507,3.92-0.959
			c1.294-0.452,2.526-1.06,3.7-1.819c1.174-0.759,2.202-1.725,3.081-2.9c0.879-1.174,1.586-2.572,2.12-4.2
			c0.534-1.628,0.8-3.534,0.8-5.721V78.8C337.731,76.8,337.384,75.013,336.744,73.44z"/>
	</g>
</g>
<g>
	<g>
		<path d="M161.84,268.24c-2.666-2.666-6.987-2.666-9.653,0l-23.893,23.893c-2.666,2.666-2.666,6.987,0,9.653
			c1.333,1.333,3.081,2,4.826,2s3.494-0.667,4.826-2l23.893-23.893C164.506,275.227,164.506,270.906,161.84,268.24z"/>
	</g>
</g>
<g>
</g>
<g>
</g>
<g>
</g>
<g>
</g>
<g>
</g>
<g>
</g>
<g>
</g>
<g>
</g>
<g>
</g>
<g>
</g>
<g>
</g>
<g>
</g>
<g>
</g>
<g>
</g>
<g>
</g>
</svg>
