<?xml version="1.0" encoding="iso-8859-1"?>
<!-- Generator: Adobe Illustrator 19.0.0, SVG Export Plug-In . SVG Version: 6.00 Build 0)  -->
<svg version="1.1" id="Capa_1" xmlns="http://www.w3.org/2000/svg" xmlns:xlink="http://www.w3.org/1999/xlink" x="0px" y="0px"
	 viewBox="0 0 409.6 409.6" style="enable-background:new 0 0 409.6 409.6;" xml:space="preserve">
<g>
	<g>
		<path d="M259.413,0H150.187c-11.293,0-20.48,9.187-20.48,20.48s9.187,20.48,20.48,20.48h109.227c11.293,0,20.48-9.187,20.48-20.48
			S270.706,0,259.413,0z M259.413,27.307H150.187c-3.767,0-6.827-3.06-6.827-6.827s3.06-6.827,6.827-6.827h109.227
			c3.767,0,6.827,3.06,6.827,6.827S263.18,27.307,259.413,27.307z"/>
	</g>
</g>
<g>
	<g>
		<path d="M279.646,94.194l-17.067-61.873c-0.812-2.961-3.505-5.014-6.579-5.014H153.6c-3.074,0-5.767,2.053-6.579,5.014
			l-17.067,61.873c-0.167,0.585-0.247,1.2-0.247,1.813v306.766c0,3.773,3.053,6.827,6.827,6.827h136.533
			c3.773,0,6.827-3.053,6.827-6.827V96.007C279.893,95.394,279.813,94.781,279.646,94.194z M266.24,395.947H143.36V96.934
			L158.8,40.96h92l15.44,55.974V395.947z"/>
	</g>
</g>
<g>
	<g>
		<path d="M273.067,197.973H136.533c-3.773,0-6.827,3.053-6.827,6.827v95.573c0,3.773,3.053,6.827,6.827,6.827h136.533
			c3.773,0,6.827-3.053,6.827-6.827V204.8C279.893,201.027,276.84,197.973,273.067,197.973z M266.24,293.547H143.36v-81.92h122.88
			V293.547z"/>
	</g>
</g>
<g>
</g>
<g>
</g>
<g>
</g>
<g>
</g>
<g>
</g>
<g>
</g>
<g>
</g>
<g>
</g>
<g>
</g>
<g>
</g>
<g>
</g>
<g>
</g>
<g>
</g>
<g>
</g>
<g>
</g>
</svg>
