<?xml version="1.0" encoding="iso-8859-1"?>
<!-- Generator: Adobe Illustrator 19.0.0, SVG Export Plug-In . SVG Version: 6.00 Build 0)  -->
<svg version="1.1" id="Capa_1" xmlns="http://www.w3.org/2000/svg" xmlns:xlink="http://www.w3.org/1999/xlink" x="0px" y="0px"
	 viewBox="0 0 369.481 369.481" style="enable-background:new 0 0 369.481 369.481;" xml:space="preserve">
<g>
	<g>
		<path d="M285.6,86.432c-3.406-39.765-11.6-58.286-25.767-58.286c-7.494,0-34.881-5.833-61.373-11.474
			C133.746,2.893,102.221-3.099,92.94,1.56c-4.32,2.161-15.78,7.893-23.687,101.147c-0.319,3.76,2.468,7.066,6.221,7.38
			c0.2,0.021,0.394,0.027,0.587,0.027c3.514,0,6.494-2.686,6.791-6.25c4.567-53.845,11.767-86.18,15.961-89.993
			c8.341-2.693,63.727,9.107,96.807,16.154c34.273,7.299,55.714,11.773,64.213,11.773c1.741,0,8.9,7.774,12.167,45.807
			c0.326,3.748,3.526,6.554,7.386,6.214C283.141,93.5,285.926,90.192,285.6,86.432z"/>
	</g>
</g>
<g>
	<g>
		<path d="M327.107,192.922c-4.586-4.934-11.086-7.76-17.826-7.76H60.201c-6.74,0-13.239,2.826-17.826,7.76
			c-4.586,4.925-6.946,11.605-6.46,18.393l11.153,135.554c0.901,12.681,11.568,22.613,24.281,22.613h226.785
			c12.715,0,23.381-9.933,24.279-22.54l11.153-135.7C334.053,204.529,331.694,197.849,327.107,192.922z M319.954,210.195
			l-11.153,135.7c-0.399,5.572-5.086,9.933-10.667,9.933H71.347c-5.581,0-10.267-4.359-10.667-10.006L49.527,210.268
			c-0.213-2.993,0.794-5.847,2.84-8.047c2.046-2.193,4.826-3.406,7.834-3.406H309.28c3.007,0,5.787,1.213,7.834,3.406
			C319.16,204.421,320.167,207.275,319.954,210.195z"/>
	</g>
</g>
<g>
	<g>
		<path d="M362.034,125.341l-0.067-0.533l-6.793,0.654l6.781-0.759c0-0.061-0.067-0.681-0.067-0.741
			c-0.106-1.027-0.22-2.039-0.346-2.493c-2.767-20.101-13.392-37.746-27.08-44.96c-9.414-4.966-19.76-4.927-29.894,0.147
			c-21.381,10.694-100.401,17.9-128.601,19.76H38.595c-17.287,0-31.346,14.06-31.346,31.346v39.707
			c0,17.287,14.06,31.346,31.346,31.346h292.294c17.287,0,31.346-14.06,31.345-31.346v-39.707
			C362.233,126.935,362.146,126.135,362.034,125.341z M330.889,185.161H38.595c-9.754,0-17.693-7.939-17.693-17.693v-39.707
			c0-9.754,7.939-17.693,17.693-17.693l137.82-0.014c4.313-0.287,106.047-7.079,134.26-21.187c3.2-1.599,6.26-2.4,9.233-2.4
			c2.801,0,5.514,0.707,8.189,2.12c9.612,5.067,17.806,19.354,20.019,35.287c0.106,0.468,0.133,0.954,0.186,1.434
			c0,0.021,0.053,0.555,0.073,0.734c0,0.021,0,0.046,0.007,0.067l0.2,41.359C348.582,177.222,340.642,185.161,330.889,185.161z"/>
	</g>
</g>
<g>
	<g>
		<path d="M184.742,219.295c-3.773,0-6.827,3.053-6.827,6.827v102.4c0,3.773,3.053,6.827,6.827,6.827s6.827-3.053,6.827-6.827
			v-102.4C191.568,222.348,188.515,219.295,184.742,219.295z"/>
	</g>
</g>
<g>
	<g>
		<path d="M240.254,219.354c-3.746-0.498-7.166,2.128-7.666,5.867l-13.653,102.4c-0.498,3.732,2.128,7.166,5.868,7.666
			c0.305,0.039,0.606,0.06,0.906,0.06c3.372,0,6.299-2.493,6.76-5.927l13.653-102.4C246.62,223.288,243.994,219.855,240.254,219.354
			z"/>
	</g>
</g>
<g>
	<g>
		<path d="M281.214,219.354c-3.767-0.498-7.166,2.128-7.666,5.867l-13.653,102.4c-0.498,3.732,2.128,7.166,5.867,7.666
			c0.305,0.039,0.606,0.06,0.906,0.06c3.372,0,6.299-2.493,6.76-5.927l13.653-102.4C287.58,223.288,284.954,219.855,281.214,219.354
			z"/>
	</g>
</g>
<g>
	<g>
		<path d="M150.549,327.622l-13.653-102.4c-0.5-3.741-3.893-6.368-7.666-5.867c-3.741,0.5-6.368,3.932-5.868,7.666l13.653,102.4
			c0.461,3.434,3.386,5.927,6.76,5.927c0.3,0,0.601-0.021,0.906-0.06C148.422,334.788,151.049,331.356,150.549,327.622z"/>
	</g>
</g>
<g>
	<g>
		<path d="M109.588,327.622l-13.653-102.4c-0.5-3.741-3.913-6.368-7.666-5.867c-3.741,0.5-6.368,3.932-5.868,7.666l13.653,102.4
			c0.461,3.434,3.386,5.927,6.76,5.927c0.3,0,0.601-0.021,0.906-0.06C107.462,334.788,110.089,331.356,109.588,327.622z"/>
	</g>
</g>
<g>
	<g>
		<path d="M81.621,134.322l-6.827-13.653c-1.693-3.374-5.792-4.726-9.16-3.053c-3.374,1.686-4.739,5.786-3.053,9.16l6.827,13.653
			c1.2,2.393,3.606,3.773,6.113,3.773c1.026,0,2.067-0.234,3.046-0.72C81.942,141.795,83.308,137.696,81.621,134.322z"/>
	</g>
</g>
<g>
	<g>
		<path d="M107.648,132.548c-2.666-2.666-6.987-2.666-9.653,0l-13.653,13.653c-2.666,2.666-2.666,6.987,0,9.653
			c1.333,1.333,3.081,2,4.826,2c1.746,0,3.494-0.666,4.826-2l13.653-13.653C110.314,139.535,110.314,135.214,107.648,132.548z"/>
	</g>
</g>
<g>
	<g>
		<path d="M146.835,138.095l-13.653-6.827c-3.372-1.674-7.467-0.326-9.16,3.053c-1.686,3.372-0.321,7.474,3.053,9.16l13.653,6.827
			c0.98,0.486,2.019,0.72,3.046,0.72c2.507,0,4.913-1.379,6.113-3.773C151.574,143.882,150.209,139.781,146.835,138.095z"/>
	</g>
</g>
<g>
	<g>
		<path d="M237.355,139.375l-6.827-6.827c-2.666-2.666-6.987-2.666-9.653,0c-2.666,2.666-2.666,6.987,0,9.653l6.827,6.827
			c1.333,1.333,3.081,2,4.826,2s3.494-0.666,4.826-2C240.02,146.362,240.02,142.041,237.355,139.375z"/>
	</g>
</g>
<g>
	<g>
		<path d="M269.715,131.268c-3.372-1.674-7.474-0.326-9.16,3.053l-6.827,13.653c-1.686,3.372-0.321,7.474,3.053,9.16
			c0.98,0.486,2.019,0.72,3.046,0.72c2.507,0,4.913-1.379,6.113-3.773l6.827-13.653
			C274.454,137.056,273.089,132.954,269.715,131.268z"/>
	</g>
</g>
<g>
	<g>
		<path d="M297.021,117.615l-13.653-6.827c-3.372-1.674-7.474-0.319-9.16,3.053c-1.686,3.372-0.321,7.473,3.053,9.16l13.653,6.827
			c0.98,0.486,2.019,0.72,3.046,0.72c2.507,0,4.914-1.379,6.113-3.773C301.761,123.402,300.396,119.301,297.021,117.615z"/>
	</g>
</g>
<g>
	<g>
		<path d="M314.448,137.375c-3.773,0-6.827,3.053-6.827,6.827v6.827c0,3.773,3.053,6.827,6.827,6.827s6.827-3.053,6.827-6.827
			v-6.827C321.275,140.428,318.222,137.375,314.448,137.375z"/>
	</g>
</g>
<g>
	<g>
		<path d="M189.568,153.028l-6.827-6.827c-2.666-2.666-6.987-2.666-9.653,0c-2.666,2.666-2.666,6.987,0,9.653l6.827,6.827
			c1.333,1.333,3.081,2,4.826,2s3.494-0.666,4.826-2C192.234,160.015,192.234,155.694,189.568,153.028z"/>
	</g>
</g>
<g>
	<g>
		<path d="M204.501,120.668c-1.693-3.374-5.786-4.726-9.16-3.053l-13.653,6.827c-3.374,1.686-4.739,5.786-3.053,9.16
			c1.2,2.393,3.606,3.773,6.113,3.773c1.026,0,2.067-0.234,3.046-0.72l13.653-6.827
			C204.822,128.142,206.188,124.042,204.501,120.668z"/>
	</g>
</g>
<g>
	<g>
		<path d="M68.335,148.867c-1.195-3.572-5.028-5.513-8.634-4.313l-20.48,6.827c-3.572,1.188-5.506,5.053-4.313,8.634
			c0.954,2.859,3.613,4.666,6.473,4.666c0.713,0,1.44-0.113,2.161-0.353l20.48-6.827C67.594,156.314,69.528,152.448,68.335,148.867z
			"/>
	</g>
</g>
<g>
</g>
<g>
</g>
<g>
</g>
<g>
</g>
<g>
</g>
<g>
</g>
<g>
</g>
<g>
</g>
<g>
</g>
<g>
</g>
<g>
</g>
<g>
</g>
<g>
</g>
<g>
</g>
<g>
</g>
</svg>
