<?xml version="1.0" encoding="iso-8859-1"?>
<!-- Generator: Adobe Illustrator 19.0.0, SVG Export Plug-In . SVG Version: 6.00 Build 0)  -->
<svg version="1.1" id="Capa_1" xmlns="http://www.w3.org/2000/svg" xmlns:xlink="http://www.w3.org/1999/xlink" x="0px" y="0px"
	 viewBox="0 0 382.293 382.293" style="enable-background:new 0 0 382.293 382.293;" xml:space="preserve">
<g>
	<g>
		<path d="M341.323,0H40.97C29.674,0,20.48,9.167,20.48,20.427V81.92c0,3.773,3.057,6.827,6.827,6.827h327.68
			c3.77,0,6.827-3.053,6.827-6.827V20.427C361.813,9.167,352.62,0,341.323,0z M348.16,75.093H34.133V20.427
			c0-3.734,3.067-6.774,6.837-6.774h300.353c3.77,0,6.837,3.04,6.837,6.774V75.093z"/>
	</g>
</g>
<g>
	<g>
		<path d="M122.88,27.307H61.44c-3.77,0-6.827,3.053-6.827,6.827s3.057,6.827,6.827,6.827h61.44c3.77,0,6.827-3.053,6.827-6.827
			S126.65,27.307,122.88,27.307z"/>
	</g>
</g>
<g>
	<g>
		<path d="M122.88,47.787H61.44c-3.77,0-6.827,3.053-6.827,6.827s3.057,6.827,6.827,6.827h61.44c3.77,0,6.827-3.053,6.827-6.827
			S126.65,47.787,122.88,47.787z"/>
	</g>
</g>
<g>
	<g>
		<path d="M327.68,20.48h-88.747c-3.77,0-6.827,3.053-6.827,6.827V61.44c0,3.773,3.057,6.827,6.827,6.827h88.747
			c3.77,0,6.827-3.053,6.827-6.827V27.307C334.507,23.533,331.45,20.48,327.68,20.48z M320.853,54.613H245.76v-20.48h75.093V54.613z
			"/>
	</g>
</g>
<g>
	<g>
		<path d="M327.68,341.333H54.613c-3.77,0-6.827,3.053-6.827,6.827v27.307c0,3.773,3.057,6.827,6.827,6.827H327.68
			c3.77,0,6.827-3.053,6.827-6.827V348.16C334.507,344.387,331.45,341.333,327.68,341.333z M320.853,368.64H61.44v-13.653h259.413
			V368.64z"/>
	</g>
</g>
<g>
	<g>
		<path d="M354.987,75.093H27.307c-3.77,0-6.827,3.053-6.827,6.827v266.24c0,3.773,3.057,6.827,6.827,6.827h327.68
			c3.77,0,6.827-3.053,6.827-6.827V81.92C361.813,78.147,358.757,75.093,354.987,75.093z M348.16,341.333H34.133V88.747H348.16
			V341.333z"/>
	</g>
</g>
<g>
	<g>
		<path d="M187.733,20.48c-13.174,0-23.893,10.72-23.893,23.893s10.72,23.893,23.893,23.893s23.893-10.72,23.893-23.893
			S200.907,20.48,187.733,20.48z M187.733,54.613c-5.647,0-10.24-4.593-10.24-10.24c0-5.647,4.593-10.24,10.24-10.24
			c5.647,0,10.24,4.593,10.24,10.24C197.973,50.021,193.381,54.613,187.733,54.613z"/>
	</g>
</g>
<g>
	<g>
		<path d="M320.853,109.227H61.44c-3.77,0-6.827,3.053-6.827,6.827v20.48c0,3.773,3.057,6.827,6.827,6.827h259.413
			c3.77,0,6.827-3.053,6.827-6.827v-20.48C327.68,112.28,324.623,109.227,320.853,109.227z M314.027,129.707H68.267v-6.827h245.76
			V129.707z"/>
	</g>
</g>
<g>
</g>
<g>
</g>
<g>
</g>
<g>
</g>
<g>
</g>
<g>
</g>
<g>
</g>
<g>
</g>
<g>
</g>
<g>
</g>
<g>
</g>
<g>
</g>
<g>
</g>
<g>
</g>
<g>
</g>
</svg>
