<?xml version="1.0" encoding="iso-8859-1"?>
<!-- Generator: Adobe Illustrator 19.0.0, SVG Export Plug-In . SVG Version: 6.00 Build 0)  -->
<svg version="1.1" id="Capa_1" xmlns="http://www.w3.org/2000/svg" xmlns:xlink="http://www.w3.org/1999/xlink" x="0px" y="0px"
	 viewBox="0 0 423.88 423.88" style="enable-background:new 0 0 423.88 423.88;" xml:space="preserve">
<g>
	<g>
		<path d="M370.274,143.22c-1.553-3.437-5.596-4.97-9.033-3.406c-3.434,1.553-4.96,5.596-3.406,9.033
			c10.003,22.124,15.073,45.752,15.073,70.233c0,94.107-76.559,170.667-170.667,170.667c-5.832,0-11.704-0.297-17.458-0.881
			c-3.756-0.447-7.1,2.35-7.48,6.1c-0.384,3.75,2.35,7.1,6.1,7.48c6.211,0.633,12.546,0.954,18.836,0.954
			c101.634,0,184.32-82.688,184.322-184.32C386.561,192.647,381.081,167.124,370.274,143.22z"/>
	</g>
</g>
<g>
	<g>
		<path d="M153.145,382.58c-19.942-5.978-38.456-15.49-55.023-28.266c-2.987-2.302-7.276-1.753-9.576,1.237
			c-2.302,2.987-1.746,7.272,1.237,9.576c17.896,13.797,37.893,24.071,59.443,30.534c0.652,0.196,1.312,0.29,1.963,0.29
			c2.937,0,5.651-1.91,6.536-4.873C158.808,387.47,156.758,383.664,153.145,382.58z"/>
	</g>
</g>
<g>
	<g>
		<path d="M158.567,46.867c-1.067-3.62-4.864-5.666-8.477-4.623C72.271,65.157,17.921,137.873,17.921,219.08
			c0,42.182,14.612,83.413,41.149,116.096c1.35,1.661,3.316,2.524,5.303,2.524c1.514,0,3.033-0.5,4.301-1.527
			c2.927-2.377,3.374-6.677,0.997-9.603c-24.566-30.256-38.096-68.432-38.096-107.489c0-75.192,50.319-142.522,122.37-163.736
			C157.56,54.277,159.63,50.483,158.567,46.867z"/>
	</g>
</g>
<g>
	<g>
		<path d="M256.561,42.894c-23.318-7.18-48.317-9.632-72.564-7.243c-3.753,0.37-6.494,3.71-6.124,7.463
			c0.37,3.753,3.727,6.54,7.463,6.124c22.441-2.222,45.624,0.056,67.21,6.704c0.667,0.206,1.343,0.307,2.01,0.307
			c2.917,0,5.617-1.886,6.519-4.825C262.188,47.821,260.167,44,256.561,42.894z"/>
	</g>
</g>
<g>
	<g>
		<path d="M255.144,100.615c-22.296-9.969-47.162-13.389-71.443-9.926c-3.731,0.532-6.323,3.988-5.791,7.723
			s4.009,6.337,7.723,5.791c21.74-3.087,44-0.038,63.937,8.88c0.906,0.404,1.85,0.597,2.784,0.597c2.609,0,5.099-1.507,6.238-4.045
			C260.128,106.196,258.588,102.154,255.144,100.615z"/>
	</g>
</g>
<g>
	<g>
		<path d="M312.98,151.526c-1.966-3.22-6.166-4.233-9.383-2.263c-3.217,1.966-4.229,6.166-2.263,9.383
			c11.093,18.147,16.957,39.043,16.957,60.433c0,63.993-52.06,116.053-116.053,116.053c-5.547,0-11.136-0.396-16.606-1.176
			c-3.743-0.522-7.192,2.057-7.723,5.791c-0.532,3.732,2.06,7.19,5.791,7.723c6.11,0.872,12.346,1.316,18.54,1.316
			c71.521,0,129.707-58.187,129.703-129.707C331.942,195.176,325.387,171.817,312.98,151.526z"/>
	</g>
</g>
<g>
	<g>
		<path d="M154.026,324.673c-22.9-10.47-42.093-28.464-54.047-50.668c-1.79-3.319-5.927-4.564-9.247-2.773
			c-3.319,1.787-4.56,5.927-2.773,9.247c13.353,24.806,34.801,44.911,60.387,56.614c0.92,0.42,1.886,0.616,2.836,0.616
			c2.587,0,5.064-1.48,6.214-3.985C158.963,330.293,157.453,326.243,154.026,324.673z"/>
	</g>
</g>
<g>
	<g>
		<path d="M135.45,107.87c-20.012,12.042-36.439,29.273-47.497,49.823l12.02,6.47c9.899-18.393,24.6-33.814,42.516-44.594
			L135.45,107.87z"/>
	</g>
</g>
<g>
	<g>
		<path d="M58.879,123.506V403.4c0,11.293,9.187,20.48,20.48,20.48c11.295,0,20.48-9.187,20.48-20.48V123.506H58.879z M86.186,403.4
			c0,3.763-3.063,6.827-6.827,6.827s-6.827-3.063-6.827-6.827V137.16h13.653V403.4z"/>
	</g>
</g>
<g>
	<g>
		<path d="M147.626,239.56V403.4c0,11.293,9.187,20.48,20.48,20.48c11.295,0,20.48-9.187,20.48-20.48V239.56H147.626z
			 M174.932,403.4c0,3.763-3.063,6.827-6.827,6.827c-3.763,0-6.827-3.063-6.827-6.827V253.213h13.653V403.4z"/>
	</g>
</g>
<g>
	<g>
		<path d="M106.666,27.933V96.2c0,15.056-12.25,27.307-27.307,27.307S52.052,111.256,52.052,96.2V27.933H38.399V96.2
			c0,22.586,18.374,40.96,40.96,40.96c22.588,0,40.96-18.374,40.96-40.96V27.933H106.666z"/>
	</g>
</g>
<g>
	<g>
		<rect x="72.539" y="27.926" width="13.653" height="102.4"/>
	</g>
</g>
<g>
	<g>
		<path d="M181.759,27.933c-22.883,0-42.344,17.113-45.317,40.323l-9.286,177.773c-0.099,1.87,0.577,3.697,1.867,5.057
			c1.287,1.357,3.075,2.127,4.949,2.127h47.787c3.77,0,6.827-3.057,6.827-6.827V34.76C188.586,30.99,185.529,27.933,181.759,27.933z
			 M174.932,239.56h-33.766l8.863-170.074c1.754-13.59,11.964-24.323,24.904-27.16V239.56z"/>
	</g>
</g>
<g>
	<g>
		<path d="M325.119,0c-44.573,0-80.84,36.267-80.84,80.84s36.267,80.84,80.84,80.84c44.575,0,80.84-36.267,80.84-80.84
			C405.959,36.267,369.692,0,325.119,0z M325.119,148.48c-37.297,0-67.64-30.343-67.64-67.64s30.343-67.64,67.64-67.64
			c37.297,0,67.64,30.343,67.64,67.64S362.417,148.48,325.119,148.48z"/>
	</g>
</g>
<g>
	<g>
		<path d="M358.106,104.173l-56.32-56.32c-2.666-2.666-6.987-2.666-9.653,0c-2.666,2.666-2.666,6.987,0,9.653l56.32,56.32
			c1.333,1.333,3.081,2,4.826,2c1.748,0,3.494-0.667,4.826-2C360.771,111.16,360.771,106.839,358.106,104.173z"/>
	</g>
</g>
<g>
	<g>
		<path d="M358.106,47.853c-2.666-2.666-6.987-2.666-9.653,0l-56.32,56.32c-2.666,2.666-2.666,6.987,0,9.653
			c1.333,1.333,3.081,2,4.826,2c1.748,0,3.494-0.667,4.826-2l56.32-56.32C360.771,54.84,360.771,50.519,358.106,47.853z"/>
	</g>
</g>
<g>
</g>
<g>
</g>
<g>
</g>
<g>
</g>
<g>
</g>
<g>
</g>
<g>
</g>
<g>
</g>
<g>
</g>
<g>
</g>
<g>
</g>
<g>
</g>
<g>
</g>
<g>
</g>
<g>
</g>
</svg>
