<?xml version="1.0" encoding="iso-8859-1"?>
<!-- Generator: Adobe Illustrator 19.0.0, SVG Export Plug-In . SVG Version: 6.00 Build 0)  -->
<svg version="1.1" id="Capa_1" xmlns="http://www.w3.org/2000/svg" xmlns:xlink="http://www.w3.org/1999/xlink" x="0px" y="0px"
	 viewBox="0 0 410.226 410.226" style="enable-background:new 0 0 410.226 410.226;" xml:space="preserve">
<g>
	<g>
		<path d="M142.621,369.347c-20.294-5.891-39.13-15.425-55.987-28.331c-2.987-2.297-7.279-1.72-9.569,1.27
			c-2.294,2.992-1.724,7.276,1.27,9.569c18.205,13.94,38.554,24.238,60.481,30.604c0.637,0.183,1.277,0.273,1.906,0.273
			c2.959,0,5.687-1.939,6.554-4.925C148.325,374.187,146.241,370.4,142.621,369.347z"/>
	</g>
</g>
<g>
	<g>
		<path d="M144.657,33.717c-1.106-3.603-4.92-5.623-8.53-4.523C58.276,53.094,5.973,123.918,5.973,205.425
			c0,42.597,14.874,84.144,41.88,116.99c1.35,1.64,3.307,2.49,5.277,2.49c1.527,0,3.063-0.509,4.335-1.555
			c2.91-2.393,3.33-6.697,0.937-9.61c-25.004-30.408-38.774-68.874-38.774-108.317c0-75.472,48.427-141.046,120.506-163.176
			C143.737,41.141,145.763,37.32,144.657,33.717z"/>
	</g>
</g>
<g>
	<g>
		<path d="M262.755,35.896c-22.932-9.813-47.314-14.79-72.46-14.79c-6.511,0-13.075,0.345-19.514,1.021
			c-3.751,0.396-6.47,3.753-6.077,7.503c0.393,3.748,3.676,6.421,7.503,6.077c5.966-0.63,12.054-0.947,18.087-0.947
			c23.291,0,45.86,4.606,67.087,13.689c0.876,0.374,1.787,0.553,2.683,0.553c2.65,0,5.171-1.553,6.282-4.142
			C267.829,41.393,266.221,37.379,262.755,35.896z"/>
	</g>
</g>
<g>
	<g>
		<path d="M364.257,144.367c-1.248-3.56-5.147-5.432-8.701-4.18c-3.557,1.248-5.429,5.144-4.18,8.701
			c6.359,18.126,9.583,37.147,9.583,56.537c0,94.107-76.559,170.667-170.667,170.667c-6.586,0-13.213-0.379-19.703-1.126
			c-3.674-0.41-7.13,2.255-7.564,6.004c-0.43,3.748,2.258,7.13,6.004,7.564c7.004,0.804,14.157,1.213,21.263,1.213
			c101.634,0,184.32-82.688,184.32-184.323C374.613,184.491,371.13,163.947,364.257,144.367z"/>
	</g>
</g>
<g>
	<g>
		<path d="M88.474,261.164l-11.967,6.567c13.757,25.073,35.741,45.174,61.894,56.6l5.466-12.513
			C120.463,301.594,100.791,283.604,88.474,261.164z"/>
	</g>
</g>
<g>
	<g>
		<path d="M254.78,92.863c-19.536-11.216-41.834-17.143-64.486-17.143c-47.37,0-90.97,25.82-113.78,67.386
			c-1.816,3.304-0.608,7.455,2.7,9.267c1.039,0.573,2.167,0.843,3.277,0.843c2.413,0,4.751-1.28,5.99-3.541
			c20.417-37.193,59.426-60.3,101.813-60.3c20.27,0,40.221,5.299,57.687,15.329c3.273,1.872,7.443,0.746,9.32-2.521
			C259.176,98.913,258.05,94.74,254.78,92.863z"/>
	</g>
</g>
<g>
	<g>
		<path d="M307.86,150.571c-1.592-3.417-5.67-4.878-9.073-3.294c-3.417,1.596-4.891,5.656-3.294,9.073
			c7.199,15.409,10.853,31.923,10.853,49.077c0,63.993-52.06,116.053-116.053,116.053c-5.963,0-11.936-0.454-17.763-1.35
			c-3.71-0.56-7.211,1.981-7.784,5.707c-0.573,3.726,1.983,7.212,5.711,7.786c6.506,1.004,13.181,1.51,19.837,1.51
			c71.521,0,129.707-58.187,129.707-129.705C320,186.26,315.918,167.805,307.86,150.571z"/>
	</g>
</g>
<g>
	<g>
		<path d="M323.413,0c-44.573,0-80.84,36.267-80.84,80.84s36.267,80.84,80.84,80.84c44.575,0,80.84-36.267,80.84-80.84
			C404.253,36.267,367.986,0,323.413,0z M323.413,148.48c-37.297,0-67.64-30.343-67.64-67.64s30.343-67.64,67.64-67.64
			s67.64,30.343,67.64,67.64S360.711,148.48,323.413,148.48z"/>
	</g>
</g>
<g>
	<g>
		<path d="M355.014,46.783c-3.266-1.905-7.434-0.797-9.337,2.456L314.3,103.03l-14.22-14.217c-2.666-2.666-6.987-2.666-9.653,0
			c-2.666,2.666-2.666,6.987,0,9.653l20.48,20.48c1.287,1.29,3.026,2,4.826,2c0.29,0,0.584-0.021,0.877-0.056
			c2.099-0.27,3.953-1.5,5.019-3.33l35.84-61.44C359.371,52.862,358.27,48.683,355.014,46.783z"/>
	</g>
</g>
<g>
	<g>
		<path d="M46.933,109.853v279.893c0,11.293,9.187,20.48,20.48,20.48c11.295,0,20.48-9.187,20.48-20.48V109.853H46.933z
			 M74.24,389.746c0,3.763-3.063,6.827-6.827,6.827s-6.827-3.063-6.827-6.827v-266.24H74.24V389.746z"/>
	</g>
</g>
<g>
	<g>
		<path d="M135.68,225.906v163.84c0,11.293,9.187,20.48,20.48,20.48c11.295,0,20.48-9.187,20.48-20.48v-163.84H135.68z
			 M162.987,389.746c0,3.763-3.063,6.827-6.827,6.827c-3.763,0-6.827-3.063-6.827-6.827V239.56h13.653V389.746z"/>
	</g>
</g>
<g>
	<g>
		<path d="M94.72,14.28v68.267c0,15.056-12.25,27.307-27.307,27.307s-27.307-12.25-27.307-27.307V14.28H26.453v68.267
			c0,22.586,18.374,40.96,40.96,40.96c22.588,0,40.96-18.374,40.96-40.96V14.28H94.72z"/>
	</g>
</g>
<g>
	<g>
		<rect x="60.594" y="14.273" width="13.653" height="102.4"/>
	</g>
</g>
<g>
	<g>
		<path d="M169.813,14.28c-22.883,0-42.344,17.113-45.317,40.323l-9.286,177.773c-0.099,1.87,0.577,3.697,1.867,5.057
			c1.287,1.357,3.075,2.127,4.949,2.127h47.787c3.77,0,6.827-3.057,6.827-6.827V21.106C176.64,17.336,173.583,14.28,169.813,14.28z
			 M162.987,225.906H129.22l8.863-170.075c1.754-13.59,11.964-24.323,24.904-27.16V225.906z"/>
	</g>
</g>
<g>
</g>
<g>
</g>
<g>
</g>
<g>
</g>
<g>
</g>
<g>
</g>
<g>
</g>
<g>
</g>
<g>
</g>
<g>
</g>
<g>
</g>
<g>
</g>
<g>
</g>
<g>
</g>
<g>
</g>
</svg>
