<?xml version="1.0" encoding="iso-8859-1"?>
<!-- Generator: Adobe Illustrator 19.0.0, SVG Export Plug-In . SVG Version: 6.00 Build 0)  -->
<svg version="1.1" id="Capa_1" xmlns="http://www.w3.org/2000/svg" xmlns:xlink="http://www.w3.org/1999/xlink" x="0px" y="0px"
	 viewBox="0 0 395.947 395.947" style="enable-background:new 0 0 395.947 395.947;" xml:space="preserve">
<g>
	<g>
		<path d="M344.209,78.93c-2.292-2.994-6.586-3.553-9.573-1.253c-2.99,2.295-3.55,6.583-1.253,9.573
			c23.066,30.017,35.256,65.944,35.256,103.897c0,39.554-13.839,78.107-38.97,108.559c-2.4,2.906-1.987,7.211,0.92,9.61
			c1.273,1.05,2.814,1.56,4.344,1.56c1.966,0,3.92-0.846,5.27-2.48c27.143-32.893,42.09-74.534,42.09-117.25
			C382.293,150.156,369.123,111.353,344.209,78.93z"/>
	</g>
</g>
<g>
	<g>
		<path d="M311.059,328.127c-2.289-3-6.569-3.577-9.566-1.28c-29.943,22.873-65.739,34.966-103.52,34.966
			c-37.49,0-73.064-11.923-102.874-34.48c-3.017-2.287-7.294-1.681-9.564,1.323c-2.277,3.007-1.685,7.291,1.323,9.564
			c32.203,24.366,70.625,37.246,111.116,37.246c40.803,0,79.466-13.059,111.805-37.774
			C312.776,335.408,313.349,331.121,311.059,328.127z"/>
	</g>
</g>
<g>
	<g>
		<path d="M297.073,35.707c-29.577-18.893-63.846-28.88-99.099-28.88c-101.634,0-184.32,82.686-184.32,184.32
			c0,42.216,13.891,81.944,40.166,114.876c1.35,1.69,3.336,2.57,5.34,2.57c1.493,0,2.997-0.486,4.253-1.49
			c2.947-2.354,3.43-6.646,1.08-9.593c-24.327-30.493-37.187-67.273-37.187-106.363c0-94.107,76.559-170.667,170.667-170.667
			c32.643,0,64.37,9.243,91.747,26.733c3.19,2.036,7.402,1.092,9.429-2.077C301.179,41.957,300.249,37.736,297.073,35.707z"/>
	</g>
</g>
<g>
	<g>
		<path d="M308.931,244.454c-3.297-1.824-7.458-0.625-9.274,2.679c-20.446,37.05-59.409,60.066-101.683,60.066
			c-42.849,0-82.067-23.48-102.34-61.28c-1.783-3.318-5.91-4.577-9.243-2.79c-3.323,1.784-4.57,5.92-2.79,9.243
			c22.658,42.24,66.483,68.48,114.374,68.48c47.247,0,90.79-25.719,113.637-67.125C313.435,250.428,312.235,246.274,308.931,244.454
			z"/>
	</g>
</g>
<g>
	<g>
		<path d="M296.05,106.261c-24.677-28.484-60.425-44.82-98.077-44.82c-48.727,0-92.908,26.911-115.294,70.229
			c-1.732,3.35-0.42,7.467,2.93,9.197c1,0.519,2.074,0.763,3.127,0.763c2.473,0,4.857-1.347,6.071-3.693
			c20.036-38.764,59.566-62.843,103.166-62.843c33.69,0,65.676,14.616,87.757,40.108c2.464,2.854,6.777,3.156,9.631,0.689
			C298.211,113.42,298.52,109.111,296.05,106.261z"/>
	</g>
</g>
<g>
	<g>
		<path d="M54.613,95.573v279.893c0,11.293,9.187,20.48,20.48,20.48s20.48-9.187,20.48-20.48V95.573H54.613z M81.92,375.467
			c0,3.763-3.063,6.827-6.827,6.827s-6.827-3.063-6.827-6.827v-266.24H81.92V375.467z"/>
	</g>
</g>
<g>
	<g>
		<path d="M300.373,211.627v163.84c0,11.293,9.187,20.48,20.48,20.48s20.48-9.187,20.48-20.48v-163.84H300.373z M327.68,375.467
			c0,3.763-3.063,6.827-6.827,6.827s-6.827-3.063-6.827-6.827V225.28h13.653V375.467z"/>
	</g>
</g>
<g>
	<g>
		<path d="M102.4,0v68.267c0,15.056-12.25,27.307-27.307,27.307s-27.307-12.25-27.307-27.307V0H34.133v68.267
			c0,22.586,18.374,40.96,40.96,40.96c22.586,0,40.96-18.374,40.96-40.96V0H102.4z"/>
	</g>
</g>
<g>
	<g>
		<rect x="68.267" y="0" width="13.653" height="102.4"/>
	</g>
</g>
<g>
	<g>
		<path d="M334.507,0c-22.883,0-42.344,17.113-45.317,40.323l-9.286,177.773c-0.099,1.871,0.577,3.697,1.867,5.057
			c1.287,1.357,3.075,2.127,4.949,2.127h47.787c3.77,0,6.827-3.057,6.827-6.827V6.827C341.333,3.057,338.277,0,334.507,0z
			 M327.68,211.627h-33.766l8.863-170.073c1.754-13.59,11.964-24.323,24.904-27.16V211.627z"/>
	</g>
</g>
<g>
</g>
<g>
</g>
<g>
</g>
<g>
</g>
<g>
</g>
<g>
</g>
<g>
</g>
<g>
</g>
<g>
</g>
<g>
</g>
<g>
</g>
<g>
</g>
<g>
</g>
<g>
</g>
<g>
</g>
</svg>
