<?xml version="1.0" encoding="iso-8859-1"?>
<!-- Generator: Adobe Illustrator 19.0.0, SVG Export Plug-In . SVG Version: 6.00 Build 0)  -->
<svg version="1.1" id="Capa_1" xmlns="http://www.w3.org/2000/svg" xmlns:xlink="http://www.w3.org/1999/xlink" x="0px" y="0px"
	 viewBox="0 0 436.907 436.907" style="enable-background:new 0 0 436.907 436.907;" xml:space="preserve">
<g>
	<g>
		<path d="M400.773,213.627L286.17,99.021c-2.666-2.666-6.987-2.666-9.653,0c-2.666,2.666-2.666,6.987,0,9.653l109.776,109.78
			L275.067,329.68c-2.666,2.666-2.666,6.987,0,9.653c1.333,1.333,3.081,2,4.826,2s3.494-0.667,4.826-2L400.773,223.28
			C403.439,220.614,403.439,216.293,400.773,213.627z"/>
	</g>
</g>
<g>
	<g>
		<path d="M254,360.4c-2.666-2.666-6.987-2.666-9.653,0l-25.894,25.894l-19.057-19.053c-2.666-2.666-6.987-2.666-9.653,0
			c-2.666,2.666-2.666,6.987,0,9.653l23.883,23.88c1.333,1.333,3.081,2,4.826,2s3.494-0.667,4.826-2l30.72-30.72
			C256.666,367.387,256.666,363.066,254,360.4z"/>
	</g>
</g>
<g>
	<g>
		<path d="M242.256,55.107L223.28,36.134c-2.666-2.666-6.987-2.666-9.653,0L36.134,213.627c-2.666,2.666-2.666,6.987,0,9.653
			l122.033,122.034c1.333,1.333,3.081,2,4.826,2s3.494-0.667,4.826-2c2.666-2.666,2.666-6.987,0-9.653L50.613,218.453l167.84-167.84
			l14.15,14.147c2.666,2.666,6.987,2.666,9.653,0C244.922,62.094,244.922,57.772,242.256,55.107z"/>
	</g>
</g>
<g>
	<g>
		<path d="M352.986,213.627l-64.807-64.807c-2.666-2.666-6.987-2.666-9.653,0c-2.666,2.666-2.666,6.987,0,9.653l59.981,59.981
			l-60.723,60.727c-2.666,2.666-2.666,6.987,0,9.653c1.333,1.333,3.081,2,4.826,2c1.746,0,3.494-0.666,4.826-2l65.55-65.553
			C355.652,220.614,355.652,216.293,352.986,213.627z"/>
	</g>
</g>
<g>
	<g>
		<path d="M254,312.614c-2.666-2.666-6.987-2.666-9.653,0l-25.894,25.894l-19.084-19.081c-2.666-2.666-6.987-2.666-9.653,0
			c-2.666,2.666-2.666,6.987,0,9.653l23.91,23.907c1.333,1.333,3.081,2,4.826,2s3.494-0.667,4.826-2l30.72-30.72
			C256.666,319.601,256.666,315.279,254,312.614z"/>
	</g>
</g>
<g>
	<g>
		<path d="M240.311,100.953L223.28,83.92c-1.28-1.28-3.016-2-4.826-2s-3.546,0.72-4.826,2L83.92,213.627
			c-2.666,2.666-2.666,6.987,0,9.653l71.847,71.847c1.333,1.333,3.081,2,4.826,2c1.746,0,3.494-0.667,4.826-2
			c2.666-2.666,2.666-6.987,0-9.653L98.4,218.453L218.453,98.4l12.204,12.206c2.666,2.666,6.987,2.666,9.653,0
			C242.976,107.94,242.976,103.619,240.311,100.953z"/>
	</g>
</g>
<g>
	<g>
		<path d="M191.147,136.533H163.84c-3.77,0-6.827,3.053-6.827,6.827v273.067c0,11.293,9.187,20.48,20.48,20.48
			c11.293,0,20.48-9.187,20.48-20.48V143.36C197.973,139.587,194.917,136.533,191.147,136.533z M184.32,416.427
			c0,3.767-3.063,6.827-6.827,6.827c-3.763,0-6.827-3.06-6.827-6.827v-266.24h13.653V416.427z"/>
	</g>
</g>
<g>
	<g>
		<path d="M279.893,211.627h-27.307c-3.77,0-6.827,3.053-6.827,6.827v197.973c0,11.293,9.187,20.48,20.48,20.48
			s20.48-9.187,20.48-20.48V218.453C286.72,214.68,283.663,211.627,279.893,211.627z M273.067,416.427
			c0,3.767-3.063,6.827-6.827,6.827s-6.827-3.06-6.827-6.827V225.28h13.653V416.427z"/>
	</g>
</g>
<g>
	<g>
		<path d="M204.8,6.827v102.4c0,15.06-12.25,27.307-27.307,27.307s-27.307-12.247-27.307-27.307V6.827h-13.653v102.4
			c0,22.586,18.374,40.96,40.96,40.96c22.586,0,40.96-18.374,40.96-40.96V6.827H204.8z"/>
	</g>
</g>
<g>
	<g>
		<rect x="170.667" y="6.827" width="13.653" height="136.533"/>
	</g>
</g>
<g>
	<g>
		<path d="M279.893,0c-22.883,0-42.344,17.113-45.317,40.327L225.29,218.1c-0.099,1.867,0.577,3.693,1.867,5.053
			c1.287,1.36,3.075,2.127,4.949,2.127h47.787c3.77,0,6.827-3.053,6.827-6.827V6.827C286.72,3.053,283.663,0,279.893,0z
			 M273.067,211.627H239.3l8.863-170.073c1.754-13.587,11.964-24.327,24.904-27.16V211.627z"/>
	</g>
</g>
<g>
</g>
<g>
</g>
<g>
</g>
<g>
</g>
<g>
</g>
<g>
</g>
<g>
</g>
<g>
</g>
<g>
</g>
<g>
</g>
<g>
</g>
<g>
</g>
<g>
</g>
<g>
</g>
<g>
</g>
</svg>
