<?xml version="1.0" encoding="iso-8859-1"?>
<!-- Generator: Adobe Illustrator 19.0.0, SVG Export Plug-In . SVG Version: 6.00 Build 0)  -->
<svg version="1.1" id="Capa_1" xmlns="http://www.w3.org/2000/svg" xmlns:xlink="http://www.w3.org/1999/xlink" x="0px" y="0px"
	 viewBox="0 0 395.947 395.947" style="enable-background:new 0 0 395.947 395.947;" xml:space="preserve">
<g>
	<g>
		<path d="M383.672,254.133c-2.333-2.949-6.634-3.456-9.586-1.13c-2.959,2.336-3.466,6.63-1.133,9.59
			c6.2,7.851,9.341,15.971,9.341,24.127c0,42.557-84.407,78.507-184.32,78.507s-184.32-35.949-184.32-78.507
			c0-8.523,3.427-16.997,10.194-25.187c2.4-2.906,1.987-7.211-0.92-9.61c-2.92-2.406-7.214-1.99-9.614,0.916
			C4.48,263.54,0,274.941,0,286.72c0,51.68,86.96,92.16,197.973,92.16s197.973-40.48,197.973-92.16
			C395.947,275.417,391.82,264.453,383.672,254.133z"/>
	</g>
</g>
<g>
	<g>
		<path d="M384.573,193.855c-2.273-3.012-6.574-3.606-9.561-1.33c-3.012,2.275-3.606,6.557-1.333,9.564
			c5.714,7.56,8.614,15.363,8.614,23.19c0,42.554-84.407,78.507-184.32,78.507s-184.32-35.953-184.32-78.507
			c0-7.834,2.9-15.637,8.619-23.192c2.273-3.007,1.681-7.291-1.326-9.564c-3.012-2.28-7.293-1.681-9.566,1.323
			C3.826,203.831,0,214.407,0,225.28c0,51.68,86.96,92.16,197.973,92.16s197.973-40.48,197.973-92.16
			C395.947,214.414,392.12,203.843,384.573,193.855z"/>
	</g>
</g>
<g>
	<g>
		<path d="M383.08,137.337c-2.381-2.924-6.673-3.388-9.6-1.01c-2.934,2.374-3.388,6.673-1.014,9.603
			c6.519,8.05,9.827,16.374,9.827,24.736c0,42.557-84.407,78.507-184.32,78.507s-184.32-35.949-184.32-78.507
			c0-8.323,3.273-16.604,9.728-24.612c2.365-2.934,1.906-7.233-1.027-9.6c-2.953-2.371-7.247-1.905-9.6,1.033
			C4.294,147.983,0,159.147,0,170.667c0,51.68,86.96,92.16,197.973,92.16s197.973-40.48,197.973-92.16
			C395.947,159.094,391.62,147.879,383.08,137.337z"/>
	</g>
</g>
<g>
	<g>
		<path d="M197.973,17.067C86.96,17.067,0,57.547,0,109.227c0,51.68,86.96,92.16,197.973,92.16s197.973-40.48,197.973-92.16
			S308.987,17.067,197.973,17.067z M197.973,187.733c-99.913,0-184.32-35.953-184.32-78.507S98.06,30.72,197.973,30.72
			s184.32,35.953,184.32,78.507S297.887,187.733,197.973,187.733z"/>
	</g>
</g>
<g>
	<g>
		<path d="M197.973,58.027c-56.26,0-116.053,16.746-116.053,47.787c0,31.041,59.793,47.787,116.053,47.787
			s116.053-16.746,116.053-47.787C314.027,74.772,254.234,58.027,197.973,58.027z M197.973,139.947
			c-58.607,0-102.4-18.021-102.4-34.133c0-16.113,43.793-34.133,102.4-34.133s102.4,18.021,102.4,34.133
			C300.373,121.926,256.58,139.947,197.973,139.947z"/>
	</g>
</g>
<g>
</g>
<g>
</g>
<g>
</g>
<g>
</g>
<g>
</g>
<g>
</g>
<g>
</g>
<g>
</g>
<g>
</g>
<g>
</g>
<g>
</g>
<g>
</g>
<g>
</g>
<g>
</g>
<g>
</g>
</svg>
