<?xml version="1.0" encoding="iso-8859-1"?>
<!-- Generator: Adobe Illustrator 19.0.0, SVG Export Plug-In . SVG Version: 6.00 Build 0)  -->
<svg version="1.1" id="Capa_1" xmlns="http://www.w3.org/2000/svg" xmlns:xlink="http://www.w3.org/1999/xlink" x="0px" y="0px"
	 viewBox="0 0 395.947 395.947" style="enable-background:new 0 0 395.947 395.947;" xml:space="preserve">
<g>
	<g>
		<path d="M383.674,254.133c-2.33-2.959-6.634-3.459-9.586-1.133c-2.959,2.333-3.466,6.627-1.133,9.586
			c6.197,7.861,9.341,15.974,9.341,24.134c0,42.554-84.407,78.507-184.32,78.507s-184.32-35.953-184.32-78.507
			c0-8.1,3.099-16.167,9.216-23.967c2.326-2.966,1.806-7.26-1.164-9.586c-2.949-2.326-7.257-1.799-9.583,1.161
			C4.081,264.593,0,275.494,0,286.72c0,51.68,86.96,92.16,197.973,92.16s197.973-40.48,197.973-92.16
			C395.947,275.42,391.817,264.453,383.674,254.133z"/>
	</g>
</g>
<g>
	<g>
		<path d="M386.14,196.021c-2.156-3.092-6.412-3.854-9.503-1.7c-3.096,2.152-3.857,6.407-1.703,9.499
			c4.883,7.013,7.359,14.234,7.359,21.46c0,42.554-84.407,78.507-184.32,78.507s-184.32-35.953-184.32-78.507
			c0-7.354,2.56-14.693,7.61-21.82c2.181-3.074,1.454-7.334-1.623-9.513c-3.074-2.193-7.34-1.461-9.516,1.62
			C3.406,205.047,0,215.04,0,225.28c0,51.68,86.96,92.16,197.973,92.16s197.973-40.48,197.973-92.16
			C395.947,215.207,392.646,205.367,386.14,196.021z"/>
	</g>
</g>
<g>
	<g>
		<path d="M383.913,138.387c-2.316-2.98-6.617-3.499-9.583-1.179c-2.973,2.313-3.499,6.607-1.183,9.58
			c6.069,7.779,9.146,15.812,9.146,23.88c0,24.407-28.244,47.966-75.554,63.027c-3.594,1.147-5.581,4.987-4.437,8.579
			c0.927,2.9,3.615,4.753,6.504,4.753c0.688,0,1.388-0.099,2.074-0.319c54.06-17.207,85.067-44.928,85.067-76.041
			C395.947,159.486,391.897,148.627,383.913,138.387z"/>
	</g>
</g>
<g>
	<g>
		<path d="M277.873,248.281c-0.69-3.714-4.246-6.207-7.956-5.473c-22.816,4.226-47.022,6.366-71.943,6.366
			c-99.913,0-184.32-35.953-184.32-78.507c0-8.26,3.224-16.473,9.576-24.428c2.354-2.941,1.874-7.24-1.07-9.593
			c-2.953-2.36-7.243-1.874-9.597,1.073C4.227,148.147,0,159.234,0,170.667c0,51.68,86.96,92.16,197.973,92.16
			c25.754,0,50.794-2.22,74.429-6.593C276.11,255.548,278.559,251.988,277.873,248.281z"/>
	</g>
</g>
<g>
	<g>
		<path d="M277.873,186.841c-0.69-3.707-4.246-6.207-7.956-5.473c-22.816,4.226-47.022,6.366-71.943,6.366
			c-20,0-39.663-1.394-58.436-4.134c-3.733-0.64-7.2,2.033-7.74,5.767c-0.546,3.732,2.036,7.194,5.767,7.74
			c19.425,2.84,39.75,4.28,60.409,4.28c25.754,0,50.794-2.22,74.43-6.593C276.11,194.108,278.559,190.548,277.873,186.841z"/>
	</g>
</g>
<g>
	<g>
		<path d="M197.973,17.067C86.96,17.067,0,57.547,0,109.227c0,33.386,36.372,63.153,97.3,79.626
			c0.597,0.167,1.196,0.241,1.787,0.241c3.009,0,5.763-2,6.586-5.047c0.985-3.639-1.169-7.386-4.806-8.366
			c-53.798-14.548-87.214-40.015-87.214-66.454c0-42.554,84.407-78.507,184.32-78.507s184.32,35.953,184.32,78.507
			c0,24.107-27.703,47.493-74.107,62.561c-3.582,1.167-5.547,5.013-4.383,8.6c1.167,3.586,4.99,5.554,8.603,4.386
			c53.089-17.241,83.54-44.781,83.54-75.547C395.947,57.547,308.987,17.067,197.973,17.067z"/>
	</g>
</g>
<g>
	<g>
		<path d="M356.393,86.519c-4.907-7.868-20.35-10.68-55.4-14.374c-10.875-1.147-19.787-4.14-28.407-7.033
			c-9.373-3.147-18.229-6.12-28.643-6.533c-14.674-0.7-26.59,8.132-33.13,14.273c-8.468-8.38-25.612-22.072-42.633-16.399
			c-17.959,5.98-39.206,10.006-68.893,13.073c-30.121,3.115-42.513,7.054-43.814,33.881c-0.48,9.919,6.303,22.1,40.1,25.527v82.693
			c0,13.174,10.72,23.893,23.893,23.893s23.893-10.72,23.893-23.893V135.04c9.163,1.434,20.886,2.913,34.133,3.76v38.694
			c0,13.174,10.72,23.893,23.893,23.893s23.893-10.72,23.893-23.893v-38.934c12.684-0.927,26.407-2.519,40.96-4.746V245.76
			c0,13.174,10.72,23.893,23.893,23.893c13.174,0,23.893-10.72,23.892-23.893V124.926c3.294-0.7,6.25-1.347,8.81-1.906l5.717-1.234
			c17.328-3.666,27.008-9.153,30.461-17.266C362.503,96.319,357.903,88.946,356.393,86.519z M346.45,99.174
			c-0.381,0.894-3.168,5.54-20.724,9.254l-5.799,1.26c-3.866,0.84-8.639,1.879-14.119,3.026c-3.164,0.654-5.434,3.446-5.434,6.68
			V245.76c0,5.647-4.593,10.24-10.24,10.24c-5.647,0-10.24-4.593-10.24-10.24V125.814c0-2.007-0.882-3.907-2.41-5.207
			c-1.244-1.053-2.811-1.62-4.417-1.62c-0.37,0-0.744,0.032-1.114,0.094c-19.589,3.241-37.719,5.347-53.886,6.267
			c-3.613,0.2-6.439,3.193-6.439,6.813v45.332c0,5.647-4.593,10.24-10.24,10.24c-5.647,0-10.24-4.593-10.24-10.24V132.34
			c0-3.647-2.869-6.653-6.513-6.82c-19.598-0.899-36.314-3.36-46.891-5.267c-1.998-0.381-4.036,0.179-5.589,1.48
			c-1.551,1.299-2.447,3.219-2.447,5.24v84.654c0,5.647-4.593,10.24-10.24,10.24s-10.24-4.593-10.24-10.24v-88.987
			c0-3.606-2.804-6.586-6.403-6.815c-23.61-1.481-33.947-6.973-33.713-11.761c0.737-15.253,1.707-17.865,31.573-20.953
			c30.717-3.173,52.862-7.4,71.799-13.699c11.674-3.946,28.17,11.94,33.031,17.794c1.321,1.58,3.101,2.207,5.35,2.454
			c2.063-0.026,4.011-0.986,5.284-2.606c0.123-0.159,12.24-15.585,27.25-14.833c8.463,0.34,16.055,2.888,24.841,5.84
			c8.888,2.98,18.958,6.359,31.324,7.66c13.293,1.406,40.847,4.306,45.38,8.247C346.46,96.447,346.926,98.062,346.45,99.174z"/>
	</g>
</g>
<g>
</g>
<g>
</g>
<g>
</g>
<g>
</g>
<g>
</g>
<g>
</g>
<g>
</g>
<g>
</g>
<g>
</g>
<g>
</g>
<g>
</g>
<g>
</g>
<g>
</g>
<g>
</g>
<g>
</g>
</svg>
