<?xml version="1.0" encoding="iso-8859-1"?>
<!-- Generator: Adobe Illustrator 19.0.0, SVG Export Plug-In . SVG Version: 6.00 Build 0)  -->
<svg version="1.1" id="Capa_1" xmlns="http://www.w3.org/2000/svg" xmlns:xlink="http://www.w3.org/1999/xlink" x="0px" y="0px"
	 viewBox="0 0 436.907 436.907" style="enable-background:new 0 0 436.907 436.907;" xml:space="preserve">
<g>
	<g>
		<path d="M218.453,167.196c-112.927,0-204.8,91.873-204.8,204.8c0,3.77,3.053,6.827,6.827,6.827h395.947
			c3.773,0,6.827-3.057,6.827-6.827C423.253,259.069,331.38,167.196,218.453,167.196z M27.426,365.169
			c3.608-102.25,87.914-184.32,191.027-184.32s187.421,82.07,191.027,184.32H27.426z"/>
	</g>
</g>
<g>
	<g>
		<path d="M413.013,365.169H23.893C10.72,365.169,0,375.889,0,389.063c0,13.174,10.72,23.893,23.893,23.893h389.12
			c13.174,0,23.893-10.72,23.893-23.893C436.907,375.889,426.187,365.169,413.013,365.169z M413.013,399.303H23.893
			c-5.647,0-10.24-4.593-10.24-10.24c0-5.647,4.593-10.24,10.24-10.24h389.12c5.647,0,10.24,4.593,10.24,10.24
			C423.253,394.71,418.661,399.303,413.013,399.303z"/>
	</g>
</g>
<g>
	<g>
		<path d="M218.453,133.063c-3.773,0-6.827,3.057-6.827,6.827v34.133c0,3.77,3.053,6.827,6.827,6.827s6.827-3.057,6.827-6.827
			v-34.133C225.28,136.119,222.227,133.063,218.453,133.063z"/>
	</g>
</g>
<g>
	<g>
		<path d="M235.52,105.756h-34.133c-9.414,0-17.067,7.656-17.067,17.067s7.653,17.067,17.067,17.067h34.133
			c9.414,0,17.067-7.656,17.067-17.067S244.934,105.756,235.52,105.756z M235.52,126.236h-34.133c-1.881,0-3.413-1.529-3.413-3.413
			s1.533-3.413,3.413-3.413h34.133c1.881,0,3.413,1.529,3.413,3.413S237.401,126.236,235.52,126.236z"/>
	</g>
</g>
<g>
	<g>
		<path d="M197.879,209.291c-0.626-3.719-4.159-6.246-7.859-5.603c-49.579,8.317-92.773,38.007-118.513,81.454
			c-1.92,3.243-0.846,7.433,2.393,9.353c1.092,0.647,2.294,0.954,3.473,0.954c2.333,0,4.606-1.196,5.879-3.349
			c23.68-39.98,63.42-67.297,109.02-74.947C195.994,216.531,198.499,213.011,197.879,209.291z"/>
	</g>
</g>
<g>
	<g>
		<path d="M54.613,174.023c-3.773,0-6.827,3.057-6.827,6.827v13.653c0,3.77,3.053,6.827,6.827,6.827s6.827-3.057,6.827-6.827
			v-13.653C61.44,177.079,58.387,174.023,54.613,174.023z"/>
	</g>
</g>
<g>
	<g>
		<g>
			<path d="M54.613,122.876c-3.773,0-6.827,3.057-6.827,6.827v25.573c0,3.77,3.053,6.827,6.827,6.827s6.827-3.057,6.827-6.827
				v-25.573C61.44,125.932,58.387,122.876,54.613,122.876z"/>
			<path d="M66.796,78.287c-6.707,6.89-11.754,14.942-15.014,23.936c-1.28,3.543,0.553,7.46,4.093,8.743
				c0.773,0.276,1.553,0.41,2.326,0.41c2.792,0,5.412-1.727,6.42-4.506c2.553-7.057,6.687-13.647,11.96-19.057
				c2.627-2.703,2.574-7.023-0.133-9.653C73.748,75.527,69.436,75.587,66.796,78.287z"/>
			<path d="M117.833,57.968H114.9c-0.007,0-0.014,0-0.027,0c-8.472,0-16.739,1.567-24.579,4.657
				c-3.507,1.384-5.228,5.347-3.847,8.854c1.06,2.686,3.633,4.326,6.354,4.326c0.833,0,1.679-0.157,2.505-0.481
				c6.234-2.458,12.814-3.703,19.567-3.703c0.014,0,0.02,0,0.027,0h2.934c3.773,0,6.827-3.057,6.827-6.827
				C124.66,61.024,121.607,57.968,117.833,57.968z"/>
			<path d="M168.98,57.969h-25.573c-3.773,0-6.827,3.057-6.827,6.827c0,3.77,3.053,6.827,6.827,6.827h25.573
				c3.773,0,6.827-3.057,6.827-6.827C175.807,61.026,172.754,57.969,168.98,57.969z"/>
			<path d="M220.126,57.969h-25.573c-3.773,0-6.827,3.057-6.827,6.827c0,3.77,3.053,6.827,6.827,6.827h25.573
				c3.773,0,6.827-3.057,6.827-6.827C226.953,61.026,223.899,57.969,220.126,57.969z"/>
		</g>
	</g>
</g>
<g>
	<g>
		<path d="M259.413,57.969H245.76c-3.773,0-6.827,3.057-6.827,6.827c0,3.77,3.053,6.827,6.827,6.827h13.653
			c3.773,0,6.827-3.057,6.827-6.827C266.24,61.026,263.187,57.969,259.413,57.969z"/>
	</g>
</g>
<g>
	<g>
		<path d="M375.467,71.623H348.16c-3.773,0-6.827,3.057-6.827,6.827v88.747c0,3.77,3.053,6.827,6.827,6.827h27.307
			c3.773,0,6.827-3.057,6.827-6.827V78.449C382.293,74.679,379.24,71.623,375.467,71.623z M368.64,160.369h-13.653V85.276h13.653
			V160.369z"/>
	</g>
</g>
<g>
	<g>
		<path d="M407.953,74.007l-40.96-47.787c-2.586-3.026-7.772-3.026-10.359,0l-40.96,47.787c-1.741,2.022-2.133,4.873-1.021,7.296
			c1.114,2.42,3.534,3.973,6.2,3.973h81.92c2.666,0,5.086-1.553,6.2-3.973C410.086,78.879,409.694,76.031,407.953,74.007z
			 M335.693,71.623l26.12-30.471l26.119,30.471H335.693z"/>
	</g>
</g>
<g>
</g>
<g>
</g>
<g>
</g>
<g>
</g>
<g>
</g>
<g>
</g>
<g>
</g>
<g>
</g>
<g>
</g>
<g>
</g>
<g>
</g>
<g>
</g>
<g>
</g>
<g>
</g>
<g>
</g>
</svg>
