<?xml version="1.0" encoding="iso-8859-1"?>
<!-- Generator: Adobe Illustrator 19.0.0, SVG Export Plug-In . SVG Version: 6.00 Build 0)  -->
<svg version="1.1" id="Capa_1" xmlns="http://www.w3.org/2000/svg" xmlns:xlink="http://www.w3.org/1999/xlink" x="0px" y="0px"
	 viewBox="0 0 436.907 436.907" style="enable-background:new 0 0 436.907 436.907;" xml:space="preserve">
<g>
	<g>
		<path d="M218.453,167.253c-112.927,0-204.8,91.873-204.8,204.8c0,3.77,3.053,6.827,6.827,6.827h395.947
			c3.773,0,6.827-3.057,6.827-6.827C423.253,259.127,331.38,167.253,218.453,167.253z M27.426,365.227
			c3.608-102.25,87.914-184.32,191.027-184.32s187.421,82.07,191.027,184.32H27.426z"/>
	</g>
</g>
<g>
	<g>
		<path d="M413.013,365.227H23.893C10.72,365.227,0,375.946,0,389.12s10.72,23.893,23.893,23.893h389.12
			c13.174,0,23.893-10.72,23.893-23.893S426.187,365.227,413.013,365.227z M413.013,399.36H23.893c-5.647,0-10.24-4.593-10.24-10.24
			c0-5.647,4.593-10.24,10.24-10.24h389.12c5.647,0,10.24,4.593,10.24,10.24C423.253,394.767,418.661,399.36,413.013,399.36z"/>
	</g>
</g>
<g>
	<g>
		<path d="M218.453,133.12c-3.773,0-6.827,3.057-6.827,6.827v34.133c0,3.77,3.053,6.827,6.827,6.827s6.827-3.057,6.827-6.827
			v-34.133C225.28,136.177,222.227,133.12,218.453,133.12z"/>
	</g>
</g>
<g>
	<g>
		<path d="M235.52,105.813h-34.133c-9.414,0-17.067,7.656-17.067,17.067c0,9.411,7.653,17.067,17.067,17.067h34.133
			c9.414,0,17.067-7.656,17.067-17.067C252.587,113.469,244.934,105.813,235.52,105.813z M235.52,126.293h-34.133
			c-1.881,0-3.413-1.529-3.413-3.413s1.533-3.413,3.413-3.413h34.133c1.881,0,3.413,1.529,3.413,3.413
			S237.401,126.293,235.52,126.293z"/>
	</g>
</g>
<g>
	<g>
		<path d="M197.879,209.348c-0.626-3.719-4.146-6.246-7.859-5.603c-49.579,8.317-92.773,38.007-118.513,81.454
			c-1.92,3.243-0.846,7.432,2.393,9.353c1.092,0.647,2.294,0.954,3.473,0.954c2.333,0,4.606-1.196,5.879-3.349
			c23.68-39.98,63.42-67.297,109.02-74.947C195.994,216.588,198.499,213.069,197.879,209.348z"/>
	</g>
</g>
<g>
	<g>
		<path d="M54.613,174.08c-3.773,0-6.827,3.057-6.827,6.827v13.653c0,3.77,3.053,6.827,6.827,6.827s6.827-3.057,6.827-6.827v-13.653
			C61.44,177.137,58.387,174.08,54.613,174.08z"/>
	</g>
</g>
<g>
	<g>
		<g>
			<path d="M66.796,78.345c-6.707,6.89-11.754,14.942-15.014,23.936c-1.28,3.543,0.553,7.46,4.093,8.743
				c0.773,0.276,1.553,0.41,2.326,0.41c2.792,0,5.412-1.727,6.42-4.506c2.553-7.057,6.687-13.646,11.96-19.057
				c2.627-2.703,2.574-7.023-0.133-9.653C73.748,75.585,69.436,75.645,66.796,78.345z"/>
			<path d="M54.613,122.933c-3.773,0-6.827,3.057-6.827,6.827v25.574c0,3.77,3.053,6.827,6.827,6.827s6.827-3.057,6.827-6.828
				V129.76C61.44,125.99,58.387,122.933,54.613,122.933z"/>
			<path d="M117.835,58.027h-2.934c-0.007,0-0.014,0-0.027,0c-8.474,0-16.741,1.567-24.581,4.656
				c-3.507,1.384-5.228,5.347-3.847,8.854c1.06,2.686,3.633,4.326,6.354,4.326c0.833,0,1.679-0.157,2.507-0.48
				c6.234-2.458,12.814-3.703,19.567-3.703c0.014,0,0.02,0,0.027,0h2.934c3.773,0,6.827-3.057,6.827-6.827
				S121.609,58.027,117.835,58.027z"/>
			<path d="M220.126,58.027h-25.573c-3.773,0-6.827,3.057-6.827,6.827s3.053,6.827,6.827,6.827h25.573
				c3.773,0,6.827-3.057,6.827-6.827S223.899,58.027,220.126,58.027z"/>
			<path d="M168.98,58.027h-25.573c-3.773,0-6.827,3.057-6.827,6.827s3.053,6.827,6.827,6.827h25.573
				c3.773,0,6.827-3.057,6.827-6.827S172.754,58.027,168.98,58.027z"/>
		</g>
	</g>
</g>
<g>
	<g>
		<path d="M259.413,58.027H245.76c-3.773,0-6.827,3.057-6.827,6.827s3.053,6.827,6.827,6.827h13.653
			c3.773,0,6.827-3.057,6.827-6.827S263.187,58.027,259.413,58.027z"/>
	</g>
</g>
<g>
	<g>
		<path d="M419.019,75.404c-1.166-2.287-3.512-3.724-6.079-3.724h-55.433l24.564-37.197c1.388-2.097,1.507-4.787,0.321-6.997
			c-1.193-2.212-3.499-3.593-6.013-3.593h-56.286c-2.7,0-5.139,1.591-6.24,4.053L280.48,103.04c-0.94,2.115-0.746,4.559,0.514,6.494
			c1.259,1.935,3.413,3.106,5.726,3.106h55.646l-5.405,60.836c-0.273,3.06,1.533,5.924,4.413,6.997
			c0.78,0.294,1.586,0.433,2.386,0.433c2.14,0,4.221-1.01,5.526-2.823l69.18-95.573C419.973,80.434,420.186,77.687,419.019,75.404z
			 M352.751,150.014l3.874-43.597c0.167-1.906-0.473-3.801-1.766-5.214c-1.294-1.413-3.12-2.217-5.033-2.217h-52.599l27.302-61.44
			h39.166l-24.566,37.197c-1.388,2.097-1.507,4.787-0.321,6.997c1.193,2.212,3.499,3.593,6.013,3.593h54.753L352.751,150.014z"/>
	</g>
</g>
<g>
</g>
<g>
</g>
<g>
</g>
<g>
</g>
<g>
</g>
<g>
</g>
<g>
</g>
<g>
</g>
<g>
</g>
<g>
</g>
<g>
</g>
<g>
</g>
<g>
</g>
<g>
</g>
<g>
</g>
</svg>
