<?xml version="1.0" encoding="iso-8859-1"?>
<!-- Generator: Adobe Illustrator 19.0.0, SVG Export Plug-In . SVG Version: 6.00 Build 0)  -->
<svg version="1.1" id="Capa_1" xmlns="http://www.w3.org/2000/svg" xmlns:xlink="http://www.w3.org/1999/xlink" x="0px" y="0px"
	 viewBox="0 0 436.907 436.907" style="enable-background:new 0 0 436.907 436.907;" xml:space="preserve">
<g>
	<g>
		<path d="M319.36,91.307c-5.76-7.2-7.9-14.199-6.54-21.4c3.232-17.096,24.866-29.73,25.079-29.856
			c3.267-1.877,4.4-6.047,2.526-9.313c-1.886-3.277-6.054-4.39-9.306-2.533c-1.113,0.633-27.261,15.817-31.706,39.107
			c-2.133,11.211,0.988,22.154,9.281,32.524c24.593,30.739,19.413,54.572,19.193,55.52c-0.92,3.661,1.306,7.368,4.966,8.281
			c0.555,0.14,1.115,0.203,1.661,0.203c3.06,0,5.84-2.07,6.613-5.171C341.441,157.417,348.44,127.661,319.36,91.307z"/>
	</g>
</g>
<g>
	<g>
		<path d="M373.973,91.307c-5.76-7.2-7.9-14.199-6.54-21.4c3.232-17.096,24.866-29.73,25.079-29.856
			c3.267-1.877,4.4-6.047,2.526-9.313c-1.886-3.277-6.06-4.39-9.306-2.533c-1.113,0.633-27.261,15.817-31.706,39.107
			c-2.133,11.211,0.988,22.154,9.281,32.524c24.593,30.739,19.413,54.572,19.193,55.52c-0.92,3.661,1.306,7.368,4.966,8.281
			c0.555,0.14,1.115,0.203,1.661,0.203c3.06,0,5.84-2.07,6.613-5.171C396.054,157.417,403.053,127.661,373.973,91.307z"/>
	</g>
</g>
<g>
	<g>
		<path d="M218.453,163.839c-112.927,0-204.8,91.873-204.8,204.8c0,3.77,3.053,6.827,6.827,6.827h395.947
			c3.773,0,6.827-3.057,6.827-6.827C423.253,255.712,331.38,163.839,218.453,163.839z M27.426,361.812
			c3.608-102.25,87.914-184.32,191.027-184.32s187.421,82.07,191.027,184.32H27.426z"/>
	</g>
</g>
<g>
	<g>
		<path d="M413.013,361.812H23.893C10.72,361.812,0,372.532,0,385.706c0,13.174,10.72,23.893,23.893,23.893h389.12
			c13.174,0,23.893-10.72,23.893-23.893C436.907,372.532,426.187,361.812,413.013,361.812z M413.013,395.946H23.893
			c-5.647,0-10.24-4.593-10.24-10.24c0-5.647,4.593-10.24,10.24-10.24h389.12c5.647,0,10.24,4.593,10.24,10.24
			C423.253,391.353,418.661,395.946,413.013,395.946z"/>
	</g>
</g>
<g>
	<g>
		<path d="M218.453,129.706c-3.773,0-6.827,3.057-6.827,6.827v34.133c0,3.77,3.053,6.827,6.827,6.827s6.827-3.057,6.827-6.827
			v-34.133C225.28,132.762,222.227,129.706,218.453,129.706z"/>
	</g>
</g>
<g>
	<g>
		<path d="M235.52,102.399h-34.133c-9.414,0-17.067,7.656-17.067,17.067c0,9.411,7.653,17.067,17.067,17.067h34.133
			c9.414,0,17.067-7.656,17.067-17.067C252.587,110.055,244.934,102.399,235.52,102.399z M235.52,122.879h-34.133
			c-1.881,0-3.413-1.529-3.413-3.413s1.533-3.413,3.413-3.413h34.133c1.881,0,3.413,1.529,3.413,3.413
			S237.401,122.879,235.52,122.879z"/>
	</g>
</g>
<g>
	<g>
		<path d="M197.879,205.935c-0.626-3.719-4.152-6.246-7.859-5.603c-49.579,8.317-92.773,38.007-118.513,81.454
			c-1.92,3.243-0.846,7.432,2.393,9.353c1.092,0.647,2.294,0.954,3.473,0.954c2.333,0,4.606-1.198,5.879-3.349
			c23.68-39.98,63.42-67.297,109.02-74.947C195.994,213.175,198.499,209.656,197.879,205.935z"/>
	</g>
</g>
<g>
	<g>
		<path d="M54.613,170.666c-3.773,0-6.827,3.057-6.827,6.827v13.653c0,3.77,3.053,6.827,6.827,6.827s6.827-3.057,6.827-6.827
			v-13.653C61.44,173.722,58.387,170.666,54.613,170.666z"/>
	</g>
</g>
<g>
	<g>
		<g>
			<path d="M54.613,119.518c-3.773,0-6.827,3.057-6.827,6.827v25.574c0,3.77,3.053,6.827,6.827,6.827s6.827-3.057,6.827-6.828
				v-25.573C61.44,122.575,58.387,119.518,54.613,119.518z"/>
			<path d="M66.796,74.93c-6.707,6.89-11.754,14.942-15.014,23.936c-1.28,3.543,0.553,7.46,4.093,8.743
				c0.773,0.276,1.553,0.41,2.326,0.41c2.792,0,5.412-1.727,6.42-4.506c2.553-7.057,6.687-13.646,11.96-19.057
				c2.627-2.703,2.574-7.023-0.133-9.653C73.748,72.17,69.429,72.23,66.796,74.93z"/>
			<path d="M117.833,54.61H114.9c-0.007,0-0.014,0-0.027,0c-8.472,0-16.739,1.567-24.579,4.658
				c-3.507,1.384-5.228,5.347-3.847,8.854c1.06,2.686,3.633,4.326,6.354,4.326c0.833,0,1.679-0.157,2.505-0.481
				c6.234-2.458,12.814-3.703,19.567-3.703c0.014,0,0.02,0,0.027,0h2.934c3.773,0,6.827-3.057,6.827-6.827
				C124.66,57.667,121.607,54.61,117.833,54.61z"/>
			<path d="M168.98,54.612h-25.573c-3.773,0-6.827,3.057-6.827,6.827c0,3.77,3.053,6.827,6.827,6.827h25.573
				c3.773,0,6.827-3.057,6.827-6.827C175.807,57.669,172.754,54.612,168.98,54.612z"/>
			<path d="M220.126,54.612h-25.573c-3.773,0-6.827,3.057-6.827,6.827c0,3.77,3.053,6.827,6.827,6.827h25.573
				c3.773,0,6.827-3.057,6.827-6.827C226.953,57.669,223.899,54.612,220.126,54.612z"/>
		</g>
	</g>
</g>
<g>
	<g>
		<path d="M259.413,54.612H245.76c-3.773,0-6.827,3.057-6.827,6.827c0,3.77,3.053,6.827,6.827,6.827h13.653
			c3.773,0,6.827-3.057,6.827-6.827C266.24,57.669,263.187,54.612,259.413,54.612z"/>
	</g>
</g>
<g>
</g>
<g>
</g>
<g>
</g>
<g>
</g>
<g>
</g>
<g>
</g>
<g>
</g>
<g>
</g>
<g>
</g>
<g>
</g>
<g>
</g>
<g>
</g>
<g>
</g>
<g>
</g>
<g>
</g>
</svg>
