<?xml version="1.0" encoding="iso-8859-1"?>
<!-- Generator: Adobe Illustrator 19.0.0, SVG Export Plug-In . SVG Version: 6.00 Build 0)  -->
<svg version="1.1" id="Capa_1" xmlns="http://www.w3.org/2000/svg" xmlns:xlink="http://www.w3.org/1999/xlink" x="0px" y="0px"
	 viewBox="0 0 436.907 436.907" style="enable-background:new 0 0 436.907 436.907;" xml:space="preserve">
<g>
	<g>
		<path d="M218.453,160.282c-112.927,0-204.8,91.873-204.8,204.8c0,3.77,3.053,6.827,6.827,6.827h395.947
			c3.773,0,6.827-3.057,6.827-6.827C423.253,252.155,331.38,160.282,218.453,160.282z M27.426,358.255
			c3.608-102.25,87.914-184.32,191.027-184.32s187.421,82.07,191.027,184.32H27.426z"/>
	</g>
</g>
<g>
	<g>
		<path d="M413.013,358.255H23.893C10.72,358.255,0,368.975,0,382.149s10.72,23.893,23.893,23.893h389.12
			c13.174,0,23.893-10.72,23.893-23.893S426.187,358.255,413.013,358.255z M413.013,392.389H23.893
			c-5.647,0-10.24-4.593-10.24-10.24c0-5.647,4.593-10.24,10.24-10.24h389.12c5.647,0,10.24,4.593,10.24,10.24
			C423.253,387.796,418.661,392.389,413.013,392.389z"/>
	</g>
</g>
<g>
	<g>
		<path d="M218.453,126.149c-3.773,0-6.827,3.057-6.827,6.827v34.133c0,3.77,3.053,6.827,6.827,6.827s6.827-3.057,6.827-6.827
			v-34.133C225.28,129.205,222.227,126.149,218.453,126.149z"/>
	</g>
</g>
<g>
	<g>
		<path d="M235.52,98.842h-34.133c-9.414,0-17.067,7.656-17.067,17.067c0,9.411,7.653,17.067,17.067,17.067h34.133
			c9.414,0,17.067-7.656,17.067-17.067C252.587,106.498,244.934,98.842,235.52,98.842z M235.52,119.322h-34.133
			c-1.881,0-3.413-1.529-3.413-3.413s1.533-3.413,3.413-3.413h34.133c1.881,0,3.413,1.529,3.413,3.413
			S237.401,119.322,235.52,119.322z"/>
	</g>
</g>
<g>
	<g>
		<path d="M197.879,202.379c-0.626-3.719-4.166-6.246-7.859-5.603c-49.579,8.317-92.773,38.008-118.513,81.454
			c-1.92,3.243-0.846,7.432,2.393,9.353c1.092,0.647,2.294,0.954,3.473,0.954c2.333,0,4.606-1.198,5.879-3.349
			c23.68-39.98,63.42-67.297,109.02-74.947C195.994,209.618,198.499,206.099,197.879,202.379z"/>
	</g>
</g>
<g>
	<g>
		<path d="M406.861,52.059c-4.874-11.88-15.247-19.727-27.761-21c-11.366-1.147-23.014,2.843-31.241,10.684
			c-8.228-7.847-19.973-11.814-31.241-10.684c-12.506,1.273-22.881,9.124-27.761,21c-5.086,12.39-2.999,26.435,5.441,36.651
			l48.3,58.457c1.294,1.57,3.227,2.48,5.26,2.48c2.034,0,3.966-0.91,5.26-2.48l48.3-58.457
			C409.861,78.492,411.947,64.449,406.861,52.059z M390.9,80.016l-43.04,52.088l-43.04-52.088
			c-5.219-6.327-6.499-15.049-3.326-22.77c2.973-7.247,8.987-11.837,16.5-12.6c9.281-0.976,18.881,3.442,24.18,11.433
			c1.26,1.906,3.4,3.053,5.687,3.053s4.42-1.143,5.687-3.05c4.813-7.247,12.867-11.573,21.533-11.573
			c0.901,0,1.787,0.049,2.647,0.133c7.513,0.766,13.527,5.357,16.5,12.6C397.401,64.963,396.121,73.689,390.9,80.016z"/>
	</g>
</g>
<g>
	<g>
		<path d="M54.613,167.109c-3.773,0-6.827,3.057-6.827,6.827v13.653c0,3.77,3.053,6.827,6.827,6.827s6.827-3.057,6.827-6.827
			v-13.653C61.44,170.165,58.387,167.109,54.613,167.109z"/>
	</g>
</g>
<g>
	<g>
		<g>
			<path d="M117.833,51.054H114.9c-0.007,0-0.014,0-0.027,0c-8.472,0-16.739,1.567-24.579,4.657
				c-3.507,1.384-5.228,5.347-3.847,8.854c1.06,2.686,3.633,4.326,6.354,4.326c0.833,0,1.679-0.155,2.505-0.481
				c6.234-2.458,12.814-3.703,19.567-3.703c0.014,0,0.02,0,0.027,0h2.934c3.773,0,6.827-3.057,6.827-6.827
				S121.607,51.054,117.833,51.054z"/>
			<path d="M54.613,115.962c-3.773,0-6.827,3.057-6.827,6.827v25.574c0,3.77,3.053,6.827,6.827,6.827s6.827-3.057,6.827-6.828
				v-25.573C61.44,119.018,58.387,115.962,54.613,115.962z"/>
			<path d="M66.796,71.373c-6.707,6.89-11.754,14.942-15.014,23.936c-1.28,3.543,0.553,7.46,4.093,8.743
				c0.773,0.276,1.553,0.41,2.326,0.41c2.792,0,5.412-1.727,6.42-4.506C67.174,92.9,71.308,86.31,76.582,80.9
				c2.627-2.703,2.574-7.023-0.133-9.653C73.755,68.614,69.436,68.673,66.796,71.373z"/>
			<path d="M220.126,51.055h-25.573c-3.773,0-6.827,3.057-6.827,6.827s3.053,6.827,6.827,6.827h25.573
				c3.773,0,6.827-3.057,6.827-6.827S223.899,51.055,220.126,51.055z"/>
			<path d="M168.98,51.055h-25.573c-3.773,0-6.827,3.057-6.827,6.827s3.053,6.827,6.827,6.827h25.573
				c3.773,0,6.827-3.057,6.827-6.827S172.754,51.055,168.98,51.055z"/>
		</g>
	</g>
</g>
<g>
	<g>
		<path d="M259.413,51.055H245.76c-3.773,0-6.827,3.057-6.827,6.827s3.053,6.827,6.827,6.827h13.653
			c3.773,0,6.827-3.057,6.827-6.827S263.187,51.055,259.413,51.055z"/>
	</g>
</g>
<g>
</g>
<g>
</g>
<g>
</g>
<g>
</g>
<g>
</g>
<g>
</g>
<g>
</g>
<g>
</g>
<g>
</g>
<g>
</g>
<g>
</g>
<g>
</g>
<g>
</g>
<g>
</g>
<g>
</g>
</svg>
