<?xml version="1.0" encoding="iso-8859-1"?>
<!-- Generator: Adobe Illustrator 19.0.0, SVG Export Plug-In . SVG Version: 6.00 Build 0)  -->
<svg version="1.1" id="Capa_1" xmlns="http://www.w3.org/2000/svg" xmlns:xlink="http://www.w3.org/1999/xlink" x="0px" y="0px"
	 viewBox="0 0 436.907 436.907" style="enable-background:new 0 0 436.907 436.907;" xml:space="preserve">
<g>
	<g>
		<path d="M218.453,66.255c-112.927,0-204.8,91.873-204.8,204.8c0,3.77,3.057,6.827,6.827,6.827h395.947
			c3.773,0,6.827-3.057,6.827-6.827C423.253,158.128,331.38,66.255,218.453,66.255z M27.426,264.228
			c3.608-102.25,87.914-184.32,191.027-184.32s187.421,82.07,191.027,184.32H27.426z"/>
	</g>
</g>
<g>
	<g>
		<path d="M413.013,264.228H23.893C10.72,264.228,0,274.947,0,288.121s10.72,23.893,23.893,23.893h389.12
			c13.174,0,23.893-10.72,23.893-23.893S426.187,264.228,413.013,264.228z M413.013,298.361H23.893
			c-5.647,0-10.24-4.593-10.24-10.24s4.593-10.24,10.24-10.24h389.12c5.647,0,10.24,4.593,10.24,10.24
			S418.661,298.361,413.013,298.361z"/>
	</g>
</g>
<g>
	<g>
		<path d="M126.287,327.921c-7.1-11.817-22.496-15.657-34.326-8.557c-5.734,3.444-9.784,8.9-11.407,15.36
			c-1.623,6.48-0.616,13.216,2.843,18.97l9.783,16.28l11.699-7.033l-9.783-16.28c-1.574-2.62-2.038-5.68-1.3-8.614
			c0.737-2.93,2.58-5.41,5.193-6.977c5.364-3.224,12.37-1.487,15.594,3.883l21.067,35.063l11.708-7.031L126.287,327.921z"/>
	</g>
</g>
<g>
	<g>
		<path d="M251.942,353.275l1.533,0.846l77.906,0.177l0.027-13.653L257,340.475c-31.654-17.384-103.009-53.251-119.093-33.311
			c-3.557,4.41-4.791,9.627-3.56,15.087c3.041,13.513,21.528,26.214,34.094,33.447l-9.684,6.096l-66.28,1.2L63.36,347.628
			c-11.709-6.183-26.184-2.142-33.05,8.924l-0.046-0.024c-0.003,0.01-0.01,0.021-0.017,0.031l-0.749,1.403l0.046,0.024
			c-5.393,11.873-0.678,26.136,10.999,32.427l44.38,23.876l78.706,10.404c4.557,2.284,18.371,7.4,50.591,7.4
			c25.479,0,62.466-3.2,115.482-13.531l-2.613-13.401c-125.747,24.511-157.43,7.294-157.583,7.204l-1.294-0.84l-79.02-10.443
			l-42.177-22.694c-5.308-2.855-7.47-9.306-5.067-14.689c3.145-4.997,9.709-6.806,15.039-3.997l32.224,17.007l73.6-1.333
			l33.307-20.97l-11.104-5.357c-14.273-6.883-35.297-20.68-37.347-29.793c-0.309-1.374-0.067-2.36,0.867-3.517
			C151.738,311.731,186.071,316.896,251.942,353.275z"/>
	</g>
</g>
<g>
	<g>
		<path d="M389.513,318.841h-61.406c-3.773,0-6.827,3.057-6.827,6.827v95.573c0,3.77,3.053,6.827,6.827,6.827h61.406
			c3.773,0,6.827-3.057,6.827-6.827v-95.573C396.339,321.898,393.286,318.841,389.513,318.841z M382.686,414.415h-47.753v-81.92
			h47.753V414.415z"/>
	</g>
</g>
<g>
	<g>
		<path d="M197.881,108.351c-0.623-3.714-4.103-6.207-7.863-5.603c-49.584,8.317-92.778,38.008-118.508,81.454
			c-1.923,3.246-0.85,7.433,2.393,9.353c1.092,0.647,2.29,0.954,3.473,0.954c2.333,0,4.606-1.196,5.881-3.349
			c23.677-39.98,63.413-67.297,109.02-74.947C195.995,115.591,198.501,112.072,197.881,108.351z"/>
	</g>
</g>
<g>
	<g>
		<path d="M218.453,4.815c-22.586,0-40.96,18.374-40.96,40.96c0,11.936,5.193,23.253,14.247,31.053
			c2.854,2.466,7.161,2.144,9.627-0.72c2.459-2.857,2.14-7.168-0.72-9.627c-6.036-5.2-9.499-12.747-9.499-20.704
			c0-15.056,12.247-27.307,27.307-27.307s27.307,12.25,27.307,27.307c0,7.984-3.48,15.546-9.554,20.753
			c-2.867,2.454-3.2,6.764-0.741,9.627c1.347,1.572,3.26,2.383,5.18,2.383c1.574,0,3.154-0.541,4.439-1.645
			c9.107-7.803,14.328-19.145,14.328-31.119C259.413,23.189,241.039,4.815,218.453,4.815z"/>
	</g>
</g>
<g>
</g>
<g>
</g>
<g>
</g>
<g>
</g>
<g>
</g>
<g>
</g>
<g>
</g>
<g>
</g>
<g>
</g>
<g>
</g>
<g>
</g>
<g>
</g>
<g>
</g>
<g>
</g>
<g>
</g>
</svg>
