<?xml version="1.0" encoding="iso-8859-1"?>
<!-- Generator: Adobe Illustrator 19.0.0, SVG Export Plug-In . SVG Version: 6.00 Build 0)  -->
<svg version="1.1" id="Capa_1" xmlns="http://www.w3.org/2000/svg" xmlns:xlink="http://www.w3.org/1999/xlink" x="0px" y="0px"
	 viewBox="0 0 436.907 436.907" style="enable-background:new 0 0 436.907 436.907;" xml:space="preserve">
<g>
	<g>
		<path d="M218.453,68.267c-112.927,0-204.8,91.873-204.8,204.8c0,3.77,3.057,6.827,6.827,6.827h395.947
			c3.77,0,6.827-3.057,6.827-6.827C423.253,160.14,331.38,68.267,218.453,68.267z M27.426,266.24
			C31.034,163.99,115.34,81.92,218.453,81.92s187.419,82.07,191.027,184.32H27.426z"/>
	</g>
</g>
<g>
	<g>
		<path d="M413.013,266.24H23.893C10.72,266.24,0,276.96,0,290.133c0,13.174,10.72,23.893,23.893,23.893h389.12
			c13.174,0,23.893-10.72,23.893-23.893C436.907,276.96,426.187,266.24,413.013,266.24z M413.013,300.373H23.893
			c-5.647,0-10.24-4.593-10.24-10.24c0-5.647,4.593-10.24,10.24-10.24h389.12c5.647,0,10.24,4.593,10.24,10.24
			C423.253,295.781,418.661,300.373,413.013,300.373z"/>
	</g>
</g>
<g>
	<g>
		<path d="M197.881,110.362c-0.623-3.714-4.106-6.207-7.863-5.603c-49.584,8.317-92.778,38.008-118.508,81.454
			c-1.923,3.246-0.85,7.433,2.393,9.353c1.092,0.647,2.29,0.954,3.473,0.954c2.333,0,4.606-1.196,5.881-3.349
			c23.677-39.98,63.413-67.297,109.02-74.947C195.995,117.601,198.504,114.082,197.881,110.362z"/>
	</g>
</g>
<g>
	<g>
		<path d="M218.453,6.827c-22.586,0-40.96,18.374-40.96,40.96c0,13.007,5.97,24.946,16.377,32.766
			c1.229,0.92,2.666,1.367,4.093,1.367c2.077,0,4.123-0.94,5.466-2.726c2.263-3.014,1.654-7.294-1.36-9.561
			c-6.943-5.214-10.923-13.177-10.923-21.847c0-15.056,12.25-27.307,27.307-27.307s27.307,12.25,27.307,27.307
			c0,7.62-3.063,14.693-8.622,19.913c-2.748,2.579-2.884,6.9-0.304,9.65c2.579,2.748,6.897,2.884,9.649,0.304
			c8.216-7.714,12.93-18.599,12.93-29.867C259.413,25.201,241.039,6.827,218.453,6.827z"/>
	</g>
</g>
<g>
	<g>
		<path d="M232.107,300.373H204.8c-3.77,0-6.827,3.057-6.827,6.827v88.747c0,3.77,3.057,6.827,6.827,6.827h27.307
			c3.77,0,6.827-3.057,6.827-6.827V307.2C238.933,303.43,235.877,300.373,232.107,300.373z M225.28,389.12h-13.653v-75.093h13.653
			V389.12z"/>
	</g>
</g>
<g>
	<g>
		<path d="M300.373,389.12h-163.84c-11.293,0-20.48,9.187-20.48,20.48s9.187,20.48,20.48,20.48h163.84
			c11.293,0,20.48-9.187,20.48-20.48S311.666,389.12,300.373,389.12z M300.373,416.427h-163.84c-3.763,0-6.827-3.063-6.827-6.827
			s3.063-6.827,6.827-6.827h163.84c3.763,0,6.827,3.063,6.827,6.827S304.137,416.427,300.373,416.427z"/>
	</g>
</g>
<g>
</g>
<g>
</g>
<g>
</g>
<g>
</g>
<g>
</g>
<g>
</g>
<g>
</g>
<g>
</g>
<g>
</g>
<g>
</g>
<g>
</g>
<g>
</g>
<g>
</g>
<g>
</g>
<g>
</g>
</svg>
