<?xml version="1.0" encoding="iso-8859-1"?>
<!-- Generator: Adobe Illustrator 19.0.0, SVG Export Plug-In . SVG Version: 6.00 Build 0)  -->
<svg version="1.1" id="Capa_1" xmlns="http://www.w3.org/2000/svg" xmlns:xlink="http://www.w3.org/1999/xlink" x="0px" y="0px"
	 viewBox="0 0 436.907 436.907" style="enable-background:new 0 0 436.907 436.907;" xml:space="preserve">
<g>
	<g>
		<path d="M218.453,126.293c-112.927,0-204.8,91.873-204.8,204.8c0,3.77,3.057,6.827,6.827,6.827h395.947
			c3.77,0,6.827-3.057,6.827-6.827C423.253,218.167,331.38,126.293,218.453,126.293z M27.426,324.267
			c3.608-102.25,87.914-184.32,191.027-184.32s187.421,82.07,191.027,184.32H27.426z"/>
	</g>
</g>
<g>
	<g>
		<path d="M413.013,324.267H23.893C10.72,324.267,0,334.986,0,348.16s10.72,23.893,23.893,23.893h389.12
			c13.174,0,23.893-10.72,23.893-23.893S426.187,324.267,413.013,324.267z M413.013,358.4H23.893c-5.647,0-10.24-4.593-10.24-10.24
			c0-5.647,4.593-10.24,10.24-10.24h389.12c5.647,0,10.24,4.593,10.24,10.24C423.253,353.807,418.661,358.4,413.013,358.4z"/>
	</g>
</g>
<g>
	<g>
		<path d="M197.881,168.388c-0.623-3.717-4.11-6.216-7.863-5.603c-49.584,8.317-92.778,38.008-118.508,81.454
			c-1.923,3.246-0.85,7.433,2.393,9.353c1.092,0.647,2.29,0.954,3.473,0.954c2.333,0,4.606-1.196,5.881-3.349
			c23.677-39.98,63.413-67.297,109.02-74.947C195.995,175.628,198.504,172.109,197.881,168.388z"/>
	</g>
</g>
<g>
	<g>
		<path d="M218.453,64.853c-22.586,0-40.96,18.374-40.96,40.96c0,13.013,5.977,24.963,16.401,32.78
			c1.225,0.923,2.666,1.367,4.089,1.367c2.077,0,4.127-0.944,5.466-2.729c2.263-3.017,1.654-7.294-1.364-9.557
			c-6.953-5.217-10.94-13.184-10.94-21.861c0-15.056,12.25-27.307,27.307-27.307s27.307,12.25,27.307,27.307
			c0,7.649-3.081,14.74-8.677,19.965c-2.753,2.574-2.903,6.893-0.329,9.649c2.579,2.763,6.9,2.906,9.649,0.329
			c8.267-7.721,13.01-18.633,13.01-29.943C259.413,83.227,241.039,64.853,218.453,64.853z"/>
	</g>
</g>
<g>
</g>
<g>
</g>
<g>
</g>
<g>
</g>
<g>
</g>
<g>
</g>
<g>
</g>
<g>
</g>
<g>
</g>
<g>
</g>
<g>
</g>
<g>
</g>
<g>
</g>
<g>
</g>
<g>
</g>
</svg>
