<?xml version="1.0" encoding="iso-8859-1"?>
<!-- Generator: Adobe Illustrator 19.0.0, SVG Export Plug-In . SVG Version: 6.00 Build 0)  -->
<svg version="1.1" id="Capa_1" xmlns="http://www.w3.org/2000/svg" xmlns:xlink="http://www.w3.org/1999/xlink" x="0px" y="0px"
	 viewBox="0 0 392.781 392.781" style="enable-background:new 0 0 392.781 392.781;" xml:space="preserve">
<g>
	<g>
		<path d="M250.688,4.774c-1.128-3.589-4.968-5.596-8.561-4.453c-70.501,22.263-55.827,72.863-55.673,73.37
			c0.906,2.937,3.606,4.823,6.526,4.823c0.66,0,1.34-0.101,2.009-0.305c3.606-1.106,5.625-4.927,4.519-8.53
			c-0.48-1.546-10.999-38.107,46.727-56.337C249.835,12.205,251.828,8.37,250.688,4.774z"/>
	</g>
</g>
<g>
	<g>
		<path d="M290.781,63.055c-0.807-2.565-3.048-4.419-5.714-4.733c-16.881-1.987-39.714,1.05-67.913,9.016l-18.173-17.543
			c-2.647-2.557-6.84-2.55-9.487,0l-19.707,19.053c-12.786-6.673-33.973-14.886-56.526-11.716c-2.587,0.364-4.739,2.171-5.547,4.657
			c-0.807,2.483-0.121,5.21,1.76,7.023l32.954,31.701c2.72,2.615,7.033,2.534,9.653-0.186c2.615-2.717,2.534-7.04-0.186-9.653
			l-20.973-20.18c15.321,1.696,28.827,8.194,36.581,12.67c2.64,1.514,5.96,1.109,8.16-1.003l18.58-17.966l16.273,15.706
			c1.753,1.7,4.292,2.326,6.659,1.64c19.019-5.576,35.753-8.902,49.413-9.859l-23.74,21.106c-2.819,2.505-3.074,6.82-0.567,9.639
			c1.347,1.517,3.219,2.29,5.1,2.29c1.613,0,3.234-0.568,4.535-1.725l36.886-32.79C290.815,68.419,291.588,65.618,290.781,63.055z"
			/>
	</g>
</g>
<g>
	<g>
		<path d="M372.268,208.282c0-17.63-9.928-33.686-25.254-41.723c0.734-3.466,1.101-7.013,1.101-10.604
			c0-28.179-22.926-51.103-51.099-51.103c-9.786,0-19.232,2.772-27.353,7.927c-8.192-14.67-23.74-24.026-41.073-24.026
			c-12.18,0-23.547,4.553-32.2,12.713c-8.66-8.16-20.026-12.713-32.2-12.713c-17.333,0-32.879,9.356-41.079,24.026
			c-8.119-5.154-17.567-7.927-27.346-7.927c-28.172,0-51.099,22.922-51.099,51.103c0,3.591,0.367,7.137,1.101,10.604
			c-15.328,8.037-25.254,24.093-25.254,41.723c0,15.717,7.96,30.363,20.76,39.03c-3.058,6.659-4.659,13.92-4.659,21.344
			c0,24.255,17.207,44.962,40.313,49.956c-0.039,0.787-0.06,1.58-0.06,2.371c0,12.633,4.946,24.465,13.92,33.319
			c8.233,8.117,19.026,12.897,30.693,13.646c8.98,7.753,42.081,24.834,74.914,24.834c20.966,0,63.101-12.674,75.646-24.83
			c24.474-1.652,43.873-22.089,43.873-46.969c0-0.79-0.021-1.58-0.06-2.371c23.1-4.992,40.313-25.699,40.313-49.956
			c0-7.424-1.599-14.684-4.659-21.344C364.308,238.645,372.268,223.999,372.268,208.282z M339.414,238.536
			c-1.78,0.838-3.115,2.405-3.654,4.294c-0.548,1.894-0.247,3.927,0.819,5.581c3.886,6.033,5.939,13.032,5.939,20.243
			c0,19.557-15.259,35.968-34.739,37.354c-1.959,0.14-3.767,1.12-4.953,2.686c-1.186,1.563-1.638,3.567-1.246,5.494
			c0.452,2.225,0.686,4.512,0.686,6.793c0,18.43-14.993,33.423-33.427,33.423c-2.393,0-4.519,1.237-5.74,3.13
			c-4.574,3.855-35.48,21.593-66.707,21.593c-31.174,0-60.867-17.15-65.654-21.169c-0.2-0.369-0.44-0.722-0.703-1.055
			c-1.3-1.584-3.241-2.504-5.287-2.504c-0.007,0-0.007,0-0.014,0c-9.286,0-17.939-3.487-24.359-9.817
			c-6.352-6.27-9.853-14.65-9.853-23.6c0-2.307,0.232-4.587,0.686-6.777c0.399-1.93-0.055-3.934-1.241-5.504
			c-1.186-1.574-3-2.553-4.96-2.693c-19.48-1.387-34.739-17.797-34.739-37.354c0-7.209,2.053-14.21,5.939-20.243
			c1.067-1.654,1.365-3.688,0.819-5.581c-0.541-1.891-1.874-3.458-3.654-4.294c-11.667-5.494-19.207-17.37-19.207-30.258
			c0-14.041,8.868-26.677,22.06-31.447c3.514-1.27,5.354-5.123,4.134-8.649c-1.353-3.913-2.039-8.026-2.039-12.23
			c0-20.649,16.799-37.449,37.446-37.449c9.474,0,18.514,3.548,25.46,9.987c1.707,1.587,4.093,2.195,6.366,1.601
			c2.26-0.591,4.053-2.29,4.774-4.511c4.459-13.863,17.253-23.177,31.826-23.177c10.607,0,20.354,4.874,26.74,13.373
			c2.586,3.427,8.332,3.43,10.919-0.003c6.38-8.497,16.126-13.37,26.74-13.37c14.575,0,27.368,9.313,31.821,23.173
			c0.713,2.22,2.514,3.924,4.773,4.514c2.266,0.592,4.666-0.014,6.366-1.601c6.946-6.441,15.986-9.987,25.467-9.987
			c20.646,0,37.446,16.799,37.446,37.449c0,4.204-0.686,8.317-2.039,12.23c-1.22,3.526,0.62,7.38,4.134,8.649
			c13.194,4.77,22.06,17.406,22.06,31.447C358.621,221.166,351.081,233.042,339.414,238.536z"/>
	</g>
</g>
<g>
	<g>
		<path d="M196.394,136.537c-3.773,0-6.827,3.057-6.827,6.827c0,11.293-9.187,20.48-20.48,20.48s-20.48-9.187-20.48-20.48
			c0-3.77-3.053-6.827-6.827-6.827s-6.827,3.057-6.827,6.827c0,18.819,15.314,34.133,34.133,34.133
			c18.819,0,34.133-15.314,34.133-34.133C203.221,139.594,200.167,136.537,196.394,136.537z"/>
	</g>
</g>
<g>
	<g>
		<path d="M251.007,136.537c-3.773,0-6.827,3.057-6.827,6.827c0,11.293-9.187,20.48-20.48,20.48c-11.293,0-20.48-9.187-20.48-20.48
			c0-3.77-3.053-6.827-6.827-6.827s-6.827,3.057-6.827,6.827c0,18.819,15.314,34.133,34.133,34.133
			c18.819,0,34.133-15.314,34.133-34.133C257.834,139.594,254.781,136.537,251.007,136.537z"/>
	</g>
</g>
<g>
	<g>
		<path d="M128.127,177.497c-3.773,0-6.827,3.057-6.827,6.827c0,7.53-6.127,13.653-13.653,13.653
			c-7.526,0-13.653-6.124-13.653-13.653c0-3.77-3.053-6.827-6.827-6.827s-6.827,3.057-6.827,6.827
			c0,15.056,12.247,27.307,27.307,27.307s27.307-12.25,27.307-27.307C134.954,180.554,131.901,177.497,128.127,177.497z"/>
	</g>
</g>
<g>
	<g>
		<path d="M305.621,177.497c-3.773,0-6.827,3.057-6.827,6.827c0,7.53-6.127,13.653-13.653,13.653
			c-7.526,0-13.653-6.124-13.653-13.653c0-3.77-3.053-6.827-6.827-6.827s-6.827,3.057-6.827,6.827
			c0,15.056,12.247,27.307,27.307,27.307c15.06,0,27.307-12.25,27.307-27.307C312.447,180.554,309.394,177.497,305.621,177.497z"/>
	</g>
</g>
<g>
	<g>
		<path d="M189.567,191.151c-3.773,0-6.827,3.057-6.827,6.827c0,7.53-6.127,13.653-13.653,13.653
			c-7.526,0-13.653-6.124-13.653-13.653c0-3.77-3.053-6.827-6.827-6.827s-6.827,3.057-6.827,6.827
			c0,15.056,12.247,27.307,27.307,27.307s27.307-12.25,27.307-27.307C196.394,194.207,193.341,191.151,189.567,191.151z"/>
	</g>
</g>
<g>
	<g>
		<path d="M162.261,238.937c-3.773,0-6.827,3.057-6.827,6.827c0,7.53-6.127,13.653-13.653,13.653
			c-7.526,0-13.653-6.124-13.653-13.653c0-3.77-3.053-6.827-6.827-6.827s-6.827,3.057-6.827,6.827
			c0,15.056,12.247,27.307,27.307,27.307s27.307-12.25,27.307-27.307C169.087,241.994,166.034,238.937,162.261,238.937z"/>
	</g>
</g>
<g>
	<g>
		<path d="M189.567,286.724c-3.773,0-6.827,3.057-6.827,6.827c0,7.53-6.127,13.653-13.653,13.653
			c-7.526,0-13.653-6.123-13.653-13.653c0-3.77-3.053-6.827-6.827-6.827s-6.827,3.057-6.827,6.827
			c0,15.056,12.247,27.307,27.307,27.307s27.307-12.25,27.307-27.307C196.394,289.781,193.341,286.724,189.567,286.724z"/>
	</g>
</g>
<g>
	<g>
		<path d="M229.86,276.728c-3.773,0-6.827,3.057-6.827,6.827c0,7.53-6.127,13.653-13.653,13.653s-13.653-6.124-13.653-13.653
			c0-3.77-3.053-6.827-6.827-6.827s-6.827,3.057-6.827,6.827c0,15.056,12.247,27.307,27.307,27.307
			c15.061,0,27.307-12.25,27.307-27.307C236.687,279.785,233.633,276.728,229.86,276.728z"/>
	</g>
</g>
<g>
	<g>
		<path d="M250.34,317.688c-3.773,0-6.827,3.057-6.827,6.827c0,7.53-6.127,13.653-13.653,13.653
			c-7.526,0-13.653-6.124-13.653-13.653c0-3.77-3.053-6.827-6.827-6.827s-6.827,3.057-6.827,6.827
			c0,15.056,12.247,27.307,27.307,27.307c15.061,0,27.307-12.25,27.307-27.307C257.167,320.745,254.114,317.688,250.34,317.688z"/>
	</g>
</g>
<g>
	<g>
		<path d="M251.007,218.457c-3.773,0-6.827,3.057-6.827,6.827c0,7.53-6.127,13.653-13.653,13.653
			c-7.526,0-13.653-6.123-13.653-13.653c0-3.77-3.053-6.827-6.827-6.827s-6.827,3.057-6.827,6.827
			c0,15.056,12.247,27.307,27.307,27.307s27.307-12.25,27.307-27.307C257.834,221.514,254.781,218.457,251.007,218.457z"/>
	</g>
</g>
<g>
</g>
<g>
</g>
<g>
</g>
<g>
</g>
<g>
</g>
<g>
</g>
<g>
</g>
<g>
</g>
<g>
</g>
<g>
</g>
<g>
</g>
<g>
</g>
<g>
</g>
<g>
</g>
<g>
</g>
</svg>
