<?xml version="1.0" encoding="iso-8859-1"?>
<!-- Generator: Adobe Illustrator 19.0.0, SVG Export Plug-In . SVG Version: 6.00 Build 0)  -->
<svg version="1.1" id="Capa_1" xmlns="http://www.w3.org/2000/svg" xmlns:xlink="http://www.w3.org/1999/xlink" x="0px" y="0px"
	 viewBox="0 0 395.947 395.947" style="enable-background:new 0 0 395.947 395.947;" xml:space="preserve">
<g>
	<g>
		<path d="M389.12,44.373H6.827C3.057,44.373,0,47.43,0,51.2v293.547c0,3.77,3.057,6.827,6.827,6.827H389.12
			c3.77,0,6.827-3.057,6.827-6.827V51.2C395.947,47.43,392.89,44.373,389.12,44.373z M382.293,337.92H13.653V58.027h368.64V337.92z"
			/>
	</g>
</g>
<g>
	<g>
		<path d="M40.96,85.333v225.28h314.027V85.333H40.96z M341.333,296.96H54.613V98.987h286.72V296.96z"/>
	</g>
</g>
<g>
	<g>
		<path d="M13.653,51.2H0c0,26.349,21.437,47.787,47.787,47.787V85.333C28.967,85.333,13.653,70.019,13.653,51.2z"/>
	</g>
</g>
<g>
	<g>
		<path d="M0,344.747h13.653c0-18.819,15.314-34.133,34.133-34.133V296.96C21.437,296.96,0,318.397,0,344.747z"/>
	</g>
</g>
<g>
	<g>
		<path d="M382.293,51.2c0,18.819-15.314,34.133-34.133,34.133v13.653c26.349,0,47.787-21.437,47.787-47.787H382.293z"/>
	</g>
</g>
<g>
	<g>
		<path d="M348.16,296.96v13.653c18.819,0,34.133,15.314,34.133,34.133h13.653C395.947,318.397,374.509,296.96,348.16,296.96z"/>
	</g>
</g>
<g>
	<g>
		<path d="M148.62,122.436c-0.99-2.009-2.35-3.686-4.077-5.03c-1.731-1.347-3.755-2.355-6.074-3.036
			c-2.319-0.681-4.826-1.021-7.513-1.021h-12.855c-1.683,0-2.983,0.287-3.9,0.864c-0.917,0.577-1.58,1.336-1.993,2.284
			c-0.416,0.945-0.66,2.022-0.734,3.236c-0.073,1.21-0.109,2.454-0.109,3.724v41.754c0,1.304,0.036,2.557,0.109,3.77
			c0.073,1.21,0.317,2.297,0.734,3.256c0.413,0.961,1.077,1.731,1.993,2.307c0.916,0.577,2.217,0.864,3.9,0.864h14.717
			c3.219-0.177,6.103-0.947,8.643-2.304c1.063-0.563,2.115-1.294,3.147-2.196c1.036-0.899,1.959-1.993,2.773-3.28
			c0.809-1.283,1.469-2.807,1.969-4.567c0.503-1.756,0.753-3.785,0.753-6.093v-27.484
			C150.103,126.797,149.61,124.445,148.62,122.436z M137.426,157.764c0,0.887-0.097,1.671-0.287,2.35
			c-0.193,0.679-0.454,1.263-0.777,1.749c-0.326,0.49-0.693,0.91-1.106,1.263c-0.418,0.357-0.831,0.637-1.244,0.843
			c-1.003,0.534-2.144,0.828-3.413,0.888h-5.76v-41.136h5.76c1.27,0.089,2.41,0.416,3.413,0.976c0.415,0.237,0.828,0.546,1.244,0.93
			c0.413,0.387,0.78,0.86,1.106,1.42c0.323,0.56,0.584,1.22,0.777,1.973c0.189,0.754,0.287,1.618,0.287,2.594V157.764z"/>
	</g>
</g>
<g>
	<g>
		<path d="M194.145,137.441c-0.135-1.225-0.43-2.302-0.888-3.236c-0.461-0.93-1.132-1.683-2.017-2.26s-2.07-0.864-3.546-0.864
			c-0.797,0-1.603,0.109-2.417,0.333c-0.812,0.22-1.543,0.62-2.193,1.196c-0.65,0.577-1.184,1.35-1.597,2.326
			c-0.413,0.973-0.62,2.2-0.62,3.68c-0.266-0.887-0.642-1.775-1.13-2.661c-0.488-0.886-1.118-1.686-1.884-2.393
			c-0.77-0.71-1.693-1.287-2.77-1.731c-1.08-0.444-2.343-0.664-3.791-0.664c-1.626,0-3.249,0.265-4.876,0.797
			c-1.626,0.531-3.086,1.41-4.386,2.637c-1.302,1.227-2.359,2.836-3.169,4.833c-0.814,1.993-1.22,4.471-1.22,7.424v12.853
			c0,2.927,0.406,5.386,1.22,7.383c0.809,1.993,1.865,3.61,3.169,4.854c1.299,1.241,2.76,2.128,4.386,2.661
			c1.626,0.531,3.249,0.797,4.876,0.797c1.447,0,2.71-0.229,3.791-0.686c1.077-0.456,2-1.043,2.77-1.749
			c0.768-0.71,1.398-1.509,1.884-2.393c0.486-0.886,0.864-1.76,1.13-2.616c0,0.589,0.055,1.316,0.157,2.173
			c0.102,0.857,0.377,1.676,0.819,2.459c0.442,0.783,1.123,1.447,2.036,1.993c0.916,0.546,2.186,0.819,3.813,0.819
			c1.597,0,2.836-0.287,3.724-0.864c0.887-0.577,1.553-1.336,1.997-2.284c0.444-0.947,0.707-2.016,0.797-3.214
			s0.133-2.417,0.133-3.657h0.002v-24.202C194.345,139.918,194.28,138.667,194.145,137.441z M180.581,157.786
			c-0.164,1.64-0.451,3-0.867,4.077c-0.413,1.08-0.98,1.879-1.707,2.396c-0.722,0.517-1.659,0.773-2.813,0.773
			c-0.916,0-1.633-0.183-2.15-0.553s-0.911-0.864-1.174-1.483c-0.266-0.625-0.43-1.318-0.49-2.084
			c-0.056-0.77-0.087-1.553-0.087-2.35h-0.002V147.84c0-0.77,0.031-1.531,0.087-2.284c0.06-0.754,0.224-1.427,0.49-2.017
			c0.265-0.594,0.657-1.073,1.174-1.44c0.517-0.37,1.234-0.556,2.15-0.556c1.154,0,2.096,0.369,2.836,1.109
			c0.741,0.737,1.318,1.64,1.731,2.703c0.413,1.063,0.7,2.193,0.864,3.389c0.164,1.196,0.244,2.253,0.244,3.169
			C180.837,154.19,180.741,156.146,180.581,157.786z"/>
	</g>
</g>
<g>
	<g>
		<g>
			<path d="M212.784,126.824c2.127,0,3.78-0.555,4.963-1.661c1.183-1.111,1.773-2.801,1.773-5.077c0-2.362-0.553-4.076-1.662-5.144
				c-1.108-1.063-2.801-1.594-5.074-1.594c-2.13,0-3.784,0.531-4.966,1.594c-1.179,1.067-1.773,2.78-1.773,5.144
				c0,2.277,0.594,3.968,1.773,5.077C209,126.271,210.654,126.824,212.784,126.824z"/>
			<path d="M218.324,134.204c-0.473-0.93-1.152-1.683-2.039-2.26c-0.887-0.577-2.084-0.864-3.591-0.864s-2.705,0.287-3.591,0.864
				c-0.886,0.577-1.567,1.33-2.039,2.26c-0.473,0.932-0.773,1.99-0.906,3.169c-0.133,1.183-0.2,2.393-0.2,3.637v24.467
				c0,1.244,0.067,2.461,0.2,3.657c0.133,1.196,0.433,2.263,0.906,3.193s1.152,1.678,2.039,2.237
				c0.887,0.563,2.084,0.843,3.591,0.843s2.703-0.28,3.591-0.843c0.886-0.562,1.567-1.307,2.039-2.237s0.777-1.995,0.91-3.193
				s0.2-2.413,0.2-3.657V141.01c0-1.244-0.067-2.454-0.2-3.637C219.1,136.194,218.796,135.137,218.324,134.204z"/>
		</g>
	</g>
</g>
<g>
	<g>
		<path d="M246.361,119.554c-0.131-1.181-0.427-2.231-0.884-3.147c-0.461-0.913-1.133-1.654-2.021-2.217
			c-0.884-0.56-2.098-0.84-3.633-0.84c-1.507,0-2.703,0.28-3.591,0.84c-0.886,0.563-1.567,1.304-2.039,2.217
			c-0.473,0.917-0.777,1.968-0.906,3.147c-0.133,1.183-0.2,2.396-0.2,3.637v42.286c0,1.244,0.067,2.461,0.2,3.657
			c0.13,1.196,0.433,2.263,0.906,3.193c0.473,0.93,1.152,1.678,2.039,2.237c0.887,0.563,2.084,0.843,3.591,0.843
			c1.536,0,2.749-0.28,3.633-0.843c0.887-0.562,1.56-1.307,2.021-2.237c0.457-0.93,0.754-1.997,0.884-3.193
			c0.133-1.198,0.2-2.413,0.2-3.657v-42.286C246.56,121.95,246.494,120.736,246.361,119.554z"/>
	</g>
</g>
<g>
	<g>
		<path d="M291.891,134.801c-0.341-0.797-0.797-1.483-1.374-2.06c-0.577-0.577-1.256-1.027-2.039-1.353
			c-0.783-0.323-1.603-0.486-2.459-0.486s-1.64,0.201-2.35,0.597c-0.71,0.399-1.343,0.916-1.906,1.553
			c-0.56,0.633-1.046,1.367-1.463,2.193c-0.413,0.826-0.754,1.657-1.017,2.483l-5.676,18.703l-5.938-18.703
			c-0.297-0.886-0.654-1.729-1.067-2.526c-0.413-0.8-0.894-1.507-1.44-2.13c-0.546-0.62-1.167-1.106-1.86-1.459
			c-0.696-0.355-1.458-0.532-2.284-0.532c-0.918,0-1.78,0.157-2.594,0.466c-0.814,0.309-1.531,0.73-2.15,1.263
			c-0.619,0.529-1.109,1.166-1.463,1.903c-0.353,0.739-0.531,1.536-0.531,2.393c0,0.887,0.109,1.79,0.329,2.707
			c0.222,0.916,0.497,1.847,0.819,2.79c0.739,2.277,1.56,4.627,2.459,7.05c0.903,2.422,1.819,4.852,2.749,7.289
			c0.928,2.439,1.865,4.847,2.813,7.226c0.947,2.379,1.847,4.646,2.703,6.803l0.71,1.773c-0.503,0.976-1.004,2.039-1.507,3.193
			c-0.503,1.15-0.997,2.231-1.483,3.234c-0.49,1.007-0.993,1.84-1.51,2.507c-0.515,0.664-1.056,0.997-1.616,0.997
			c-0.266,0-0.589-0.015-0.976-0.043c-0.384-0.029-0.797-0.046-1.241-0.046c-0.65,0-1.263,0.084-1.84,0.244
			c-0.575,0.162-1.085,0.435-1.529,0.819c-0.439,0.387-0.79,0.887-1.039,1.51c-0.251,0.621-0.377,1.388-0.377,2.304
			c0,1.862,0.71,3.273,2.127,4.233c1.42,0.961,3.813,1.44,7.183,1.44c1.326,0,2.613-0.335,3.84-0.997
			c1.227-0.662,2.388-1.56,3.48-2.683s2.126-2.423,3.103-3.9c0.973-1.476,1.889-3.043,2.746-4.697
			c0.857-1.657,1.647-3.347,2.374-5.077c0.724-1.731,1.394-3.389,2.017-4.987l10.636-28.194c0.326-0.857,0.599-1.72,0.819-2.591
			c0.224-0.874,0.333-1.753,0.333-2.64C292.401,136.458,292.233,135.598,291.891,134.801z"/>
	</g>
</g>
<g>
	<g>
		<path d="M123.286,234.639c-0.71-1.893-1.621-3.473-2.727-4.743c-1.111-1.27-2.35-2.263-3.724-2.97
			c-1.374-0.71-2.734-1.244-4.081-1.597c-1.343-0.353-2.608-0.577-3.79-0.667c-1.181-0.087-2.115-0.13-2.79-0.13
			c-0.679,0-1.62,0.043-2.816,0.13c-1.196,0.09-2.49,0.314-3.876,0.667c-1.389,0.353-2.799,0.888-4.233,1.597
			c-1.434,0.707-2.732,1.7-3.903,2.97c-1.167,1.27-2.12,2.85-2.857,4.743c-0.739,1.891-1.109,4.193-1.109,6.914v10.993
			c0,2.72,0.369,5.024,1.109,6.914c0.737,1.893,1.69,3.473,2.857,4.743c1.169,1.273,2.47,2.263,3.903,2.97
			c1.432,0.71,2.843,1.244,4.233,1.597c1.386,0.353,2.679,0.577,3.876,0.664c1.196,0.09,2.137,0.133,2.816,0.133
			c0.678,0,1.611-0.043,2.79-0.133c1.184-0.087,2.447-0.311,3.79-0.664c1.347-0.353,2.707-0.887,4.081-1.597
			c1.374-0.707,2.615-1.696,3.724-2.97c1.108-1.27,2.017-2.85,2.727-4.743c0.707-1.891,1.063-4.193,1.063-6.914v-10.993
			C124.349,238.833,123.993,236.529,123.286,234.639z M111.138,255.65c-0.06,0.857-0.266,1.609-0.62,2.26
			c-0.326,0.59-0.819,1.116-1.487,1.574c-0.664,0.459-1.616,0.686-2.857,0.686c-1.304,0-2.301-0.225-2.994-0.686
			c-0.693-0.457-1.203-0.983-1.529-1.574c-0.382-0.65-0.589-1.403-0.62-2.26v-16.046c0.029-0.887,0.236-1.7,0.62-2.437
			c0.326-0.594,0.836-1.147,1.529-1.664c0.693-0.517,1.69-0.777,2.994-0.777c1.241,0,2.193,0.259,2.857,0.777
			c0.667,0.517,1.161,1.07,1.487,1.664c0.353,0.737,0.56,1.55,0.62,2.437V255.65z"/>
	</g>
</g>
<g>
	<g>
		<path d="M150.192,221.428c0.027-0.532,0.109-1.019,0.244-1.463c0.135-0.444,0.311-0.797,0.531-1.063
			c0.224-0.266,0.541-0.399,0.954-0.399c0.503,0,0.945,0.104,1.33,0.311c0.384,0.207,0.797,0.311,1.241,0.311
			c0.532,0,1.116-0.087,1.753-0.266c0.633-0.177,1.215-0.486,1.749-0.93s0.983-1.021,1.353-1.727
			c0.367-0.71,0.553-1.597,0.553-2.661c0-1.154-0.259-2.137-0.777-2.951c-0.515-0.809-1.219-1.469-2.106-1.969
			c-0.886-0.503-1.92-0.872-3.099-1.109c-1.183-0.237-2.441-0.353-3.77-0.353c-3.133,0-5.6,0.437-7.404,1.307
			c-1.801,0.874-3.161,2.084-4.077,3.633c-0.917,1.553-1.493,3.424-1.731,5.61c-0.237,2.186-0.353,4.581-0.353,7.18H134.1
			c-0.828,0-1.618,0.043-2.371,0.133c-0.753,0.087-1.42,0.311-1.997,0.664c-0.573,0.357-1.039,0.903-1.393,1.64
			c-0.355,0.741-0.532,1.76-0.532,3.06c0,1.213,0.176,2.164,0.532,2.86c0.353,0.695,0.819,1.227,1.393,1.594
			c0.577,0.37,1.242,0.606,1.997,0.71c0.754,0.104,1.545,0.157,2.371,0.157h2.483V259.2c0,1.299,0.061,2.546,0.177,3.743
			c0.12,1.196,0.399,2.263,0.843,3.193s1.099,1.678,1.973,2.237c0.87,0.563,2.06,0.843,3.567,0.843c1.567,0,2.816-0.28,3.746-0.843
			c0.93-0.562,1.64-1.307,2.127-2.237s0.797-1.997,0.93-3.193s0.2-2.442,0.2-3.743v-23.494h2.661c0.739,0,1.493-0.053,2.26-0.157
			c0.77-0.104,1.457-0.34,2.063-0.71c0.602-0.367,1.099-0.901,1.483-1.594c0.384-0.696,0.577-1.647,0.577-2.86
			c0-1.3-0.193-2.319-0.577-3.06c-0.382-0.737-0.879-1.283-1.483-1.64c-0.606-0.353-1.294-0.577-2.063-0.664
			c-0.766-0.091-1.519-0.133-2.26-0.133v-0.002h-2.661v-1.864C150.146,222.491,150.161,221.959,150.192,221.428z"/>
	</g>
</g>
<g>
	<g>
		<path d="M183.439,221.428c0.027-0.532,0.109-1.019,0.244-1.463s0.311-0.797,0.531-1.063c0.224-0.266,0.541-0.399,0.954-0.399
			c0.504,0,0.945,0.104,1.33,0.311c0.384,0.207,0.797,0.311,1.241,0.311c0.532,0,1.116-0.087,1.753-0.266
			c0.633-0.177,1.215-0.486,1.749-0.93s0.983-1.021,1.353-1.727c0.367-0.71,0.553-1.597,0.553-2.661
			c0-1.154-0.259-2.137-0.777-2.951c-0.515-0.809-1.219-1.469-2.106-1.969c-0.886-0.503-1.92-0.872-3.099-1.109
			c-1.183-0.237-2.44-0.353-3.77-0.353c-3.133,0-5.6,0.437-7.404,1.307c-1.801,0.874-3.161,2.084-4.077,3.633
			c-0.917,1.553-1.493,3.424-1.731,5.61c-0.237,2.186-0.353,4.581-0.353,7.18h-2.483c-0.828,0-1.618,0.043-2.371,0.133
			c-0.753,0.087-1.42,0.311-1.997,0.664c-0.573,0.357-1.039,0.903-1.393,1.64c-0.355,0.741-0.532,1.76-0.532,3.06
			c0,1.213,0.176,2.164,0.532,2.86c0.353,0.695,0.819,1.227,1.393,1.594c0.577,0.37,1.242,0.606,1.997,0.71
			c0.754,0.104,1.545,0.157,2.371,0.157h2.483V259.2c0,1.299,0.061,2.546,0.177,3.743c0.119,1.196,0.399,2.263,0.843,3.193
			c0.444,0.93,1.099,1.678,1.973,2.237c0.87,0.563,2.06,0.843,3.567,0.843c1.567,0,2.816-0.28,3.746-0.843
			c0.93-0.562,1.64-1.307,2.127-2.237c0.486-0.93,0.797-1.997,0.93-3.193s0.2-2.442,0.2-3.743v-23.494h2.661
			c0.739,0,1.493-0.053,2.26-0.157c0.77-0.104,1.458-0.34,2.063-0.71c0.602-0.367,1.099-0.901,1.483-1.594
			c0.384-0.696,0.577-1.647,0.577-2.86c0-1.3-0.193-2.319-0.577-3.06c-0.382-0.737-0.879-1.283-1.483-1.64
			c-0.606-0.353-1.294-0.577-2.063-0.664c-0.766-0.091-1.519-0.133-2.26-0.133v-0.002h-2.661v-1.864
			C183.393,222.491,183.409,221.959,183.439,221.428z"/>
	</g>
</g>
<g>
	<g>
		<path d="M229.495,249.533c1.563,0,2.777-0.206,3.633-0.623c0.857-0.413,1.488-0.906,1.884-1.483
			c0.399-0.575,0.626-1.179,0.686-1.816c0.06-0.637,0.09-1.191,0.09-1.664h-0.002v-2.743c0-1.067-0.061-2.21-0.177-3.437
			c-0.121-1.227-0.387-2.437-0.8-3.633c-0.413-1.196-1.033-2.357-1.86-3.48c-0.828-1.123-1.951-2.113-3.371-2.97
			c-1.418-0.857-3.185-1.553-5.297-2.084c-2.113-0.534-4.659-0.8-7.646-0.8c-0.886,0-1.942,0.046-3.169,0.133
			c-1.225,0.09-2.519,0.311-3.876,0.667c-1.36,0.353-2.702,0.893-4.033,1.616c-1.331,0.724-2.528,1.736-3.591,3.036
			c-1.067,1.299-1.93,2.925-2.594,4.876c-0.667,1.951-1,4.33-1,7.137v10.373c0,3.045,0.503,5.613,1.51,7.711
			c1.003,2.099,2.354,3.799,4.053,5.1c1.7,1.3,3.656,2.246,5.873,2.836c2.217,0.59,4.55,0.899,7.004,0.93
			c1.864,0,3.864-0.164,6.007-0.486c2.144-0.326,4.13-0.874,5.963-1.64c1.83-0.771,3.354-1.797,4.567-3.084
			c1.21-1.283,1.816-2.886,1.816-4.806c0-0.917-0.164-1.662-0.486-2.239c-0.328-0.577-0.756-1.027-1.287-1.35
			c-0.532-0.328-1.147-0.548-1.84-0.667c-0.693-0.118-1.41-0.177-2.15-0.177c-1.536,0-2.739,0.14-3.613,0.42
			c-0.869,0.283-1.55,0.63-2.036,1.043c-0.49,0.413-0.879,0.857-1.176,1.33c-0.297,0.473-0.626,0.917-0.997,1.33
			c-0.37,0.413-0.874,0.759-1.507,1.039c-0.637,0.28-1.548,0.42-2.727,0.42c-1.033,0-1.906-0.206-2.616-0.62
			c-0.707-0.415-1.277-0.944-1.707-1.597c-0.427-0.647-0.729-1.357-0.906-2.127c-0.176-0.766-0.266-1.507-0.266-2.217v-4.253
			H229.495z M211.852,242.883v-3.103c0-0.504,0.043-1.077,0.133-1.731c0.09-0.647,0.311-1.263,0.664-1.836
			c0.357-0.577,0.881-1.056,1.573-1.444c0.696-0.384,1.65-0.573,2.86-0.573c1.447,0,2.563,0.189,3.347,0.573
			c0.783,0.386,1.36,0.945,1.731,1.686c0.37,0.737,0.591,1.647,0.664,2.727c0.073,1.077,0.113,2.311,0.113,3.7h-11.083H211.852z"/>
	</g>
</g>
<g>
	<g>
		<path d="M273.427,228.57c-0.147-0.826-0.43-1.505-0.843-2.039c-0.413-0.534-0.983-0.925-1.707-1.174
			c-0.722-0.254-1.659-0.377-2.813-0.377c-0.947,0-1.893,0.249-2.836,0.753c-0.947,0.5-1.835,1.217-2.661,2.15
			c-0.826,0.93-1.58,2.067-2.26,3.413c-0.681,1.343-1.227,2.843-1.64,4.497h-0.71c0-1.21-0.031-2.459-0.09-3.743
			c-0.058-1.287-0.28-2.454-0.664-3.504c-0.384-1.05-0.983-1.906-1.797-2.57c-0.814-0.667-1.969-0.997-3.48-0.997
			c-1.476,0-2.644,0.273-3.5,0.819s-1.516,1.277-1.973,2.193s-0.754,1.956-0.888,3.123c-0.133,1.169-0.2,2.372-0.2,3.613v24.824
			c0,1.213,0.065,2.393,0.2,3.546c0.135,1.154,0.43,2.181,0.888,3.081c0.456,0.903,1.116,1.633,1.973,2.193
			c0.857,0.563,2.024,0.843,3.5,0.843c1.509,0,2.705-0.28,3.593-0.843c0.886-0.56,1.563-1.29,2.036-2.193
			c0.473-0.901,0.777-1.927,0.91-3.081s0.2-2.333,0.2-3.546v-12.677c0-1.36,0.16-2.528,0.486-3.504
			c0.324-0.973,0.754-1.78,1.287-2.417c0.529-0.633,1.113-1.137,1.749-1.507c0.635-0.367,1.265-0.65,1.884-0.84
			c0.62-0.193,1.203-0.311,1.749-0.357c0.546-0.043,0.969-0.067,1.263-0.067c2.101,0,3.717-0.531,4.857-1.594
			c1.137-1.067,1.703-2.749,1.703-5.053C273.643,230.383,273.574,229.396,273.427,228.57z"/>
	</g>
</g>
<g>
	<g>
		<path d="M310.506,251.194c-0.783-1.434-1.795-2.697-3.036-3.791c-1.241-1.094-2.616-2.043-4.123-2.857s-2.983-1.574-4.434-2.284
			c-0.947-0.442-1.854-0.886-2.727-1.33c-0.87-0.444-1.64-0.893-2.304-1.353c-0.664-0.457-1.19-0.937-1.574-1.44
			c-0.384-0.503-0.577-1.05-0.577-1.64c0-0.65,0.109-1.179,0.331-1.598c0.22-0.413,0.517-0.744,0.887-0.997
			c0.367-0.251,0.783-0.427,1.241-0.531c0.457-0.104,0.937-0.157,1.44-0.157c1.213,0,2.241,0.297,3.081,0.888
			c0.843,0.59,1.294,1.447,1.353,2.57c0,0.413,0.109,0.843,0.333,1.287c0.22,0.444,0.538,0.843,0.954,1.196
			c0.413,0.355,0.906,0.65,1.483,0.888c0.577,0.237,1.22,0.353,1.93,0.353c0.826-0.027,1.623-0.111,2.393-0.244
			c0.766-0.133,1.454-0.37,2.06-0.71c0.606-0.338,1.092-0.797,1.463-1.374c0.37-0.577,0.553-1.306,0.553-2.193
			c0-0.534-0.036-1.184-0.109-1.951c-0.073-0.77-0.266-1.574-0.577-2.417c-0.311-0.843-0.783-1.678-1.417-2.504
			c-0.637-0.826-1.51-1.572-2.616-2.239c-1.109-0.662-2.497-1.203-4.166-1.616s-3.7-0.62-6.096-0.62h-0.707
			c-2.661,0.056-5.033,0.294-7.117,0.707c-2.084,0.416-3.85,1.104-5.298,2.063c-1.447,0.959-2.548,2.217-3.301,3.767
			c-0.756,1.551-1.133,3.48-1.133,5.784c0,1.567,0.34,2.963,1.021,4.19c0.681,1.227,1.567,2.328,2.661,3.304
			c1.094,0.974,2.314,1.86,3.657,2.661c1.348,0.797,2.685,1.55,4.014,2.26c1.063,0.589,2.103,1.172,3.123,1.749
			c1.021,0.577,1.93,1.176,2.727,1.797c0.797,0.621,1.44,1.294,1.93,2.017c0.486,0.724,0.73,1.5,0.73,2.326
			c0,0.975-0.364,1.766-1.087,2.371c-0.722,0.606-1.662,0.91-2.813,0.91c-0.563,0-1.142-0.036-1.731-0.109
			c-0.589-0.073-1.13-0.224-1.616-0.444c-0.49-0.224-0.886-0.51-1.196-0.867c-0.311-0.353-0.483-0.826-0.51-1.417
			c-0.06-1.773-0.563-3.06-1.507-3.857c-0.947-0.797-2.161-1.196-3.637-1.196c-2.039,0-3.553,0.415-4.543,1.241
			c-0.99,0.829-1.483,2.13-1.483,3.903c0,0.737,0.085,1.543,0.263,2.413c0.181,0.874,0.49,1.753,0.934,2.637
			c0.444,0.886,1.056,1.736,1.84,2.55c0.78,0.812,1.78,1.536,2.99,2.173c1.213,0.633,2.661,1.142,4.344,1.529
			c1.686,0.384,3.666,0.573,5.939,0.573c1.154,0,2.379-0.08,3.68-0.244c1.3-0.159,2.577-0.432,3.833-0.819
			c1.258-0.382,2.454-0.899,3.591-1.55c1.14-0.648,2.137-1.469,2.993-2.459s1.543-2.166,2.06-3.523
			c0.517-1.36,0.777-2.927,0.777-4.7C311.68,254.321,311.289,252.628,310.506,251.194z"/>
	</g>
</g>
<g>
</g>
<g>
</g>
<g>
</g>
<g>
</g>
<g>
</g>
<g>
</g>
<g>
</g>
<g>
</g>
<g>
</g>
<g>
</g>
<g>
</g>
<g>
</g>
<g>
</g>
<g>
</g>
<g>
</g>
</svg>
