<?xml version="1.0" encoding="iso-8859-1"?>
<!-- Generator: Adobe Illustrator 19.0.0, SVG Export Plug-In . SVG Version: 6.00 Build 0)  -->
<svg version="1.1" id="Capa_1" xmlns="http://www.w3.org/2000/svg" xmlns:xlink="http://www.w3.org/1999/xlink" x="0px" y="0px"
	 viewBox="0 0 457.387 457.387" style="enable-background:new 0 0 457.387 457.387;" xml:space="preserve">
<g>
	<g>
		<path d="M423.253,307.197c-3.77,0-6.827,3.057-6.827,6.827v54.617H47.787v-54.613c0-3.77-3.057-6.827-6.827-6.827
			s-6.827,3.057-6.827,6.827v61.44c0,3.77,3.057,6.827,6.827,6.827h382.293c3.77,0,6.827-3.057,6.827-6.827v-61.443
			C430.08,310.253,427.023,307.197,423.253,307.197z"/>
	</g>
</g>
<g>
	<g>
		<path d="M423.253,75.093H40.96c-3.77,0-6.827,3.057-6.827,6.827v157.013c0,3.77,3.057,6.827,6.827,6.827s6.827-3.057,6.827-6.827
			V88.747h368.64v147.603c0,3.77,3.057,6.827,6.827,6.827c3.77,0,6.827-3.057,6.827-6.827V81.92
			C430.08,78.15,427.023,75.093,423.253,75.093z"/>
	</g>
</g>
<g>
	<g>
		<polygon points="375.467,314.027 375.467,327.68 88.747,327.68 88.747,314.027 75.093,314.027 75.093,341.333 389.12,341.333 
			389.12,314.027 		"/>
	</g>
</g>
<g>
	<g>
		<polygon points="75.093,116.053 75.093,236.349 88.747,236.349 88.747,129.707 375.467,129.707 375.467,236.349 389.12,236.349 
			389.12,116.053 		"/>
	</g>
</g>
<g>
	<g>
		<path d="M47.787,81.92H34.133c0,26.349,21.437,47.787,47.787,47.787v-13.653C63.101,116.053,47.787,100.739,47.787,81.92z"/>
	</g>
</g>
<g>
	<g>
		<path d="M34.133,375.467h13.653c0-18.819,15.314-34.133,34.133-34.133V327.68C55.571,327.68,34.133,349.117,34.133,375.467z"/>
	</g>
</g>
<g>
	<g>
		<path d="M416.427,81.92c0,18.819-15.314,34.133-34.133,34.133v13.653c26.349,0,47.787-21.437,47.787-47.787H416.427z"/>
	</g>
</g>
<g>
	<g>
		<path d="M382.293,327.68v13.653c18.819,0,34.133,15.314,34.133,34.133h13.653C430.08,349.117,408.643,327.68,382.293,327.68z"/>
	</g>
</g>
<g>
	<g>
		<path d="M182.753,153.156c-0.99-2.009-2.35-3.686-4.077-5.03c-1.731-1.347-3.755-2.355-6.074-3.036
			c-2.319-0.681-4.826-1.021-7.513-1.021h-12.855c-1.683,0-2.983,0.287-3.9,0.864s-1.58,1.336-1.993,2.284
			c-0.416,0.945-0.66,2.022-0.734,3.236c-0.073,1.21-0.109,2.454-0.109,3.724v41.754c0,1.304,0.036,2.557,0.109,3.77
			c0.073,1.21,0.317,2.297,0.734,3.256c0.413,0.961,1.077,1.731,1.993,2.307c0.917,0.577,2.217,0.864,3.9,0.864h14.717
			c3.219-0.177,6.103-0.947,8.643-2.304c1.063-0.563,2.115-1.294,3.147-2.196c1.036-0.899,1.959-1.993,2.773-3.28
			c0.809-1.283,1.469-2.807,1.969-4.567c0.503-1.756,0.753-3.785,0.753-6.093v-27.484
			C184.236,157.517,183.743,155.165,182.753,153.156z M171.559,188.484c0,0.887-0.097,1.671-0.287,2.35
			c-0.193,0.679-0.454,1.263-0.777,1.749c-0.326,0.49-0.693,0.91-1.106,1.263c-0.418,0.357-0.831,0.637-1.244,0.843
			c-1.003,0.534-2.144,0.828-3.413,0.888h-5.76v-41.136h5.76c1.27,0.089,2.41,0.416,3.413,0.976c0.415,0.237,0.828,0.546,1.244,0.93
			c0.413,0.387,0.78,0.86,1.106,1.42c0.323,0.56,0.584,1.22,0.777,1.973c0.189,0.754,0.287,1.618,0.287,2.594V188.484z"/>
	</g>
</g>
<g>
	<g>
		<path d="M228.279,168.161c-0.135-1.225-0.43-2.302-0.888-3.236c-0.461-0.93-1.132-1.683-2.017-2.26s-2.07-0.864-3.546-0.864
			c-0.797,0-1.603,0.109-2.417,0.333c-0.812,0.22-1.543,0.62-2.193,1.196c-0.65,0.577-1.184,1.35-1.597,2.326
			c-0.413,0.973-0.62,2.2-0.62,3.68c-0.266-0.887-0.642-1.775-1.13-2.661c-0.488-0.886-1.118-1.686-1.884-2.393
			c-0.77-0.71-1.693-1.287-2.77-1.731c-1.08-0.444-2.343-0.664-3.791-0.664c-1.626,0-3.249,0.265-4.876,0.797
			c-1.626,0.531-3.086,1.41-4.386,2.637c-1.302,1.227-2.359,2.836-3.169,4.833c-0.814,1.993-1.22,4.471-1.22,7.424v12.853
			c0,2.927,0.406,5.386,1.22,7.383c0.809,1.993,1.865,3.61,3.169,4.854c1.299,1.241,2.76,2.128,4.386,2.661
			c1.626,0.531,3.249,0.797,4.876,0.797c1.447,0,2.71-0.229,3.791-0.686c1.077-0.456,2-1.043,2.77-1.749
			c0.768-0.71,1.398-1.509,1.884-2.393c0.486-0.886,0.864-1.76,1.13-2.616c0,0.589,0.055,1.316,0.157,2.173
			c0.102,0.857,0.377,1.676,0.819,2.459c0.442,0.783,1.123,1.447,2.036,1.993c0.916,0.546,2.186,0.819,3.813,0.819
			c1.597,0,2.836-0.287,3.724-0.864c0.888-0.577,1.553-1.336,1.997-2.284c0.444-0.947,0.707-2.016,0.797-3.214
			s0.133-2.417,0.133-3.657h0.002v-24.202C228.478,170.638,228.414,169.387,228.279,168.161z M214.714,188.506
			c-0.164,1.64-0.451,3-0.867,4.077c-0.413,1.08-0.98,1.879-1.707,2.396c-0.722,0.517-1.659,0.773-2.813,0.773
			c-0.916,0-1.633-0.183-2.15-0.553s-0.911-0.864-1.174-1.483c-0.266-0.625-0.43-1.318-0.49-2.084
			c-0.056-0.77-0.087-1.553-0.087-2.35h-0.002V178.56c0-0.77,0.031-1.531,0.087-2.284c0.06-0.754,0.224-1.427,0.49-2.017
			c0.265-0.594,0.657-1.073,1.174-1.44c0.517-0.37,1.234-0.556,2.15-0.556c1.154,0,2.096,0.369,2.836,1.109
			c0.741,0.737,1.318,1.64,1.731,2.703c0.413,1.063,0.7,2.193,0.864,3.389c0.164,1.196,0.244,2.253,0.244,3.169
			C214.97,184.91,214.874,186.866,214.714,188.506z"/>
	</g>
</g>
<g>
	<g>
		<g>
			<path d="M246.917,157.544c2.127,0,3.78-0.555,4.963-1.661c1.183-1.111,1.773-2.801,1.773-5.077c0-2.362-0.553-4.076-1.662-5.144
				c-1.108-1.063-2.801-1.594-5.074-1.594c-2.13,0-3.784,0.531-4.966,1.594c-1.179,1.067-1.773,2.78-1.773,5.144
				c0,2.277,0.594,3.968,1.773,5.077C243.133,156.991,244.787,157.544,246.917,157.544z"/>
			<path d="M252.457,164.924c-0.473-0.93-1.152-1.683-2.039-2.26c-0.887-0.577-2.084-0.864-3.591-0.864s-2.705,0.287-3.591,0.864
				c-0.886,0.577-1.567,1.33-2.039,2.26c-0.473,0.932-0.773,1.99-0.906,3.169c-0.133,1.183-0.2,2.393-0.2,3.637v24.467
				c0,1.244,0.067,2.461,0.2,3.657c0.133,1.196,0.433,2.263,0.906,3.193s1.152,1.678,2.039,2.237
				c0.887,0.563,2.084,0.843,3.591,0.843s2.703-0.28,3.591-0.843c0.886-0.562,1.567-1.307,2.039-2.237s0.777-1.995,0.91-3.193
				s0.2-2.413,0.2-3.657V171.73c0-1.244-0.067-2.454-0.2-3.637C253.234,166.914,252.93,165.857,252.457,164.924z"/>
		</g>
	</g>
</g>
<g>
	<g>
		<path d="M280.494,150.274c-0.131-1.181-0.427-2.231-0.884-3.147c-0.461-0.913-1.133-1.654-2.021-2.217
			c-0.884-0.56-2.098-0.84-3.633-0.84c-1.507,0-2.703,0.28-3.591,0.84c-0.886,0.563-1.567,1.304-2.039,2.217
			c-0.473,0.917-0.777,1.968-0.906,3.147c-0.133,1.183-0.2,2.396-0.2,3.637v42.286c0,1.244,0.067,2.461,0.2,3.657
			c0.13,1.196,0.433,2.263,0.906,3.193c0.473,0.93,1.152,1.678,2.039,2.237c0.887,0.563,2.084,0.843,3.591,0.843
			c1.536,0,2.749-0.28,3.633-0.843c0.887-0.562,1.56-1.307,2.021-2.237c0.457-0.93,0.754-1.997,0.884-3.193
			c0.133-1.198,0.2-2.413,0.2-3.657v-42.286C280.694,152.67,280.627,151.456,280.494,150.274z"/>
	</g>
</g>
<g>
	<g>
		<path d="M326.025,165.521c-0.341-0.797-0.797-1.483-1.374-2.06c-0.577-0.577-1.256-1.027-2.039-1.353
			c-0.783-0.323-1.603-0.486-2.459-0.486s-1.64,0.201-2.35,0.597c-0.71,0.399-1.343,0.916-1.906,1.553
			c-0.56,0.633-1.046,1.367-1.463,2.193c-0.413,0.826-0.754,1.657-1.017,2.483l-5.676,18.703l-5.938-18.703
			c-0.297-0.886-0.654-1.729-1.067-2.526c-0.413-0.8-0.894-1.507-1.44-2.13c-0.546-0.62-1.167-1.106-1.86-1.459
			c-0.696-0.355-1.458-0.532-2.284-0.532c-0.918,0-1.78,0.157-2.594,0.466c-0.814,0.309-1.531,0.73-2.15,1.263
			c-0.62,0.529-1.109,1.166-1.463,1.903c-0.353,0.739-0.531,1.536-0.531,2.393c0,0.887,0.109,1.79,0.329,2.707
			c0.222,0.916,0.497,1.847,0.819,2.79c0.739,2.277,1.56,4.627,2.459,7.05c0.903,2.422,1.819,4.852,2.749,7.289
			c0.928,2.439,1.865,4.847,2.813,7.226c0.947,2.379,1.847,4.646,2.703,6.803l0.71,1.773c-0.503,0.976-1.003,2.039-1.507,3.193
			c-0.503,1.15-0.997,2.231-1.483,3.234c-0.49,1.007-0.993,1.84-1.51,2.507c-0.515,0.664-1.056,0.997-1.616,0.997
			c-0.266,0-0.589-0.015-0.976-0.043c-0.384-0.029-0.797-0.046-1.241-0.046c-0.65,0-1.263,0.084-1.84,0.244
			c-0.575,0.162-1.085,0.435-1.529,0.819c-0.439,0.387-0.79,0.887-1.039,1.51c-0.251,0.621-0.377,1.388-0.377,2.304
			c0,1.862,0.71,3.273,2.127,4.233c1.42,0.961,3.813,1.44,7.183,1.44c1.326,0,2.613-0.335,3.84-0.997
			c1.227-0.662,2.388-1.56,3.48-2.683c1.092-1.123,2.127-2.423,3.103-3.9c0.973-1.476,1.889-3.043,2.746-4.697
			c0.857-1.657,1.647-3.347,2.374-5.077c0.724-1.731,1.394-3.389,2.017-4.987l10.636-28.194c0.326-0.857,0.599-1.72,0.819-2.591
			c0.224-0.874,0.333-1.753,0.333-2.64C326.535,167.178,326.366,166.318,326.025,165.521z"/>
	</g>
</g>
<g>
	<g>
		<path d="M450.56,232.107H6.827c-3.77,0-6.827,3.057-6.827,6.827v75.093c0,3.77,3.057,6.827,6.827,6.827H450.56
			c3.77,0,6.827-3.057,6.827-6.827v-75.093C457.387,235.163,454.33,232.107,450.56,232.107z M443.733,307.2H13.653v-61.44h430.08
			V307.2z"/>
	</g>
</g>
<g>
	<g>
		<path d="M80.377,285.865c-0.445-1.096-1.033-2.082-1.76-2.959c-0.722-0.874-1.543-1.657-2.456-2.343
			c-0.911-0.69-1.847-1.326-2.804-1.913c-0.961-0.585-1.898-1.143-2.807-1.676c-0.915-0.531-1.727-1.073-2.444-1.633
			c-0.717-0.556-1.294-1.147-1.731-1.77c-0.439-0.623-0.666-1.326-0.683-2.109c0-0.951,0.107-1.685,0.321-2.193
			c0.213-0.524,0.503-0.911,0.867-1.161c0.36-0.251,0.78-0.404,1.253-0.461c0.476-0.056,0.963-0.084,1.466-0.084
			c1.06,0,1.867,0.295,2.417,0.893c0.546,0.592,0.823,1.655,0.823,3.183c0,0.37,0.109,0.739,0.333,1.101
			c0.224,0.362,0.514,0.686,0.867,0.963c0.353,0.28,0.753,0.51,1.2,0.686c0.447,0.176,0.893,0.263,1.34,0.263
			c0.575,0,1.113-0.085,1.606-0.263c0.493-0.177,0.92-0.423,1.283-0.741c0.364-0.317,0.65-0.703,0.867-1.161
			c0.215-0.457,0.321-0.964,0.321-1.524c0-0.37-0.027-0.864-0.084-1.476c-0.056-0.616-0.196-1.277-0.42-1.983
			c-0.224-0.707-0.563-1.423-1.021-2.15c-0.454-0.727-1.077-1.377-1.87-1.954c-0.79-0.577-1.78-1.053-2.973-1.423
			c-1.19-0.374-2.644-0.56-4.354-0.56h-0.727c-1.881,0-3.546,0.164-4.997,0.49c-1.452,0.324-2.676,0.877-3.673,1.661
			c-0.997,0.78-1.749,1.835-2.26,3.154c-0.514,1.323-0.777,2.98-0.797,4.97v0.447c0.019,1.21,0.247,2.29,0.683,3.239
			c0.435,0.949,1.019,1.813,1.746,2.596c0.727,0.78,1.541,1.504,2.444,2.164c0.899,0.659,1.826,1.292,2.777,1.896
			c0.951,0.606,1.881,1.21,2.794,1.816c0.91,0.602,1.72,1.244,2.427,1.913c0.707,0.669,1.28,1.393,1.717,2.176
			c0.44,0.78,0.657,1.657,0.657,2.623c0,0.783-0.097,1.43-0.294,1.94c-0.193,0.514-0.461,0.923-0.794,1.23
			c-0.336,0.307-0.741,0.521-1.217,0.643c-0.473,0.119-0.99,0.189-1.55,0.206c-1.116,0-1.973-0.253-2.567-0.766
			c-0.597-0.51-0.915-1.468-0.951-2.86c-0.02-0.633-0.164-1.188-0.433-1.664c-0.27-0.474-0.613-0.867-1.033-1.174
			c-0.416-0.305-0.882-0.532-1.393-0.683c-0.514-0.147-1.01-0.224-1.497-0.224c-0.521,0-1.017,0.077-1.493,0.224
			c-0.473,0.15-0.893,0.375-1.256,0.683c-0.36,0.305-0.654,0.703-0.877,1.186c-0.224,0.486-0.336,1.053-0.336,1.703
			c0,0.633,0.073,1.312,0.224,2.039c0.15,0.724,0.391,1.456,0.727,2.19c0.333,0.737,0.787,1.447,1.353,2.137
			c0.567,0.689,1.28,1.297,2.137,1.83c0.857,0.529,1.881,0.952,3.07,1.27c1.191,0.312,2.577,0.473,4.161,0.473h0.28
			c0.819-0.02,1.688-0.092,2.609-0.224c0.922-0.131,1.833-0.355,2.738-0.671c0.904-0.316,1.765-0.739,2.584-1.27
			c0.818-0.531,1.534-1.207,2.147-2.024c0.616-0.821,1.109-1.797,1.48-2.934c0.374-1.133,0.56-2.466,0.56-3.994v-0.224
			C81.067,288.212,80.824,286.966,80.377,285.865z"/>
	</g>
</g>
<g>
	<g>
		<path d="M137.279,269.413c-0.353-1.111-0.823-2.067-1.41-2.877c-0.584-0.809-1.246-1.493-1.98-2.053
			c-0.737-0.556-1.493-1.022-2.277-1.393c-1.824-0.857-3.889-1.341-6.197-1.454h-9.213c-1.043,0-1.848,0.179-2.417,0.543
			c-0.568,0.364-0.981,0.843-1.244,1.44c-0.261,0.592-0.415,1.273-0.461,2.036c-0.046,0.763-0.07,1.546-0.07,2.347v26.353
			c0,0.8,0.022,1.584,0.07,2.347s0.201,1.442,0.461,2.036c0.265,0.597,0.678,1.077,1.244,1.44c0.567,0.364,1.374,0.543,2.417,0.543
			c1.077,0,1.906-0.179,2.483-0.543c0.577-0.364,1-0.843,1.27-1.44c0.27-0.592,0.43-1.273,0.476-2.036
			c0.043-0.763,0.07-1.546,0.07-2.347v-9.042h3.572c2.14,0,4.06-0.256,5.763-0.77c1.703-0.51,3.147-1.273,4.326-2.29
			c1.183-1.014,2.087-2.27,2.71-3.767c0.623-1.5,0.937-3.243,0.937-5.236C137.812,271.799,137.632,270.519,137.279,269.413z
			 M129.114,275.033c-0.137,0.524-0.329,0.973-0.57,1.357c-0.244,0.379-0.514,0.7-0.811,0.963c-0.3,0.259-0.606,0.473-0.923,0.64
			c-0.744,0.391-1.58,0.614-2.51,0.671v-0.002h-3.796v-10.44h4.074c0.877,0.073,1.667,0.287,2.374,0.64
			c0.3,0.169,0.587,0.372,0.867,0.616c0.28,0.241,0.529,0.534,0.753,0.877c0.222,0.346,0.406,0.758,0.543,1.231
			c0.14,0.474,0.21,1.031,0.21,1.661C129.324,273.917,129.254,274.512,129.114,275.033z"/>
	</g>
</g>
<g>
	<g>
		<path d="M186.783,293.337c-0.613-0.253-1.3-0.406-2.063-0.463c-0.763-0.053-1.519-0.084-2.263-0.084h-6.644v-8.04h3.517
			c0.742,0,1.493-0.024,2.246-0.07c0.758-0.048,1.427-0.195,2.01-0.447c0.587-0.249,1.067-0.626,1.44-1.13
			c0.37-0.503,0.556-1.22,0.556-2.15c0-0.913-0.186-1.623-0.556-2.137c-0.374-0.51-0.853-0.894-1.44-1.143
			c-0.584-0.254-1.254-0.401-2.01-0.447c-0.753-0.046-1.502-0.07-2.246-0.07h-3.517v-7.593h6.644c0.742,0,1.5-0.031,2.263-0.084
			c0.763-0.056,1.451-0.217,2.063-0.476c0.618-0.259,1.118-0.655,1.51-1.186c0.391-0.531,0.587-1.27,0.587-2.22
			c0-0.947-0.196-1.688-0.587-2.22c-0.394-0.529-0.894-0.923-1.51-1.183c-0.613-0.263-1.3-0.42-2.063-0.476
			c-0.763-0.056-1.519-0.084-2.263-0.084v0.002h-10.945c-1.043,0-1.847,0.186-2.417,0.56c-0.567,0.369-0.981,0.858-1.241,1.463
			c-0.265,0.606-0.418,1.29-0.461,2.053c-0.046,0.763-0.07,1.543-0.07,2.343v26.247c0,0.8,0.024,1.58,0.07,2.343
			c0.044,0.763,0.198,1.447,0.461,2.053c0.261,0.602,0.674,1.092,1.241,1.463c0.57,0.374,1.374,0.56,2.417,0.56h10.943
			c0.727,0,1.471-0.027,2.234-0.084s1.454-0.213,2.067-0.476c0.614-0.259,1.121-0.661,1.524-1.2c0.401-0.539,0.601-1.294,0.601-2.26
			c0-0.93-0.196-1.661-0.587-2.193C187.899,293.977,187.399,293.586,186.783,293.337z"/>
	</g>
</g>
<g>
	<g>
		<path d="M245.239,287.281c-0.046-0.307-0.21-0.625-0.49-0.951c-0.276-0.324-0.719-0.614-1.323-0.864
			c-0.608-0.254-1.466-0.377-2.584-0.377c-1.118,0-2,0.082-2.654,0.249c-0.65,0.166-1.143,0.377-1.48,0.626
			c-0.333,0.253-0.546,0.526-0.64,0.826c-0.094,0.297-0.14,0.584-0.14,0.864c0,0.877-0.06,1.714-0.183,2.514
			c-0.121,0.8-0.34,1.507-0.657,2.123c-0.317,0.613-0.754,1.099-1.311,1.463c-0.56,0.364-1.277,0.546-2.15,0.546
			c-0.913,0-1.616-0.224-2.106-0.671c-0.493-0.447-0.853-0.94-1.077-1.48c-0.261-0.618-0.411-1.331-0.447-2.15v-17.7
			c0.038-0.669,0.188-1.277,0.447-1.816c0.224-0.447,0.584-0.86,1.077-1.244c0.49-0.381,1.193-0.57,2.106-0.57
			c0.874,0,1.591,0.147,2.15,0.447c0.558,0.297,0.993,0.724,1.311,1.283c0.317,0.556,0.538,1.236,0.657,2.036
			c0.123,0.804,0.183,1.703,0.183,2.71c0,0.65,0.186,1.157,0.556,1.521c0.374,0.364,0.819,0.643,1.34,0.84
			c0.522,0.193,1.063,0.317,1.62,0.36c0.56,0.046,1.022,0.07,1.396,0.07c1.118,0,1.978-0.131,2.584-0.391
			c0.602-0.261,1.046-0.577,1.323-0.951c0.28-0.37,0.444-0.756,0.49-1.157c0.046-0.401,0.07-0.741,0.07-1.021
			c0-0.648-0.049-1.422-0.154-2.316s-0.317-1.824-0.643-2.794c-0.323-0.968-0.794-1.92-1.41-2.86
			c-0.614-0.939-1.427-1.782-2.444-2.526c-1.012-0.742-2.26-1.35-3.739-1.816c-1.481-0.463-3.244-0.696-5.291-0.696
			c-2.441,0.13-4.606,0.643-6.504,1.543c-0.816,0.389-1.616,0.879-2.4,1.463c-0.78,0.585-1.476,1.312-2.08,2.179
			c-0.602,0.864-1.092,1.882-1.466,3.057c-0.37,1.172-0.556,2.522-0.556,4.047v15.58c0,1.859,0.259,3.439,0.78,4.733
			c0.524,1.292,1.186,2.372,1.997,3.236c0.809,0.867,1.707,1.541,2.693,2.024c0.988,0.486,1.947,0.85,2.877,1.091
			c0.928,0.244,1.773,0.391,2.526,0.447c0.753,0.056,1.3,0.084,1.633,0.084c2.082,0,3.995-0.294,5.736-0.881
			c1.741-0.584,3.241-1.437,4.497-2.553s2.227-2.478,2.917-4.089c0.69-1.611,1.033-3.441,1.033-5.487
			C245.309,287.788,245.286,287.589,245.239,287.281z"/>
	</g>
</g>
<g>
	<g>
		<path d="M286.085,265.709c-0.084-0.763-0.28-1.447-0.587-2.053c-0.307-0.602-0.768-1.092-1.381-1.463
			c-0.616-0.374-1.463-0.56-2.543-0.56c-1.077,0-1.923,0.186-2.54,0.56c-0.614,0.369-1.073,0.858-1.381,1.463
			c-0.307,0.606-0.503,1.29-0.587,2.053c-0.084,0.763-0.126,1.543-0.126,2.343h0.002v26.247c0,0.818,0.043,1.611,0.126,2.374
			c0.084,0.763,0.28,1.445,0.587,2.05c0.307,0.608,0.768,1.091,1.381,1.454c0.616,0.364,1.463,0.543,2.54,0.543
			c1.08,0,1.934-0.179,2.557-0.543s1.089-0.848,1.396-1.454c0.307-0.602,0.497-1.287,0.57-2.05c0.077-0.765,0.113-1.557,0.113-2.374
			v-26.247C286.211,267.252,286.169,266.472,286.085,265.709z"/>
	</g>
</g>
<g>
	<g>
		<path d="M344.677,290.473c-0.056-1.319-0.104-2.613-0.14-3.879l-5.81-19.712c-0.206-0.69-0.434-1.357-0.683-1.997
			c-0.254-0.643-0.594-1.2-1.021-1.676c-0.43-0.473-0.985-0.857-1.661-1.143c-0.679-0.29-1.533-0.433-2.557-0.433h-2.79
			c-1.043,0-1.899,0.143-2.57,0.433c-0.671,0.287-1.22,0.671-1.647,1.143c-0.428,0.476-0.773,1.033-1.033,1.676
			c-0.261,0.64-0.485,1.307-0.671,1.997c-0.93,3.256-1.906,6.547-2.93,9.866c-1.027,3.325-2.004,6.605-2.934,9.844
			c-0.021,0.597-0.036,1.224-0.056,1.884c-0.017,0.664-0.036,1.326-0.053,1.997c-0.019,0.669-0.032,1.33-0.043,1.983
			c-0.01,0.65-0.014,1.266-0.014,1.843v0.836c0,0.707,0.017,1.389,0.056,2.05c0.036,0.664,0.176,1.258,0.416,1.79
			c0.244,0.529,0.623,0.952,1.147,1.27c0.521,0.316,1.265,0.473,2.234,0.473c0.968,0,1.71-0.155,2.234-0.473
			c0.521-0.316,0.908-0.736,1.157-1.256c0.254-0.524,0.401-1.116,0.447-1.787c0.046-0.671,0.07-1.36,0.07-2.067v-3.91h11.17v3.91
			c0,0.707,0.019,1.396,0.067,2.067s0.198,1.263,0.447,1.787c0.254,0.519,0.64,0.94,1.161,1.256s1.268,0.473,2.234,0.473
			c0.951,0,1.683-0.155,2.207-0.473c0.521-0.316,0.903-0.739,1.143-1.27c0.244-0.534,0.387-1.126,0.433-1.79
			c0.046-0.66,0.07-1.343,0.07-2.05v-0.836C344.76,293.069,344.733,291.796,344.677,290.473z M327.004,283.856l4.134-14.964h0.613
			l4.134,14.964H327.004z"/>
	</g>
</g>
<g>
	<g>
		<path d="M396.745,294.383c-0.353-0.541-0.823-0.949-1.41-1.23s-1.249-0.457-1.997-0.531c-0.742-0.073-1.497-0.109-2.26-0.109
			h-5.473v-24.46c0-0.8-0.031-1.58-0.097-2.343c-0.067-0.763-0.237-1.447-0.517-2.053c-0.282-0.602-0.717-1.092-1.314-1.463
			c-0.594-0.374-1.423-0.56-2.483-0.56c-0.986,0-1.76,0.186-2.316,0.56c-0.56,0.369-0.983,0.858-1.27,1.463
			c-0.29,0.606-0.469,1.29-0.546,2.053c-0.073,0.763-0.109,1.543-0.109,2.343h0v28.534c0,0.949,0.14,1.7,0.42,2.249
			c0.276,0.548,0.683,0.964,1.213,1.241c0.531,0.282,1.178,0.457,1.94,0.531c0.763,0.077,1.637,0.113,2.623,0.113h7.929
			c0.763,0,1.516-0.036,2.26-0.113c0.748-0.073,1.41-0.251,1.997-0.531c0.587-0.278,1.056-0.695,1.41-1.241
			c0.353-0.55,0.531-1.299,0.531-2.249C397.276,295.656,397.099,294.924,396.745,294.383z"/>
	</g>
</g>
<g>
</g>
<g>
</g>
<g>
</g>
<g>
</g>
<g>
</g>
<g>
</g>
<g>
</g>
<g>
</g>
<g>
</g>
<g>
</g>
<g>
</g>
<g>
</g>
<g>
</g>
<g>
</g>
<g>
</g>
</svg>
