<?xml version="1.0" encoding="iso-8859-1"?>
<!-- Generator: Adobe Illustrator 19.0.0, SVG Export Plug-In . SVG Version: 6.00 Build 0)  -->
<svg version="1.1" id="Capa_1" xmlns="http://www.w3.org/2000/svg" xmlns:xlink="http://www.w3.org/1999/xlink" x="0px" y="0px"
	 viewBox="0 0 395.947 395.947" style="enable-background:new 0 0 395.947 395.947;" xml:space="preserve">
<g>
	<g>
		<path d="M75.093,95.573v279.893c0,11.293,9.187,20.48,20.48,20.48c11.293,0,20.48-9.187,20.48-20.48V95.573H75.093z
			 M102.4,375.467c0,3.763-3.063,6.827-6.827,6.827c-3.763,0-6.827-3.063-6.827-6.827v-266.24H102.4V375.467z"/>
	</g>
</g>
<g>
	<g>
		<path d="M273.067,95.573v279.893c0,11.293,9.187,20.48,20.48,20.48c11.293,0,20.48-9.187,20.48-20.48V95.573H273.067z
			 M300.373,375.467c0,3.763-3.063,6.827-6.827,6.827c-3.763,0-6.827-3.063-6.827-6.827v-266.24h13.653V375.467z"/>
	</g>
</g>
<g>
	<g>
		<path d="M177.493,211.627v163.84c0,11.293,9.187,20.48,20.48,20.48s20.48-9.187,20.48-20.48v-163.84H177.493z M204.8,375.467
			c0,3.763-3.063,6.827-6.827,6.827s-6.827-3.063-6.827-6.827V225.28H204.8V375.467z"/>
	</g>
</g>
<g>
	<g>
		<path d="M122.88,0v68.267c0,15.056-12.25,27.307-27.307,27.307s-27.307-12.25-27.307-27.307V0H54.613v68.267
			c0,22.586,18.374,40.96,40.96,40.96c22.586,0,40.96-18.374,40.96-40.96V0H122.88z"/>
	</g>
</g>
<g>
	<g>
		<rect x="88.747" y="0" width="13.653" height="102.4"/>
	</g>
</g>
<g>
	<g>
		<path d="M211.627,0c-22.883,0-42.344,17.113-45.317,40.323l-9.286,177.773c-0.099,1.871,0.577,3.697,1.867,5.057
			c1.287,1.357,3.075,2.127,4.949,2.127h47.787c3.77,0,6.827-3.057,6.827-6.827V6.827C218.453,3.057,215.397,0,211.627,0z
			 M204.8,211.627h-33.766l8.863-170.073c1.754-13.59,11.964-24.323,24.904-27.16V211.627z"/>
	</g>
</g>
<g>
	<g>
		<path d="M293.547,0c-26.349,0-47.787,24.499-47.787,54.613s21.437,54.613,47.787,54.613c26.349,0,47.787-24.499,47.787-54.613
			S319.896,0,293.547,0z M293.547,95.573c-18.819,0-34.133-18.374-34.133-40.96c0-22.586,15.314-40.96,34.133-40.96
			c18.819,0,34.133,18.374,34.133,40.96C327.68,77.199,312.366,95.573,293.547,95.573z"/>
	</g>
</g>
<g>
</g>
<g>
</g>
<g>
</g>
<g>
</g>
<g>
</g>
<g>
</g>
<g>
</g>
<g>
</g>
<g>
</g>
<g>
</g>
<g>
</g>
<g>
</g>
<g>
</g>
<g>
</g>
<g>
</g>
</svg>
