<?xml version="1.0" encoding="iso-8859-1"?>
<!-- Generator: Adobe Illustrator 19.0.0, SVG Export Plug-In . SVG Version: 6.00 Build 0)  -->
<svg version="1.1" id="Capa_1" xmlns="http://www.w3.org/2000/svg" xmlns:xlink="http://www.w3.org/1999/xlink" x="0px" y="0px"
	 viewBox="0 0 402.771 402.771" style="enable-background:new 0 0 402.771 402.771;" xml:space="preserve">
<g>
	<g>
		<path d="M371.056,361.811H36.55c-3.773,0-6.827,3.057-6.827,6.827v27.307c0,3.77,3.053,6.827,6.827,6.827h334.507
			c3.773,0,6.827-3.057,6.827-6.827v-27.307C377.883,364.868,374.83,361.811,371.056,361.811z M364.23,389.118H43.376v-13.653
			H364.23V389.118z"/>
	</g>
</g>
<g>
	<g>
		<path d="M316.443,225.655c-3.773,0-6.827,3.057-6.827,6.827v30.343c0,54.579-44.407,98.987-98.987,98.987h-20.48
			c-54.579,0-98.987-44.408-98.987-98.987v-98.987h129.28c3.773,0,6.827-3.057,6.827-6.827s-3.053-6.827-6.827-6.827H84.336
			c-3.773,0-6.827,3.057-6.827,6.827v105.813c0,62.111,50.533,112.64,112.64,112.64h20.48c62.107,0,112.64-50.529,112.64-112.64
			v-30.343C323.27,228.712,320.216,225.655,316.443,225.655z"/>
	</g>
</g>
<g>
	<g>
		<path d="M84.336,150.184H16.07c-3.773,0-6.827,3.057-6.827,6.827v20.48c0,41.407,33.686,75.093,75.093,75.093
			c3.773,0,6.827-3.057,6.827-6.827v-88.747C91.163,153.241,88.11,150.184,84.336,150.184z M77.51,238.554
			c-30.681-3.406-54.613-29.493-54.613-61.063v-13.653v0H77.51V238.554z"/>
	</g>
</g>
<g>
	<g>
		<path d="M164.763,63.999c-5.76-7.2-7.9-14.199-6.54-21.4c3.232-17.096,24.866-29.73,25.079-29.856
			c3.267-1.877,4.4-6.047,2.526-9.313c-1.886-3.277-6.06-4.39-9.306-2.533c-1.113,0.633-27.261,15.817-31.706,39.107
			c-2.133,11.211,0.988,22.154,9.281,32.524c24.593,30.739,19.413,54.572,19.193,55.52c-0.92,3.661,1.306,7.368,4.966,8.281
			c0.555,0.14,1.115,0.203,1.661,0.203c3.06,0,5.84-2.07,6.613-5.171C186.844,130.109,193.843,100.353,164.763,63.999z"/>
	</g>
</g>
<g>
	<g>
		<path d="M219.376,63.999c-5.76-7.2-7.9-14.199-6.54-21.4c3.232-17.096,24.866-29.73,25.079-29.856
			c3.267-1.877,4.4-6.047,2.526-9.313c-1.886-3.277-6.054-4.39-9.306-2.533c-1.113,0.633-27.261,15.817-31.706,39.107
			c-2.133,11.211,0.988,22.154,9.281,32.524c24.593,30.739,19.413,54.572,19.193,55.52c-0.92,3.661,1.306,7.368,4.966,8.281
			c0.555,0.14,1.115,0.203,1.661,0.203c3.06,0,5.84-2.07,6.613-5.171C241.457,130.109,248.456,100.353,219.376,63.999z"/>
	</g>
</g>
<g>
	<g>
		<path d="M200.39,341.331c-48.934,0-88.747-39.81-88.747-88.747c0-3.77-3.053-6.827-6.827-6.827s-6.827,3.057-6.827,6.827
			c0,56.463,45.933,102.4,102.4,102.4c3.773,0,6.827-3.057,6.827-6.827S204.163,341.331,200.39,341.331z"/>
	</g>
</g>
<g>
	<g>
		<path d="M392.108,67.478c-1.159-1.51-2.906-2.463-4.799-2.633c-82.101-7.284-131.901,33.813-149.507,51.823
			c-14.007,14.317-21.593,33.234-21.373,53.257c0.22,20.026,8.226,38.767,22.547,52.77c14.566,14.244,33.493,21.337,52.42,21.337
			c19.48,0,38.953-7.523,53.612-22.516c27.486-28.11,47.58-143.807,48.42-148.717C393.755,70.918,393.275,68.991,392.108,67.478z
			 M335.249,211.967c-23.632,24.177-62.546,24.61-86.726,0.966c-11.708-11.453-18.26-26.781-18.441-43.16
			c-0.181-16.379,6.026-31.85,17.48-43.559c14.94-15.28,55.061-48.57,120.707-48.57c3.388,0,6.847,0.09,10.373,0.273
			C371.841,114.628,354.208,192.575,335.249,211.967z"/>
	</g>
</g>
<g>
	<g>
		<path d="M355.143,94.562c-1.727-3.34-5.827-4.661-9.201-2.924c-2.519,1.307-61.979,32.483-80.62,77.367
			c-5.801,13.967-9.882,30.194-13.827,45.884c-3.799,15.102-7.726,30.72-13.146,44.133c-1.406,3.497,0.28,7.477,3.78,8.887
			c0.833,0.336,1.7,0.5,2.553,0.5c2.7,0,5.26-1.618,6.335-4.272c5.767-14.283,9.807-30.367,13.72-45.916
			c3.999-15.911,7.779-30.94,13.199-43.974c16.713-40.257,73.713-70.183,74.286-70.484
			C355.57,102.029,356.877,97.909,355.143,94.562z"/>
	</g>
</g>
<g>
	<g>
		<path d="M334.197,187.905c-0.44-3.741-3.767-6.453-7.567-5.99l-60.22,7.009l-15.486-25.443c-1.959-3.214-6.153-4.246-9.38-2.28
			c-3.221,1.959-4.246,6.159-2.287,9.38l17.76,29.181c1.246,2.05,3.466,3.277,5.833,3.277c0.259,0,0.526-0.014,0.787-0.046
			l64.567-7.516C331.952,195.039,334.638,191.651,334.197,187.905z"/>
	</g>
</g>
<g>
	<g>
		<path d="M336.083,129.872c-0.048,0-0.101,0-0.154,0.003l-35.746,0.814l-5.221-17.597c-1.074-3.613-4.854-5.69-8.487-4.599
			c-3.62,1.07-5.68,4.871-4.606,8.487l6.707,22.596c0.867,2.9,3.533,4.883,6.547,4.883c0.053,0,0.099,0,0.154-0.003l40.96-0.934
			c3.773-0.084,6.76-3.21,6.673-6.98C342.823,132.824,339.783,129.872,336.083,129.872z"/>
	</g>
</g>
<g>
	<g>
		<path d="M334.155,157.296c-0.587-3.722-4.093-6.26-7.806-5.676l-47.167,7.463l-10.46-25.02c-1.452-3.477-5.466-5.096-8.933-3.666
			c-3.48,1.456-5.12,5.453-3.666,8.933l12.527,29.967c1.073,2.57,3.581,4.193,6.294,4.193c0.358,0,0.713-0.026,1.072-0.085
			l52.466-8.3C332.207,164.515,334.749,161.02,334.155,157.296z"/>
	</g>
</g>
<g>
</g>
<g>
</g>
<g>
</g>
<g>
</g>
<g>
</g>
<g>
</g>
<g>
</g>
<g>
</g>
<g>
</g>
<g>
</g>
<g>
</g>
<g>
</g>
<g>
</g>
<g>
</g>
<g>
</g>
</svg>
