<?xml version="1.0" encoding="iso-8859-1"?>
<!-- Generator: Adobe Illustrator 19.0.0, SVG Export Plug-In . SVG Version: 6.00 Build 0)  -->
<svg version="1.1" id="Capa_1" xmlns="http://www.w3.org/2000/svg" xmlns:xlink="http://www.w3.org/1999/xlink" x="0px" y="0px"
	 viewBox="0 0 402.771 402.771" style="enable-background:new 0 0 402.771 402.771;" xml:space="preserve">
<g>
	<g>
		<path d="M363.612,361.811H29.106c-3.773,0-6.827,3.057-6.827,6.827v27.307c0,3.77,3.053,6.827,6.827,6.827h334.507
			c3.773,0,6.827-3.057,6.827-6.827v-27.307C370.439,364.868,367.386,361.811,363.612,361.811z M356.786,389.118H35.932v-13.653
			h320.853V389.118z"/>
	</g>
</g>
<g>
	<g>
		<path d="M315.826,238.931c-3.773,0-6.827,3.057-6.827,6.827v17.067c0,54.579-44.408,98.987-98.987,98.987h-20.48
			c-54.579,0-98.987-44.408-98.987-98.987v-98.987h144.12c3.773,0,6.827-3.057,6.827-6.827s-3.053-6.827-6.827-6.827H83.719
			c-3.773,0-6.827,3.057-6.827,6.827v105.813c0,62.111,50.533,112.64,112.64,112.64h20.48c62.107,0,112.64-50.529,112.64-112.64
			v-17.067C322.652,241.988,319.599,238.931,315.826,238.931z"/>
	</g>
</g>
<g>
	<g>
		<path d="M83.719,150.184H15.452c-3.773,0-6.827,3.057-6.827,6.827v20.48c0,41.407,33.686,75.093,75.093,75.093
			c3.773,0,6.827-3.057,6.827-6.827v-88.747C90.546,153.241,87.493,150.184,83.719,150.184z M76.892,238.554
			c-30.681-3.406-54.613-29.493-54.613-61.063v-13.653v0h54.613V238.554z"/>
	</g>
</g>
<g>
	<g>
		<path d="M164.146,63.999c-5.76-7.2-7.9-14.199-6.54-21.4c3.232-17.096,24.866-29.73,25.079-29.856
			c3.267-1.877,4.4-6.047,2.526-9.313c-1.886-3.277-6.054-4.39-9.306-2.533c-1.113,0.633-27.261,15.817-31.706,39.107
			c-2.133,11.211,0.988,22.154,9.281,32.524c24.593,30.739,19.413,54.572,19.193,55.52c-0.92,3.661,1.306,7.368,4.966,8.281
			c0.555,0.14,1.115,0.203,1.661,0.203c3.06,0,5.84-2.07,6.613-5.171C186.227,130.109,193.226,100.353,164.146,63.999z"/>
	</g>
</g>
<g>
	<g>
		<path d="M218.759,63.999c-5.76-7.2-7.9-14.199-6.54-21.4c3.232-17.096,24.866-29.73,25.079-29.856
			c3.267-1.877,4.4-6.047,2.526-9.313c-1.886-3.277-6.06-4.39-9.306-2.533c-1.113,0.633-27.261,15.817-31.706,39.107
			c-2.133,11.211,0.988,22.154,9.281,32.524c24.593,30.739,19.413,54.572,19.193,55.52c-0.92,3.661,1.306,7.368,4.966,8.281
			c0.555,0.14,1.114,0.203,1.661,0.203c3.06,0,5.84-2.07,6.613-5.171C240.84,130.109,247.839,100.353,218.759,63.999z"/>
	</g>
</g>
<g>
	<g>
		<path d="M199.772,341.331c-48.934,0-88.747-39.81-88.747-88.747c0-3.77-3.053-6.827-6.827-6.827s-6.827,3.057-6.827,6.827
			c0,56.463,45.933,102.4,102.4,102.4c3.773,0,6.827-3.057,6.827-6.827S203.546,341.331,199.772,341.331z"/>
	</g>
</g>
<g>
	<g>
		<path d="M367.748,79.967c-16.773-11.754-38.719-13.751-61.786-5.613c-22.246,7.857-43.013,24.339-58.467,46.401
			c-15.454,22.062-23.847,47.21-23.634,70.803c0.227,24.45,9.6,44.389,26.394,56.149c9.993,7.004,21.813,10.544,34.613,10.544
			c8.694,0,17.847-1.637,27.174-4.931c22.246-7.857,43.013-24.337,58.467-46.401c15.454-22.062,23.847-47.21,23.634-70.803
			C393.914,111.667,384.541,91.728,367.748,79.967z M359.32,199.087c-13.833,19.753-32.239,34.439-51.826,41.359
			c-18.78,6.634-36.333,5.236-49.413-3.92c-13.073-9.163-20.381-25.177-20.567-45.094c-0.188-20.774,7.327-43.093,21.166-62.846
			c13.833-19.753,32.239-34.439,51.826-41.359c7.813-2.76,15.415-4.13,22.567-4.13c10.04,0,19.207,2.703,26.846,8.05
			c13.073,9.163,20.381,25.177,20.567,45.093C380.674,157.014,373.159,179.334,359.32,199.087z"/>
	</g>
</g>
<g>
	<g>
		<path d="M376.214,91.932c-2.014-3.19-6.221-4.137-9.414-2.137c-4.087,2.579-100.314,64.169-113.307,154.996
			c-0.532,3.732,2.06,7.19,5.794,7.723c0.326,0.046,0.652,0.07,0.973,0.07c3.347,0,6.267-2.456,6.755-5.857
			c12.087-84.518,106.119-144.78,107.066-145.381C377.267,99.333,378.228,95.119,376.214,91.932z"/>
	</g>
</g>
<g>
</g>
<g>
</g>
<g>
</g>
<g>
</g>
<g>
</g>
<g>
</g>
<g>
</g>
<g>
</g>
<g>
</g>
<g>
</g>
<g>
</g>
<g>
</g>
<g>
</g>
<g>
</g>
<g>
</g>
</svg>
