<?xml version="1.0" encoding="iso-8859-1"?>
<!-- Generator: Adobe Illustrator 19.0.0, SVG Export Plug-In . SVG Version: 6.00 Build 0)  -->
<svg version="1.1" id="Capa_1" xmlns="http://www.w3.org/2000/svg" xmlns:xlink="http://www.w3.org/1999/xlink" x="0px" y="0px"
	 viewBox="0 0 417.836 417.836" style="enable-background:new 0 0 417.836 417.836;" xml:space="preserve">
<g>
	<g>
		<path d="M125.053,267.281c-0.901-3.661-4.584-5.927-8.264-4.994c-74.226,18.273-99.862,16.02-102.95,12.44
			c-2.111-5.888,16.956-35.367,77.123-89.421c2.804-2.519,3.034-6.839,0.514-9.639c-2.512-2.807-6.823-3.034-9.639-0.521
			c-90.604,81.399-83.04,99.113-80.556,104.933c1.642,3.84,4.54,10.646,27.416,10.646c16.949,0,44.87-3.741,91.36-15.184
			C123.717,274.64,125.954,270.941,125.053,267.281z"/>
	</g>
</g>
<g>
	<g>
		<path d="M337.81,176.766c-2.796-2.528-7.113-2.307-9.643,0.493c-2.528,2.792-2.307,7.113,0.49,9.639
			c58.793,53.113,77.416,82.06,75.443,87.653c-3.197,3.78-29.051,6.026-103.967-12.5c-3.651-0.899-7.361,1.326-8.267,4.987
			s1.326,7.361,4.987,8.267c47.063,11.639,75.24,15.427,92.3,15.427c22.859,0,25.769-6.808,27.412-10.653
			C419.016,274.339,426.473,256.867,337.81,176.766z"/>
	</g>
</g>
<g>
	<g>
		<path d="M168.71,270.359h-32.056c-4.661,0-10.394-3.966-12.027-8.32l-31.399-83.732c-0.602-1.601-0.55-3.253,0.15-4.64
			c0.7-1.387,1.993-2.415,3.644-2.881l61.133-17.466c3.623-1.039,5.722-4.82,4.686-8.439c-1.036-3.627-4.816-5.693-8.439-4.693
			l-61.133,17.466c-5.357,1.533-9.646,5.033-12.08,9.866c-2.437,4.833-2.702,10.366-0.747,15.587l31.403,83.732
			c3.613,9.626,14.51,17.172,24.81,17.172h32.056c3.77,0,6.827-3.052,6.827-6.825S172.48,270.359,168.71,270.359z"/>
	</g>
</g>
<g>
	<g>
		<path d="M335.504,167.517c-2.434-4.833-6.723-8.334-12.08-9.866l-61.133-17.466c-3.63-0.993-7.404,1.067-8.439,4.693
			c-1.038,3.62,1.063,7.4,4.686,8.439l61.133,17.466c1.65,0.468,2.944,1.493,3.644,2.881c0.7,1.388,0.754,3.04,0.15,4.64
			l-31.396,83.732c-1.637,4.354-7.368,8.32-12.03,8.32h-31.783c-3.77,0-6.827,3.053-6.827,6.827s3.057,6.827,6.827,6.827h31.783
			c10.3,0,21.197-7.547,24.813-17.174l31.399-83.732C338.204,177.884,337.941,172.351,335.504,167.517z"/>
	</g>
</g>
<g>
	<g>
		<path d="M258.062,128.351c-4.854-5.274-11.6-8.18-18.993-8.18h-61.447c-7.397,0-14.14,2.906-18.997,8.18
			c-4.855,5.28-7.195,12.254-6.583,19.633l10.254,122.999c1.224,14.713,14.244,26.68,29.024,26.68h34.053
			c14.783,0,27.8-11.967,29.022-26.68l10.254-122.999C265.263,140.605,262.923,133.632,258.062,128.351z M251.043,146.851
			l-10.254,122.999c-0.637,7.673-7.697,14.16-15.416,14.16H191.32c-7.719,0-14.78-6.487-15.416-14.16L165.65,146.851
			c-0.294-3.534,0.78-6.82,3.024-9.254c2.239-2.434,5.417-3.773,8.95-3.773h61.447c3.529,0,6.709,1.34,8.946,3.773
			C250.263,140.038,251.336,143.325,251.043,146.851z"/>
	</g>
</g>
<g>
</g>
<g>
</g>
<g>
</g>
<g>
</g>
<g>
</g>
<g>
</g>
<g>
</g>
<g>
</g>
<g>
</g>
<g>
</g>
<g>
</g>
<g>
</g>
<g>
</g>
<g>
</g>
<g>
</g>
</svg>
