<?xml version="1.0" encoding="iso-8859-1"?>
<!-- Generator: Adobe Illustrator 19.0.0, SVG Export Plug-In . SVG Version: 6.00 Build 0)  -->
<svg version="1.1" id="Capa_1" xmlns="http://www.w3.org/2000/svg" xmlns:xlink="http://www.w3.org/1999/xlink" x="0px" y="0px"
	 viewBox="0 0 375.94 375.94" style="enable-background:new 0 0 375.94 375.94;" xml:space="preserve">
<g>
	<g>
		<path d="M320.535,14.865c-47.983-27.913-109.423-15.522-142.923,28.82c-2.273,3.011-1.678,7.291,1.33,9.564
			c3.014,2.27,7.287,1.671,9.564-1.329c29.346-38.84,83.157-49.696,125.164-25.254c46.199,26.883,62.08,86.648,35.396,133.221
			c-7.95,13.88-19.244,25.656-32.66,34.053c-3.198,2-4.168,6.214-2.167,9.407c1.297,2.07,3.521,3.207,5.794,3.207
			c1.237,0,2.49-0.336,3.613-1.043c15.321-9.586,28.206-23.018,37.267-38.84C391.312,113.611,373.197,45.509,320.535,14.865z"/>
	</g>
</g>
<g>
	<g>
		<path d="M184.054,43.739c-28.317-16.399-61.31-20.763-92.904-12.3c-31.653,8.484-58.103,28.824-74.484,57.274
			c-33.773,58.663-13.653,133.946,44.846,167.82c18.78,10.877,39.677,16.49,61.066,16.49c4.05,0,8.12-0.203,12.199-0.606
			c3.75-0.374,6.49-3.717,6.117-7.47c-0.374-3.75-3.7-6.533-7.47-6.117c-22.729,2.256-45.223-2.621-65.067-14.111
			c-52-30.111-69.881-97.039-39.854-149.193C43.06,70.24,66.562,52.163,94.686,44.63c28.059-7.525,57.373-3.644,82.529,10.923
			c36.932,21.386,58.109,62.727,53.943,105.32c-0.367,3.75,2.377,7.09,6.13,7.456c3.739,0.386,7.093-2.381,7.456-6.13
			C249.432,114.299,225.608,67.799,184.054,43.739z"/>
	</g>
</g>
<g>
	<g>
		<path d="M125.447,154.285l-19.28-21.644l5.876-28.387c0.601-2.883-0.72-5.823-3.27-7.296c-2.546-1.469-5.757-1.149-7.953,0.818
			l-21.644,19.284l-28.387-5.876c-2.906-0.604-5.827,0.724-7.296,3.27c-1.469,2.55-1.142,5.757,0.818,7.953l19.28,21.644
			l-5.876,28.384c-0.594,2.883,0.724,5.823,3.273,7.296c1.063,0.613,2.239,0.913,3.413,0.913c1.637,0,3.26-0.587,4.54-1.731
			l21.641-19.28l28.387,5.876c2.9,0.601,5.827-0.727,7.296-3.27C127.734,159.688,127.407,156.481,125.447,154.285z M89.99,145.569
			c-2.115-0.44-4.314,0.154-5.924,1.587l-8.796,7.834l2.386-11.534c0.44-2.115-0.15-4.311-1.587-5.924l-7.837-8.796l11.541,2.386
			c2.126,0.456,4.318-0.15,5.924-1.587l8.796-7.837l-2.386,11.537c-0.44,2.115,0.15,4.311,1.587,5.924l7.837,8.796L89.99,145.569z"
			/>
	</g>
</g>
<g>
	<g>
		<path d="M318.236,116.772l-13.027-25.897l13.027-25.897c1.323-2.63,0.811-5.813-1.273-7.893c-2.08-2.077-5.257-2.599-7.893-1.273
			l-25.897,13.027l-25.897-13.027c-2.63-1.326-5.813-0.804-7.893,1.273c-2.084,2.08-2.592,5.263-1.273,7.893l13.024,25.897
			l-13.024,25.897c-1.321,2.63-0.811,5.813,1.273,7.893c1.311,1.311,3.057,2,4.83,2c1.039,0,2.089-0.237,3.063-0.727l25.897-13.027
			l25.897,13.027c2.637,1.323,5.813,0.807,7.893-1.273C319.046,122.585,319.558,119.402,318.236,116.772z M291.468,93.942
			l5.294,10.523l-10.523-5.294c-1.927-0.966-4.207-0.966-6.134,0l-10.527,5.297l5.294-10.527c0.969-1.93,0.969-4.203,0-6.134
			l-5.294-10.527l10.527,5.297c1.927,0.966,4.207,0.966,6.134,0l10.523-5.294l-5.294,10.523
			C290.499,89.739,290.499,92.012,291.468,93.942z"/>
	</g>
</g>
<g>
	<g>
		<path d="M239.862,157.486c-59.848,0-108.534,49-108.534,109.227S180.016,375.94,239.862,375.94
			c59.846,0,108.534-49,108.534-109.227S299.71,157.486,239.862,157.486z M239.862,362.286c-52.318,0-94.88-42.873-94.88-95.573
			c0-52.7,42.564-95.573,94.88-95.573c52.316,0,94.88,42.873,94.88,95.573C334.743,319.413,292.18,362.286,239.862,362.286z"/>
	</g>
</g>
<g>
	<g>
		<path d="M256.796,260.132l-13.027-25.897l13.027-25.897c1.323-2.63,0.811-5.813-1.273-7.893c-2.077-2.077-5.26-2.596-7.893-1.273
			l-25.897,13.027l-25.897-13.027c-2.633-1.323-5.816-0.804-7.893,1.273c-2.084,2.08-2.592,5.263-1.273,7.893l13.024,25.897
			l-13.024,25.897c-1.321,2.63-0.811,5.813,1.273,7.893c1.311,1.311,3.057,2,4.83,2c1.039,0,2.089-0.237,3.063-0.727l25.897-13.027
			l25.897,13.027c2.633,1.326,5.816,0.804,7.893-1.273C257.606,265.945,258.118,262.762,256.796,260.132z M230.028,237.302
			l5.294,10.523l-10.523-5.294c-1.927-0.966-4.207-0.966-6.134,0l-10.527,5.297l5.294-10.527c0.969-1.93,0.969-4.203,0-6.134
			l-5.294-10.527l10.527,5.298c1.927,0.966,4.207,0.966,6.134,0l10.523-5.294l-5.294,10.523
			C229.059,233.099,229.059,235.372,230.028,237.302z"/>
	</g>
</g>
<g>
</g>
<g>
</g>
<g>
</g>
<g>
</g>
<g>
</g>
<g>
</g>
<g>
</g>
<g>
</g>
<g>
</g>
<g>
</g>
<g>
</g>
<g>
</g>
<g>
</g>
<g>
</g>
<g>
</g>
</svg>
