<?xml version="1.0" encoding="iso-8859-1"?>
<!-- Generator: Adobe Illustrator 19.0.0, SVG Export Plug-In . SVG Version: 6.00 Build 0)  -->
<svg version="1.1" id="Capa_1" xmlns="http://www.w3.org/2000/svg" xmlns:xlink="http://www.w3.org/1999/xlink" x="0px" y="0px"
	 viewBox="0 0 392.428 392.428" style="enable-background:new 0 0 392.428 392.428;" xml:space="preserve">
<g>
	<g>
		<path d="M93.869,192.27l-8.713-8.713c-2.666-2.666-6.987-2.666-9.653,0c-2.666,2.666-2.666,6.987,0,9.653l8.713,8.713
			c1.333,1.333,3.081,2,4.826,2c1.746,0,3.494-0.666,4.826-2C96.534,199.257,96.534,194.936,93.869,192.27z"/>
	</g>
</g>
<g>
	<g>
		<path d="M78.698,235.024l-28.693-28.692c-2.666-2.666-6.987-2.666-9.653,0s-2.666,6.987,0,9.653l28.693,28.693
			c1.333,1.333,3.081,2,4.826,2c1.748,0,3.494-0.667,4.826-2C81.364,242.011,81.364,237.69,78.698,235.024z"/>
	</g>
</g>
<g>
	<g>
		<path d="M134.513,31.028c-1.266-3.256-4.796-5.033-8.156-4.11c-3.366,0.92-5.499,4.233-4.943,7.68
			c4.386,27.023-23.078,60.409-39.837,77.903c-2.606,2.722-2.516,7.043,0.206,9.653c2.722,2.609,7.05,2.521,9.653-0.206
			c11.692-12.206,24.264-27.377,32.98-43.5c-3.272,19.782-13.302,44.462-38.649,69.583c-2.676,2.656-2.697,6.977-0.043,9.656
			c1.336,1.347,3.094,2.021,4.85,2.021c1.737,0,3.473-0.66,4.804-1.976C158.493,95.168,135.523,33.619,134.513,31.028z"/>
	</g>
</g>
<g>
	<g>
		<path d="M118.992,17.921c-1.41-3.219-5.036-4.837-8.39-3.739c-3.934,1.299-96.401,32.522-108.387,95.113
			c-8.726,45.559,9.667,88.586,31.717,102.327c5.313,3.309,10.834,4.96,16.227,4.96c5.809,0,11.465-1.917,16.543-5.738
			c28.645-21.581,34.615-60.201,17.741-114.79c-13.418-43.39,29.612-68.291,31.623-69.424
			C119.143,24.915,120.409,21.141,118.992,17.921z M58.488,199.933c-5.333,4.018-11.01,4.05-17.336,0.097
			c-18.301-11.401-32.923-49.55-25.53-88.17c6.077-31.715,38.171-55.031,64.244-69.084c-9.474,14.205-15.824,33.514-8.472,57.306
			C86.602,149.273,82.378,181.937,58.488,199.933z"/>
	</g>
</g>
<g>
	<g>
		<path d="M316.928,183.556c-2.666-2.666-6.992-2.666-9.653,0l-8.697,8.701c-2.666,2.666-2.666,6.989,0,9.653
			c1.333,1.333,3.081,2,4.826,2c1.748,0,3.497-0.666,4.826-2l8.697-8.701C319.594,190.543,319.594,186.22,316.928,183.556z"/>
	</g>
</g>
<g>
	<g>
		<path d="M352.079,206.335c-2.666-2.666-6.987-2.666-9.653,0l-26.523,26.523c-2.666,2.666-2.666,6.987,0,9.653
			c1.333,1.333,3.081,2,4.826,2c1.746,0,3.494-0.667,4.826-2l26.523-26.523C354.745,213.322,354.745,209.001,352.079,206.335z"/>
	</g>
</g>
<g>
	<g>
		<path d="M313.534,124.982c2.683-2.647,2.717-6.967,0.067-9.653c-14.374-14.58-47.3-51.637-42.583-80.73
			c0.558-3.447-1.575-6.76-4.943-7.68c-3.366-0.923-6.89,0.853-8.156,4.11c-1.027,2.63-24.369,65.203,40.743,128.276
			c1.326,1.283,3.04,1.923,4.75,1.923c1.783,0,3.564-0.695,4.903-2.077c2.623-2.707,2.553-7.03-0.154-9.653
			c-26.61-25.777-36.934-51.176-40.207-71.4c10.044,18.717,24.938,35.671,35.927,46.817
			C306.521,127.595,310.847,127.636,313.534,124.982z"/>
	</g>
</g>
<g>
	<g>
		<path d="M390.221,109.292C378.233,46.704,285.764,15.48,281.831,14.18c-3.326-1.097-6.973,0.519-8.39,3.739
			c-1.417,3.221-0.15,6.994,2.927,8.707c0.452,0.254,45.126,25.747,31.626,69.424c-16.875,54.591-10.906,93.21,17.741,114.79
			c5.096,3.837,10.694,5.784,16.497,5.784c2.664,0,5.371-0.411,8.09-1.236C376.641,207.409,399.804,159.325,390.221,109.292z
			 M346.36,202.323c-4.432,1.347-8.496,0.563-12.413-2.389c-23.893-17.997-28.116-50.661-12.906-99.85
			c7.352-23.793,1.004-43.107-8.474-57.306c26.078,14.054,58.17,37.371,64.246,69.082C385.34,156.396,364.543,196.81,346.36,202.323
			z"/>
	</g>
</g>
<g>
	<g>
		<path d="M179.506,151.645l-19.081-17.073c-2.813-2.521-7.132-2.275-9.639,0.532c-2.514,2.809-2.277,7.125,0.532,9.639
			l19.081,17.073c1.304,1.167,2.93,1.741,4.55,1.741c1.876,0,3.743-0.766,5.089-2.273
			C182.552,158.475,182.315,154.159,179.506,151.645z"/>
	</g>
</g>
<g>
	<g>
		<path d="M241.482,135.104c-2.505-2.806-6.83-3.053-9.639-0.532l-19.084,17.073c-2.806,2.512-3.046,6.83-0.532,9.639
			c1.347,1.507,3.212,2.273,5.089,2.273c1.62,0,3.246-0.573,4.55-1.741l19.084-17.073
			C243.758,142.231,243.996,137.913,241.482,135.104z"/>
	</g>
</g>
<g>
	<g>
		<path d="M130.722,322.897c-3.207-1.983-7.417-1-9.397,2.21c-8.663,13.99-13.24,30.123-13.24,46.657
			c0,3.77,3.057,6.827,6.827,6.827s6.827-3.057,6.827-6.827c0-13.993,3.871-27.639,11.194-39.47
			C134.919,329.087,133.929,324.88,130.722,322.897z"/>
	</g>
</g>
<g>
	<g>
		<path d="M272.338,325.114c-1.983-3.207-6.19-4.19-9.397-2.21c-3.207,1.983-4.197,6.193-2.21,9.397
			c7.323,11.827,11.194,25.474,11.194,39.463c0,3.77,3.057,6.827,6.827,6.827s6.827-3.057,6.827-6.827
			C285.578,355.23,281.001,339.1,272.338,325.114z"/>
	</g>
</g>
<g>
	<g>
		<path d="M82.671,260.063c-1.319-3.535-5.253-5.325-8.782-4.011c-12.505,4.663-24.238,10.063-34.874,16.046
			c-3.285,1.847-4.453,6.009-2.603,9.296c1.253,2.227,3.57,3.48,5.956,3.48c1.133,0,2.284-0.28,3.338-0.876
			c10.023-5.637,21.111-10.737,32.954-15.154C82.195,267.526,83.987,263.595,82.671,260.063z"/>
	</g>
</g>
<g>
	<g>
		<path d="M354.647,272.096c-10.656-5.989-22.386-11.385-34.864-16.039c-3.529-1.316-7.467,0.478-8.782,4.011
			c-1.316,3.533,0.481,7.467,4.011,8.783c11.82,4.407,22.903,9.503,32.944,15.147c1.06,0.597,2.207,0.877,3.34,0.877
			c2.386,0,4.704-1.253,5.955-3.482C359.1,278.105,357.934,273.943,354.647,272.096z"/>
	</g>
</g>
<g>
	<g>
		<path d="M99.714,287.924c-2.522-2.79-6.835-3.014-9.643-0.497c-23.6,21.291-36.599,48.818-36.599,77.51
			c0,3.77,3.057,6.827,6.827,6.827c3.77,0,6.827-3.057,6.825-6.827c0-24.777,11.397-48.703,32.094-67.371
			C102.018,295.041,102.238,290.725,99.714,287.924z"/>
	</g>
</g>
<g>
	<g>
		<path d="M303.598,287.434c-2.809-2.524-7.117-2.307-9.643,0.497c-2.524,2.799-2.304,7.117,0.497,9.643
			c20.69,18.668,32.087,42.59,32.087,67.364c0,3.77,3.057,6.827,6.827,6.827c3.77,0,6.827-3.057,6.825-6.827
			C340.19,336.248,327.194,308.725,303.598,287.434z"/>
	</g>
</g>
<g>
	<g>
		<path d="M196.832,139.657c-60.611,0-129.707,54.55-129.707,102.4c0,49.304,94.754,129.707,129.707,129.707
			c36.623,0,129.707-79.563,129.707-129.707C326.538,193.25,258.656,139.657,196.832,139.657z M196.832,358.111
			c-28.17,0-116.053-75.366-116.053-116.053c0-40.639,62.906-88.747,116.053-88.747c54.229,0,116.053,47.276,116.053,88.747
			C312.885,283.517,226.478,358.111,196.832,358.111z"/>
	</g>
</g>
<g>
</g>
<g>
</g>
<g>
</g>
<g>
</g>
<g>
</g>
<g>
</g>
<g>
</g>
<g>
</g>
<g>
</g>
<g>
</g>
<g>
</g>
<g>
</g>
<g>
</g>
<g>
</g>
<g>
</g>
</svg>
