<?xml version="1.0" encoding="iso-8859-1"?>
<!-- Generator: Adobe Illustrator 19.0.0, SVG Export Plug-In . SVG Version: 6.00 Build 0)  -->
<svg version="1.1" id="Capa_1" xmlns="http://www.w3.org/2000/svg" xmlns:xlink="http://www.w3.org/1999/xlink" x="0px" y="0px"
	 viewBox="0 0 389.12 389.12" style="enable-background:new 0 0 389.12 389.12;" xml:space="preserve">
<g>
	<g>
		<path d="M348.16,0H40.96c-3.77,0-6.827,3.053-6.827,6.827v307.2c0,3.773,3.057,6.827,6.827,6.827h307.2
			c3.77,0,6.827-3.053,6.827-6.827V6.827C354.987,3.053,351.93,0,348.16,0z M341.333,307.2H47.787V13.653h293.547V307.2z"/>
	</g>
</g>
<g>
	<g>
		<path d="M348.16,307.2H40.96c-3.77,0-6.827,3.053-6.827,6.827v54.214c0,11.513,9.366,20.879,20.879,20.879h279.095
			c11.513,0,20.879-9.366,20.879-20.879v-54.214C354.987,310.253,351.93,307.2,348.16,307.2z M341.332,368.241
			c0,3.987-3.243,7.226-7.226,7.226H55.013c-3.983,0-7.226-3.239-7.226-7.226v-47.387h293.545V368.241z"/>
	</g>
</g>
<g>
	<g>
		<path d="M75.093,327.68c-11.293,0-20.48,9.187-20.48,20.48c0,11.293,9.187,20.48,20.48,20.48c11.293,0,20.48-9.187,20.48-20.48
			C95.573,336.867,86.386,327.68,75.093,327.68z M75.093,354.987c-3.763,0-6.827-3.06-6.827-6.827c0-3.767,3.063-6.827,6.827-6.827
			c3.763,0,6.827,3.06,6.827,6.827C81.92,351.927,78.857,354.987,75.093,354.987z"/>
	</g>
</g>
<g>
	<g>
		<path d="M129.707,327.68c-11.293,0-20.48,9.187-20.48,20.48c0,11.293,9.187,20.48,20.48,20.48s20.48-9.187,20.48-20.48
			C150.187,336.867,141,327.68,129.707,327.68z M129.707,354.987c-3.763,0-6.827-3.06-6.827-6.827c0-3.767,3.063-6.827,6.827-6.827
			s6.827,3.06,6.827,6.827C136.533,351.927,133.47,354.987,129.707,354.987z"/>
	</g>
</g>
<g>
	<g>
		<path d="M184.32,327.68c-11.293,0-20.48,9.187-20.48,20.48c0,11.293,9.187,20.48,20.48,20.48s20.48-9.187,20.48-20.48
			C204.8,336.867,195.613,327.68,184.32,327.68z M184.32,354.987c-3.763,0-6.827-3.06-6.827-6.827c0-3.767,3.063-6.827,6.827-6.827
			s6.827,3.06,6.827,6.827C191.147,351.927,188.083,354.987,184.32,354.987z"/>
	</g>
</g>
<g>
	<g>
		<path d="M238.933,327.68c-11.293,0-20.48,9.187-20.48,20.48c0,11.293,9.187,20.48,20.48,20.48s20.48-9.187,20.48-20.48
			C259.413,336.867,250.226,327.68,238.933,327.68z M238.933,354.987c-3.763,0-6.827-3.06-6.827-6.827
			c0-3.767,3.063-6.827,6.827-6.827c3.763,0,6.827,3.06,6.827,6.827C245.76,351.927,242.697,354.987,238.933,354.987z"/>
	</g>
</g>
<g>
	<g>
		<path d="M122.88,47.787c-22.586,0-40.96,18.374-40.96,40.96c0,22.586,18.374,40.96,40.96,40.96c22.586,0,40.96-18.374,40.96-40.96
			C163.84,66.161,145.466,47.787,122.88,47.787z M122.88,116.053c-15.056,0-27.307-12.247-27.307-27.307
			c0-15.06,12.25-27.307,27.307-27.307s27.307,12.247,27.307,27.307C150.187,103.806,137.936,116.053,122.88,116.053z"/>
	</g>
</g>
<g>
	<g>
		<path d="M122.88,20.48c-3.77,0-6.827,3.053-6.827,6.827v27.307c0,3.773,3.057,6.827,6.827,6.827s6.827-3.053,6.827-6.827V27.307
			C129.707,23.533,126.65,20.48,122.88,20.48z"/>
	</g>
</g>
<g>
	<g>
		<path d="M122.88,116.053c-3.77,0-6.827,3.053-6.827,6.827v27.307c0,3.773,3.057,6.827,6.827,6.827s6.827-3.053,6.827-6.827V122.88
			C129.707,119.107,126.65,116.053,122.88,116.053z"/>
	</g>
</g>
<g>
	<g>
		<path d="M88.747,81.92H61.44c-3.77,0-6.827,3.053-6.827,6.827s3.057,6.827,6.827,6.827h27.307c3.77,0,6.827-3.053,6.827-6.827
			S92.517,81.92,88.747,81.92z"/>
	</g>
</g>
<g>
	<g>
		<path d="M184.32,81.92h-27.307c-3.77,0-6.827,3.053-6.827,6.827s3.057,6.827,6.827,6.827h27.307c3.77,0,6.827-3.053,6.827-6.827
			S188.09,81.92,184.32,81.92z"/>
	</g>
</g>
<g>
	<g>
		<path d="M266.24,47.787c-22.586,0-40.96,18.374-40.96,40.96c0,22.586,18.374,40.96,40.96,40.96c22.586,0,40.96-18.374,40.96-40.96
			C307.2,66.161,288.826,47.787,266.24,47.787z M266.24,116.053c-15.056,0-27.307-12.247-27.307-27.307
			c0-15.06,12.25-27.307,27.307-27.307s27.307,12.247,27.307,27.307C293.547,103.806,281.296,116.053,266.24,116.053z"/>
	</g>
</g>
<g>
	<g>
		<path d="M266.24,20.48c-3.77,0-6.827,3.053-6.827,6.827v27.307c0,3.773,3.057,6.827,6.827,6.827s6.827-3.053,6.827-6.827V27.307
			C273.067,23.533,270.01,20.48,266.24,20.48z"/>
	</g>
</g>
<g>
	<g>
		<path d="M266.24,116.053c-3.77,0-6.827,3.053-6.827,6.827v27.307c0,3.773,3.057,6.827,6.827,6.827s6.827-3.053,6.827-6.827V122.88
			C273.067,119.107,270.01,116.053,266.24,116.053z"/>
	</g>
</g>
<g>
	<g>
		<path d="M232.107,81.92H204.8c-3.77,0-6.827,3.053-6.827,6.827s3.057,6.827,6.827,6.827h27.307c3.77,0,6.827-3.053,6.827-6.827
			S235.877,81.92,232.107,81.92z"/>
	</g>
</g>
<g>
	<g>
		<path d="M327.68,81.92h-27.307c-3.77,0-6.827,3.053-6.827,6.827s3.057,6.827,6.827,6.827h27.307c3.77,0,6.827-3.053,6.827-6.827
			S331.45,81.92,327.68,81.92z"/>
	</g>
</g>
<g>
	<g>
		<path d="M122.88,191.147c-22.586,0-40.96,18.374-40.96,40.96c0,22.586,18.374,40.96,40.96,40.96
			c22.586,0,40.96-18.374,40.96-40.96C163.84,209.521,145.466,191.147,122.88,191.147z M122.88,259.413
			c-15.056,0-27.307-12.247-27.307-27.307s12.25-27.307,27.307-27.307s27.307,12.247,27.307,27.307S137.936,259.413,122.88,259.413z
			"/>
	</g>
</g>
<g>
	<g>
		<path d="M122.88,163.84c-3.77,0-6.827,3.053-6.827,6.827v27.307c0,3.773,3.057,6.827,6.827,6.827s6.827-3.053,6.827-6.827v-27.307
			C129.707,166.893,126.65,163.84,122.88,163.84z"/>
	</g>
</g>
<g>
	<g>
		<path d="M122.88,259.413c-3.77,0-6.827,3.053-6.827,6.827v27.307c0,3.773,3.057,6.827,6.827,6.827s6.827-3.053,6.827-6.827V266.24
			C129.707,262.467,126.65,259.413,122.88,259.413z"/>
	</g>
</g>
<g>
	<g>
		<path d="M88.747,225.28H61.44c-3.77,0-6.827,3.053-6.827,6.827s3.057,6.827,6.827,6.827h27.307c3.77,0,6.827-3.053,6.827-6.827
			S92.517,225.28,88.747,225.28z"/>
	</g>
</g>
<g>
	<g>
		<path d="M184.32,225.28h-27.307c-3.77,0-6.827,3.053-6.827,6.827s3.057,6.827,6.827,6.827h27.307c3.77,0,6.827-3.053,6.827-6.827
			S188.09,225.28,184.32,225.28z"/>
	</g>
</g>
<g>
	<g>
		<path d="M266.24,191.147c-22.586,0-40.96,18.374-40.96,40.96c0,22.586,18.374,40.96,40.96,40.96
			c22.586,0,40.96-18.374,40.96-40.96C307.2,209.521,288.826,191.147,266.24,191.147z M266.24,259.413
			c-15.056,0-27.307-12.247-27.307-27.307s12.25-27.307,27.307-27.307s27.307,12.247,27.307,27.307S281.296,259.413,266.24,259.413z
			"/>
	</g>
</g>
<g>
	<g>
		<path d="M266.24,163.84c-3.77,0-6.827,3.053-6.827,6.827v27.307c0,3.773,3.057,6.827,6.827,6.827s6.827-3.053,6.827-6.827v-27.307
			C273.067,166.893,270.01,163.84,266.24,163.84z"/>
	</g>
</g>
<g>
	<g>
		<path d="M266.24,259.413c-3.77,0-6.827,3.053-6.827,6.827v27.307c0,3.773,3.057,6.827,6.827,6.827s6.827-3.053,6.827-6.827V266.24
			C273.067,262.467,270.01,259.413,266.24,259.413z"/>
	</g>
</g>
<g>
	<g>
		<path d="M232.107,225.28H204.8c-3.77,0-6.827,3.053-6.827,6.827s3.057,6.827,6.827,6.827h27.307c3.77,0,6.827-3.053,6.827-6.827
			S235.877,225.28,232.107,225.28z"/>
	</g>
</g>
<g>
	<g>
		<path d="M327.68,225.28h-27.307c-3.77,0-6.827,3.053-6.827,6.827s3.057,6.827,6.827,6.827h27.307c3.77,0,6.827-3.053,6.827-6.827
			S331.45,225.28,327.68,225.28z"/>
	</g>
</g>
<g>
</g>
<g>
</g>
<g>
</g>
<g>
</g>
<g>
</g>
<g>
</g>
<g>
</g>
<g>
</g>
<g>
</g>
<g>
</g>
<g>
</g>
<g>
</g>
<g>
</g>
<g>
</g>
<g>
</g>
</svg>
