<?xml version="1.0" encoding="iso-8859-1"?>
<!-- Generator: Adobe Illustrator 19.0.0, SVG Export Plug-In . SVG Version: 6.00 Build 0)  -->
<svg version="1.1" id="Capa_1" xmlns="http://www.w3.org/2000/svg" xmlns:xlink="http://www.w3.org/1999/xlink" x="0px" y="0px"
	 viewBox="0 0 430.08 430.08" style="enable-background:new 0 0 430.08 430.08;" xml:space="preserve">
<g>
	<g>
		<path d="M423.253,338.773H6.827c-3.77,0-6.827,3.053-6.827,6.827c0,26.348,21.437,47.787,47.787,47.787h334.507
			c26.349,0,47.787-21.439,47.787-47.787C430.08,341.827,427.023,338.773,423.253,338.773z M382.293,379.733H47.787
			c-16.485,0-30.278-11.747-33.447-27.307h401.401C412.57,367.986,398.776,379.733,382.293,379.733z"/>
	</g>
</g>
<g>
	<g>
		<path d="M389.12,106.667h-92.964c-3.77,0-6.827,3.053-6.827,6.827s3.057,6.827,6.827,6.827h86.137v218.453H47.787V120.32h86.221
			c3.77,0,6.827-3.053,6.827-6.827s-3.057-6.827-6.827-6.827H40.96c-3.77,0-6.827,3.053-6.827,6.827V345.6
			c0,3.773,3.057,6.827,6.827,6.827h348.16c3.77,0,6.827-3.053,6.827-6.827V113.493C395.947,109.72,392.89,106.667,389.12,106.667z"
			/>
	</g>
</g>
<g>
	<g>
		<path d="M293.548,86.187H136.535c-3.77,0-6.827,3.053-6.827,6.827v101.427c0,23.12,18.809,41.933,41.929,41.933h86.806
			c23.12,0,41.929-18.813,41.931-41.933V93.013C300.375,89.24,297.318,86.187,293.548,86.187z M286.718,194.441
			c0,15.592-12.682,28.279-28.276,28.279h-86.806c-15.592,0-28.276-12.686-28.276-28.279V99.84h143.358V194.441z"/>
	</g>
</g>
<g>
	<g>
		<path d="M314.027,86.187H116.053c-3.77,0-6.827,3.053-6.827,6.827s3.057,6.827,6.827,6.827h197.973
			c3.77,0,6.827-3.053,6.827-6.827S317.797,86.187,314.027,86.187z"/>
	</g>
</g>
<g>
	<g>
		<path d="M215.04,36.693c-28.233,0-51.2,22.967-51.2,51.2c0,3.773,3.057,6.827,6.827,6.827s6.827-3.053,6.827-6.827
			c0-20.7,16.843-37.547,37.547-37.547s37.547,16.847,37.547,37.547c0,3.773,3.057,6.827,6.827,6.827
			c3.77,0,6.827-3.053,6.827-6.827C266.24,59.66,243.273,36.693,215.04,36.693z"/>
	</g>
</g>
<g>
	<g>
		<path d="M232.107,256.853H88.747c-3.77,0-6.827,3.053-6.827,6.827s3.057,6.827,6.827,6.827h143.36c3.77,0,6.827-3.053,6.827-6.827
			S235.877,256.853,232.107,256.853z"/>
	</g>
</g>
<g>
	<g>
		<path d="M150.187,311.467h-61.44c-3.77,0-6.827,3.053-6.827,6.827s3.057,6.827,6.827,6.827h61.44c3.77,0,6.827-3.053,6.827-6.827
			S153.957,311.467,150.187,311.467z"/>
	</g>
</g>
<g>
	<g>
		<path d="M286.72,284.16H88.747c-3.77,0-6.827,3.053-6.827,6.827s3.057,6.827,6.827,6.827H286.72c3.77,0,6.827-3.053,6.827-6.827
			S290.49,284.16,286.72,284.16z"/>
	</g>
</g>
<g>
</g>
<g>
</g>
<g>
</g>
<g>
</g>
<g>
</g>
<g>
</g>
<g>
</g>
<g>
</g>
<g>
</g>
<g>
</g>
<g>
</g>
<g>
</g>
<g>
</g>
<g>
</g>
<g>
</g>
</svg>
