<?xml version="1.0" encoding="iso-8859-1"?>
<!-- Generator: Adobe Illustrator 19.0.0, SVG Export Plug-In . SVG Version: 6.00 Build 0)  -->
<svg version="1.1" id="Capa_1" xmlns="http://www.w3.org/2000/svg" xmlns:xlink="http://www.w3.org/1999/xlink" x="0px" y="0px"
	 viewBox="0 0 368.64 368.64" style="enable-background:new 0 0 368.64 368.64;" xml:space="preserve">
<g>
	<g>
		<path d="M269.653,120.779c3.77,0,6.827-3.053,6.827-6.827V35.666C276.48,16,260.48,0,240.812,0H39.079
			C19.413,0,3.413,16,3.413,35.666v297.308c0,19.666,16,35.666,35.666,35.666h201.735c19.666,0,35.666-16,35.664-35.666v-78.013
			c0-3.773-3.057-6.827-6.827-6.827s-6.827,3.053-6.827,6.827v78.013c0,12.139-9.877,22.013-22.013,22.013H39.079
			c-12.136,0-22.013-9.873-22.013-22.014V35.666c0-12.14,9.877-22.013,22.013-22.013h201.735c12.136,0,22.013,9.873,22.013,22.013
			v78.286C262.827,117.726,265.883,120.779,269.653,120.779z"/>
	</g>
</g>
<g>
	<g>
		<path d="M249.173,120.786c3.77,0,6.827-3.053,6.827-6.827V27.307c0-3.773-3.057-6.827-6.827-6.827H30.72
			c-3.77,0-6.827,3.053-6.827,6.827v266.24c0,3.773,3.057,6.827,6.827,6.827h218.453c3.77,0,6.827-3.053,6.827-6.827v-38.586
			c0-3.773-3.057-6.827-6.827-6.827s-6.827,3.053-6.827,6.827v31.759h-204.8V34.133h204.8v79.826
			C242.347,117.733,245.403,120.786,249.173,120.786z"/>
	</g>
</g>
<g>
	<g>
		<path d="M139.947,307.2c-11.293,0-20.48,9.187-20.48,20.48c0,11.293,9.187,20.48,20.48,20.48c11.293,0,20.48-9.187,20.48-20.48
			C160.427,316.387,151.24,307.2,139.947,307.2z M139.947,334.507c-3.763,0-6.827-3.06-6.827-6.827c0-3.767,3.063-6.827,6.827-6.827
			c3.763,0,6.827,3.06,6.827,6.827C146.773,331.447,143.71,334.507,139.947,334.507z"/>
	</g>
</g>
<g>
	<g>
		<path d="M337.92,109.227H180.907c-3.77,0-6.827,3.053-6.827,6.827v101.427c0,23.12,18.809,41.933,41.931,41.933h86.806
			c23.12,0,41.929-18.813,41.929-41.933V116.053C344.747,112.28,341.69,109.227,337.92,109.227z M331.092,217.481
			c0,15.592-12.682,28.279-28.276,28.279h-86.806c-15.592,0-28.276-12.686-28.276-28.279V122.88h143.358V217.481z"/>
	</g>
</g>
<g>
	<g>
		<path d="M358.4,109.227H160.427c-3.77,0-6.827,3.053-6.827,6.827s3.057,6.827,6.827,6.827H358.4c3.77,0,6.827-3.053,6.827-6.827
			S362.17,109.227,358.4,109.227z"/>
	</g>
</g>
<g>
	<g>
		<path d="M259.413,59.733c-28.233,0-51.2,22.967-51.2,51.2c0,3.773,3.057,6.827,6.827,6.827c3.77,0,6.827-3.053,6.827-6.827
			c0-20.7,16.843-37.547,37.547-37.547c20.704,0,37.547,16.847,37.547,37.547c0,3.773,3.057,6.827,6.827,6.827
			s6.827-3.053,6.827-6.827C310.613,82.7,287.647,59.733,259.413,59.733z"/>
	</g>
</g>
<g>
	<g>
		<path d="M194.56,47.787H58.027c-3.77,0-6.827,3.053-6.827,6.827s3.057,6.827,6.827,6.827H194.56c3.77,0,6.827-3.053,6.827-6.827
			S198.33,47.787,194.56,47.787z"/>
	</g>
</g>
<g>
	<g>
		<path d="M194.56,75.093H58.027c-3.77,0-6.827,3.053-6.827,6.827s3.057,6.827,6.827,6.827H194.56c3.77,0,6.827-3.053,6.827-6.827
			S198.33,75.093,194.56,75.093z"/>
	</g>
</g>
<g>
	<g>
		<path d="M126.293,129.707H58.027c-3.77,0-6.827,3.053-6.827,6.827s3.057,6.827,6.827,6.827h68.267c3.77,0,6.827-3.053,6.827-6.827
			S130.063,129.707,126.293,129.707z"/>
	</g>
</g>
<g>
	<g>
		<path d="M126.293,184.32H58.027c-3.77,0-6.827,3.053-6.827,6.827s3.057,6.827,6.827,6.827h68.267c3.77,0,6.827-3.053,6.827-6.827
			S130.063,184.32,126.293,184.32z"/>
	</g>
</g>
<g>
	<g>
		<path d="M143.36,238.933H58.027c-3.77,0-6.827,3.053-6.827,6.827s3.057,6.827,6.827,6.827h85.333c3.77,0,6.827-3.053,6.827-6.827
			S147.13,238.933,143.36,238.933z"/>
	</g>
</g>
<g>
	<g>
		<path d="M126.293,157.013H58.027c-3.77,0-6.827,3.053-6.827,6.827s3.057,6.827,6.827,6.827h68.267c3.77,0,6.827-3.053,6.827-6.827
			S130.063,157.013,126.293,157.013z"/>
	</g>
</g>
<g>
	<g>
		<path d="M126.293,211.627H58.027c-3.77,0-6.827,3.053-6.827,6.827s3.057,6.827,6.827,6.827h68.267c3.77,0,6.827-3.053,6.827-6.827
			S130.063,211.627,126.293,211.627z"/>
	</g>
</g>
<g>
</g>
<g>
</g>
<g>
</g>
<g>
</g>
<g>
</g>
<g>
</g>
<g>
</g>
<g>
</g>
<g>
</g>
<g>
</g>
<g>
</g>
<g>
</g>
<g>
</g>
<g>
</g>
<g>
</g>
</svg>
