<?xml version="1.0" encoding="iso-8859-1"?>
<!-- Generator: Adobe Illustrator 19.0.0, SVG Export Plug-In . SVG Version: 6.00 Build 0)  -->
<svg version="1.1" id="Capa_1" xmlns="http://www.w3.org/2000/svg" xmlns:xlink="http://www.w3.org/1999/xlink" x="0px" y="0px"
	 viewBox="0 0 411.307 411.307" style="enable-background:new 0 0 411.307 411.307;" xml:space="preserve">
<g>
	<g>
		<path d="M390.69,76.8H282.993c-3.77,0-6.827,3.053-6.827,6.827s3.057,6.827,6.827,6.827H390.69c3.371,0,6.11,2.739,6.11,6.113
			v247.187c0,3.374-2.739,6.113-6.11,6.113H20.617c-3.371,0-6.11-2.739-6.11-6.113V96.567c0-3.374,2.739-6.113,6.11-6.113h100.169
			c3.77,0,6.827-3.053,6.827-6.827s-3.057-6.827-6.827-6.827H20.617c-10.897,0-19.763,8.866-19.763,19.767v247.187
			c0,10.901,8.866,19.767,19.763,19.767H390.69c10.897,0,19.763-8.866,19.763-19.767V96.567
			C410.453,85.666,401.587,76.8,390.69,76.8z"/>
	</g>
</g>
<g>
	<g>
		<path d="M383.147,97.28H282.993c-3.77,0-6.827,3.053-6.827,6.827s3.057,6.827,6.827,6.827h93.327v218.453H34.987V110.933h85.799
			c3.77,0,6.827-3.053,6.827-6.827s-3.057-6.827-6.827-6.827H28.16c-3.77,0-6.827,3.053-6.827,6.827v232.107
			c0,3.773,3.057,6.827,6.827,6.827h354.987c3.77,0,6.827-3.053,6.827-6.827V104.107C389.973,100.333,386.917,97.28,383.147,97.28z"
			/>
	</g>
</g>
<g>
	<g>
		<path d="M226.133,349.867h-40.96c-3.77,0-6.827,3.053-6.827,6.827v47.787c0,3.773,3.057,6.827,6.827,6.827h40.96
			c3.77,0,6.827-3.053,6.827-6.827v-47.787C232.96,352.92,229.903,349.867,226.133,349.867z M219.307,397.653H192V363.52h27.307
			V397.653z"/>
	</g>
</g>
<g>
	<g>
		<path d="M273.92,397.653H137.387c-3.77,0-6.827,3.053-6.827,6.827s3.057,6.827,6.827,6.827H273.92c3.77,0,6.827-3.053,6.827-6.827
			S277.69,397.653,273.92,397.653z"/>
	</g>
</g>
<g>
	<g>
		<path d="M280.747,49.493H123.733c-3.77,0-6.827,3.053-6.827,6.827v101.427c0,23.12,18.809,41.933,41.931,41.933h86.806
			c23.12,0,41.929-18.813,41.929-41.933V56.32C287.573,52.547,284.517,49.493,280.747,49.493z M273.918,157.747
			c0,15.592-12.682,28.279-28.276,28.279h-86.806c-15.592,0-28.276-12.686-28.276-28.279V63.147h143.358V157.747z"/>
	</g>
</g>
<g>
	<g>
		<path d="M301.227,49.493H103.253c-3.77,0-6.827,3.053-6.827,6.827s3.057,6.827,6.827,6.827h197.973
			c3.77,0,6.827-3.053,6.827-6.827S304.997,49.493,301.227,49.493z"/>
	</g>
</g>
<g>
	<g>
		<path d="M202.24,0c-28.233,0-51.2,22.967-51.2,51.2c0,3.773,3.057,6.827,6.827,6.827s6.827-3.053,6.827-6.827
			c0-20.7,16.843-37.547,37.547-37.547S239.787,30.5,239.787,51.2c0,3.773,3.057,6.827,6.827,6.827s6.827-3.053,6.827-6.827
			C253.44,22.967,230.473,0,202.24,0z"/>
	</g>
</g>
<g>
	<g>
		<path d="M130.56,220.16H62.293c-3.77,0-6.827,3.053-6.827,6.827s3.057,6.827,6.827,6.827h68.267c3.77,0,6.827-3.053,6.827-6.827
			S134.33,220.16,130.56,220.16z"/>
	</g>
</g>
<g>
	<g>
		<path d="M246.613,247.467H62.293c-3.77,0-6.827,3.053-6.827,6.827s3.057,6.827,6.827,6.827h184.32c3.77,0,6.827-3.053,6.827-6.827
			S250.383,247.467,246.613,247.467z"/>
	</g>
</g>
<g>
	<g>
		<path d="M185.173,274.773H62.293c-3.77,0-6.827,3.053-6.827,6.827s3.057,6.827,6.827,6.827h122.88c3.77,0,6.827-3.053,6.827-6.827
			S188.943,274.773,185.173,274.773z"/>
	</g>
</g>
<g>
	<g>
		<path d="M349.013,220.16H171.52c-3.77,0-6.827,3.053-6.827,6.827s3.057,6.827,6.827,6.827h177.493c3.77,0,6.827-3.053,6.827-6.827
			S352.783,220.16,349.013,220.16z"/>
	</g>
</g>
<g>
	<g>
		<path d="M349.013,247.467h-61.44c-3.77,0-6.827,3.053-6.827,6.827s3.057,6.827,6.827,6.827h61.44c3.77,0,6.827-3.053,6.827-6.827
			S352.783,247.467,349.013,247.467z"/>
	</g>
</g>
<g>
	<g>
		<path d="M349.013,274.773h-122.88c-3.77,0-6.827,3.053-6.827,6.827s3.057,6.827,6.827,6.827h122.88
			c3.77,0,6.827-3.053,6.827-6.827S352.783,274.773,349.013,274.773z"/>
	</g>
</g>
<g>
</g>
<g>
</g>
<g>
</g>
<g>
</g>
<g>
</g>
<g>
</g>
<g>
</g>
<g>
</g>
<g>
</g>
<g>
</g>
<g>
</g>
<g>
</g>
<g>
</g>
<g>
</g>
<g>
</g>
</svg>
