<?xml version="1.0" encoding="iso-8859-1"?>
<!-- Generator: Adobe Illustrator 19.0.0, SVG Export Plug-In . SVG Version: 6.00 Build 0)  -->
<svg version="1.1" id="Capa_1" xmlns="http://www.w3.org/2000/svg" xmlns:xlink="http://www.w3.org/1999/xlink" x="0px" y="0px"
	 viewBox="0 0 395.947 395.947" style="enable-background:new 0 0 395.947 395.947;" xml:space="preserve">
<g>
	<g>
		<path d="M291.76,120.701C280.653,50.76,221.114,0,150.187,0C71.141,0,6.827,64.314,6.827,143.36
			c0,62.88,40.26,117.833,100.18,136.747c0.679,0.213,1.374,0.314,2.053,0.314c2.901,0,5.594-1.86,6.513-4.774
			c1.133-3.594-0.867-7.427-4.459-8.567C56.9,249.974,20.48,200.253,20.48,143.36c0-71.52,58.187-129.707,129.707-129.707
			c64.174,0,118.04,45.92,128.094,109.194c0.594,3.719,4.033,6.299,7.813,5.666C289.813,127.927,292.354,124.428,291.76,120.701z"/>
	</g>
</g>
<g>
	<g>
		<path d="M136.533,54.613c-15.06,0-27.307,12.247-27.307,27.307s12.247,27.307,27.307,27.307S163.84,96.98,163.84,81.92
			S151.593,54.613,136.533,54.613z M136.533,95.573c-7.526,0-13.653-6.127-13.653-13.653c0-7.526,6.127-13.653,13.653-13.653
			s13.653,6.127,13.653,13.653C150.187,89.446,144.06,95.573,136.533,95.573z"/>
	</g>
</g>
<g>
	<g>
		<path d="M123.779,192.461c-4.54-5.175-11.093-8.141-17.966-8.141c-13.174,0-23.893,10.72-23.893,23.893
			c0,13.174,10.72,23.893,23.893,23.893c3.113,0,6.141-0.587,8.987-1.754c3.494-1.42,5.173-5.407,3.746-8.893
			c-1.42-3.499-5.42-5.173-8.893-3.746c-1.213,0.493-2.5,0.741-3.84,0.741c-5.647,0-10.24-4.593-10.24-10.24
			c0-5.647,4.593-10.24,10.24-10.24c2.947,0,5.76,1.273,7.712,3.502c2.482,2.826,6.794,3.106,9.634,0.62
			C125.993,199.608,126.273,195.294,123.779,192.461z"/>
	</g>
</g>
<g>
	<g>
		<path d="M245.76,109.227c-79.046,0-143.36,64.314-143.36,143.36s64.314,143.36,143.36,143.36c10.767,0,21.519-1.207,31.959-3.574
			c1.927-0.44,3.574-1.695,4.507-3.441c0.934-1.746,1.06-3.813,0.353-5.659c-1.78-4.666-2.686-9.586-2.686-14.633
			c0-21.927,17.14-39.9,39.02-40.914c2.528-0.119,4.774-1.613,5.854-3.9c6.753-14.246,21.294-23.453,37.047-23.453
			c3.966,0,7.886,0.567,11.667,1.679c3.541,1.046,7.253-0.913,8.414-4.407c4.792-14.5,7.226-29.66,7.226-45.059
			C389.12,173.541,324.806,109.227,245.76,109.227z M370.734,287.447c-2.941-0.48-5.92-0.727-8.921-0.727
			c-19.661,0-37.893,10.747-47.527,27.699c-27.245,3.241-48.046,26.327-48.046,54.221c0,4.014,0.433,7.967,1.287,11.834
			c-7.173,1.207-14.467,1.819-21.767,1.819c-71.52,0-129.707-58.187-129.707-129.707S174.24,122.88,245.76,122.88
			s129.707,58.187,129.707,129.707C375.467,264.446,373.873,276.14,370.734,287.447z"/>
	</g>
</g>
<g>
	<g>
		<path d="M232.107,163.84c-15.06,0-27.307,12.247-27.307,27.307s12.247,27.307,27.307,27.307s27.307-12.247,27.307-27.307
			S247.166,163.84,232.107,163.84z M232.107,204.8c-7.526,0-13.653-6.127-13.653-13.653s6.127-13.653,13.653-13.653
			c7.526,0,13.653,6.127,13.653,13.653S239.633,204.8,232.107,204.8z"/>
	</g>
</g>
<g>
	<g>
		<path d="M317.44,218.453c-16.94,0-30.72,13.78-30.72,30.72s13.78,30.72,30.72,30.72s30.72-13.78,30.72-30.72
			S334.38,218.453,317.44,218.453z M317.44,266.24c-9.414,0-17.067-7.653-17.067-17.067s7.653-17.067,17.067-17.067
			s17.067,7.653,17.067,17.067S326.854,266.24,317.44,266.24z"/>
	</g>
</g>
<g>
	<g>
		<path d="M201.387,293.547c-13.174,0-23.893,10.72-23.893,23.893s10.72,23.893,23.893,23.893s23.893-10.72,23.893-23.893
			S214.56,293.547,201.387,293.547z M201.387,327.68c-5.647,0-10.24-4.593-10.24-10.24c0-5.647,4.593-10.24,10.24-10.24
			c5.647,0,10.24,4.593,10.24,10.24C211.627,323.087,207.034,327.68,201.387,327.68z"/>
	</g>
</g>
<g>
</g>
<g>
</g>
<g>
</g>
<g>
</g>
<g>
</g>
<g>
</g>
<g>
</g>
<g>
</g>
<g>
</g>
<g>
</g>
<g>
</g>
<g>
</g>
<g>
</g>
<g>
</g>
<g>
</g>
</svg>
