<?xml version="1.0" encoding="iso-8859-1"?>
<!-- Generator: Adobe Illustrator 19.0.0, SVG Export Plug-In . SVG Version: 6.00 Build 0)  -->
<svg version="1.1" id="Capa_1" xmlns="http://www.w3.org/2000/svg" xmlns:xlink="http://www.w3.org/1999/xlink" x="0px" y="0px"
	 viewBox="0 0 423.253 423.253" style="enable-background:new 0 0 423.253 423.253;" xml:space="preserve">
<g>
	<g>
		<path d="M211.627,0c-10.894,0-21.854,0.84-32.573,2.493c-2.005,0.305-3.773,1.498-4.813,3.239
			c-1.048,1.741-1.261,3.86-0.587,5.774c2.546,7.24,3.84,14.853,3.84,22.627c0,37.641-30.626,68.267-68.267,68.267
			c-5.533,0-11.034-0.66-16.34-1.966c-3.447-0.84-6.886,1.053-8.061,4.347c-9.646,27.16-35.507,45.406-64.346,45.406
			c-1.906,0-3.801-0.08-5.666-0.234c-3.188-0.234-6.253,1.826-7.134,4.98C2.587,173.3,0,192.374,0,211.627
			C0,328.32,94.933,423.253,211.627,423.253s211.627-94.933,211.627-211.627S328.32,0,211.627,0z M211.627,409.6
			c-109.16,0-197.973-88.813-197.973-197.973c0-16.193,1.954-32.241,5.806-47.793c0.341,0.007,0.681,0.007,1.021,0.007
			c32.601,0,62.027-19.434,75.006-48.934c4.521,0.759,9.12,1.147,13.74,1.147c45.174,0,81.92-36.746,81.92-81.92
			c0-6.513-0.76-12.94-2.26-19.186c7.533-0.86,15.154-1.294,22.74-1.294c109.16,0,197.973,88.813,197.973,197.973
			S320.787,409.6,211.627,409.6z"/>
	</g>
</g>
<g>
	<g>
		<path d="M208.213,34.133c-3.773,0-6.827,3.053-6.827,6.827s3.053,6.827,6.827,6.827c88.46,0,160.427,71.967,160.427,160.427
			S296.673,368.64,208.213,368.64S47.787,296.673,47.787,208.213c0-3.773-3.053-6.827-6.827-6.827s-6.827,3.053-6.827,6.827
			c0,95.986,78.094,174.08,174.08,174.08s174.08-78.094,174.08-174.08S304.2,34.133,208.213,34.133z"/>
	</g>
</g>
<g>
	<g>
		<path d="M266.24,88.747c-15.06,0-27.307,12.247-27.307,27.307c0,15.06,12.247,27.307,27.307,27.307
			c15.06,0,27.307-12.247,27.307-27.307C293.547,100.994,281.3,88.747,266.24,88.747z M266.24,129.707
			c-7.526,0-13.653-6.127-13.653-13.653c0-7.526,6.127-13.653,13.653-13.653s13.653,6.127,13.653,13.653
			C279.893,123.58,273.766,129.707,266.24,129.707z"/>
	</g>
</g>
<g>
	<g>
		<path d="M259.413,177.493c-15.06,0-27.307,12.247-27.307,27.307s12.247,27.307,27.307,27.307c15.06,0,27.307-12.247,27.307-27.307
			S274.473,177.493,259.413,177.493z M259.413,218.453c-7.526,0-13.653-6.127-13.653-13.653s6.127-13.653,13.653-13.653
			c7.526,0,13.653,6.127,13.653,13.653S266.94,218.453,259.413,218.453z"/>
	</g>
</g>
<g>
	<g>
		<path d="M184.32,136.533c-15.06,0-27.307,12.247-27.307,27.307s12.247,27.307,27.307,27.307s27.307-12.247,27.307-27.307
			S199.38,136.533,184.32,136.533z M184.32,177.493c-7.526,0-13.653-6.127-13.653-13.653c0-7.526,6.127-13.653,13.653-13.653
			c7.526,0,13.653,6.127,13.653,13.653C197.973,171.366,191.846,177.493,184.32,177.493z"/>
	</g>
</g>
<g>
	<g>
		<path d="M170.667,259.413c-15.06,0-27.307,12.247-27.307,27.307s12.247,27.307,27.307,27.307c15.06,0,27.307-12.247,27.307-27.307
			S185.726,259.413,170.667,259.413z M170.667,300.373c-7.526,0-13.653-6.127-13.653-13.653c0-7.526,6.127-13.653,13.653-13.653
			c7.526,0,13.653,6.127,13.653,13.653C184.32,294.246,178.193,300.373,170.667,300.373z"/>
	</g>
</g>
<g>
	<g>
		<path d="M116.053,197.973c-15.06,0-27.307,12.247-27.307,27.307s12.247,27.307,27.307,27.307c15.06,0,27.307-12.247,27.307-27.307
			S131.113,197.973,116.053,197.973z M116.053,238.933c-7.526,0-13.653-6.127-13.653-13.653c0-7.526,6.127-13.653,13.653-13.653
			c7.526,0,13.653,6.127,13.653,13.653C129.707,232.806,123.58,238.933,116.053,238.933z"/>
	</g>
</g>
<g>
	<g>
		<path d="M266.24,259.413c-15.06,0-27.307,12.247-27.307,27.307s12.247,27.307,27.307,27.307c15.06,0,27.307-12.247,27.307-27.307
			S281.3,259.413,266.24,259.413z M266.24,300.373c-7.526,0-13.653-6.127-13.653-13.653c0-7.526,6.127-13.653,13.653-13.653
			s13.653,6.127,13.653,13.653C279.893,294.246,273.766,300.373,266.24,300.373z"/>
	</g>
</g>
<g>
</g>
<g>
</g>
<g>
</g>
<g>
</g>
<g>
</g>
<g>
</g>
<g>
</g>
<g>
</g>
<g>
</g>
<g>
</g>
<g>
</g>
<g>
</g>
<g>
</g>
<g>
</g>
<g>
</g>
</svg>
