<?xml version="1.0" encoding="iso-8859-1"?>
<!-- Generator: Adobe Illustrator 19.0.0, SVG Export Plug-In . SVG Version: 6.00 Build 0)  -->
<svg version="1.1" id="Capa_1" xmlns="http://www.w3.org/2000/svg" xmlns:xlink="http://www.w3.org/1999/xlink" x="0px" y="0px"
	 viewBox="0 0 430.08 430.08" style="enable-background:new 0 0 430.08 430.08;" xml:space="preserve">
<g>
	<g>
		<path d="M315.537,84.02c-1.287-1.34-3.063-2.099-4.924-2.099H119.467c-1.86,0-3.637,0.761-4.924,2.099
			c-1.29,1.341-1.973,3.147-1.896,5.007l12.814,314.341c0.623,14.979,12.856,26.713,27.849,26.713h123.46
			c14.993,0,27.226-11.733,27.849-26.72l12.814-314.334C317.51,87.167,316.828,85.359,315.537,84.02z M290.98,402.794
			c-0.319,7.646-6.56,13.633-14.21,13.633H153.31c-7.649,0-13.889-5.985-14.21-13.626L126.577,95.574h176.927L290.98,402.794z"/>
	</g>
</g>
<g>
	<g>
		<path d="M315.541,84.02c-1.287-1.34-3.067-2.099-4.927-2.099H119.467c-1.86,0-3.64,0.758-4.927,2.099s-1.969,3.154-1.893,5.014
			l4.267,102.4c0.15,3.654,3.159,6.54,6.82,6.54h23.037c3.77,0,6.827-3.053,6.827-6.827s-3.057-6.827-6.827-6.827h-16.49
			l-3.697-88.747h176.913L299.8,184.32H187.73c-3.77,0-6.827,3.053-6.827,6.827s3.057,6.827,6.827,6.827h118.617
			c3.661,0,6.67-2.886,6.82-6.54l4.267-102.4C317.51,87.174,316.828,85.359,315.541,84.02z"/>
	</g>
</g>
<g>
	<g>
		<path d="M301.404,1.647c-2.857-2.459-7.171-2.127-9.627,0.741l-40.96,47.787c-0.853,0.993-1.403,2.212-1.58,3.519l-40.96,300.373
			c-0.51,3.734,2.106,7.173,5.84,7.687c0.314,0.039,0.623,0.06,0.934,0.06c3.36,0,6.286-2.48,6.755-5.907l40.69-298.38
			l39.649-46.259C304.598,8.407,304.268,4.102,301.404,1.647z"/>
	</g>
</g>
<g>
	<g>
		<path d="M167.254,163.84c-15.056,0-27.307,12.247-27.307,27.307s12.25,27.307,27.307,27.307c15.056,0,27.307-12.247,27.307-27.307
			S182.31,163.84,167.254,163.84z M167.254,204.8c-7.53,0-13.653-6.127-13.653-13.653c0-7.526,6.124-13.653,13.653-13.653
			c7.53,0,13.653,6.127,13.653,13.653C180.907,198.673,174.783,204.8,167.254,204.8z"/>
	</g>
</g>
<g>
	<g>
		<path d="M191.147,27.307c-13.174,0-23.893,10.72-23.893,23.893c0,13.174,10.72,23.893,23.893,23.893
			c13.174,0,23.893-10.72,23.893-23.893C215.04,38.027,204.321,27.307,191.147,27.307z M191.147,61.44
			c-5.647,0-10.24-4.593-10.24-10.24c0-5.647,4.593-10.24,10.24-10.24c5.647,0,10.24,4.593,10.24,10.24
			C201.387,56.848,196.794,61.44,191.147,61.44z"/>
	</g>
</g>
<g>
	<g>
		<path d="M184.32,314.027c-13.174,0-23.893,10.72-23.893,23.893s10.72,23.893,23.893,23.893c13.174,0,23.893-10.72,23.893-23.893
			S197.494,314.027,184.32,314.027z M184.32,348.16c-5.647,0-10.24-4.593-10.24-10.24c0-5.647,4.593-10.24,10.24-10.24
			c5.647,0,10.24,4.593,10.24,10.24C194.56,343.568,189.968,348.16,184.32,348.16z"/>
	</g>
</g>
<g>
	<g>
		<path d="M266.24,245.76c-13.174,0-23.893,10.72-23.893,23.893s10.72,23.893,23.893,23.893s23.893-10.72,23.893-23.893
			S279.414,245.76,266.24,245.76z M266.24,279.894c-5.647,0-10.24-4.593-10.24-10.24c0-5.647,4.593-10.24,10.24-10.24
			c5.647,0,10.24,4.593,10.24,10.24C276.48,275.301,271.888,279.894,266.24,279.894z"/>
	</g>
</g>
<g>
</g>
<g>
</g>
<g>
</g>
<g>
</g>
<g>
</g>
<g>
</g>
<g>
</g>
<g>
</g>
<g>
</g>
<g>
</g>
<g>
</g>
<g>
</g>
<g>
</g>
<g>
</g>
<g>
</g>
</svg>
