<?xml version="1.0" encoding="iso-8859-1"?>
<!-- Generator: Adobe Illustrator 19.0.0, SVG Export Plug-In . SVG Version: 6.00 Build 0)  -->
<svg version="1.1" id="Capa_1" xmlns="http://www.w3.org/2000/svg" xmlns:xlink="http://www.w3.org/1999/xlink" x="0px" y="0px"
	 viewBox="0 0 436.907 436.907" style="enable-background:new 0 0 436.907 436.907;" xml:space="preserve">
<g>
	<g>
		<path d="M150.188,46.667l-6.827-40.96C142.815,2.413,139.965,0,136.628,0h-61.44c-3.337,0-6.187,2.413-6.733,5.707l-6.827,40.96
			c-0.329,1.98,0.227,4,1.524,5.533c1.297,1.533,3.203,2.413,5.211,2.413h75.093c2.007,0,3.91-0.881,5.207-2.413
			S150.517,48.647,150.188,46.667z M76.424,40.96l4.55-27.307h49.874l4.55,27.307H76.424z"/>
	</g>
</g>
<g>
	<g>
		<path d="M181.111,368.333l-2.374-5.127c-5.697-12.273-8.015-33.833-5.064-47.073l10.79-48.406
			c0.111-0.486,0.164-0.986,0.164-1.487V143.36c0-1.3-0.37-2.567-1.067-3.661l-23.033-36.221c-3.64-5.726-7.974-16.133-9.46-22.719
			l-7.777-34.473c-0.703-3.113-3.47-5.327-6.659-5.327H75.19c-3.221,0-6.001,2.246-6.677,5.393l-7.39,34.48
			c-1.401,6.554-5.647,16.853-9.277,22.494l-23.361,36.34c-0.707,1.099-1.084,2.386-1.084,3.693v122.88
			c0,0.507,0.058,1.014,0.171,1.514l10.999,48.406c3.007,13.227,0.686,34.76-5.064,47.027l-2.393,5.113
			c-7.677,16.372-3.427,38.973,9.68,51.459l11.047,10.513c4.028,3.847,10.974,6.634,16.51,6.634h25.18c3.77,0,6.83-3.052,6.83-6.825
			s-3.057-6.827-6.827-6.827h-25.18c-2.026,0-5.603-1.447-7.093-2.867l-11.051-10.513c-8.806-8.393-11.889-24.774-6.729-35.78
			l2.393-5.113c7.062-15.066,9.706-39.6,6.013-55.847l-10.831-47.66V145.367l22.277-34.654c4.506-7.013,9.402-18.886,11.143-27.02
			l6.233-29.08h50.463l6.572,29.143c1.835,8.12,6.777,19.994,11.261,27.04l21.966,34.546v120.141l-10.627,47.674
			c-3.616,16.234-0.98,40.742,6.001,55.788l2.374,5.127c1.618,3.48,2.461,7.673,2.444,12.126c-0.014,3.773,3.029,6.84,6.799,6.854
			c0.01,0,0.017,0,0.027,0c3.76,0,6.813-3.04,6.827-6.799C184.842,379.807,183.558,373.613,181.111,368.333z"/>
	</g>
</g>
<g>
	<g>
		<path d="M177.59,136.533H34.23c-3.77,0-6.827,3.053-6.827,6.827v122.88c0,3.773,3.057,6.827,6.827,6.827h143.36
			c3.77,0,6.827-3.053,6.827-6.827V143.36C184.417,139.587,181.36,136.533,177.59,136.533z M170.763,259.413H41.057V150.187h129.707
			V259.413z"/>
	</g>
</g>
<g>
	<g>
		<path d="M367.786,329.475c-2.214-6.687-7.018-12-13.891-15.367c-9.02-4.434-21.613-1.76-36.2,1.333
			c-25.539,5.407-54.492,11.547-71.506-16.473c-11.87-19.56-7.615-35.941-1.956-46.227c11.558-21.014,36.891-33.934,54.711-34.287
			c3.767-0.073,6.763-3.193,6.69-6.96c-0.073-3.773-3.084-6.473-6.963-6.694c-25.163,0.5-53.709,18.28-66.4,41.359
			c-7.393,13.447-13.008,34.753,2.246,59.887c22.04,36.32,59.02,28.472,86.013,22.746c11.083-2.354,22.557-4.774,27.36-2.434
			c3.587,1.76,5.854,4.173,6.924,7.366c2.246,6.712-1.094,15.759-2.574,18.679c-1.712,3.354-0.396,7.46,2.951,9.18
			c1,0.519,2.07,0.759,3.12,0.759c2.476,0,4.862-1.347,6.076-3.697C365.199,357.069,372.206,342.828,367.786,329.475z"/>
	</g>
</g>
<g>
	<g>
		<path d="M354.326,311.533c-2.214-6.687-7.018-12-13.887-15.367c-9.202-4.526-23.282-1.08-41.093,3.26
			c-29.31,7.148-65.787,16.041-82.616-11.699c-14.447-23.806,5.664-40.346,12.17-44.853c19.389-13.426,49.756-15.899,64.993,3.514
			c2.326,2.973,6.617,3.487,9.583,1.161c2.968-2.333,3.483-6.62,1.157-9.586c-20.407-26.013-58.491-23.627-83.504-6.313
			c-23.277,16.108-29.583,40.9-16.073,63.16c22.031,36.306,65.667,25.646,97.524,17.886c12.692-3.094,27.086-6.586,31.85-4.273
			c3.587,1.76,5.854,4.173,6.924,7.366c2.246,6.712-1.094,15.759-2.574,18.68c-1.712,3.354-0.396,7.46,2.951,9.18
			c1,0.519,2.07,0.76,3.12,0.76c2.476,0,4.864-1.347,6.076-3.7C351.738,339.127,358.746,324.886,354.326,311.533z"/>
	</g>
</g>
<g>
	<g>
		<path d="M177.5,382.293H95.58c-3.77,0-6.827,3.053-6.827,6.827v40.96c0,3.773,3.057,6.827,6.827,6.827h81.92
			c3.77,0,6.827-3.053,6.827-6.827v-40.96C184.326,385.347,181.27,382.293,177.5,382.293z M170.673,423.253h-68.267v-27.307h68.267
			V423.253z"/>
	</g>
</g>
<g>
	<g>
		<path d="M204.806,382.293H177.5c-3.77,0-6.827,3.053-6.827,6.827v40.96c0,3.773,3.057,6.827,6.827,6.827h27.307
			c3.77,0,6.827-3.053,6.827-6.827v-40.96C211.633,385.347,208.576,382.293,204.806,382.293z M197.98,423.253h-13.653v-27.307
			h13.653V423.253z"/>
	</g>
</g>
<g>
	<g>
		<path d="M402.78,382.293h-27.307c-3.77,0-6.827,3.053-6.827,6.827v40.96c0,3.773,3.057,6.827,6.827,6.827h27.307
			c3.77,0,6.827-3.053,6.827-6.827v-40.96C409.606,385.347,406.55,382.293,402.78,382.293z M395.953,423.253H382.3v-27.307h13.653
			V423.253z"/>
	</g>
</g>
<g>
	<g>
		<path d="M375.473,382.293H204.806c-3.77,0-6.827,3.053-6.827,6.827v40.96c0,3.773,3.057,6.827,6.827,6.827h170.667
			c3.77,0,6.827-3.053,6.827-6.827v-40.96C382.3,385.347,379.243,382.293,375.473,382.293z M368.646,423.253H211.633v-27.307
			h157.013V423.253z"/>
	</g>
</g>
<g>
</g>
<g>
</g>
<g>
</g>
<g>
</g>
<g>
</g>
<g>
</g>
<g>
</g>
<g>
</g>
<g>
</g>
<g>
</g>
<g>
</g>
<g>
</g>
<g>
</g>
<g>
</g>
<g>
</g>
</svg>
