<?xml version="1.0" encoding="iso-8859-1"?>
<!-- Generator: Adobe Illustrator 19.0.0, SVG Export Plug-In . SVG Version: 6.00 Build 0)  -->
<svg version="1.1" id="Capa_1" xmlns="http://www.w3.org/2000/svg" xmlns:xlink="http://www.w3.org/1999/xlink" x="0px" y="0px"
	 viewBox="0 0 436.907 436.907" style="enable-background:new 0 0 436.907 436.907;" xml:space="preserve">
<g>
	<g>
		<path d="M143.361,46.667l-6.827-40.96C135.988,2.413,133.138,0,129.802,0h-61.44c-3.337,0-6.187,2.413-6.733,5.707l-6.827,40.96
			c-0.329,1.98,0.227,4,1.524,5.533c1.297,1.533,3.203,2.413,5.21,2.413h75.093c2.007,0,3.91-0.881,5.207-2.413
			S143.691,48.647,143.361,46.667z M69.597,40.96l4.55-27.307h49.874l4.55,27.307H69.597z"/>
	</g>
</g>
<g>
	<g>
		<path d="M176.733,139.699L153.7,103.479c-3.64-5.726-7.974-16.133-9.46-22.719l-7.777-34.473c-0.703-3.113-3.47-5.327-6.659-5.327
			h-61.44c-3.22,0-6.001,2.246-6.676,5.393l-7.39,34.48c-1.401,6.554-5.647,16.853-9.277,22.494l-23.361,36.34
			c-0.707,1.099-1.084,2.386-1.084,3.693v122.88c0,0.507,0.058,1.014,0.171,1.514l10.999,48.406
			c3.007,13.227,0.686,34.76-5.064,47.027l-2.393,5.113c-7.677,16.372-3.427,38.973,9.68,51.459l11.047,10.513
			c4.028,3.847,10.974,6.634,16.51,6.634h75.114c5.523,0,12.44-2.746,16.454-6.54l5.376-5.081c2.739-2.586,2.86-6.907,0.273-9.646
			c-2.592-2.739-6.915-2.86-9.653-0.273l-5.376,5.081c-1.471,1.388-5.042,2.807-7.071,2.807H61.53c-2.026,0-5.603-1.447-7.093-2.867
			l-11.051-10.513c-8.806-8.393-11.889-24.774-6.729-35.78l2.393-5.113c7.062-15.066,9.706-39.6,6.013-55.847l-10.831-47.66V145.367
			l22.277-34.654c4.506-7.013,9.402-18.886,11.143-27.02l6.233-29.08h50.463l6.572,29.147c1.835,8.12,6.777,19.994,11.261,27.04
			l21.966,34.546v120.141l-2.109,9.46c-0.821,3.68,1.497,7.327,5.176,8.146c3.673,0.84,7.33-1.487,8.149-5.173l2.273-10.194
			c0.111-0.486,0.164-0.986,0.164-1.487V143.36C177.8,142.06,177.43,140.793,176.733,139.699z"/>
	</g>
</g>
<g>
	<g>
		<path d="M170.763,136.533H27.403c-3.77,0-6.827,3.053-6.827,6.827v122.88c0,3.773,3.057,6.827,6.827,6.827h143.36
			c3.77,0,6.827-3.053,6.827-6.827V143.36C177.59,139.587,174.533,136.533,170.763,136.533z M163.937,259.413H34.23V150.187h129.707
			V259.413z"/>
	</g>
</g>
<g>
	<g>
		<path d="M389.126,382.293h-245.76c-3.77,0-6.827,3.053-6.827,6.827c0,26.347,21.437,47.787,47.787,47.787h163.84
			c26.351,0,47.787-21.439,47.787-47.787C395.953,385.347,392.896,382.293,389.126,382.293z M348.168,423.253h-163.84
			c-16.485,0-30.278-11.747-33.447-27.307h230.734C378.444,411.506,364.651,423.253,348.168,423.253z"/>
	</g>
</g>
<g>
	<g>
		<path d="M389.126,341.333h-245.76c-15.056,0-27.307,12.247-27.307,27.307c0,15.06,12.25,27.307,27.307,27.307h245.76
			c15.058,0,27.307-12.247,27.307-27.307C416.433,353.58,404.183,341.333,389.126,341.333z M389.126,382.293h-245.76
			c-7.53,0-13.653-6.127-13.653-13.653c0-7.526,6.123-13.653,13.653-13.653h245.76c7.53,0,13.653,6.127,13.653,13.653
			C402.78,376.166,396.656,382.293,389.126,382.293z"/>
	</g>
</g>
<g>
	<g>
		<path d="M279.9,232.107h-27.307c-63.993,0-116.053,52.06-116.053,116.053c0,3.773,3.057,6.827,6.827,6.827h245.76
			c3.77,0,6.827-3.053,6.827-6.827C395.953,284.167,343.893,232.107,279.9,232.107z M150.42,341.333
			c3.528-53.294,48.003-95.573,102.173-95.573H279.9c54.17,0,98.647,42.279,102.173,95.573H150.42z"/>
	</g>
</g>
<g>
	<g>
		<rect x="197.975" y="273.067" width="13.653" height="13.653"/>
	</g>
</g>
<g>
	<g>
		<rect x="191.148" y="300.373" width="13.653" height="13.653"/>
	</g>
</g>
<g>
	<g>
		<rect x="273.068" y="266.24" width="13.653" height="13.653"/>
	</g>
</g>
<g>
	<g>
		<rect x="314.028" y="300.373" width="13.653" height="13.653"/>
	</g>
</g>
<g>
	<g>
		<rect x="252.588" y="307.2" width="13.653" height="13.653"/>
	</g>
</g>
<g>
</g>
<g>
</g>
<g>
</g>
<g>
</g>
<g>
</g>
<g>
</g>
<g>
</g>
<g>
</g>
<g>
</g>
<g>
</g>
<g>
</g>
<g>
</g>
<g>
</g>
<g>
</g>
<g>
</g>
</svg>
