<?xml version="1.0" encoding="iso-8859-1"?>
<!-- Generator: Adobe Illustrator 19.0.0, SVG Export Plug-In . SVG Version: 6.00 Build 0)  -->
<svg version="1.1" id="Capa_1" xmlns="http://www.w3.org/2000/svg" xmlns:xlink="http://www.w3.org/1999/xlink" x="0px" y="0px"
	 viewBox="0 0 436.907 436.907" style="enable-background:new 0 0 436.907 436.907;" xml:space="preserve">
<g>
	<g>
		<path d="M197.971,46.667l-6.827-40.96C190.598,2.413,187.752,0,184.412,0h-61.437c-3.336,0-6.187,2.413-6.733,5.707l-6.827,40.96
			c-0.329,1.98,0.227,4,1.524,5.533s3.203,2.413,5.21,2.413h75.09c2.007,0,3.913-0.881,5.204-2.413
			C197.744,50.668,198.304,48.647,197.971,46.667z M124.211,40.96l4.55-27.307h49.874l4.547,27.307H124.211z"/>
	</g>
</g>
<g>
	<g>
		<path d="M228.898,368.326l-2.374-5.12c-5.693-12.273-8.013-33.826-5.06-47.073l10.786-48.406c0.114-0.486,0.167-0.986,0.167-1.487
			V157.013c0-3.773-3.053-6.827-6.827-6.827s-6.827,3.053-6.827,6.827v108.476l-10.621,47.674
			c-3.62,16.232-0.986,40.74,5.994,55.793l2.374,5.12c5.101,10.999,1.961,27.339-6.866,35.68l-11.313,10.687
			c-1.475,1.393-5.047,2.813-7.074,2.813h-75.114c-2.026,0-5.603-1.447-7.093-2.867L98,409.875
			c-8.806-8.393-11.889-24.774-6.729-35.78l2.393-5.113c7.062-15.066,9.706-39.6,6.013-55.847l-10.831-47.66V145.367l22.277-34.654
			c4.506-7.013,9.402-18.886,11.143-27.02l6.233-29.08h50.456l4.873,21.572c0.833,3.674,4.492,5.987,8.166,5.154
			s5.98-4.487,5.154-8.166l-6.074-26.894c-0.707-3.106-3.466-5.32-6.659-5.32h-61.437c-3.22,0-6.001,2.246-6.676,5.393l-7.39,34.48
			c-1.401,6.554-5.647,16.853-9.277,22.494l-23.361,36.34c-0.707,1.099-1.084,2.386-1.084,3.693v122.88
			c0,0.507,0.058,1.014,0.171,1.514l11,48.406c3.007,13.227,0.686,34.76-5.064,47.027l-2.393,5.113
			c-7.677,16.372-3.427,38.973,9.68,51.459l11.047,10.513c4.028,3.847,10.974,6.634,16.51,6.634h75.114
			c5.519,0,12.433-2.746,16.451-6.54l11.313-10.694C232.157,407.259,236.497,384.707,228.898,368.326z"/>
	</g>
</g>
<g>
	<g>
		<path d="M225.373,148.519c-3.773,0-6.827,3.053-6.827,6.827v104.067H88.843V150.187H210.74c3.773,0,6.827-3.053,6.827-6.827
			s-3.053-6.827-6.827-6.827H82.017c-3.77,0-6.827,3.053-6.827,6.827v122.88c0,3.773,3.057,6.827,6.827,6.827h143.357
			c3.773,0,6.827-3.053,6.827-6.827V155.346C232.2,151.572,229.147,148.519,225.373,148.519z"/>
	</g>
</g>
<g>
	<g>
		<path d="M273.073,0c-48.934,0-88.747,39.813-88.747,88.747s39.813,88.747,88.747,88.747s88.747-39.813,88.747-88.747
			S322.007,0,273.073,0z M273.073,163.84c-41.407,0-75.093-33.686-75.093-75.093s33.686-75.093,75.093-75.093
			c41.407,0,75.093,33.686,75.093,75.093S314.48,163.84,273.073,163.84z"/>
	</g>
</g>
<g>
	<g>
		<path d="M325.075,60.008c-4.381-10.673-13.701-17.727-24.921-18.86c-9.873-1.06-20.067,2.342-27.38,8.994
			c-6.427-5.847-14.853-9.18-23.753-9.18c-1.225,0-2.432,0.06-3.606,0.179c-11.233,1.14-20.56,8.194-24.933,18.86
			c-4.567,11.114-2.695,23.707,4.879,32.874l42.153,51.026c1.294,1.574,3.227,2.48,5.26,2.48c2.033,0,3.966-0.908,5.262-2.48
			l42.153-51.026C327.761,83.715,329.635,71.122,325.075,60.008z M309.667,84.18l-36.893,44.653L235.881,84.18
			c-4.354-5.274-5.42-12.554-2.773-18.994c2.473-6.014,7.46-9.827,13.699-10.467c0.727-0.072,1.466-0.106,2.214-0.106
			c7.272,0,14.025,3.634,18.065,9.713c2.533,3.801,8.841,3.801,11.373,0c4.461-6.7,12.3-10.446,20.301-9.6
			c6.228,0.633,11.215,4.448,13.688,10.46C315.088,71.632,314.021,78.906,309.667,84.18z"/>
	</g>
</g>
<g>
</g>
<g>
</g>
<g>
</g>
<g>
</g>
<g>
</g>
<g>
</g>
<g>
</g>
<g>
</g>
<g>
</g>
<g>
</g>
<g>
</g>
<g>
</g>
<g>
</g>
<g>
</g>
<g>
</g>
</svg>
