<?xml version="1.0" encoding="iso-8859-1"?>
<!-- Generator: Adobe Illustrator 19.0.0, SVG Export Plug-In . SVG Version: 6.00 Build 0)  -->
<svg version="1.1" id="Capa_1" xmlns="http://www.w3.org/2000/svg" xmlns:xlink="http://www.w3.org/1999/xlink" x="0px" y="0px"
	 viewBox="0 0 436.907 436.907" style="enable-background:new 0 0 436.907 436.907;" xml:space="preserve">
<g>
	<g>
		<path d="M150.187,46.667l-6.827-40.96C142.814,2.413,139.964,0,136.628,0h-61.44c-3.337,0-6.187,2.413-6.733,5.707l-6.827,40.96
			c-0.329,1.98,0.227,4,1.524,5.533c1.297,1.533,3.203,2.413,5.211,2.413h75.093c2.007,0,3.91-0.881,5.207-2.413
			S150.516,48.647,150.187,46.667z M76.423,40.96l4.55-27.307h49.874l4.55,27.307H76.423z"/>
	</g>
</g>
<g>
	<g>
		<path d="M181.11,368.333l-2.374-5.127c-5.697-12.273-8.015-33.833-5.064-47.073l10.79-48.406c0.111-0.486,0.164-0.986,0.164-1.487
			V143.36c0-1.3-0.37-2.567-1.067-3.661l-23.033-36.221c-3.64-5.726-7.974-16.133-9.46-22.719l-7.777-34.473
			c-0.703-3.113-3.47-5.327-6.659-5.327h-61.44c-3.221,0-6.001,2.246-6.677,5.393l-7.39,34.48
			c-1.401,6.554-5.647,16.853-9.277,22.494l-23.361,36.34c-0.707,1.099-1.084,2.386-1.084,3.693v122.88
			c0,0.507,0.058,1.014,0.171,1.514l10.999,48.406c3.007,13.227,0.686,34.76-5.064,47.027l-2.393,5.113
			c-7.677,16.372-3.427,38.973,9.68,51.459l11.047,10.513c4.028,3.847,10.974,6.634,16.51,6.634h75.114
			c5.523,0,12.44-2.746,16.451-6.54l11.317-10.694C184.366,407.26,188.703,384.707,181.11,368.333z M161.855,409.754l-11.317,10.694
			c-1.471,1.388-5.041,2.807-7.071,2.807H68.354c-2.026,0-5.603-1.447-7.093-2.867l-11.051-10.513
			c-8.806-8.393-11.889-24.774-6.729-35.78l2.393-5.113c7.062-15.066,9.706-39.6,6.013-55.847l-10.831-47.66V145.367l22.277-34.654
			c4.506-7.013,9.402-18.886,11.143-27.02l6.233-29.08h50.464l6.574,29.145c1.835,8.12,6.777,19.994,11.261,27.04l21.967,34.546
			v120.141l-10.627,47.674c-3.616,16.234-0.98,40.742,6.001,55.787l2.374,5.127C173.826,385.074,170.679,401.413,161.855,409.754z"
			/>
	</g>
</g>
<g>
	<g>
		<path d="M177.589,136.533H34.229c-3.77,0-6.827,3.053-6.827,6.827v122.88c0,3.773,3.057,6.827,6.827,6.827h143.36
			c3.77,0,6.827-3.053,6.827-6.827V143.36C184.416,139.587,181.359,136.533,177.589,136.533z M170.763,259.413H41.056V150.187
			h129.707V259.413z"/>
	</g>
</g>
<g>
	<g>
		<path d="M387.241,186.433c-1.287-1.347-3.074-2.113-4.941-2.113H245.767c-1.867,0-3.654,0.766-4.941,2.113
			c-1.29,1.353-1.968,3.173-1.881,5.04l3.577,75.093c0.172,3.64,3.176,6.501,6.82,6.501h129.381c3.642,0,6.646-2.86,6.822-6.501
			l3.577-75.093C389.207,189.606,388.532,187.786,387.241,186.433z M372.212,259.413H255.852l-2.925-61.44h122.213L372.212,259.413z
			"/>
	</g>
</g>
<g>
	<g>
		<path d="M383.666,261.526c-1.287-1.347-3.074-2.113-4.941-2.113H249.344c-1.867,0-3.654,0.766-4.941,2.113
			c-1.29,1.353-1.968,3.173-1.881,5.04l7.799,163.84c0.172,3.64,3.176,6.501,6.82,6.501h113.78c3.644,0,6.647-2.86,6.825-6.501
			l7.799-163.84C385.632,264.699,384.956,262.88,383.666,261.526z M364.413,423.253h-100.76l-7.151-150.187h115.06L364.413,423.253z
			"/>
	</g>
</g>
<g>
	<g>
		<path d="M406.877,21.845c-3.024-2.253-7.298-1.654-9.557,1.367l-40.96,54.613c-0.71,0.94-1.161,2.053-1.311,3.227l-34.133,266.24
			c-0.48,3.741,2.164,7.161,5.903,7.641c0.294,0.032,0.587,0.053,0.877,0.053c3.384,0,6.32-2.514,6.76-5.96l33.908-264.455
			l39.876-53.173C410.503,28.385,409.894,24.105,406.877,21.845z"/>
	</g>
</g>
<g>
</g>
<g>
</g>
<g>
</g>
<g>
</g>
<g>
</g>
<g>
</g>
<g>
</g>
<g>
</g>
<g>
</g>
<g>
</g>
<g>
</g>
<g>
</g>
<g>
</g>
<g>
</g>
<g>
</g>
</svg>
