<?xml version="1.0" encoding="iso-8859-1"?>
<!-- Generator: Adobe Illustrator 19.0.0, SVG Export Plug-In . SVG Version: 6.00 Build 0)  -->
<svg version="1.1" id="Capa_1" xmlns="http://www.w3.org/2000/svg" xmlns:xlink="http://www.w3.org/1999/xlink" x="0px" y="0px"
	 viewBox="0 0 436.907 436.907" style="enable-background:new 0 0 436.907 436.907;" xml:space="preserve">
<g>
	<g>
		<path d="M262.566,46.667l-6.827-40.96C255.193,2.413,252.346,0,249.006,0H187.57c-3.336,0-6.187,2.413-6.733,5.707l-6.827,40.96
			c-0.329,1.98,0.227,4,1.524,5.533s3.203,2.413,5.21,2.413h75.09c2.007,0,3.913-0.881,5.204-2.413
			C262.339,50.668,262.899,48.647,262.566,46.667z M188.805,40.96l4.55-27.307h49.874l4.547,27.307H188.805z"/>
	</g>
</g>
<g>
	<g>
		<path d="M293.489,368.328l-2.374-5.12c-5.693-12.273-8.013-33.826-5.06-47.073l10.786-48.406c0.114-0.486,0.167-0.987,0.167-1.487
			v-122.88c0-1.3-0.367-2.567-1.067-3.661l-23.033-36.227c-3.64-5.721-7.974-16.121-9.46-22.714l-7.781-34.473
			c-0.707-3.113-3.466-5.327-6.659-5.327h-61.437c-3.22,0-6.001,2.246-6.676,5.393l-7.39,34.48
			c-1.401,6.554-5.647,16.853-9.277,22.494l-23.361,36.34c-0.707,1.099-1.084,2.386-1.084,3.693v122.88
			c0,0.507,0.058,1.014,0.171,1.514l10.999,48.406c3.007,13.227,0.686,34.76-5.064,47.027l-2.393,5.113
			c-7.677,16.372-3.427,38.973,9.68,51.459l11.047,10.513c4.028,3.847,10.974,6.634,16.51,6.634h75.114
			c5.519,0,12.433-2.746,16.447-6.538l11.313-10.694C296.749,407.26,301.089,384.708,293.489,368.328z M274.238,409.755
			l-11.314,10.687c-1.475,1.393-5.047,2.813-7.074,2.813h-75.114c-2.026,0-5.603-1.447-7.093-2.867l-11.051-10.513
			c-8.806-8.393-11.889-24.774-6.729-35.78l2.393-5.113c7.062-15.066,9.706-39.6,6.013-55.847l-10.831-47.66h0.002V145.367
			l22.277-34.654c4.506-7.013,9.402-18.886,11.143-27.02l6.233-29.08h50.456l6.581,29.148c1.835,8.127,6.781,20.007,11.261,27.04
			l21.967,34.546v120.141l-10.621,47.674c-3.62,16.232-0.986,40.74,5.994,55.793l2.374,5.12
			C286.205,385.075,283.065,401.415,274.238,409.755z"/>
	</g>
</g>
<g>
	<g>
		<path d="M289.968,136.533H146.611c-3.77,0-6.827,3.053-6.827,6.827v122.88c0,3.773,3.057,6.827,6.827,6.827h143.357
			c3.773,0,6.827-3.053,6.827-6.827V143.36C296.795,139.587,293.741,136.533,289.968,136.533z M283.141,259.413H153.438V150.187
			h129.703V259.413z"/>
	</g>
</g>
<g>
</g>
<g>
</g>
<g>
</g>
<g>
</g>
<g>
</g>
<g>
</g>
<g>
</g>
<g>
</g>
<g>
</g>
<g>
</g>
<g>
</g>
<g>
</g>
<g>
</g>
<g>
</g>
<g>
</g>
</svg>
