<?xml version="1.0" encoding="iso-8859-1"?>
<!-- Generator: Adobe Illustrator 19.0.0, SVG Export Plug-In . SVG Version: 6.00 Build 0)  -->
<svg version="1.1" id="Capa_1" xmlns="http://www.w3.org/2000/svg" xmlns:xlink="http://www.w3.org/1999/xlink" x="0px" y="0px"
	 viewBox="0 0 436.907 436.907" style="enable-background:new 0 0 436.907 436.907;" xml:space="preserve">
<g>
	<g>
		<path d="M208.211,46.667l-6.827-40.96C200.838,2.413,197.992,0,194.652,0h-61.44c-3.34,0-6.187,2.413-6.733,5.707l-6.827,40.96
			c-0.333,1.98,0.227,4,1.527,5.533c1.294,1.533,3.2,2.413,5.207,2.413h75.093c2.007,0,3.913-0.881,5.204-2.413
			C207.984,50.668,208.544,48.647,208.211,46.667z M134.447,40.96l4.547-27.307h49.881l4.547,27.307H134.447z"/>
	</g>
</g>
<g>
	<g>
		<path d="M239.139,368.326l-2.374-5.12c-5.693-12.273-8.013-33.826-5.06-47.073l10.786-48.406c0.114-0.486,0.167-0.986,0.167-1.487
			V150.187c0-3.773-3.053-6.827-6.827-6.827s-6.827,3.053-6.827,6.827v115.302l-10.621,47.674
			c-3.62,16.232-0.986,40.74,5.994,55.793l2.374,5.12c5.101,10.999,1.961,27.339-6.866,35.68l-11.313,10.687
			c-1.475,1.393-5.047,2.813-7.074,2.813h-75.114c-2.026,0-5.6-1.447-7.093-2.867l-11.054-10.513
			c-8.808-8.393-11.887-24.781-6.721-35.78l2.386-5.113c7.066-15.073,9.706-39.6,6.019-55.847l-10.841-47.66V145.367l22.287-34.661
			c4.506-7.013,9.392-18.879,11.133-27.013l6.233-29.08h50.466l1.311,5.825c0.84,3.674,4.5,5.973,8.166,5.154
			c3.674-0.833,5.987-4.487,5.154-8.166l-2.521-11.146c-0.707-3.113-3.466-5.32-6.659-5.32h-61.44c-3.22,0-5.999,2.246-6.673,5.393
			l-7.386,34.48c-1.401,6.547-5.647,16.853-9.274,22.494l-23.366,36.34c-0.713,1.099-1.087,2.386-1.087,3.693v122.88
			c0,0.507,0.061,1.021,0.167,1.514l11.006,48.406c3.005,13.22,0.686,34.76-5.067,47.027l-2.386,5.113
			c-7.68,16.367-3.434,38.967,9.673,51.459l11.047,10.513c4.035,3.847,10.974,6.634,16.514,6.634h75.114
			c5.519,0,12.433-2.746,16.452-6.54l11.313-10.694C242.399,407.259,246.739,384.707,239.139,368.326z"/>
	</g>
</g>
<g>
	<g>
		<path d="M235.613,143.247c-3.773,0-6.827,3.053-6.827,6.827v109.339H99.08V150.187h123.58c3.773,0,6.827-3.053,6.827-6.827
			s-3.053-6.827-6.827-6.827H92.253c-3.773,0-6.827,3.053-6.827,6.827v122.88c0,3.773,3.053,6.827,6.827,6.827h143.36
			c3.773,0,6.827-3.053,6.827-6.827V150.074C242.44,146.301,239.387,143.247,235.613,143.247z"/>
	</g>
</g>
<g>
	<g>
		<path d="M269.66,0c-45.174,0-81.92,36.746-81.92,81.92s36.746,81.92,81.92,81.92s81.92-36.746,81.92-81.92S314.833,0,269.66,0z
			 M269.66,150.187c-37.641,0-68.267-30.626-68.267-68.267c0-37.641,30.626-68.267,68.267-68.267
			c37.641,0,68.267,30.626,68.267,68.267C337.926,119.561,307.3,150.187,269.66,150.187z"/>
	</g>
</g>
<g>
	<g>
		<g>
			<path d="M269.9,100.907c-3.081,0-5.446,0.746-7.1,2.246c-1.654,1.5-2.48,3.906-2.48,7.214c0,3.273,0.826,5.687,2.48,7.24
				c1.654,1.553,4.019,2.34,7.1,2.34c3,0,5.326-0.787,6.98-2.34c1.654-1.553,2.48-3.966,2.48-7.24c0-3.307-0.78-5.714-2.34-7.214
				C275.467,101.654,273.087,100.907,269.9,100.907z"/>
			<path d="M294.526,52.183c-1.12-2.906-2.773-5.407-4.96-7.506c-2.193-2.092-4.932-3.726-8.226-4.9
				c-3.287-1.172-7.107-1.76-11.447-1.76c-3.847,0-7.153,0.445-9.926,1.326c-2.766,0.879-5.113,2.039-7.04,3.459
				c-1.92,1.42-3.48,3.021-4.673,4.794c-1.193,1.766-2.113,3.533-2.767,5.306c-0.652,1.768-1.092,3.441-1.326,5.014
				c-0.234,1.58-0.346,2.867-0.346,3.867c0,2.273,0.807,4.127,2.42,5.574c1.62,1.44,3.734,2.161,6.347,2.161
				c0.846,0,1.78-0.152,2.801-0.466c1.019-0.307,1.959-0.787,2.826-1.44c0.867-0.654,1.587-1.507,2.167-2.56
				c0.573-1.067,0.867-2.34,0.867-3.84c0-0.92,0.078-1.893,0.253-2.92c0.174-1.014,0.56-1.947,1.161-2.794
				c0.592-0.846,1.466-1.546,2.62-2.106c1.154-0.553,2.693-0.833,4.62-0.833c0.725,0,1.62,0.067,2.68,0.2
				c1.06,0.133,2.08,0.48,3.06,1.039c0.98,0.56,1.806,1.413,2.48,2.567c0.674,1.154,1.007,2.727,1.007,4.727
				c0,1.927-0.439,3.533-1.326,4.82c-0.888,1.287-2,2.454-3.347,3.487c-1.347,1.041-2.787,2.041-4.326,3
				c-1.539,0.966-2.98,2.092-4.326,3.379c-1.347,1.287-2.461,2.821-3.347,4.588s-1.326,3.959-1.326,6.579
				c0,0.727,0.126,1.533,0.374,2.42c0.253,0.886,0.693,1.714,1.326,2.48c0.64,0.766,1.487,1.413,2.54,1.934
				c1.06,0.521,2.413,0.78,4.067,0.78c2.732,0,4.739-0.674,6.033-2.021c1.287-1.347,1.934-3.06,1.934-5.141
				c0-0.8,0.154-1.521,0.461-2.161c0.307-0.633,0.573-1.106,0.807-1.413c0.541-0.732,1.353-1.507,2.454-2.333
				c1.094-0.826,2.287-1.72,3.574-2.686c1.294-0.959,2.62-2.019,3.98-3.166c1.367-1.159,2.608-2.427,3.727-3.813
				c1.113-1.388,2.026-2.906,2.739-4.56c0.707-1.654,1.067-3.48,1.067-5.48C296.207,58.293,295.647,55.086,294.526,52.183z"/>
		</g>
	</g>
</g>
<g>
</g>
<g>
</g>
<g>
</g>
<g>
</g>
<g>
</g>
<g>
</g>
<g>
</g>
<g>
</g>
<g>
</g>
<g>
</g>
<g>
</g>
<g>
</g>
<g>
</g>
<g>
</g>
<g>
</g>
</svg>
