<?xml version="1.0" encoding="iso-8859-1"?>
<!-- Generator: Adobe Illustrator 19.0.0, SVG Export Plug-In . SVG Version: 6.00 Build 0)  -->
<svg version="1.1" id="Capa_1" xmlns="http://www.w3.org/2000/svg" xmlns:xlink="http://www.w3.org/1999/xlink" x="0px" y="0px"
	 viewBox="0 0 436.907 436.907" style="enable-background:new 0 0 436.907 436.907;" xml:space="preserve">
<g>
	<g>
		<path d="M208.211,46.667l-6.827-40.96C200.838,2.413,197.992,0,194.652,0h-61.44c-3.34,0-6.187,2.413-6.733,5.707l-6.827,40.96
			c-0.333,1.98,0.227,4,1.527,5.533c1.294,1.533,3.2,2.413,5.207,2.413h75.093c2.007,0,3.913-0.881,5.204-2.413
			C207.984,50.668,208.544,48.647,208.211,46.667z M134.447,40.96l4.547-27.307h49.881l4.547,27.307H134.447z"/>
	</g>
</g>
<g>
	<g>
		<path d="M239.139,368.326l-2.374-5.12c-5.693-12.273-8.013-33.826-5.06-47.073l10.786-48.406c0.114-0.486,0.167-0.986,0.167-1.487
			V150.187c0-3.773-3.053-6.827-6.827-6.827s-6.827,3.053-6.827,6.827v115.302l-10.621,47.674
			c-3.62,16.232-0.986,40.74,5.994,55.793l2.374,5.12c5.101,10.999,1.961,27.339-6.866,35.68l-11.313,10.687
			c-1.475,1.393-5.047,2.813-7.074,2.813h-75.114c-2.026,0-5.6-1.447-7.093-2.867l-11.054-10.513
			c-8.808-8.393-11.887-24.781-6.721-35.78l2.386-5.113c7.066-15.073,9.706-39.6,6.019-55.847l-10.841-47.66V145.367l22.287-34.661
			c4.506-7.013,9.392-18.879,11.133-27.013l6.233-29.08h50.459l1.739,7.707c0.826,3.686,4.494,5.973,8.16,5.159
			c3.68-0.833,5.985-4.487,5.159-8.16l-2.941-13.034c-0.7-3.113-3.466-5.327-6.659-5.327h-61.44c-3.22,0-5.999,2.246-6.673,5.393
			l-7.386,34.48c-1.401,6.547-5.647,16.853-9.274,22.494l-23.366,36.34c-0.713,1.099-1.087,2.386-1.087,3.693v122.88
			c0,0.507,0.061,1.021,0.167,1.514l11.006,48.406c3.005,13.22,0.686,34.76-5.067,47.027l-2.386,5.113
			c-7.68,16.367-3.434,38.967,9.673,51.459l11.047,10.513c4.035,3.847,10.974,6.634,16.514,6.634h75.114
			c5.519,0,12.433-2.746,16.452-6.54l11.313-10.694C242.399,407.259,246.739,384.707,239.139,368.326z"/>
	</g>
</g>
<g>
	<g>
		<path d="M235.613,144.427c-1.879,0-3.579,0.759-4.813,1.98c0.461-0.913,0.72-1.952,0.72-3.046c0-3.773-3.053-6.827-6.827-6.827
			H92.253c-3.773,0-6.827,3.053-6.827,6.827v122.88c0,3.773,3.053,6.827,6.827,6.827h143.36c3.773,0,6.827-3.053,6.827-6.827
			V151.253C242.44,147.48,239.387,144.427,235.613,144.427z M228.787,151.253v108.16H99.08V150.187h125.614
			c1.879,0,3.579-0.759,4.813-1.98C229.046,149.12,228.787,150.159,228.787,151.253z"/>
	</g>
</g>
<g>
	<g>
		<path d="M269.66,0c-45.174,0-81.92,36.746-81.92,81.92s36.746,81.92,81.92,81.92s81.92-36.746,81.92-81.92S314.833,0,269.66,0z
			 M269.66,150.187c-37.641,0-68.267-30.626-68.267-68.267c0-37.641,30.626-68.267,68.267-68.267
			c37.641,0,68.267,30.626,68.267,68.267C337.926,119.561,307.3,150.187,269.66,150.187z"/>
	</g>
</g>
<g>
	<g>
		<g>
			<path d="M276.35,47.479c-0.246-1.533-0.72-2.913-1.413-4.12c-0.695-1.213-1.654-2.2-2.881-2.947
				c-1.234-0.746-2.828-1.12-4.794-1.12c-1.959,0-3.567,0.36-4.813,1.094c-1.253,0.734-2.22,1.695-2.913,2.881
				c-0.695,1.2-1.174,2.56-1.447,4.099c-0.266,1.541-0.399,3.115-0.399,4.727v14.08l3,18.693c0,1.227,0.067,2.427,0.2,3.574
				c0.133,1.159,0.432,2.186,0.893,3.092c0.461,0.899,1.126,1.626,1.993,2.186c0.867,0.56,2.028,0.84,3.487,0.84
				c1.466,0,2.627-0.28,3.494-0.84c0.867-0.56,1.526-1.287,1.987-2.186c0.466-0.906,0.759-1.932,0.899-3.092
				c0.133-1.147,0.2-2.347,0.2-3.574l2.889-18.47V52.212C276.73,50.599,276.602,49.019,276.35,47.479z"/>
			<path d="M267.26,101.019c-3.074,0-5.439,0.753-7.093,2.246c-1.654,1.507-2.48,3.907-2.48,7.214c0,3.267,0.828,5.68,2.48,7.24
				c1.652,1.56,4.019,2.34,7.093,2.34c3,0,5.327-0.78,6.98-2.34s2.487-3.973,2.487-7.24c0-3.306-0.78-5.705-2.34-7.214
				C272.827,101.772,270.453,101.019,267.26,101.019z"/>
		</g>
	</g>
</g>
<g>
</g>
<g>
</g>
<g>
</g>
<g>
</g>
<g>
</g>
<g>
</g>
<g>
</g>
<g>
</g>
<g>
</g>
<g>
</g>
<g>
</g>
<g>
</g>
<g>
</g>
<g>
</g>
<g>
</g>
</svg>
