<?xml version="1.0" encoding="iso-8859-1"?>
<!-- Generator: Adobe Illustrator 19.0.0, SVG Export Plug-In . SVG Version: 6.00 Build 0)  -->
<svg version="1.1" id="Capa_1" xmlns="http://www.w3.org/2000/svg" xmlns:xlink="http://www.w3.org/1999/xlink" x="0px" y="0px"
	 viewBox="0 0 423.253 423.253" style="enable-background:new 0 0 423.253 423.253;" xml:space="preserve">
<g>
	<g>
		<path d="M395.947,78.507H27.307C12.25,78.507,0,90.754,0,105.813c0,15.06,12.25,27.307,27.307,27.307h368.64
			c15.056,0,27.307-12.247,27.307-27.307C423.253,90.754,411.003,78.507,395.947,78.507z M395.947,119.467H27.307
			c-7.53,0-13.653-6.127-13.653-13.653c0-7.526,6.124-13.653,13.653-13.653h368.64c7.53,0,13.653,6.127,13.653,13.653
			C409.6,113.34,403.476,119.467,395.947,119.467z"/>
	</g>
</g>
<g>
	<g>
		<path d="M225.28,119.467h-27.307c-3.77,0-6.827,3.053-6.827,6.827V317.44c0,3.773,3.057,6.827,6.827,6.827h27.307
			c3.77,0,6.827-3.053,6.827-6.827V126.293C232.107,122.52,229.05,119.467,225.28,119.467z M218.453,310.613H204.8V133.12h13.653
			V310.613z"/>
	</g>
</g>
<g>
	<g>
		<path d="M273.067,310.613h-122.88c-3.77,0-6.827,3.053-6.827,6.827v20.48c0,3.773,3.057,6.827,6.827,6.827h122.88
			c3.77,0,6.827-3.053,6.827-6.827v-20.48C279.893,313.667,276.837,310.613,273.067,310.613z M266.24,331.093H157.013v-6.827H266.24
			V331.093z"/>
	</g>
</g>
<g>
	<g>
		<path d="M402.773,331.093H20.48c-3.77,0-6.827,3.053-6.827,6.827s3.057,6.827,6.827,6.827h382.293c3.77,0,6.827-3.053,6.827-6.827
			S406.543,331.093,402.773,331.093z"/>
	</g>
</g>
<g>
</g>
<g>
</g>
<g>
</g>
<g>
</g>
<g>
</g>
<g>
</g>
<g>
</g>
<g>
</g>
<g>
</g>
<g>
</g>
<g>
</g>
<g>
</g>
<g>
</g>
<g>
</g>
<g>
</g>
</svg>
