<?xml version="1.0" encoding="iso-8859-1"?>
<!-- Generator: Adobe Illustrator 19.0.0, SVG Export Plug-In . SVG Version: 6.00 Build 0)  -->
<svg version="1.1" id="Capa_1" xmlns="http://www.w3.org/2000/svg" xmlns:xlink="http://www.w3.org/1999/xlink" x="0px" y="0px"
	 viewBox="0 0 416.427 416.427" style="enable-background:new 0 0 416.427 416.427;" xml:space="preserve">
<g>
	<g>
		<path d="M211.627,334.507H27.307c-3.77,0-6.827,3.053-6.827,6.827v20.48c0,3.773,3.057,6.827,6.827,6.827h184.32
			c3.773,0,6.827-3.053,6.827-6.827v-20.48C218.453,337.56,215.4,334.507,211.627,334.507z M204.8,354.987H34.133v-6.827H204.8
			V354.987z"/>
	</g>
</g>
<g>
	<g>
		<path d="M232.107,354.987H6.827c-3.77,0-6.827,3.053-6.827,6.827s3.057,6.827,6.827,6.827h225.28c3.773,0,6.827-3.053,6.827-6.827
			S235.88,354.987,232.107,354.987z"/>
	</g>
</g>
<g>
	<g>
		<path d="M54.613,266.24c-18.84,0-27.307,37.987-27.307,47.787c0,15.06,12.25,27.307,27.307,27.307s27.307-12.247,27.307-27.307
			C81.92,304.227,73.453,266.24,54.613,266.24z M54.613,327.68c-7.53,0-13.653-6.127-13.653-13.653
			c0-11.327,8.827-33.34,13.617-34.133c4.862,0.794,13.689,22.806,13.689,34.133C68.267,321.553,62.143,327.68,54.613,327.68z"/>
	</g>
</g>
<g>
	<g>
		<path d="M184.32,266.24c-18.84,0-27.307,37.987-27.307,47.787c0,15.06,12.25,27.307,27.307,27.307
			c15.06,0,27.307-12.247,27.307-27.307C211.627,304.227,203.16,266.24,184.32,266.24z M184.32,327.68
			c-7.53,0-13.653-6.127-13.653-13.653c0-11.327,8.825-33.34,13.619-34.133c4.861,0.794,13.688,22.799,13.688,34.133
			C197.973,321.553,191.846,327.68,184.32,327.68z"/>
	</g>
</g>
<g>
	<g>
		<path d="M119.467,252.587c-19.823,0-30.72,42.726-30.72,56.887c0,17.567,13.78,31.86,30.72,31.86s30.72-14.293,30.72-31.86
			C150.187,295.313,139.29,252.587,119.467,252.587z M119.467,327.68c-9.411,0-17.067-8.166-17.067-18.207
			c0-16.094,11.633-43.233,17.067-43.233s17.067,27.139,17.067,43.233C136.533,319.514,128.877,327.68,119.467,327.68z"/>
	</g>
</g>
<g>
	<g>
		<path d="M211.627,47.787H27.307c-3.77,0-6.827,3.053-6.827,6.827v92.16c0,54.579,44.407,98.987,98.987,98.987
			c54.579,0,98.987-44.407,98.987-98.987v-92.16C218.453,50.84,215.4,47.787,211.627,47.787z M204.8,146.773
			c0,47.053-38.281,85.333-85.333,85.333s-85.333-38.281-85.333-85.333V61.44H204.8V146.773z"/>
	</g>
</g>
<g>
	<g>
		<path d="M279.893,68.267h-68.267c-3.773,0-6.827,3.053-6.827,6.827v20.48c0,3.773,3.053,6.827,6.827,6.827h68.267
			c3.773,0,6.827-3.053,6.827-6.827v-20.48C286.72,71.32,283.667,68.267,279.893,68.267z M273.067,88.747h-54.613V81.92h54.613
			V88.747z"/>
	</g>
</g>
<g>
	<g>
		<path d="M392.533,61.44h-112.64c-3.773,0-6.827,3.053-6.827,6.827V102.4c0,3.773,3.053,6.827,6.827,6.827h112.64
			c13.174,0,23.893-10.72,23.893-23.893S405.707,61.44,392.533,61.44z M392.533,95.573H286.72v-20.48h105.813
			c5.647,0,10.24,4.593,10.24,10.24S398.181,95.573,392.533,95.573z"/>
	</g>
</g>
<g>
	<g>
		<path d="M54.613,75.093c-3.77,0-6.827,3.053-6.827,6.827v47.787c0,3.773,3.057,6.827,6.827,6.827s6.827-3.053,6.827-6.827V81.92
			C61.44,78.147,58.383,75.093,54.613,75.093z"/>
	</g>
</g>
<g>
</g>
<g>
</g>
<g>
</g>
<g>
</g>
<g>
</g>
<g>
</g>
<g>
</g>
<g>
</g>
<g>
</g>
<g>
</g>
<g>
</g>
<g>
</g>
<g>
</g>
<g>
</g>
<g>
</g>
</svg>
