<?xml version="1.0" encoding="iso-8859-1"?>
<!-- Generator: Adobe Illustrator 19.0.0, SVG Export Plug-In . SVG Version: 6.00 Build 0)  -->
<svg version="1.1" id="Capa_1" xmlns="http://www.w3.org/2000/svg" xmlns:xlink="http://www.w3.org/1999/xlink" x="0px" y="0px"
	 viewBox="0 0 373.514 373.514" style="enable-background:new 0 0 373.514 373.514;" xml:space="preserve">
<g>
	<g>
		<path d="M360.837,332.554H26.33c-3.77,0-6.827,3.053-6.827,6.827v27.307c0,3.773,3.057,6.827,6.827,6.827h334.507
			c3.77,0,6.827-3.053,6.827-6.827v-27.307C367.664,335.608,364.607,332.554,360.837,332.554z M354.01,359.861H33.157v-13.653
			H354.01V359.861z"/>
	</g>
</g>
<g>
	<g>
		<path d="M313.05,120.928h-88.03c-3.77,0-6.827,3.053-6.827,6.827c0,3.773,3.057,6.827,6.827,6.827h81.203v98.987
			c0,54.579-44.407,98.987-98.987,98.987h-20.48c-54.579,0-98.987-44.407-98.987-98.987v-98.987h77.524
			c3.77,0,6.827-3.053,6.827-6.827c0-3.773-3.057-6.827-6.827-6.827h-84.35c-3.77,0-6.827,3.053-6.827,6.827v105.813
			c0,62.107,50.529,112.64,112.64,112.64h20.48c62.111,0,112.64-50.534,112.64-112.64V127.754
			C319.877,123.981,316.82,120.928,313.05,120.928z"/>
	</g>
</g>
<g>
	<g>
		<path d="M281.46,31.06c-6.487-16.48-20.62-27.513-37.816-29.513c-1.833-0.213-3.703-0.333-5.6-0.367
			C222.672,1,208.148,7.12,197.678,17.993C187.529,6.813,173.179,0.227,157.805,0c-1.906,0.021-3.756,0.053-5.6,0.207
			C134.967,1.7,120.516,12.314,113.55,28.593c-7.296,17.053-4.7,36.533,6.77,50.84l69.914,87.2c1.273,1.587,3.19,2.519,5.226,2.553
			c0.034,0,0.067,0,0.101,0c2,0,3.9-0.881,5.197-2.401l72.439-85.106C285.083,67.714,288.251,48.319,281.46,31.06z M262.806,72.825
			l-67.087,78.814l-64.744-80.753c-8.315-10.366-10.18-24.513-4.871-36.92c4.949-11.573,15.15-19.106,27.279-20.159
			c1.23-0.107,2.47-0.16,3.714-0.16c0.174,0,0.35,0.007,0.529,0.005c13.86,0.206,26.631,7.308,34.157,19.007
			c1.237,1.927,3.354,3.099,5.641,3.133c2.417,0.167,4.436-1.08,5.729-2.966c7.863-11.474,20.826-18.413,34.686-17.993
			c1.432,0.021,2.85,0.113,4.236,0.273c12.1,1.406,22.077,9.24,26.684,20.953C273.703,48.618,271.423,62.705,262.806,72.825z"/>
	</g>
</g>
<g>
	<g>
		<path d="M80.944,120.928H12.677c-3.77,0-6.827,3.053-6.827,6.827v20.48c0,41.407,33.686,75.093,75.093,75.093
			c3.77,0,6.827-3.053,6.827-6.827v-88.747C87.77,123.981,84.714,120.928,80.944,120.928z M74.117,209.294
			c-30.677-3.407-54.613-29.486-54.613-61.059v-13.653h54.613V209.294z"/>
	</g>
</g>
<g>
	<g>
		<path d="M196.997,312.074c-48.937,0-88.747-39.813-88.747-88.747c0-3.773-3.057-6.827-6.827-6.827s-6.827,3.053-6.827,6.827
			c0,56.467,45.937,102.4,102.4,102.4c3.77,0,6.827-3.053,6.827-6.827S200.767,312.074,196.997,312.074z"/>
	</g>
</g>
<g>
</g>
<g>
</g>
<g>
</g>
<g>
</g>
<g>
</g>
<g>
</g>
<g>
</g>
<g>
</g>
<g>
</g>
<g>
</g>
<g>
</g>
<g>
</g>
<g>
</g>
<g>
</g>
<g>
</g>
</svg>
