<?xml version="1.0" encoding="iso-8859-1"?>
<!-- Generator: Adobe Illustrator 19.0.0, SVG Export Plug-In . SVG Version: 6.00 Build 0)  -->
<svg version="1.1" id="Capa_1" xmlns="http://www.w3.org/2000/svg" xmlns:xlink="http://www.w3.org/1999/xlink" x="0px" y="0px"
	 viewBox="0 0 395.827 395.827" style="enable-background:new 0 0 395.827 395.827;" xml:space="preserve">
<g>
	<g>
		<path d="M158.984,2.699c-8.474-2.925-15.543-1.707-22.386-0.539c-3.64,0.626-7.407,1.273-11.477,1.273
			c-3.528,0-7.738-0.766-12.194-1.58c-7.88-1.434-16.022-2.92-23.363-0.78C39.16,15.687,9.067,62.506,9.067,126.313
			c0,87.281,52.637,163.84,112.64,163.84c13.413,0,26.609-3.686,39.229-10.96c3.267-1.881,4.388-6.054,2.504-9.32
			c-1.888-3.273-6.054-4.4-9.323-2.507c-10.516,6.06-21.42,9.134-32.41,9.134c-51.806,0-98.987-71.586-98.987-150.187
			c0-57.387,26.411-99.299,70.647-112.133c4.253-1.22,10.8-0.048,17.113,1.106c4.857,0.888,9.883,1.801,14.64,1.801
			c5.233,0,9.776-0.78,13.783-1.466c5.849-1,10.472-1.794,15.626-0.014c41.431,14.293,66.164,55.68,66.164,110.706
			c0,3.773,3.057,6.827,6.827,6.827c3.77,0,6.827-3.053,6.827-6.827C234.347,65.192,206.173,18.979,158.984,2.699z"/>
	</g>
</g>
<g>
	<g>
		<path d="M144.451,102.046c-14.31-21.46-30.684-70.781-14.507-86.96c2.666-2.666,2.666-6.987,0-9.653
			c-2.666-2.666-6.987-2.666-9.653,0c-24.214,24.214-0.969,83.528,12.8,104.187c12.317,18.473,11.58,56.979-13.653,94.826
			c-17,25.499-14.601,55.446-9.59,76.08c0.758,3.127,3.55,5.221,6.627,5.221c0.534,0,1.077-0.06,1.616-0.193
			c3.663-0.886,5.912-4.579,5.023-8.24c-4.364-17.987-6.574-43.907,7.683-65.294C160.675,167.207,158.818,123.6,144.451,102.046z"/>
	</g>
</g>
<g>
	<g>
		<path d="M345.003,130.725c-7.129-5.425-14.23-6.485-21.096-7.506c-3.652-0.546-7.429-1.113-11.296-2.386
			c-3.347-1.099-7.11-3.145-11.09-5.313c-7.03-3.826-14.297-7.781-21.946-8.054c-52.326-2.161-95.671,33.186-115.627,93.787
			c-12.466,37.854-14.116,80.259-4.519,116.347c10.267,38.625,31.667,65.085,60.257,74.499c7.576,2.493,15.454,3.727,23.526,3.727
			c22.393,0,46.269-9.494,69.207-27.849c29.164-23.32,53.036-58.412,65.5-96.266C397.04,213.659,384.733,160.959,345.003,130.725z
			 M364.954,267.446c-11.66,35.4-33.913,68.159-61.059,89.873c-27.491,21.992-55.883,29.72-79.94,21.806
			c-24.061-7.919-42.289-31.012-51.333-65.033c-8.929-33.592-7.366-73.166,4.294-108.573c17.504-53.147,54.25-84.473,98.749-84.473
			c1.135,0,2.277,0.021,3.422,0.06c4.436,0.16,10.269,3.333,15.91,6.407c4.34,2.36,8.827,4.801,13.35,6.294
			c4.97,1.633,9.527,2.313,13.549,2.913c5.866,0.872,10.499,1.565,14.843,4.872C371.617,168.134,382.164,215.179,364.954,267.446z"
			/>
	</g>
</g>
<g>
	<g>
		<path d="M316.574,124.247c-1.7-3.367-5.816-4.734-9.167-3.021c-30.577,15.427-27.054,79.032-20.434,102.96
			c5.919,21.4-6.825,57.74-42.631,85.799c-24.117,18.9-31.206,48.101-32.906,69.267c-0.304,3.761,2.5,7.047,6.257,7.354
			c0.186,0.014,0.37,0.02,0.553,0.02c3.523,0,6.509-2.707,6.798-6.279c1.483-18.447,7.496-43.767,27.72-59.614
			c42.397-33.227,54.274-75.226,47.37-100.186c-6.881-24.861-7.011-76.827,13.419-87.134
			C316.92,131.72,318.274,127.614,316.574,124.247z"/>
	</g>
</g>
<g>
</g>
<g>
</g>
<g>
</g>
<g>
</g>
<g>
</g>
<g>
</g>
<g>
</g>
<g>
</g>
<g>
</g>
<g>
</g>
<g>
</g>
<g>
</g>
<g>
</g>
<g>
</g>
<g>
</g>
</svg>
