<?xml version="1.0" encoding="iso-8859-1"?>
<!-- Generator: Adobe Illustrator 19.0.0, SVG Export Plug-In . SVG Version: 6.00 Build 0)  -->
<svg version="1.1" id="Capa_1" xmlns="http://www.w3.org/2000/svg" xmlns:xlink="http://www.w3.org/1999/xlink" x="0px" y="0px"
	 viewBox="0 0 423.256 423.256" style="enable-background:new 0 0 423.256 423.256;" xml:space="preserve">
<g>
	<g>
		<path d="M211.629,225.282c-3.77,0-6.827,3.053-6.827,6.827v184.32c0,3.773,3.057,6.827,6.827,6.827s6.827-3.055,6.827-6.827
			v-184.32C218.455,228.336,215.399,225.282,211.629,225.282z"/>
	</g>
</g>
<g>
	<g>
		<path d="M252.589,409.602h-81.92c-3.77,0-6.827,3.053-6.827,6.827s3.057,6.827,6.827,6.827h81.92c3.77,0,6.827-3.053,6.827-6.827
			S256.359,409.602,252.589,409.602z"/>
	</g>
</g>
<g>
	<g>
		<path d="M359.67,58.483c-1.137-2.36-3.529-3.867-6.153-3.867H69.738c-2.623,0-5.016,1.507-6.153,3.867
			c-1.137,2.365-0.818,5.173,0.819,7.219l141.891,177.493c1.297,1.62,3.26,2.567,5.333,2.567s4.036-0.947,5.332-2.567
			L358.851,65.702C360.488,63.656,360.807,60.85,359.67,58.483z M211.629,228.001L83.936,68.269v-0.002h255.386L211.629,228.001z"/>
	</g>
</g>
<g>
	<g>
		<path d="M359.67,58.483c-1.137-2.36-3.529-3.867-6.153-3.867H69.738c-2.623,0-5.016,1.507-6.153,3.867
			c-1.137,2.365-0.818,5.173,0.819,7.219l60.03,75.093c1.297,1.62,3.26,2.567,5.333,2.567h163.721c2.074,0,4.036-0.947,5.332-2.567
			l60.03-75.093C360.488,63.656,360.807,60.85,359.67,58.483z M290.205,129.709H133.052l-49.116-61.44h255.386L290.205,129.709z"/>
	</g>
</g>
<g>
	<g>
		<path d="M232.109,88.749c-26.349,0-47.787,21.439-47.787,47.787c0,3.773,3.057,6.827,6.827,6.827h81.92
			c3.77,0,6.827-3.055,6.827-6.827C279.895,110.188,258.458,88.749,232.109,88.749z M198.661,129.709
			c3.171-15.561,16.961-27.307,33.446-27.307s30.278,11.747,33.447,27.307H198.661z"/>
	</g>
</g>
<g>
	<g>
		<path d="M179.791,34.535L84.218,0.402c-3.546-1.273-7.456,0.58-8.726,4.134c-1.266,3.546,0.584,7.453,4.134,8.719l91.044,32.521
			v90.761c0,3.773,3.057,6.827,6.827,6.827c3.77,0,6.827-3.055,6.825-6.827V40.962C184.32,38.075,182.508,35.501,179.791,34.535z"/>
	</g>
</g>
<g>
</g>
<g>
</g>
<g>
</g>
<g>
</g>
<g>
</g>
<g>
</g>
<g>
</g>
<g>
</g>
<g>
</g>
<g>
</g>
<g>
</g>
<g>
</g>
<g>
</g>
<g>
</g>
<g>
</g>
</svg>
