<?xml version="1.0" encoding="iso-8859-1"?>
<!-- Generator: Adobe Illustrator 19.0.0, SVG Export Plug-In . SVG Version: 6.00 Build 0)  -->
<svg version="1.1" id="Capa_1" xmlns="http://www.w3.org/2000/svg" xmlns:xlink="http://www.w3.org/1999/xlink" x="0px" y="0px"
	 viewBox="0 0 436.907 436.907" style="enable-background:new 0 0 436.907 436.907;" xml:space="preserve">
<g>
	<g>
		<path d="M412.877,208.213H24.03c-13.251,0-24.03,10.779-24.03,24.03v153.464h436.907V232.243
			C436.907,218.993,426.127,208.213,412.877,208.213z M423.253,372.053h-409.6v-139.81c0-5.722,4.652-10.377,10.377-10.377h388.847
			c5.722,0,10.376,4.652,10.376,10.377V372.053z"/>
	</g>
</g>
<g>
	<g>
		<path d="M136.533,180.907H47.787c-3.77,0-6.827,3.057-6.827,6.827v27.307c0,3.77,3.057,6.827,6.827,6.827h88.747
			c3.77,0,6.827-3.057,6.827-6.827v-27.307C143.36,183.963,140.303,180.907,136.533,180.907z M129.707,208.213H54.613V194.56h75.093
			V208.213z"/>
	</g>
</g>
<g>
	<g>
		<path d="M389.12,180.907h-88.747c-3.77,0-6.827,3.057-6.827,6.827v27.307c0,3.77,3.057,6.827,6.827,6.827h88.747
			c3.77,0,6.827-3.057,6.827-6.827v-27.307C395.947,183.963,392.89,180.907,389.12,180.907z M382.293,208.213H307.2V194.56h75.093
			V208.213z"/>
	</g>
</g>
<g>
	<g>
		<path d="M352.085,182.021L242.212,60.477c-2.522-2.797-6.842-3.019-9.639-0.486c-2.797,2.526-3.016,6.842-0.486,9.639
			L341.96,191.174c1.347,1.493,3.203,2.249,5.067,2.249c1.63,0,3.27-0.584,4.572-1.763
			C354.396,189.135,354.615,184.818,352.085,182.021z"/>
	</g>
</g>
<g>
	<g>
		<path d="M204.332,59.991c-2.789-2.54-7.113-2.311-9.639,0.486L84.82,182.021c-2.531,2.796-2.311,7.113,0.486,9.639
			c1.304,1.183,2.944,1.763,4.574,1.763c1.864,0,3.721-0.756,5.065-2.249L204.819,69.63C207.35,66.835,207.13,62.517,204.332,59.991
			z"/>
	</g>
</g>
<g>
	<g>
		<path d="M218.453,23.893c-15.056,0-27.307,12.25-27.307,27.307s12.25,27.307,27.307,27.307S245.76,66.256,245.76,51.2
			S233.51,23.893,218.453,23.893z M218.453,64.853c-7.53,0-13.653-6.124-13.653-13.653c0-7.53,6.124-13.653,13.653-13.653
			c7.53,0,13.653,6.124,13.653,13.653C232.107,58.73,225.983,64.853,218.453,64.853z"/>
	</g>
</g>
<g>
	<g>
		<path d="M430.08,372.053H6.827c-3.77,0-6.827,3.057-6.827,6.827v27.307c0,3.77,3.057,6.827,6.827,6.827H430.08
			c3.77,0,6.827-3.057,6.827-6.827V378.88C436.907,375.11,433.85,372.053,430.08,372.053z M423.253,399.36h-409.6v-13.653h409.6
			V399.36z"/>
	</g>
</g>
<g>
	<g>
		<path d="M122.96,303.648c-0.399-0.468-1.033-0.881-1.899-1.241c-0.867-0.36-2.099-0.539-3.7-0.539s-2.867,0.121-3.801,0.36
			c-0.934,0.239-1.64,0.539-2.12,0.899s-0.787,0.753-0.92,1.179c-0.133,0.427-0.2,0.841-0.2,1.241c0,1.253-0.085,2.452-0.259,3.599
			c-0.174,1.147-0.486,2.161-0.94,3.04c-0.454,0.879-1.08,1.579-1.881,2.099c-0.8,0.521-1.828,0.78-3.081,0.78
			c-1.307,0-2.314-0.319-3.021-0.959c-0.707-0.64-1.219-1.347-1.539-2.12c-0.374-0.881-0.587-1.906-0.64-3.081v-25.363
			c0.053-0.959,0.266-1.826,0.64-2.599c0.319-0.64,0.831-1.234,1.539-1.78c0.708-0.546,1.714-0.819,3.021-0.819
			c1.254,0,2.28,0.213,3.081,0.64c0.8,0.427,1.427,1.039,1.881,1.84c0.454,0.8,0.768,1.775,0.94,2.92
			c0.172,1.145,0.259,2.439,0.259,3.879c0,0.934,0.266,1.659,0.8,2.179c0.534,0.521,1.174,0.92,1.92,1.2
			c0.746,0.28,1.519,0.454,2.319,0.521s1.468,0.101,2,0.101c1.601,0,2.833-0.186,3.7-0.56c0.867-0.374,1.5-0.826,1.9-1.36
			c0.399-0.534,0.633-1.089,0.7-1.661c0.067-0.572,0.101-1.06,0.101-1.459c0-0.934-0.073-2.039-0.22-3.319
			c-0.147-1.28-0.452-2.615-0.92-4c-0.468-1.386-1.14-2.753-2.021-4.099c-0.881-1.347-2.046-2.553-3.5-3.62
			c-1.454-1.067-3.241-1.932-5.361-2.599s-4.646-1-7.579-1c-3.494,0.186-6.6,0.92-9.317,2.205c-1.174,0.56-2.321,1.26-3.441,2.099
			c-1.12,0.84-2.115,1.881-2.98,3.12s-1.565,2.7-2.099,4.379c-0.534,1.679-0.8,3.613-0.8,5.799v22.32
			c0,2.667,0.372,4.927,1.12,6.781c0.748,1.853,1.7,3.401,2.86,4.64c1.161,1.239,2.447,2.207,3.86,2.9s2.787,1.213,4.12,1.56
			c1.333,0.346,2.54,0.56,3.62,0.64c1.08,0.08,1.86,0.12,2.34,0.12c2.987,0,5.726-0.418,8.219-1.26
			c2.493-0.841,4.64-2.06,6.439-3.661c1.799-1.601,3.193-3.555,4.18-5.861c0.986-2.306,1.48-4.925,1.48-7.859
			c0-0.133-0.034-0.42-0.101-0.86S123.36,304.116,122.96,303.648z"/>
	</g>
</g>
<g>
	<g>
		<path d="M161.802,315.186c-0.507-0.773-1.181-1.36-2.021-1.76c-0.84-0.399-1.794-0.652-2.86-0.759
			c-1.067-0.107-2.145-0.16-3.239-0.16h-7.84v-35.04c0-1.147-0.046-2.266-0.14-3.36s-0.34-2.075-0.741-2.941
			c-0.401-0.865-1.027-1.565-1.881-2.099s-2.039-0.8-3.56-0.8c-1.413,0-2.521,0.268-3.32,0.8c-0.799,0.532-1.406,1.232-1.819,2.099
			s-0.672,1.847-0.78,2.941c-0.108,1.094-0.16,2.214-0.16,3.36h-0.002v40.88c0,1.36,0.2,2.434,0.601,3.22
			c0.401,0.787,0.981,1.381,1.741,1.78c0.76,0.399,1.686,0.652,2.78,0.76c1.094,0.107,2.347,0.16,3.76,0.16h11.36
			c1.094,0,2.174-0.055,3.241-0.16c1.067-0.106,2.019-0.36,2.86-0.759s1.514-0.993,2.021-1.78c0.507-0.787,0.759-1.86,0.759-3.22
			C162.562,317.012,162.309,315.959,161.802,315.186z"/>
	</g>
</g>
<g>
	<g>
		<path d="M204.984,277.567c-0.734-1.801-1.666-3.301-2.801-4.5s-2.401-2.14-3.801-2.819c-1.399-0.679-2.753-1.193-4.06-1.539
			c-1.307-0.346-2.493-0.56-3.56-0.64c-1.067-0.08-1.853-0.12-2.36-0.12h-1.36c-0.507,0-1.294,0.039-2.36,0.12
			c-1.067,0.08-2.26,0.294-3.581,0.64s-2.681,0.86-4.081,1.539s-2.679,1.62-3.84,2.819c-1.161,1.2-2.115,2.7-2.86,4.5
			c-0.746,1.801-1.12,3.98-1.12,6.54v23.921c0,2.64,0.372,4.881,1.12,6.721c0.747,1.84,1.7,3.372,2.86,4.599
			c1.161,1.227,2.439,2.193,3.84,2.9c1.401,0.707,2.76,1.234,4.081,1.58s2.514,0.56,3.581,0.64c1.067,0.08,1.853,0.119,2.36,0.119
			h1.36c0.507,0,1.294-0.039,2.36-0.119s2.253-0.294,3.56-0.64c1.307-0.346,2.659-0.874,4.06-1.58
			c1.401-0.707,2.668-1.674,3.801-2.9c1.133-1.225,2.067-2.758,2.801-4.599c0.734-1.842,1.101-4.081,1.101-6.721v-23.921
			C206.085,281.547,205.718,279.368,204.984,277.567z M192.959,309.547c-0.078,0.986-0.305,1.852-0.679,2.599
			c-0.346,0.667-0.867,1.266-1.56,1.801c-0.693,0.534-1.679,0.8-2.959,0.8c-1.307,0-2.314-0.266-3.021-0.8s-1.234-1.133-1.58-1.801
			c-0.399-0.746-0.626-1.613-0.679-2.599v-26.08c0.053-0.959,0.28-1.826,0.679-2.599c0.346-0.64,0.872-1.234,1.58-1.78
			c0.708-0.546,1.714-0.819,3.021-0.819c1.28,0,2.266,0.273,2.959,0.819c0.693,0.546,1.213,1.14,1.56,1.78
			c0.372,0.773,0.599,1.64,0.679,2.599V309.547z"/>
	</g>
</g>
<g>
	<g>
		<path d="M247.118,302.986c-0.64-1.573-1.481-2.985-2.521-4.239s-2.214-2.374-3.519-3.36s-2.647-1.9-4.019-2.739
			c-1.372-0.84-2.712-1.64-4.019-2.4c-1.307-0.759-2.475-1.541-3.5-2.34c-1.026-0.799-1.853-1.645-2.48-2.54
			c-0.626-0.894-0.952-1.901-0.98-3.021c0-1.36,0.147-2.41,0.454-3.157c0.307-0.748,0.72-1.301,1.241-1.661
			c0.521-0.36,1.121-0.58,1.801-0.661c0.679-0.08,1.379-0.119,2.099-0.119c1.519,0,2.673,0.427,3.459,1.28
			c0.787,0.853,1.179,2.374,1.179,4.56c0,0.534,0.159,1.06,0.48,1.58c0.321,0.521,0.734,0.981,1.241,1.381
			c0.507,0.399,1.08,0.725,1.72,0.98c0.64,0.254,1.28,0.381,1.92,0.381c0.828,0,1.594-0.128,2.301-0.381
			c0.707-0.253,1.319-0.606,1.84-1.06c0.521-0.454,0.934-1.009,1.241-1.661c0.307-0.652,0.461-1.379,0.461-2.179
			c0-0.532-0.039-1.239-0.12-2.12c-0.08-0.881-0.282-1.826-0.601-2.84c-0.319-1.014-0.807-2.039-1.459-3.081
			c-0.652-1.041-1.546-1.975-2.679-2.801c-1.133-0.826-2.553-1.505-4.26-2.039c-1.707-0.534-3.785-0.8-6.24-0.8h-1.039
			c-2.693,0-5.079,0.232-7.159,0.7c-2.08,0.468-3.833,1.261-5.26,2.381c-1.427,1.12-2.505,2.625-3.239,4.519
			c-0.734,1.894-1.113,4.267-1.14,7.12v0.64c0.026,1.734,0.353,3.28,0.98,4.64c0.626,1.36,1.459,2.601,2.5,3.721
			c1.041,1.12,2.207,2.152,3.5,3.099c1.294,0.947,2.62,1.855,3.98,2.72c1.36,0.865,2.693,1.734,4,2.599
			c1.307,0.865,2.468,1.78,3.48,2.739c1.012,0.959,1.833,2,2.459,3.12c0.626,1.12,0.94,2.374,0.94,3.76c0,1.12-0.14,2.048-0.42,2.78
			c-0.28,0.732-0.659,1.319-1.14,1.76s-1.06,0.746-1.741,0.92s-1.42,0.273-2.22,0.3c-1.599,0-2.826-0.369-3.68-1.101
			c-0.853-0.732-1.307-2.099-1.36-4.099c-0.026-0.908-0.234-1.702-0.62-2.381s-0.879-1.239-1.48-1.679
			c-0.601-0.44-1.266-0.765-2-0.98c-0.734-0.215-1.447-0.321-2.14-0.321c-0.747,0-1.459,0.108-2.14,0.321
			c-0.681,0.213-1.282,0.539-1.801,0.98c-0.519,0.44-0.94,1.005-1.26,1.7c-0.319,0.695-0.48,1.507-0.48,2.44
			c0,0.906,0.108,1.879,0.321,2.92c0.213,1.041,0.558,2.087,1.039,3.14c0.481,1.053,1.126,2.074,1.94,3.06s1.833,1.86,3.06,2.62
			s2.693,1.367,4.4,1.819c1.707,0.452,3.693,0.679,5.96,0.679h0.398c1.172-0.027,2.418-0.135,3.739-0.321
			c1.321-0.186,2.627-0.507,3.92-0.959s2.526-1.06,3.7-1.819c1.174-0.759,2.202-1.725,3.081-2.9c0.879-1.174,1.586-2.572,2.12-4.2
			c0.534-1.628,0.8-3.534,0.8-5.721v-0.321C248.105,306.347,247.759,304.56,247.118,302.986z"/>
	</g>
</g>
<g>
	<g>
		<path d="M284.199,313.685c-0.879-0.36-1.867-0.58-2.959-0.66s-2.173-0.12-3.239-0.12h-9.52v-11.52h5.04
			c1.067,0,2.14-0.034,3.22-0.101c1.08-0.067,2.041-0.28,2.881-0.64c0.84-0.36,1.526-0.899,2.06-1.62
			c0.534-0.72,0.8-1.748,0.8-3.081c0-1.307-0.268-2.326-0.8-3.06c-0.532-0.734-1.219-1.28-2.06-1.64s-1.801-0.573-2.881-0.64
			c-1.08-0.067-2.154-0.101-3.22-0.101h-5.04v-10.88h9.52c1.067,0,2.147-0.041,3.239-0.12s2.079-0.305,2.959-0.679
			c0.881-0.374,1.601-0.94,2.161-1.7c0.56-0.759,0.84-1.819,0.84-3.18s-0.28-2.42-0.84-3.18c-0.56-0.759-1.282-1.328-2.161-1.7
			c-0.879-0.372-1.867-0.599-2.959-0.679c-1.092-0.08-2.173-0.119-3.239-0.119v-0.002H262.32c-1.493,0-2.645,0.268-3.459,0.8
			s-1.406,1.232-1.78,2.099c-0.374,0.867-0.594,1.847-0.66,2.941c-0.067,1.094-0.101,2.214-0.101,3.36v37.6
			c0,1.147,0.034,2.266,0.101,3.36s0.287,2.075,0.66,2.941c0.374,0.865,0.968,1.565,1.78,2.099s1.966,0.8,3.459,0.8h15.681
			c1.039,0,2.108-0.044,3.2-0.123c1.092-0.078,2.08-0.305,2.959-0.679c0.879-0.374,1.606-0.947,2.179-1.72
			c0.573-0.773,0.86-1.853,0.86-3.239c0-1.333-0.28-2.381-0.84-3.14C285.8,314.605,285.078,314.046,284.199,313.685z"/>
	</g>
</g>
<g>
	<g>
		<path d="M329.141,276.466c-0.893-1.812-2.12-3.328-3.68-4.54c-1.56-1.212-3.386-2.126-5.48-2.739
			c-2.094-0.613-4.354-0.92-6.781-0.92v-0.002h-11.598c-1.519,0-2.691,0.259-3.519,0.78c-0.828,0.521-1.427,1.207-1.801,2.06
			c-0.374,0.853-0.594,1.826-0.66,2.92c-0.067,1.094-0.101,2.214-0.101,3.36v37.68c0,1.172,0.034,2.306,0.101,3.4
			s0.287,2.074,0.66,2.941c0.374,0.867,0.974,1.56,1.801,2.08c0.826,0.521,1.998,0.78,3.519,0.78h13.28
			c2.906-0.16,5.506-0.853,7.799-2.08c0.959-0.507,1.906-1.167,2.84-1.98c0.934-0.812,1.766-1.799,2.5-2.959
			c0.734-1.161,1.328-2.533,1.78-4.12s0.679-3.42,0.679-5.501v-24.8C330.481,280.4,330.034,278.279,329.141,276.466z
			 M319.039,308.347c0,0.8-0.087,1.505-0.259,2.12s-0.406,1.14-0.7,1.58c-0.294,0.44-0.628,0.821-1,1.14s-0.746,0.573-1.12,0.759
			c-0.908,0.48-1.934,0.748-3.081,0.8h-5.2v-37.12h5.2c1.147,0.08,2.174,0.374,3.081,0.881c0.372,0.213,0.746,0.493,1.12,0.84
			c0.374,0.346,0.707,0.773,1,1.28c0.294,0.507,0.527,1.101,0.7,1.78s0.259,1.459,0.259,2.34V308.347z"/>
	</g>
</g>
<g>
</g>
<g>
</g>
<g>
</g>
<g>
</g>
<g>
</g>
<g>
</g>
<g>
</g>
<g>
</g>
<g>
</g>
<g>
</g>
<g>
</g>
<g>
</g>
<g>
</g>
<g>
</g>
<g>
</g>
</svg>
