<?xml version="1.0" encoding="iso-8859-1"?>
<!-- Generator: Adobe Illustrator 19.0.0, SVG Export Plug-In . SVG Version: 6.00 Build 0)  -->
<svg version="1.1" id="Capa_1" xmlns="http://www.w3.org/2000/svg" xmlns:xlink="http://www.w3.org/1999/xlink" x="0px" y="0px"
	 viewBox="0 0 423.253 423.253" style="enable-background:new 0 0 423.253 423.253;" xml:space="preserve">
<g>
	<g>
		<path d="M245.759,34.133h-68.267c-3.773,0-6.827,3.053-6.827,6.827v57.527c0,3.773,3.053,6.827,6.827,6.827
			s6.827-3.053,6.827-6.827v-50.7h54.613v50.886c0,3.773,3.053,6.827,6.827,6.827s6.827-3.053,6.827-6.827V40.96
			C252.586,37.187,249.533,34.133,245.759,34.133z"/>
	</g>
</g>
<g>
	<g>
		<path d="M300.68,127.307c-23.327-24.868-54.955-38.56-89.054-38.56s-65.727,13.693-89.052,38.559
			c-23.333,24.868-34.987,57.306-32.814,91.334l12.653,198.221c0.227,3.593,3.214,6.393,6.813,6.393h204.8
			c3.599,0,6.586-2.801,6.815-6.391l12.653-198.221C335.666,184.614,324.013,152.173,300.68,127.307z M319.866,217.774
			L307.619,409.6H115.633l-12.247-191.828c-1.927-30.227,8.419-59.034,29.14-81.12c20.727-22.086,48.814-34.253,79.101-34.253
			s58.373,12.167,79.101,34.255C311.445,158.74,321.793,187.547,319.866,217.774z"/>
	</g>
</g>
<g>
	<g>
		<path d="M266.239,0H157.012c-3.773,0-6.827,3.053-6.827,6.827V40.96c0,3.773,3.053,6.827,6.827,6.827h109.227
			c3.773,0,6.827-3.053,6.827-6.827V6.827C273.066,3.053,270.013,0,266.239,0z M259.412,34.133h-95.573v-20.48h95.573V34.133z"/>
	</g>
</g>
<g>
	<g>
		<path d="M245.759,163.84h-68.267c-3.773,0-6.827,3.053-6.827,6.827V368.64c0,3.773,3.053,6.827,6.827,6.827h68.267
			c3.773,0,6.827-3.053,6.827-6.827V170.667C252.586,166.893,249.533,163.84,245.759,163.84z M238.932,361.813h-54.613v-184.32
			h54.613V361.813z"/>
	</g>
</g>
<g>
</g>
<g>
</g>
<g>
</g>
<g>
</g>
<g>
</g>
<g>
</g>
<g>
</g>
<g>
</g>
<g>
</g>
<g>
</g>
<g>
</g>
<g>
</g>
<g>
</g>
<g>
</g>
<g>
</g>
</svg>
