<?xml version="1.0" encoding="iso-8859-1"?>
<!-- Generator: Adobe Illustrator 19.0.0, SVG Export Plug-In . SVG Version: 6.00 Build 0)  -->
<svg version="1.1" id="Capa_1" xmlns="http://www.w3.org/2000/svg" xmlns:xlink="http://www.w3.org/1999/xlink" x="0px" y="0px"
	 viewBox="0 0 430.08 430.08" style="enable-background:new 0 0 430.08 430.08;" xml:space="preserve">
<g>
	<g>
		<path d="M408.487,235.085c-3.099-9.38-9.607-16.553-19.319-21.313c-12.641-6.207-31.247-2.261-52.794,2.313
			c-40.021,8.487-85.4,18.108-112.601-26.706c-18.946-31.225-12.119-57.433-3.053-73.919c18.207-33.106,58.18-53.466,86.313-54.019
			c3.773-0.073,6.767-3.193,6.694-6.96c-0.073-3.727-3.113-6.694-6.827-6.694c-0.039,0-0.087,0-0.133,0
			c-31.573,0.626-76.646,22.246-98.007,61.094c-10.803,19.645-18.99,50.785,3.347,87.579c32.22,53.113,87.067,41.474,127.101,32.98
			c18.28-3.879,35.546-7.526,43.947-3.413c6.373,3.127,10.412,7.473,12.36,13.3c4.593,13.78-4.04,30.986-4.127,31.16
			c-1.719,3.347-0.399,7.46,2.947,9.18c1,0.519,2.067,0.759,3.12,0.759c2.473,0,4.866-1.347,6.074-3.702
			C403.994,275.818,414.867,254.345,408.487,235.085z"/>
	</g>
</g>
<g>
	<g>
		<path d="M388.006,207.778c-3.099-9.38-9.607-16.553-19.319-21.313c-12.839-6.301-33.712-1.207-60.126,5.233
			c-45.727,11.139-102.639,25.027-129.62-19.42c-23.6-38.886,8.986-65.734,19.54-73.04c30.84-21.352,79.28-25.086,103.74,6.074
			c2.326,2.973,6.627,3.494,9.586,1.161c2.968-2.333,3.487-6.62,1.161-9.586c-23.375-29.786-75.488-41.24-122.261-8.873
			c-33.742,23.352-42.943,59.213-23.439,91.346c32.181,53.007,97.128,37.166,144.527,25.6c21.845-5.32,42.486-10.327,50.879-6.24
			c6.373,3.127,10.412,7.474,12.36,13.3c4.581,13.74-3.994,30.894-4.127,31.16c-1.719,3.347-0.399,7.46,2.947,9.18
			c1,0.519,2.067,0.76,3.12,0.76c2.473,0,4.866-1.347,6.072-3.702C383.512,248.511,394.385,227.038,388.006,207.778z"/>
	</g>
</g>
<g>
	<g>
		<path d="M129.707,300.373H6.827c-3.77,0-6.827,3.053-6.827,6.827v68.267c0,3.773,3.057,6.827,6.827,6.827h122.88
			c3.77,0,6.827-3.053,6.827-6.827V307.2C136.533,303.427,133.477,300.373,129.707,300.373z M122.88,368.64H13.653v-54.613H122.88
			V368.64z"/>
	</g>
</g>
<g>
	<g>
		<path d="M157.013,300.373h-27.307c-3.77,0-6.827,3.053-6.827,6.827v68.267c0,3.773,3.057,6.827,6.827,6.827h27.307
			c3.77,0,6.827-3.053,6.827-6.827V307.2C163.84,303.427,160.783,300.373,157.013,300.373z M150.187,368.64h-13.653v-54.613h13.653
			V368.64z"/>
	</g>
</g>
<g>
	<g>
		<path d="M423.253,300.373h-27.307c-3.773,0-6.827,3.053-6.827,6.827v68.267c0,3.773,3.053,6.827,6.827,6.827h27.307
			c3.773,0,6.827-3.053,6.827-6.827V307.2C430.08,303.427,427.027,300.373,423.253,300.373z M416.427,368.64h-13.653v-54.613h13.653
			V368.64z"/>
	</g>
</g>
<g>
	<g>
		<path d="M395.947,300.373H157.013c-3.77,0-6.827,3.053-6.827,6.827v68.267c0,3.773,3.057,6.827,6.827,6.827h238.933
			c3.773,0,6.827-3.053,6.827-6.827V307.2C402.773,303.427,399.72,300.373,395.947,300.373z M389.12,368.64H163.84v-54.613h225.28
			V368.64z"/>
	</g>
</g>
<g>
</g>
<g>
</g>
<g>
</g>
<g>
</g>
<g>
</g>
<g>
</g>
<g>
</g>
<g>
</g>
<g>
</g>
<g>
</g>
<g>
</g>
<g>
</g>
<g>
</g>
<g>
</g>
<g>
</g>
</svg>
