<?xml version="1.0" encoding="iso-8859-1"?>
<!-- Generator: Adobe Illustrator 19.0.0, SVG Export Plug-In . SVG Version: 6.00 Build 0)  -->
<svg version="1.1" id="Capa_1" xmlns="http://www.w3.org/2000/svg" xmlns:xlink="http://www.w3.org/1999/xlink" x="0px" y="0px"
	 viewBox="0 0 398.322 398.322" style="enable-background:new 0 0 398.322 398.322;" xml:space="preserve">
<g>
	<g>
		<path d="M378.074,299.488c-14.327-14.326-36.707-15.819-52.693-4.473l-42.694-42.772c-2.666-2.679-6.987-2.667-9.653-0.014
			c-2.674,2.666-2.674,6.987-0.014,9.653l47.113,47.206c2.666,2.679,6.987,2.667,9.653,0.014
			c10.66-10.626,27.988-10.612,38.62,0.034c5.154,5.166,7.987,12.025,7.98,19.319c-0.007,7.294-2.854,14.147-8.013,19.301
			c-4.152,4.14-9.527,6.767-15.539,7.6c-3.026,0.413-5.407,2.792-5.827,5.813c-0.841,6.014-3.48,11.38-7.634,15.52
			c-5.154,5.147-12,7.98-19.287,7.98c-0.007,0-0.014,0-0.027,0c-7.294-0.007-14.147-2.854-19.301-8.013
			c-5.154-5.166-7.987-12.02-7.98-19.319c0.007-7.294,2.854-14.147,8.013-19.294c2.674-2.666,2.674-6.987,0.014-9.653
			l-46.273-46.367c-2.666-2.679-6.987-2.667-9.653-0.014c-2.674,2.666-2.674,6.987-0.014,9.653l41.853,41.933
			c-4.927,6.88-7.586,15.099-7.593,23.733c-0.007,10.94,4.241,21.227,11.967,28.967c7.733,7.747,18.014,12.02,28.954,12.027
			c0.019,0,0.026,0,0.039,0c10.928,0,21.207-4.246,28.937-11.969c5.12-5.106,8.707-11.407,10.54-18.434
			c7.026-1.819,13.339-5.393,18.452-10.499c7.747-7.726,12.013-18.007,12.027-28.954C390.054,317.527,385.8,307.234,378.074,299.488
			z"/>
	</g>
</g>
<g>
	<g>
		<path d="M288.141,176.722c-7.241-43.153-27.001-87.653-52.867-119.033c-25.001-30.346-57.795-50.22-92.334-55.967
			c-34.307-5.693-67.427,2.835-93.181,24.054S9.292,77.843,8.331,112.642c-0.966,35,12.274,70.987,37.28,101.327
			c25.859,31.386,65.76,59.293,106.733,74.646c21.2,7.948,40.893,11.907,58.394,11.907c20.707,0,38.34-5.547,51.743-16.594
			C287.207,263.555,296.321,225.481,288.141,176.722z M253.799,273.394c-20.5,16.887-55.728,17.773-96.667,2.434
			c-38.246-14.333-76.947-41.366-100.987-70.54c-22.907-27.8-35.041-60.566-34.167-92.273c0.853-30.793,13.8-58.034,36.461-76.708
			c18.046-14.867,40.253-22.653,63.899-22.653c6.04,0,12.18,0.507,18.367,1.534c31.28,5.205,61.126,23.38,84.033,51.18
			c24.04,29.179,43.174,72.327,49.934,112.613C281.906,222.094,274.293,256.502,253.799,273.394z"/>
	</g>
</g>
<g>
	<g>
		<path d="M90.367,41.757c-1.915-3.241-6.088-4.34-9.347-2.427c-26.46,15.553-42.894,45.459-42.894,78.053
			c0,15.66,3.813,31.046,11.027,44.513c1.232,2.292,3.593,3.599,6.026,3.599c1.085,0,2.193-0.259,3.22-0.804
			c3.321-1.787,4.574-5.92,2.794-9.247c-6.161-11.488-9.414-24.648-9.414-38.06c0-27.774,13.855-53.173,36.161-66.28
			C91.186,49.189,92.273,45.01,90.367,41.757z"/>
	</g>
</g>
<g>
</g>
<g>
</g>
<g>
</g>
<g>
</g>
<g>
</g>
<g>
</g>
<g>
</g>
<g>
</g>
<g>
</g>
<g>
</g>
<g>
</g>
<g>
</g>
<g>
</g>
<g>
</g>
<g>
</g>
</svg>
