<?xml version="1.0" encoding="iso-8859-1"?>
<!-- Generator: Adobe Illustrator 19.0.0, SVG Export Plug-In . SVG Version: 6.00 Build 0)  -->
<svg version="1.1" id="Capa_1" xmlns="http://www.w3.org/2000/svg" xmlns:xlink="http://www.w3.org/1999/xlink" x="0px" y="0px"
	 viewBox="0 0 340.81 340.81" style="enable-background:new 0 0 340.81 340.81;" xml:space="preserve">
<g>
	<g>
		<path d="M280.452,51.892c-1.36-3.123-4.806-4.774-8.086-3.857c-4.847,1.343-118.992,33.934-148.82,118.921
			c-1.254,3.557,0.62,7.455,4.18,8.701c3.534,1.248,7.448-0.623,8.701-4.18c18.326-52.203,73.873-83.714,109.133-98.99
			c-24.953,35.884-21.32,87.158-17.819,111.031c0.493,3.393,3.413,5.837,6.746,5.837c0.326,0,0.661-0.024,0.992-0.075
			c3.734-0.546,6.313-4.012,5.767-7.743c-3.992-27.264-8.426-93.64,36.507-121.097C280.658,58.662,281.812,55.015,280.452,51.892z"
			/>
	</g>
</g>
<g>
	<g>
		<path d="M248.3,33.704c-1.427-1.423-35.367-34.865-88.04-33.672C119.127,0.951,78.821,22.691,40.46,64.644
			c-2.459,2.697-2.367,6.852,0.213,9.433c1.154,1.157,17.193,16.381,57.013,16.381c32.353,0,80.413-10.054,148.946-45.877
			c1.927-1.005,3.261-2.869,3.587-5.016C250.553,37.417,249.839,35.24,248.3,33.704z M55.953,68.09
			c33.992-35.253,69.086-53.547,104.407-54.407c33.213-0.853,58.866,14.537,70.82,23.477C122.066,91.973,71.634,76.42,55.953,68.09z
			"/>
	</g>
</g>
<g>
	<g>
		<path d="M298.211,190.389c-13.967-13.99-32.213-13.29-49.794-12.587c-8.132,0.321-16.812,0.321-24.933,0
			c-17.615-0.69-35.833-1.396-49.801,12.587c-16.626,16.643-25.786,38.77-25.786,62.304c0,48.587,39.501,88.117,88.054,88.117
			s88.054-39.53,88.052-88.117C324.004,229.156,314.844,207.029,298.211,190.389z M235.952,327.158
			c-41.027,0-74.4-33.403-74.4-74.464c0-19.888,7.741-38.588,21.787-52.654c7.407-7.414,16.794-8.897,28.194-8.897
			c3.606,0,7.412,0.147,11.419,0.302c8.465,0.333,17.526,0.333,25.993,0c16.7-0.64,29.867-1.164,39.613,8.593
			c14.054,14.065,21.794,32.765,21.794,52.654C310.352,293.754,276.979,327.158,235.952,327.158z"/>
	</g>
</g>
<g>
	<g>
		<path d="M93.032,177.792c8.612,0.333,17.813,0.333,26.426,0c17-0.652,30.454-1.169,40.414,8.634
			c3.734,3.673,7.086,7.736,9.96,12.08l11.387-7.54c-3.406-5.134-7.366-9.936-11.773-14.273
			c-14.167-13.94-32.64-13.24-50.514-12.544c-8.267,0.321-17.106,0.321-25.373,0c-17.881-0.693-36.361-1.393-50.514,12.544
			c-16.92,16.647-26.24,38.786-26.24,62.346c0,48.587,40.12,88.117,89.44,88.117c23.875,0,46.314-9.153,63.2-25.771l-9.573-9.733
			c-14.321,14.09-33.36,21.85-53.627,21.85c-41.786,0-75.786-33.403-75.786-74.464c0-19.869,7.873-38.557,22.159-52.613
			C62.572,176.625,76.032,177.139,93.032,177.792z"/>
	</g>
</g>
<g>
</g>
<g>
</g>
<g>
</g>
<g>
</g>
<g>
</g>
<g>
</g>
<g>
</g>
<g>
</g>
<g>
</g>
<g>
</g>
<g>
</g>
<g>
</g>
<g>
</g>
<g>
</g>
<g>
</g>
</svg>
