<?xml version="1.0" encoding="iso-8859-1"?>
<!-- Generator: Adobe Illustrator 19.0.0, SVG Export Plug-In . SVG Version: 6.00 Build 0)  -->
<svg version="1.1" id="Capa_1" xmlns="http://www.w3.org/2000/svg" xmlns:xlink="http://www.w3.org/1999/xlink" x="0px" y="0px"
	 viewBox="0 0 423.253 423.253" style="enable-background:new 0 0 423.253 423.253;" xml:space="preserve">
<g>
	<g>
		<path d="M286.72,27.307c-75.286,0-136.533,61.247-136.533,136.533s61.247,136.533,136.533,136.533s136.533-61.247,136.533-136.533
			S362.006,27.307,286.72,27.307z M286.72,286.72c-67.753,0-122.88-55.127-122.88-122.88S218.967,40.96,286.72,40.96
			S409.6,96.087,409.6,163.84S354.473,286.72,286.72,286.72z"/>
	</g>
</g>
<g>
	<g>
		<path d="M286.72,143.36c-11.293,0-20.48,9.187-20.48,20.48s9.187,20.48,20.48,20.48s20.48-9.187,20.48-20.48
			C307.2,152.547,298.013,143.36,286.72,143.36z M286.72,170.667c-3.767,0-6.827-3.06-6.827-6.827c0-3.767,3.06-6.827,6.827-6.827
			c3.767,0,6.827,3.06,6.827,6.827C293.547,167.607,290.487,170.667,286.72,170.667z"/>
	</g>
</g>
<g>
	<g>
		<path d="M163.84,279.893H102.4c-3.773,0-6.827,3.053-6.827,6.827v31.853c0,3.773,3.053,6.827,6.827,6.827s6.827-3.053,6.827-6.827
			v-25.027h47.787v22.1c0,3.773,3.053,6.827,6.827,6.827s6.827-3.053,6.827-6.827V286.72
			C170.667,282.947,167.613,279.893,163.84,279.893z"/>
	</g>
</g>
<g>
	<g>
		<path d="M210.555,326.707l-14.787-2.434c-3.787-0.66-7.241,1.906-7.847,5.62c-0.613,3.721,1.9,7.235,5.62,7.847l15.326,2.526
			c0.365,0.06,0.739,0.094,1.113,0.094c23.494,0,42.607,15.86,42.607,35.354v27.059H13.653v-27.059
			c0-19.494,19.113-35.354,42.607-35.352c0.372,0,0.746-0.034,1.113-0.094l16.387-2.707c3.721-0.614,6.233-4.127,5.62-7.847
			c-0.614-3.714-4.053-6.294-7.847-5.62l-15.846,2.613C24.926,326.98,0,348.861,0,375.714V409.6c0,3.773,3.053,6.827,6.827,6.827
			h252.587c3.773,0,6.827-3.053,6.827-6.827v-33.886C266.24,348.86,241.314,326.98,210.555,326.707z"/>
	</g>
</g>
<g>
	<g>
		<path d="M197.973,251.68c-3.773,0-6.827,3.053-6.827,6.827c0,11.793-9.593,21.386-21.386,21.386H96.48
			c-11.793,0-21.386-9.593-21.386-21.386V163.84h79.52c3.773,0,6.827-3.053,6.827-6.827s-3.053-6.827-6.827-6.827H68.267
			c-3.773,0-6.827,3.053-6.827,6.827v101.494c0,19.319,15.72,35.04,35.04,35.04h73.281c19.319,0,35.04-15.72,35.04-35.04
			C204.8,254.734,201.747,251.68,197.973,251.68z"/>
	</g>
</g>
<g>
	<g>
		<path d="M143.14,319.14c-0.78-3.014-3.494-5.113-6.607-5.113h-61.44c-3.773,0-6.827,3.053-6.827,6.827v34.133
			c0,2.42,1.28,4.659,3.367,5.886c1.067,0.626,2.26,0.94,3.459,0.94c1.14,0,2.287-0.287,3.313-0.86l61.44-34.133
			C142.566,325.313,143.92,322.154,143.14,319.14z M81.92,343.386V327.68h28.266L81.92,343.386z"/>
	</g>
</g>
<g>
	<g>
		<path d="M191.147,314.027h-61.44c-3.113,0-5.827,2.099-6.607,5.113s0.573,6.173,3.294,7.68l61.44,34.133
			c1.026,0.573,2.173,0.86,3.313,0.86c1.2,0,2.393-0.314,3.459-0.94c2.087-1.227,3.367-3.466,3.367-5.886v-34.133
			C197.973,317.08,194.92,314.027,191.147,314.027z M184.32,343.386l-28.266-15.706h28.266V343.386z"/>
	</g>
</g>
<g>
	<g>
		<path d="M233.499,42.981c-9.926-21.961-31.913-36.154-56.006-36.154c-16.814,0-32.853,6.987-44.373,19.021
			C121.6,13.814,105.561,6.827,88.747,6.827c-33.881,0-61.44,27.559-61.44,61.44c0,23.567,13.254,44.687,34.133,55.02v33.727
			c0,3.773,3.053,6.827,6.827,6.827h86.347c3.773,0,6.827-3.053,6.827-6.827s-3.053-6.827-6.827-6.827h-79.52v-31.314
			c0-2.78-1.686-5.279-4.26-6.327C52.686,105.194,40.96,87.813,40.96,68.267c0-26.348,21.439-47.787,47.787-47.787
			c15.326,0,29.839,7.48,38.827,20.014c2.56,3.574,8.533,3.574,11.093,0c8.987-12.534,23.501-20.014,38.827-20.014
			c18.739,0,35.847,11.04,43.566,28.128c1.553,3.427,5.593,4.966,9.033,3.406C233.527,50.461,235.052,46.421,233.499,42.981z"/>
	</g>
</g>
<g>
	<g>
		<path d="M134.533,234.107C133.84,233.4,117.18,217.067,99.347,226c-1.312,0.659-2.932,1.5-4.799,2.466
			c-10.274,5.333-41.501,21.586-51.934,17.326c-1.074-0.433-1.615-1.026-2.007-2.193c-1.195-3.572-5.028-5.513-8.634-4.313
			c-3.572,1.188-5.506,5.053-4.313,8.634c1.647,4.946,5.047,8.593,9.82,10.527c2.766,1.12,5.893,1.626,9.293,1.626
			c15.041-0.007,35.473-9.841,54.06-19.487c1.801-0.934,3.36-1.741,4.62-2.374c8.914-4.48,19.154,5.287,19.441,5.56
			c2.673,2.659,6.979,2.647,9.639-0.014C137.199,241.094,137.199,236.773,134.533,234.107z"/>
	</g>
</g>
<g>
	<g>
		<path d="M185.832,235.573c-5.386-2.56-10.293-5.113-14.133-7.1c-1.865-0.973-3.492-1.813-4.806-2.473
			c-17.826-8.914-34.493,7.4-35.186,8.107c-2.666,2.666-2.666,6.987,0,9.653c2.666,2.666,6.987,2.666,9.653,0
			c0.107-0.101,10.433-10.033,19.427-5.547c1.266,0.633,2.826,1.44,4.627,2.374c3.946,2.053,9.006,4.68,14.553,7.32
			c0.947,0.447,1.947,0.66,2.927,0.66c2.553,0,5.001-1.434,6.173-3.895C190.686,241.266,189.239,237.193,185.832,235.573z"/>
	</g>
</g>
<g>
	<g>
		<path d="M286.72,47.787c-3.773,0-6.827,3.053-6.827,6.827v13.653c0,3.773,3.053,6.827,6.827,6.827s6.827-3.053,6.827-6.827V54.613
			C293.547,50.84,290.493,47.787,286.72,47.787z"/>
	</g>
</g>
<g>
	<g>
		<path d="M286.72,252.587c-3.773,0-6.827,3.053-6.827,6.827v13.653c0,3.773,3.053,6.827,6.827,6.827s6.827-3.053,6.827-6.827
			v-13.653C293.547,255.64,290.493,252.587,286.72,252.587z"/>
	</g>
</g>
<g>
	<g>
		<path d="M395.947,157.013h-13.653c-3.773,0-6.827,3.053-6.827,6.827s3.053,6.827,6.827,6.827h13.653
			c3.773,0,6.827-3.053,6.827-6.827S399.72,157.013,395.947,157.013z"/>
	</g>
</g>
<g>
	<g>
		<path d="M337.947,76.02c-3.248-1.881-7.427-0.787-9.341,2.459l-47.787,81.92c-1.894,3.261-0.794,7.441,2.459,9.341
			c1.08,0.626,2.266,0.927,3.434,0.927c2.347,0,4.634-1.213,5.907-3.386l47.787-81.92C342.301,82.099,341.2,77.92,337.947,76.02z"/>
	</g>
</g>
<g>
	<g>
		<path d="M327.68,157.013h-54.613c-3.773,0-6.827,3.053-6.827,6.827s3.053,6.827,6.827,6.827h54.613
			c3.773,0,6.827-3.053,6.827-6.827S331.453,157.013,327.68,157.013z"/>
	</g>
</g>
<g>
</g>
<g>
</g>
<g>
</g>
<g>
</g>
<g>
</g>
<g>
</g>
<g>
</g>
<g>
</g>
<g>
</g>
<g>
</g>
<g>
</g>
<g>
</g>
<g>
</g>
<g>
</g>
<g>
</g>
</svg>
