<?xml version="1.0" encoding="iso-8859-1"?>
<!-- Generator: Adobe Illustrator 19.0.0, SVG Export Plug-In . SVG Version: 6.00 Build 0)  -->
<svg version="1.1" id="Capa_1" xmlns="http://www.w3.org/2000/svg" xmlns:xlink="http://www.w3.org/1999/xlink" x="0px" y="0px"
	 viewBox="0 0 430.083 430.083" style="enable-background:new 0 0 430.083 430.083;" xml:space="preserve">
<g>
	<g>
		<path d="M430.005,115.725c-1.911-46.319-39.721-83.64-86.077-84.966c-31.273-0.838-60.39,14.805-77.1,40.643
			c-12.73-12.79-30.184-20.2-48.374-20.2c-20.43,0-39.617,9.208-52.465,24.637c-15.544-27.684-44.628-45.044-77.044-45.117
			c-0.067,0-0.13,0-0.196,0c-47.082,0-86.845,38.183-88.678,85.202c-0.949,24.4,7.823,47.503,24.707,65.056
			c16.893,17.563,39.61,27.233,64.207,27.233c0.012,0,0.026,0,0.039,0c3.721,0,7.168,1.398,9.708,3.93
			c2.365,2.36,3.669,5.501,3.669,8.844v103.281c0,3.77,3.057,6.827,6.827,6.827h211.627c3.768,0,6.827-3.057,6.827-6.827V220.989
			c0-3.343,1.302-6.484,3.666-8.844c2.552-2.546,5.811-3.83,9.987-3.93c24.395,0,47.14-9.697,64.038-27.303
			C422.262,163.312,431.012,140.161,430.005,115.725z M395.52,171.457c-14.297,14.896-33.543,23.103-54.38,23.103
			c-0.027,0-0.053,0-0.08,0c-7.364,0-14.234,2.811-19.354,7.917c-4.953,4.941-7.68,11.513-7.68,18.51v96.454H116.053h-0.002v-96.452
			c0-6.997-2.727-13.57-7.68-18.51c-5.123-5.108-11.989-7.917-19.546-7.917c-20.557,0.174-39.897-8.163-54.211-23.043
			c-14.283-14.853-21.711-34.406-20.907-55.06c1.553-39.782,35.197-72.083,75.04-72.083c0.055,0,0.111,0,0.164,0
			c30.92,0.07,58.254,18.731,69.637,47.543c0.969,2.447,3.26,4.123,5.886,4.301c2.664,0.184,5.127-1.169,6.414-3.463
			c9.68-17.21,27.921-27.901,47.604-27.901c17.529,0,33.568,8.156,44.008,22.38c1.406,1.917,3.739,2.966,6.093,2.76
			c2.372-0.203,4.47-1.633,5.526-3.77c13.003-26.237,40.366-42.704,69.453-41.82c38.571,1.103,71.24,33.35,72.83,71.88
			C417.213,136.97,409.813,156.562,395.52,171.457z"/>
	</g>
</g>
<g>
	<g>
		<path d="M334.506,317.441H95.573c-3.77,0-6.827,3.057-6.827,6.827v27.307c0,3.77,3.057,6.827,6.827,6.827h238.933
			c3.768,0,6.827-3.057,6.827-6.827v-27.307C341.333,320.498,338.276,317.441,334.506,317.441z M327.68,344.748H102.4v-13.653
			h225.28V344.748z"/>
	</g>
</g>
<g>
	<g>
		<path d="M334.413,391.412l-6.827-40.96c-0.546-3.29-3.396-5.704-6.733-5.704H109.226c-3.338,0-6.187,2.413-6.734,5.704
			l-6.827,40.96c-0.329,1.98,0.227,4.004,1.524,5.536c1.297,1.529,3.203,2.413,5.21,2.413h225.28c2.005,0,3.912-0.884,5.209-2.413
			C334.186,395.416,334.742,393.391,334.413,391.412z M110.459,385.708l4.55-27.307h200.061l4.55,27.307H110.459z"/>
	</g>
</g>
<g>
	<g>
		<path d="M88.746,58.028c-33.877,0-61.44,27.563-61.44,61.44c0,3.77,3.057,6.827,6.827,6.827c3.768,0,6.827-3.057,6.827-6.827
			c0-26.349,21.436-47.787,47.787-47.787c3.77,0,6.827-3.057,6.827-6.827C95.573,61.085,92.516,58.028,88.746,58.028z"/>
	</g>
</g>
<g>
</g>
<g>
</g>
<g>
</g>
<g>
</g>
<g>
</g>
<g>
</g>
<g>
</g>
<g>
</g>
<g>
</g>
<g>
</g>
<g>
</g>
<g>
</g>
<g>
</g>
<g>
</g>
<g>
</g>
</svg>
