<?xml version="1.0" encoding="iso-8859-1"?>
<!-- Generator: Adobe Illustrator 19.0.0, SVG Export Plug-In . SVG Version: 6.00 Build 0)  -->
<svg version="1.1" id="Capa_1" xmlns="http://www.w3.org/2000/svg" xmlns:xlink="http://www.w3.org/1999/xlink" x="0px" y="0px"
	 viewBox="0 0 423.253 423.253" style="enable-background:new 0 0 423.253 423.253;" xml:space="preserve">
<g>
	<g>
		<path d="M286.72,27.307c-75.286,0-136.533,61.247-136.533,136.533s61.247,136.533,136.533,136.533s136.533-61.247,136.533-136.533
			S362.006,27.307,286.72,27.307z M286.72,286.72c-67.753,0-122.88-55.127-122.88-122.88S218.967,40.96,286.72,40.96
			S409.6,96.087,409.6,163.84S354.473,286.72,286.72,286.72z"/>
	</g>
</g>
<g>
	<g>
		<path d="M163.84,279.893H102.4c-3.773,0-6.827,3.053-6.827,6.827v31.468c0,3.773,3.053,6.827,6.827,6.827s6.827-3.055,6.827-6.827
			v-24.641h47.787v23.646c0,3.773,3.053,6.827,6.827,6.827s6.827-3.053,6.827-6.827V286.72
			C170.667,282.947,167.613,279.893,163.84,279.893z"/>
	</g>
</g>
<g>
	<g>
		<path d="M210.553,326.706l-15.479-2.553c-3.794-0.674-7.235,1.906-7.847,5.62c-0.613,3.721,1.899,7.235,5.62,7.847l16.021,2.647
			c0.365,0.06,0.739,0.094,1.113,0.094c23.494,0,42.607,15.86,42.607,35.354v27.059H13.653v-27.059
			c0-19.494,19.113-35.354,42.607-35.354c0.372,0,0.746-0.034,1.113-0.094l16.16-2.666c3.721-0.614,6.233-4.127,5.62-7.847
			c-0.608-3.714-4.06-6.299-7.847-5.62l-15.619,2.574C24.926,326.98,0,348.861,0,375.714V409.6c0,3.773,3.053,6.827,6.827,6.827
			h252.587c3.773,0,6.827-3.053,6.827-6.827v-33.886C266.24,348.86,241.314,326.98,210.553,326.706z"/>
	</g>
</g>
<g>
	<g>
		<path d="M197.973,251.68c-3.773,0-6.827,3.053-6.827,6.827c0,11.793-9.593,21.386-21.386,21.386H96.48
			c-11.793,0-21.386-9.593-21.386-21.386V163.84h79.78c3.773,0,6.827-3.053,6.827-6.827s-3.053-6.827-6.827-6.827H68.267
			c-3.773,0-6.827,3.053-6.827,6.827v101.494c0,19.319,15.72,35.04,35.04,35.04h73.281c19.319,0,35.04-15.72,35.04-35.04
			C204.8,254.734,201.747,251.68,197.973,251.68z"/>
	</g>
</g>
<g>
	<g>
		<path d="M143.14,319.14c-0.78-3.014-3.494-5.113-6.607-5.113h-61.44c-3.773,0-6.827,3.053-6.827,6.827v34.133
			c0,2.42,1.28,4.659,3.367,5.886c1.067,0.626,2.26,0.94,3.459,0.94c1.14,0,2.287-0.287,3.313-0.86l61.44-34.133
			C142.566,325.313,143.92,322.154,143.14,319.14z M81.92,343.386V327.68h28.266L81.92,343.386z"/>
	</g>
</g>
<g>
	<g>
		<path d="M191.147,314.027h-61.44c-3.113,0-5.827,2.099-6.607,5.113s0.573,6.173,3.294,7.68l61.44,34.133
			c1.026,0.573,2.173,0.86,3.313,0.86c1.2,0,2.393-0.314,3.459-0.94c2.087-1.227,3.367-3.466,3.367-5.886v-34.133
			C197.973,317.08,194.92,314.027,191.147,314.027z M184.32,343.386l-28.266-15.706h28.266V343.386z"/>
	</g>
</g>
<g>
	<g>
		<path d="M234.566,45.474c-9.387-23.48-31.787-38.647-57.073-38.647c-16.814,0-32.853,6.987-44.373,19.021
			C121.6,13.814,105.561,6.827,88.747,6.827c-33.881,0-61.44,27.559-61.44,61.44c0,23.567,13.254,44.687,34.133,55.02v33.727
			c0,3.773,3.053,6.827,6.827,6.827h88.747c3.773,0,6.827-3.053,6.827-6.827s-3.053-6.827-6.827-6.827h-81.92v-31.314
			c0-2.78-1.686-5.279-4.26-6.327C52.686,105.194,40.96,87.813,40.96,68.267c0-26.348,21.439-47.787,47.787-47.787
			c15.326,0,29.839,7.48,38.827,20.014c2.56,3.574,8.533,3.574,11.093,0c8.987-12.534,23.501-20.014,38.827-20.014
			c19.666,0,37.093,11.8,44.394,30.061c1.406,3.505,5.374,5.205,8.873,3.806C234.259,52.948,235.965,48.974,234.566,45.474z"/>
	</g>
</g>
<g>
	<g>
		<path d="M134.533,234.107c-0.7-0.707-17.34-17.039-35.186-8.107c-1.312,0.659-2.932,1.5-4.799,2.466
			C84.28,233.8,53.04,250.052,42.614,245.792c-1.074-0.433-1.615-1.026-2.007-2.193c-1.195-3.572-5.028-5.513-8.634-4.313
			c-3.572,1.188-5.506,5.053-4.313,8.634c1.647,4.946,5.047,8.593,9.82,10.527c2.766,1.12,5.893,1.626,9.293,1.626
			c15.041-0.007,35.473-9.841,54.06-19.487c1.801-0.934,3.36-1.741,4.62-2.374c8.914-4.48,19.154,5.287,19.441,5.56
			c2.673,2.659,6.979,2.647,9.639-0.014C137.199,241.094,137.199,236.773,134.533,234.107z"/>
	</g>
</g>
<g>
	<g>
		<path d="M185.795,235.561c-5.407-2.581-10.334-5.141-14.174-7.134c-1.835-0.947-3.427-1.773-4.727-2.427
			c-17.833-8.914-34.487,7.4-35.186,8.107c-2.666,2.666-2.666,6.987,0,9.653c2.666,2.666,6.987,2.666,9.653,0
			c0.107-0.101,10.433-10.08,19.42-5.547c1.246,0.62,2.78,1.42,4.547,2.333c3.961,2.053,9.033,4.687,14.601,7.334
			c0.947,0.454,1.947,0.667,2.927,0.667c2.553,0,4.999-1.434,6.168-3.893C190.648,241.254,189.201,237.181,185.795,235.561z"/>
	</g>
</g>
<g>
	<g>
		<path d="M256.789,180.782c-0.56-0.734-1.294-1.287-2.2-1.661c-0.906-0.374-1.918-0.613-3.04-0.72
			c-1.121-0.107-2.241-0.16-3.36-0.16h-13.92v-2.48c0-1.147,0.227-2.166,0.679-3.06c0.452-0.894,1.041-1.679,1.76-2.36
			c0.719-0.681,1.539-1.28,2.459-1.801c0.92-0.521,1.847-0.966,2.78-1.34c2.801-1.014,5.321-2.347,7.56-4
			c0.934-0.693,1.853-1.493,2.76-2.4c0.906-0.906,1.714-1.918,2.42-3.04s1.28-2.36,1.72-3.721s0.66-2.84,0.66-4.441
			c0-2.427-0.386-4.646-1.161-6.659s-1.92-3.748-3.441-5.2c-1.521-1.452-3.42-2.586-5.7-3.4c-2.28-0.814-4.925-1.22-7.939-1.22
			c-2.668,0-4.959,0.309-6.879,0.922c-1.92,0.613-3.547,1.413-4.879,2.4c-1.333,0.986-2.413,2.094-3.239,3.319
			c-0.826,1.225-1.466,2.452-1.92,3.68s-0.759,2.388-0.92,3.48c-0.16,1.092-0.241,1.987-0.241,2.68c0,1.574,0.56,2.86,1.679,3.86
			c1.12,1,2.587,1.5,4.4,1.5c0.587,0,1.234-0.107,1.94-0.321c0.707-0.213,1.359-0.546,1.959-1c0.601-0.454,1.099-1.046,1.5-1.78
			c0.401-0.734,0.601-1.621,0.601-2.661c0-0.64,0.058-1.314,0.179-2.021c0.121-0.707,0.387-1.355,0.8-1.94
			c0.413-0.585,1.019-1.072,1.819-1.459c0.8-0.387,1.867-0.58,3.2-0.58c0.507,0,1.126,0.046,1.86,0.14s1.439,0.333,2.12,0.72
			s1.254,0.98,1.72,1.78s0.7,1.894,0.7,3.28c0,0.773-0.107,1.533-0.321,2.28c-0.213,0.747-0.66,1.488-1.34,2.22
			c-0.679,0.732-1.647,1.478-2.9,2.239c-1.253,0.761-2.934,1.553-5.04,2.381c-2.106,0.828-4.019,1.828-5.74,3s-3.2,2.5-4.441,3.98
			c-1.241,1.48-2.2,3.12-2.881,4.92s-1.021,3.727-1.021,5.78v6.4c0,0.828,0.101,1.661,0.3,2.5c0.2,0.84,0.553,1.601,1.06,2.28
			s1.193,1.239,2.06,1.679s1.968,0.66,3.301,0.66h19.92c1.12,0,2.243-0.053,3.362-0.159s2.133-0.358,3.04-0.76s1.64-0.974,2.2-1.72
			c0.56-0.746,0.84-1.76,0.84-3.04C257.628,182.509,257.348,181.516,256.789,180.782z"/>
	</g>
</g>
<g>
	<g>
		<path d="M295.228,156.539c-0.108-0.814-0.355-1.527-0.741-2.14c-0.386-0.613-0.952-1.099-1.7-1.459s-1.773-0.539-3.081-0.539
			c-1.28,0-2.296,0.179-3.041,0.539c-0.746,0.36-1.306,0.841-1.679,1.44c-0.374,0.599-0.613,1.299-0.72,2.099s-0.16,1.654-0.16,2.56
			v5.441h-8.4l-0.321-0.321c1.014-3.652,1.934-6.919,2.76-9.8c0.346-1.227,0.679-2.432,1-3.62s0.613-2.241,0.881-3.161
			c0.268-0.92,0.56-1.952,0.881-3.099c0.053-0.213,0.154-0.539,0.3-0.98c0.147-0.44,0.294-0.94,0.44-1.5
			c0.147-0.56,0.273-1.166,0.381-1.819c0.108-0.654,0.16-1.3,0.16-1.94s-0.073-1.246-0.22-1.819c-0.147-0.573-0.406-1.08-0.78-1.521
			c-0.374-0.44-0.872-0.794-1.5-1.06c-0.628-0.266-1.422-0.399-2.381-0.399c-1.335,0-2.388,0.22-3.161,0.66
			c-0.773,0.44-1.381,1.021-1.819,1.741s-0.787,1.546-1.039,2.48c-0.253,0.934-0.514,1.894-0.78,2.881l-8.079,28.08
			c-0.08,0.319-0.154,0.64-0.22,0.959c-0.067,0.319-0.101,0.638-0.101,0.959c0,0.614,0.128,1.215,0.381,1.801
			c0.253,0.585,0.693,1.099,1.319,1.539s1.473,0.794,2.54,1.06c1.067,0.266,2.427,0.399,4.081,0.399h13.681v7.12
			c0,0.879,0.06,1.707,0.179,2.48c0.119,0.773,0.379,1.44,0.78,2c0.401,0.56,0.973,1.007,1.72,1.34s1.748,0.5,3,0.5
			c1.28,0,2.295-0.176,3.041-0.522c0.746-0.346,1.306-0.821,1.679-1.42c0.374-0.599,0.613-1.3,0.72-2.099
			c0.107-0.799,0.16-1.666,0.16-2.599v-23.68C295.388,158.211,295.335,157.353,295.228,156.539z"/>
	</g>
</g>
<g>
	<g>
		<path d="M331.467,135.219c-0.452-0.573-1.2-1.085-2.239-1.539c-0.534-0.213-1.034-0.36-1.5-0.44
			c-0.466-0.08-0.98-0.119-1.539-0.119c-0.534,0.055-0.993,0.208-1.381,0.461c-0.387,0.253-0.727,0.56-1.021,0.92
			s-0.546,0.768-0.759,1.22c-0.213,0.452-0.415,0.893-0.601,1.319l-19.521,45.681c-0.239,0.613-0.447,1.2-0.62,1.76
			c-0.172,0.56-0.259,1.227-0.259,2c0.08,0.64,0.36,1.253,0.84,1.84s1.266,1.121,2.36,1.601c0.826,0.374,1.572,0.56,2.239,0.56
			c0.613,0,1.152-0.128,1.62-0.381c0.468-0.253,0.881-0.572,1.241-0.959c0.36-0.387,0.667-0.812,0.92-1.28
			c0.253-0.468,0.486-0.927,0.7-1.381l19.442-45.602c0.239-0.534,0.447-1.108,0.62-1.72s0.259-1.319,0.259-2.12
			C332.187,136.398,331.919,135.793,331.467,135.219z"/>
	</g>
</g>
<g>
	<g>
		<path d="M373.666,137.32c-0.294-0.746-0.727-1.406-1.3-1.98c-0.573-0.573-1.28-1.034-2.12-1.381
			c-0.84-0.346-1.794-0.521-2.86-0.521h-21.439c-0.934,0-1.9,0.053-2.9,0.16c-1,0.108-1.92,0.346-2.76,0.72s-1.534,0.927-2.08,1.661
			c-0.546,0.734-0.819,1.727-0.819,2.98c0,1.28,0.271,2.294,0.819,3.04c0.548,0.746,1.241,1.306,2.08,1.679
			c0.84,0.374,1.76,0.613,2.76,0.72s1.966,0.16,2.9,0.16h12.559v0.48l-8.561,15.281c-0.72,1.28-1.306,2.359-1.76,3.239
			c-0.454,0.881-0.814,1.78-1.08,2.7c-0.266,0.92-0.445,1.98-0.539,3.18c-0.094,1.2-0.14,2.748-0.14,4.64v5.999
			c0,1.174,0.034,2.321,0.101,3.441c0.067,1.12,0.294,2.121,0.679,3c0.386,0.879,1,1.586,1.84,2.12c0.84,0.534,2.046,0.8,3.62,0.8
			c1.601,0,2.833-0.268,3.7-0.8c0.867-0.532,1.5-1.239,1.9-2.12c0.399-0.881,0.633-1.879,0.7-3c0.067-1.121,0.101-2.266,0.101-3.441
			v-6.001c0-1.12,0.034-2.094,0.101-2.92c0.067-0.826,0.198-1.626,0.399-2.4s0.493-1.594,0.881-2.459s0.913-1.9,1.58-3.099
			l11.52-21.04c0.213-0.401,0.36-0.814,0.44-1.241c0.08-0.427,0.12-0.865,0.12-1.319C374.106,138.827,373.96,138.066,373.666,137.32
			z"/>
	</g>
</g>
<g>
</g>
<g>
</g>
<g>
</g>
<g>
</g>
<g>
</g>
<g>
</g>
<g>
</g>
<g>
</g>
<g>
</g>
<g>
</g>
<g>
</g>
<g>
</g>
<g>
</g>
<g>
</g>
<g>
</g>
</svg>
