<?xml version="1.0" encoding="iso-8859-1"?>
<!-- Generator: Adobe Illustrator 19.0.0, SVG Export Plug-In . SVG Version: 6.00 Build 0)  -->
<svg version="1.1" id="Capa_1" xmlns="http://www.w3.org/2000/svg" xmlns:xlink="http://www.w3.org/1999/xlink" x="0px" y="0px"
	 viewBox="0 0 409.6 409.6" style="enable-background:new 0 0 409.6 409.6;" xml:space="preserve">
<g>
	<g>
		<path d="M235.52,273.067h-61.44c-3.77,0-6.827,3.057-6.827,6.827v31.94c0,3.77,3.057,6.827,6.827,6.827s6.827-3.057,6.827-6.827
			V286.72h47.787v23.716c0,3.77,3.057,6.827,6.827,6.827c3.77,0,6.827-3.057,6.827-6.827v-30.543
			C242.347,276.123,239.29,273.067,235.52,273.067z"/>
	</g>
</g>
<g>
	<g>
		<path d="M282.235,319.879l-14.65-2.417c-3.773-0.613-7.235,1.91-7.847,5.627c-0.613,3.721,1.906,7.235,5.627,7.847l15.186,2.504
			c0.365,0.06,0.736,0.09,1.109,0.09c23.494,0,42.607,15.86,42.607,35.357v27.059H85.333v-27.057
			c0-19.497,19.113-35.357,42.607-35.357c0.372,0,0.742-0.031,1.109-0.09l16.391-2.703c3.721-0.614,6.24-4.127,5.627-7.847
			c-0.618-3.717-4.127-6.243-7.847-5.627l-15.853,2.616c-30.761,0.266-55.687,22.151-55.687,49.007v33.886
			c0,3.77,3.057,6.827,6.827,6.827h252.587c3.77,0,6.827-3.057,6.827-6.827v-33.886C337.92,342.03,312.994,320.147,282.235,319.879z
			"/>
	</g>
</g>
<g>
	<g>
		<path d="M269.653,143.36H139.947c-3.77,0-6.827,3.057-6.827,6.827v101.49c0,19.323,15.72,35.043,35.043,35.043h73.274
			c19.323,0,35.043-15.72,35.043-35.043v-101.49C276.48,146.417,273.423,143.36,269.653,143.36z M262.827,251.677
			c0,11.793-9.597,21.39-21.39,21.39h-73.274c-11.793,0-21.39-9.597-21.39-21.39v-94.664h116.053V251.677z"/>
	</g>
</g>
<g>
	<g>
		<path d="M214.823,312.313c-0.783-3.011-3.5-5.113-6.61-5.113h-61.44c-3.77,0-6.827,3.057-6.827,6.827v34.133
			c0,2.42,1.28,4.658,3.364,5.883c1.07,0.63,2.266,0.944,3.463,0.944c1.14,0,2.284-0.287,3.316-0.86l61.44-34.133
			C214.246,318.483,215.603,315.327,214.823,312.313z M153.6,336.556v-15.703h28.269L153.6,336.556z"/>
	</g>
</g>
<g>
	<g>
		<path d="M262.827,307.2h-61.44c-3.11,0-5.827,2.103-6.61,5.113c-0.78,3.014,0.577,6.17,3.294,7.68l61.44,34.133
			c1.033,0.573,2.176,0.86,3.316,0.86c1.196,0,2.393-0.314,3.463-0.944c2.084-1.225,3.364-3.463,3.364-5.883v-34.133
			C269.653,310.257,266.597,307.2,262.827,307.2z M256,336.556l-28.269-15.703H256V336.556z"/>
	</g>
</g>
<g>
	<g>
		<path d="M249.173,0c-16.811,0-32.857,6.987-44.373,19.021C193.283,6.987,177.237,0,160.427,0c-33.877,0-61.44,27.563-61.44,61.44
			c0,23.571,13.251,44.687,34.133,55.02v33.727c0,3.77,3.057,6.827,6.827,6.827h129.707c3.77,0,6.827-3.057,6.827-6.827V116.46
			c20.883-10.332,34.133-31.449,34.133-55.02C310.613,27.563,283.051,0,249.173,0z M267.09,105.719
			c-2.577,1.043-4.263,3.546-4.263,6.327v31.314H146.773v-31.314c0-2.78-1.686-5.284-4.263-6.327
			c-18.147-7.352-29.87-24.733-29.87-44.279c0-26.349,21.437-47.787,47.787-47.787c15.326,0,29.843,7.48,38.827,20.007
			c2.56,3.581,8.533,3.581,11.093,0c8.984-12.527,23.501-20.007,38.827-20.007c26.349,0,47.787,21.437,47.787,47.787
			C296.96,80.986,285.237,98.367,267.09,105.719z"/>
	</g>
</g>
<g>
	<g>
		<path d="M206.213,227.28c-0.703-0.7-17.343-17.033-35.186-8.107c-1.312,0.655-2.932,1.5-4.803,2.466
			c-10.267,5.337-41.53,21.533-51.93,17.326c-1.074-0.433-1.616-1.026-2.004-2.193c-1.195-3.572-5.042-5.513-8.637-4.316
			c-3.575,1.195-5.509,5.06-4.316,8.637c1.65,4.949,5.047,8.59,9.827,10.527c2.763,1.12,5.886,1.623,9.286,1.623
			c15.041,0,35.477-9.837,54.064-19.483c1.797-0.934,3.357-1.744,4.62-2.374c8.957-4.487,19.154,5.284,19.444,5.564
			c2.662,2.649,6.972,2.647,9.636-0.017C208.879,234.267,208.879,229.946,206.213,227.28z"/>
	</g>
</g>
<g>
	<g>
		<path d="M305.947,232.456c-3.584-1.196-7.444,0.742-8.637,4.316c-0.387,1.166-0.93,1.76-2.004,2.193
			c-10.387,4.224-41.66-11.996-51.93-17.326c-1.869-0.966-3.488-1.809-4.803-2.466c-17.847-8.924-34.487,7.407-35.186,8.107
			c-2.666,2.666-2.666,6.987,0,9.653c2.666,2.666,6.987,2.666,9.653,0c0.101-0.106,10.431-10.063,19.427-5.547
			c1.263,0.631,2.823,1.44,4.62,2.374c18.587,9.646,39.025,19.483,54.064,19.483c3.4,0,6.523-0.503,9.286-1.623
			c4.78-1.937,8.177-5.577,9.827-10.527C311.458,237.517,309.524,233.649,305.947,232.456z"/>
	</g>
</g>
<g>
</g>
<g>
</g>
<g>
</g>
<g>
</g>
<g>
</g>
<g>
</g>
<g>
</g>
<g>
</g>
<g>
</g>
<g>
</g>
<g>
</g>
<g>
</g>
<g>
</g>
<g>
</g>
<g>
</g>
</svg>
