<?xml version="1.0" encoding="iso-8859-1"?>
<!-- Generator: Adobe Illustrator 19.0.0, SVG Export Plug-In . SVG Version: 6.00 Build 0)  -->
<svg version="1.1" id="Capa_1" xmlns="http://www.w3.org/2000/svg" xmlns:xlink="http://www.w3.org/1999/xlink" x="0px" y="0px"
	 viewBox="0 0 382.293 382.293" style="enable-background:new 0 0 382.293 382.293;" xml:space="preserve">
<g>
	<g>
		<g>
			<path d="M102.4,232.107c-26.348,0-47.787,21.437-47.787,47.787c0,26.349,21.439,47.787,47.787,47.787
				s47.787-21.437,47.787-47.787C150.187,253.544,128.748,232.107,102.4,232.107z M102.4,314.027
				c-18.819,0-34.133-15.314-34.133-34.133c0-18.819,15.314-34.133,34.133-34.133c18.819,0,34.133,15.314,34.133,34.133
				C136.533,298.713,121.219,314.027,102.4,314.027z"/>
			<path d="M211.627,75.093c-37.641,0-68.267,30.623-68.267,68.267c0,37.644,30.626,68.267,68.267,68.267
				c37.641,0,68.267-30.623,68.267-68.267C279.893,105.716,249.267,75.093,211.627,75.093z M211.627,197.973
				c-30.114,0-54.613-24.499-54.613-54.613s24.499-54.613,54.613-54.613c30.114,0,54.613,24.499,54.613,54.613
				S241.741,197.973,211.627,197.973z"/>
			<path d="M348.16,204.8c8.373,0,16.454,3.106,22.753,8.745c2,1.8,4.886,2.248,7.34,1.15c2.453-1.099,4.04-3.54,4.04-6.233V6.827
				c0-3.77-3.053-6.827-6.827-6.827h-102.4c-3.773,0-6.827,3.057-6.827,6.827c0,18.819-15.314,34.133-34.133,34.133
				c-18.819,0-34.133-15.314-34.133-34.133c0-3.77-3.053-6.827-6.827-6.827H122.88c-3.773,0-6.827,3.057-6.827,6.827
				c0,18.819-15.314,34.133-34.133,34.133c-18.819,0-34.133-15.314-34.133-34.133C47.787,3.057,44.733,0,40.96,0H6.827
				C3.053,0,0,3.057,0,6.827V81.92c0,3.77,3.053,6.827,6.827,6.827c30.114,0,54.613,24.499,54.613,54.613
				s-24.499,54.613-54.613,54.613C3.053,197.973,0,201.03,0,204.8v170.667c0,3.77,3.053,6.827,6.827,6.827h223.647
				c2.627,0,5.019-1.507,6.153-3.874c1.14-2.369,0.814-5.176-0.826-7.226c-6.88-8.573-10.52-18.896-10.52-29.86
				c0-26.349,21.439-47.787,47.787-47.787c26.348,0,47.787,21.437,47.787,47.787c0,10.964-3.64,21.287-10.52,29.86
				c-1.64,2.05-1.966,4.855-0.826,7.226c1.133,2.367,3.526,3.874,6.153,3.874h59.807c3.773,0,6.827-3.057,6.827-6.827V269.402
				c0-2.693-1.586-5.134-4.04-6.233c-2.454-1.099-5.34-0.65-7.34,1.15c-6.299,5.641-14.38,8.747-22.753,8.747
				c-18.819,0-34.133-15.314-34.133-34.133C314.027,220.114,329.341,204.8,348.16,204.8z M300.373,238.933
				c0,26.349,21.439,47.787,47.787,47.787c7.141,0,14.126-1.608,20.48-4.64v86.56h-40.568c4.195-8.446,6.434-17.816,6.434-27.307
				c0-33.877-27.559-61.44-61.44-61.44s-61.44,27.563-61.44,61.44c0,9.491,2.241,18.86,6.434,27.307H13.653V211.287
				c34.447-3.437,61.44-32.591,61.44-67.927c0-35.336-26.993-64.49-61.44-67.927v-61.78H34.62c3.319,23.127,23.267,40.96,47.3,40.96
				c24.033,0,43.981-17.833,47.3-40.96h55.586c3.319,23.127,23.267,40.96,47.3,40.96c24.033,0,43.981-17.833,47.3-40.96h89.233
				v182.134c-6.354-3.034-13.339-4.64-20.48-4.64C321.813,191.147,300.373,212.584,300.373,238.933z"/>
		</g>
	</g>
</g>
<g>
</g>
<g>
</g>
<g>
</g>
<g>
</g>
<g>
</g>
<g>
</g>
<g>
</g>
<g>
</g>
<g>
</g>
<g>
</g>
<g>
</g>
<g>
</g>
<g>
</g>
<g>
</g>
<g>
</g>
</svg>
