<?xml version="1.0" encoding="iso-8859-1"?>
<!-- Generator: Adobe Illustrator 19.0.0, SVG Export Plug-In . SVG Version: 6.00 Build 0)  -->
<svg version="1.1" id="Capa_1" xmlns="http://www.w3.org/2000/svg" xmlns:xlink="http://www.w3.org/1999/xlink" x="0px" y="0px"
	 viewBox="0 0 430.418 430.418" style="enable-background:new 0 0 430.418 430.418;" xml:space="preserve">
<g>
	<g>
		<path d="M104.92,375.467c-36.166,0-75.093,8.547-75.093,27.307s38.927,27.307,75.093,27.307s75.093-8.547,75.093-27.307
			S141.086,375.467,104.92,375.467z M104.92,416.427c-39.934,0-60.407-9.965-61.454-13.549c1.046-3.791,21.521-13.757,61.454-13.757
			s60.406,9.967,61.454,13.549C165.327,406.46,144.854,416.427,104.92,416.427z"/>
	</g>
</g>
<g>
	<g>
		<path d="M104.92,281.076c-3.773,0-6.827,3.057-6.827,6.827v114.871c0,3.77,3.053,6.827,6.827,6.827s6.827-3.057,6.827-6.827
			V287.903C111.746,284.133,108.693,281.076,104.92,281.076z"/>
	</g>
</g>
<g>
	<g>
		<path d="M29.826,75.093C26.053,75.093,23,78.15,23,81.92v86.724c0,3.77,3.053,6.827,6.827,6.827s6.827-3.057,6.827-6.828V81.92
			C36.653,78.15,33.6,75.093,29.826,75.093z"/>
	</g>
</g>
<g>
	<g>
		<path d="M180.013,75.093c-3.773,0-6.827,3.057-6.827,6.827v87.238c0,3.77,3.053,6.827,6.827,6.827s6.827-3.057,6.827-6.828V81.92
			C186.84,78.15,183.786,75.093,180.013,75.093z"/>
	</g>
</g>
<g>
	<g>
		<path d="M173.186,162.33v56.19c0,33.84-27.568,61.373-61.454,61.373H98.107c-33.888,0-61.454-27.578-61.454-61.471v-56.603H23
			v56.603c0,41.424,33.693,75.124,75.107,75.124h13.626c41.414,0,75.107-33.655,75.107-75.027v-56.19H173.186z"/>
	</g>
</g>
<g>
	<g>
		<path d="M104.92,47.787C64.212,47.787,23,59.51,23,81.92c0,22.41,41.213,34.133,81.92,34.133c40.706,0,81.92-11.723,81.92-34.133
			C186.84,59.51,145.627,47.787,104.92,47.787z M104.92,102.4c-41.04,0-68.267-12.327-68.267-20.48
			c0-8.153,27.226-20.48,68.267-20.48s68.267,12.327,68.267,20.48C173.186,90.073,145.96,102.4,104.92,102.4z"/>
	</g>
</g>
<g>
	<g>
		<path d="M104.92,136.533c-40.707,0-81.92,11.723-81.92,34.133S64.212,204.8,104.92,204.8c40.706,0,81.92-11.723,81.92-34.133
			S145.627,136.533,104.92,136.533z M104.92,191.147c-41.04,0-68.267-12.327-68.267-20.48c0-8.153,27.226-20.48,68.267-20.48
			s68.267,12.327,68.267,20.48C173.186,178.819,145.96,191.147,104.92,191.147z"/>
	</g>
</g>
<g>
	<g>
		<path d="M407.285,390.472c-2.673-18.57-42.406-21.504-78.206-16.381c-18.693,2.673-36.033,7.412-48.833,13.343
			c-15.633,7.236-22.907,15.423-21.634,24.33c1.273,8.911,10.561,14.723,27.593,17.283c6.081,0.917,12.933,1.37,20.273,1.37
			c9.494,0,19.808-0.761,30.339-2.27C372.619,423.025,409.938,409.049,407.285,390.472z M334.888,414.635
			c-39.54,5.663-61.201-1.297-62.754-4.704c0.493-3.896,19.347-16.667,58.88-22.327c10.74-1.538,20.152-2.144,28.206-2.144
			c21.613,0,33.427,4.369,34.548,6.844C393.275,396.201,374.421,408.975,334.888,414.635z"/>
	</g>
</g>
<g>
	<g>
		<path d="M339.706,400.152l-16.213-113.213c-0.532-3.734-4.006-6.34-7.726-5.791c-3.734,0.533-6.327,3.992-5.794,7.723
			l16.213,113.213c0.486,3.407,3.406,5.861,6.753,5.861c0.321,0,0.647-0.024,0.973-0.07
			C337.646,407.342,340.238,403.883,339.706,400.152z"/>
	</g>
</g>
<g>
	<g>
		<path d="M232.179,179.034l-12.293-85.847c-0.532-3.734-3.987-6.351-7.726-5.791c-3.734,0.532-6.327,3.992-5.794,7.723
			l12.293,85.847c0.486,3.406,3.407,5.861,6.753,5.861c0.321,0,0.647-0.024,0.973-0.07
			C230.119,186.225,232.711,182.765,232.179,179.034z"/>
	</g>
</g>
<g>
	<g>
		<path d="M380.92,158.251l-12.367-86.357c-0.532-3.734-3.999-6.333-7.726-5.791c-3.734,0.532-6.327,3.992-5.794,7.723
			l12.367,86.357c0.486,3.406,3.406,5.861,6.753,5.861c0.319,0,0.647-0.022,0.973-0.07
			C378.86,165.441,381.453,161.981,380.92,158.251z"/>
	</g>
</g>
<g>
	<g>
		<path d="M387.919,207.114l-7.967-55.624l-13.52,1.934l7.967,55.624c2.326,16.227-1.813,32.389-11.66,45.51
			c-9.847,13.123-24.219,21.63-40.467,23.956l-13.486,1.934c-16.266,2.33-32.433-1.813-45.573-11.653
			c-13.133-9.844-21.647-24.221-23.974-40.484l-8.026-56.03l-13.52,1.934l8.026,56.03c2.847,19.872,13.254,37.443,29.307,49.476
			c13.133,9.841,28.754,15.014,44.88,15.014c3.586,0,7.2-0.254,10.813-0.773l13.486-1.934c19.86-2.84,37.422-13.239,49.454-29.276
			C385.692,246.714,390.759,226.954,387.919,207.114z"/>
	</g>
</g>
<g>
	<g>
		<path d="M368.555,71.89c-3.181-22.176-45.641-27.947-85.934-22.17c-20.627,2.953-39.687,8.699-53.68,16.179
			c-20.542,10.986-23.613,21.953-22.574,29.22c1.039,7.267,7.067,16.934,29.867,21.711c8.16,1.71,17.526,2.567,27.573,2.567
			c9.079,0,18.705-0.7,28.495-2.104c20.627-2.953,39.687-8.699,53.68-16.183C366.523,90.127,369.595,79.157,368.555,71.89z
			 M339.538,89.071c-12.619,6.753-30.085,11.976-49.172,14.71c-19.086,2.726-37.32,2.623-51.333-0.314
			c-12.594-2.637-18.686-7.062-19.147-10.283c-0.468-3.217,4.147-9.177,15.493-15.244c12.619-6.75,30.085-11.969,49.172-14.706
			c9.474-1.357,18.294-1.944,26.274-1.944c26.24,0,43.32,6.35,44.206,12.541C355.499,77.047,350.884,83.007,339.538,89.071z"/>
	</g>
</g>
<g>
	<g>
		<path d="M381.133,159.744c-1.039-7.267-7.067-16.934-29.867-21.711c-15.541-3.253-35.461-3.413-56.067-0.462
			c-20.627,2.953-39.687,8.699-53.68,16.179c-20.542,10.986-23.613,21.953-22.574,29.223c2.427,16.898,27.641,24.267,57.334,24.267
			c9.281,0,19.007-0.72,28.6-2.097c20.627-2.953,39.687-8.699,53.68-16.179C379.101,177.978,382.173,167.011,381.133,159.744z
			 M352.12,176.925c-12.619,6.75-30.085,11.969-49.172,14.706c-40.62,5.813-69.327-2.526-70.48-10.597
			c-0.468-3.217,4.147-9.177,15.493-15.244c12.619-6.75,30.085-11.969,49.172-14.706c9.194-1.316,18.179-1.973,26.6-1.973
			c9.066,0,17.466,0.763,24.733,2.287c12.594,2.637,18.686,7.062,19.147,10.283C368.081,164.898,363.466,170.858,352.12,176.925z"/>
	</g>
</g>
<g>
	<g>
		<path d="M200.493,0c-3.773,0-6.827,3.057-6.827,6.827V40.96c0,3.77,3.053,6.827,6.827,6.827s6.827-3.057,6.827-6.827V6.827
			C207.32,3.057,204.266,0,200.493,0z"/>
	</g>
</g>
<g>
	<g>
		<path d="M184.106,35.499l-27.307-20.48c-3.014-2.263-7.294-1.643-9.554,1.364c-2.266,3.017-1.654,7.298,1.367,9.557l27.307,20.48
			c1.227,0.923,2.661,1.367,4.087,1.367c2.08,0,4.127-0.942,5.466-2.731C187.739,42.039,187.126,37.758,184.106,35.499z"/>
	</g>
</g>
<g>
	<g>
		<path d="M253.741,16.382c-2.261-3.011-6.547-3.633-9.554-1.364l-27.307,20.48c-3.021,2.261-3.633,6.54-1.367,9.557
			c1.34,1.787,3.386,2.731,5.466,2.731c1.427,0,2.86-0.442,4.087-1.367l27.307-20.48C255.395,23.678,256.007,19.4,253.741,16.382z"
			/>
	</g>
</g>
<g>
</g>
<g>
</g>
<g>
</g>
<g>
</g>
<g>
</g>
<g>
</g>
<g>
</g>
<g>
</g>
<g>
</g>
<g>
</g>
<g>
</g>
<g>
</g>
<g>
</g>
<g>
</g>
<g>
</g>
</svg>
