<?xml version="1.0" encoding="iso-8859-1"?>
<!-- Generator: Adobe Illustrator 19.0.0, SVG Export Plug-In . SVG Version: 6.00 Build 0)  -->
<svg version="1.1" id="Capa_1" xmlns="http://www.w3.org/2000/svg" xmlns:xlink="http://www.w3.org/1999/xlink" x="0px" y="0px"
	 viewBox="0 0 389.12 389.12" style="enable-background:new 0 0 389.12 389.12;" xml:space="preserve">
<g>
	<g>
		<polygon points="53.014,48.135 20.48,27.655 47.787,61.788 0,68.615 47.787,79.708 13.653,109.575 56.32,97.637 61.44,82.268 
			61.44,61.788 		"/>
	</g>
</g>
<g>
	<g>
		<path d="M300.5,72.455c-0.195-5.955-0.548-15.92-92.747-38.914c-41.44-10.332-93.239-20.806-107.779-20.239
			c-29.252,0.973-53.1,28-52.067,59.018c0.981,29.36,23.494,50.941,52.721,50.934c0.667,0,1.333-0.007,2-0.032
			c13.339-0.44,61.633-7.54,106.3-16.367C301.046,88.648,300.733,79.288,300.5,72.455z M199.933,94.701
			c-41.766,8.04-86.065,14.488-97.76,14.88c-22.62,0.539-39.88-15.461-40.627-37.714c-0.766-23.212,17.399-44.206,38.88-44.926
			c0.346-0.007,0.707-0.014,1.087-0.014c28.414,0,159.974,31.567,182.987,45.607C278.047,75.935,258.432,83.434,199.933,94.701z"/>
	</g>
</g>
<g>
	<g>
		<path d="M107.261,46.102l-4.736-4.671l-4.951-4.951c-8.533,8.533-19.647,31.36-0.633,56.707l10.921-8.185
			C91.607,63.329,105.614,47.802,107.261,46.102z"/>
	</g>
</g>
<g>
	<g>
		<polygon points="53.014,300.721 20.48,280.241 47.787,314.375 0,321.201 47.787,332.295 13.653,362.161 56.32,350.223 
			61.44,334.855 61.44,314.375 		"/>
	</g>
</g>
<g>
	<g>
		<path d="M149.507,51.101l-6.05-2.919l-6.204-3.102c-0.814,1.626-7.747,16.747-0.514,45.667l13.24-3.306
			C143.981,63.421,149.455,51.22,149.507,51.101z"/>
	</g>
</g>
<g>
	<g>
		<path d="M189.206,59.728l-4.818-4.7l-4.895-4.895c-6.093,6.093-14.107,22.868-0.853,42.747L190,85.308
			C179.946,70.234,188.233,60.756,189.206,59.728z"/>
	</g>
</g>
<g>
	<g>
		<path d="M300.5,325.04c-0.195-5.955-0.548-15.92-92.747-38.914c-41.44-10.339-93.239-20.98-107.779-20.239
			c-29.254,0.973-53.1,28-52.067,59.02c0.981,29.36,23.494,50.941,52.721,50.934c0.667,0,1.333-0.007,2-0.034
			c13.339-0.44,61.633-7.54,106.3-16.367C301.046,341.233,300.733,331.873,300.5,325.04z M199.933,347.288
			c-41.766,8.04-86.065,14.488-97.76,14.88c-22.62,0.7-39.88-15.468-40.627-37.714c-0.766-23.212,17.399-44.206,38.88-44.926
			c0.346-0.007,0.707-0.014,1.087-0.014c28.414,0,159.974,31.567,182.987,45.607C278.047,328.521,258.432,336.02,199.933,347.288z"
			/>
	</g>
</g>
<g>
	<g>
		<path d="M107.261,298.689l-4.738-4.673l-4.949-4.949c-8.533,8.533-19.647,31.36-0.633,56.707l10.921-8.185
			C91.607,315.916,105.614,300.389,107.261,298.689z"/>
	</g>
</g>
<g>
	<g>
		<path d="M149.507,303.688l-6.05-2.919l-6.204-3.102c-0.814,1.626-7.747,16.747-0.514,45.667l13.24-3.306
			C143.981,316.008,149.455,303.807,149.507,303.688z"/>
	</g>
</g>
<g>
	<g>
		<polygon points="389.12,191.495 341.333,184.668 368.64,150.535 336.106,171.015 327.68,184.668 327.68,205.148 332.8,220.517 
			375.467,232.455 341.333,202.588 		"/>
	</g>
</g>
<g>
	<g>
		<path d="M189.206,312.315l-4.818-4.7l-4.895-4.895c-6.093,6.093-14.107,22.868-0.853,42.747l11.36-7.572
			C179.946,322.821,188.233,313.342,189.206,312.315z"/>
	</g>
</g>
<g>
	<g>
		<path d="M289.147,136.18c-14.619-0.701-66.347,9.899-107.779,20.239c-92.201,22.994-92.554,32.961-92.747,38.914
			c-0.234,6.833-0.548,16.193,91.573,34.4c44.667,8.827,92.96,15.927,106.3,16.367c0.667,0.027,1.333,0.034,2,0.034
			c29.22,0,51.739-21.572,52.721-50.934C342.246,164.18,318.401,137.153,289.147,136.18z M327.574,194.748
			c-0.747,22.248-18.067,38.287-40.627,37.714c-11.692-0.394-55.992-6.84-97.76-14.88c-58.501-11.266-78.114-18.766-84.567-22.166
			c23.02-14.041,154.586-45.607,182.987-45.607c0.381,0,0.747,0.007,1.087,0.014C310.175,150.542,328.34,171.534,327.574,194.748z"
			/>
	</g>
</g>
<g>
	<g>
		<path d="M291.548,159.36l-9.687,9.62c1.645,1.7,15.652,17.227-0.601,38.9l10.919,8.187
			C311.194,190.722,300.08,167.895,291.548,159.36z"/>
	</g>
</g>
<g>
	<g>
		<path d="M251.866,167.96l-12.254,6.019c0.055,0.119,5.528,12.32-0.473,36.34l13.24,3.308
			C259.613,184.707,252.681,169.588,251.866,167.96z"/>
	</g>
</g>
<g>
	<g>
		<path d="M209.626,173.013l-9.653,9.653c0.094,0.099,9.573,9.88-0.853,25.52l11.36,7.574
			C223.734,195.881,215.719,179.108,209.626,173.013z"/>
	</g>
</g>
<g>
</g>
<g>
</g>
<g>
</g>
<g>
</g>
<g>
</g>
<g>
</g>
<g>
</g>
<g>
</g>
<g>
</g>
<g>
</g>
<g>
</g>
<g>
</g>
<g>
</g>
<g>
</g>
<g>
</g>
</svg>
