<?xml version="1.0" encoding="iso-8859-1"?>
<!-- Generator: Adobe Illustrator 19.0.0, SVG Export Plug-In . SVG Version: 6.00 Build 0)  -->
<svg version="1.1" id="Capa_1" xmlns="http://www.w3.org/2000/svg" xmlns:xlink="http://www.w3.org/1999/xlink" x="0px" y="0px"
	 viewBox="0 0 395.273 395.273" style="enable-background:new 0 0 395.273 395.273;" xml:space="preserve">
<g>
	<g>
		<path d="M135.159,57.279l-2.874-50.546c-0.147-2.553-1.703-4.808-4.036-5.847c-2.343-1.053-5.057-0.695-7.05,0.906
			c-28.769,23.059-32.06,66.347-32.186,68.18c-0.259,3.755,2.577,7.008,6.333,7.274c0.162,0.014,0.323,0.014,0.483,0.014
			c3.55,0,6.547-2.746,6.803-6.34c0.024-0.326,2.147-27.534,16.913-47.7l1.98,34.833c0.213,3.767,3.557,6.595,7.204,6.427
			C132.493,64.266,135.372,61.046,135.159,57.279z"/>
	</g>
</g>
<g>
	<g>
		<path d="M76.956,92.639c-0.265-3.753-3.483-6.453-7.277-6.333c-1.83,0.126-45.116,3.42-68.178,32.193
			c-1.599,1.993-1.951,4.714-0.91,7.047s3.297,3.893,5.85,4.033l48.807,2.78c0.13,0.007,0.263,0.014,0.393,0.014
			c3.594,0,6.605-2.806,6.813-6.441c0.213-3.76-2.664-6.987-6.431-7.2l-33.097-1.886c20.169-14.773,47.374-16.893,47.7-16.913
			C74.383,99.659,77.219,96.399,76.956,92.639z"/>
	</g>
</g>
<g>
	<g>
		<path d="M97.438,63.846L43.695,33.133c-2.662-1.526-6.036-1.067-8.212,1.101c-2.178,2.173-2.628,5.54-1.101,8.212l31.556,55.226
			c1.261,2.207,3.564,3.441,5.934,3.441c1.147,0,2.314-0.287,3.381-0.901c3.273-1.867,4.41-6.04,2.54-9.313L58.656,57.405
			l32.009,18.294c3.28,1.888,7.446,0.741,9.313-2.539C101.848,69.886,100.711,65.72,97.438,63.846z"/>
	</g>
</g>
<g>
	<g>
		<path d="M317.641,236.245c-44.653-68.521-96.8-140.827-113.874-157.901c-16.761-16.759-39.047-25.993-62.754-25.993
			c-23.704,0-45.991,9.233-62.751,25.993c-16.763,16.761-25.996,39.047-25.996,62.754s9.233,45.995,25.996,62.754
			c17.027,17.026,89.428,69.093,158.097,113.693c99.813,64.819,133.693,77.44,146.826,77.44c5.175,0,7.134-1.959,8.636-3.461
			C397.127,386.218,408.174,375.171,317.641,236.245z M237.886,302.24c-65.62-42.887-134.296-92.367-149.97-108.041
			c-29.28-29.281-29.28-76.921,0-106.201c14.182-14.188,33.039-21.994,53.096-21.994c20.06,0,38.921,7.808,53.101,21.994
			c14,14.002,60.826,77.534,108.22,149.787c61.853,94.307,78.746,133.567,79.259,143.52
			C371.633,380.807,332.32,363.967,237.886,302.24z"/>
	</g>
</g>
<g>
	<g>
		<path d="M198.886,112.633c-0.22-3.76-3.521-6.641-7.207-6.414c-1.526,0.087-37.485,2.393-57.433,22.34
			c-19.944,19.946-22.253,55.905-22.344,57.433c-0.217,3.76,2.657,6.987,6.42,7.207c0.137,0.007,0.27,0.014,0.403,0.014
			c3.587,0,6.598-2.801,6.81-6.432c0.017-0.319,2.053-32.253,18.364-48.567c16.244-16.247,48.253-18.347,48.573-18.367
			C196.239,119.62,199.106,116.393,198.886,112.633z"/>
	</g>
</g>
<g>
	<g>
		<path d="M235.113,172.94c-0.22-3.76-3.473-6.501-7.2-6.407c-1.108,0.06-27.18,1.739-41.76,16.319
			c-14.582,14.58-16.256,40.648-16.323,41.754c-0.217,3.76,2.65,6.98,6.41,7.2c0.14,0.014,0.273,0.014,0.413,0.014
			c3.579,0,6.586-2.794,6.808-6.415c0.012-0.22,1.466-22.019,12.346-32.899s32.686-12.332,32.906-12.346
			C232.473,179.934,235.34,176.7,235.113,172.94z"/>
	</g>
</g>
<g>
	<g>
		<path d="M270.125,229.645c-0.22-3.76-3.335-6.661-7.214-6.414c-1.714,0.101-17.007,1.241-26.073,10.307
			c-9.066,9.059-10.199,24.366-10.3,26.08c-0.22,3.753,2.647,6.973,6.4,7.2c0.14,0.007,0.28,0.014,0.42,0.014
			c3.574,0,6.581-2.792,6.806-6.405c0.207-3.241,1.739-12.653,6.327-17.234c4.588-4.588,14-6.127,17.22-6.333
			C267.472,236.639,270.346,233.412,270.125,229.645z"/>
	</g>
</g>
<g>
</g>
<g>
</g>
<g>
</g>
<g>
</g>
<g>
</g>
<g>
</g>
<g>
</g>
<g>
</g>
<g>
</g>
<g>
</g>
<g>
</g>
<g>
</g>
<g>
</g>
<g>
</g>
<g>
</g>
</svg>
