<?xml version="1.0" encoding="iso-8859-1"?>
<!-- Generator: Adobe Illustrator 19.0.0, SVG Export Plug-In . SVG Version: 6.00 Build 0)  -->
<svg version="1.1" id="Capa_1" xmlns="http://www.w3.org/2000/svg" xmlns:xlink="http://www.w3.org/1999/xlink" x="0px" y="0px"
	 viewBox="0 0 394.705 394.705" style="enable-background:new 0 0 394.705 394.705;" xml:space="preserve">
<g>
	<g>
		<path d="M389.851,200.415c-6.627-6.627-20.963-12.182-37.567-18.613c-12.017-4.656-24.439-9.469-31.986-14.196
			c-12.597-7.886-23.429-17.36-33.91-26.52C264.571,122.014,243.963,104,212.127,104c-39.777,0-69.77,20.05-104.498,43.264
			c-5.606,3.746-11.346,7.583-17.277,11.433c-21.857,14.182-39.03,20.746-52.83,26.016c-12.367,4.726-22.134,8.457-29.38,15.703
			c-7.767,7.765-8.62,15.217-7.967,20.099c1.707,12.733,14.751,20.526,16.234,21.373c1.067,0.609,2.232,0.899,3.379,0.899
			c2.369,0,4.673-1.234,5.934-3.437c1.87-3.273,0.734-7.443-2.539-9.313c-1.821-1.041-8.76-6.011-9.474-11.334
			c-0.133-0.99-0.536-4.011,4.087-8.634c5.187-5.187,13.329-8.298,24.596-12.6c13.643-5.214,32.326-12.351,55.393-27.32
			c5.984-3.884,11.774-7.753,17.43-11.537c32.879-21.98,61.276-40.96,96.91-40.96c26.709,0,44.58,15.623,65.273,33.71
			c10.88,9.513,22.134,19.35,35.651,27.817c8.648,5.417,21.69,10.467,34.301,15.353c13.244,5.13,28.257,10.948,32.846,15.537
			c3.326,3.331-3.724,14.517-10.247,21.074c-2.656,2.669-2.649,6.989,0.017,9.65c2.666,2.661,6.982,2.657,9.643-0.003
			c0.234-0.234,5.763-5.794,9.987-12.834C398.668,212.841,393.648,204.212,389.851,200.415z"/>
	</g>
</g>
<g>
	<g>
		<path d="M10.121,229.261l26.334,61.44h323.028l26.332-61.44H10.121z M350.483,277.048H45.456L30.83,242.914h334.28
			L350.483,277.048z"/>
	</g>
</g>
<g>
	<g>
		<path d="M197.969,236.088c-3.77,0-6.827,3.057-6.827,6.827v40.96c0,3.77,3.057,6.827,6.827,6.827s6.827-3.057,6.827-6.827v-40.96
			C204.795,239.144,201.739,236.088,197.969,236.088z"/>
	</g>
</g>
<g>
	<g>
		<path d="M211.622,126.861c-3.77,0-6.827,3.057-6.827,6.827v10.24c0,3.77,3.057,6.827,6.827,6.827c3.77,0,6.827-3.057,6.827-6.827
			v-10.24C218.449,129.918,215.392,126.861,211.622,126.861z"/>
	</g>
</g>
<g>
	<g>
		<path d="M185.728,135.688c-2.666-2.666-6.987-2.666-9.653,0l-10.24,10.24c-2.666,2.666-2.666,6.987,0,9.653
			c1.333,1.333,3.081,2,4.826,2c1.748,0,3.494-0.666,4.826-2l10.24-10.24C188.394,142.675,188.394,138.354,185.728,135.688z"/>
	</g>
</g>
<g>
	<g>
		<path d="M253.995,145.928l-10.24-10.24c-2.666-2.666-6.987-2.666-9.653,0c-2.666,2.666-2.666,6.987,0,9.653l10.24,10.24
			c1.333,1.333,3.081,2,4.826,2c1.748,0,3.494-0.666,4.826-2C256.661,152.915,256.661,148.594,253.995,145.928z"/>
	</g>
</g>
<g>
	<g>
		<path d="M81.651,281.999l-13.653-47.787c-1.033-3.623-4.809-5.726-8.439-4.687c-3.623,1.036-5.722,4.813-4.687,8.44l13.653,47.787
			c0.857,2.997,3.591,4.953,6.56,4.953c0.62,0,1.254-0.087,1.879-0.266C80.588,289.402,82.687,285.625,81.651,281.999z"/>
	</g>
</g>
<g>
	<g>
		<path d="M336.378,229.526c-3.627-1.038-7.407,1.063-8.44,4.687l-13.653,47.787c-1.038,3.627,1.063,7.404,4.687,8.439
			c0.628,0.179,1.261,0.266,1.881,0.266c2.97,0,5.704-1.956,6.559-4.953l13.653-47.787
			C342.102,234.338,340.001,230.561,336.378,229.526z"/>
	</g>
</g>
<g>
	<g>
		<path d="M295.418,229.526c-3.623-1.038-7.407,1.063-8.439,4.687l-13.653,47.787c-1.038,3.627,1.063,7.404,4.687,8.439
			c0.628,0.179,1.261,0.266,1.881,0.266c2.97,0,5.704-1.956,6.559-4.953l13.653-47.787
			C301.142,234.338,299.041,230.563,295.418,229.526z"/>
	</g>
</g>
<g>
	<g>
		<path d="M122.611,281.999l-13.653-47.787c-1.033-3.623-4.813-5.726-8.439-4.687c-3.623,1.036-5.722,4.813-4.687,8.44
			l13.653,47.787c0.857,2.997,3.591,4.953,6.56,4.953c0.62,0,1.254-0.087,1.879-0.266
			C121.548,289.402,123.647,285.625,122.611,281.999z"/>
	</g>
</g>
<g>
	<g>
		<path d="M163.765,282.908l-6.827-47.787c-0.532-3.731-3.966-6.308-7.723-5.791c-3.731,0.532-6.323,3.988-5.791,7.723l6.827,47.787
			c0.486,3.405,3.406,5.861,6.746,5.861c0.324,0,0.647-0.022,0.976-0.07C161.705,290.099,164.298,286.643,163.765,282.908z"/>
	</g>
</g>
<g>
	<g>
		<path d="M246.721,229.331c-3.743-0.546-7.192,2.055-7.723,5.791l-6.827,47.787c-0.532,3.732,2.06,7.19,5.791,7.723
			c0.329,0.046,0.654,0.07,0.976,0.07c3.34,0,6.26-2.456,6.746-5.861l6.827-47.787C253.044,233.321,250.452,229.863,246.721,229.331
			z"/>
	</g>
</g>
<g>
</g>
<g>
</g>
<g>
</g>
<g>
</g>
<g>
</g>
<g>
</g>
<g>
</g>
<g>
</g>
<g>
</g>
<g>
</g>
<g>
</g>
<g>
</g>
<g>
</g>
<g>
</g>
<g>
</g>
</svg>
