<?xml version="1.0" encoding="iso-8859-1"?>
<!-- Generator: Adobe Illustrator 19.0.0, SVG Export Plug-In . SVG Version: 6.00 Build 0)  -->
<svg version="1.1" id="Capa_1" xmlns="http://www.w3.org/2000/svg" xmlns:xlink="http://www.w3.org/1999/xlink" x="0px" y="0px"
	 viewBox="0 0 409.602 409.602" style="enable-background:new 0 0 409.602 409.602;" xml:space="preserve">
<g>
	<g>
		<path d="M402.775,269.652H6.828c-3.77,0-6.827,3.053-6.827,6.827v61.44c0,3.773,3.057,6.827,6.827,6.827h395.947
			c3.77,0,6.827-3.053,6.827-6.827v-61.44C409.602,272.705,406.545,269.652,402.775,269.652z M395.948,331.092H13.655v-47.787
			h382.293V331.092z"/>
	</g>
</g>
<g>
	<g>
		<path d="M402.775,174.079H6.828c-3.77,0-6.827,3.053-6.827,6.827v61.44c0,3.773,3.057,6.827,6.827,6.827h395.947
			c3.77,0,6.827-3.053,6.827-6.827v-61.44C409.602,177.132,406.545,174.079,402.775,174.079z M395.948,235.519H13.655v-47.787
			h382.293V235.519z"/>
	</g>
</g>
<g>
	<g>
		<path d="M402.775,235.519H6.828c-3.77,0-6.827,3.053-6.827,6.827v34.133c0,3.773,3.057,6.827,6.827,6.827h395.947
			c3.77,0,6.827-3.053,6.827-6.827v-34.133C409.602,238.572,406.545,235.519,402.775,235.519z M395.948,269.652H13.655v-20.48
			h382.293V269.652z"/>
	</g>
</g>
<g>
	<g>
		<path d="M407.311,175.806L284.431,66.579c-1.93-1.72-4.658-2.188-7.074-1.241L4.291,174.565c-3.036,1.22-4.787,4.42-4.166,7.634
			c0.621,3.214,3.43,5.533,6.704,5.533h395.947c2.833,0,5.373-1.753,6.38-4.4C410.162,180.685,409.428,177.686,407.311,175.806z
			 M42.276,174.079l236.237-94.495l106.307,94.495H42.276z"/>
	</g>
</g>
<g>
	<g>
		<path d="M266.242,105.812h-6.827c-3.77,0-6.827,3.053-6.827,6.827s3.057,6.827,6.827,6.827h6.827c3.77,0,6.827-3.053,6.827-6.827
			S270.012,105.812,266.242,105.812z"/>
	</g>
</g>
<g>
	<g>
		<path d="M292.828,130.065c-1.683-3.367-5.782-4.733-9.16-3.053l-13.653,6.827c-3.374,1.686-4.739,5.786-3.053,9.16
			c1.196,2.393,3.606,3.773,6.113,3.773c1.024,0,2.067-0.234,3.046-0.72l13.653-6.827
			C293.149,137.539,294.514,133.439,292.828,130.065z"/>
	</g>
</g>
<g>
	<g>
		<path d="M251.868,130.065c-1.686-3.367-5.782-4.733-9.16-3.053l-13.653,6.827c-3.374,1.686-4.739,5.786-3.053,9.16
			c1.196,2.393,3.606,3.773,6.113,3.773c1.024,0,2.067-0.234,3.046-0.72l13.653-6.827
			C252.189,137.539,253.554,133.439,251.868,130.065z"/>
	</g>
</g>
<g>
	<g>
		<path d="M191.148,139.945h-13.653c-3.77,0-6.827,3.053-6.827,6.827s3.057,6.827,6.827,6.827h13.653
			c3.77,0,6.827-3.053,6.827-6.827S194.918,139.945,191.148,139.945z"/>
	</g>
</g>
<g>
	<g>
		<path d="M257.415,162.425l-6.827-6.827c-2.666-2.666-6.987-2.666-9.653,0c-2.666,2.666-2.666,6.987,0,9.653l6.827,6.827
			c1.333,1.333,3.081,2,4.826,2c1.748,0,3.494-0.667,4.826-2C260.081,169.413,260.081,165.091,257.415,162.425z"/>
	</g>
</g>
<g>
	<g>
		<path d="M332.508,148.772c-2.666-2.666-6.987-2.666-9.653,0l-6.827,6.827c-2.666,2.666-2.666,6.987,0,9.653
			c1.333,1.333,3.081,2,4.826,2c1.748,0,3.494-0.667,4.826-2l6.827-6.827C335.174,155.759,335.174,151.438,332.508,148.772z"/>
	</g>
</g>
<g>
	<g>
		<path d="M143.362,146.772h-13.653c-3.77,0-6.827,3.053-6.827,6.827s3.057,6.827,6.827,6.827h13.653
			c3.77,0,6.827-3.053,6.827-6.827S147.132,146.772,143.362,146.772z"/>
	</g>
</g>
<g>
	<g>
		<path d="M223.281,100.985c-2.666-2.666-6.987-2.666-9.653,0l-13.653,13.653c-2.666,2.666-2.666,6.987,0,9.653
			c1.333,1.333,3.081,2,4.826,2c1.748,0,3.494-0.667,4.826-2l13.653-13.653C225.947,107.973,225.947,103.651,223.281,100.985z"/>
	</g>
</g>
<g>
</g>
<g>
</g>
<g>
</g>
<g>
</g>
<g>
</g>
<g>
</g>
<g>
</g>
<g>
</g>
<g>
</g>
<g>
</g>
<g>
</g>
<g>
</g>
<g>
</g>
<g>
</g>
<g>
</g>
</svg>
