<?xml version="1.0" encoding="iso-8859-1"?>
<!-- Generator: Adobe Illustrator 19.0.0, SVG Export Plug-In . SVG Version: 6.00 Build 0)  -->
<svg version="1.1" id="Capa_1" xmlns="http://www.w3.org/2000/svg" xmlns:xlink="http://www.w3.org/1999/xlink" x="0px" y="0px"
	 viewBox="0 0 430.08 430.08" style="enable-background:new 0 0 430.08 430.08;" xml:space="preserve">
<g>
	<g>
		<path d="M361.813,320.852H13.846c1.86-32.94,17.147-64.307,43.52-88.953c2.753-2.572,2.9-6.893,0.326-9.646
			c-2.567-2.76-6.893-2.906-9.646-0.326C17.06,250.88,0,288.44,0,327.68c0,3.773,3.053,6.827,6.827,6.827h354.987
			c3.773,0,6.827-3.055,6.827-6.828S365.587,320.852,361.813,320.852z"/>
	</g>
</g>
<g>
	<g>
		<path d="M338.587,130.307c-6.967-20.681-26.24-34.734-48.454-34.734c-22.013,0-41.407,14.174-48.413,34.533
			c-0.587-0.073-1.179-0.14-1.766-0.193c-8.774-16.846-26.148-27.513-45.394-27.513c-22.221,0-41.492,14.06-48.452,34.746
			c-16.061,2.388-30.188,12.368-37.787,26.701c-33.461,0.486-60.534,27.86-60.534,61.433c0,19.739,9.586,38.407,25.646,49.94
			c1.207,0.867,2.592,1.28,3.973,1.28c2.128,0,4.221-0.986,5.553-2.847c2.2-3.06,1.5-7.327-1.567-9.527
			C68.9,255.154,61.44,240.633,61.44,225.28c0-26.348,21.439-47.787,47.787-47.787c0.7,0,1.386,0.053,2.068,0.101l0.867,0.053
			c3.046,0.099,5.613-1.514,6.726-4.207c5.506-13.353,18.4-22.432,32.84-23.146c3.046-0.154,5.62-2.301,6.313-5.267
			c3.987-17.062,19.005-28.974,36.519-28.974c15.2,0,28.807,9.073,34.661,23.105c1.06,2.546,3.546,4.2,6.299,4.2
			c3.053,0,6.221,0.422,9.414,1.241c1.807,0.481,3.739,0.181,5.333-0.819c1.587-0.998,2.7-2.606,3.067-4.446
			c3.499-17.447,18.98-30.107,36.799-30.107c17.514,0,32.532,11.913,36.521,28.974c0.693,2.966,3.267,5.113,6.313,5.267
			c19.999,0.981,35.673,17.427,35.673,37.441c0,9.58-3.599,18.693-10.146,25.673c-2.579,2.746-2.439,7.066,0.314,9.646
			c2.739,2.572,7.059,2.432,9.646-0.314c8.926-9.513,13.839-21.948,13.839-35.007C382.293,155.279,363.46,133.939,338.587,130.307z"
			/>
	</g>
</g>
<g>
	<g>
		<path d="M245.76,170.667c-101.634,0-184.32,70.434-184.32,157.013c0,3.773,3.053,6.827,6.827,6.827h354.987
			c3.773,0,6.827-3.053,6.827-6.827C430.08,241.101,347.394,170.667,245.76,170.667z M75.286,320.853
			c4.253-75.894,79.085-136.533,170.472-136.533s166.221,60.64,170.474,136.533H75.286z"/>
	</g>
</g>
<g>
	<g>
		<path d="M139.947,245.76c-13.174,0-23.893,10.72-23.893,23.893s10.72,23.893,23.893,23.893s23.893-10.72,23.893-23.893
			S153.12,245.76,139.947,245.76z M139.947,279.893c-5.647,0-10.24-4.593-10.24-10.24c0-5.647,4.593-10.24,10.24-10.24
			s10.24,4.593,10.24,10.24C150.187,275.301,145.594,279.893,139.947,279.893z"/>
	</g>
</g>
<g>
	<g>
		<path d="M283.307,266.24c-13.174,0-23.893,10.72-23.893,23.893c0,13.174,10.72,23.893,23.893,23.893s23.893-10.72,23.893-23.893
			C307.2,276.96,296.48,266.24,283.307,266.24z M283.307,300.373c-5.647,0-10.24-4.593-10.24-10.24c0-5.647,4.593-10.24,10.24-10.24
			c5.647,0,10.24,4.593,10.24,10.24C293.547,295.781,288.954,300.373,283.307,300.373z"/>
	</g>
</g>
<g>
	<g>
		<path d="M218.453,225.28c-11.293,0-20.48,9.187-20.48,20.48c0,11.293,9.187,20.48,20.48,20.48s20.48-9.187,20.48-20.48
			C238.933,234.467,229.746,225.28,218.453,225.28z M218.453,252.587c-3.767,0-6.827-3.06-6.827-6.827
			c0-3.767,3.06-6.827,6.827-6.827s6.827,3.06,6.827,6.827C225.28,249.527,222.22,252.587,218.453,252.587z"/>
	</g>
</g>
<g>
</g>
<g>
</g>
<g>
</g>
<g>
</g>
<g>
</g>
<g>
</g>
<g>
</g>
<g>
</g>
<g>
</g>
<g>
</g>
<g>
</g>
<g>
</g>
<g>
</g>
<g>
</g>
<g>
</g>
</svg>
