<?xml version="1.0" encoding="iso-8859-1"?>
<!-- Generator: Adobe Illustrator 19.0.0, SVG Export Plug-In . SVG Version: 6.00 Build 0)  -->
<svg version="1.1" id="Capa_1" xmlns="http://www.w3.org/2000/svg" xmlns:xlink="http://www.w3.org/1999/xlink" x="0px" y="0px"
	 viewBox="0 0 436.901 436.901" style="enable-background:new 0 0 436.901 436.901;" xml:space="preserve">
<g>
	<g>
		<path d="M214.042,222.005c-3.686-0.14-6.946,2.767-7.107,6.533l-2.599,62.266c-9.527-12.853-23.799-30.667-38.753-44.153
			c-2.792-2.528-7.107-2.314-9.639,0.493c-2.528,2.799-2.307,7.118,0.493,9.639c24.412,22.019,47.939,57.747,48.179,58.1
			c1.28,1.961,3.447,3.087,5.707,3.087c0.608,0,1.213-0.08,1.811-0.246c2.86-0.787,4.888-3.335,5.007-6.294l3.434-82.319
			C220.736,225.345,217.809,222.159,214.042,222.005z"/>
	</g>
</g>
<g>
	<g>
		<path d="M288.555,248.812c-3.133-2.094-7.373-1.248-9.467,1.906c-8.199,12.334-14.766,23.166-19.666,32.44l-10.066-64.56
			c-0.58-3.721-4.006-6.253-7.799-5.693c-3.727,0.58-6.274,4.072-5.693,7.799l13.773,88.293c0.5,3.207,3.2,5.62,6.446,5.767
			c0.101,0.007,0.2,0.007,0.3,0.007c3.127,0,5.868-2.127,6.625-5.18c1.814-7.306,8.047-22.139,27.453-51.313
			C292.549,255.138,291.695,250.906,288.555,248.812z"/>
	</g>
</g>
<g>
	<g>
		<path d="M313.129,264.057c-3.28-1.867-7.446-0.727-9.313,2.553c-27.38,48.073-38.893,111.886-41.946,131.613h-61.566
			c-10.713-67.719-52.62-120.992-70.526-141.126c-2.507-2.826-6.822-3.081-9.634-0.567c-2.819,2.507-3.074,6.822-0.567,9.634
			c17.587,19.78,59.419,72.987,68.04,139.761c0.44,3.406,3.34,5.953,6.774,5.953h73.393c3.434,0,6.333-2.553,6.772-5.961
			c0.101-0.773,10.361-78.539,41.127-132.547C317.55,270.09,316.403,265.924,313.129,264.057z"/>
	</g>
</g>
<g>
	<g>
		<path d="M207.768,211.594c-0.8-3.686-4.448-6.074-8.12-5.214c-3.686,0.8-6.021,4.441-5.214,8.12
			c1.172,5.407,0.193,10.9-2.773,15.461c-2.879,4.441-7.313,7.473-12.486,8.54c-4.961,1.034-10.12,0.126-14.534-2.546
			c-1.993-1.225-4.507-1.333-6.607-0.266c-2.101,1.06-3.514,3.12-3.734,5.466c-0.72,7.719-6.233,13.947-13.727,15.493
			c-5.487,1.172-11.08-0.381-15.374-4.161c-1.62-1.434-3.826-2.039-5.939-1.553c-2.121,0.454-3.895,1.881-4.787,3.854
			c-2.319,5.106-6.774,8.68-12.22,9.807c-7.545,1.548-15.246-1.966-19.166-8.793c-1.161-2.034-3.287-3.326-5.627-3.427
			c-2.326-0.094-4.567,1.007-5.9,2.927c-2.886,4.161-7.2,7.013-12.146,8.04c-10.86,2.234-21.693-4.914-24.1-15.973
			c-0.486-2.26-0.606-4.547-0.353-6.799c0.42-3.659-2.147-6.994-5.787-7.526c-7.421-1.087-13.488-6.813-15.101-14.24
			c-1.481-6.781,1.053-13.814,6.446-17.927c1.56-1.188,2.526-2.987,2.666-4.941s-0.567-3.874-1.94-5.274
			c-2.767-2.813-4.68-6.352-5.519-10.226c-2.273-10.419,3.806-20.813,13.839-23.66c1.893-0.541,3.466-1.867,4.306-3.654
			c0.84-1.78,0.874-3.84,0.08-5.647c-0.493-1.133-0.881-2.333-1.147-3.54c-1.039-4.753-0.172-9.58,2.434-13.594
			c2.533-3.888,6.421-6.554,10.953-7.487c3.453-0.72,5.792-3.946,5.4-7.446c-0.16-1.381-0.486-2.761-0.84-4.154l-0.34-1.393
			c-1.033-4.753-0.166-9.573,2.434-13.587c2.533-3.895,6.42-6.554,10.953-7.494c5.487-1.159,11.093,0.374,15.38,4.154
			c1.62,1.427,3.792,2.019,5.946,1.553c2.115-0.454,3.888-1.881,4.78-3.847c2.319-5.106,6.774-8.687,12.22-9.813
			c9.527-2.014,19.06,4.32,21.18,14.053c0.259,1.193,0.399,2.406,0.42,3.62c0.034,2.034,0.973,3.948,2.56,5.214
			c1.585,1.273,3.652,1.773,5.652,1.36c3.186-0.667,6.467-0.493,9.474,0.473c3.62,1.181,7.433-0.812,8.593-4.393
			c1.161-3.593-0.806-7.439-4.393-8.593c-2.966-0.959-6.067-1.473-9.187-1.533c-4.115-16.473-20.553-26.972-37.074-23.573
			c-6.992,1.454-13.227,5.315-17.673,10.767c-6.315-3.273-13.541-4.279-20.654-2.813c-8.127,1.686-15.101,6.453-19.627,13.433
			c-4.393,6.76-5.994,14.8-4.553,22.781c-5.292,2.406-9.8,6.279-13.053,11.279c-4.492,6.921-6.065,15.188-4.453,23.354
			c-12.981,6.919-20.241,21.999-16.954,37.086c0.899,4.134,2.533,8.033,4.813,11.527c-6.054,7.32-8.561,17.248-6.473,26.841
			c2.379,10.914,10.307,19.721,20.519,23.361c0.108,1.734,0.353,3.473,0.727,5.193c3.999,18.354,22.026,30.188,40.219,26.453
			c5.425-1.133,10.399-3.553,14.553-7.026c5.879,5.705,13.734,8.933,21.914,8.933c2.108,0,4.241-0.213,6.366-0.657
			c6.992-1.447,13.227-5.308,17.679-10.76c6.301,3.26,13.52,4.272,20.64,2.813c10.387-2.147,18.645-9.288,22.439-18.78
			c5.221,1.526,10.754,1.753,16.174,0.633c8.759-1.813,16.28-6.953,21.159-14.473C208.082,229.755,209.734,220.588,207.768,211.594z
			"/>
	</g>
</g>
<g>
	<g>
		<path d="M61.811,205.257c-7.526,0-13.653-6.127-13.653-13.653c0-7.526,6.127-13.653,13.653-13.653
			c3.773,0,6.827-3.053,6.827-6.827s-3.053-6.827-6.827-6.827c-15.06,0-27.307,12.247-27.307,27.307s12.247,27.307,27.307,27.307
			c3.773,0,6.827-3.053,6.827-6.827S65.584,205.257,61.811,205.257z"/>
	</g>
</g>
<g>
	<g>
		<path d="M121.664,131.47c-2.253-6.939-7.072-12.587-13.573-15.899c-6.487-3.313-13.892-3.893-20.833-1.64
			c-6.941,2.253-12.582,7.072-15.894,13.573c-3.308,6.501-3.893,13.901-1.64,20.833c0.94,2.888,3.613,4.721,6.494,4.721
			c0.7,0,1.406-0.106,2.108-0.334c3.586-1.167,5.553-5.019,4.386-8.6c-2.326-7.166,1.608-14.88,8.76-17.207
			c7.166-2.306,14.88,1.608,17.207,8.767c1.167,3.586,5.007,5.547,8.6,4.386C120.863,138.902,122.831,135.057,121.664,131.47z"/>
	</g>
</g>
<g>
	<g>
		<path d="M138.882,202.902c-4.686-5.586-11.266-9.013-18.533-9.646c-7.267-0.64-14.348,1.601-19.934,6.287
			s-9.013,11.266-9.646,18.533c-0.64,7.267,1.594,14.348,6.287,19.934c1.347,1.615,3.279,2.441,5.233,2.441
			c1.548,0,3.101-0.526,4.379-1.599c2.886-2.42,3.267-6.728,0.84-9.614c-2.34-2.794-3.461-6.333-3.14-9.974
			c0.319-3.627,2.026-6.921,4.82-9.267c2.794-2.34,6.301-3.473,9.974-3.14c3.627,0.319,6.921,2.026,9.267,4.82
			c2.42,2.893,6.721,3.273,9.614,0.84C140.928,210.096,141.309,205.788,138.882,202.902z"/>
	</g>
</g>
<g>
	<g>
		<path d="M432.798,116.451c-4.521-8.154-12.107-14.073-21.354-16.66c-1.761-0.493-3.546-0.853-5.354-1.08
			c-3.034-10.213-11.442-18.533-22.361-21.586c-9.641-2.7-19.913-0.887-27.767,4.547c-3.453-2.526-7.373-4.434-11.587-5.613
			c-14.534-4.074-29.908,1.193-38.214,13.08c-2.161,3.092-1.408,7.345,1.679,9.506c3.093,2.161,7.346,1.408,9.506-1.679
			c5.001-7.148,14.38-10.281,23.347-7.76c3.968,1.115,7.494,3.234,10.201,6.147c1.294,1.393,3.108,2.179,5,2.179
			c0.007,0,0.007,0,0.014,0c1.901,0,3.714-0.8,5-2.193c4.647-5.033,12.167-7.033,19.14-5.067c7.526,2.106,12.972,8.359,13.56,15.567
			c0.299,3.654,3.466,6.526,7.079,6.267c2.367-0.121,4.762,0.186,7.074,0.833c5.707,1.601,10.354,5.193,13.094,10.134
			c2.447,4.42,3.034,9.44,1.654,14.147c-1.381,4.68-4.586,8.639-9.027,11.146c-2.087,1.179-3.406,3.367-3.473,5.76
			c-0.06,2.393,1.133,4.646,3.154,5.939c6.646,4.246,9.719,11.86,7.646,18.927c-1.521,5.159-5.494,9.219-10.9,11.133
			c-2.087,0.734-3.686,2.439-4.294,4.567c-0.608,2.128-0.14,4.42,1.246,6.147c3.5,4.354,4.647,9.781,3.147,14.894
			c-2.106,7.146-8.919,12.059-16.966,12.227c-2.381,0.053-4.567,1.34-5.76,3.4c-1.202,2.06-1.234,4.593-0.101,6.687
			c2.381,4.379,2.941,9.346,1.574,13.993c-3.053,10.366-14.694,16.234-25.914,13.1c-2.314-0.647-4.473-1.633-6.414-2.941
			c-3.007-2.014-7.06-1.335-9.233,1.539c-4.48,5.888-12.566,8.4-20.166,6.294c-6.921-1.94-12.167-7.448-13.36-14.034
			c-0.346-1.888-1.466-3.54-3.092-4.56c-1.62-1.027-3.606-1.321-5.446-0.8c-3.901,1.087-8.067,1.06-12.047-0.046
			c-8.127-2.275-14.119-8.76-15.28-16.534c-0.553-3.719-4.021-6.253-7.76-5.746c-3.726,0.56-6.299,4.033-5.746,7.76
			c1.954,13.087,11.807,23.946,25.114,27.667c4.2,1.174,8.554,1.608,12.807,1.227c3.753,8.68,11.513,15.52,21.14,18.214
			c2.98,0.835,6.013,1.234,9.006,1.234c7.987,0,15.741-2.847,21.608-8.013c1.674,0.753,3.406,1.386,5.2,1.886
			c18.381,5.147,37.547-4.907,42.68-22.393c1.526-5.166,1.693-10.547,0.56-15.727c9.914-3.034,17.76-10.593,20.7-20.581
			c1.968-6.706,1.434-13.867-1.34-20.253c5.852-3.927,10.126-9.667,12.14-16.493c2.927-9.986,0.399-20.466-6.333-28.206
			c3.753-3.78,6.513-8.405,8.026-13.56C438.03,132.832,437.03,124.092,432.798,116.451z"/>
	</g>
</g>
<g>
	<g>
		<path d="M386.803,118.27c-6.601-13.532-22.955-19.18-36.514-12.573c-6.554,3.2-11.472,8.753-13.846,15.654
			c-2.374,6.9-1.92,14.307,1.28,20.861c1.181,2.427,3.615,3.833,6.141,3.833c1,0,2.028-0.22,2.985-0.695
			c3.388-1.654,4.794-5.741,3.14-9.127c-1.599-3.273-1.828-6.979-0.64-10.426c1.188-3.448,3.647-6.226,6.927-7.827
			c6.76-3.292,14.952-0.486,18.26,6.287c1.647,3.388,5.721,4.82,9.127,3.14C387.05,125.744,388.456,121.656,386.803,118.27z"/>
	</g>
</g>
<g>
	<g>
		<path d="M396.971,180.123c-1.514-7.134-5.721-13.254-11.834-17.227c-6.127-3.966-13.42-5.333-20.553-3.806
			c-7.134,1.514-13.254,5.721-17.227,11.834c-2.053,3.166-1.154,7.393,2.007,9.446c3.173,2.06,7.4,1.154,9.446-2.007
			c4.099-6.327,12.559-8.12,18.886-4.014c3.06,1.987,5.161,5.04,5.92,8.614c0.759,3.567,0.08,7.214-1.906,10.274
			c-2.053,3.166-1.154,7.393,2.007,9.446c1.154,0.747,2.44,1.101,3.714,1.101c2.232,0,4.425-1.094,5.734-3.108
			C397.138,194.557,398.492,187.257,396.971,180.123z"/>
	</g>
</g>
<g>
	<g>
		<path d="M318.72,118.371c3.034-7.74,2.947-16.126-0.259-23.68c-2.307-5.434-6.054-10.001-10.841-13.327
			c2.865-7.648,2.719-15.894-0.447-23.347c-3.234-7.62-9.254-13.488-16.954-16.521c-6.625-2.613-14.007-2.794-20.806-0.707
			c-3.42-6.134-8.873-10.994-15.514-13.614c-15.666-6.173-33.666,1.388-40.646,16.867c-14.06-2.232-28.46,5.466-34.354,19.14
			c-14.633-1.386-29.353,7.095-35.253,21.354c-1.633,3.941-2.514,8.095-2.627,12.261c-9.206,2.727-16.98,9.561-20.739,18.647
			c-4.279,10.348-2.773,21.975,3.581,30.614c-0.886,1.487-1.673,3.041-2.333,4.647c-3.546,8.552-3.533,17.886,0.034,26.286
			c3.48,8.219,9.974,14.546,18.273,17.819c5.127,2.014,10.607,2.726,16,2.12c2.067,9.981,8.94,18.401,18.787,22.287
			c6.746,2.661,14.046,2.867,20.82,0.727c3.427,6.127,8.88,10.981,15.514,13.594c9.813,3.859,20.746,2.452,29.307-3.367
			c3.48,4.127,7.953,7.354,13.1,9.387c3.987,1.572,8.119,2.313,12.206,2.313c13.527,0,26.52-8.166,32.044-21.499
			c0.681-1.64,1.234-3.32,1.654-5.033c10.701-1.84,20.074-9.16,24.347-19.487c3.767-9.086,3.06-19.287-1.594-27.534
			c2.865-3.053,5.166-6.62,6.793-10.534C334.741,143.485,330.275,127.404,318.72,118.371z M316.203,152.557
			c-1.527,3.686-4.048,6.861-7.287,9.173c-1.592,1.133-2.62,2.9-2.826,4.854c-0.2,1.947,0.447,3.886,1.773,5.326
			c4.567,4.954,5.801,12.3,3.14,18.714c-2.866,6.932-9.673,11.513-17.033,11.513c-0.14,0-0.287,0-0.433-0.007
			c-3.466-0.041-6.733,2.726-6.98,6.38c-0.147,2.273-0.672,4.507-1.553,6.634c-4.366,10.527-16.34,15.759-26.633,11.706
			c-4.675-1.84-8.4-5.366-10.487-9.926c-0.974-2.133-2.975-3.613-5.294-3.927c-0.307-0.039-0.613-0.06-0.913-0.06
			c-2.007,0-3.927,0.887-5.236,2.442c-5.093,6.093-13.333,8.286-20.48,5.453c0,0,0,0-0.007,0c-5.134-2.021-8.873-6.281-10.247-11.68
			c-0.532-2.101-2.033-3.826-4.04-4.64c-2-0.826-4.28-0.633-6.134,0.493c-4.919,3.014-10.713,3.56-15.906,1.507
			c-7.072-2.787-11.38-9.827-10.72-17.521c0.206-2.353-0.828-4.647-2.714-6.06c-1.893-1.413-4.386-1.748-6.579-0.881
			c-4.813,1.893-10.066,1.92-14.773,0.053c-4.866-1.913-8.666-5.627-10.713-10.447c-2.12-5-2.12-10.586,0.021-15.741
			c0.874-2.127,2.092-4.093,3.613-5.833c2.452-2.813,2.193-7.079-0.587-9.566c-5.455-4.886-7.173-12.867-4.28-19.847
			c2.688-6.494,8.893-10.994,15.821-11.467c1.934-0.133,3.721-1.08,4.913-2.606c1.193-1.526,1.679-3.487,1.34-5.4
			c-0.672-3.806-0.227-7.767,1.294-11.433c4.125-9.967,15.239-15.334,25.279-12.194c1.853,0.587,3.866,0.346,5.533-0.654
			c1.674-1,2.833-2.661,3.207-4.567c0.227-1.179,0.58-2.372,1.06-3.526c3.828-9.26,14.314-13.88,23.421-10.3
			c3.181,1.253,6.847-0.055,8.494-3.087c0.666-1.22,1.186-2.533,1.693-3.886l0.527-1.367c3.833-9.267,14.341-13.892,23.421-10.3
			c5.141,2.028,8.866,6.281,10.233,11.674c0.532,2.108,2.033,3.833,4.047,4.647c2,0.819,4.28,0.633,6.141-0.5
			c4.907-3.007,10.699-3.553,15.906-1.5c4.26,1.679,7.593,4.925,9.387,9.146c1.865,4.393,1.86,9.306-0.02,13.846
			c-0.461,1.114-1.041,2.193-1.72,3.22c-1.147,1.72-1.459,3.861-0.84,5.833c0.614,1.966,2.094,3.553,4.014,4.313
			c4.519,1.78,8.02,5.14,9.853,9.467c1.847,4.34,1.84,9.201-0.02,13.687c-0.48,1.161-1.073,2.26-1.753,3.28
			c-1.113,1.647-1.447,3.686-0.927,5.6c0.521,1.913,1.84,3.507,3.627,4.367C316.169,131.458,320.291,142.698,316.203,152.557z"/>
	</g>
</g>
<g>
	<g>
		<path d="M365.321,224.237c-2.613-14.812-16.746-24.74-31.626-22.153c-3.714,0.654-6.2,4.193-5.547,7.907
			c0.654,3.714,4.186,6.173,7.907,5.547c7.407-1.341,14.513,3.659,15.821,11.066c1.307,7.419-3.659,14.512-11.073,15.826
			c-3.714,0.654-6.193,4.193-5.533,7.907c0.58,3.314,3.461,5.641,6.714,5.641c0.393,0,0.794-0.034,1.19-0.107
			C357.994,253.257,367.934,239.065,365.321,224.237z"/>
	</g>
</g>
<g>
	<g>
		<path d="M228.383,156.57c-3.42-6.439-9.146-11.16-16.126-13.293c-14.387-4.427-29.701,3.721-34.094,18.133
			c-1.108,3.606,0.927,7.419,4.533,8.52c3.579,1.126,7.414-0.927,8.52-4.533c1.067-3.487,3.427-6.354,6.647-8.067
			c3.221-1.707,6.914-2.06,10.407-1c3.487,1.067,6.347,3.427,8.061,6.647c1.713,3.227,2.067,6.914,1,10.4
			c-1.108,3.606,0.92,7.421,4.526,8.526c0.667,0.207,1.34,0.3,2,0.3c2.92,0,5.627-1.886,6.526-4.828
			C232.523,170.402,231.81,163.016,228.383,156.57z"/>
	</g>
</g>
<g>
	<g>
		<path d="M293.404,141.341c-4.594-5.668-11.114-9.214-18.374-9.974c-3.688-0.452-7.108,2.321-7.501,6.074
			c-0.399,3.748,2.321,7.108,6.074,7.501c3.627,0.387,6.895,2.161,9.187,4.994s3.347,6.386,2.966,10.02
			c-0.794,7.487-7.533,12.901-15.007,12.153c-3.908-0.413-7.113,2.328-7.501,6.074c-0.393,3.755,2.328,7.108,6.074,7.501
			c0.968,0.108,1.92,0.154,2.874,0.154c13.786,0,25.667-10.447,27.134-24.457C300.097,154.127,297.991,147.007,293.404,141.341z"/>
	</g>
</g>
<g>
	<g>
		<path d="M234.717,93.145c-9.481-11.692-26.708-13.5-38.414-4.033c-11.686,9.481-13.5,26.708-4.033,38.407
			c1.347,1.666,3.32,2.533,5.313,2.533c1.507,0,3.021-0.5,4.285-1.521c2.934-2.374,3.388-6.666,1.014-9.6
			c-4.733-5.854-3.826-14.474,2.014-19.207c5.854-4.739,14.467-3.826,19.207,2.021c2.381,2.913,6.666,3.374,9.607,1.007
			C236.637,100.378,237.09,96.079,234.717,93.145z"/>
	</g>
</g>
<g>
</g>
<g>
</g>
<g>
</g>
<g>
</g>
<g>
</g>
<g>
</g>
<g>
</g>
<g>
</g>
<g>
</g>
<g>
</g>
<g>
</g>
<g>
</g>
<g>
</g>
<g>
</g>
<g>
</g>
</svg>
