<?xml version="1.0" encoding="iso-8859-1"?>
<!-- Generator: Adobe Illustrator 19.0.0, SVG Export Plug-In . SVG Version: 6.00 Build 0)  -->
<svg version="1.1" id="Capa_1" xmlns="http://www.w3.org/2000/svg" xmlns:xlink="http://www.w3.org/1999/xlink" x="0px" y="0px"
	 viewBox="0 0 368.644 368.644" style="enable-background:new 0 0 368.644 368.644;" xml:space="preserve">
<g>
	<g>
		<path d="M306.052,45.756c-6.7-1.652-165.204-40.11-254.916-5.593C22.115,51.324,5.26,67.086,1.029,87.013
			c-5.83,27.464,14.698,53.222,21.651,60.996L12.643,295.244c-0.224,3.248,1.879,6.2,5.023,7.054l144.396,39.166
			c0.597,0.16,1.2,0.241,1.79,0.241c3.007,0,5.76-2.004,6.586-5.043c0.988-3.64-1.162-7.386-4.803-8.376l-138.989-37.7
			l9.856-144.601c0.133-1.968-0.587-3.898-1.983-5.291c-0.254-0.256-25.45-25.8-20.134-50.847
			c3.207-15.116,17.22-27.546,41.649-36.943c85.693-32.961,245.147,5.711,246.75,6.106c3.64,0.906,7.357-1.333,8.26-4.994
			C311.948,50.356,309.714,46.656,306.052,45.756z"/>
	</g>
</g>
<g>
	<g>
		<path d="M348.732,152.194c13.044-12.093,19.91-26.371,19.91-41.487c0-39.523-49-71.68-109.227-71.68
			s-109.227,32.157-109.227,71.68c0,15.217,6.955,29.577,20.161,41.716L157.032,335.49c-0.15,2.075,0.654,4.106,2.183,5.516
			c1.27,1.171,2.924,1.807,4.627,1.807c0.346,0,0.698-0.026,1.046-0.079l197.973-30.72c3.664-0.57,6.204-3.954,5.724-7.63
			L348.732,152.194z M171.271,327.926l12.94-177.886c0.157-2.181-0.736-4.301-2.403-5.711c-8.195-6.929-17.966-18.389-17.966-33.623
			c0-31.997,42.873-58.027,95.573-58.027c52.7,0,95.573,26.03,95.573,58.027c0,15.203-9.737,26.65-17.906,33.574
			c-1.77,1.497-2.657,3.789-2.357,6.089l19.459,149.173L171.271,327.926z"/>
	</g>
</g>
<g>
	<g>
		<path d="M228.695,86.814c-9.411,0-17.067,7.656-17.067,17.067c0,9.411,7.656,17.067,17.067,17.067s17.067-7.656,17.067-17.067
			C245.762,94.47,238.106,86.814,228.695,86.814z M228.695,107.294c-1.884,0-3.413-1.529-3.413-3.413s1.529-3.413,3.413-3.413
			s3.413,1.529,3.413,3.413S230.579,107.294,228.695,107.294z"/>
	</g>
</g>
<g>
	<g>
		<path d="M303.789,161.907c-9.411,0-17.067,7.656-17.067,17.067s7.656,17.067,17.067,17.067s17.067-7.656,17.067-17.067
			S313.199,161.907,303.789,161.907z M303.789,182.387c-1.884,0-3.413-1.529-3.413-3.413s1.529-3.413,3.413-3.413
			s3.413,1.529,3.413,3.413S305.673,182.387,303.789,182.387z"/>
	</g>
</g>
<g>
	<g>
		<path d="M228.695,216.52c-9.411,0-17.067,7.656-17.067,17.067s7.656,17.067,17.067,17.067s17.067-7.656,17.067-17.067
			S238.106,216.52,228.695,216.52z M228.695,237c-1.884,0-3.413-1.529-3.413-3.413s1.529-3.413,3.413-3.413s3.413,1.529,3.413,3.413
			S230.579,237,228.695,237z"/>
	</g>
</g>
<g>
	<g>
		<circle cx="300.375" cy="114.127" r="13.653"/>
	</g>
</g>
<g>
	<g>
		<circle cx="279.895" cy="230.18" r="13.653"/>
	</g>
</g>
<g>
</g>
<g>
</g>
<g>
</g>
<g>
</g>
<g>
</g>
<g>
</g>
<g>
</g>
<g>
</g>
<g>
</g>
<g>
</g>
<g>
</g>
<g>
</g>
<g>
</g>
<g>
</g>
<g>
</g>
</svg>
