<?xml version="1.0" encoding="iso-8859-1"?>
<!-- Generator: Adobe Illustrator 19.0.0, SVG Export Plug-In . SVG Version: 6.00 Build 0)  -->
<svg version="1.1" id="Capa_1" xmlns="http://www.w3.org/2000/svg" xmlns:xlink="http://www.w3.org/1999/xlink" x="0px" y="0px"
	 viewBox="0 0 399.398 399.398" style="enable-background:new 0 0 399.398 399.398;" xml:space="preserve">
<g>
	<g>
		<path d="M378.431,262.448l-241.497-241.5c-27.913-27.907-73.322-27.907-101.229,0L10.646,46.007C3.784,52.874,0,61.993,0,71.7
			s3.784,18.833,10.646,25.694l291.335,291.34c6.864,6.866,15.99,10.646,25.697,10.646c9.707,0,18.833-3.78,25.692-10.646
			l25.061-25.061c13.52-13.52,20.966-31.493,20.966-50.613S391.951,275.968,378.431,262.448z M368.78,354.019l-25.061,25.061
			c-8.568,8.573-23.511,8.573-32.084,0L20.299,87.74c-4.287-4.285-6.647-9.981-6.647-16.039s2.364-11.752,6.647-16.039
			l25.059-25.061c22.586-22.586,59.337-22.586,81.923,0L368.78,272.099c10.94,10.94,16.966,25.487,16.966,40.96
			C385.746,328.532,379.72,343.079,368.78,354.019z"/>
	</g>
</g>
<g>
	<g>
		<path d="M211.826,95.841l-28.964-28.967c-2.56-2.56-7.093-2.56-9.653,0l-28.964,28.967c-5.158,5.152-7.997,12.013-7.997,19.306
			s2.842,14.147,7.997,19.306c5.156,5.161,12.017,8.001,19.309,8.001c7.294,0,14.15-2.84,19.308-7.999l28.964-28.96
			c1.28-1.28,2-3.014,2-4.826C213.827,98.855,213.106,97.121,211.826,95.841z M173.208,124.8c-5.159,5.159-14.15,5.159-19.309,0
			c-2.577-2.579-3.997-6.008-3.997-9.653s1.42-7.072,3.997-9.653l24.137-24.141l19.309,19.313L173.208,124.8z"/>
	</g>
</g>
<g>
	<g>
		<path d="M269.754,153.759l-28.964-28.96c-2.666-2.666-6.987-2.666-9.653,0l-28.964,28.96c-10.643,10.646-10.643,27.974,0,38.62
			c5.156,5.161,12.013,8.001,19.306,8.001c7.296,0,14.153-2.84,19.311-8.001l28.964-28.967c1.28-1.28,2-3.014,2-4.826
			S271.034,155.039,269.754,153.759z M231.134,182.728c-5.156,5.159-14.15,5.159-19.309,0c-5.32-5.327-5.32-13.986,0-19.313
			l24.137-24.134l19.309,19.306L231.134,182.728z"/>
	</g>
</g>
<g>
	<g>
		<path d="M327.68,211.686l-28.964-28.96c-2.666-2.666-6.987-2.666-9.653,0l-28.964,28.96c-10.65,10.646-10.65,27.974,0,38.62
			c5.156,5.161,12.013,8.001,19.306,8.001c7.294,0,14.153-2.84,19.311-8.001l28.964-28.967c1.28-1.28,2-3.014,2-4.826
			C329.68,214.7,328.96,212.966,327.68,211.686z M289.06,240.654c-5.159,5.159-14.15,5.159-19.309,0c-2.58-2.581-4-6.006-4-9.66
			c0-3.645,1.42-7.072,4-9.653l24.137-24.134l19.309,19.306L289.06,240.654z"/>
	</g>
</g>
<g>
	<g>
		<rect x="53.403" y="38.781" width="13.653" height="13.653"/>
	</g>
</g>
<g>
	<g>
		<rect x="94.363" y="38.781" width="13.653" height="13.653"/>
	</g>
</g>
<g>
	<g>
		<rect x="67.057" y="72.911" width="13.653" height="13.653"/>
	</g>
</g>
<g>
	<g>
		<rect x="340.123" y="305.017" width="13.653" height="13.653"/>
	</g>
</g>
<g>
	<g>
		<rect x="333.297" y="352.804" width="13.653" height="13.653"/>
	</g>
</g>
<g>
	<g>
		<rect x="292.337" y="325.497" width="13.653" height="13.653"/>
	</g>
</g>
<g>
</g>
<g>
</g>
<g>
</g>
<g>
</g>
<g>
</g>
<g>
</g>
<g>
</g>
<g>
</g>
<g>
</g>
<g>
</g>
<g>
</g>
<g>
</g>
<g>
</g>
<g>
</g>
<g>
</g>
</svg>
