<?xml version="1.0" encoding="iso-8859-1"?>
<!-- Generator: Adobe Illustrator 19.0.0, SVG Export Plug-In . SVG Version: 6.00 Build 0)  -->
<svg version="1.1" id="Capa_1" xmlns="http://www.w3.org/2000/svg" xmlns:xlink="http://www.w3.org/1999/xlink" x="0px" y="0px"
	 viewBox="0 0 389.12 389.12" style="enable-background:new 0 0 389.12 389.12;" xml:space="preserve">
<g>
	<g>
		<path d="M116.053,0h-61.44c-3.773,0-6.827,3.053-6.827,6.827V348.16c0,3.773,3.053,6.827,6.827,6.827s6.827-3.053,6.827-6.827
			V13.653h47.787v307.2c0,3.773,3.053,6.827,6.827,6.827s6.827-3.053,6.827-6.827V6.827C122.88,3.053,119.827,0,116.053,0z"/>
	</g>
</g>
<g>
	<g>
		<path d="M313.194,0h-197.14c-3.773,0-6.827,3.053-6.827,6.827v314.027c0,3.773,3.053,6.827,6.827,6.827s6.827-3.053,6.827-6.827
			v-307.2h190.314c7.986,0,14.486,6.499,14.486,14.486v354.154c0,3.773,3.053,6.827,6.827,6.827s6.827-3.053,6.827-6.827V28.14
			C341.333,12.626,328.707,0,313.194,0z"/>
	</g>
</g>
<g>
	<g>
		<path d="M311.229,59.692c-0.734-3.06-3.466-5.226-6.613-5.24l-158.461-0.64c-0.007,0-0.02,0-0.027,0
			c-3.147,0-5.886,2.147-6.634,5.207c-2.608,10.68-3.934,21.833-3.934,33.14c0,62.107,40.247,112.64,89.719,112.64
			c49.473,0,89.719-50.533,89.723-112.642C315.003,81.099,313.737,70.173,311.229,59.692z M225.28,191.147
			c-41.94,0-76.066-44.407-76.066-98.987c0-8.38,0.799-16.66,2.386-24.673l147.473,0.601c1.507,7.832,2.273,15.906,2.273,24.073
			C301.346,146.739,267.22,191.147,225.28,191.147z"/>
	</g>
</g>
<g>
	<g>
		<path d="M311.228,59.692c-0.734-3.06-3.466-5.226-6.613-5.24l-158.461-0.64c-0.007,0-0.021,0-0.027,0
			c-3.147,0-5.886,2.147-6.634,5.207c-2.608,10.687-3.934,21.84-3.934,33.14c0,5.554,0.401,11.421,1.227,17.927
			c0.434,3.413,3.333,5.966,6.774,5.966H307c3.439,0,6.34-2.553,6.774-5.968c0.828-6.508,1.227-12.373,1.227-17.927
			C315.001,81.099,313.735,70.173,311.228,59.692z M300.873,102.4H149.687c-0.319-3.606-0.473-6.994-0.473-10.24
			c0-8.38,0.799-16.654,2.386-24.673l147.473,0.601c1.507,7.832,2.273,15.906,2.273,24.073
			C301.346,95.406,301.194,98.794,300.873,102.4z"/>
	</g>
</g>
<g>
	<g>
		<path d="M225.28,191.147c-3.773,0-6.827,3.053-6.827,6.827v88.747c0,3.773,3.053,6.827,6.827,6.827s6.827-3.053,6.827-6.827
			v-88.747C232.107,194.2,229.053,191.147,225.28,191.147z"/>
	</g>
</g>
<g>
	<g>
		<path d="M252.587,279.893h-54.613c-3.773,0-6.827,3.053-6.827,6.827s3.053,6.827,6.827,6.827h54.613
			c3.773,0,6.827-3.053,6.827-6.827S256.36,279.893,252.587,279.893z"/>
	</g>
</g>
<g>
	<g>
		<path d="M334.507,314.027H85.333c-20.7,0-37.547,16.846-37.547,37.547c0,20.7,16.846,37.547,37.547,37.547h249.173
			c3.773,0,6.827-3.053,6.827-6.827v-61.44C341.333,317.08,338.28,314.027,334.507,314.027z M327.68,375.467H85.333
			c-13.174,0-23.893-10.72-23.893-23.893c0-13.174,10.72-23.893,23.893-23.893H327.68V375.467z"/>
	</g>
</g>
<g>
</g>
<g>
</g>
<g>
</g>
<g>
</g>
<g>
</g>
<g>
</g>
<g>
</g>
<g>
</g>
<g>
</g>
<g>
</g>
<g>
</g>
<g>
</g>
<g>
</g>
<g>
</g>
<g>
</g>
</svg>
