<?xml version="1.0" encoding="iso-8859-1"?>
<!-- Generator: Adobe Illustrator 19.0.0, SVG Export Plug-In . SVG Version: 6.00 Build 0)  -->
<svg version="1.1" id="Capa_1" xmlns="http://www.w3.org/2000/svg" xmlns:xlink="http://www.w3.org/1999/xlink" x="0px" y="0px"
	 viewBox="0 0 375.467 375.467" style="enable-background:new 0 0 375.467 375.467;" xml:space="preserve">
<g>
	<g>
		<path d="M308.78,212.4c-3.773,0-6.827,3.053-6.827,6.827v122.086c0,11.307-9.187,20.5-20.48,20.5H63.02
			c-11.293,0-20.48-9.194-20.48-20.5V204.801h224.532c3.773,0,6.827-3.053,6.827-6.827s-3.053-6.827-6.827-6.827H35.713
			c-3.773,0-6.827,3.053-6.827,6.827v143.34c0,18.833,15.314,34.154,34.133,34.154h218.453c18.821,0,34.133-15.319,34.133-34.154
			V219.227C315.606,215.454,312.553,212.4,308.78,212.4z"/>
	</g>
</g>
<g>
	<g>
		<path d="M254.166,191.147H90.326c-3.773,0-6.827,3.053-6.827,6.827v170.667c0,3.773,3.053,6.827,6.827,6.827h163.84
			c3.773,0,6.827-3.053,6.827-6.827V197.974C260.993,194.2,257.94,191.147,254.166,191.147z M247.34,361.814H97.153V204.801H247.34
			V361.814z"/>
	</g>
</g>
<g>
	<g>
		<path d="M267.82,191.147H15.233c-3.773,0-6.827,3.053-6.827,6.827v33.947c0,3.773,3.053,6.827,6.827,6.827
			s6.827-3.053,6.827-6.827v-27.121h245.76c3.773,0,6.827-3.053,6.827-6.827S271.593,191.147,267.82,191.147z"/>
	</g>
</g>
<g>
	<g>
		<path d="M284.946,114.54c-2.359-8.813-8.006-16.172-15.899-20.733c-16.299-9.414-37.212-3.801-46.626,12.5
			c-1.886,3.267-0.766,7.441,2.5,9.327c3.253,1.872,7.434,0.753,9.327-2.5c2.732-4.741,7.153-8.127,12.433-9.547
			c5.286-1.413,10.807-0.681,15.539,2.046c9.781,5.647,13.141,18.202,7.494,27.981c-1.886,3.267-0.766,7.441,2.5,9.327
			c1.074,0.62,2.246,0.913,3.407,0.913c2.36,0,4.652-1.227,5.919-3.413C286.1,132.547,287.306,123.347,284.946,114.54z"/>
	</g>
</g>
<g>
	<g>
		<path d="M365.886,192.815c-2.359-8.813-8.006-16.179-15.899-20.739L160.8,62.849c-7.88-4.56-17.073-5.76-25.887-3.406
			c-8.813,2.359-16.179,8.006-20.739,15.899L100.52,98.987c-0.906,1.567-1.147,3.432-0.681,5.18c0.466,1.748,1.613,3.241,3.18,4.147
			l164.161,94.78l72.322,41.754c1.073,0.62,2.246,0.913,3.406,0.913c2.359,0,4.652-1.22,5.919-3.413l13.653-23.646
			C367.033,210.815,368.24,201.621,365.886,192.815z M350.653,211.873l-10.24,17.734l-66.406-38.34L115.757,99.9l10.24-17.734
			c2.732-4.734,7.153-8.12,12.44-9.533c5.308-1.42,10.807-0.695,15.534,2.039l189.187,109.227c4.734,2.732,8.12,7.153,9.533,12.44
			C354.105,201.626,353.387,207.146,350.653,211.873z"/>
	</g>
</g>
<g>
	<g>
		<path d="M50.028,67.888c-16.147-24.173-21.588-32.319-0.521-56.586c2.475-2.847,2.167-7.154-0.679-9.627
			c-2.835-2.468-7.168-2.181-9.627,0.679c-26.667,30.701-18.514,46.188-0.521,73.12c14.259,21.347-9.933,56.813-10.18,57.173
			c-2.14,3.092-1.365,7.345,1.727,9.492c1.186,0.828,2.539,1.22,3.886,1.22c2.161,0,4.28-1.026,5.608-2.932
			C40.942,138.669,69.462,96.968,50.028,67.888z"/>
	</g>
</g>
<g>
	<g>
		<path d="M84.162,67.888c-16.147-24.173-21.588-32.319-0.521-56.586c2.475-2.847,2.167-7.154-0.679-9.627
			c-2.835-2.468-7.161-2.181-9.627,0.679c-26.667,30.701-18.514,46.188-0.521,73.12c14.259,21.347-9.933,56.813-10.18,57.173
			c-2.14,3.092-1.365,7.345,1.727,9.492c1.186,0.828,2.54,1.22,3.886,1.22c2.161,0,4.28-1.026,5.608-2.932
			C75.075,138.669,103.596,96.968,84.162,67.888z"/>
	</g>
</g>
<g>
</g>
<g>
</g>
<g>
</g>
<g>
</g>
<g>
</g>
<g>
</g>
<g>
</g>
<g>
</g>
<g>
</g>
<g>
</g>
<g>
</g>
<g>
</g>
<g>
</g>
<g>
</g>
<g>
</g>
</svg>
