<?xml version="1.0" encoding="iso-8859-1"?>
<!-- Generator: Adobe Illustrator 19.0.0, SVG Export Plug-In . SVG Version: 6.00 Build 0)  -->
<svg version="1.1" id="Capa_1" xmlns="http://www.w3.org/2000/svg" xmlns:xlink="http://www.w3.org/1999/xlink" x="0px" y="0px"
	 viewBox="0 0 395.951 395.951" style="enable-background:new 0 0 395.951 395.951;" xml:space="preserve">
<g>
	<g>
		<path d="M334.916,211.631H61.849c-3.773,0-6.827,3.053-6.827,6.827v143.34c0,18.833,15.314,34.154,34.133,34.154h218.453
			c18.821,0,34.133-15.321,34.133-34.154v-143.34C341.742,214.684,338.689,211.631,334.916,211.631z M328.089,361.797
			c0,11.307-9.187,20.5-20.48,20.5H89.156c-11.293,0-20.48-9.194-20.48-20.5V225.284h259.413V361.797z"/>
	</g>
</g>
<g>
	<g>
		<path d="M280.302,211.631h-163.84c-3.773,0-6.827,3.053-6.827,6.827v170.667c0,3.773,3.053,6.827,6.827,6.827h163.84
			c3.773,0,6.827-3.053,6.827-6.827V218.457C287.129,214.684,284.076,211.631,280.302,211.631z M273.476,382.297H123.289V225.284
			h150.187V382.297z"/>
	</g>
</g>
<g>
	<g>
		<path d="M198.382,102.404c-18.819,0-34.133,15.314-34.133,34.133c0,3.773,3.053,6.827,6.827,6.827s6.827-3.053,6.827-6.827
			c0-11.293,9.187-20.48,20.48-20.48s20.48,9.187,20.48,20.48c0,3.773,3.053,6.827,6.827,6.827s6.827-3.053,6.827-6.827
			C232.516,117.718,217.202,102.404,198.382,102.404z"/>
	</g>
</g>
<g>
	<g>
		<path d="M354.582,211.631H41.369c-3.773,0-6.827,3.053-6.827,6.827v33.947c0,3.773,3.053,6.827,6.827,6.827
			s6.827-3.053,6.827-6.827v-27.121h299.561v28.373c0,3.773,3.053,6.827,6.827,6.827c3.773,0,6.827-3.053,6.825-6.827v-35.2
			C361.408,214.684,358.355,211.631,354.582,211.631z"/>
	</g>
</g>
<g>
	<g>
		<path d="M307.609,129.711H89.156c-18.819,0-34.133,15.314-34.133,34.133v27.307c0,3.773,3.053,6.827,6.827,6.827h273.067
			c3.773,0,6.827-3.053,6.827-6.827v-27.307C341.742,145.024,326.428,129.711,307.609,129.711z M328.089,184.324H68.676v-20.48
			c0-11.293,9.187-20.48,20.48-20.48h218.453c11.293,0,20.48,9.187,20.48,20.48V184.324z"/>
	</g>
</g>
<g>
	<g>
		<path d="M184.191,39.216c-5.62-4.867-13.307-11.534-13.107-14.674c0.073-1.181,1.432-4.707,12.419-12.034
			c3.139-2.094,3.987-6.328,1.893-9.467c-2.094-3.139-6.32-3.987-9.467-1.893c-12.472,8.313-18,15.053-18.473,22.533
			c-0.626,9.892,7.907,17.285,17.787,25.853c2.946,2.553,3.273,4.888,3.26,6.421c-0.067,7.794-9.946,17.828-13.406,20.727
			c-2.886,2.42-3.267,6.728-0.853,9.614c1.353,1.621,3.285,2.454,5.24,2.454c1.539,0,3.086-0.521,4.367-1.58
			c1.853-1.553,18.154-15.573,18.307-31.066C192.218,49.63,189.465,43.79,184.191,39.216z"/>
	</g>
</g>
<g>
	<g>
		<path d="M238.805,39.216c-5.62-4.867-13.307-11.534-13.107-14.674c0.073-1.181,1.432-4.707,12.419-12.034
			c3.139-2.094,3.987-6.328,1.893-9.467c-2.094-3.139-6.327-3.987-9.467-1.893c-12.472,8.313-18,15.053-18.473,22.533
			c-0.626,9.892,7.907,17.285,17.787,25.853c2.946,2.553,3.273,4.888,3.26,6.421c-0.067,7.794-9.946,17.828-13.406,20.727
			c-2.886,2.42-3.267,6.728-0.853,9.614c1.353,1.621,3.285,2.454,5.24,2.454c1.539,0,3.086-0.521,4.367-1.58
			c1.853-1.553,18.154-15.573,18.307-31.066C246.831,49.63,244.078,43.79,238.805,39.216z"/>
	</g>
</g>
<g>
</g>
<g>
</g>
<g>
</g>
<g>
</g>
<g>
</g>
<g>
</g>
<g>
</g>
<g>
</g>
<g>
</g>
<g>
</g>
<g>
</g>
<g>
</g>
<g>
</g>
<g>
</g>
<g>
</g>
</svg>
