<?xml version="1.0" encoding="iso-8859-1"?>
<!-- Generator: Adobe Illustrator 19.0.0, SVG Export Plug-In . SVG Version: 6.00 Build 0)  -->
<svg version="1.1" id="Capa_1" xmlns="http://www.w3.org/2000/svg" xmlns:xlink="http://www.w3.org/1999/xlink" x="0px" y="0px"
	 viewBox="0 0 395.947 395.947" style="enable-background:new 0 0 395.947 395.947;" xml:space="preserve">
<g>
	<g>
		<path d="M320.853,109.227H47.787c-3.773,0-6.827,3.053-6.827,6.827v143.34c0,18.833,15.314,34.154,34.133,34.154h218.453
			c18.819,0,34.133-15.321,34.133-34.154v-143.34C327.68,112.28,324.627,109.227,320.853,109.227z M314.027,259.393
			c0,11.307-9.187,20.5-20.48,20.5H75.093c-11.293,0-20.48-9.194-20.48-20.5V122.88h259.413V259.393z"/>
	</g>
</g>
<g>
	<g>
		<path d="M184.32,0c-18.819,0-34.133,15.314-34.133,34.133c0,3.773,3.053,6.827,6.827,6.827s6.827-3.053,6.827-6.827
			c0-11.293,9.187-20.48,20.48-20.48s20.48,9.187,20.48,20.48c0,3.773,3.053,6.827,6.827,6.827s6.827-3.053,6.827-6.827
			C218.453,15.314,203.139,0,184.32,0z"/>
	</g>
</g>
<g>
	<g>
		<path d="M340.519,109.227H27.307c-3.773,0-6.827,3.053-6.827,6.827v33.947c0,3.773,3.053,6.827,6.827,6.827
			s6.827-3.053,6.827-6.827V122.88h299.559v28.373c0,3.773,3.053,6.827,6.827,6.827s6.827-3.053,6.827-6.827v-35.2
			C347.346,112.28,344.293,109.227,340.519,109.227z"/>
	</g>
</g>
<g>
	<g>
		<path d="M293.547,27.307H75.093c-18.819,0-34.133,15.314-34.133,34.133v27.307c0,3.773,3.053,6.827,6.827,6.827h273.067
			c3.773,0,6.827-3.053,6.827-6.827V61.44C327.68,42.621,312.366,27.307,293.547,27.307z M314.027,81.92H54.613V61.44
			c0-11.293,9.187-20.48,20.48-20.48h218.453c11.293,0,20.48,9.187,20.48,20.48V81.92z"/>
	</g>
</g>
<g>
	<g>
		<path d="M266.24,109.227H102.4c-3.773,0-6.827,3.053-6.827,6.827V286.72c0,3.773,3.053,6.827,6.827,6.827h163.84
			c3.773,0,6.827-3.053,6.827-6.827V116.053C273.067,112.28,270.013,109.227,266.24,109.227z M259.413,279.893H109.227V122.88
			h150.187V279.893z"/>
	</g>
</g>
<g>
	<g>
		<path d="M248.306,354.987H40.96c-3.826,0-6.827-3-6.827-6.827c0-3.767,3.06-6.827,6.827-6.827h206.053
			c3.773,0,6.827-3.053,6.827-6.827s-3.053-6.827-6.827-6.827H40.96c-11.293,0-20.48,9.187-20.48,20.48
			c0,11.293,9.187,20.48,20.48,20.48h207.346c3.773,0,6.827-3.053,6.827-6.827S252.08,354.987,248.306,354.987z"/>
	</g>
</g>
<g>
	<g>
		<path d="M307.2,300.373c-38.281,0-68.267,20.994-68.267,47.787c0,26.793,29.986,47.787,68.267,47.787s68.267-20.994,68.267-47.787
			C375.467,321.367,345.481,300.373,307.2,300.373z M307.2,382.293c-29.607,0-54.613-15.633-54.613-34.133
			c0-18.5,25.006-34.133,54.613-34.133s54.613,15.633,54.613,34.133C361.813,366.66,336.807,382.293,307.2,382.293z"/>
	</g>
</g>
<g>
</g>
<g>
</g>
<g>
</g>
<g>
</g>
<g>
</g>
<g>
</g>
<g>
</g>
<g>
</g>
<g>
</g>
<g>
</g>
<g>
</g>
<g>
</g>
<g>
</g>
<g>
</g>
<g>
</g>
</svg>
