<?xml version="1.0" encoding="iso-8859-1"?>
<!-- Generator: Adobe Illustrator 19.0.0, SVG Export Plug-In . SVG Version: 6.00 Build 0)  -->
<svg version="1.1" id="Capa_1" xmlns="http://www.w3.org/2000/svg" xmlns:xlink="http://www.w3.org/1999/xlink" x="0px" y="0px"
	 viewBox="0 0 423.253 423.253" style="enable-background:new 0 0 423.253 423.253;" xml:space="preserve">
<g>
	<g>
		<path d="M320.647,128.053l-6.827-27.307c-0.759-3.04-3.487-5.173-6.62-5.173H109.227c-3.133,0-5.861,2.133-6.62,5.173
			l-6.827,27.307c-0.14,0.541-0.207,1.094-0.207,1.654v252.587c0,0.447,0.046,0.899,0.133,1.34l6.827,34.133
			c0.64,3.186,3.441,5.487,6.694,5.487H307.2c3.253,0,6.054-2.301,6.694-5.487l6.827-34.133c0.087-0.44,0.133-0.893,0.133-1.34
			V129.707C320.853,129.147,320.787,128.592,320.647,128.053z M307.2,381.619l-5.594,27.981H114.819l-5.593-27.981V130.546
			l5.333-21.32h187.307l5.333,21.32V381.619z"/>
	</g>
</g>
<g>
	<g>
		<path d="M327.68,95.573H88.747c-3.773,0-6.827,3.053-6.827,6.827s3.053,6.827,6.827,6.827H327.68c3.773,0,6.827-3.053,6.827-6.827
			S331.453,95.573,327.68,95.573z"/>
	</g>
</g>
<g>
	<g>
		<path d="M163.84,34.133c-11.293,0-20.48,9.187-20.48,20.48V102.4c0,3.773,3.053,6.827,6.827,6.827h27.307
			c3.773,0,6.827-3.053,6.827-6.827V54.613C184.32,43.32,175.133,34.133,163.84,34.133z M170.667,95.573h-13.653v-40.96
			c0-3.767,3.06-6.827,6.827-6.827c3.767,0,6.827,3.06,6.827,6.827V95.573z"/>
	</g>
</g>
<g>
	<g>
		<path d="M129.707,232.107c-3.773,0-6.827,3.053-6.827,6.827v122.88c0,3.773,3.053,6.827,6.827,6.827s6.827-3.053,6.827-6.827
			v-122.88C136.533,235.16,133.48,232.107,129.707,232.107z"/>
	</g>
</g>
<g>
	<g>
		<path d="M157.013,314.027c-3.773,0-6.827,3.053-6.827,6.827v68.267c0,3.773,3.053,6.827,6.827,6.827s6.827-3.053,6.827-6.827
			v-68.267C163.84,317.08,160.787,314.027,157.013,314.027z"/>
	</g>
</g>
<g>
	<g>
		<path d="M232.107,34.133c-11.293,0-20.48,9.187-20.48,20.48c0,11.293,9.187,20.48,20.48,20.48c11.293,0,20.48-9.187,20.48-20.48
			C252.587,43.32,243.4,34.133,232.107,34.133z M232.107,61.44c-3.767,0-6.827-3.06-6.827-6.827c0-3.767,3.06-6.827,6.827-6.827
			c3.767,0,6.827,3.06,6.827,6.827C238.933,58.38,235.873,61.44,232.107,61.44z"/>
	</g>
</g>
<g>
	<g>
		<path d="M286.72,0c-11.293,0-20.48,9.187-20.48,20.48s9.187,20.48,20.48,20.48s20.48-9.187,20.48-20.48S298.013,0,286.72,0z
			 M286.72,27.307c-3.767,0-6.827-3.06-6.827-6.827s3.06-6.827,6.827-6.827c3.767,0,6.827,3.06,6.827,6.827
			S290.487,27.307,286.72,27.307z"/>
	</g>
</g>
<g>
	<g>
		<path d="M320.853,34.133c-11.293,0-20.48,9.187-20.48,20.48c0,11.293,9.187,20.48,20.48,20.48s20.48-9.187,20.48-20.48
			C341.333,43.32,332.146,34.133,320.853,34.133z M320.853,61.44c-3.767,0-6.827-3.06-6.827-6.827c0-3.767,3.06-6.827,6.827-6.827
			s6.827,3.06,6.827,6.827C327.68,58.38,324.62,61.44,320.853,61.44z"/>
	</g>
</g>
<g>
</g>
<g>
</g>
<g>
</g>
<g>
</g>
<g>
</g>
<g>
</g>
<g>
</g>
<g>
</g>
<g>
</g>
<g>
</g>
<g>
</g>
<g>
</g>
<g>
</g>
<g>
</g>
<g>
</g>
</svg>
