<?xml version="1.0" encoding="iso-8859-1"?>
<!-- Generator: Adobe Illustrator 19.0.0, SVG Export Plug-In . SVG Version: 6.00 Build 0)  -->
<svg version="1.1" id="Capa_1" xmlns="http://www.w3.org/2000/svg" xmlns:xlink="http://www.w3.org/1999/xlink" x="0px" y="0px"
	 viewBox="0 0 436.907 436.907" style="enable-background:new 0 0 436.907 436.907;" xml:space="preserve">
<g>
	<g>
		<path d="M164.019,201.657l-47.227-46.706c11.286-16.046,9.694-38.426-4.707-52.673c-16.06-15.886-42.052-15.732-57.926,0.321
			c-5.081,5.134-8.627,11.46-10.414,18.5c-7.019,1.86-13.307,5.48-18.393,10.621c-15.879,16.053-15.732,42.039,0.321,57.926
			c14.394,14.234,36.787,15.594,52.721,4.134l44.614,44.133c1.326,1.312,3.065,1.973,4.799,1.973c1.76,0,3.519-0.672,4.85-2.026
			c2.654-2.68,2.627-6.999-0.053-9.653l-49.06-48.534c-2.68-2.647-7.006-2.633-9.653,0.053c-10.586,10.706-27.907,10.8-38.62,0.213
			c-10.701-10.593-10.8-27.913-0.213-38.613c4.127-4.175,9.481-6.833,15.493-7.707c3.021-0.433,5.381-2.821,5.787-5.847
			c0.806-6.026,3.413-11.412,7.526-15.573c10.593-10.706,27.907-10.793,38.62-0.213c10.699,10.586,10.793,27.914,0.207,38.62
			c-1.273,1.287-1.98,3.028-1.973,4.84c0.014,1.806,0.741,3.54,2.028,4.813l51.673,51.106c2.686,2.647,7.006,2.633,9.653-0.053
			C166.726,208.631,166.699,204.311,164.019,201.657z"/>
	</g>
</g>
<g>
	<g>
		<path d="M430.08,271.352H6.827c-3.773,0-6.827,3.053-6.827,6.827v27.307c0,3.773,3.053,6.827,6.827,6.827H430.08
			c3.773,0,6.827-3.055,6.827-6.827v-27.307C436.907,274.406,433.853,271.352,430.08,271.352z M423.253,298.659h-409.6v-13.653
			h409.6V298.659z"/>
	</g>
</g>
<g>
	<g>
		<path d="M348.16,298.659H88.747c-3.773,0-6.827,3.053-6.827,6.827v34.133c0,3.773,3.053,6.827,6.827,6.827H348.16
			c3.773,0,6.827-3.055,6.827-6.827v-34.133C354.987,301.712,351.933,298.659,348.16,298.659z M341.333,332.792H95.573v-20.48
			h245.76V332.792z"/>
	</g>
</g>
<g>
	<g>
		<path d="M293.547,155.299c-33.507,0-65.693,13.887-88.88,38.214c-3.56-0.447-6.893-0.667-10.107-0.667
			c-47.053,0-85.333,38.281-85.333,85.333c0,3.773,3.053,6.827,6.827,6.827H409.6c3.773,0,6.827-3.055,6.827-6.827
			C416.427,210.426,361.3,155.299,293.547,155.299z M123.201,271.352c3.446-36.335,34.138-64.853,71.361-64.855
			c3.553,0,7.347,0.334,11.587,1.027c2.246,0.374,4.62-0.445,6.173-2.179c20.76-23.127,50.367-36.393,81.227-36.393
			c57.933,0,105.481,45.339,109.013,102.4H123.201z"/>
	</g>
</g>
<g>
</g>
<g>
</g>
<g>
</g>
<g>
</g>
<g>
</g>
<g>
</g>
<g>
</g>
<g>
</g>
<g>
</g>
<g>
</g>
<g>
</g>
<g>
</g>
<g>
</g>
<g>
</g>
<g>
</g>
</svg>
