<?xml version="1.0" encoding="iso-8859-1"?>
<!-- Generator: Adobe Illustrator 19.0.0, SVG Export Plug-In . SVG Version: 6.00 Build 0)  -->
<svg version="1.1" id="Capa_1" xmlns="http://www.w3.org/2000/svg" xmlns:xlink="http://www.w3.org/1999/xlink" x="0px" y="0px"
	 viewBox="0 0 436.907 436.907" style="enable-background:new 0 0 436.907 436.907;" xml:space="preserve">
<g>
	<g>
		<path d="M375.467,139.947H61.44c-3.77,0-6.827,3.053-6.827,6.827v193.819c0,32.408,26.363,58.767,58.767,58.767h210.145
			c32.404,0,58.767-26.359,58.767-58.767V146.773C382.293,143,379.237,139.947,375.467,139.947z M368.64,340.593
			c0,24.875-20.236,45.114-45.112,45.114H113.381c-24.878,0-45.114-20.239-45.114-45.114V153.6H368.64V340.593z"/>
	</g>
</g>
<g>
	<g>
		<path d="M430.08,146.773h-54.613c-3.77,0-6.827,3.053-6.827,6.827v40.96c0,2.239,1.097,4.333,2.937,5.613
			c1.159,0.8,2.519,1.213,3.89,1.213c0.807,0,1.62-0.14,2.396-0.433l54.613-20.48c2.664-1,4.431-3.546,4.431-6.393V153.6
			C436.907,149.827,433.85,146.773,430.08,146.773z M423.253,169.347l-40.96,15.36v-24.281h40.96V169.347z"/>
	</g>
</g>
<g>
	<g>
		<path d="M61.44,146.773H6.827c-3.77,0-6.827,3.053-6.827,6.827v20.48c0,2.847,1.766,5.393,4.43,6.393l54.613,20.48
			c0.777,0.294,1.589,0.433,2.396,0.433c1.37,0,2.731-0.413,3.889-1.213c1.84-1.28,2.937-3.374,2.937-5.613V153.6
			C68.267,149.827,65.21,146.773,61.44,146.773z M54.613,184.707l-40.96-15.36v-8.921h40.96V184.707z"/>
	</g>
</g>
<g>
	<g>
		<path d="M325.171,64.853H111.737c-31.497,0-57.124,25.627-57.124,57.12v24.8c0,3.773,3.057,6.827,6.827,6.827h314.027
			c3.77,0,6.827-3.053,6.827-6.827v-24.8C382.293,90.481,356.666,64.853,325.171,64.853z M368.64,139.947H68.267v-17.973
			c0-23.967,19.5-43.467,43.471-43.467H325.17c23.97,0,43.471,19.5,43.471,43.467V139.947z"/>
	</g>
</g>
<g>
	<g>
		<path d="M238.933,37.547h-40.96c-3.77,0-6.827,3.053-6.827,6.827V71.68c0,3.773,3.057,6.827,6.827,6.827h40.96
			c3.77,0,6.827-3.053,6.827-6.827V44.373C245.76,40.6,242.703,37.547,238.933,37.547z M232.107,64.853H204.8V51.2h27.307V64.853z"
			/>
	</g>
</g>
<g>
	<g>
		<path d="M252.587,37.547H184.32c-3.77,0-6.827,3.053-6.827,6.827s3.057,6.827,6.827,6.827h68.267c3.77,0,6.827-3.053,6.827-6.827
			S256.357,37.547,252.587,37.547z"/>
	</g>
</g>
<g>
	<g>
		<path d="M122.88,358.4c-18.819,0-34.133-15.314-34.133-34.133v-95.573c0-3.773-3.057-6.827-6.827-6.827s-6.827,3.053-6.827,6.827
			v95.573c0,26.348,21.437,47.787,47.787,47.787c3.77,0,6.827-3.053,6.827-6.827S126.65,358.4,122.88,358.4z"/>
	</g>
</g>
<g>
</g>
<g>
</g>
<g>
</g>
<g>
</g>
<g>
</g>
<g>
</g>
<g>
</g>
<g>
</g>
<g>
</g>
<g>
</g>
<g>
</g>
<g>
</g>
<g>
</g>
<g>
</g>
<g>
</g>
</svg>
