<?xml version="1.0" encoding="iso-8859-1"?>
<!-- Generator: Adobe Illustrator 19.0.0, SVG Export Plug-In . SVG Version: 6.00 Build 0)  -->
<svg version="1.1" id="Capa_1" xmlns="http://www.w3.org/2000/svg" xmlns:xlink="http://www.w3.org/1999/xlink" x="0px" y="0px"
	 viewBox="0 0 395.947 395.947" style="enable-background:new 0 0 395.947 395.947;" xml:space="preserve">
<g>
	<g>
		<path d="M225.28,13.653h-54.613c-75.286,0-136.533,61.251-136.533,136.533c0,3.77,3.053,6.827,6.827,6.827h314.027
			c3.773,0,6.827-3.057,6.827-6.827C361.813,74.904,300.566,13.653,225.28,13.653z M47.973,143.36
			c3.553-64.594,57.228-116.053,122.694-116.053h54.613c65.466,0,119.141,51.459,122.692,116.053H47.973z"/>
	</g>
</g>
<g>
	<g>
		<path d="M334.507,228.99c-3.773,0-6.827,3.057-6.827,6.827v56.813c0,19.326-15.727,35.05-35.053,35.05H103.32
			c-19.326,0-35.053-15.724-35.053-35.05v-46.874c0-3.77-3.053-6.827-6.827-6.827c-3.773,0-6.827,3.057-6.827,6.827v46.874
			c0,26.856,21.847,48.703,48.707,48.703h189.307c26.86,0,48.707-21.847,48.707-48.703v-56.813
			C341.333,232.047,338.28,228.99,334.507,228.99z"/>
	</g>
</g>
<g>
	<g>
		<path d="M305.2,240.932c-2.666-2.666-6.987-2.666-9.653,0l-73.16,73.16l-71.18-87.453c-2.367-2.917-6.666-3.366-9.6-0.983
			c-2.927,2.381-3.367,6.68-0.986,9.603l75.953,93.317c1.219,1.497,3.012,2.41,4.946,2.507c0.113,0.007,0.234,0.01,0.346,0.01
			c1.807,0,3.547-0.717,4.827-2.002l78.507-78.507C307.866,247.919,307.866,243.598,305.2,240.932z"/>
	</g>
</g>
<g>
	<g>
		<path d="M365.227,143.36H30.72C13.78,143.36,0,157.14,0,174.08c0,13.16,8.579,24.736,20.714,28.937
			c2.553,27.761,25.967,49.57,54.38,49.57c14.986,0,29.027-6.04,39.293-16.737c4.927,2.048,10.054,3.084,15.321,3.084
			c20.26,0,37.134-14.787,40.393-34.133h96.72c-0.387,2.246-0.58,4.526-0.58,6.827c0,22.586,18.374,40.96,40.96,40.96
			s40.96-18.374,40.96-40.96c0-2.301-0.193-4.581-0.58-6.827h17.647c16.94,0,30.72-13.78,30.72-30.72S382.167,143.36,365.227,143.36
			z M365.227,191.147h-26.774c-2.307,0-4.454,1.164-5.714,3.091c-1.259,1.93-1.466,4.364-0.539,6.473
			c1.534,3.495,2.307,7.17,2.307,10.916c0,15.056-12.247,27.307-27.307,27.307s-27.307-12.25-27.307-27.307
			c0-3.746,0.773-7.421,2.307-10.916c0.927-2.109,0.72-4.543-0.539-6.473c-1.261-1.927-3.406-3.091-5.714-3.091H163.84
			c-3.773,0-6.827,3.057-6.827,6.827c0,15.056-12.247,27.307-27.307,27.307c-4.68,0-9.254-1.273-13.594-3.787
			c-2.932-1.707-6.699-0.983-8.793,1.696c-7.84,10.004-19.587,15.744-32.227,15.744c-22.586,0-40.96-18.374-40.953-40.912
			c0.207-3.541-2.333-6.644-5.847-7.148c-8.346-1.196-14.64-8.417-14.64-16.794c0-9.411,7.653-17.067,17.067-17.067h334.507
			c9.414,0,17.067,7.656,17.067,17.067S374.641,191.147,365.227,191.147z"/>
	</g>
</g>
<g>
	<g>
		<path d="M354.987,327.68H40.96c-3.773,0-6.827,3.057-6.827,6.827c0,26.349,21.439,47.787,47.787,47.787h232.107
			c26.348,0,47.787-21.437,47.787-47.787C361.813,330.737,358.76,327.68,354.987,327.68z M314.027,368.64H81.92
			c-16.486,0-30.275-11.747-33.447-27.307h299.001C344.3,356.893,330.513,368.64,314.027,368.64z"/>
	</g>
</g>
<g>
</g>
<g>
</g>
<g>
</g>
<g>
</g>
<g>
</g>
<g>
</g>
<g>
</g>
<g>
</g>
<g>
</g>
<g>
</g>
<g>
</g>
<g>
</g>
<g>
</g>
<g>
</g>
<g>
</g>
</svg>
