<?xml version="1.0" encoding="iso-8859-1"?>
<!-- Generator: Adobe Illustrator 19.0.0, SVG Export Plug-In . SVG Version: 6.00 Build 0)  -->
<svg version="1.1" id="Capa_1" xmlns="http://www.w3.org/2000/svg" xmlns:xlink="http://www.w3.org/1999/xlink" x="0px" y="0px"
	 viewBox="0 0 413.013 413.013" style="enable-background:new 0 0 413.013 413.013;" xml:space="preserve">
<g>
	<g>
		<g>
			<path d="M134.827,187.733H80.213c-3.77,0-6.827,3.053-6.827,6.827v116.053c0,3.773,3.057,6.827,6.827,6.827h54.613
				c3.77,0,6.827-3.053,6.827-6.827V194.56C141.653,190.787,138.597,187.733,134.827,187.733z M128,303.787H87.04v-102.4H128
				V303.787z"/>
			<path d="M134.13,331.093H66.56c-3.763,0-6.827-3.06-6.827-6.827v-143.36c0-3.767,3.063-6.827,6.827-6.827h65.746
				c3.77,0,6.827-3.053,6.827-6.827s-3.057-6.827-6.827-6.827H66.56c-11.293,0-20.48,9.187-20.48,20.48v143.36
				c0,11.293,9.187,20.48,20.48,20.48h67.57c3.77,0,6.827-3.053,6.827-6.827S137.9,331.093,134.13,331.093z"/>
		</g>
	</g>
</g>
<g>
	<g>
		<path d="M353.28,116.941c-3.77,0-6.827,3.053-6.827,6.827v261.926c0,7.533-6.134,13.667-13.67,13.667H155.324
			c-7.537,0-13.67-6.134-13.67-13.667V125.546c0-3.773-3.057-6.827-6.827-6.827S128,121.772,128,125.546v260.147
			c0,15.066,12.257,27.32,27.324,27.32h177.459c15.066,0,27.324-12.254,27.324-27.319V123.767
			C360.107,119.994,357.05,116.941,353.28,116.941z"/>
	</g>
</g>
<g>
	<g>
		<path d="M175.787,174.08c-3.77,0-6.827,3.053-6.827,6.827V358.4c0,3.773,3.057,6.827,6.827,6.827s6.827-3.053,6.827-6.827V180.907
			C182.613,177.133,179.557,174.08,175.787,174.08z"/>
	</g>
</g>
<g>
	<g>
		<path d="M209.92,174.08c-3.77,0-6.827,3.053-6.827,6.827V358.4c0,3.773,3.057,6.827,6.827,6.827s6.827-3.053,6.827-6.827V180.907
			C216.747,177.133,213.69,174.08,209.92,174.08z"/>
	</g>
</g>
<g>
	<g>
		<path d="M244.053,174.08c-3.77,0-6.827,3.053-6.827,6.827V358.4c0,3.773,3.057,6.827,6.827,6.827s6.827-3.053,6.827-6.827V180.907
			C250.88,177.133,247.823,174.08,244.053,174.08z"/>
	</g>
</g>
<g>
	<g>
		<path d="M278.187,174.08c-3.77,0-6.827,3.053-6.827,6.827V358.4c0,3.773,3.057,6.827,6.827,6.827s6.827-3.053,6.827-6.827V180.907
			C285.013,177.133,281.957,174.08,278.187,174.08z"/>
	</g>
</g>
<g>
	<g>
		<path d="M312.32,174.08c-3.77,0-6.827,3.053-6.827,6.827V358.4c0,3.773,3.057,6.827,6.827,6.827s6.827-3.053,6.827-6.827V180.907
			C319.147,177.133,316.09,174.08,312.32,174.08z"/>
	</g>
</g>
<g>
	<g>
		<path d="M325.973,58.027c-1.749,0-3.504,0.133-5.333,0.413c-7.173-12.86-20.603-20.893-35.627-20.893
			c-11.687,0-22.833,5.1-30.573,13.821c-1.685-0.16-3.321-0.207-4.994-0.14C243.161,21.581,217.016,0,186.027,0
			c-30.944,0-57.271,21.794-63.454,51.56c-20.029,2.661-35.533,19.854-35.533,40.6c0,22.586,18.374,40.96,40.96,40.96
			c10.334,0,20.154-3.941,27.694-10.974c9.329,4.961,19.709,7.561,30.333,7.561c12.419,0,24.253-3.447,34.606-10.034
			c7.697,8.52,18.577,13.447,30.247,13.447c11.687,0,22.833-5.1,30.573-13.819c2.99,0.285,5.837,0.225,8.893-0.247
			c7.173,12.86,20.603,20.893,35.627,20.893c22.586,0,40.96-18.374,40.96-40.96C366.933,76.401,348.559,58.027,325.973,58.027z
			 M325.973,126.293c-11.327,0-21.299-6.88-25.404-17.521c-1.036-2.693-3.61-4.372-6.366-4.372c-0.614,0-1.234,0.08-1.85,0.253
			c-4.907,1.386-8.202,1.459-12.483,0.633c-2.64-0.526-5.294,0.56-6.851,2.72c-5.147,7.173-13.425,11.46-22.141,11.46
			c-9.37,0-17.987-4.794-23.05-12.82c-1.034-1.64-2.717-2.766-4.627-3.087c-1.934-0.34-3.879,0.174-5.39,1.381
			c-9.16,7.274-20.151,11.114-31.787,11.114c-9.904,0-19.533-2.867-27.856-8.281c-2.924-1.913-6.83-1.294-9.033,1.434
			c-5.27,6.521-12.974,10.26-21.137,10.26c-15.056,0-27.307-12.247-27.307-27.307c0-14.961,12.087-27.146,27.01-27.307
			c0.258,0.026,0.531,0.039,0.727,0.039c3.465,0,6.381-2.592,6.781-6.033c3.005-25.772,24.853-45.206,50.816-45.206
			c26.32,0,48.21,19.714,50.918,45.855c0.2,1.927,1.21,3.673,2.777,4.813c1.57,1.147,3.545,1.574,5.441,1.154
			c3.63-0.78,6.95-0.846,10.859-0.094c2.664,0.532,5.301-0.553,6.851-2.72c5.147-7.173,13.425-11.46,22.141-11.46
			c11.327,0,21.299,6.88,25.404,17.521c1.266,3.294,4.83,5.06,8.216,4.12c2.814-0.794,5.147-1.161,7.34-1.161
			c15.056,0,27.307,12.247,27.307,27.307C353.28,114.046,341.03,126.293,325.973,126.293z"/>
	</g>
</g>
<g>
</g>
<g>
</g>
<g>
</g>
<g>
</g>
<g>
</g>
<g>
</g>
<g>
</g>
<g>
</g>
<g>
</g>
<g>
</g>
<g>
</g>
<g>
</g>
<g>
</g>
<g>
</g>
<g>
</g>
</svg>
