<?xml version="1.0" encoding="iso-8859-1"?>
<!-- Generator: Adobe Illustrator 19.0.0, SVG Export Plug-In . SVG Version: 6.00 Build 0)  -->
<svg version="1.1" id="Capa_1" xmlns="http://www.w3.org/2000/svg" xmlns:xlink="http://www.w3.org/1999/xlink" x="0px" y="0px"
	 viewBox="0 0 382.024 382.024" style="enable-background:new 0 0 382.024 382.024;" xml:space="preserve">
<g>
	<g>
		<path d="M379.528,257.92c-9.16-34.4-41.255-59.706-65.743-63.433c-39.229-5.973-77.679-38.547-78.063-38.88
			c-0.043-0.032-0.094-0.078-0.14-0.113c-0.239-0.195-24.166-19.881-38.436-50.801c-6.246-13.539-9.373-26.052-12.129-37.086
			c-3.888-15.56-7.243-28.993-17.804-38.373C145.355,9.829,121.598,0.562,98.527,2.415c-23.883,1.927-46.143,15.346-66.157,39.9
			C-9.702,93.921-24.516,208.108,74.274,300.408c56.387,52.68,114.256,79.433,168.26,79.433c36.726,0,71.663-12.373,103.127-37.381
			C375.668,318.613,387.695,288.594,379.528,257.92z M337.171,331.768c-71.883,57.132-164.309,42.059-253.577-41.334
			C-8.762,204.141,4.229,98.441,42.952,50.941c17.574-21.554,36.64-33.301,56.673-34.913c1.56-0.126,3.12-0.193,4.69-0.193
			c17.85,0,36.362,8.1,53.835,23.612c7.402,6.574,10.15,17.562,13.623,31.468c2.903,11.621,6.195,24.801,12.979,39.501
			c15.377,33.314,40.264,54.074,42.156,55.62c2.483,2.12,42.146,35.453,84.826,41.946c20.32,3.093,47.106,25.313,54.603,53.453
			C371.063,279.194,369.841,305.808,337.171,331.768z"/>
	</g>
</g>
<g>
	<g>
		<path d="M324.966,227.468c-3.432-1.553-7.456-0.027-9.013,3.393c-1.56,3.427-0.043,7.474,3.374,9.04
			c1.413,0.647,34.451,16.254,23.204,49.654c-1.203,3.572,0.72,7.446,4.294,8.646c0.719,0.247,1.456,0.36,2.176,0.36
			c2.85,0,5.509-1.799,6.468-4.646C367.643,257.755,340.84,234.634,324.966,227.468z"/>
	</g>
</g>
<g>
	<g>
		<path d="M49.444,70.902c-3.263-1.888-7.438-0.773-9.324,2.48c-1.556,2.693-37.777,66.4-4.26,115.347
			c1.324,1.927,3.465,2.966,5.641,2.966c1.326,0,2.669-0.386,3.85-1.193c3.11-2.133,3.907-6.38,1.777-9.492
			c-28.624-41.795,4.473-100.2,4.809-100.78C53.82,76.962,52.703,72.788,49.444,70.902z"/>
	</g>
</g>
<g>
	<g>
		<path d="M297.991,190.712c-33.162-10.447-61.983-34.86-62.409-35.227c-0.241-0.193-24.102-19.734-38.431-50.787
			c-4.879-10.574-7.76-20.354-9.726-27.694c-0.923-3.461-4.376-5.601-7.869-4.941c-9.334,1.773-17.179,5.786-23.323,11.933
			c-12.054,12.052-15.87,30.553-10.74,52.093c4.847,20.359,17.234,41.286,34.877,58.926c17.64,17.647,38.569,30.034,58.93,34.881
			c6.246,1.487,12.24,2.22,17.893,2.22c13.836,0,25.643-4.4,34.2-12.957c5.347-5.347,9.1-12.153,11.163-20.246
			C303.447,195.398,301.443,191.806,297.991,190.712z M281.74,209.502c-8.574,8.579-22.531,11.107-39.277,7.113
			c-17.937-4.272-36.56-15.372-52.441-31.252s-26.977-34.5-31.247-52.434c-3.99-16.754-1.463-30.708,7.11-39.281
			c2.826-2.828,6.246-5,10.209-6.501c2.004,6.76,4.724,14.74,8.658,23.267c15.65,33.913,41.16,54.808,42.093,55.561
			c1.178,1.007,27.54,23.38,60.407,35.487C285.832,204.561,283.989,207.249,281.74,209.502z"/>
	</g>
</g>
<g>
</g>
<g>
</g>
<g>
</g>
<g>
</g>
<g>
</g>
<g>
</g>
<g>
</g>
<g>
</g>
<g>
</g>
<g>
</g>
<g>
</g>
<g>
</g>
<g>
</g>
<g>
</g>
<g>
</g>
</svg>
