<?xml version="1.0" encoding="iso-8859-1"?>
<!-- Generator: Adobe Illustrator 19.0.0, SVG Export Plug-In . SVG Version: 6.00 Build 0)  -->
<svg version="1.1" id="Capa_1" xmlns="http://www.w3.org/2000/svg" xmlns:xlink="http://www.w3.org/1999/xlink" x="0px" y="0px"
	 viewBox="0 0 430.08 430.08" style="enable-background:new 0 0 430.08 430.08;" xml:space="preserve">
<g>
	<g>
		<path d="M416.427,0H13.653C9.88,0,6.827,3.053,6.827,6.827v129.707c0,3.773,3.053,6.827,6.827,6.827h402.773
			c3.773,0,6.827-3.053,6.827-6.827V6.827C423.253,3.053,420.2,0,416.427,0z M409.6,129.707H20.48V13.653H409.6V129.707z"/>
	</g>
</g>
<g>
	<g>
		<path d="M81.019,68.267H55.513c-11.786,0-21.379,9.593-21.379,21.379v46.887c0,3.773,3.053,6.827,6.827,6.827h54.613
			c3.773,0,6.827-3.053,6.827-6.827V89.646C102.4,77.86,92.807,68.267,81.019,68.267z M88.747,129.707h-40.96V89.646
			c0-4.26,3.466-7.726,7.726-7.726h25.508c4.26,0,7.726,3.466,7.726,7.726V129.707z"/>
	</g>
</g>
<g>
	<g>
		<path d="M68.267,27.307c-3.773,0-6.827,3.053-6.827,6.827v34.133c0,3.773,3.053,6.827,6.827,6.827s6.827-3.053,6.827-6.827V34.133
			C75.093,30.36,72.04,27.307,68.267,27.307z"/>
	</g>
</g>
<g>
	<g>
		<path d="M81.92,27.307H54.613c-3.773,0-6.827,3.053-6.827,6.827s3.053,6.827,6.827,6.827H81.92c3.773,0,6.827-3.053,6.827-6.827
			S85.693,27.307,81.92,27.307z"/>
	</g>
</g>
<g>
	<g>
		<path d="M416.427,129.707H13.653c-3.773,0-6.827,3.053-6.827,6.827V266.24c0,3.773,3.053,6.827,6.827,6.827h402.773
			c3.773,0,6.827-3.053,6.827-6.827V136.533C423.253,132.76,420.2,129.707,416.427,129.707z M409.6,259.413H20.48V143.36H409.6
			V259.413z"/>
	</g>
</g>
<g>
	<g>
		<path d="M135.632,68.267h-25.506c-11.786,0-21.379,9.593-21.379,21.379v46.887c0,3.773,3.053,6.827,6.827,6.827h54.613
			c3.773,0,6.827-3.053,6.827-6.827V89.646C157.013,77.86,147.42,68.267,135.632,68.267z M143.36,129.707H102.4V89.646
			c0-4.26,3.466-7.726,7.726-7.726h25.508c4.26,0,7.726,3.466,7.726,7.726V129.707z"/>
	</g>
</g>
<g>
	<g>
		<path d="M122.88,27.307c-3.773,0-6.827,3.053-6.827,6.827v34.133c0,3.773,3.053,6.827,6.827,6.827s6.827-3.053,6.827-6.827V34.133
			C129.707,30.36,126.653,27.307,122.88,27.307z"/>
	</g>
</g>
<g>
	<g>
		<path d="M136.533,27.307h-27.307c-3.773,0-6.827,3.053-6.827,6.827s3.053,6.827,6.827,6.827h27.307
			c3.773,0,6.827-3.053,6.827-6.827S140.307,27.307,136.533,27.307z"/>
	</g>
</g>
<g>
	<g>
		<path d="M190.246,68.267h-25.506c-11.786,0-21.379,9.593-21.379,21.379v46.887c0,3.773,3.053,6.827,6.827,6.827H204.8
			c3.773,0,6.827-3.053,6.827-6.827V89.646C211.627,77.86,202.033,68.267,190.246,68.267z M197.973,129.707h-40.958V89.646
			c0-4.26,3.466-7.726,7.726-7.726h25.506c4.26,0,7.726,3.466,7.726,7.726V129.707z"/>
	</g>
</g>
<g>
	<g>
		<path d="M177.493,27.307c-3.773,0-6.827,3.053-6.827,6.827v34.133c0,3.773,3.053,6.827,6.827,6.827
			c3.773,0,6.827-3.053,6.827-6.827V34.133C184.32,30.36,181.267,27.307,177.493,27.307z"/>
	</g>
</g>
<g>
	<g>
		<path d="M191.147,27.307H163.84c-3.773,0-6.827,3.053-6.827,6.827s3.053,6.827,6.827,6.827h27.307
			c3.773,0,6.827-3.053,6.827-6.827S194.92,27.307,191.147,27.307z"/>
	</g>
</g>
<g>
	<g>
		<path d="M299.472,197.973h-25.506c-11.786,0-21.379,9.593-21.379,21.379v46.887c0,3.773,3.053,6.827,6.827,6.827h54.613
			c3.773,0,6.827-3.053,6.825-6.827v-46.887C320.852,207.566,311.259,197.973,299.472,197.973z M307.2,259.413h-40.958v-40.061
			c0-4.26,3.466-7.726,7.726-7.726h25.506c4.26,0,7.726,3.466,7.726,7.726V259.413z"/>
	</g>
</g>
<g>
	<g>
		<path d="M286.72,157.013c-3.773,0-6.827,3.053-6.827,6.827v34.133c0,3.773,3.053,6.827,6.827,6.827s6.827-3.053,6.827-6.827
			V163.84C293.547,160.067,290.493,157.013,286.72,157.013z"/>
	</g>
</g>
<g>
	<g>
		<path d="M300.373,157.013h-27.307c-3.773,0-6.827,3.053-6.827,6.827s3.053,6.827,6.827,6.827h27.307
			c3.773,0,6.827-3.053,6.827-6.827S304.147,157.013,300.373,157.013z"/>
	</g>
</g>
<g>
	<g>
		<path d="M354.086,197.973h-25.506c-11.786,0-21.379,9.593-21.379,21.379v46.887c0,3.773,3.053,6.827,6.827,6.827h54.613
			c3.773,0,6.827-3.053,6.825-6.827v-46.887C375.465,207.566,365.872,197.973,354.086,197.973z M361.813,259.413h-40.958v-40.061
			c0-4.26,3.466-7.726,7.726-7.726h25.506c4.26,0,7.726,3.466,7.726,7.726V259.413z"/>
	</g>
</g>
<g>
	<g>
		<path d="M341.333,157.013c-3.773,0-6.827,3.053-6.827,6.827v34.133c0,3.773,3.053,6.827,6.827,6.827s6.827-3.053,6.827-6.827
			V163.84C348.16,160.067,345.107,157.013,341.333,157.013z"/>
	</g>
</g>
<g>
	<g>
		<path d="M354.987,157.013H327.68c-3.773,0-6.827,3.053-6.827,6.827s3.053,6.827,6.827,6.827h27.307
			c3.773,0,6.827-3.053,6.827-6.827S358.76,157.013,354.987,157.013z"/>
	</g>
</g>
<g>
	<g>
		<path d="M416.427,279.893H13.653c-3.773,0-6.827,3.053-6.827,6.827v34.133c0,3.773,3.053,6.827,6.827,6.827h402.773
			c3.773,0,6.827-3.053,6.827-6.827V286.72C423.253,282.947,420.2,279.893,416.427,279.893z M409.6,314.027H20.48v-20.48H409.6
			V314.027z"/>
	</g>
</g>
<g>
	<g>
		<path d="M150.187,341.333H75.093c-3.773,0-6.827,3.053-6.827,6.827s3.053,6.827,6.827,6.827h75.093
			c3.773,0,6.827-3.053,6.827-6.827S153.96,341.333,150.187,341.333z"/>
	</g>
</g>
<g>
	<g>
		<path d="M92.488,341.806c-3.5-1.36-7.468,0.34-8.854,3.854l-8.067,20.48c-0.312,0.794-0.473,1.647-0.473,2.5v54.613
			c0,3.773,3.053,6.827,6.827,6.827s6.827-3.053,6.827-6.827v-53.32l7.595-19.273C97.72,347.153,95.995,343.187,92.488,341.806z"/>
	</g>
</g>
<g>
	<g>
		<path d="M149.716,366.14l-8.067-20.48c-1.388-3.514-5.354-5.214-8.854-3.854c-3.507,1.381-5.234,5.347-3.854,8.854l7.593,19.273
			v53.32c0,3.773,3.053,6.827,6.827,6.827s6.827-3.053,6.827-6.827V368.64C150.187,367.787,150.026,366.933,149.716,366.14z"/>
	</g>
</g>
<g>
	<g>
		<path d="M143.36,389.12H81.92c-3.773,0-6.827,3.053-6.827,6.827s3.053,6.827,6.827,6.827h61.44c3.773,0,6.827-3.053,6.827-6.827
			S147.133,389.12,143.36,389.12z"/>
	</g>
</g>
<g>
	<g>
		<path d="M252.587,341.333h-75.093c-3.773,0-6.827,3.053-6.827,6.827s3.053,6.827,6.827,6.827h75.093
			c3.773,0,6.827-3.053,6.827-6.827S256.36,341.333,252.587,341.333z"/>
	</g>
</g>
<g>
	<g>
		<path d="M194.888,341.806c-3.494-1.36-7.474,0.34-8.854,3.854l-8.067,20.48c-0.312,0.794-0.473,1.647-0.473,2.5v54.613
			c0,3.773,3.053,6.827,6.827,6.827s6.827-3.053,6.827-6.827v-53.32l7.595-19.273C200.12,347.153,198.395,343.187,194.888,341.806z"
			/>
	</g>
</g>
<g>
	<g>
		<path d="M252.116,366.14l-8.067-20.48c-1.388-3.514-5.361-5.214-8.854-3.854c-3.507,1.381-5.234,5.347-3.854,8.854l7.593,19.273
			v53.32c0,3.773,3.053,6.827,6.827,6.827s6.827-3.053,6.827-6.827V368.64C252.587,367.787,252.426,366.933,252.116,366.14z"/>
	</g>
</g>
<g>
	<g>
		<path d="M245.76,389.12h-61.44c-3.773,0-6.827,3.053-6.827,6.827s3.053,6.827,6.827,6.827h61.44c3.773,0,6.827-3.053,6.827-6.827
			S249.533,389.12,245.76,389.12z"/>
	</g>
</g>
<g>
	<g>
		<path d="M354.987,341.333h-75.093c-3.773,0-6.827,3.053-6.827,6.827s3.053,6.827,6.827,6.827h75.093
			c3.773,0,6.827-3.053,6.827-6.827S358.76,341.333,354.987,341.333z"/>
	</g>
</g>
<g>
	<g>
		<path d="M297.288,341.806c-3.5-1.36-7.468,0.34-8.854,3.854l-8.067,20.48c-0.312,0.794-0.473,1.647-0.473,2.5v54.613
			c0,3.773,3.053,6.827,6.827,6.827s6.827-3.053,6.827-6.827v-53.32l7.595-19.273C302.52,347.153,300.795,343.187,297.288,341.806z"
			/>
	</g>
</g>
<g>
	<g>
		<path d="M354.516,366.14l-8.067-20.48c-1.388-3.514-5.354-5.214-8.854-3.854c-3.507,1.381-5.234,5.347-3.854,8.854l7.593,19.273
			v53.32c0,3.773,3.053,6.827,6.827,6.827s6.827-3.053,6.827-6.827V368.64C354.987,367.787,354.826,366.933,354.516,366.14z"/>
	</g>
</g>
<g>
	<g>
		<path d="M348.16,389.12h-61.44c-3.773,0-6.827,3.053-6.827,6.827s3.053,6.827,6.827,6.827h61.44c3.773,0,6.827-3.053,6.827-6.827
			S351.933,389.12,348.16,389.12z"/>
	</g>
</g>
<g>
</g>
<g>
</g>
<g>
</g>
<g>
</g>
<g>
</g>
<g>
</g>
<g>
</g>
<g>
</g>
<g>
</g>
<g>
</g>
<g>
</g>
<g>
</g>
<g>
</g>
<g>
</g>
<g>
</g>
</svg>
