<?xml version="1.0" encoding="iso-8859-1"?>
<!-- Generator: Adobe Illustrator 19.0.0, SVG Export Plug-In . SVG Version: 6.00 Build 0)  -->
<svg version="1.1" id="Capa_1" xmlns="http://www.w3.org/2000/svg" xmlns:xlink="http://www.w3.org/1999/xlink" x="0px" y="0px"
	 viewBox="0 0 410.106 410.106" style="enable-background:new 0 0 410.106 410.106;" xml:space="preserve">
<g>
	<g>
		<path d="M379.494,100.65l-1.23-1.959c-19.173-30.682-32.056-61.74-32.056-77.28c0-8.107-4.26-11.25-6.799-12.401
			c-9.865-4.471-25.498,7.229-33.94,14.616c-2.224,1.947-2.944,5.106-1.777,7.827c5.813,13.57,19.137,52.931,11.034,71.84
			c-1.742,4.07-3.145,10.349-5.086,19.043c-5.166,23.154-13.815,61.908-38.17,93.467c-29.013,37.601-87.211,64.203-107.187,71.277
			c-28.083,9.946-47.706,11.72-65.021,13.283c-11.261,1.017-21.897,1.98-33.64,4.913c-29.454,7.366-58.356,18.162-59.573,18.616
			c-1.586,0.597-2.896,1.763-3.673,3.27c-3.279,6.373-5.473,21.033,9.701,30.909c31.2,20.299,88.68,44.013,152.873,44.013
			c44.954,0,93.208-11.636,138.003-44.216c69.25-50.364,105.276-104.393,107.083-160.587
			C411.504,151.553,389.884,117.174,379.494,100.65z M294.92,346.829c-102.76,74.723-225.07,32.546-275.396-0.203
			c-5.907-3.843-6.263-8.281-5.721-11.03c8.137-2.941,31.783-11.233,55.134-17.072c10.713-2.679,20.837-3.594,31.556-4.564
			c18.113-1.637,38.647-3.49,68.35-14.01c26.153-9.264,83.517-37.03,113.434-75.807c26.211-33.963,35.273-74.569,40.69-98.833
			c1.642-7.369,3.062-13.737,4.306-16.637c10.076-23.514-3.763-63.947-9.114-77.827c5.437-4.256,11.155-7.782,14.401-8.88
			c0.29,22.093,17.766,57.776,34.126,83.956l1.249,1.993C387.766,139.452,448.114,235.417,294.92,346.829z"/>
	</g>
</g>
<g>
	<g>
		<path d="M236.185,300.096c-2.285-2.994-6.572-3.574-9.569-1.277C171.33,341.1,68.393,335.053,67.36,334.977
			c-3.729-0.283-7.006,2.613-7.247,6.376c-0.244,3.76,2.609,7.006,6.369,7.25c1.007,0.063,7.175,0.434,16.811,0.434
			c32.799,0,105.726-4.277,151.615-39.371C237.906,307.376,238.476,303.089,236.185,300.096z"/>
	</g>
</g>
<g>
	<g>
		<path d="M273.136,265.283c-2.666-2.666-6.987-2.666-9.653,0l-17.067,17.067c-2.666,2.666-2.666,6.987,0,9.653
			c1.333,1.333,3.081,2,4.826,2c1.746,0,3.494-0.667,4.826-2l17.067-17.067C275.802,272.27,275.802,267.949,273.136,265.283z"/>
	</g>
</g>
<g>
</g>
<g>
</g>
<g>
</g>
<g>
</g>
<g>
</g>
<g>
</g>
<g>
</g>
<g>
</g>
<g>
</g>
<g>
</g>
<g>
</g>
<g>
</g>
<g>
</g>
<g>
</g>
<g>
</g>
</svg>
