<?xml version="1.0" encoding="iso-8859-1"?>
<!-- Generator: Adobe Illustrator 19.0.0, SVG Export Plug-In . SVG Version: 6.00 Build 0)  -->
<svg version="1.1" id="Capa_1" xmlns="http://www.w3.org/2000/svg" xmlns:xlink="http://www.w3.org/1999/xlink" x="0px" y="0px"
	 viewBox="0 0 427.608 427.608" style="enable-background:new 0 0 427.608 427.608;" xml:space="preserve">
<g>
	<g>
		<path d="M234.837,334.659c-6.448-2.941-14.36-4.367-24.201-4.367c-20.067,0-40.533,3.512-60.82,10.443
			c-22.946,7.83-48.533,0.874-63.633-17.35c-28.153-33.969-71.086-97.244-42.32-139.31c2.127-3.115,1.333-7.361-1.78-9.487
			c-3.122-2.133-7.361-1.33-9.487,1.78c-32.133,46.979,5.693,110.616,43.08,155.73c13.592,16.406,34,25.463,55.013,25.463
			c7.866,0,15.826-1.275,23.542-3.905c18.867-6.443,37.84-9.709,56.407-9.709c7.733,0,13.972,1.053,18.533,3.133
			c3.434,1.572,7.48,0.049,9.047-3.378C239.778,340.268,238.264,336.222,234.837,334.659z"/>
	</g>
</g>
<g>
	<g>
		<path d="M388.13,22.915c-55.559-34.874-153.846-14.768-181.873,8.583c-15.688,13.076-17.493,25.083-19.081,35.68
			c-1.819,12.134-3.393,22.617-26.387,37.787c-3.147,2.074-4.014,6.31-1.94,9.457c2.08,3.151,6.306,4.014,9.46,1.94
			c28.073-18.524,30.353-33.737,32.367-47.16c1.468-9.757,2.621-17.463,14.328-27.216C240.819,20.48,331.899,3.739,380.872,34.48
			c30.793,19.33,40.194,53.985,27.94,103.006c-26.586,106.334-13.206,174.317-6.019,210.84c3.007,15.297,5.608,28.512,2.028,30.898
			c-3.886,2.594-3.872,2.577-8.66-2.099c-7.293-7.149-19.494-19.127-51.68-5.32c-18,7.714-30.206,16.23-40.02,23.074
			c-16.647,11.617-21.687,15.113-35.12,5.047c-0.753-0.57-1.459-1.167-2.113-1.787c-2.732-2.598-7.059-2.487-9.653,0.256
			c-2.594,2.732-2.481,7.055,0.253,9.649c1.026,0.974,2.133,1.911,3.326,2.801c8.207,6.159,15.208,8.59,21.654,8.59
			c10.313,0,19.226-6.217,29.461-13.361c9.301-6.487,20.874-14.561,37.581-21.724c23.779-10.182,30.367-3.729,36.753,2.524
			c5.047,4.954,12.686,12.44,25.786,3.71c11.167-7.445,8.393-21.54,3.794-44.894c-7.465-37.97-19.973-101.518,5.868-204.89
			C439.303,71.796,413.124,38.605,388.13,22.915z"/>
	</g>
</g>
<g>
	<g>
		<path d="M285.728,50.396c-41.407,0-75.093,33.686-75.093,75.093c0,41.407,33.686,75.093,75.093,75.093
			c41.405,0,75.093-33.686,75.093-75.093C360.822,84.082,327.135,50.396,285.728,50.396z M285.728,186.929
			c-33.881,0-61.44-27.563-61.44-61.44s27.559-61.44,61.44-61.44c33.879,0,61.44,27.563,61.44,61.44
			S319.609,186.929,285.728,186.929z"/>
	</g>
</g>
<g>
	<g>
		<path d="M285.728,70.876c-30.114,0-54.613,24.499-54.613,54.613c0,3.77,3.053,6.827,6.827,6.827c3.772,0,6.827-3.057,6.827-6.827
			c0-22.586,18.374-40.96,40.96-40.96c3.773,0,6.827-3.057,6.827-6.827S289.502,70.876,285.728,70.876z"/>
	</g>
</g>
<g>
	<g>
		<path d="M330.033,336.736c-0.14-2.4-3.632-59.097-19.239-85.06c-10.334-17.186-32.833-28-52.686-37.54
			c-11.066-5.321-21.513-10.341-27.412-15.391c-6.246-5.34-11.74-19.85-17.053-33.881c-8.26-21.796-16.794-44.339-33.101-53.016
			c-9.554-5.088-23.574-8.637-38.42-12.394c-22.361-5.658-50.181-12.699-53.434-24.68c-0.64-2.357-2.487-4.193-4.854-4.816
			c-2.354-0.616-4.872,0.067-6.593,1.807L1.968,147.988c-2.48,2.514-2.633,6.501-0.36,9.201c0.674,0.797,16.713,19.62,36.553,27.947
			c10.233,4.294,23.84,6.752,35.84,8.921c10.013,1.807,20.366,3.681,24.859,6.071c11.767,6.267,19.721,27.271,26.74,45.8
			c6.193,16.357,12.047,31.807,20.941,39.417c7.26,6.209,18.487,11.605,30.374,17.319c18.127,8.709,38.673,18.586,46.899,32.273
			c12.607,20.96,16.573,68.373,17.22,77.346l-0.734,1.857c-1.2,3.033-0.085,6.49,2.654,8.253c1.133,0.727,2.42,1.084,3.693,1.084
			c1.801,0,3.594-0.713,4.92-2.091l76.573-79.514C329.46,340.499,330.146,338.635,330.033,336.736z M253.616,399.572
			c-1.981-18.92-6.948-53.13-18.094-71.67c-10.334-17.19-32.833-28.003-52.693-37.547c-11.061-5.318-21.507-10.341-27.407-15.387
			c-6.246-5.34-11.74-19.85-17.053-33.881c-8.253-21.796-16.787-44.336-33.094-53.016c-6.38-3.393-16.794-5.277-28.846-7.453
			c-11.314-2.043-24.127-4.359-32.986-8.076c-11.332-4.753-21.627-14.046-27.153-19.62L80.567,87.83
			c10.813,12.87,34.835,18.949,58.201,24.863c14.02,3.55,27.267,6.9,35.36,11.209c11.774,6.263,19.727,27.271,26.747,45.8
			c6.193,16.357,12.047,31.807,20.941,39.417c7.253,6.209,18.487,11.605,30.38,17.319c18.128,8.713,38.675,18.582,46.894,32.27
			c12.02,20,16.186,64.084,17.106,75.88L253.616,399.572z"/>
	</g>
</g>
<g>
	<g>
		<path d="M300.957,366.462c-2.755-22.497-8.247-53.007-18.801-70.571c-11.194-18.603-35.668-30.37-57.267-40.747
			c-12.119-5.827-23.567-11.325-30.073-16.896c-6.941-5.936-12.967-21.852-18.801-37.246c-8.974-23.697-18.248-48.198-35.847-57.564
			c-10.359-5.516-25.619-9.387-41.779-13.483c-20.04-5.081-40.767-10.337-51.907-18.654c-3.028-2.265-7.301-1.637-9.561,1.386
			c-2.255,3.021-1.635,7.301,1.386,9.554c13.326,9.943,35.386,15.539,56.726,20.949c15.334,3.886,29.814,7.561,38.721,12.3
			c13.059,6.95,21.792,30.003,29.493,50.343c6.733,17.784,13.094,34.579,22.687,42.786c7.859,6.726,20.093,12.607,33.039,18.83
			c19.872,9.547,42.394,20.372,51.473,35.473c7.274,12.097,13.295,35.25,16.961,65.196c0.42,3.461,3.367,5.997,6.767,5.997
			c0.273,0,0.553-0.017,0.836-0.048C298.757,373.61,301.418,370.205,300.957,366.462z"/>
	</g>
</g>
<g>
</g>
<g>
</g>
<g>
</g>
<g>
</g>
<g>
</g>
<g>
</g>
<g>
</g>
<g>
</g>
<g>
</g>
<g>
</g>
<g>
</g>
<g>
</g>
<g>
</g>
<g>
</g>
<g>
</g>
</svg>
