<?xml version="1.0" encoding="iso-8859-1"?>
<!-- Generator: Adobe Illustrator 19.0.0, SVG Export Plug-In . SVG Version: 6.00 Build 0)  -->
<svg version="1.1" id="Capa_1" xmlns="http://www.w3.org/2000/svg" xmlns:xlink="http://www.w3.org/1999/xlink" x="0px" y="0px"
	 viewBox="0 0 433.49 433.49" style="enable-background:new 0 0 433.49 433.49;" xml:space="preserve">
<g>
	<g>
		<path d="M307.24,55.988L211.572,0.908c-1.647-0.954-3.64-1.161-5.441-0.601c-2.301,0.717-56.467,17.813-77.887,39.236
			c-14.181,14.179-19.238,38.629-23.694,60.199c-2.487,12.02-4.833,23.375-8.306,30.321c-3.674,7.346-16.42,16.183-28.75,24.73
			c-19.157,13.283-38.967,27.013-43.447,44.933c-2.625,10.505-2.681,24.963-2.737,40.277c-0.084,23.064-0.193,51.767-11.034,57.82
			c-2.133,1.19-3.466,3.429-3.5,5.869c-0.031,2.444,1.244,4.717,3.347,5.963l92.16,54.613c1.087,0.643,2.287,0.954,3.476,0.954
			c2.127,0,4.21-0.993,5.542-2.83c0.609-0.843,15-20.956,18.28-42.216c1.693-10.974,0.79-24.767-0.007-36.937
			c-0.662-10.153-1.35-20.652-0.116-25.586c3.234-12.937,21.693-25.733,37.98-37.023c14.37-9.964,27.947-19.376,33.183-29.846
			c4.273-8.544,6.794-20.745,9.46-33.664c4.074-19.697,8.687-42.016,19.98-53.309c17.294-17.294,62.339-32.602,70.893-35.403
			l1.98,0.263c3.186,0.423,6.313-1.483,7.366-4.574C311.346,61.01,310.066,57.614,307.24,55.988z M220.403,94.159
			c-14.181,14.179-19.234,38.629-23.694,60.199c-2.487,12.02-4.833,23.375-8.306,30.321c-3.674,7.345-16.42,16.183-28.751,24.73
			c-19.157,13.283-38.967,27.013-43.447,44.933c-1.749,7.006-1.06,17.567-0.259,29.793c0.749,11.465,1.599,24.467,0.137,33.963
			c-1.874,12.143-8.404,24.38-12.477,31.087l-78.7-46.636c9.873-13.607,9.967-38.386,10.059-62.491
			c0.053-14.461,0.106-28.121,2.33-37.014c3.234-12.937,21.693-25.733,37.98-37.023c14.37-9.964,27.947-19.376,33.183-29.846
			c4.27-8.544,6.794-20.745,9.464-33.664c4.07-19.697,8.687-42.016,19.977-53.309c16.5-16.5,58.271-31.198,69.494-34.941
			l78.186,45.013C267.696,65.769,235.703,78.862,220.403,94.159z"/>
	</g>
</g>
<g>
	<g>
		<path d="M250.815,25.271c-1.347-3.521-5.313-5.284-8.813-3.93c-21.166,8.107-49.437,20.816-63.933,35.313
			c-15.355,15.353-20.85,41.953-25.704,65.42c-2.72,13.167-5.291,25.603-9.12,33.26c-4.084,8.166-18.07,17.864-31.601,27.24
			c-20.82,14.437-42.353,29.363-47.189,48.7c-2.847,11.39-2.913,27.129-2.983,43.796c-0.087,20.68-0.177,42.059-5.554,54.886
			c-1.456,3.476,0.181,7.477,3.657,8.936c0.864,0.358,1.756,0.532,2.637,0.532c2.671,0,5.204-1.577,6.301-4.187
			c6.427-15.331,6.523-38.094,6.613-60.107c0.067-15.821,0.13-30.758,2.577-40.544c3.589-14.356,23.849-28.399,41.723-40.789
			c15.626-10.834,30.385-21.067,36.033-32.357c4.627-9.254,7.369-22.537,10.279-36.603c4.463-21.593,9.52-46.066,21.984-58.53
			c9.987-9.984,30.993-21.427,59.16-32.22C250.402,32.741,252.169,28.79,250.815,25.271z"/>
	</g>
</g>
<g>
	<g>
		<path d="M423.293,124.254l-95.667-55.079c-1.654-0.947-3.633-1.161-5.441-0.601c-2.301,0.717-56.467,17.812-77.887,39.236
			c-14.181,14.179-19.234,38.629-23.694,60.199c-2.487,12.02-4.833,23.375-8.306,30.321c-3.674,7.345-16.42,16.183-28.751,24.73
			c-19.157,13.283-38.967,27.013-43.447,44.933c-2.625,10.505-2.681,24.963-2.737,40.277c-0.084,23.064-0.193,51.767-11.034,57.82
			c-2.133,1.19-3.466,3.429-3.5,5.869c-0.031,2.444,1.244,4.717,3.347,5.963l92.16,54.613c1.087,0.643,2.287,0.954,3.473,0.954
			c2.127,0,4.214-0.993,5.545-2.831c0.613-0.843,15-20.956,18.28-42.216c1.693-10.976,0.794-24.769-0.007-36.943
			c-0.659-10.15-1.347-20.649-0.12-25.58c3.241-12.937,21.693-25.733,37.98-37.023c14.374-9.964,27.954-19.376,33.186-29.846
			c4.273-8.544,6.794-20.745,9.46-33.664c4.074-19.697,8.687-42.016,19.98-53.309c17.294-17.294,62.339-32.602,70.893-35.403
			l1.98,0.263c3.166,0.423,6.313-1.483,7.366-4.574C427.399,129.277,426.119,125.881,423.293,124.254z M336.456,162.426
			c-14.181,14.179-19.234,38.629-23.694,60.199c-2.487,12.02-4.833,23.375-8.306,30.321c-3.674,7.345-16.42,16.183-28.747,24.73
			c-19.161,13.283-38.967,27.013-43.447,44.937c-1.753,7.002-1.06,17.56-0.259,29.78c0.746,11.472,1.599,24.477,0.133,33.973
			c-1.874,12.143-8.4,24.38-12.474,31.087l-78.703-46.636c9.873-13.607,9.967-38.386,10.057-62.491
			c0.053-14.461,0.106-28.121,2.33-37.014c3.234-12.937,21.693-25.733,37.98-37.023c14.37-9.964,27.95-19.376,33.183-29.846
			c4.273-8.544,6.794-20.745,9.46-33.664c4.074-19.697,8.687-42.016,19.98-53.309c16.5-16.5,58.267-31.198,69.494-34.941
			l78.186,45.013C383.749,134.035,351.756,147.129,336.456,162.426z"/>
	</g>
</g>
<g>
	<g>
		<path d="M366.869,93.538c-1.347-3.521-5.32-5.284-8.813-3.93c-21.166,8.107-49.434,20.813-63.933,35.313
			c-15.348,15.35-20.847,41.943-25.701,65.406c-2.72,13.17-5.294,25.614-9.127,33.273c-4.081,8.166-18.067,17.864-31.601,27.244
			c-20.82,14.433-42.349,29.36-47.186,48.696c-2.847,11.39-2.913,27.129-2.983,43.797c-0.087,20.68-0.177,42.059-5.554,54.886
			c-1.456,3.476,0.181,7.477,3.657,8.936c0.864,0.358,1.756,0.532,2.637,0.532c2.671,0,5.204-1.577,6.301-4.186
			c6.427-15.331,6.523-38.095,6.613-60.107c0.067-15.821,0.13-30.758,2.577-40.544c3.589-14.356,23.846-28.399,41.719-40.789
			c15.626-10.834,30.385-21.067,36.033-32.357c4.627-9.257,7.38-22.547,10.286-36.617c4.459-21.586,9.52-46.056,21.98-58.517
			c9.987-9.987,31-21.427,59.16-32.22C366.456,101.008,368.222,97.057,366.869,93.538z"/>
	</g>
</g>
<g>
</g>
<g>
</g>
<g>
</g>
<g>
</g>
<g>
</g>
<g>
</g>
<g>
</g>
<g>
</g>
<g>
</g>
<g>
</g>
<g>
</g>
<g>
</g>
<g>
</g>
<g>
</g>
<g>
</g>
</svg>
