<?xml version="1.0" encoding="iso-8859-1"?>
<!-- Generator: Adobe Illustrator 19.0.0, SVG Export Plug-In . SVG Version: 6.00 Build 0)  -->
<svg version="1.1" id="Capa_1" xmlns="http://www.w3.org/2000/svg" xmlns:xlink="http://www.w3.org/1999/xlink" x="0px" y="0px"
	 viewBox="0 0 436.907 436.907" style="enable-background:new 0 0 436.907 436.907;" xml:space="preserve">
<g>
	<g>
		<path d="M394.633,58.027H42.274C18.963,58.027,0,76.989,0,100.301v195.345c0,23.311,18.963,42.274,42.274,42.274h226.854
			c3.77,0,6.827-3.057,6.827-6.827s-3.057-6.827-6.827-6.827H42.274c-15.782,0-28.621-12.841-28.621-28.621V100.301
			c0-15.782,12.839-28.621,28.621-28.621h352.358c15.782,0,28.621,12.841,28.621,28.621v195.345
			c0,15.782-12.841,28.621-28.621,28.621h-50.644c-3.77,0-6.827,3.057-6.827,6.827s3.057,6.827,6.827,6.827h50.644
			c23.311,0,42.274-18.963,42.274-42.274V100.301C436.907,76.989,417.944,58.027,394.633,58.027z"/>
	</g>
</g>
<g>
	<g>
		<path d="M116.053,98.987H47.787c-3.77,0-6.827,3.057-6.827,6.827s3.057,6.827,6.827,6.827h68.267c3.77,0,6.827-3.057,6.827-6.827
			S119.823,98.987,116.053,98.987z"/>
	</g>
</g>
<g>
	<g>
		<path d="M395.947,133.12H259.413c-3.77,0-6.827,3.057-6.827,6.827s3.057,6.827,6.827,6.827h136.533
			c3.77,0,6.827-3.057,6.827-6.827S399.717,133.12,395.947,133.12z"/>
	</g>
</g>
<g>
	<g>
		<path d="M334.507,98.987h-184.32c-3.77,0-6.827,3.057-6.827,6.827s3.057,6.827,6.827,6.827h184.32c3.77,0,6.827-3.057,6.827-6.827
			S338.277,98.987,334.507,98.987z"/>
	</g>
</g>
<g>
	<g>
		<path d="M177.493,180.907H47.787c-3.77,0-6.827,3.057-6.827,6.827s3.057,6.827,6.827,6.827h129.707
			c3.77,0,6.827-3.057,6.827-6.827S181.263,180.907,177.493,180.907z"/>
	</g>
</g>
<g>
	<g>
		<path d="M177.493,215.04H47.787c-3.77,0-6.827,3.057-6.827,6.827s3.057,6.827,6.827,6.827h129.707c3.77,0,6.827-3.057,6.827-6.827
			S181.263,215.04,177.493,215.04z"/>
	</g>
</g>
<g>
	<g>
		<path d="M232.107,133.12H47.787c-3.77,0-6.827,3.057-6.827,6.827s3.057,6.827,6.827,6.827h184.32c3.77,0,6.827-3.057,6.827-6.827
			S235.877,133.12,232.107,133.12z"/>
	</g>
</g>
<g>
	<g>
		<path d="M98.744,276.48l5.91-10.24c1.217-2.113,1.217-4.717,0-6.827c-1.22-2.113-3.473-3.413-5.914-3.413H86.917l-5.91-10.24
			c-2.44-4.227-9.387-4.227-11.827,0L63.27,256H51.446c-2.441,0-4.693,1.3-5.914,3.413c-1.217,2.109-1.217,4.714,0,6.827l5.91,10.24
			l-5.91,10.24c-1.217,2.113-1.217,4.717,0,6.827c1.22,2.113,3.473,3.413,5.914,3.413H63.27l5.91,10.24
			c1.22,2.113,3.473,3.413,5.914,3.413s4.693-1.3,5.914-3.413l5.91-10.24h11.824c2.44,0,4.693-1.3,5.914-3.413
			c1.217-2.109,1.217-4.714,0-6.827L98.744,276.48z M84.948,279.893l1.97,3.413h-3.941c-2.44,0-4.693,1.3-5.914,3.413l-1.969,3.413
			l-1.97-3.413c-1.22-2.113-3.473-3.413-5.914-3.413H63.27l1.969-3.413c1.217-2.113,1.217-4.714,0-6.827l-1.969-3.413h3.941
			c2.441,0,4.693-1.3,5.914-3.413l1.969-3.413l1.969,3.413c1.22,2.113,3.473,3.413,5.914,3.413h3.941l-1.97,3.413
			C83.731,275.18,83.731,277.78,84.948,279.893z"/>
	</g>
</g>
<g>
	<g>
		<path d="M173.838,276.48l5.91-10.24c1.217-2.113,1.217-4.717,0-6.827c-1.22-2.113-3.473-3.413-5.914-3.413H162.01l-5.91-10.24
			c-2.441-4.227-9.387-4.227-11.827,0l-5.91,10.24h-11.824c-2.44,0-4.693,1.3-5.914,3.413c-1.217,2.109-1.217,4.714,0,6.827
			l5.91,10.24l-5.91,10.24c-1.217,2.113-1.217,4.717,0,6.827c1.22,2.113,3.473,3.413,5.914,3.413h11.824l5.91,10.24
			c1.22,2.113,3.473,3.413,5.914,3.413s4.693-1.3,5.914-3.413l5.91-10.24h11.824c2.44,0,4.693-1.3,5.914-3.413
			c1.217-2.109,1.217-4.714,0-6.827L173.838,276.48z M160.041,279.893l1.97,3.413h-3.941c-2.44,0-4.693,1.3-5.914,3.413
			l-1.969,3.413l-1.969-3.413c-1.22-2.113-3.473-3.413-5.914-3.413h-3.941l1.969-3.413c1.217-2.113,1.217-4.714,0-6.827
			l-1.969-3.413h3.941c2.44,0,4.693-1.3,5.914-3.413l1.969-3.413l1.969,3.413c1.22,2.113,3.473,3.413,5.914,3.413h3.941l-1.97,3.413
			C158.824,275.18,158.824,277.78,160.041,279.893z"/>
	</g>
</g>
<g>
	<g>
		<path d="M341.333,269.653c-3.77,0-6.827,3.057-6.827,6.827v81.37l-23.043-18.434c-2.493-1.993-6.033-1.993-8.527,0l-23.043,18.434
			v-81.37c0-3.77-3.057-6.827-6.827-6.827s-6.827,3.057-6.827,6.827v95.573c0,2.623,1.504,5.016,3.871,6.153
			c2.359,1.133,5.169,0.817,7.219-0.823l29.87-23.893l29.87,23.893c1.234,0.986,2.743,1.497,4.263,1.497
			c1.007,0,2.017-0.224,2.956-0.674c2.367-1.137,3.871-3.529,3.871-6.153V276.48C348.16,272.71,345.103,269.653,341.333,269.653z"/>
	</g>
</g>
<g>
	<g>
		<path d="M307.2,153.6c-37.644,0-68.267,30.623-68.267,68.267c0,37.644,30.623,68.267,68.267,68.267
			c37.644,0,68.267-30.623,68.267-68.267C375.467,184.223,344.844,153.6,307.2,153.6z M307.2,276.48
			c-30.114,0-54.613-24.499-54.613-54.613s24.499-54.613,54.613-54.613c30.114,0,54.613,24.499,54.613,54.613
			S337.314,276.48,307.2,276.48z"/>
	</g>
</g>
<g>
</g>
<g>
</g>
<g>
</g>
<g>
</g>
<g>
</g>
<g>
</g>
<g>
</g>
<g>
</g>
<g>
</g>
<g>
</g>
<g>
</g>
<g>
</g>
<g>
</g>
<g>
</g>
<g>
</g>
</svg>
