<?xml version="1.0" encoding="iso-8859-1"?>
<!-- Generator: Adobe Illustrator 19.0.0, SVG Export Plug-In . SVG Version: 6.00 Build 0)  -->
<svg version="1.1" id="Capa_1" xmlns="http://www.w3.org/2000/svg" xmlns:xlink="http://www.w3.org/1999/xlink" x="0px" y="0px"
	 viewBox="0 0 431.842 431.842" style="enable-background:new 0 0 431.842 431.842;" xml:space="preserve">
<g>
	<g>
		<path d="M242.548,401.255c-3.707-0.739-7.293,1.654-8.033,5.354l-3.413,17.067c-0.739,3.697,1.661,7.293,5.354,8.033
			c0.454,0.09,0.899,0.133,1.347,0.133c3.188,0,6.042-2.243,6.687-5.487l3.413-17.067
			C248.641,405.592,246.241,401.996,242.548,401.255z"/>
	</g>
</g>
<g>
	<g>
		<path d="M246.541,403.686c-2.36-2.941-6.647-3.424-9.6-1.067l-17.067,13.653c-2.941,2.353-3.42,6.649-1.067,9.593
			c1.353,1.686,3.333,2.563,5.34,2.563c1.493,0,3-0.49,4.26-1.497l17.067-13.653C248.415,410.925,248.895,406.63,246.541,403.686z"
			/>
	</g>
</g>
<g>
	<g>
		<path d="M265.202,413.92l-17.067-10.24c-3.239-1.94-7.426-0.891-9.366,2.34c-1.94,3.232-0.894,7.426,2.34,9.366l17.067,10.24
			c1.101,0.659,2.314,0.973,3.507,0.973c2.319,0,4.579-1.181,5.859-3.313C269.482,420.054,268.436,415.861,265.202,413.92z"/>
	</g>
</g>
<g>
	<g>
		<path d="M230.944,89.891c-0.114-1.207-2.828-29.734-15.167-49.514c-1.993-3.203-6.214-4.183-9.407-2.176
			c-3.2,1.993-4.173,6.207-2.179,9.404c10.607,16.99,13.133,43.264,13.153,43.527c0.326,3.54,3.306,6.2,6.792,6.2
			c0.207,0,0.42-0.007,0.628-0.027C228.517,96.962,231.284,93.644,230.944,89.891z"/>
	</g>
</g>
<g>
	<g>
		<path d="M221.65,24.601c-0.534-0.652-13.321-16.119-32.94-22.506c-17.461-5.683-45.566,0.317-55.687,16.531
			c-15.718,25.146-34.645,34.97-34.813,35.057c-1.753,0.877-3.04,2.464-3.546,4.354c-0.5,1.893-0.167,3.91,0.92,5.54
			c7.893,11.836,33.172,18.657,38.159,19.903c0.246,0.06,0.5,0.109,0.753,0.143c3.379,0.451,6.666,0.664,9.866,0.664
			c49.074,0,76.774-49.85,78.002-52.11C223.682,29.745,223.402,26.748,221.65,24.601z M136.676,70.14
			c-7.375-1.888-17.574-5.524-24.107-9.441c8.088-5.81,20.774-16.829,32.027-34.836c6.001-9.59,26.499-15.136,39.887-10.779
			c10.621,3.453,18.987,10.479,23.327,14.706C199.949,41.707,174.523,74.924,136.676,70.14z"/>
	</g>
</g>
<g>
	<g>
		<path d="M249.533,81.783c-8.94-6.494-17.886-0.823-23.799,2.92c-2.546,1.613-5.719,3.62-7.233,3.62
			c-0.954-0.046-3.847-0.986-5.76-1.609c-5.92-1.927-11.527-3.738-16.213-1.794c-54.139,22.352-58.346,169.527-58.346,214.1
			c0,97.954,55.219,110.513,103.327,110.513c49.807,0,95.901-13.387,95.898-110.513C337.406,221.523,293.879,113.919,249.533,81.783
			z M241.508,395.879c-46.573,0-89.673-11.733-89.673-96.86c0-83.067,12.954-185.358,49.42-201.274
			c1.5,0.08,5.081,1.241,7.272,1.952c3.76,1.22,7.006,2.277,9.933,2.277c5.513,0,10.327-3.046,14.573-5.733
			c4.874-3.086,7.241-4.296,8.487-3.406c40.735,29.517,82.234,133.574,82.234,206.184
			C323.754,360.362,310.296,395.879,241.508,395.879z"/>
	</g>
</g>
<g>
</g>
<g>
</g>
<g>
</g>
<g>
</g>
<g>
</g>
<g>
</g>
<g>
</g>
<g>
</g>
<g>
</g>
<g>
</g>
<g>
</g>
<g>
</g>
<g>
</g>
<g>
</g>
<g>
</g>
</svg>
