<?xml version="1.0" encoding="iso-8859-1"?>
<!-- Generator: Adobe Illustrator 19.0.0, SVG Export Plug-In . SVG Version: 6.00 Build 0)  -->
<svg version="1.1" id="Capa_1" xmlns="http://www.w3.org/2000/svg" xmlns:xlink="http://www.w3.org/1999/xlink" x="0px" y="0px"
	 viewBox="0 0 436.907 436.907" style="enable-background:new 0 0 436.907 436.907;" xml:space="preserve">
<g>
	<g>
		<path d="M307.2,0c-45.174,0-81.92,36.75-81.92,81.92s36.746,81.92,81.92,81.92c45.174,0,81.92-36.75,81.92-81.92
			S352.374,0,307.2,0z M307.2,150.187c-37.641,0-68.267-30.623-68.267-68.267c0-37.644,30.626-68.267,68.267-68.267
			c37.641,0,68.267,30.623,68.267,68.267C375.467,119.564,344.841,150.187,307.2,150.187z"/>
	</g>
</g>
<g>
	<g>
		<g>
			<path d="M304.8,101.019c-3.074,0-5.439,0.749-7.093,2.249c-1.654,1.5-2.48,3.905-2.48,7.214c0,3.267,0.826,5.68,2.48,7.24
				c1.652,1.557,4.019,2.336,7.093,2.336c3,0,5.327-0.78,6.98-2.336c1.654-1.56,2.487-3.973,2.487-7.24
				c0-3.309-0.78-5.714-2.34-7.214C310.368,101.769,307.994,101.019,304.8,101.019z"/>
			<path d="M313.889,47.483c-0.246-1.536-0.72-2.913-1.413-4.123c-0.695-1.213-1.654-2.195-2.881-2.944
				c-1.234-0.749-2.828-1.123-4.794-1.123c-1.959,0-3.567,0.364-4.813,1.094c-1.253,0.732-2.219,1.693-2.913,2.886
				c-0.695,1.193-1.174,2.557-1.447,4.096c-0.266,1.536-0.399,3.113-0.399,4.729v14.077l3,18.693c0,1.231,0.067,2.424,0.2,3.577
				s0.432,2.185,0.893,3.087s1.126,1.633,1.993,2.193c0.867,0.556,2.028,0.836,3.487,0.836c1.466,0,2.627-0.28,3.494-0.836
				c0.867-0.56,1.526-1.29,1.987-2.193c0.466-0.905,0.759-1.934,0.899-3.087c0.133-1.154,0.2-2.347,0.2-3.577l2.889-18.463V52.215
				C314.269,50.599,314.141,49.022,313.889,47.483z"/>
		</g>
	</g>
</g>
<g>
	<g>
		<path d="M102.4,136.533H75.093c-3.773,0-6.827,3.057-6.827,6.827v273.067c0,11.293,9.187,20.48,20.48,20.48
			s20.48-9.187,20.48-20.48V143.36C109.227,139.59,106.173,136.533,102.4,136.533z M95.573,416.427c0,3.763-3.06,6.827-6.827,6.827
			s-6.827-3.063-6.827-6.827v-266.24h13.653V416.427z"/>
	</g>
</g>
<g>
	<g>
		<path d="M191.147,211.627H163.84c-3.773,0-6.827,3.057-6.827,6.827v197.973c0,11.293,9.187,20.48,20.48,20.48
			c11.293,0,20.48-9.187,20.48-20.48V218.453C197.973,214.683,194.92,211.627,191.147,211.627z M184.32,416.427
			c0,3.763-3.06,6.827-6.827,6.827c-3.767,0-6.827-3.063-6.827-6.827V225.28h13.653V416.427z"/>
	</g>
</g>
<g>
	<g>
		<path d="M116.053,6.827v102.4c0,15.056-12.247,27.307-27.307,27.307s-27.307-12.25-27.307-27.307V6.827H47.787v102.4
			c0,22.586,18.374,40.96,40.96,40.96c22.586,0,40.96-18.374,40.96-40.96V6.827H116.053z"/>
	</g>
</g>
<g>
	<g>
		<rect x="81.92" y="6.827" width="13.653" height="136.533"/>
	</g>
</g>
<g>
	<g>
		<path d="M191.147,0c-22.886,0-42.346,17.113-45.321,40.323l-9.286,177.773c-0.092,1.87,0.58,3.697,1.867,5.057
			c1.292,1.357,3.079,2.127,4.953,2.127h47.787c3.773,0,6.827-3.057,6.827-6.827V6.827C197.973,3.057,194.92,0,191.147,0z
			 M184.32,211.627h-33.766l8.866-170.073c1.748-13.59,11.96-24.323,24.9-27.163V211.627z"/>
	</g>
</g>
<g>
</g>
<g>
</g>
<g>
</g>
<g>
</g>
<g>
</g>
<g>
</g>
<g>
</g>
<g>
</g>
<g>
</g>
<g>
</g>
<g>
</g>
<g>
</g>
<g>
</g>
<g>
</g>
<g>
</g>
</svg>
