<?xml version="1.0" encoding="iso-8859-1"?>
<!-- Generator: Adobe Illustrator 19.0.0, SVG Export Plug-In . SVG Version: 6.00 Build 0)  -->
<svg version="1.1" id="Capa_1" xmlns="http://www.w3.org/2000/svg" xmlns:xlink="http://www.w3.org/1999/xlink" x="0px" y="0px"
	 viewBox="0 0 395.443 395.443" style="enable-background:new 0 0 395.443 395.443;" xml:space="preserve">
<g>
	<g>
		<path d="M219.835,47.971c-1.227-11.04-6.222-19.633-14.853-25.533c-24.023-16.425-68.576-4.808-70.46-4.301
			c-2.987,0.797-5.067,3.504-5.067,6.596c0,39.557,42.126,50.01,64.403,50.01c3.77,0,6.827-3.055,6.827-6.825
			s-3.057-6.827-6.827-6.827c-1.964,0-45.804-0.374-50.367-31.024c13.981-2.854,40.17-5.663,53.784,3.64
			c5.27,3.606,8.214,8.764,8.994,15.77c0.416,3.753,3.809,6.473,7.537,6.03C217.551,55.095,220.251,51.717,219.835,47.971z"/>
	</g>
</g>
<g>
	<g>
		<path d="M269.128,25.045c-1.056-3.623-4.85-5.697-8.463-4.644c-68.018,19.84-70.306,54.851-68.134,68.983
			c0.515,3.377,3.427,5.791,6.736,5.791c0.346,0,0.696-0.026,1.046-0.08c3.727-0.573,6.284-4.057,5.711-7.784
			c-1.626-10.576,0.817-36.989,58.46-53.803C268.104,32.452,270.185,28.662,269.128,25.045z"/>
	</g>
</g>
<g>
	<g>
		<path d="M319.245,88.356c-22.313-17.78-49.616-13.577-78.549-9.131c-13.891,2.14-28.254,4.35-42.974,4.35
			c-14.72,0-29.083-2.21-42.977-4.35c-28.916-4.442-56.226-8.646-78.546,9.131c-31.165,24.823-50.529,69.763-50.529,117.28
			c0,42.423,14.967,80.99,47.107,121.363c4.026,5.064,8.346,11.274,12.919,17.853c12.02,17.283,25.643,36.874,41.107,45.681
			c15.176,8.636,30.623,4.123,45.559-0.237c8.38-2.451,17.046-4.98,25.359-4.98c8.313,0,16.98,2.529,25.359,4.98
			c8.724,2.551,17.623,5.151,26.54,5.147c6.347,0,12.706-1.318,19.016-4.912c15.471-8.81,29.097-28.406,41.117-45.693
			c4.572-6.572,8.89-12.783,12.913-17.843c32.14-40.38,47.107-78.942,47.107-121.359
			C369.774,158.119,350.412,113.179,319.245,88.356z M311.985,318.495c-4.297,5.403-8.736,11.786-13.44,18.546
			c-11.192,16.101-23.88,34.347-36.663,41.624c-10.139,5.777-21.649,2.417-34.973-1.476c-9.301-2.717-18.92-5.526-29.187-5.526
			s-19.886,2.811-29.186,5.526c-13.329,3.893-24.834,7.253-34.976,1.476c-12.778-7.274-25.464-25.513-36.654-41.61
			c-4.704-6.764-9.148-13.153-13.45-18.557c-30.109-37.83-44.133-73.694-44.133-112.864c0-43.457,17.391-84.304,45.384-106.6
			c17.647-14.049,40.96-10.467,67.963-6.313c14.399,2.217,29.29,4.507,45.053,4.507c15.763,0,30.652-2.29,45.049-4.507
			c27.003-4.154,50.309-7.743,67.966,6.313c27.994,22.298,45.384,63.143,45.384,106.6
			C356.121,244.797,342.099,280.658,311.985,318.495z"/>
	</g>
</g>
<g>
	<g>
		<path d="M100.935,128.884c-2.152-3.101-6.397-3.881-9.499-1.727c-0.485,0.336-48.217,34.246-29.971,96.287
			c0.877,2.973,3.596,4.903,6.547,4.903c0.637,0,1.287-0.09,1.93-0.278c3.616-1.063,5.687-4.861,4.623-8.477
			c-15.408-52.384,23.016-80.067,24.66-81.22C102.312,136.221,103.075,131.98,100.935,128.884z"/>
	</g>
</g>
<g>
	<g>
		<path d="M321.66,18.381C305.457,4.338,288.433-1.695,271.002,0.408c-30.674,3.732-50.714,31.664-51.55,32.85
			c-1.582,2.244-1.623,5.113-0.333,7.347c-0.174,0.297-0.324,0.614-0.454,0.944c-1.367,3.514,0.375,7.47,3.889,8.837
			c13.793,5.364,26.194,7.487,37.19,7.484c41.373-0.003,62.79-30.056,63.058-30.442C324.786,24.561,324.293,20.664,321.66,18.381z
			 M232.022,39.306c4.627-5.707,20.12-22.886,40.707-25.349c11.593-1.391,23.236,2.144,34.679,10.506
			C298.043,33.986,272.922,53.204,232.022,39.306z"/>
	</g>
</g>
<g>
</g>
<g>
</g>
<g>
</g>
<g>
</g>
<g>
</g>
<g>
</g>
<g>
</g>
<g>
</g>
<g>
</g>
<g>
</g>
<g>
</g>
<g>
</g>
<g>
</g>
<g>
</g>
<g>
</g>
</svg>
