<?xml version="1.0" encoding="iso-8859-1"?>
<!-- Generator: Adobe Illustrator 19.0.0, SVG Export Plug-In . SVG Version: 6.00 Build 0)  -->
<svg version="1.1" id="Capa_1" xmlns="http://www.w3.org/2000/svg" xmlns:xlink="http://www.w3.org/1999/xlink" x="0px" y="0px"
	 viewBox="0 0 436.907 436.907" style="enable-background:new 0 0 436.907 436.907;" xml:space="preserve">
<g>
	<g>
		<path d="M245.76,121.25V61.44c0-3.77-3.053-6.827-6.827-6.827h-40.96c-3.773,0-6.827,3.057-6.827,6.827v59.81
			c-20.599,9.317-34.133,29.969-34.133,52.83v256c0,3.77,3.053,6.827,6.827,6.827h109.227c3.773,0,6.827-3.057,6.827-6.827v-256
			C279.893,151.221,266.359,130.567,245.76,121.25z M266.24,423.253h-95.573V174.08c0-18.734,11.887-35.526,29.587-41.788
			c2.727-0.966,4.547-3.543,4.547-6.436v-57.59h27.307v57.591c0,2.893,1.819,5.47,4.547,6.436
			c17.7,6.26,29.587,23.052,29.587,41.786V423.253z"/>
	</g>
</g>
<g>
	<g>
		<path d="M238.933,0h-40.96c-3.773,0-6.827,3.057-6.827,6.827V61.44c0,3.77,3.053,6.827,6.827,6.827h40.96
			c3.773,0,6.827-3.057,6.827-6.827V6.827C245.76,3.057,242.707,0,238.933,0z M232.107,54.613H204.8v-40.96h27.307V54.613z"/>
	</g>
</g>
<g>
	<g>
		<path d="M245.76,177.493h-54.613c-3.773,0-6.827,3.057-6.827,6.827v47.787c0,3.77,3.053,6.827,6.827,6.827h54.613
			c3.773,0,6.827-3.057,6.827-6.827V184.32C252.587,180.55,249.533,177.493,245.76,177.493z M238.933,225.28h-40.96v-34.133h40.96
			V225.28z"/>
	</g>
</g>
<g>
	<g>
		<path d="M245.76,245.76h-54.613c-3.773,0-6.827,3.057-6.827,6.827V389.12c0,3.77,3.053,6.827,6.827,6.827h54.613
			c3.773,0,6.827-3.057,6.827-6.827V252.587C252.587,248.817,249.533,245.76,245.76,245.76z M238.933,382.293h-40.96v-122.88h40.96
			V382.293z"/>
	</g>
</g>
<g>
</g>
<g>
</g>
<g>
</g>
<g>
</g>
<g>
</g>
<g>
</g>
<g>
</g>
<g>
</g>
<g>
</g>
<g>
</g>
<g>
</g>
<g>
</g>
<g>
</g>
<g>
</g>
<g>
</g>
</svg>
